<?xml version="1.0" encoding="UTF-8" standalone="no"?>
<!DOCTYPE svg PUBLIC "-//W3C//DTD SVG 1.1//EN"
 "http://www.w3.org/Graphics/SVG/1.1/DTD/svg11.dtd">
<!-- Generated by graphviz version 2.40.1 (20161225.0304)
 -->
<!-- Title: /Users/Claudio/GitHub/bayes&#45;filters&#45;lib/src/BayesFilters/include/BayesFilters/AdditiveStateModel.h Pages: 1 -->
<svg width="204pt" height="167pt"
 viewBox="0.00 0.00 204.39 167.00" xmlns="http://www.w3.org/2000/svg" xmlns:xlink="http://www.w3.org/1999/xlink">
<g id="graph0" class="graph" transform="scale(1 1) rotate(0) translate(4 163)">
<title>/Users/Claudio/GitHub/bayes&#45;filters&#45;lib/src/BayesFilters/include/BayesFilters/AdditiveStateModel.h</title>
<polygon fill="#ffffff" stroke="transparent" points="-4,4 -4,-163 200.3862,-163 200.3862,4 -4,4"/>
<!-- Node0 -->
<g id="node1" class="node">
<title>Node0</title>
<polygon fill="#bfbfbf" stroke="#000000" points="0,-110.5 0,-158.5 166.0537,-158.5 166.0537,-110.5 0,-110.5"/>
<text text-anchor="start" x="8" y="-146.5" font-family="Helvetica,sans-Serif" font-size="10.00" fill="#000000">/Users/Claudio/GitHub</text>
<text text-anchor="start" x="8" y="-136.5" font-family="Helvetica,sans-Serif" font-size="10.00" fill="#000000">/bayes&#45;filters&#45;lib/src</text>
<text text-anchor="start" x="8" y="-126.5" font-family="Helvetica,sans-Serif" font-size="10.00" fill="#000000">/BayesFilters/include/BayesFilters</text>
<text text-anchor="middle" x="83.0269" y="-116.5" font-family="Helvetica,sans-Serif" font-size="10.00" fill="#000000">/AdditiveStateModel.h</text>
</g>
<!-- Node1 -->
<g id="node2" class="node">
<title>Node1</title>
<polygon fill="#ffffff" stroke="#bfbfbf" points="46.3965,-.5 46.3965,-18.5 119.6572,-18.5 119.6572,-.5 46.3965,-.5"/>
<text text-anchor="middle" x="83.0269" y="-6.5" font-family="Helvetica,sans-Serif" font-size="10.00" fill="#000000">Eigen/Dense</text>
</g>
<!-- Node0&#45;&gt;Node1 -->
<g id="edge1" class="edge">
<title>Node0&#45;&gt;Node1</title>
<path fill="none" stroke="#191970" d="M66.372,-110.3977C57.6086,-94.7647 49.6866,-73.8672 55.0269,-55 57.89,-44.8845 63.7065,-34.8071 69.3001,-26.7169"/>
<polygon fill="#191970" stroke="#191970" points="72.2213,-28.653 75.3512,-18.5311 66.5923,-24.4919 72.2213,-28.653"/>
</g>
<!-- Node2 -->
<g id="node3" class="node">
<title>Node2</title>
<g id="a_node3"><a xlink:href="StateModel_8h.html" target="_top" xlink:title="BayesFilters/StateModel.h">
<polygon fill="#ffffff" stroke="#000000" points="63.6675,-55.5 63.6675,-73.5 196.3862,-73.5 196.3862,-55.5 63.6675,-55.5"/>
<text text-anchor="middle" x="130.0269" y="-61.5" font-family="Helvetica,sans-Serif" font-size="10.00" fill="#000000">BayesFilters/StateModel.h</text>
</a>
</g>
</g>
<!-- Node0&#45;&gt;Node2 -->
<g id="edge2" class="edge">
<title>Node0&#45;&gt;Node2</title>
<path fill="none" stroke="#191970" d="M99.2016,-110.41C105.4417,-101.1162 112.4474,-90.6821 118.2014,-82.1124"/>
<polygon fill="#191970" stroke="#191970" points="121.1897,-83.9405 123.8583,-73.6872 115.3781,-80.0384 121.1897,-83.9405"/>
</g>
<!-- Node2&#45;&gt;Node1 -->
<g id="edge3" class="edge">
<title>Node2&#45;&gt;Node1</title>
<path fill="none" stroke="#191970" d="M122.2658,-55.4179C115.5707,-47.5833 105.7215,-36.0575 97.5658,-26.5137"/>
<polygon fill="#191970" stroke="#191970" points="100.1139,-24.108 90.9566,-18.7795 94.7923,-28.6556 100.1139,-24.108"/>
</g>
</g>
</svg>
