<?xml version="1.0" encoding="UTF-8" standalone="no"?>
<!DOCTYPE svg PUBLIC "-//W3C//DTD SVG 1.1//EN"
 "http://www.w3.org/Graphics/SVG/1.1/DTD/svg11.dtd">
<!-- Generated by graphviz version 2.40.1 (20161225.0304)
 -->
<!-- Title: /Users/Claudio/GitHub/bayes&#45;filters&#45;lib/src/BayesFilters/include/BayesFilters/AdditiveMeasurementModel.h Pages: 1 -->
<svg width="1534pt" height="397pt"
 viewBox="0.00 0.00 1533.92 397.00" xmlns="http://www.w3.org/2000/svg" xmlns:xlink="http://www.w3.org/1999/xlink">
<g id="graph0" class="graph" transform="scale(1 1) rotate(0) translate(4 393)">
<title>/Users/Claudio/GitHub/bayes&#45;filters&#45;lib/src/BayesFilters/include/BayesFilters/AdditiveMeasurementModel.h</title>
<polygon fill="#ffffff" stroke="transparent" points="-4,4 -4,-393 1529.9209,-393 1529.9209,4 -4,4"/>
<!-- Node16 -->
<g id="node1" class="node">
<title>Node16</title>
<polygon fill="#bfbfbf" stroke="#000000" points="927.2168,-340.5 927.2168,-388.5 1093.2705,-388.5 1093.2705,-340.5 927.2168,-340.5"/>
<text text-anchor="start" x="935.2168" y="-376.5" font-family="Helvetica,sans-Serif" font-size="10.00" fill="#000000">/Users/Claudio/GitHub</text>
<text text-anchor="start" x="935.2168" y="-366.5" font-family="Helvetica,sans-Serif" font-size="10.00" fill="#000000">/bayes&#45;filters&#45;lib/src</text>
<text text-anchor="start" x="935.2168" y="-356.5" font-family="Helvetica,sans-Serif" font-size="10.00" fill="#000000">/BayesFilters/include/BayesFilters</text>
<text text-anchor="middle" x="1010.2437" y="-346.5" font-family="Helvetica,sans-Serif" font-size="10.00" fill="#000000">/AdditiveMeasurementModel.h</text>
</g>
<!-- Node17 -->
<g id="node2" class="node">
<title>Node17</title>
<g id="a_node2"><a xlink:href="LinearMeasurementModel_8h.html" target="_top" xlink:title="/Users/Claudio/GitHub\l/bayes&#45;filters&#45;lib/src\l/BayesFilters/include/BayesFilters\l/LinearMeasurementModel.h">
<polygon fill="#ffffff" stroke="#000000" points="470.2168,-255.5 470.2168,-303.5 636.2705,-303.5 636.2705,-255.5 470.2168,-255.5"/>
<text text-anchor="start" x="478.2168" y="-291.5" font-family="Helvetica,sans-Serif" font-size="10.00" fill="#000000">/Users/Claudio/GitHub</text>
<text text-anchor="start" x="478.2168" y="-281.5" font-family="Helvetica,sans-Serif" font-size="10.00" fill="#000000">/bayes&#45;filters&#45;lib/src</text>
<text text-anchor="start" x="478.2168" y="-271.5" font-family="Helvetica,sans-Serif" font-size="10.00" fill="#000000">/BayesFilters/include/BayesFilters</text>
<text text-anchor="middle" x="553.2437" y="-261.5" font-family="Helvetica,sans-Serif" font-size="10.00" fill="#000000">/LinearMeasurementModel.h</text>
</a>
</g>
</g>
<!-- Node16&#45;&gt;Node17 -->
<g id="edge1" class="edge">
<title>Node16&#45;&gt;Node17</title>
<path fill="none" stroke="#191970" d="M917.0924,-347.1743C834.6911,-331.848 715.5729,-309.6925 636.3461,-294.9567"/>
<polygon fill="#191970" stroke="#191970" points="916.4828,-350.6208 926.9542,-349.0085 917.7628,-343.7389 916.4828,-350.6208"/>
</g>
<!-- Node27 -->
<g id="node12" class="node">
<title>Node27</title>
<g id="a_node12"><a xlink:href="sigma__point_8h.html" target="_top" xlink:title="/Users/Claudio/GitHub\l/bayes&#45;filters&#45;lib/src\l/BayesFilters/include/BayesFilters\l/sigma_point.h">
<polygon fill="#ffffff" stroke="#000000" points="1038.2168,-255.5 1038.2168,-303.5 1204.2705,-303.5 1204.2705,-255.5 1038.2168,-255.5"/>
<text text-anchor="start" x="1046.2168" y="-291.5" font-family="Helvetica,sans-Serif" font-size="10.00" fill="#000000">/Users/Claudio/GitHub</text>
<text text-anchor="start" x="1046.2168" y="-281.5" font-family="Helvetica,sans-Serif" font-size="10.00" fill="#000000">/bayes&#45;filters&#45;lib/src</text>
<text text-anchor="start" x="1046.2168" y="-271.5" font-family="Helvetica,sans-Serif" font-size="10.00" fill="#000000">/BayesFilters/include/BayesFilters</text>
<text text-anchor="middle" x="1121.2437" y="-261.5" font-family="Helvetica,sans-Serif" font-size="10.00" fill="#000000">/sigma_point.h</text>
</a>
</g>
</g>
<!-- Node16&#45;&gt;Node27 -->
<g id="edge11" class="edge">
<title>Node16&#45;&gt;Node27</title>
<path fill="none" stroke="#191970" d="M1049.7155,-334.2738C1062.8183,-324.2401 1077.2249,-313.208 1089.6536,-303.6906"/>
<polygon fill="#191970" stroke="#191970" points="1047.5665,-331.5111 1041.7549,-340.3698 1051.8224,-337.0688 1047.5665,-331.5111"/>
</g>
<!-- Node28 -->
<g id="node13" class="node">
<title>Node28</title>
<g id="a_node13"><a xlink:href="SUKFCorrection_8h.html" target="_top" xlink:title="/Users/Claudio/GitHub\l/bayes&#45;filters&#45;lib/src\l/BayesFilters/include/BayesFilters\l/SUKFCorrection.h">
<polygon fill="#ffffff" stroke="#000000" points="854.2168,-170.5 854.2168,-218.5 1020.2705,-218.5 1020.2705,-170.5 854.2168,-170.5"/>
<text text-anchor="start" x="862.2168" y="-206.5" font-family="Helvetica,sans-Serif" font-size="10.00" fill="#000000">/Users/Claudio/GitHub</text>
<text text-anchor="start" x="862.2168" y="-196.5" font-family="Helvetica,sans-Serif" font-size="10.00" fill="#000000">/bayes&#45;filters&#45;lib/src</text>
<text text-anchor="start" x="862.2168" y="-186.5" font-family="Helvetica,sans-Serif" font-size="10.00" fill="#000000">/BayesFilters/include/BayesFilters</text>
<text text-anchor="middle" x="937.2437" y="-176.5" font-family="Helvetica,sans-Serif" font-size="10.00" fill="#000000">/SUKFCorrection.h</text>
</a>
</g>
</g>
<!-- Node16&#45;&gt;Node28 -->
<g id="edge19" class="edge">
<title>Node16&#45;&gt;Node28</title>
<path fill="none" stroke="#191970" d="M995.7937,-330.8494C981.5591,-297.7004 960.1683,-247.8863 947.5654,-218.537"/>
<polygon fill="#191970" stroke="#191970" points="992.6227,-332.3355 999.7845,-340.1431 999.0548,-329.5735 992.6227,-332.3355"/>
</g>
<!-- Node30 -->
<g id="node15" class="node">
<title>Node30</title>
<g id="a_node15"><a xlink:href="UKFCorrection_8h.html" target="_top" xlink:title="/Users/Claudio/GitHub\l/bayes&#45;filters&#45;lib/src\l/BayesFilters/include/BayesFilters\l/UKFCorrection.h">
<polygon fill="#ffffff" stroke="#000000" points="1038.2168,-170.5 1038.2168,-218.5 1204.2705,-218.5 1204.2705,-170.5 1038.2168,-170.5"/>
<text text-anchor="start" x="1046.2168" y="-206.5" font-family="Helvetica,sans-Serif" font-size="10.00" fill="#000000">/Users/Claudio/GitHub</text>
<text text-anchor="start" x="1046.2168" y="-196.5" font-family="Helvetica,sans-Serif" font-size="10.00" fill="#000000">/bayes&#45;filters&#45;lib/src</text>
<text text-anchor="start" x="1046.2168" y="-186.5" font-family="Helvetica,sans-Serif" font-size="10.00" fill="#000000">/BayesFilters/include/BayesFilters</text>
<text text-anchor="middle" x="1121.2437" y="-176.5" font-family="Helvetica,sans-Serif" font-size="10.00" fill="#000000">/UKFCorrection.h</text>
</a>
</g>
</g>
<!-- Node16&#45;&gt;Node30 -->
<g id="edge20" class="edge">
<title>Node16&#45;&gt;Node30</title>
<path fill="none" stroke="#191970" d="M1009.3279,-330.2861C1010.2688,-307.2943 1014.6542,-277.2465 1029.2437,-255 1038.9932,-240.1336 1053.8006,-228.0841 1068.7044,-218.767"/>
<polygon fill="#191970" stroke="#191970" points="1005.8285,-330.2275 1009.1137,-340.3001 1012.8269,-330.3772 1005.8285,-330.2275"/>
</g>
<!-- Node35 -->
<g id="node20" class="node">
<title>Node35</title>
<g id="a_node20"><a xlink:href="AdditiveMeasurementModel_8cpp.html" target="_top" xlink:title="/Users/Claudio/GitHub\l/bayes&#45;filters&#45;lib/src\l/BayesFilters/src/AdditiveMeasurement\lModel.cpp">
<polygon fill="#ffffff" stroke="#000000" points="1222.5469,-255.5 1222.5469,-303.5 1411.9404,-303.5 1411.9404,-255.5 1222.5469,-255.5"/>
<text text-anchor="start" x="1230.5469" y="-291.5" font-family="Helvetica,sans-Serif" font-size="10.00" fill="#000000">/Users/Claudio/GitHub</text>
<text text-anchor="start" x="1230.5469" y="-281.5" font-family="Helvetica,sans-Serif" font-size="10.00" fill="#000000">/bayes&#45;filters&#45;lib/src</text>
<text text-anchor="start" x="1230.5469" y="-271.5" font-family="Helvetica,sans-Serif" font-size="10.00" fill="#000000">/BayesFilters/src/AdditiveMeasurement</text>
<text text-anchor="middle" x="1317.2437" y="-261.5" font-family="Helvetica,sans-Serif" font-size="10.00" fill="#000000">Model.cpp</text>
</a>
</g>
</g>
<!-- Node16&#45;&gt;Node35 -->
<g id="edge21" class="edge">
<title>Node16&#45;&gt;Node35</title>
<path fill="none" stroke="#191970" d="M1103.1724,-338.7705C1143.5756,-327.584 1190.647,-314.5512 1230.3455,-303.5597"/>
<polygon fill="#191970" stroke="#191970" points="1102.0258,-335.4563 1093.3223,-341.4978 1103.8936,-342.2025 1102.0258,-335.4563"/>
</g>
<!-- Node18 -->
<g id="node3" class="node">
<title>Node18</title>
<g id="a_node3"><a xlink:href="KFCorrection_8h.html" target="_top" xlink:title="/Users/Claudio/GitHub\l/bayes&#45;filters&#45;lib/src\l/BayesFilters/include/BayesFilters\l/KFCorrection.h">
<polygon fill="#ffffff" stroke="#000000" points="96.2168,-170.5 96.2168,-218.5 262.2705,-218.5 262.2705,-170.5 96.2168,-170.5"/>
<text text-anchor="start" x="104.2168" y="-206.5" font-family="Helvetica,sans-Serif" font-size="10.00" fill="#000000">/Users/Claudio/GitHub</text>
<text text-anchor="start" x="104.2168" y="-196.5" font-family="Helvetica,sans-Serif" font-size="10.00" fill="#000000">/bayes&#45;filters&#45;lib/src</text>
<text text-anchor="start" x="104.2168" y="-186.5" font-family="Helvetica,sans-Serif" font-size="10.00" fill="#000000">/BayesFilters/include/BayesFilters</text>
<text text-anchor="middle" x="179.2437" y="-176.5" font-family="Helvetica,sans-Serif" font-size="10.00" fill="#000000">/KFCorrection.h</text>
</a>
</g>
</g>
<!-- Node17&#45;&gt;Node18 -->
<g id="edge2" class="edge">
<title>Node17&#45;&gt;Node18</title>
<path fill="none" stroke="#191970" d="M460.2407,-259.8208C406.6469,-248.3037 338.052,-233.2625 277.2437,-219 272.3775,-217.8587 267.3803,-216.6678 262.3414,-215.4526"/>
<polygon fill="#191970" stroke="#191970" points="459.5563,-263.2535 470.0681,-261.9293 461.0248,-256.4093 459.5563,-263.2535"/>
</g>
<!-- Node20 -->
<g id="node5" class="node">
<title>Node20</title>
<g id="a_node5"><a xlink:href="LinearModel_8h.html" target="_top" xlink:title="/Users/Claudio/GitHub\l/bayes&#45;filters&#45;lib/src\l/BayesFilters/include/BayesFilters\l/LinearModel.h">
<polygon fill="#ffffff" stroke="#000000" points="286.2168,-170.5 286.2168,-218.5 452.2705,-218.5 452.2705,-170.5 286.2168,-170.5"/>
<text text-anchor="start" x="294.2168" y="-206.5" font-family="Helvetica,sans-Serif" font-size="10.00" fill="#000000">/Users/Claudio/GitHub</text>
<text text-anchor="start" x="294.2168" y="-196.5" font-family="Helvetica,sans-Serif" font-size="10.00" fill="#000000">/bayes&#45;filters&#45;lib/src</text>
<text text-anchor="start" x="294.2168" y="-186.5" font-family="Helvetica,sans-Serif" font-size="10.00" fill="#000000">/BayesFilters/include/BayesFilters</text>
<text text-anchor="middle" x="369.2437" y="-176.5" font-family="Helvetica,sans-Serif" font-size="10.00" fill="#000000">/LinearModel.h</text>
</a>
</g>
</g>
<!-- Node17&#45;&gt;Node20 -->
<g id="edge4" class="edge">
<title>Node17&#45;&gt;Node20</title>
<path fill="none" stroke="#191970" d="M491.7428,-251.0893C468.8933,-240.5338 443.2136,-228.6709 421.2904,-218.5433"/>
<polygon fill="#191970" stroke="#191970" points="490.4628,-254.3534 501.0088,-255.3698 493.3985,-247.9987 490.4628,-254.3534"/>
</g>
<!-- Node24 -->
<g id="node9" class="node">
<title>Node24</title>
<g id="a_node9"><a xlink:href="LTIMeasurementModel_8h.html" target="_top" xlink:title="/Users/Claudio/GitHub\l/bayes&#45;filters&#45;lib/src\l/BayesFilters/include/BayesFilters\l/LTIMeasurementModel.h">
<polygon fill="#ffffff" stroke="#000000" points="470.2168,-170.5 470.2168,-218.5 636.2705,-218.5 636.2705,-170.5 470.2168,-170.5"/>
<text text-anchor="start" x="478.2168" y="-206.5" font-family="Helvetica,sans-Serif" font-size="10.00" fill="#000000">/Users/Claudio/GitHub</text>
<text text-anchor="start" x="478.2168" y="-196.5" font-family="Helvetica,sans-Serif" font-size="10.00" fill="#000000">/bayes&#45;filters&#45;lib/src</text>
<text text-anchor="start" x="478.2168" y="-186.5" font-family="Helvetica,sans-Serif" font-size="10.00" fill="#000000">/BayesFilters/include/BayesFilters</text>
<text text-anchor="middle" x="553.2437" y="-176.5" font-family="Helvetica,sans-Serif" font-size="10.00" fill="#000000">/LTIMeasurementModel.h</text>
</a>
</g>
</g>
<!-- Node17&#45;&gt;Node24 -->
<g id="edge8" class="edge">
<title>Node17&#45;&gt;Node24</title>
<path fill="none" stroke="#191970" d="M553.2437,-245.2518C553.2437,-236.3524 553.2437,-226.951 553.2437,-218.6906"/>
<polygon fill="#191970" stroke="#191970" points="549.7438,-245.3697 553.2437,-255.3698 556.7438,-245.3698 549.7438,-245.3697"/>
</g>
<!-- Node26 -->
<g id="node11" class="node">
<title>Node26</title>
<g id="a_node11"><a xlink:href="LinearMeasurementModel_8cpp.html" target="_top" xlink:title="/Users/Claudio/GitHub\l/bayes&#45;filters&#45;lib/src\l/BayesFilters/src/LinearMeasurement\lModel.cpp">
<polygon fill="#ffffff" stroke="#000000" points="654.436,-170.5 654.436,-218.5 836.0513,-218.5 836.0513,-170.5 654.436,-170.5"/>
<text text-anchor="start" x="662.436" y="-206.5" font-family="Helvetica,sans-Serif" font-size="10.00" fill="#000000">/Users/Claudio/GitHub</text>
<text text-anchor="start" x="662.436" y="-196.5" font-family="Helvetica,sans-Serif" font-size="10.00" fill="#000000">/bayes&#45;filters&#45;lib/src</text>
<text text-anchor="start" x="662.436" y="-186.5" font-family="Helvetica,sans-Serif" font-size="10.00" fill="#000000">/BayesFilters/src/LinearMeasurement</text>
<text text-anchor="middle" x="745.2437" y="-176.5" font-family="Helvetica,sans-Serif" font-size="10.00" fill="#000000">Model.cpp</text>
</a>
</g>
</g>
<!-- Node17&#45;&gt;Node26 -->
<g id="edge10" class="edge">
<title>Node17&#45;&gt;Node26</title>
<path fill="none" stroke="#191970" d="M616.8485,-251.3416C640.7856,-240.7444 667.7668,-228.7996 690.7953,-218.6047"/>
<polygon fill="#191970" stroke="#191970" points="615.2204,-248.2347 607.4933,-255.4832 618.0541,-254.6355 615.2204,-248.2347"/>
</g>
<!-- Node19 -->
<g id="node4" class="node">
<title>Node19</title>
<g id="a_node4"><a xlink:href="KFCorrection_8cpp.html" target="_top" xlink:title="/Users/Claudio/GitHub\l/bayes&#45;filters&#45;lib/src\l/BayesFilters/src/KFCorrection.cpp">
<polygon fill="#ffffff" stroke="#000000" points="0,-90.5 0,-128.5 170.4873,-128.5 170.4873,-90.5 0,-90.5"/>
<text text-anchor="start" x="8" y="-116.5" font-family="Helvetica,sans-Serif" font-size="10.00" fill="#000000">/Users/Claudio/GitHub</text>
<text text-anchor="start" x="8" y="-106.5" font-family="Helvetica,sans-Serif" font-size="10.00" fill="#000000">/bayes&#45;filters&#45;lib/src</text>
<text text-anchor="middle" x="85.2437" y="-96.5" font-family="Helvetica,sans-Serif" font-size="10.00" fill="#000000">/BayesFilters/src/KFCorrection.cpp</text>
</a>
</g>
</g>
<!-- Node18&#45;&gt;Node19 -->
<g id="edge3" class="edge">
<title>Node18&#45;&gt;Node19</title>
<path fill="none" stroke="#191970" d="M145.1151,-163.6391C132.1384,-151.9048 117.7433,-138.888 106.3208,-128.5591"/>
<polygon fill="#191970" stroke="#191970" points="142.7937,-166.2587 152.5585,-170.3698 147.4887,-161.0666 142.7937,-166.2587"/>
</g>
<!-- Node21 -->
<g id="node6" class="node">
<title>Node21</title>
<g id="a_node6"><a xlink:href="SimulatedLinearSensor_8h.html" target="_top" xlink:title="/Users/Claudio/GitHub\l/bayes&#45;filters&#45;lib/src\l/BayesFilters/include/BayesFilters\l/SimulatedLinearSensor.h">
<polygon fill="#ffffff" stroke="#000000" points="373.2168,-85.5 373.2168,-133.5 539.2705,-133.5 539.2705,-85.5 373.2168,-85.5"/>
<text text-anchor="start" x="381.2168" y="-121.5" font-family="Helvetica,sans-Serif" font-size="10.00" fill="#000000">/Users/Claudio/GitHub</text>
<text text-anchor="start" x="381.2168" y="-111.5" font-family="Helvetica,sans-Serif" font-size="10.00" fill="#000000">/bayes&#45;filters&#45;lib/src</text>
<text text-anchor="start" x="381.2168" y="-101.5" font-family="Helvetica,sans-Serif" font-size="10.00" fill="#000000">/BayesFilters/include/BayesFilters</text>
<text text-anchor="middle" x="456.2437" y="-91.5" font-family="Helvetica,sans-Serif" font-size="10.00" fill="#000000">/SimulatedLinearSensor.h</text>
</a>
</g>
</g>
<!-- Node20&#45;&gt;Node21 -->
<g id="edge5" class="edge">
<title>Node20&#45;&gt;Node21</title>
<path fill="none" stroke="#191970" d="M401.3479,-163.1338C411.3008,-153.4097 422.1101,-142.8489 431.4839,-133.6906"/>
<polygon fill="#191970" stroke="#191970" points="398.6485,-160.8779 393.9416,-170.3698 403.5404,-165.8849 398.6485,-160.8779"/>
</g>
<!-- Node23 -->
<g id="node8" class="node">
<title>Node23</title>
<g id="a_node8"><a xlink:href="LinearModel_8cpp.html" target="_top" xlink:title="/Users/Claudio/GitHub\l/bayes&#45;filters&#45;lib/src\l/BayesFilters/src/LinearModel.cpp">
<polygon fill="#ffffff" stroke="#000000" points="188.936,-90.5 188.936,-128.5 355.5513,-128.5 355.5513,-90.5 188.936,-90.5"/>
<text text-anchor="start" x="196.936" y="-116.5" font-family="Helvetica,sans-Serif" font-size="10.00" fill="#000000">/Users/Claudio/GitHub</text>
<text text-anchor="start" x="196.936" y="-106.5" font-family="Helvetica,sans-Serif" font-size="10.00" fill="#000000">/bayes&#45;filters&#45;lib/src</text>
<text text-anchor="middle" x="272.2437" y="-96.5" font-family="Helvetica,sans-Serif" font-size="10.00" fill="#000000">/BayesFilters/src/LinearModel.cpp</text>
</a>
</g>
</g>
<!-- Node20&#45;&gt;Node23 -->
<g id="edge7" class="edge">
<title>Node20&#45;&gt;Node23</title>
<path fill="none" stroke="#191970" d="M334.0259,-163.6391C320.635,-151.9048 305.7805,-138.888 293.9935,-128.5591"/>
<polygon fill="#191970" stroke="#191970" points="331.8791,-166.4116 341.7068,-170.3698 336.4925,-161.1469 331.8791,-166.4116"/>
</g>
<!-- Node22 -->
<g id="node7" class="node">
<title>Node22</title>
<g id="a_node7"><a xlink:href="SimulatedLinearSensor_8cpp.html" target="_top" xlink:title="/Users/Claudio/GitHub\l/bayes&#45;filters&#45;lib/src\l/BayesFilters/src/SimulatedLinear\lSensor.cpp">
<polygon fill="#ffffff" stroke="#000000" points="373.771,-.5 373.771,-48.5 538.7163,-48.5 538.7163,-.5 373.771,-.5"/>
<text text-anchor="start" x="381.771" y="-36.5" font-family="Helvetica,sans-Serif" font-size="10.00" fill="#000000">/Users/Claudio/GitHub</text>
<text text-anchor="start" x="381.771" y="-26.5" font-family="Helvetica,sans-Serif" font-size="10.00" fill="#000000">/bayes&#45;filters&#45;lib/src</text>
<text text-anchor="start" x="381.771" y="-16.5" font-family="Helvetica,sans-Serif" font-size="10.00" fill="#000000">/BayesFilters/src/SimulatedLinear</text>
<text text-anchor="middle" x="456.2437" y="-6.5" font-family="Helvetica,sans-Serif" font-size="10.00" fill="#000000">Sensor.cpp</text>
</a>
</g>
</g>
<!-- Node21&#45;&gt;Node22 -->
<g id="edge6" class="edge">
<title>Node21&#45;&gt;Node22</title>
<path fill="none" stroke="#191970" d="M456.2437,-75.2518C456.2437,-66.3524 456.2437,-56.951 456.2437,-48.6906"/>
<polygon fill="#191970" stroke="#191970" points="452.7438,-75.3697 456.2437,-85.3698 459.7438,-75.3698 452.7438,-75.3697"/>
</g>
<!-- Node25 -->
<g id="node10" class="node">
<title>Node25</title>
<g id="a_node10"><a xlink:href="LTIMeasurementModel_8cpp.html" target="_top" xlink:title="/Users/Claudio/GitHub\l/bayes&#45;filters&#45;lib/src\l/BayesFilters/src/LTIMeasurement\lModel.cpp">
<polygon fill="#ffffff" stroke="#000000" points="557.4795,-85.5 557.4795,-133.5 725.0078,-133.5 725.0078,-85.5 557.4795,-85.5"/>
<text text-anchor="start" x="565.4795" y="-121.5" font-family="Helvetica,sans-Serif" font-size="10.00" fill="#000000">/Users/Claudio/GitHub</text>
<text text-anchor="start" x="565.4795" y="-111.5" font-family="Helvetica,sans-Serif" font-size="10.00" fill="#000000">/bayes&#45;filters&#45;lib/src</text>
<text text-anchor="start" x="565.4795" y="-101.5" font-family="Helvetica,sans-Serif" font-size="10.00" fill="#000000">/BayesFilters/src/LTIMeasurement</text>
<text text-anchor="middle" x="641.2437" y="-91.5" font-family="Helvetica,sans-Serif" font-size="10.00" fill="#000000">Model.cpp</text>
</a>
</g>
</g>
<!-- Node24&#45;&gt;Node25 -->
<g id="edge9" class="edge">
<title>Node24&#45;&gt;Node25</title>
<path fill="none" stroke="#191970" d="M585.421,-163.4196C595.5697,-153.6169 606.6248,-142.9387 616.1993,-133.6906"/>
<polygon fill="#191970" stroke="#191970" points="582.9866,-160.9049 578.2255,-170.3698 587.8498,-165.9398 582.9866,-160.9049"/>
</g>
<!-- Node27&#45;&gt;Node28 -->
<g id="edge12" class="edge">
<title>Node27&#45;&gt;Node28</title>
<path fill="none" stroke="#191970" d="M1059.7428,-251.0893C1036.8933,-240.5338 1011.2136,-228.6709 989.2904,-218.5433"/>
<polygon fill="#191970" stroke="#191970" points="1058.4628,-254.3534 1069.0088,-255.3698 1061.3985,-247.9987 1058.4628,-254.3534"/>
</g>
<!-- Node27&#45;&gt;Node30 -->
<g id="edge14" class="edge">
<title>Node27&#45;&gt;Node30</title>
<path fill="none" stroke="#191970" d="M1121.2437,-245.2518C1121.2437,-236.3524 1121.2437,-226.951 1121.2437,-218.6906"/>
<polygon fill="#191970" stroke="#191970" points="1117.7438,-245.3697 1121.2437,-255.3698 1124.7438,-245.3698 1117.7438,-245.3697"/>
</g>
<!-- Node32 -->
<g id="node17" class="node">
<title>Node32</title>
<g id="a_node17"><a xlink:href="UKFPrediction_8h.html" target="_top" xlink:title="/Users/Claudio/GitHub\l/bayes&#45;filters&#45;lib/src\l/BayesFilters/include/BayesFilters\l/UKFPrediction.h">
<polygon fill="#ffffff" stroke="#000000" points="1222.2168,-170.5 1222.2168,-218.5 1388.2705,-218.5 1388.2705,-170.5 1222.2168,-170.5"/>
<text text-anchor="start" x="1230.2168" y="-206.5" font-family="Helvetica,sans-Serif" font-size="10.00" fill="#000000">/Users/Claudio/GitHub</text>
<text text-anchor="start" x="1230.2168" y="-196.5" font-family="Helvetica,sans-Serif" font-size="10.00" fill="#000000">/bayes&#45;filters&#45;lib/src</text>
<text text-anchor="start" x="1230.2168" y="-186.5" font-family="Helvetica,sans-Serif" font-size="10.00" fill="#000000">/BayesFilters/include/BayesFilters</text>
<text text-anchor="middle" x="1305.2437" y="-176.5" font-family="Helvetica,sans-Serif" font-size="10.00" fill="#000000">/UKFPrediction.h</text>
</a>
</g>
</g>
<!-- Node27&#45;&gt;Node32 -->
<g id="edge16" class="edge">
<title>Node27&#45;&gt;Node32</title>
<path fill="none" stroke="#191970" d="M1182.7445,-251.0893C1205.594,-240.5338 1231.2737,-228.6709 1253.1969,-218.5433"/>
<polygon fill="#191970" stroke="#191970" points="1181.0888,-247.9987 1173.4785,-255.3698 1184.0245,-254.3534 1181.0888,-247.9987"/>
</g>
<!-- Node34 -->
<g id="node19" class="node">
<title>Node34</title>
<g id="a_node19"><a xlink:href="sigma__point_8cpp.html" target="_top" xlink:title="/Users/Claudio/GitHub\l/bayes&#45;filters&#45;lib/src\l/BayesFilters/src/sigma\l_point.cpp">
<polygon fill="#ffffff" stroke="#000000" points="1406.5664,-170.5 1406.5664,-218.5 1525.9209,-218.5 1525.9209,-170.5 1406.5664,-170.5"/>
<text text-anchor="start" x="1414.5664" y="-206.5" font-family="Helvetica,sans-Serif" font-size="10.00" fill="#000000">/Users/Claudio/GitHub</text>
<text text-anchor="start" x="1414.5664" y="-196.5" font-family="Helvetica,sans-Serif" font-size="10.00" fill="#000000">/bayes&#45;filters&#45;lib/src</text>
<text text-anchor="start" x="1414.5664" y="-186.5" font-family="Helvetica,sans-Serif" font-size="10.00" fill="#000000">/BayesFilters/src/sigma</text>
<text text-anchor="middle" x="1466.2437" y="-176.5" font-family="Helvetica,sans-Serif" font-size="10.00" fill="#000000">_point.cpp</text>
</a>
</g>
</g>
<!-- Node27&#45;&gt;Node34 -->
<g id="edge18" class="edge">
<title>Node27&#45;&gt;Node34</title>
<path fill="none" stroke="#191970" d="M1214.6725,-254.7554C1296.2802,-236.5968 1320.0118,-240.1418 1397.2437,-219 1400.1862,-218.1945 1403.1836,-217.3247 1406.1994,-216.4097"/>
<polygon fill="#191970" stroke="#191970" points="1213.4035,-251.4543 1204.426,-257.0806 1214.9526,-258.2808 1213.4035,-251.4543"/>
</g>
<!-- Node29 -->
<g id="node14" class="node">
<title>Node29</title>
<g id="a_node14"><a xlink:href="SUKFCorrection_8cpp.html" target="_top" xlink:title="/Users/Claudio/GitHub\l/bayes&#45;filters&#45;lib/src\l/BayesFilters/src/SUKFCorrection.cpp">
<polygon fill="#ffffff" stroke="#000000" points="830.0542,-90.5 830.0542,-128.5 1014.4331,-128.5 1014.4331,-90.5 830.0542,-90.5"/>
<text text-anchor="start" x="838.0542" y="-116.5" font-family="Helvetica,sans-Serif" font-size="10.00" fill="#000000">/Users/Claudio/GitHub</text>
<text text-anchor="start" x="838.0542" y="-106.5" font-family="Helvetica,sans-Serif" font-size="10.00" fill="#000000">/bayes&#45;filters&#45;lib/src</text>
<text text-anchor="middle" x="922.2437" y="-96.5" font-family="Helvetica,sans-Serif" font-size="10.00" fill="#000000">/BayesFilters/src/SUKFCorrection.cpp</text>
</a>
</g>
</g>
<!-- Node28&#45;&gt;Node29 -->
<g id="edge13" class="edge">
<title>Node28&#45;&gt;Node29</title>
<path fill="none" stroke="#191970" d="M931.2117,-160.3187C929.3016,-149.4952 927.2594,-137.9227 925.607,-128.5591"/>
<polygon fill="#191970" stroke="#191970" points="927.8007,-161.1302 932.9854,-170.3698 934.6942,-159.9137 927.8007,-161.1302"/>
</g>
<!-- Node31 -->
<g id="node16" class="node">
<title>Node31</title>
<g id="a_node16"><a xlink:href="UKFCorrection_8cpp.html" target="_top" xlink:title="/Users/Claudio/GitHub\l/bayes&#45;filters&#45;lib/src\l/BayesFilters/src/UKFCorrection.cpp">
<polygon fill="#ffffff" stroke="#000000" points="1032.3892,-90.5 1032.3892,-128.5 1210.0981,-128.5 1210.0981,-90.5 1032.3892,-90.5"/>
<text text-anchor="start" x="1040.3892" y="-116.5" font-family="Helvetica,sans-Serif" font-size="10.00" fill="#000000">/Users/Claudio/GitHub</text>
<text text-anchor="start" x="1040.3892" y="-106.5" font-family="Helvetica,sans-Serif" font-size="10.00" fill="#000000">/bayes&#45;filters&#45;lib/src</text>
<text text-anchor="middle" x="1121.2437" y="-96.5" font-family="Helvetica,sans-Serif" font-size="10.00" fill="#000000">/BayesFilters/src/UKFCorrection.cpp</text>
</a>
</g>
</g>
<!-- Node30&#45;&gt;Node31 -->
<g id="edge15" class="edge">
<title>Node30&#45;&gt;Node31</title>
<path fill="none" stroke="#191970" d="M1121.2437,-160.3187C1121.2437,-149.4952 1121.2437,-137.9227 1121.2437,-128.5591"/>
<polygon fill="#191970" stroke="#191970" points="1117.7438,-160.3697 1121.2437,-170.3698 1124.7438,-160.3698 1117.7438,-160.3697"/>
</g>
<!-- Node33 -->
<g id="node18" class="node">
<title>Node33</title>
<g id="a_node18"><a xlink:href="UKFPrediction_8cpp.html" target="_top" xlink:title="/Users/Claudio/GitHub\l/bayes&#45;filters&#45;lib/src\l/BayesFilters/src/UKFPrediction.cpp">
<polygon fill="#ffffff" stroke="#000000" points="1228.2192,-90.5 1228.2192,-128.5 1404.2681,-128.5 1404.2681,-90.5 1228.2192,-90.5"/>
<text text-anchor="start" x="1236.2192" y="-116.5" font-family="Helvetica,sans-Serif" font-size="10.00" fill="#000000">/Users/Claudio/GitHub</text>
<text text-anchor="start" x="1236.2192" y="-106.5" font-family="Helvetica,sans-Serif" font-size="10.00" fill="#000000">/bayes&#45;filters&#45;lib/src</text>
<text text-anchor="middle" x="1316.2437" y="-96.5" font-family="Helvetica,sans-Serif" font-size="10.00" fill="#000000">/BayesFilters/src/UKFPrediction.cpp</text>
</a>
</g>
</g>
<!-- Node32&#45;&gt;Node33 -->
<g id="edge17" class="edge">
<title>Node32&#45;&gt;Node33</title>
<path fill="none" stroke="#191970" d="M1309.6671,-160.3187C1311.0678,-149.4952 1312.5654,-137.9227 1313.7772,-128.5591"/>
<polygon fill="#191970" stroke="#191970" points="1306.1788,-160.0032 1308.3664,-170.3698 1313.1209,-160.9017 1306.1788,-160.0032"/>
</g>
</g>
</svg>
