<?xml version="1.0" encoding="UTF-8" standalone="no"?>
<!DOCTYPE svg PUBLIC "-//W3C//DTD SVG 1.1//EN"
 "http://www.w3.org/Graphics/SVG/1.1/DTD/svg11.dtd">
<!-- Generated by graphviz version 2.40.1 (20161225.0304)
 -->
<!-- Title: /Users/Claudio/GitHub/bayes&#45;filters&#45;lib/src/BayesFilters/src/AdditiveStateModel.cpp Pages: 1 -->
<svg width="209pt" height="232pt"
 viewBox="0.00 0.00 209.29 232.00" xmlns="http://www.w3.org/2000/svg" xmlns:xlink="http://www.w3.org/1999/xlink">
<g id="graph0" class="graph" transform="scale(1 1) rotate(0) translate(4 228)">
<title>/Users/Claudio/GitHub/bayes&#45;filters&#45;lib/src/BayesFilters/src/AdditiveStateModel.cpp</title>
<polygon fill="#ffffff" stroke="transparent" points="-4,4 -4,-228 205.2949,-228 205.2949,4 -4,4"/>
<!-- Node0 -->
<g id="node1" class="node">
<title>Node0</title>
<polygon fill="#bfbfbf" stroke="#000000" points="49.6894,-175.5 49.6894,-223.5 201.2949,-223.5 201.2949,-175.5 49.6894,-175.5"/>
<text text-anchor="start" x="57.6894" y="-211.5" font-family="Helvetica,sans-Serif" font-size="10.00" fill="#000000">/Users/Claudio/GitHub</text>
<text text-anchor="start" x="57.6894" y="-201.5" font-family="Helvetica,sans-Serif" font-size="10.00" fill="#000000">/bayes&#45;filters&#45;lib/src</text>
<text text-anchor="start" x="57.6894" y="-191.5" font-family="Helvetica,sans-Serif" font-size="10.00" fill="#000000">/BayesFilters/src/AdditiveState</text>
<text text-anchor="middle" x="125.4921" y="-181.5" font-family="Helvetica,sans-Serif" font-size="10.00" fill="#000000">Model.cpp</text>
</g>
<!-- Node1 -->
<g id="node2" class="node">
<title>Node1</title>
<g id="a_node2"><a xlink:href="AdditiveStateModel_8h.html" target="_top" xlink:title="BayesFilters/AdditiveState\lModel.h">
<polygon fill="#ffffff" stroke="#000000" points="12.1328,-110.5 12.1328,-138.5 144.8515,-138.5 144.8515,-110.5 12.1328,-110.5"/>
<text text-anchor="start" x="20.1328" y="-126.5" font-family="Helvetica,sans-Serif" font-size="10.00" fill="#000000">BayesFilters/AdditiveState</text>
<text text-anchor="middle" x="78.4921" y="-116.5" font-family="Helvetica,sans-Serif" font-size="10.00" fill="#000000">Model.h</text>
</a>
</g>
</g>
<!-- Node0&#45;&gt;Node1 -->
<g id="edge1" class="edge">
<title>Node0&#45;&gt;Node1</title>
<path fill="none" stroke="#191970" d="M110.3623,-175.3567C104.706,-166.3306 98.3054,-156.117 92.7321,-147.2233"/>
<polygon fill="#191970" stroke="#191970" points="95.5653,-145.1533 87.2894,-138.5382 89.6338,-148.8704 95.5653,-145.1533"/>
</g>
<!-- Node2 -->
<g id="node3" class="node">
<title>Node2</title>
<polygon fill="#ffffff" stroke="#bfbfbf" points="41.8618,-.5 41.8618,-18.5 115.1225,-18.5 115.1225,-.5 41.8618,-.5"/>
<text text-anchor="middle" x="78.4921" y="-6.5" font-family="Helvetica,sans-Serif" font-size="10.00" fill="#000000">Eigen/Dense</text>
</g>
<!-- Node0&#45;&gt;Node2 -->
<g id="edge5" class="edge">
<title>Node0&#45;&gt;Node2</title>
<path fill="none" stroke="#191970" d="M139.522,-175.4073C155.0022,-145.3638 175.0537,-93.2998 153.4921,-55 145.2796,-40.4122 130.2921,-29.963 115.8617,-22.788"/>
<polygon fill="#191970" stroke="#191970" points="117.087,-19.5001 106.5362,-18.5352 114.1825,-25.869 117.087,-19.5001"/>
</g>
<!-- Node1&#45;&gt;Node2 -->
<g id="edge2" class="edge">
<title>Node1&#45;&gt;Node2</title>
<path fill="none" stroke="#191970" d="M43.5918,-110.4303C18.2375,-97.9438 -9.5272,-78.1262 3.4921,-55 11.7046,-40.4122 26.6922,-29.963 41.1225,-22.788"/>
<polygon fill="#191970" stroke="#191970" points="42.8018,-25.869 50.448,-18.5352 39.8972,-19.5001 42.8018,-25.869"/>
</g>
<!-- Node3 -->
<g id="node4" class="node">
<title>Node3</title>
<g id="a_node4"><a xlink:href="StateModel_8h.html" target="_top" xlink:title="BayesFilters/StateModel.h">
<polygon fill="#ffffff" stroke="#000000" points="12.1328,-55.5 12.1328,-73.5 144.8515,-73.5 144.8515,-55.5 12.1328,-55.5"/>
<text text-anchor="middle" x="78.4921" y="-61.5" font-family="Helvetica,sans-Serif" font-size="10.00" fill="#000000">BayesFilters/StateModel.h</text>
</a>
</g>
</g>
<!-- Node1&#45;&gt;Node3 -->
<g id="edge3" class="edge">
<title>Node1&#45;&gt;Node3</title>
<path fill="none" stroke="#191970" d="M78.4921,-110.2808C78.4921,-102.3776 78.4921,-92.4316 78.4921,-83.8308"/>
<polygon fill="#191970" stroke="#191970" points="81.9922,-83.5842 78.4921,-73.5842 74.9922,-83.5842 81.9922,-83.5842"/>
</g>
<!-- Node3&#45;&gt;Node2 -->
<g id="edge4" class="edge">
<title>Node3&#45;&gt;Node2</title>
<path fill="none" stroke="#191970" d="M78.4921,-55.4179C78.4921,-48.2164 78.4921,-37.8962 78.4921,-28.8632"/>
<polygon fill="#191970" stroke="#191970" points="81.9922,-28.7794 78.4921,-18.7795 74.9922,-28.7795 81.9922,-28.7794"/>
</g>
</g>
</svg>
