<?xml version="1.0" encoding="UTF-8" standalone="no"?>
<!DOCTYPE svg PUBLIC "-//W3C//DTD SVG 1.1//EN"
 "http://www.w3.org/Graphics/SVG/1.1/DTD/svg11.dtd">
<!-- Generated by graphviz version 2.40.1 (20161225.0304)
 -->
<!-- Title: /Users/Claudio/GitHub/bayes&#45;filters&#45;lib/src/BayesFilters/include/BayesFilters/AdditiveStateModel.h Pages: 1 -->
<!--zoomable 302 -->
<svg id="main" version="1.1" xmlns="http://www.w3.org/2000/svg" xmlns:xlink="http://www.w3.org/1999/xlink" xml:space="preserve" onload="init(evt)">
<style type="text/css"><![CDATA[
.edge:hover path { stroke: red; }
.edge:hover polygon { stroke: red; fill: red; }
]]></style>
<script type="text/javascript"><![CDATA[
var edges = document.getElementsByTagName('g');
if (edges && edges.length) {
  for (var i=0;i<edges.length;i++) {
    if (edges[i].id.substr(0,4)=='edge') {
      edges[i].setAttribute('class','edge');
    }
  }
}
]]></script>
        <defs>
                <circle id="rim" cx="0" cy="0" r="7"/>
                <circle id="rim2" cx="0" cy="0" r="3.5"/>
                <g id="zoomPlus">
                        <use xlink:href="#rim" fill="#404040">
                                <set attributeName="fill" to="#808080" begin="zoomplus.mouseover" end="zoomplus.mouseout"/>
                        </use>
                        <path d="M-4,0h8M0,-4v8" fill="none" stroke="white" stroke-width="1.5" pointer-events="none"/>
                </g>
                <g id="zoomMin">
                        <use xlink:href="#rim" fill="#404040">
                                <set attributeName="fill" to="#808080" begin="zoomminus.mouseover" end="zoomminus.mouseout"/>
                        </use>
                        <path d="M-4,0h8" fill="none" stroke="white" stroke-width="1.5" pointer-events="none"/>
                </g>
                <g id="dirArrow">
                        <path fill="none" stroke="white" stroke-width="1.5" d="M0,-3.0v7 M-2.5,-0.5L0,-3.0L2.5,-0.5"/>
                </g>
               <g id="resetDef">
                       <use xlink:href="#rim2" fill="#404040">
                               <set attributeName="fill" to="#808080" begin="reset.mouseover" end="reset.mouseout"/>
                       </use>
               </g>
        </defs>

<script type="text/javascript">
var viewWidth = 1452;
var viewHeight = 302;
var sectionId = 'dynsection-1';
</script>
<script xlink:href="svgpan.js"/>
<svg id="graph" class="graph">
<g id="viewport">
<title>/Users/Claudio/GitHub/bayes&#45;filters&#45;lib/src/BayesFilters/include/BayesFilters/AdditiveStateModel.h</title>
<polygon fill="#ffffff" stroke="transparent" points="-4,4 -4,-298 1448.438,-298 1448.438,4 -4,4"/>
<!-- Node3 -->
<g id="node1" class="node">
<title>Node3</title>
<polygon fill="#bfbfbf" stroke="#000000" points="1086.3867,-245.5 1086.3867,-293.5 1252.4404,-293.5 1252.4404,-245.5 1086.3867,-245.5"/>
<text text-anchor="start" x="1094.3867" y="-281.5" font-family="Helvetica,sans-Serif" font-size="10.00" fill="#000000">/Users/Claudio/GitHub</text>
<text text-anchor="start" x="1094.3867" y="-271.5" font-family="Helvetica,sans-Serif" font-size="10.00" fill="#000000">/bayes&#45;filters&#45;lib/src</text>
<text text-anchor="start" x="1094.3867" y="-261.5" font-family="Helvetica,sans-Serif" font-size="10.00" fill="#000000">/BayesFilters/include/BayesFilters</text>
<text text-anchor="middle" x="1169.4136" y="-251.5" font-family="Helvetica,sans-Serif" font-size="10.00" fill="#000000">/AdditiveStateModel.h</text>
</g>
<!-- Node4 -->
<g id="node2" class="node">
<title>Node4</title>
<g id="a_node2"><a xlink:href="LinearStateModel_8h.html" target="_top" xlink:title="/Users/Claudio/GitHub\l/bayes&#45;filters&#45;lib/src\l/BayesFilters/include/BayesFilters\l/LinearStateModel.h">
<polygon fill="#ffffff" stroke="#000000" points="375.3867,-160.5 375.3867,-208.5 541.4404,-208.5 541.4404,-160.5 375.3867,-160.5"/>
<text text-anchor="start" x="383.3867" y="-196.5" font-family="Helvetica,sans-Serif" font-size="10.00" fill="#000000">/Users/Claudio/GitHub</text>
<text text-anchor="start" x="383.3867" y="-186.5" font-family="Helvetica,sans-Serif" font-size="10.00" fill="#000000">/bayes&#45;filters&#45;lib/src</text>
<text text-anchor="start" x="383.3867" y="-176.5" font-family="Helvetica,sans-Serif" font-size="10.00" fill="#000000">/BayesFilters/include/BayesFilters</text>
<text text-anchor="middle" x="458.4136" y="-166.5" font-family="Helvetica,sans-Serif" font-size="10.00" fill="#000000">/LinearStateModel.h</text>
</a>
</g>
</g>
<!-- Node3&#45;&gt;Node4 -->
<g id="edge1" class="edge">
<title>Node3&#45;&gt;Node4</title>
<path fill="none" stroke="#191970" d="M1075.8515,-258.3147C936.0932,-241.6066 675.0014,-210.3931 541.5665,-194.4409"/>
<polygon fill="#191970" stroke="#191970" points="1075.7672,-261.8294 1086.112,-259.5413 1076.5982,-254.8789 1075.7672,-261.8294"/>
</g>
<!-- Node12 -->
<g id="node10" class="node">
<title>Node12</title>
<g id="a_node10"><a xlink:href="sigma__point_8h.html" target="_top" xlink:title="/Users/Claudio/GitHub\l/bayes&#45;filters&#45;lib/src\l/BayesFilters/include/BayesFilters\l/sigma_point.h">
<polygon fill="#ffffff" stroke="#000000" points="1031.3867,-160.5 1031.3867,-208.5 1197.4404,-208.5 1197.4404,-160.5 1031.3867,-160.5"/>
<text text-anchor="start" x="1039.3867" y="-196.5" font-family="Helvetica,sans-Serif" font-size="10.00" fill="#000000">/Users/Claudio/GitHub</text>
<text text-anchor="start" x="1039.3867" y="-186.5" font-family="Helvetica,sans-Serif" font-size="10.00" fill="#000000">/bayes&#45;filters&#45;lib/src</text>
<text text-anchor="start" x="1039.3867" y="-176.5" font-family="Helvetica,sans-Serif" font-size="10.00" fill="#000000">/BayesFilters/include/BayesFilters</text>
<text text-anchor="middle" x="1114.4136" y="-166.5" font-family="Helvetica,sans-Serif" font-size="10.00" fill="#000000">/sigma_point.h</text>
</a>
</g>
</g>
<!-- Node3&#45;&gt;Node12 -->
<g id="edge9" class="edge">
<title>Node3&#45;&gt;Node12</title>
<path fill="none" stroke="#191970" d="M1148.1888,-236.698C1142.1579,-227.3777 1135.7018,-217.4 1130.0663,-208.6906"/>
<polygon fill="#191970" stroke="#191970" points="1145.4288,-238.8755 1153.7999,-245.3698 1151.3058,-235.0727 1145.4288,-238.8755"/>
</g>
<!-- Node17 -->
<g id="node15" class="node">
<title>Node17</title>
<g id="a_node15"><a xlink:href="UKFPrediction_8h.html" target="_top" xlink:title="/Users/Claudio/GitHub\l/bayes&#45;filters&#45;lib/src\l/BayesFilters/include/BayesFilters\l/UKFPrediction.h">
<polygon fill="#ffffff" stroke="#000000" points="1273.3867,-75.5 1273.3867,-123.5 1439.4404,-123.5 1439.4404,-75.5 1273.3867,-75.5"/>
<text text-anchor="start" x="1281.3867" y="-111.5" font-family="Helvetica,sans-Serif" font-size="10.00" fill="#000000">/Users/Claudio/GitHub</text>
<text text-anchor="start" x="1281.3867" y="-101.5" font-family="Helvetica,sans-Serif" font-size="10.00" fill="#000000">/bayes&#45;filters&#45;lib/src</text>
<text text-anchor="start" x="1281.3867" y="-91.5" font-family="Helvetica,sans-Serif" font-size="10.00" fill="#000000">/BayesFilters/include/BayesFilters</text>
<text text-anchor="middle" x="1356.4136" y="-81.5" font-family="Helvetica,sans-Serif" font-size="10.00" fill="#000000">/UKFPrediction.h</text>
</a>
</g>
</g>
<!-- Node3&#45;&gt;Node17 -->
<g id="edge17" class="edge">
<title>Node3&#45;&gt;Node17</title>
<path fill="none" stroke="#191970" d="M1189.5681,-236.5287C1206.9542,-208.7928 1231.2766,-171.822 1244.4136,-160 1260.5126,-145.5124 1280.6989,-133.2509 1299.4839,-123.6342"/>
<polygon fill="#191970" stroke="#191970" points="1186.5047,-234.8269 1184.1899,-245.1658 1192.4469,-238.527 1186.5047,-234.8269"/>
</g>
<!-- Node20 -->
<g id="node18" class="node">
<title>Node20</title>
<g id="a_node18"><a xlink:href="AdditiveStateModel_8cpp.html" target="_top" xlink:title="/Users/Claudio/GitHub\l/bayes&#45;filters&#45;lib/src\l/BayesFilters/src/AdditiveState\lModel.cpp">
<polygon fill="#ffffff" stroke="#000000" points="1253.6108,-160.5 1253.6108,-208.5 1405.2163,-208.5 1405.2163,-160.5 1253.6108,-160.5"/>
<text text-anchor="start" x="1261.6108" y="-196.5" font-family="Helvetica,sans-Serif" font-size="10.00" fill="#000000">/Users/Claudio/GitHub</text>
<text text-anchor="start" x="1261.6108" y="-186.5" font-family="Helvetica,sans-Serif" font-size="10.00" fill="#000000">/bayes&#45;filters&#45;lib/src</text>
<text text-anchor="start" x="1261.6108" y="-176.5" font-family="Helvetica,sans-Serif" font-size="10.00" fill="#000000">/BayesFilters/src/AdditiveState</text>
<text text-anchor="middle" x="1329.4136" y="-166.5" font-family="Helvetica,sans-Serif" font-size="10.00" fill="#000000">Model.cpp</text>
</a>
</g>
</g>
<!-- Node3&#45;&gt;Node20 -->
<g id="edge18" class="edge">
<title>Node3&#45;&gt;Node20</title>
<path fill="none" stroke="#191970" d="M1223.6887,-240.6664C1243.3566,-230.2178 1265.3461,-218.5358 1284.1555,-208.5433"/>
<polygon fill="#191970" stroke="#191970" points="1222.0243,-237.5873 1214.8352,-245.3698 1225.3084,-243.7691 1222.0243,-237.5873"/>
</g>
<!-- Node5 -->
<g id="node3" class="node">
<title>Node5</title>
<g id="a_node3"><a xlink:href="KFPrediction_8h.html" target="_top" xlink:title="/Users/Claudio/GitHub\l/bayes&#45;filters&#45;lib/src\l/BayesFilters/include/BayesFilters\l/KFPrediction.h">
<polygon fill="#ffffff" stroke="#000000" points="4.3867,-75.5 4.3867,-123.5 170.4404,-123.5 170.4404,-75.5 4.3867,-75.5"/>
<text text-anchor="start" x="12.3867" y="-111.5" font-family="Helvetica,sans-Serif" font-size="10.00" fill="#000000">/Users/Claudio/GitHub</text>
<text text-anchor="start" x="12.3867" y="-101.5" font-family="Helvetica,sans-Serif" font-size="10.00" fill="#000000">/bayes&#45;filters&#45;lib/src</text>
<text text-anchor="start" x="12.3867" y="-91.5" font-family="Helvetica,sans-Serif" font-size="10.00" fill="#000000">/BayesFilters/include/BayesFilters</text>
<text text-anchor="middle" x="87.4136" y="-81.5" font-family="Helvetica,sans-Serif" font-size="10.00" fill="#000000">/KFPrediction.h</text>
</a>
</g>
</g>
<!-- Node4&#45;&gt;Node5 -->
<g id="edge2" class="edge">
<title>Node4&#45;&gt;Node5</title>
<path fill="none" stroke="#191970" d="M365.3703,-164.9916C311.7633,-153.5302 243.1686,-138.4879 182.4136,-124 178.5201,-123.0715 174.5408,-122.1071 170.5245,-121.1211"/>
<polygon fill="#191970" stroke="#191970" points="364.6899,-168.4251 375.2002,-167.0891 366.1507,-161.5792 364.6899,-168.4251"/>
</g>
<!-- Node7 -->
<g id="node5" class="node">
<title>Node7</title>
<g id="a_node5"><a xlink:href="LTIStateModel_8h.html" target="_top" xlink:title="/Users/Claudio/GitHub\l/bayes&#45;filters&#45;lib/src\l/BayesFilters/include/BayesFilters\l/LTIStateModel.h">
<polygon fill="#ffffff" stroke="#000000" points="191.3867,-75.5 191.3867,-123.5 357.4404,-123.5 357.4404,-75.5 191.3867,-75.5"/>
<text text-anchor="start" x="199.3867" y="-111.5" font-family="Helvetica,sans-Serif" font-size="10.00" fill="#000000">/Users/Claudio/GitHub</text>
<text text-anchor="start" x="199.3867" y="-101.5" font-family="Helvetica,sans-Serif" font-size="10.00" fill="#000000">/bayes&#45;filters&#45;lib/src</text>
<text text-anchor="start" x="199.3867" y="-91.5" font-family="Helvetica,sans-Serif" font-size="10.00" fill="#000000">/BayesFilters/include/BayesFilters</text>
<text text-anchor="middle" x="274.4136" y="-81.5" font-family="Helvetica,sans-Serif" font-size="10.00" fill="#000000">/LTIStateModel.h</text>
</a>
</g>
</g>
<!-- Node4&#45;&gt;Node7 -->
<g id="edge4" class="edge">
<title>Node4&#45;&gt;Node7</title>
<path fill="none" stroke="#191970" d="M396.9127,-156.0893C374.0632,-145.5338 348.3835,-133.6709 326.4603,-123.5433"/>
<polygon fill="#191970" stroke="#191970" points="395.6328,-159.3534 406.1787,-160.3698 398.5684,-152.9987 395.6328,-159.3534"/>
</g>
<!-- Node9 -->
<g id="node7" class="node">
<title>Node9</title>
<g id="a_node7"><a xlink:href="WhiteNoiseAcceleration_8h.html" target="_top" xlink:title="/Users/Claudio/GitHub\l/bayes&#45;filters&#45;lib/src\l/BayesFilters/include/BayesFilters\l/WhiteNoiseAcceleration.h">
<polygon fill="#ffffff" stroke="#000000" points="375.3867,-75.5 375.3867,-123.5 541.4404,-123.5 541.4404,-75.5 375.3867,-75.5"/>
<text text-anchor="start" x="383.3867" y="-111.5" font-family="Helvetica,sans-Serif" font-size="10.00" fill="#000000">/Users/Claudio/GitHub</text>
<text text-anchor="start" x="383.3867" y="-101.5" font-family="Helvetica,sans-Serif" font-size="10.00" fill="#000000">/bayes&#45;filters&#45;lib/src</text>
<text text-anchor="start" x="383.3867" y="-91.5" font-family="Helvetica,sans-Serif" font-size="10.00" fill="#000000">/BayesFilters/include/BayesFilters</text>
<text text-anchor="middle" x="458.4136" y="-81.5" font-family="Helvetica,sans-Serif" font-size="10.00" fill="#000000">/WhiteNoiseAcceleration.h</text>
</a>
</g>
</g>
<!-- Node4&#45;&gt;Node9 -->
<g id="edge6" class="edge">
<title>Node4&#45;&gt;Node9</title>
<path fill="none" stroke="#191970" d="M458.4136,-150.2518C458.4136,-141.3524 458.4136,-131.951 458.4136,-123.6906"/>
<polygon fill="#191970" stroke="#191970" points="454.9137,-150.3697 458.4136,-160.3698 461.9137,-150.3698 454.9137,-150.3697"/>
</g>
<!-- Node11 -->
<g id="node9" class="node">
<title>Node11</title>
<g id="a_node9"><a xlink:href="LinearStateModel_8cpp.html" target="_top" xlink:title="/Users/Claudio/GitHub\l/bayes&#45;filters&#45;lib/src\l/BayesFilters/src/LinearStateModel.cpp">
<polygon fill="#ffffff" stroke="#000000" points="559.4312,-80.5 559.4312,-118.5 749.396,-118.5 749.396,-80.5 559.4312,-80.5"/>
<text text-anchor="start" x="567.4312" y="-106.5" font-family="Helvetica,sans-Serif" font-size="10.00" fill="#000000">/Users/Claudio/GitHub</text>
<text text-anchor="start" x="567.4312" y="-96.5" font-family="Helvetica,sans-Serif" font-size="10.00" fill="#000000">/bayes&#45;filters&#45;lib/src</text>
<text text-anchor="middle" x="654.4136" y="-86.5" font-family="Helvetica,sans-Serif" font-size="10.00" fill="#000000">/BayesFilters/src/LinearStateModel.cpp</text>
</a>
</g>
</g>
<!-- Node4&#45;&gt;Node11 -->
<g id="edge8" class="edge">
<title>Node4&#45;&gt;Node11</title>
<path fill="none" stroke="#191970" d="M523.3021,-156.3596C551.8701,-143.9704 584.6922,-129.7363 610.3501,-118.6092"/>
<polygon fill="#191970" stroke="#191970" points="521.5753,-153.2934 513.7934,-160.4832 524.3604,-159.7155 521.5753,-153.2934"/>
</g>
<!-- Node6 -->
<g id="node4" class="node">
<title>Node6</title>
<g id="a_node4"><a xlink:href="KFPrediction_8cpp.html" target="_top" xlink:title="/Users/Claudio/GitHub\l/bayes&#45;filters&#45;lib/src\l/BayesFilters/src/KFPrediction.cpp">
<polygon fill="#ffffff" stroke="#000000" points="0,-.5 0,-38.5 168.8271,-38.5 168.8271,-.5 0,-.5"/>
<text text-anchor="start" x="8" y="-26.5" font-family="Helvetica,sans-Serif" font-size="10.00" fill="#000000">/Users/Claudio/GitHub</text>
<text text-anchor="start" x="8" y="-16.5" font-family="Helvetica,sans-Serif" font-size="10.00" fill="#000000">/bayes&#45;filters&#45;lib/src</text>
<text text-anchor="middle" x="84.4136" y="-6.5" font-family="Helvetica,sans-Serif" font-size="10.00" fill="#000000">/BayesFilters/src/KFPrediction.cpp</text>
</a>
</g>
</g>
<!-- Node5&#45;&gt;Node6 -->
<g id="edge3" class="edge">
<title>Node5&#45;&gt;Node6</title>
<path fill="none" stroke="#191970" d="M86.1363,-65.4405C85.7928,-56.2795 85.4333,-46.6933 85.1321,-38.662"/>
<polygon fill="#191970" stroke="#191970" points="82.6411,-65.6356 86.5135,-75.4974 89.6362,-65.3732 82.6411,-65.6356"/>
</g>
<!-- Node8 -->
<g id="node6" class="node">
<title>Node8</title>
<g id="a_node6"><a xlink:href="LTIStateModel_8cpp.html" target="_top" xlink:title="/Users/Claudio/GitHub\l/bayes&#45;filters&#45;lib/src\l/BayesFilters/src/LTIStateModel.cpp">
<polygon fill="#ffffff" stroke="#000000" points="186.4746,-.5 186.4746,-38.5 362.3525,-38.5 362.3525,-.5 186.4746,-.5"/>
<text text-anchor="start" x="194.4746" y="-26.5" font-family="Helvetica,sans-Serif" font-size="10.00" fill="#000000">/Users/Claudio/GitHub</text>
<text text-anchor="start" x="194.4746" y="-16.5" font-family="Helvetica,sans-Serif" font-size="10.00" fill="#000000">/bayes&#45;filters&#45;lib/src</text>
<text text-anchor="middle" x="274.4136" y="-6.5" font-family="Helvetica,sans-Serif" font-size="10.00" fill="#000000">/BayesFilters/src/LTIStateModel.cpp</text>
</a>
</g>
</g>
<!-- Node7&#45;&gt;Node8 -->
<g id="edge5" class="edge">
<title>Node7&#45;&gt;Node8</title>
<path fill="none" stroke="#191970" d="M274.4136,-65.4405C274.4136,-56.2795 274.4136,-46.6933 274.4136,-38.662"/>
<polygon fill="#191970" stroke="#191970" points="270.9137,-65.4973 274.4136,-75.4974 277.9137,-65.4974 270.9137,-65.4973"/>
</g>
<!-- Node10 -->
<g id="node8" class="node">
<title>Node10</title>
<g id="a_node8"><a xlink:href="WhiteNoiseAcceleration_8cpp.html" target="_top" xlink:title="/Users/Claudio/GitHub\l/bayes&#45;filters&#45;lib/src\l/BayesFilters/src/WhiteNoiseAcceleration.cpp">
<polygon fill="#ffffff" stroke="#000000" points="380.5444,-.5 380.5444,-38.5 598.2827,-38.5 598.2827,-.5 380.5444,-.5"/>
<text text-anchor="start" x="388.5444" y="-26.5" font-family="Helvetica,sans-Serif" font-size="10.00" fill="#000000">/Users/Claudio/GitHub</text>
<text text-anchor="start" x="388.5444" y="-16.5" font-family="Helvetica,sans-Serif" font-size="10.00" fill="#000000">/bayes&#45;filters&#45;lib/src</text>
<text text-anchor="middle" x="489.4136" y="-6.5" font-family="Helvetica,sans-Serif" font-size="10.00" fill="#000000">/BayesFilters/src/WhiteNoiseAcceleration.cpp</text>
</a>
</g>
</g>
<!-- Node9&#45;&gt;Node10 -->
<g id="edge7" class="edge">
<title>Node9&#45;&gt;Node10</title>
<path fill="none" stroke="#191970" d="M471.3828,-66.0309C475.0015,-56.6925 478.8093,-46.866 481.9883,-38.662"/>
<polygon fill="#191970" stroke="#191970" points="468.0643,-64.9083 467.7146,-75.4974 474.5914,-67.4376 468.0643,-64.9083"/>
</g>
<!-- Node13 -->
<g id="node11" class="node">
<title>Node13</title>
<g id="a_node11"><a xlink:href="SUKFCorrection_8h.html" target="_top" xlink:title="/Users/Claudio/GitHub\l/bayes&#45;filters&#45;lib/src\l/BayesFilters/include/BayesFilters\l/SUKFCorrection.h">
<polygon fill="#ffffff" stroke="#000000" points="767.3867,-75.5 767.3867,-123.5 933.4404,-123.5 933.4404,-75.5 767.3867,-75.5"/>
<text text-anchor="start" x="775.3867" y="-111.5" font-family="Helvetica,sans-Serif" font-size="10.00" fill="#000000">/Users/Claudio/GitHub</text>
<text text-anchor="start" x="775.3867" y="-101.5" font-family="Helvetica,sans-Serif" font-size="10.00" fill="#000000">/bayes&#45;filters&#45;lib/src</text>
<text text-anchor="start" x="775.3867" y="-91.5" font-family="Helvetica,sans-Serif" font-size="10.00" fill="#000000">/BayesFilters/include/BayesFilters</text>
<text text-anchor="middle" x="850.4136" y="-81.5" font-family="Helvetica,sans-Serif" font-size="10.00" fill="#000000">/SUKFCorrection.h</text>
</a>
</g>
</g>
<!-- Node12&#45;&gt;Node13 -->
<g id="edge10" class="edge">
<title>Node12&#45;&gt;Node13</title>
<path fill="none" stroke="#191970" d="M1030.0029,-157.3223C996.3467,-146.4861 957.925,-134.1154 925.28,-123.6047"/>
<polygon fill="#191970" stroke="#191970" points="1029.2289,-160.75 1039.8203,-160.4832 1031.3742,-154.0868 1029.2289,-160.75"/>
</g>
<!-- Node15 -->
<g id="node13" class="node">
<title>Node15</title>
<g id="a_node13"><a xlink:href="UKFCorrection_8h.html" target="_top" xlink:title="/Users/Claudio/GitHub\l/bayes&#45;filters&#45;lib/src\l/BayesFilters/include/BayesFilters\l/UKFCorrection.h">
<polygon fill="#ffffff" stroke="#000000" points="951.3867,-75.5 951.3867,-123.5 1117.4404,-123.5 1117.4404,-75.5 951.3867,-75.5"/>
<text text-anchor="start" x="959.3867" y="-111.5" font-family="Helvetica,sans-Serif" font-size="10.00" fill="#000000">/Users/Claudio/GitHub</text>
<text text-anchor="start" x="959.3867" y="-101.5" font-family="Helvetica,sans-Serif" font-size="10.00" fill="#000000">/bayes&#45;filters&#45;lib/src</text>
<text text-anchor="start" x="959.3867" y="-91.5" font-family="Helvetica,sans-Serif" font-size="10.00" fill="#000000">/BayesFilters/include/BayesFilters</text>
<text text-anchor="middle" x="1034.4136" y="-81.5" font-family="Helvetica,sans-Serif" font-size="10.00" fill="#000000">/UKFCorrection.h</text>
</a>
</g>
</g>
<!-- Node12&#45;&gt;Node15 -->
<g id="edge12" class="edge">
<title>Node12&#45;&gt;Node15</title>
<path fill="none" stroke="#191970" d="M1084.6231,-152.8476C1075.5456,-143.2027 1065.7163,-132.7591 1057.1812,-123.6906"/>
<polygon fill="#191970" stroke="#191970" points="1082.3004,-155.4865 1091.7028,-160.3698 1087.3978,-150.689 1082.3004,-155.4865"/>
</g>
<!-- Node12&#45;&gt;Node17 -->
<g id="edge14" class="edge">
<title>Node12&#45;&gt;Node17</title>
<path fill="none" stroke="#191970" d="M1192.5854,-157.043C1223.2457,-146.2738 1258.1183,-134.0252 1287.786,-123.6047"/>
<polygon fill="#191970" stroke="#191970" points="1191.0657,-153.867 1182.7907,-160.4832 1193.3855,-160.4715 1191.0657,-153.867"/>
</g>
<!-- Node19 -->
<g id="node17" class="node">
<title>Node19</title>
<g id="a_node17"><a xlink:href="sigma__point_8cpp.html" target="_top" xlink:title="/Users/Claudio/GitHub\l/bayes&#45;filters&#45;lib/src\l/BayesFilters/src/sigma\l_point.cpp">
<polygon fill="#ffffff" stroke="#000000" points="1135.7363,-75.5 1135.7363,-123.5 1255.0908,-123.5 1255.0908,-75.5 1135.7363,-75.5"/>
<text text-anchor="start" x="1143.7363" y="-111.5" font-family="Helvetica,sans-Serif" font-size="10.00" fill="#000000">/Users/Claudio/GitHub</text>
<text text-anchor="start" x="1143.7363" y="-101.5" font-family="Helvetica,sans-Serif" font-size="10.00" fill="#000000">/bayes&#45;filters&#45;lib/src</text>
<text text-anchor="start" x="1143.7363" y="-91.5" font-family="Helvetica,sans-Serif" font-size="10.00" fill="#000000">/BayesFilters/src/sigma</text>
<text text-anchor="middle" x="1195.4136" y="-81.5" font-family="Helvetica,sans-Serif" font-size="10.00" fill="#000000">_point.cpp</text>
</a>
</g>
</g>
<!-- Node12&#45;&gt;Node19 -->
<g id="edge16" class="edge">
<title>Node12&#45;&gt;Node19</title>
<path fill="none" stroke="#191970" d="M1144.5765,-152.8476C1153.7674,-143.2027 1163.7196,-132.7591 1172.3614,-123.6906"/>
<polygon fill="#191970" stroke="#191970" points="1141.7732,-150.7158 1137.4083,-160.3698 1146.8408,-155.5449 1141.7732,-150.7158"/>
</g>
<!-- Node14 -->
<g id="node12" class="node">
<title>Node14</title>
<g id="a_node12"><a xlink:href="SUKFCorrection_8cpp.html" target="_top" xlink:title="/Users/Claudio/GitHub\l/bayes&#45;filters&#45;lib/src\l/BayesFilters/src/SUKFCorrection.cpp">
<polygon fill="#ffffff" stroke="#000000" points="750.2241,-.5 750.2241,-38.5 934.603,-38.5 934.603,-.5 750.2241,-.5"/>
<text text-anchor="start" x="758.2241" y="-26.5" font-family="Helvetica,sans-Serif" font-size="10.00" fill="#000000">/Users/Claudio/GitHub</text>
<text text-anchor="start" x="758.2241" y="-16.5" font-family="Helvetica,sans-Serif" font-size="10.00" fill="#000000">/bayes&#45;filters&#45;lib/src</text>
<text text-anchor="middle" x="842.4136" y="-6.5" font-family="Helvetica,sans-Serif" font-size="10.00" fill="#000000">/BayesFilters/src/SUKFCorrection.cpp</text>
</a>
</g>
</g>
<!-- Node13&#45;&gt;Node14 -->
<g id="edge11" class="edge">
<title>Node13&#45;&gt;Node14</title>
<path fill="none" stroke="#191970" d="M847.0076,-65.4405C846.0915,-56.2795 845.1329,-46.6933 844.3298,-38.662"/>
<polygon fill="#191970" stroke="#191970" points="843.5356,-65.8953 848.0133,-75.4974 850.5008,-65.1987 843.5356,-65.8953"/>
</g>
<!-- Node16 -->
<g id="node14" class="node">
<title>Node16</title>
<g id="a_node14"><a xlink:href="UKFCorrection_8cpp.html" target="_top" xlink:title="/Users/Claudio/GitHub\l/bayes&#45;filters&#45;lib/src\l/BayesFilters/src/UKFCorrection.cpp">
<polygon fill="#ffffff" stroke="#000000" points="952.5591,-.5 952.5591,-38.5 1130.2681,-38.5 1130.2681,-.5 952.5591,-.5"/>
<text text-anchor="start" x="960.5591" y="-26.5" font-family="Helvetica,sans-Serif" font-size="10.00" fill="#000000">/Users/Claudio/GitHub</text>
<text text-anchor="start" x="960.5591" y="-16.5" font-family="Helvetica,sans-Serif" font-size="10.00" fill="#000000">/bayes&#45;filters&#45;lib/src</text>
<text text-anchor="middle" x="1041.4136" y="-6.5" font-family="Helvetica,sans-Serif" font-size="10.00" fill="#000000">/BayesFilters/src/UKFCorrection.cpp</text>
</a>
</g>
</g>
<!-- Node15&#45;&gt;Node16 -->
<g id="edge13" class="edge">
<title>Node15&#45;&gt;Node16</title>
<path fill="none" stroke="#191970" d="M1037.3938,-65.4405C1038.1954,-56.2795 1039.0342,-46.6933 1039.7369,-38.662"/>
<polygon fill="#191970" stroke="#191970" points="1033.8989,-65.2303 1036.5138,-75.4974 1040.8722,-65.8405 1033.8989,-65.2303"/>
</g>
<!-- Node18 -->
<g id="node16" class="node">
<title>Node18</title>
<g id="a_node16"><a xlink:href="UKFPrediction_8cpp.html" target="_top" xlink:title="/Users/Claudio/GitHub\l/bayes&#45;filters&#45;lib/src\l/BayesFilters/src/UKFPrediction.cpp">
<polygon fill="#ffffff" stroke="#000000" points="1268.3892,-.5 1268.3892,-38.5 1444.438,-38.5 1444.438,-.5 1268.3892,-.5"/>
<text text-anchor="start" x="1276.3892" y="-26.5" font-family="Helvetica,sans-Serif" font-size="10.00" fill="#000000">/Users/Claudio/GitHub</text>
<text text-anchor="start" x="1276.3892" y="-16.5" font-family="Helvetica,sans-Serif" font-size="10.00" fill="#000000">/bayes&#45;filters&#45;lib/src</text>
<text text-anchor="middle" x="1356.4136" y="-6.5" font-family="Helvetica,sans-Serif" font-size="10.00" fill="#000000">/BayesFilters/src/UKFPrediction.cpp</text>
</a>
</g>
</g>
<!-- Node17&#45;&gt;Node18 -->
<g id="edge15" class="edge">
<title>Node17&#45;&gt;Node18</title>
<path fill="none" stroke="#191970" d="M1356.4136,-65.4405C1356.4136,-56.2795 1356.4136,-46.6933 1356.4136,-38.662"/>
<polygon fill="#191970" stroke="#191970" points="1352.9137,-65.4973 1356.4136,-75.4974 1359.9137,-65.4974 1352.9137,-65.4973"/>
</g>
</g>
</svg>
        <g id="navigator" transform="translate(0 0)" fill="#404254">
                <rect fill="#f2f5e9" fill-opacity="0.5" stroke="#606060" stroke-width=".5" x="0" y="0" width="60" height="60"/>
                <use id="zoomplus" xlink:href="#zoomPlus" x="17" y="9" onmousedown="handleZoom(evt,'in')"/>
                <use id="zoomminus" xlink:href="#zoomMin" x="42" y="9" onmousedown="handleZoom(evt,'out')"/>
                <use id="reset" xlink:href="#resetDef" x="30" y="36" onmousedown="handleReset()"/>
                <g id="arrowUp" xlink:href="#dirArrow" transform="translate(30 24)" onmousedown="handlePan(0,-1)">
                  <use xlink:href="#rim" fill="#404040">
                        <set attributeName="fill" to="#808080" begin="arrowUp.mouseover" end="arrowUp.mouseout"/>
                  </use>
                  <path fill="none" stroke="white" stroke-width="1.5" d="M0,-3.0v7 M-2.5,-0.5L0,-3.0L2.5,-0.5"/>
                </g>
                <g id="arrowRight" xlink:href="#dirArrow" transform="rotate(90) translate(36 -43)" onmousedown="handlePan(1,0)">
                  <use xlink:href="#rim" fill="#404040">
                        <set attributeName="fill" to="#808080" begin="arrowRight.mouseover" end="arrowRight.mouseout"/>
                  </use>
                  <path fill="none" stroke="white" stroke-width="1.5" d="M0,-3.0v7 M-2.5,-0.5L0,-3.0L2.5,-0.5"/>
                </g>
                <g id="arrowDown" xlink:href="#dirArrow" transform="rotate(180) translate(-30 -48)" onmousedown="handlePan(0,1)">
                  <use xlink:href="#rim" fill="#404040">
                        <set attributeName="fill" to="#808080" begin="arrowDown.mouseover" end="arrowDown.mouseout"/>
                  </use>
                  <path fill="none" stroke="white" stroke-width="1.5" d="M0,-3.0v7 M-2.5,-0.5L0,-3.0L2.5,-0.5"/>
                </g>
                <g id="arrowLeft" xlink:href="#dirArrow" transform="rotate(270) translate(-36 17)" onmousedown="handlePan(-1,0)">
                  <use xlink:href="#rim" fill="#404040">
                        <set attributeName="fill" to="#808080" begin="arrowLeft.mouseover" end="arrowLeft.mouseout"/>
                  </use>
                  <path fill="none" stroke="white" stroke-width="1.5" d="M0,-3.0v7 M-2.5,-0.5L0,-3.0L2.5,-0.5"/>
                </g>
        </g>
        <svg viewBox="0 0 15 15" width="100%" height="30px" preserveAspectRatio="xMaxYMin meet">
         <g id="arrow_out" transform="scale(0.3 0.3)">
          <a xlink:href="AdditiveStateModel_8h__dep__incl_org.svg" target="_base">
           <rect id="button" ry="5" rx="5" y="6" x="6" height="38" width="38"
                fill="#f2f5e9" fill-opacity="0.5" stroke="#606060" stroke-width="1.0"/>
           <path id="arrow"
             d="M 11.500037,31.436501 C 11.940474,20.09759 22.043105,11.32322 32.158766,21.979434 L 37.068811,17.246167 C 37.068811,17.246167 37.088388,32 37.088388,32 L 22.160133,31.978069 C 22.160133,31.978069 26.997745,27.140456 26.997745,27.140456 C 18.528582,18.264221 13.291696,25.230495 11.500037,31.436501 z"
             style="fill:#404040;"/>
          </a>
         </g>
        </svg>
</svg>
