<?xml version="1.0" encoding="UTF-8" standalone="no"?>
<!DOCTYPE svg PUBLIC "-//W3C//DTD SVG 1.1//EN"
 "http://www.w3.org/Graphics/SVG/1.1/DTD/svg11.dtd">
<!-- Generated by graphviz version 2.40.1 (20161225.0304)
 -->
<!-- Title: /Users/Claudio/GitHub/bayes&#45;filters&#45;lib/src/BayesFilters/include/BayesFilters/AdditiveMeasurementModel.h Pages: 1 -->
<svg width="568pt" height="287pt"
 viewBox="0.00 0.00 567.69 287.00" xmlns="http://www.w3.org/2000/svg" xmlns:xlink="http://www.w3.org/1999/xlink">
<g id="graph0" class="graph" transform="scale(1 1) rotate(0) translate(4 283)">
<title>/Users/Claudio/GitHub/bayes&#45;filters&#45;lib/src/BayesFilters/include/BayesFilters/AdditiveMeasurementModel.h</title>
<polygon fill="#ffffff" stroke="transparent" points="-4,4 -4,-283 563.687,-283 563.687,4 -4,4"/>
<!-- Node0 -->
<g id="node1" class="node">
<title>Node0</title>
<polygon fill="#bfbfbf" stroke="#000000" points="277.0298,-230.5 277.0298,-278.5 443.0835,-278.5 443.0835,-230.5 277.0298,-230.5"/>
<text text-anchor="start" x="285.0298" y="-266.5" font-family="Helvetica,sans-Serif" font-size="10.00" fill="#000000">/Users/Claudio/GitHub</text>
<text text-anchor="start" x="285.0298" y="-256.5" font-family="Helvetica,sans-Serif" font-size="10.00" fill="#000000">/bayes&#45;filters&#45;lib/src</text>
<text text-anchor="start" x="285.0298" y="-246.5" font-family="Helvetica,sans-Serif" font-size="10.00" fill="#000000">/BayesFilters/include/BayesFilters</text>
<text text-anchor="middle" x="360.0566" y="-236.5" font-family="Helvetica,sans-Serif" font-size="10.00" fill="#000000">/AdditiveMeasurementModel.h</text>
</g>
<!-- Node1 -->
<g id="node2" class="node">
<title>Node1</title>
<g id="a_node2"><a xlink:href="MeasurementModel_8h.html" target="_top" xlink:title="BayesFilters/Measurement\lModel.h">
<polygon fill="#ffffff" stroke="#000000" points="292.5913,-165.5 292.5913,-193.5 427.522,-193.5 427.522,-165.5 292.5913,-165.5"/>
<text text-anchor="start" x="300.5913" y="-181.5" font-family="Helvetica,sans-Serif" font-size="10.00" fill="#000000">BayesFilters/Measurement</text>
<text text-anchor="middle" x="360.0566" y="-171.5" font-family="Helvetica,sans-Serif" font-size="10.00" fill="#000000">Model.h</text>
</a>
</g>
</g>
<!-- Node0&#45;&gt;Node1 -->
<g id="edge1" class="edge">
<title>Node0&#45;&gt;Node1</title>
<path fill="none" stroke="#191970" d="M360.0566,-230.3567C360.0566,-221.8057 360.0566,-212.1888 360.0566,-203.6382"/>
<polygon fill="#191970" stroke="#191970" points="363.5567,-203.5381 360.0566,-193.5382 356.5567,-203.5382 363.5567,-203.5381"/>
</g>
<!-- Node2 -->
<g id="node3" class="node">
<title>Node2</title>
<g id="a_node3"><a xlink:href="Data_8h.html" target="_top" xlink:title="BayesFilters/Data.h">
<polygon fill="#ffffff" stroke="#000000" points="124.4287,-110.5 124.4287,-128.5 227.6846,-128.5 227.6846,-110.5 124.4287,-110.5"/>
<text text-anchor="middle" x="176.0566" y="-116.5" font-family="Helvetica,sans-Serif" font-size="10.00" fill="#000000">BayesFilters/Data.h</text>
</a>
</g>
</g>
<!-- Node1&#45;&gt;Node2 -->
<g id="edge2" class="edge">
<title>Node1&#45;&gt;Node2</title>
<path fill="none" stroke="#191970" d="M316.9168,-165.4327C285.5195,-155.1944 243.4267,-141.4685 213.4523,-131.6942"/>
<polygon fill="#191970" stroke="#191970" points="214.377,-128.3144 203.7846,-128.5417 212.2068,-134.9696 214.377,-128.3144"/>
</g>
<!-- Node5 -->
<g id="node6" class="node">
<title>Node5</title>
<polygon fill="#ffffff" stroke="#bfbfbf" points="0,-.5 0,-18.5 52.1133,-18.5 52.1133,-.5 0,-.5"/>
<text text-anchor="middle" x="26.0566" y="-6.5" font-family="Helvetica,sans-Serif" font-size="10.00" fill="#000000">memory</text>
</g>
<!-- Node1&#45;&gt;Node5 -->
<g id="edge14" class="edge">
<title>Node1&#45;&gt;Node5</title>
<path fill="none" stroke="#191970" d="M292.5579,-171.0653C230.5399,-162.3441 143.9974,-147.4263 115.0566,-129 75.5849,-103.8687 47.4582,-54.5881 34.3515,-27.834"/>
<polygon fill="#191970" stroke="#191970" points="37.5096,-26.3251 30.0712,-18.7804 31.1812,-29.317 37.5096,-26.3251"/>
</g>
<!-- Node9 -->
<g id="node10" class="node">
<title>Node9</title>
<g id="a_node10"><a xlink:href="Logger_8h.html" target="_top" xlink:title="BayesFilters/Logger.h">
<polygon fill="#ffffff" stroke="#000000" points="261.6948,-110.5 261.6948,-128.5 374.4185,-128.5 374.4185,-110.5 261.6948,-110.5"/>
<text text-anchor="middle" x="318.0566" y="-116.5" font-family="Helvetica,sans-Serif" font-size="10.00" fill="#000000">BayesFilters/Logger.h</text>
</a>
</g>
</g>
<!-- Node1&#45;&gt;Node9 -->
<g id="edge9" class="edge">
<title>Node1&#45;&gt;Node9</title>
<path fill="none" stroke="#191970" d="M350.1032,-165.2808C344.1358,-156.756 336.5048,-145.8545 330.1863,-136.8281"/>
<polygon fill="#191970" stroke="#191970" points="333.0176,-134.7694 324.4156,-128.5842 327.2829,-138.7837 333.0176,-134.7694"/>
</g>
<!-- Node12 -->
<g id="node13" class="node">
<title>Node12</title>
<polygon fill="#ffffff" stroke="#bfbfbf" points="424.8301,-55.5 424.8301,-73.5 465.2832,-73.5 465.2832,-55.5 424.8301,-55.5"/>
<text text-anchor="middle" x="445.0566" y="-61.5" font-family="Helvetica,sans-Serif" font-size="10.00" fill="#000000">string</text>
</g>
<!-- Node1&#45;&gt;Node12 -->
<g id="edge15" class="edge">
<title>Node1&#45;&gt;Node12</title>
<path fill="none" stroke="#191970" d="M370.4793,-165.3987C386.0554,-144.3252 415.3746,-104.6581 432.2392,-81.8413"/>
<polygon fill="#191970" stroke="#191970" points="435.1061,-83.8508 438.2355,-73.7286 429.4769,-79.69 435.1061,-83.8508"/>
</g>
<!-- Node14 -->
<g id="node15" class="node">
<title>Node14</title>
<polygon fill="#ffffff" stroke="#bfbfbf" points="429.665,-110.5 429.665,-128.5 468.4482,-128.5 468.4482,-110.5 429.665,-110.5"/>
<text text-anchor="middle" x="449.0566" y="-116.5" font-family="Helvetica,sans-Serif" font-size="10.00" fill="#000000">utility</text>
</g>
<!-- Node1&#45;&gt;Node14 -->
<g id="edge16" class="edge">
<title>Node1&#45;&gt;Node14</title>
<path fill="none" stroke="#191970" d="M381.1484,-165.2808C394.9791,-155.9568 413.0272,-143.7895 427.0405,-134.3423"/>
<polygon fill="#191970" stroke="#191970" points="429.2465,-137.0763 435.5818,-128.5842 425.3335,-131.272 429.2465,-137.0763"/>
</g>
<!-- Node15 -->
<g id="node16" class="node">
<title>Node15</title>
<polygon fill="#ffffff" stroke="#bfbfbf" points="486.4263,-110.5 486.4263,-128.5 559.687,-128.5 559.687,-110.5 486.4263,-110.5"/>
<text text-anchor="middle" x="523.0566" y="-116.5" font-family="Helvetica,sans-Serif" font-size="10.00" fill="#000000">Eigen/Dense</text>
</g>
<!-- Node1&#45;&gt;Node15 -->
<g id="edge17" class="edge">
<title>Node1&#45;&gt;Node15</title>
<path fill="none" stroke="#191970" d="M398.2729,-165.4327C425.6406,-155.3587 462.1815,-141.908 488.6427,-132.1677"/>
<polygon fill="#191970" stroke="#191970" points="490.0752,-135.3701 498.2506,-128.6311 487.6571,-128.801 490.0752,-135.3701"/>
</g>
<!-- Node3 -->
<g id="node4" class="node">
<title>Node3</title>
<g id="a_node4"><a xlink:href="any_8h.html" target="_top" xlink:title="BayesFilters/any.h">
<polygon fill="#ffffff" stroke="#000000" points="108.2974,-55.5 108.2974,-73.5 205.8159,-73.5 205.8159,-55.5 108.2974,-55.5"/>
<text text-anchor="middle" x="157.0566" y="-61.5" font-family="Helvetica,sans-Serif" font-size="10.00" fill="#000000">BayesFilters/any.h</text>
</a>
</g>
</g>
<!-- Node2&#45;&gt;Node3 -->
<g id="edge3" class="edge">
<title>Node2&#45;&gt;Node3</title>
<path fill="none" stroke="#191970" d="M172.9192,-110.4179C170.3767,-103.0581 166.709,-92.441 163.5407,-83.2695"/>
<polygon fill="#191970" stroke="#191970" points="166.8357,-82.0885 160.2623,-73.7795 160.2194,-84.3742 166.8357,-82.0885"/>
</g>
<!-- Node4 -->
<g id="node5" class="node">
<title>Node4</title>
<polygon fill="#ffffff" stroke="#bfbfbf" points="70.4927,-.5 70.4927,-18.5 127.6206,-18.5 127.6206,-.5 70.4927,-.5"/>
<text text-anchor="middle" x="99.0566" y="-6.5" font-family="Helvetica,sans-Serif" font-size="10.00" fill="#000000">algorithm</text>
</g>
<!-- Node3&#45;&gt;Node4 -->
<g id="edge4" class="edge">
<title>Node3&#45;&gt;Node4</title>
<path fill="none" stroke="#191970" d="M147.4791,-55.4179C139.0503,-47.425 126.5701,-35.5903 116.391,-25.9377"/>
<polygon fill="#191970" stroke="#191970" points="118.5068,-23.1207 108.8422,-18.7795 113.6902,-28.2001 118.5068,-23.1207"/>
</g>
<!-- Node3&#45;&gt;Node5 -->
<g id="edge5" class="edge">
<title>Node3&#45;&gt;Node5</title>
<path fill="none" stroke="#191970" d="M135.4247,-55.4179C114.0917,-46.4613 81.2687,-32.6806 57.1441,-22.552"/>
<polygon fill="#191970" stroke="#191970" points="58.296,-19.2397 47.7208,-18.5956 55.5862,-25.6939 58.296,-19.2397"/>
</g>
<!-- Node6 -->
<g id="node7" class="node">
<title>Node6</title>
<polygon fill="#ffffff" stroke="#bfbfbf" points="145.6553,-.5 145.6553,-18.5 204.458,-18.5 204.458,-.5 145.6553,-.5"/>
<text text-anchor="middle" x="175.0566" y="-6.5" font-family="Helvetica,sans-Serif" font-size="10.00" fill="#000000">stdexcept</text>
</g>
<!-- Node3&#45;&gt;Node6 -->
<g id="edge6" class="edge">
<title>Node3&#45;&gt;Node6</title>
<path fill="none" stroke="#191970" d="M160.029,-55.4179C162.4117,-48.1372 165.8377,-37.669 168.8169,-28.5659"/>
<polygon fill="#191970" stroke="#191970" points="172.2357,-29.3721 172.0197,-18.7795 165.5829,-27.1948 172.2357,-29.3721"/>
</g>
<!-- Node7 -->
<g id="node8" class="node">
<title>Node7</title>
<polygon fill="#ffffff" stroke="#bfbfbf" points="222.5444,-.5 222.5444,-18.5 273.5688,-18.5 273.5688,-.5 222.5444,-.5"/>
<text text-anchor="middle" x="248.0566" y="-6.5" font-family="Helvetica,sans-Serif" font-size="10.00" fill="#000000">typeinfo</text>
</g>
<!-- Node3&#45;&gt;Node7 -->
<g id="edge7" class="edge">
<title>Node3&#45;&gt;Node7</title>
<path fill="none" stroke="#191970" d="M172.0834,-55.4179C186.3098,-46.8195 207.8919,-33.7754 224.4224,-23.7844"/>
<polygon fill="#191970" stroke="#191970" points="226.2596,-26.7637 233.0075,-18.5956 222.6388,-20.7729 226.2596,-26.7637"/>
</g>
<!-- Node8 -->
<g id="node9" class="node">
<title>Node8</title>
<polygon fill="#ffffff" stroke="#bfbfbf" points="291.9902,-.5 291.9902,-18.5 354.123,-18.5 354.123,-.5 291.9902,-.5"/>
<text text-anchor="middle" x="323.0566" y="-6.5" font-family="Helvetica,sans-Serif" font-size="10.00" fill="#000000">type_traits</text>
</g>
<!-- Node3&#45;&gt;Node8 -->
<g id="edge8" class="edge">
<title>Node3&#45;&gt;Node8</title>
<path fill="none" stroke="#191970" d="M184.4682,-55.4179C212.3048,-46.1949 255.5801,-31.8567 286.3609,-21.6582"/>
<polygon fill="#191970" stroke="#191970" points="287.4886,-24.9718 295.8803,-18.5042 285.2869,-18.327 287.4886,-24.9718"/>
</g>
<!-- Node10 -->
<g id="node11" class="node">
<title>Node10</title>
<polygon fill="#ffffff" stroke="#bfbfbf" points="223.3867,-55.5 223.3867,-73.5 272.7266,-73.5 272.7266,-55.5 223.3867,-55.5"/>
<text text-anchor="middle" x="248.0566" y="-61.5" font-family="Helvetica,sans-Serif" font-size="10.00" fill="#000000">fstream</text>
</g>
<!-- Node9&#45;&gt;Node10 -->
<g id="edge10" class="edge">
<title>Node9&#45;&gt;Node10</title>
<path fill="none" stroke="#191970" d="M306.4976,-110.4179C296.0226,-102.1876 280.3634,-89.8839 267.8903,-80.0836"/>
<polygon fill="#191970" stroke="#191970" points="269.8925,-77.2056 259.8669,-73.7795 265.5677,-82.7098 269.8925,-77.2056"/>
</g>
<!-- Node11 -->
<g id="node12" class="node">
<title>Node11</title>
<polygon fill="#ffffff" stroke="#bfbfbf" points="290.8843,-55.5 290.8843,-73.5 345.229,-73.5 345.229,-55.5 290.8843,-55.5"/>
<text text-anchor="middle" x="318.0566" y="-61.5" font-family="Helvetica,sans-Serif" font-size="10.00" fill="#000000">iostream</text>
</g>
<!-- Node9&#45;&gt;Node11 -->
<g id="edge11" class="edge">
<title>Node9&#45;&gt;Node11</title>
<path fill="none" stroke="#191970" d="M318.0566,-110.4179C318.0566,-103.2164 318.0566,-92.8962 318.0566,-83.8632"/>
<polygon fill="#191970" stroke="#191970" points="321.5567,-83.7794 318.0566,-73.7795 314.5567,-83.7795 321.5567,-83.7794"/>
</g>
<!-- Node9&#45;&gt;Node12 -->
<g id="edge12" class="edge">
<title>Node9&#45;&gt;Node12</title>
<path fill="none" stroke="#191970" d="M339.0281,-110.4179C359.7411,-101.4477 391.627,-87.6388 415.0248,-77.5059"/>
<polygon fill="#191970" stroke="#191970" points="416.6899,-80.599 424.4754,-73.4131 413.908,-74.1755 416.6899,-80.599"/>
</g>
<!-- Node13 -->
<g id="node14" class="node">
<title>Node13</title>
<polygon fill="#ffffff" stroke="#bfbfbf" points="363.4409,-55.5 363.4409,-73.5 406.6724,-73.5 406.6724,-55.5 363.4409,-55.5"/>
<text text-anchor="middle" x="385.0566" y="-61.5" font-family="Helvetica,sans-Serif" font-size="10.00" fill="#000000">vector</text>
</g>
<!-- Node9&#45;&gt;Node13 -->
<g id="edge13" class="edge">
<title>Node9&#45;&gt;Node13</title>
<path fill="none" stroke="#191970" d="M329.1203,-110.4179C339.0499,-102.2667 353.8467,-90.1201 365.7278,-80.3669"/>
<polygon fill="#191970" stroke="#191970" points="368.244,-82.8297 373.7526,-73.7795 363.8025,-77.4192 368.244,-82.8297"/>
</g>
</g>
</svg>
