<?xml version="1.0" encoding="UTF-8" standalone="no"?>
<!DOCTYPE svg PUBLIC "-//W3C//DTD SVG 1.1//EN"
 "http://www.w3.org/Graphics/SVG/1.1/DTD/svg11.dtd">
<!-- Generated by graphviz version 2.40.1 (20161225.0304)
 -->
<!-- Title: /Users/Claudio/GitHub/bayes&#45;filters&#45;lib/src/BayesFilters/include/BayesFilters/any.h Pages: 1 -->
<svg width="362pt" height="102pt"
 viewBox="0.00 0.00 361.63 102.00" xmlns="http://www.w3.org/2000/svg" xmlns:xlink="http://www.w3.org/1999/xlink">
<g id="graph0" class="graph" transform="scale(1 1) rotate(0) translate(4 98)">
<title>/Users/Claudio/GitHub/bayes&#45;filters&#45;lib/src/BayesFilters/include/BayesFilters/any.h</title>
<polygon fill="#ffffff" stroke="transparent" points="-4,4 -4,-98 357.6304,-98 357.6304,4 -4,4"/>
<!-- Node0 -->
<g id="node1" class="node">
<title>Node0</title>
<polygon fill="#bfbfbf" stroke="#000000" points="78.2852,-55.5 78.2852,-93.5 270.8428,-93.5 270.8428,-55.5 78.2852,-55.5"/>
<text text-anchor="start" x="86.2852" y="-81.5" font-family="Helvetica,sans-Serif" font-size="10.00" fill="#000000">/Users/Claudio/GitHub</text>
<text text-anchor="start" x="86.2852" y="-71.5" font-family="Helvetica,sans-Serif" font-size="10.00" fill="#000000">/bayes&#45;filters&#45;lib/src</text>
<text text-anchor="middle" x="174.564" y="-61.5" font-family="Helvetica,sans-Serif" font-size="10.00" fill="#000000">/BayesFilters/include/BayesFilters/any.h</text>
</g>
<!-- Node1 -->
<g id="node2" class="node">
<title>Node1</title>
<polygon fill="#ffffff" stroke="#bfbfbf" points="0,-.5 0,-18.5 57.1279,-18.5 57.1279,-.5 0,-.5"/>
<text text-anchor="middle" x="28.564" y="-6.5" font-family="Helvetica,sans-Serif" font-size="10.00" fill="#000000">algorithm</text>
</g>
<!-- Node0&#45;&gt;Node1 -->
<g id="edge1" class="edge">
<title>Node0&#45;&gt;Node1</title>
<path fill="none" stroke="#191970" d="M131.5488,-55.3494C108.0219,-44.8751 79.4656,-32.1617 58.3963,-22.7815"/>
<polygon fill="#191970" stroke="#191970" points="59.5582,-19.4677 48.9991,-18.5978 56.7111,-25.8625 59.5582,-19.4677"/>
</g>
<!-- Node2 -->
<g id="node3" class="node">
<title>Node2</title>
<polygon fill="#ffffff" stroke="#bfbfbf" points="75.5073,-.5 75.5073,-18.5 127.6206,-18.5 127.6206,-.5 75.5073,-.5"/>
<text text-anchor="middle" x="101.564" y="-6.5" font-family="Helvetica,sans-Serif" font-size="10.00" fill="#000000">memory</text>
</g>
<!-- Node0&#45;&gt;Node2 -->
<g id="edge2" class="edge">
<title>Node0&#45;&gt;Node2</title>
<path fill="none" stroke="#191970" d="M153.0564,-55.3494C142.3042,-45.7756 129.4513,-34.3311 119.2763,-25.2712"/>
<polygon fill="#191970" stroke="#191970" points="121.5775,-22.6339 111.7815,-18.5978 116.9225,-27.8618 121.5775,-22.6339"/>
</g>
<!-- Node3 -->
<g id="node4" class="node">
<title>Node3</title>
<polygon fill="#ffffff" stroke="#bfbfbf" points="145.1626,-.5 145.1626,-18.5 203.9653,-18.5 203.9653,-.5 145.1626,-.5"/>
<text text-anchor="middle" x="174.564" y="-6.5" font-family="Helvetica,sans-Serif" font-size="10.00" fill="#000000">stdexcept</text>
</g>
<!-- Node0&#45;&gt;Node3 -->
<g id="edge3" class="edge">
<title>Node0&#45;&gt;Node3</title>
<path fill="none" stroke="#191970" d="M174.564,-55.3494C174.564,-47.0079 174.564,-37.2463 174.564,-28.879"/>
<polygon fill="#191970" stroke="#191970" points="178.0641,-28.5978 174.564,-18.5978 171.0641,-28.5979 178.0641,-28.5978"/>
</g>
<!-- Node4 -->
<g id="node5" class="node">
<title>Node4</title>
<polygon fill="#ffffff" stroke="#bfbfbf" points="222.0518,-.5 222.0518,-18.5 273.0762,-18.5 273.0762,-.5 222.0518,-.5"/>
<text text-anchor="middle" x="247.564" y="-6.5" font-family="Helvetica,sans-Serif" font-size="10.00" fill="#000000">typeinfo</text>
</g>
<!-- Node0&#45;&gt;Node4 -->
<g id="edge4" class="edge">
<title>Node0&#45;&gt;Node4</title>
<path fill="none" stroke="#191970" d="M196.0715,-55.3494C206.8237,-45.7756 219.6767,-34.3311 229.8517,-25.2712"/>
<polygon fill="#191970" stroke="#191970" points="232.2054,-27.8618 237.3464,-18.5978 227.5504,-22.6339 232.2054,-27.8618"/>
</g>
<!-- Node5 -->
<g id="node6" class="node">
<title>Node5</title>
<polygon fill="#ffffff" stroke="#bfbfbf" points="291.4976,-.5 291.4976,-18.5 353.6304,-18.5 353.6304,-.5 291.4976,-.5"/>
<text text-anchor="middle" x="322.564" y="-6.5" font-family="Helvetica,sans-Serif" font-size="10.00" fill="#000000">type_traits</text>
</g>
<!-- Node0&#45;&gt;Node5 -->
<g id="edge5" class="edge">
<title>Node0&#45;&gt;Node5</title>
<path fill="none" stroke="#191970" d="M218.1684,-55.3494C242.1255,-44.8277 271.2271,-32.0466 292.6124,-22.6544"/>
<polygon fill="#191970" stroke="#191970" points="294.1004,-25.8236 301.8489,-18.5978 291.2855,-19.4145 294.1004,-25.8236"/>
</g>
</g>
</svg>
