<?xml version="1.0" encoding="UTF-8" standalone="no"?>
<!DOCTYPE svg PUBLIC "-//W3C//DTD SVG 1.1//EN"
 "http://www.w3.org/Graphics/SVG/1.1/DTD/svg11.dtd">
<!-- Generated by graphviz version 2.40.1 (20161225.0304)
 -->
<!-- Title: /Users/Claudio/GitHub/bayes&#45;filters&#45;lib/src/BayesFilters/src/AuxiliaryFunction.cpp Pages: 1 -->
<svg width="196pt" height="102pt"
 viewBox="0.00 0.00 195.72 102.00" xmlns="http://www.w3.org/2000/svg" xmlns:xlink="http://www.w3.org/1999/xlink">
<g id="graph0" class="graph" transform="scale(1 1) rotate(0) translate(4 98)">
<title>/Users/Claudio/GitHub/bayes&#45;filters&#45;lib/src/BayesFilters/src/AuxiliaryFunction.cpp</title>
<polygon fill="#ffffff" stroke="transparent" points="-4,4 -4,-98 191.7236,-98 191.7236,4 -4,4"/>
<!-- Node0 -->
<g id="node1" class="node">
<title>Node0</title>
<polygon fill="#bfbfbf" stroke="#000000" points="0,-55.5 0,-93.5 187.7236,-93.5 187.7236,-55.5 0,-55.5"/>
<text text-anchor="start" x="8" y="-81.5" font-family="Helvetica,sans-Serif" font-size="10.00" fill="#000000">/Users/Claudio/GitHub</text>
<text text-anchor="start" x="8" y="-71.5" font-family="Helvetica,sans-Serif" font-size="10.00" fill="#000000">/bayes&#45;filters&#45;lib/src</text>
<text text-anchor="middle" x="93.8618" y="-61.5" font-family="Helvetica,sans-Serif" font-size="10.00" fill="#000000">/BayesFilters/src/AuxiliaryFunction.cpp</text>
</g>
<!-- Node1 -->
<g id="node2" class="node">
<title>Node1</title>
<g id="a_node2"><a xlink:href="AuxiliaryFunction_8h.html" target="_top" xlink:title="BayesFilters/AuxiliaryFunction.h">
<polygon fill="#ffffff" stroke="#000000" points="14.7241,-.5 14.7241,-18.5 172.9995,-18.5 172.9995,-.5 14.7241,-.5"/>
<text text-anchor="middle" x="93.8618" y="-6.5" font-family="Helvetica,sans-Serif" font-size="10.00" fill="#000000">BayesFilters/AuxiliaryFunction.h</text>
</a>
</g>
</g>
<!-- Node0&#45;&gt;Node1 -->
<g id="edge1" class="edge">
<title>Node0&#45;&gt;Node1</title>
<path fill="none" stroke="#191970" d="M93.8618,-55.3494C93.8618,-47.0079 93.8618,-37.2463 93.8618,-28.879"/>
<polygon fill="#191970" stroke="#191970" points="97.3619,-28.5978 93.8618,-18.5978 90.3619,-28.5979 97.3619,-28.5978"/>
</g>
</g>
</svg>
