<?xml version="1.0" encoding="UTF-8" standalone="no"?>
<!DOCTYPE svg PUBLIC "-//W3C//DTD SVG 1.1//EN"
 "http://www.w3.org/Graphics/SVG/1.1/DTD/svg11.dtd">
<!-- Generated by graphviz version 2.40.1 (20161225.0304)
 -->
<!-- Title: /Users/Claudio/GitHub/bayes&#45;filters&#45;lib/src/BayesFilters/include/BayesFilters/BootstrapCorrection.h Pages: 1 -->
<!--zoomable 397 -->
<svg id="main" version="1.1" xmlns="http://www.w3.org/2000/svg" xmlns:xlink="http://www.w3.org/1999/xlink" xml:space="preserve" onload="init(evt)">
<style type="text/css"><![CDATA[
.edge:hover path { stroke: red; }
.edge:hover polygon { stroke: red; fill: red; }
]]></style>
<script type="text/javascript"><![CDATA[
var edges = document.getElementsByTagName('g');
if (edges && edges.length) {
  for (var i=0;i<edges.length;i++) {
    if (edges[i].id.substr(0,4)=='edge') {
      edges[i].setAttribute('class','edge');
    }
  }
}
]]></script>
        <defs>
                <circle id="rim" cx="0" cy="0" r="7"/>
                <circle id="rim2" cx="0" cy="0" r="3.5"/>
                <g id="zoomPlus">
                        <use xlink:href="#rim" fill="#404040">
                                <set attributeName="fill" to="#808080" begin="zoomplus.mouseover" end="zoomplus.mouseout"/>
                        </use>
                        <path d="M-4,0h8M0,-4v8" fill="none" stroke="white" stroke-width="1.5" pointer-events="none"/>
                </g>
                <g id="zoomMin">
                        <use xlink:href="#rim" fill="#404040">
                                <set attributeName="fill" to="#808080" begin="zoomminus.mouseover" end="zoomminus.mouseout"/>
                        </use>
                        <path d="M-4,0h8" fill="none" stroke="white" stroke-width="1.5" pointer-events="none"/>
                </g>
                <g id="dirArrow">
                        <path fill="none" stroke="white" stroke-width="1.5" d="M0,-3.0v7 M-2.5,-0.5L0,-3.0L2.5,-0.5"/>
                </g>
               <g id="resetDef">
                       <use xlink:href="#rim2" fill="#404040">
                               <set attributeName="fill" to="#808080" begin="reset.mouseover" end="reset.mouseout"/>
                       </use>
               </g>
        </defs>

<script type="text/javascript">
var viewWidth = 667;
var viewHeight = 397;
var sectionId = 'dynsection-0';
</script>
<script xlink:href="svgpan.js"/>
<svg id="graph" class="graph">
<g id="viewport">
<title>/Users/Claudio/GitHub/bayes&#45;filters&#45;lib/src/BayesFilters/include/BayesFilters/BootstrapCorrection.h</title>
<polygon fill="#ffffff" stroke="transparent" points="-4,4 -4,-393 662.8311,-393 662.8311,4 -4,4"/>
<!-- Node0 -->
<g id="node1" class="node">
<title>Node0</title>
<polygon fill="#bfbfbf" stroke="#000000" points="431.8511,-340.5 431.8511,-388.5 597.9048,-388.5 597.9048,-340.5 431.8511,-340.5"/>
<text text-anchor="start" x="439.8511" y="-376.5" font-family="Helvetica,sans-Serif" font-size="10.00" fill="#000000">/Users/Claudio/GitHub</text>
<text text-anchor="start" x="439.8511" y="-366.5" font-family="Helvetica,sans-Serif" font-size="10.00" fill="#000000">/bayes&#45;filters&#45;lib/src</text>
<text text-anchor="start" x="439.8511" y="-356.5" font-family="Helvetica,sans-Serif" font-size="10.00" fill="#000000">/BayesFilters/include/BayesFilters</text>
<text text-anchor="middle" x="514.878" y="-346.5" font-family="Helvetica,sans-Serif" font-size="10.00" fill="#000000">/BootstrapCorrection.h</text>
</g>
<!-- Node1 -->
<g id="node2" class="node">
<title>Node1</title>
<g id="a_node2"><a xlink:href="ParticleSet_8h.html" target="_top" xlink:title="BayesFilters/ParticleSet.h">
<polygon fill="#ffffff" stroke="#000000" points="44.6343,-230.5 44.6343,-248.5 175.1216,-248.5 175.1216,-230.5 44.6343,-230.5"/>
<text text-anchor="middle" x="109.878" y="-236.5" font-family="Helvetica,sans-Serif" font-size="10.00" fill="#000000">BayesFilters/ParticleSet.h</text>
</a>
</g>
</g>
<!-- Node0&#45;&gt;Node1 -->
<g id="edge1" class="edge">
<title>Node0&#45;&gt;Node1</title>
<path fill="none" stroke="#191970" d="M436.7899,-340.3987C350.4286,-313.744 214.777,-271.8762 148.679,-251.4756"/>
<polygon fill="#191970" stroke="#191970" points="149.6531,-248.1134 139.0656,-248.5085 147.5887,-254.8021 149.6531,-248.1134"/>
</g>
<!-- Node5 -->
<g id="node6" class="node">
<title>Node5</title>
<g id="a_node6"><a xlink:href="PFCorrection_8h.html" target="_top" xlink:title="BayesFilters/PFCorrection.h">
<polygon fill="#ffffff" stroke="#000000" points="370.3585,-285.5 370.3585,-303.5 511.3975,-303.5 511.3975,-285.5 370.3585,-285.5"/>
<text text-anchor="middle" x="440.878" y="-291.5" font-family="Helvetica,sans-Serif" font-size="10.00" fill="#000000">BayesFilters/PFCorrection.h</text>
</a>
</g>
</g>
<!-- Node0&#45;&gt;Node5 -->
<g id="edge6" class="edge">
<title>Node0&#45;&gt;Node5</title>
<path fill="none" stroke="#191970" d="M489.4114,-340.41C479.064,-330.6219 467.3794,-319.5689 458.0684,-310.7612"/>
<polygon fill="#191970" stroke="#191970" points="460.2601,-308.0166 450.5902,-303.6872 455.4497,-313.1019 460.2601,-308.0166"/>
</g>
<!-- Node11 -->
<g id="node12" class="node">
<title>Node11</title>
<polygon fill="#ffffff" stroke="#bfbfbf" points="469.8213,-.5 469.8213,-18.5 521.9346,-18.5 521.9346,-.5 469.8213,-.5"/>
<text text-anchor="middle" x="495.878" y="-6.5" font-family="Helvetica,sans-Serif" font-size="10.00" fill="#000000">memory</text>
</g>
<!-- Node0&#45;&gt;Node11 -->
<g id="edge31" class="edge">
<title>Node0&#45;&gt;Node11</title>
<path fill="none" stroke="#191970" d="M536.855,-340.1629C556.0545,-316.3139 580.878,-278.0288 580.878,-239.5 580.878,-239.5 580.878,-239.5 580.878,-119.5 580.878,-78.4809 543.412,-43.4424 518.2281,-24.5235"/>
<polygon fill="#191970" stroke="#191970" points="520.0705,-21.5368 509.914,-18.5206 515.9727,-27.2121 520.0705,-21.5368"/>
</g>
<!-- Node21 -->
<g id="node22" class="node">
<title>Node21</title>
<polygon fill="#ffffff" stroke="#bfbfbf" points="608.9249,-285.5 608.9249,-303.5 658.8311,-303.5 658.8311,-285.5 608.9249,-285.5"/>
<text text-anchor="middle" x="633.878" y="-291.5" font-family="Helvetica,sans-Serif" font-size="10.00" fill="#000000">random</text>
</g>
<!-- Node0&#45;&gt;Node21 -->
<g id="edge32" class="edge">
<title>Node0&#45;&gt;Node21</title>
<path fill="none" stroke="#191970" d="M555.831,-340.41C573.7587,-329.8643 594.1824,-317.8504 609.6394,-308.758"/>
<polygon fill="#191970" stroke="#191970" points="611.7102,-311.6006 618.5549,-303.5136 608.161,-305.567 611.7102,-311.6006"/>
</g>
<!-- Node2 -->
<g id="node3" class="node">
<title>Node2</title>
<g id="a_node3"><a xlink:href="GaussianMixture_8h.html" target="_top" xlink:title="BayesFilters/GaussianMixture.h">
<polygon fill="#ffffff" stroke="#000000" points="20.2969,-170.5 20.2969,-188.5 177.459,-188.5 177.459,-170.5 20.2969,-170.5"/>
<text text-anchor="middle" x="98.878" y="-176.5" font-family="Helvetica,sans-Serif" font-size="10.00" fill="#000000">BayesFilters/GaussianMixture.h</text>
</a>
</g>
</g>
<!-- Node1&#45;&gt;Node2 -->
<g id="edge2" class="edge">
<title>Node1&#45;&gt;Node2</title>
<path fill="none" stroke="#191970" d="M108.2073,-230.3873C106.6729,-222.0174 104.3489,-209.3414 102.4044,-198.735"/>
<polygon fill="#191970" stroke="#191970" points="105.8104,-197.9034 100.5644,-188.6985 98.9251,-199.1657 105.8104,-197.9034"/>
</g>
<!-- Node3 -->
<g id="node4" class="node">
<title>Node3</title>
<polygon fill="#ffffff" stroke="#bfbfbf" points="8.2623,-55.5 8.2623,-73.5 51.4937,-73.5 51.4937,-55.5 8.2623,-55.5"/>
<text text-anchor="middle" x="29.878" y="-61.5" font-family="Helvetica,sans-Serif" font-size="10.00" fill="#000000">vector</text>
</g>
<!-- Node1&#45;&gt;Node3 -->
<g id="edge5" class="edge">
<title>Node1&#45;&gt;Node3</title>
<path fill="none" stroke="#191970" d="M65.0893,-230.4715C44.8978,-223.9271 22.9229,-212.7919 10.878,-194 -11.3031,-159.3941 7.3488,-109.0356 20.203,-82.4645"/>
<polygon fill="#191970" stroke="#191970" points="23.3344,-84.0281 24.7483,-73.528 17.0951,-80.8546 23.3344,-84.0281"/>
</g>
<!-- Node2&#45;&gt;Node3 -->
<g id="edge3" class="edge">
<title>Node2&#45;&gt;Node3</title>
<path fill="none" stroke="#191970" d="M86.864,-170.3438C75.5133,-161.0876 58.7905,-145.7851 48.878,-129 40.6231,-115.0218 35.73,-97.1972 32.9822,-83.8297"/>
<polygon fill="#191970" stroke="#191970" points="36.3955,-83.0379 31.152,-73.8316 29.5099,-84.2985 36.3955,-83.0379"/>
</g>
<!-- Node4 -->
<g id="node5" class="node">
<title>Node4</title>
<polygon fill="#ffffff" stroke="#bfbfbf" points="58.2476,-110.5 58.2476,-128.5 131.5084,-128.5 131.5084,-110.5 58.2476,-110.5"/>
<text text-anchor="middle" x="94.878" y="-116.5" font-family="Helvetica,sans-Serif" font-size="10.00" fill="#000000">Eigen/Dense</text>
</g>
<!-- Node2&#45;&gt;Node4 -->
<g id="edge4" class="edge">
<title>Node2&#45;&gt;Node4</title>
<path fill="none" stroke="#191970" d="M98.2705,-170.3873C97.7125,-162.0174 96.8674,-149.3414 96.1603,-138.735"/>
<polygon fill="#191970" stroke="#191970" points="99.6488,-138.4435 95.4912,-128.6985 92.6643,-138.9092 99.6488,-138.4435"/>
</g>
<!-- Node5&#45;&gt;Node1 -->
<g id="edge27" class="edge">
<title>Node5&#45;&gt;Node1</title>
<path fill="none" stroke="#191970" d="M386.5907,-285.4795C328.3898,-275.8086 236.0366,-260.4629 174.2233,-250.1918"/>
<polygon fill="#191970" stroke="#191970" points="174.6334,-246.712 164.1949,-248.5255 173.4859,-253.6174 174.6334,-246.712"/>
</g>
<!-- Node5&#45;&gt;Node4 -->
<g id="edge30" class="edge">
<title>Node5&#45;&gt;Node4</title>
<path fill="none" stroke="#191970" d="M384.5277,-285.443C336.4854,-276.938 271.8247,-263.3969 249.878,-249 210.8579,-223.403 222.7715,-194.8234 186.878,-165 170.2261,-151.1641 148.6571,-140.2125 130.5893,-132.5239"/>
<polygon fill="#191970" stroke="#191970" points="131.5462,-129.134 120.9654,-128.5905 128.8979,-135.6137 131.5462,-129.134"/>
</g>
<!-- Node6 -->
<g id="node7" class="node">
<title>Node6</title>
<g id="a_node7"><a xlink:href="LikelihoodModel_8h.html" target="_top" xlink:title="BayesFilters/LikelihoodModel.h">
<polygon fill="#ffffff" stroke="#000000" points="258.6763,-230.5 258.6763,-248.5 413.0796,-248.5 413.0796,-230.5 258.6763,-230.5"/>
<text text-anchor="middle" x="335.878" y="-236.5" font-family="Helvetica,sans-Serif" font-size="10.00" fill="#000000">BayesFilters/LikelihoodModel.h</text>
</a>
</g>
</g>
<!-- Node5&#45;&gt;Node6 -->
<g id="edge7" class="edge">
<title>Node5&#45;&gt;Node6</title>
<path fill="none" stroke="#191970" d="M423.5394,-285.4179C406.8964,-276.7001 381.5285,-263.4122 362.3569,-253.3699"/>
<polygon fill="#191970" stroke="#191970" points="363.7247,-250.1353 353.2424,-248.5956 360.4766,-256.3362 363.7247,-250.1353"/>
</g>
<!-- Node7 -->
<g id="node8" class="node">
<title>Node7</title>
<g id="a_node8"><a xlink:href="MeasurementModel_8h.html" target="_top" xlink:title="BayesFilters/Measurement\lModel.h">
<polygon fill="#ffffff" stroke="#000000" points="333.4127,-165.5 333.4127,-193.5 468.3433,-193.5 468.3433,-165.5 333.4127,-165.5"/>
<text text-anchor="start" x="341.4127" y="-181.5" font-family="Helvetica,sans-Serif" font-size="10.00" fill="#000000">BayesFilters/Measurement</text>
<text text-anchor="middle" x="400.878" y="-171.5" font-family="Helvetica,sans-Serif" font-size="10.00" fill="#000000">Model.h</text>
</a>
</g>
</g>
<!-- Node5&#45;&gt;Node7 -->
<g id="edge26" class="edge">
<title>Node5&#45;&gt;Node7</title>
<path fill="none" stroke="#191970" d="M438.4802,-285.2144C435.1442,-272.5911 428.7351,-249.3676 421.878,-230 418.7347,-221.122 414.8747,-211.5426 411.3252,-203.138"/>
<polygon fill="#191970" stroke="#191970" points="414.5286,-201.7277 407.3626,-193.924 408.0981,-204.4932 414.5286,-201.7277"/>
</g>
<!-- Node5&#45;&gt;Node11 -->
<g id="edge28" class="edge">
<title>Node5&#45;&gt;Node11</title>
<path fill="none" stroke="#191970" d="M458.1809,-285.3564C487.282,-268.5832 542.878,-229.9385 542.878,-179.5 542.878,-179.5 542.878,-179.5 542.878,-119.5 542.878,-84.5621 522.5803,-48.0388 508.6627,-27.1024"/>
<polygon fill="#191970" stroke="#191970" points="511.3789,-24.8765 502.813,-18.6415 505.6211,-28.8574 511.3789,-24.8765"/>
</g>
<!-- Node19 -->
<g id="node20" class="node">
<title>Node19</title>
<polygon fill="#ffffff" stroke="#bfbfbf" points="476.4864,-110.5 476.4864,-128.5 515.2696,-128.5 515.2696,-110.5 476.4864,-110.5"/>
<text text-anchor="middle" x="495.878" y="-116.5" font-family="Helvetica,sans-Serif" font-size="10.00" fill="#000000">utility</text>
</g>
<!-- Node5&#45;&gt;Node19 -->
<g id="edge29" class="edge">
<title>Node5&#45;&gt;Node19</title>
<path fill="none" stroke="#191970" d="M444.4447,-285.4509C451.2669,-267.9571 466.4154,-228.2054 476.878,-194 482.5404,-175.4878 487.8851,-154.0399 491.4547,-138.9242"/>
<polygon fill="#191970" stroke="#191970" points="494.9639,-139.2851 493.8143,-128.7529 488.1449,-137.7032 494.9639,-139.2851"/>
</g>
<!-- Node6&#45;&gt;Node7 -->
<g id="edge8" class="edge">
<title>Node6&#45;&gt;Node7</title>
<path fill="none" stroke="#191970" d="M345.7501,-230.3873C354.2093,-222.5788 366.7286,-211.0225 377.6998,-200.8952"/>
<polygon fill="#191970" stroke="#191970" points="380.3606,-203.2023 385.3347,-193.8477 375.6126,-198.0587 380.3606,-203.2023"/>
</g>
<!-- Node20 -->
<g id="node21" class="node">
<title>Node20</title>
<polygon fill="#ffffff" stroke="#bfbfbf" points="249.8633,-170.5 249.8633,-188.5 315.8926,-188.5 315.8926,-170.5 249.8633,-170.5"/>
<text text-anchor="middle" x="282.878" y="-176.5" font-family="Helvetica,sans-Serif" font-size="10.00" fill="#000000">Eigen/Core</text>
</g>
<!-- Node6&#45;&gt;Node20 -->
<g id="edge25" class="edge">
<title>Node6&#45;&gt;Node20</title>
<path fill="none" stroke="#191970" d="M327.8284,-230.3873C319.8903,-221.4007 307.5671,-207.4499 297.8299,-196.4267"/>
<polygon fill="#191970" stroke="#191970" points="300.2468,-193.8761 291.0033,-188.6985 295.0005,-198.5104 300.2468,-193.8761"/>
</g>
<!-- Node7&#45;&gt;Node4 -->
<g id="edge24" class="edge">
<title>Node7&#45;&gt;Node4</title>
<path fill="none" stroke="#191970" d="M333.2604,-166.5517C273.2235,-155.0323 188.9039,-138.7925 141.7411,-129.3486"/>
<polygon fill="#191970" stroke="#191970" points="142.1986,-125.8706 131.7044,-127.3275 140.8167,-132.7328 142.1986,-125.8706"/>
</g>
<!-- Node8 -->
<g id="node9" class="node">
<title>Node8</title>
<g id="a_node9"><a xlink:href="Data_8h.html" target="_top" xlink:title="BayesFilters/Data.h">
<polygon fill="#ffffff" stroke="#000000" points="149.2501,-110.5 149.2501,-128.5 252.5059,-128.5 252.5059,-110.5 149.2501,-110.5"/>
<text text-anchor="middle" x="200.878" y="-116.5" font-family="Helvetica,sans-Serif" font-size="10.00" fill="#000000">BayesFilters/Data.h</text>
</a>
</g>
</g>
<!-- Node7&#45;&gt;Node8 -->
<g id="edge9" class="edge">
<title>Node7&#45;&gt;Node8</title>
<path fill="none" stroke="#191970" d="M353.9869,-165.4327C319.5627,-155.1054 273.3098,-141.2295 240.6785,-131.4402"/>
<polygon fill="#191970" stroke="#191970" points="241.6011,-128.0629 231.0171,-128.5417 239.5896,-134.7677 241.6011,-128.0629"/>
</g>
<!-- Node7&#45;&gt;Node11 -->
<g id="edge21" class="edge">
<title>Node7&#45;&gt;Node11</title>
<path fill="none" stroke="#191970" d="M408.8142,-165.2983C426.0235,-134.5029 466.7515,-61.6211 485.7685,-27.5907"/>
<polygon fill="#191970" stroke="#191970" points="488.899,-29.1635 490.7219,-18.7266 482.7884,-25.7487 488.899,-29.1635"/>
</g>
<!-- Node15 -->
<g id="node16" class="node">
<title>Node15</title>
<g id="a_node16"><a xlink:href="Logger_8h.html" target="_top" xlink:title="BayesFilters/Logger.h">
<polygon fill="#ffffff" stroke="#000000" points="270.5162,-110.5 270.5162,-128.5 383.2398,-128.5 383.2398,-110.5 270.5162,-110.5"/>
<text text-anchor="middle" x="326.878" y="-116.5" font-family="Helvetica,sans-Serif" font-size="10.00" fill="#000000">BayesFilters/Logger.h</text>
</a>
</g>
</g>
<!-- Node7&#45;&gt;Node15 -->
<g id="edge16" class="edge">
<title>Node7&#45;&gt;Node15</title>
<path fill="none" stroke="#191970" d="M383.341,-165.2808C372.0604,-156.1344 357.4055,-144.252 345.8529,-134.8851"/>
<polygon fill="#191970" stroke="#191970" points="348.0537,-132.1636 338.0818,-128.5842 343.6451,-137.6009 348.0537,-132.1636"/>
</g>
<!-- Node18 -->
<g id="node19" class="node">
<title>Node18</title>
<polygon fill="#ffffff" stroke="#bfbfbf" points="380.6514,-55.5 380.6514,-73.5 421.1046,-73.5 421.1046,-55.5 380.6514,-55.5"/>
<text text-anchor="middle" x="400.878" y="-61.5" font-family="Helvetica,sans-Serif" font-size="10.00" fill="#000000">string</text>
</g>
<!-- Node7&#45;&gt;Node18 -->
<g id="edge22" class="edge">
<title>Node7&#45;&gt;Node18</title>
<path fill="none" stroke="#191970" d="M400.878,-165.3987C400.878,-144.9779 400.878,-107.0975 400.878,-84.0089"/>
<polygon fill="#191970" stroke="#191970" points="404.3781,-83.7286 400.878,-73.7286 397.3781,-83.7287 404.3781,-83.7286"/>
</g>
<!-- Node7&#45;&gt;Node19 -->
<g id="edge23" class="edge">
<title>Node7&#45;&gt;Node19</title>
<path fill="none" stroke="#191970" d="M423.3917,-165.2808C438.2954,-155.868 457.7869,-143.5575 472.8038,-134.0732"/>
<polygon fill="#191970" stroke="#191970" points="474.9088,-136.8834 481.4947,-128.5842 471.1708,-130.9649 474.9088,-136.8834"/>
</g>
<!-- Node9 -->
<g id="node10" class="node">
<title>Node9</title>
<g id="a_node10"><a xlink:href="any_8h.html" target="_top" xlink:title="BayesFilters/any.h">
<polygon fill="#ffffff" stroke="#000000" points="126.1187,-55.5 126.1187,-73.5 223.6373,-73.5 223.6373,-55.5 126.1187,-55.5"/>
<text text-anchor="middle" x="174.878" y="-61.5" font-family="Helvetica,sans-Serif" font-size="10.00" fill="#000000">BayesFilters/any.h</text>
</a>
</g>
</g>
<!-- Node8&#45;&gt;Node9 -->
<g id="edge10" class="edge">
<title>Node8&#45;&gt;Node9</title>
<path fill="none" stroke="#191970" d="M196.5846,-110.4179C193.068,-102.9789 187.9784,-92.2123 183.6112,-82.9742"/>
<polygon fill="#191970" stroke="#191970" points="186.7028,-81.3243 179.2646,-73.7795 180.3742,-84.316 186.7028,-81.3243"/>
</g>
<!-- Node10 -->
<g id="node11" class="node">
<title>Node10</title>
<polygon fill="#ffffff" stroke="#bfbfbf" points="34.314,-.5 34.314,-18.5 91.442,-18.5 91.442,-.5 34.314,-.5"/>
<text text-anchor="middle" x="62.878" y="-6.5" font-family="Helvetica,sans-Serif" font-size="10.00" fill="#000000">algorithm</text>
</g>
<!-- Node9&#45;&gt;Node10 -->
<g id="edge11" class="edge">
<title>Node9&#45;&gt;Node10</title>
<path fill="none" stroke="#191970" d="M156.3835,-55.4179C138.4688,-46.6205 111.0769,-33.1691 90.5636,-23.0956"/>
<polygon fill="#191970" stroke="#191970" points="91.9189,-19.8619 81.4,-18.5956 88.8333,-26.1452 91.9189,-19.8619"/>
</g>
<!-- Node9&#45;&gt;Node11 -->
<g id="edge12" class="edge">
<title>Node9&#45;&gt;Node11</title>
<path fill="none" stroke="#191970" d="M223.9804,-56.0868C288.7927,-44.9819 401.4273,-25.6831 459.2769,-15.7712"/>
<polygon fill="#191970" stroke="#191970" points="460.152,-19.1724 469.4173,-14.0338 458.9698,-12.2729 460.152,-19.1724"/>
</g>
<!-- Node12 -->
<g id="node13" class="node">
<title>Node12</title>
<polygon fill="#ffffff" stroke="#bfbfbf" points="109.4766,-.5 109.4766,-18.5 168.2794,-18.5 168.2794,-.5 109.4766,-.5"/>
<text text-anchor="middle" x="138.878" y="-6.5" font-family="Helvetica,sans-Serif" font-size="10.00" fill="#000000">stdexcept</text>
</g>
<!-- Node9&#45;&gt;Node12 -->
<g id="edge13" class="edge">
<title>Node9&#45;&gt;Node12</title>
<path fill="none" stroke="#191970" d="M168.9333,-55.4179C163.9606,-47.8207 156.7161,-36.7527 150.5856,-27.3866"/>
<polygon fill="#191970" stroke="#191970" points="153.3569,-25.2297 144.9518,-18.7795 147.5,-29.0633 153.3569,-25.2297"/>
</g>
<!-- Node13 -->
<g id="node14" class="node">
<title>Node13</title>
<polygon fill="#ffffff" stroke="#bfbfbf" points="186.3658,-.5 186.3658,-18.5 237.3902,-18.5 237.3902,-.5 186.3658,-.5"/>
<text text-anchor="middle" x="211.878" y="-6.5" font-family="Helvetica,sans-Serif" font-size="10.00" fill="#000000">typeinfo</text>
</g>
<!-- Node9&#45;&gt;Node13 -->
<g id="edge14" class="edge">
<title>Node9&#45;&gt;Node13</title>
<path fill="none" stroke="#191970" d="M180.9878,-55.4179C186.1519,-47.7415 193.6997,-36.5217 200.0417,-27.0945"/>
<polygon fill="#191970" stroke="#191970" points="202.9577,-29.0303 205.6354,-18.7795 197.1496,-25.1231 202.9577,-29.0303"/>
</g>
<!-- Node14 -->
<g id="node15" class="node">
<title>Node14</title>
<polygon fill="#ffffff" stroke="#bfbfbf" points="255.8116,-.5 255.8116,-18.5 317.9444,-18.5 317.9444,-.5 255.8116,-.5"/>
<text text-anchor="middle" x="286.878" y="-6.5" font-family="Helvetica,sans-Serif" font-size="10.00" fill="#000000">type_traits</text>
</g>
<!-- Node9&#45;&gt;Node14 -->
<g id="edge15" class="edge">
<title>Node9&#45;&gt;Node14</title>
<path fill="none" stroke="#191970" d="M193.3725,-55.4179C211.2872,-46.6205 238.6791,-33.1691 259.1924,-23.0956"/>
<polygon fill="#191970" stroke="#191970" points="260.9227,-26.1452 268.356,-18.5956 257.8371,-19.8619 260.9227,-26.1452"/>
</g>
<!-- Node15&#45;&gt;Node3 -->
<g id="edge20" class="edge">
<title>Node15&#45;&gt;Node3</title>
<path fill="none" stroke="#191970" d="M278.1671,-110.4795C216.8911,-99.1321 113.4248,-79.9716 61.5409,-70.3635"/>
<polygon fill="#191970" stroke="#191970" points="62.0529,-66.8989 51.5827,-68.5194 60.7782,-73.7819 62.0529,-66.8989"/>
</g>
<!-- Node16 -->
<g id="node17" class="node">
<title>Node16</title>
<polygon fill="#ffffff" stroke="#bfbfbf" points="241.2081,-55.5 241.2081,-73.5 290.5479,-73.5 290.5479,-55.5 241.2081,-55.5"/>
<text text-anchor="middle" x="265.878" y="-61.5" font-family="Helvetica,sans-Serif" font-size="10.00" fill="#000000">fstream</text>
</g>
<!-- Node15&#45;&gt;Node16 -->
<g id="edge17" class="edge">
<title>Node15&#45;&gt;Node16</title>
<path fill="none" stroke="#191970" d="M316.8051,-110.4179C307.8525,-102.3458 294.5542,-90.3556 283.7917,-80.6517"/>
<polygon fill="#191970" stroke="#191970" points="285.9404,-77.8764 276.1698,-73.7795 281.2529,-83.0753 285.9404,-77.8764"/>
</g>
<!-- Node17 -->
<g id="node18" class="node">
<title>Node17</title>
<polygon fill="#ffffff" stroke="#bfbfbf" points="308.7056,-55.5 308.7056,-73.5 363.0504,-73.5 363.0504,-55.5 308.7056,-55.5"/>
<text text-anchor="middle" x="335.878" y="-61.5" font-family="Helvetica,sans-Serif" font-size="10.00" fill="#000000">iostream</text>
</g>
<!-- Node15&#45;&gt;Node17 -->
<g id="edge18" class="edge">
<title>Node15&#45;&gt;Node17</title>
<path fill="none" stroke="#191970" d="M328.3642,-110.4179C329.5426,-103.2164 331.2313,-92.8962 332.7095,-83.8632"/>
<polygon fill="#191970" stroke="#191970" points="336.1986,-84.2134 334.3595,-73.7795 329.2905,-83.083 336.1986,-84.2134"/>
</g>
<!-- Node15&#45;&gt;Node18 -->
<g id="edge19" class="edge">
<title>Node15&#45;&gt;Node18</title>
<path fill="none" stroke="#191970" d="M339.0976,-110.4179C350.3449,-102.0584 367.2462,-89.4966 380.5295,-79.6239"/>
<polygon fill="#191970" stroke="#191970" points="382.7021,-82.37 388.6402,-73.5956 378.5264,-76.7518 382.7021,-82.37"/>
</g>
</g>
</svg>
        <g id="navigator" transform="translate(0 0)" fill="#404254">
                <rect fill="#f2f5e9" fill-opacity="0.5" stroke="#606060" stroke-width=".5" x="0" y="0" width="60" height="60"/>
                <use id="zoomplus" xlink:href="#zoomPlus" x="17" y="9" onmousedown="handleZoom(evt,'in')"/>
                <use id="zoomminus" xlink:href="#zoomMin" x="42" y="9" onmousedown="handleZoom(evt,'out')"/>
                <use id="reset" xlink:href="#resetDef" x="30" y="36" onmousedown="handleReset()"/>
                <g id="arrowUp" xlink:href="#dirArrow" transform="translate(30 24)" onmousedown="handlePan(0,-1)">
                  <use xlink:href="#rim" fill="#404040">
                        <set attributeName="fill" to="#808080" begin="arrowUp.mouseover" end="arrowUp.mouseout"/>
                  </use>
                  <path fill="none" stroke="white" stroke-width="1.5" d="M0,-3.0v7 M-2.5,-0.5L0,-3.0L2.5,-0.5"/>
                </g>
                <g id="arrowRight" xlink:href="#dirArrow" transform="rotate(90) translate(36 -43)" onmousedown="handlePan(1,0)">
                  <use xlink:href="#rim" fill="#404040">
                        <set attributeName="fill" to="#808080" begin="arrowRight.mouseover" end="arrowRight.mouseout"/>
                  </use>
                  <path fill="none" stroke="white" stroke-width="1.5" d="M0,-3.0v7 M-2.5,-0.5L0,-3.0L2.5,-0.5"/>
                </g>
                <g id="arrowDown" xlink:href="#dirArrow" transform="rotate(180) translate(-30 -48)" onmousedown="handlePan(0,1)">
                  <use xlink:href="#rim" fill="#404040">
                        <set attributeName="fill" to="#808080" begin="arrowDown.mouseover" end="arrowDown.mouseout"/>
                  </use>
                  <path fill="none" stroke="white" stroke-width="1.5" d="M0,-3.0v7 M-2.5,-0.5L0,-3.0L2.5,-0.5"/>
                </g>
                <g id="arrowLeft" xlink:href="#dirArrow" transform="rotate(270) translate(-36 17)" onmousedown="handlePan(-1,0)">
                  <use xlink:href="#rim" fill="#404040">
                        <set attributeName="fill" to="#808080" begin="arrowLeft.mouseover" end="arrowLeft.mouseout"/>
                  </use>
                  <path fill="none" stroke="white" stroke-width="1.5" d="M0,-3.0v7 M-2.5,-0.5L0,-3.0L2.5,-0.5"/>
                </g>
        </g>
        <svg viewBox="0 0 15 15" width="100%" height="30px" preserveAspectRatio="xMaxYMin meet">
         <g id="arrow_out" transform="scale(0.3 0.3)">
          <a xlink:href="BootstrapCorrection_8h__incl_org.svg" target="_base">
           <rect id="button" ry="5" rx="5" y="6" x="6" height="38" width="38"
                fill="#f2f5e9" fill-opacity="0.5" stroke="#606060" stroke-width="1.0"/>
           <path id="arrow"
             d="M 11.500037,31.436501 C 11.940474,20.09759 22.043105,11.32322 32.158766,21.979434 L 37.068811,17.246167 C 37.068811,17.246167 37.088388,32 37.088388,32 L 22.160133,31.978069 C 22.160133,31.978069 26.997745,27.140456 26.997745,27.140456 C 18.528582,18.264221 13.291696,25.230495 11.500037,31.436501 z"
             style="fill:#404040;"/>
          </a>
         </g>
        </svg>
</svg>
