<?xml version="1.0" encoding="UTF-8" standalone="no"?>
<!DOCTYPE svg PUBLIC "-//W3C//DTD SVG 1.1//EN"
 "http://www.w3.org/Graphics/SVG/1.1/DTD/svg11.dtd">
<!-- Generated by graphviz version 2.40.1 (20161225.0304)
 -->
<!-- Title: /Users/Claudio/GitHub/bayes&#45;filters&#45;lib/src/BayesFilters/src/BootstrapCorrection.cpp Pages: 1 -->
<svg width="946pt" height="442pt"
 viewBox="0.00 0.00 945.84 442.00" xmlns="http://www.w3.org/2000/svg" xmlns:xlink="http://www.w3.org/1999/xlink">
<g id="graph0" class="graph" transform="scale(1 1) rotate(0) translate(4 438)">
<title>/Users/Claudio/GitHub/bayes&#45;filters&#45;lib/src/BayesFilters/src/BootstrapCorrection.cpp</title>
<polygon fill="#ffffff" stroke="transparent" points="-4,4 -4,-438 941.8369,-438 941.8369,4 -4,4"/>
<!-- Node0 -->
<g id="node1" class="node">
<title>Node0</title>
<polygon fill="#bfbfbf" stroke="#000000" points="737.3252,-395.5 737.3252,-433.5 937.8369,-433.5 937.8369,-395.5 737.3252,-395.5"/>
<text text-anchor="start" x="745.3252" y="-421.5" font-family="Helvetica,sans-Serif" font-size="10.00" fill="#000000">/Users/Claudio/GitHub</text>
<text text-anchor="start" x="745.3252" y="-411.5" font-family="Helvetica,sans-Serif" font-size="10.00" fill="#000000">/bayes&#45;filters&#45;lib/src</text>
<text text-anchor="middle" x="837.5811" y="-401.5" font-family="Helvetica,sans-Serif" font-size="10.00" fill="#000000">/BayesFilters/src/BootstrapCorrection.cpp</text>
</g>
<!-- Node1 -->
<g id="node2" class="node">
<title>Node1</title>
<g id="a_node2"><a xlink:href="BootstrapCorrection_8h.html" target="_top" xlink:title="BayesFilters/BootstrapCorrection.h">
<polygon fill="#ffffff" stroke="#000000" points="638.0493,-340.5 638.0493,-358.5 809.1128,-358.5 809.1128,-340.5 638.0493,-340.5"/>
<text text-anchor="middle" x="723.5811" y="-346.5" font-family="Helvetica,sans-Serif" font-size="10.00" fill="#000000">BayesFilters/BootstrapCorrection.h</text>
</a>
</g>
</g>
<!-- Node0&#45;&gt;Node1 -->
<g id="edge1" class="edge">
<title>Node0&#45;&gt;Node1</title>
<path fill="none" stroke="#191970" d="M803.9939,-395.3494C786.2054,-385.2069 764.7347,-372.9648 748.4554,-363.6827"/>
<polygon fill="#191970" stroke="#191970" points="749.958,-360.5106 739.5373,-358.5978 746.4908,-366.5916 749.958,-360.5106"/>
</g>
<!-- Node20 -->
<g id="node21" class="node">
<title>Node20</title>
<polygon fill="#ffffff" stroke="#bfbfbf" points="665.1895,-110.5 665.1895,-128.5 703.9727,-128.5 703.9727,-110.5 665.1895,-110.5"/>
<text text-anchor="middle" x="684.5811" y="-116.5" font-family="Helvetica,sans-Serif" font-size="10.00" fill="#000000">utility</text>
</g>
<!-- Node0&#45;&gt;Node20 -->
<g id="edge35" class="edge">
<title>Node0&#45;&gt;Node20</title>
<path fill="none" stroke="#191970" d="M837.5811,-395.3794C837.5811,-371.6991 837.5811,-330.125 837.5811,-294.5 837.5811,-294.5 837.5811,-294.5 837.5811,-239.5 837.5811,-177.3331 758.4076,-142.5097 713.9685,-127.86"/>
<polygon fill="#191970" stroke="#191970" points="714.8596,-124.4712 704.2699,-124.8005 712.7536,-131.1469 714.8596,-124.4712"/>
</g>
<!-- Node23 -->
<g id="node24" class="node">
<title>Node23</title>
<polygon fill="#ffffff" stroke="#bfbfbf" points="865.9653,-340.5 865.9653,-358.5 909.1968,-358.5 909.1968,-340.5 865.9653,-340.5"/>
<text text-anchor="middle" x="887.5811" y="-346.5" font-family="Helvetica,sans-Serif" font-size="10.00" fill="#000000">cmath</text>
</g>
<!-- Node0&#45;&gt;Node23 -->
<g id="edge34" class="edge">
<title>Node0&#45;&gt;Node23</title>
<path fill="none" stroke="#191970" d="M852.3123,-395.3494C859.3122,-386.2495 867.6121,-375.4597 874.4012,-366.6338"/>
<polygon fill="#191970" stroke="#191970" points="877.2598,-368.6581 880.5827,-358.5978 871.7114,-364.3901 877.2598,-368.6581"/>
</g>
<!-- Node2 -->
<g id="node3" class="node">
<title>Node2</title>
<g id="a_node3"><a xlink:href="ParticleSet_8h.html" target="_top" xlink:title="BayesFilters/ParticleSet.h">
<polygon fill="#ffffff" stroke="#000000" points="136.3374,-230.5 136.3374,-248.5 266.8247,-248.5 266.8247,-230.5 136.3374,-230.5"/>
<text text-anchor="middle" x="201.5811" y="-236.5" font-family="Helvetica,sans-Serif" font-size="10.00" fill="#000000">BayesFilters/ParticleSet.h</text>
</a>
</g>
</g>
<!-- Node1&#45;&gt;Node2 -->
<g id="edge2" class="edge">
<title>Node1&#45;&gt;Node2</title>
<path fill="none" stroke="#191970" d="M660.5942,-340.4798C605.4856,-332.2179 523.4022,-319.0163 452.5811,-304 378.051,-288.1972 292.2982,-265.0796 242.7787,-251.2382"/>
<polygon fill="#191970" stroke="#191970" points="243.6492,-247.8474 233.0754,-248.515 241.7576,-254.587 243.6492,-247.8474"/>
</g>
<!-- Node6 -->
<g id="node7" class="node">
<title>Node6</title>
<g id="a_node7"><a xlink:href="PFCorrection_8h.html" target="_top" xlink:title="BayesFilters/PFCorrection.h">
<polygon fill="#ffffff" stroke="#000000" points="462.0615,-285.5 462.0615,-303.5 603.1006,-303.5 603.1006,-285.5 462.0615,-285.5"/>
<text text-anchor="middle" x="532.5811" y="-291.5" font-family="Helvetica,sans-Serif" font-size="10.00" fill="#000000">BayesFilters/PFCorrection.h</text>
</a>
</g>
</g>
<!-- Node1&#45;&gt;Node6 -->
<g id="edge7" class="edge">
<title>Node1&#45;&gt;Node6</title>
<path fill="none" stroke="#191970" d="M692.0413,-340.4179C659.7351,-331.115 609.3562,-316.608 573.8866,-306.3943"/>
<polygon fill="#191970" stroke="#191970" points="574.4283,-302.9081 563.8502,-303.5042 572.4912,-309.6348 574.4283,-302.9081"/>
</g>
<!-- Node12 -->
<g id="node13" class="node">
<title>Node12</title>
<polygon fill="#ffffff" stroke="#bfbfbf" points="546.5244,-.5 546.5244,-18.5 598.6377,-18.5 598.6377,-.5 546.5244,-.5"/>
<text text-anchor="middle" x="572.5811" y="-6.5" font-family="Helvetica,sans-Serif" font-size="10.00" fill="#000000">memory</text>
</g>
<!-- Node1&#45;&gt;Node12 -->
<g id="edge32" class="edge">
<title>Node1&#45;&gt;Node12</title>
<path fill="none" stroke="#191970" d="M724.6934,-340.3896C726.8916,-321.5719 731.5811,-277.0294 731.5811,-239.5 731.5811,-239.5 731.5811,-239.5 731.5811,-119.5 731.5811,-60.0838 655.5622,-30.2428 608.6513,-17.4847"/>
<polygon fill="#191970" stroke="#191970" points="609.3944,-14.0618 598.8367,-14.9472 607.6423,-20.8389 609.3944,-14.0618"/>
</g>
<!-- Node22 -->
<g id="node23" class="node">
<title>Node22</title>
<polygon fill="#ffffff" stroke="#bfbfbf" points="759.6279,-285.5 759.6279,-303.5 809.5342,-303.5 809.5342,-285.5 759.6279,-285.5"/>
<text text-anchor="middle" x="784.5811" y="-291.5" font-family="Helvetica,sans-Serif" font-size="10.00" fill="#000000">random</text>
</g>
<!-- Node1&#45;&gt;Node22 -->
<g id="edge33" class="edge">
<title>Node1&#45;&gt;Node22</title>
<path fill="none" stroke="#191970" d="M733.654,-340.4179C742.6066,-332.3458 755.9048,-320.3556 766.6674,-310.6517"/>
<polygon fill="#191970" stroke="#191970" points="769.2061,-313.0753 774.2893,-303.7795 764.5186,-307.8764 769.2061,-313.0753"/>
</g>
<!-- Node3 -->
<g id="node4" class="node">
<title>Node3</title>
<g id="a_node4"><a xlink:href="GaussianMixture_8h.html" target="_top" xlink:title="BayesFilters/GaussianMixture.h">
<polygon fill="#ffffff" stroke="#000000" points="0,-170.5 0,-188.5 157.1621,-188.5 157.1621,-170.5 0,-170.5"/>
<text text-anchor="middle" x="78.5811" y="-176.5" font-family="Helvetica,sans-Serif" font-size="10.00" fill="#000000">BayesFilters/GaussianMixture.h</text>
</a>
</g>
</g>
<!-- Node2&#45;&gt;Node3 -->
<g id="edge3" class="edge">
<title>Node2&#45;&gt;Node3</title>
<path fill="none" stroke="#191970" d="M182.9,-230.3873C162.4629,-220.418 129.5019,-204.3394 106.1038,-192.9257"/>
<polygon fill="#191970" stroke="#191970" points="107.5571,-189.7405 97.0349,-188.5019 104.4881,-196.0319 107.5571,-189.7405"/>
</g>
<!-- Node4 -->
<g id="node5" class="node">
<title>Node4</title>
<polygon fill="#ffffff" stroke="#bfbfbf" points="155.9653,-55.5 155.9653,-73.5 199.1968,-73.5 199.1968,-55.5 155.9653,-55.5"/>
<text text-anchor="middle" x="177.5811" y="-61.5" font-family="Helvetica,sans-Serif" font-size="10.00" fill="#000000">vector</text>
</g>
<!-- Node2&#45;&gt;Node4 -->
<g id="edge6" class="edge">
<title>Node2&#45;&gt;Node4</title>
<path fill="none" stroke="#191970" d="M200.2907,-230.0912C196.4965,-202.4255 185.3225,-120.9483 180.2003,-83.5988"/>
<polygon fill="#191970" stroke="#191970" points="183.6462,-82.9643 178.8198,-73.5326 176.7111,-83.9155 183.6462,-82.9643"/>
</g>
<!-- Node3&#45;&gt;Node4 -->
<g id="edge4" class="edge">
<title>Node3&#45;&gt;Node4</title>
<path fill="none" stroke="#191970" d="M86.3494,-170.4761C102.8226,-151.3407 141.4935,-106.4199 162.8189,-81.6479"/>
<polygon fill="#191970" stroke="#191970" points="165.7021,-83.6635 169.5738,-73.8014 160.3971,-79.0965 165.7021,-83.6635"/>
</g>
<!-- Node5 -->
<g id="node6" class="node">
<title>Node5</title>
<polygon fill="#ffffff" stroke="#bfbfbf" points="205.9507,-110.5 205.9507,-128.5 279.2114,-128.5 279.2114,-110.5 205.9507,-110.5"/>
<text text-anchor="middle" x="242.5811" y="-116.5" font-family="Helvetica,sans-Serif" font-size="10.00" fill="#000000">Eigen/Dense</text>
</g>
<!-- Node3&#45;&gt;Node5 -->
<g id="edge5" class="edge">
<title>Node3&#45;&gt;Node5</title>
<path fill="none" stroke="#191970" d="M103.4891,-170.3873C131.4652,-160.1521 177.0424,-143.4776 208.3521,-132.0228"/>
<polygon fill="#191970" stroke="#191970" points="209.7873,-135.2247 217.9759,-128.5019 207.3821,-128.6508 209.7873,-135.2247"/>
</g>
<!-- Node6&#45;&gt;Node2 -->
<g id="edge28" class="edge">
<title>Node6&#45;&gt;Node2</title>
<path fill="none" stroke="#191970" d="M478.2938,-285.4795C420.0929,-275.8086 327.7396,-260.4629 265.9263,-250.1918"/>
<polygon fill="#191970" stroke="#191970" points="266.3365,-246.712 255.898,-248.5255 265.189,-253.6174 266.3365,-246.712"/>
</g>
<!-- Node6&#45;&gt;Node5 -->
<g id="edge31" class="edge">
<title>Node6&#45;&gt;Node5</title>
<path fill="none" stroke="#191970" d="M509.797,-285.4477C489.167,-276.9459 458.1789,-263.4069 432.5811,-249 367.7544,-212.5145 296.6301,-160.5281 262.7261,-134.9402"/>
<polygon fill="#191970" stroke="#191970" points="264.6414,-132 254.5596,-128.7428 260.4097,-137.5761 264.6414,-132"/>
</g>
<!-- Node7 -->
<g id="node8" class="node">
<title>Node7</title>
<g id="a_node8"><a xlink:href="LikelihoodModel_8h.html" target="_top" xlink:title="BayesFilters/LikelihoodModel.h">
<polygon fill="#ffffff" stroke="#000000" points="455.3794,-230.5 455.3794,-248.5 609.7827,-248.5 609.7827,-230.5 455.3794,-230.5"/>
<text text-anchor="middle" x="532.5811" y="-236.5" font-family="Helvetica,sans-Serif" font-size="10.00" fill="#000000">BayesFilters/LikelihoodModel.h</text>
</a>
</g>
</g>
<!-- Node6&#45;&gt;Node7 -->
<g id="edge8" class="edge">
<title>Node6&#45;&gt;Node7</title>
<path fill="none" stroke="#191970" d="M532.5811,-285.4179C532.5811,-278.2164 532.5811,-267.8962 532.5811,-258.8632"/>
<polygon fill="#191970" stroke="#191970" points="536.0812,-258.7794 532.5811,-248.7795 529.0812,-258.7795 536.0812,-258.7794"/>
</g>
<!-- Node8 -->
<g id="node9" class="node">
<title>Node8</title>
<g id="a_node9"><a xlink:href="MeasurementModel_8h.html" target="_top" xlink:title="BayesFilters/Measurement\lModel.h">
<polygon fill="#ffffff" stroke="#000000" points="361.1157,-165.5 361.1157,-193.5 496.0464,-193.5 496.0464,-165.5 361.1157,-165.5"/>
<text text-anchor="start" x="369.1157" y="-181.5" font-family="Helvetica,sans-Serif" font-size="10.00" fill="#000000">BayesFilters/Measurement</text>
<text text-anchor="middle" x="428.5811" y="-171.5" font-family="Helvetica,sans-Serif" font-size="10.00" fill="#000000">Model.h</text>
</a>
</g>
</g>
<!-- Node6&#45;&gt;Node8 -->
<g id="edge27" class="edge">
<title>Node6&#45;&gt;Node8</title>
<path fill="none" stroke="#191970" d="M502.1644,-285.4478C483.5204,-278.3923 460.6154,-266.7584 446.5811,-249 436.4812,-236.2201 432.0023,-218.3762 430.0375,-203.9691"/>
<polygon fill="#191970" stroke="#191970" points="433.4916,-203.3459 428.9736,-193.7627 426.5293,-204.0717 433.4916,-203.3459"/>
</g>
<!-- Node6&#45;&gt;Node12 -->
<g id="edge29" class="edge">
<title>Node6&#45;&gt;Node12</title>
<path fill="none" stroke="#191970" d="M566.1575,-285.4057C584.7573,-278.5461 606.5002,-267.1344 618.5811,-249 642.564,-212.9996 654.1274,-93.5895 634.5811,-55 627.736,-41.4861 614.7797,-31.0134 602.4738,-23.5407"/>
<polygon fill="#191970" stroke="#191970" points="604.1581,-20.4725 593.7249,-18.6291 600.7314,-26.5764 604.1581,-20.4725"/>
</g>
<!-- Node6&#45;&gt;Node20 -->
<g id="edge30" class="edge">
<title>Node6&#45;&gt;Node20</title>
<path fill="none" stroke="#191970" d="M586.0222,-285.499C609.1565,-279.0101 634.7384,-267.9132 651.5811,-249 679.2583,-217.9203 684.3512,-166.8157 684.9203,-139.0072"/>
<polygon fill="#191970" stroke="#191970" points="688.4209,-138.6485 684.9399,-128.6419 681.4209,-138.6352 688.4209,-138.6485"/>
</g>
<!-- Node7&#45;&gt;Node8 -->
<g id="edge9" class="edge">
<title>Node7&#45;&gt;Node8</title>
<path fill="none" stroke="#191970" d="M516.7857,-230.3873C502.2335,-221.9918 480.1715,-209.2637 461.753,-198.6377"/>
<polygon fill="#191970" stroke="#191970" points="463.4637,-195.5839 453.0527,-193.6183 459.9656,-201.6472 463.4637,-195.5839"/>
</g>
<!-- Node21 -->
<g id="node22" class="node">
<title>Node21</title>
<polygon fill="#ffffff" stroke="#bfbfbf" points="513.5664,-170.5 513.5664,-188.5 579.5957,-188.5 579.5957,-170.5 513.5664,-170.5"/>
<text text-anchor="middle" x="546.5811" y="-176.5" font-family="Helvetica,sans-Serif" font-size="10.00" fill="#000000">Eigen/Core</text>
</g>
<!-- Node7&#45;&gt;Node21 -->
<g id="edge26" class="edge">
<title>Node7&#45;&gt;Node21</title>
<path fill="none" stroke="#191970" d="M534.7074,-230.3873C536.6603,-222.0174 539.6181,-209.3414 542.0929,-198.735"/>
<polygon fill="#191970" stroke="#191970" points="545.5708,-199.2322 544.4347,-188.6985 538.7539,-197.6416 545.5708,-199.2322"/>
</g>
<!-- Node8&#45;&gt;Node5 -->
<g id="edge25" class="edge">
<title>Node8&#45;&gt;Node5</title>
<path fill="none" stroke="#191970" d="M384.9723,-165.4327C353.2338,-155.1944 310.6834,-141.4685 280.3832,-131.6942"/>
<polygon fill="#191970" stroke="#191970" points="281.202,-128.2808 270.6104,-128.5417 279.053,-134.9428 281.202,-128.2808"/>
</g>
<!-- Node9 -->
<g id="node10" class="node">
<title>Node9</title>
<g id="a_node10"><a xlink:href="Data_8h.html" target="_top" xlink:title="BayesFilters/Data.h">
<polygon fill="#ffffff" stroke="#000000" points="296.9531,-110.5 296.9531,-128.5 400.209,-128.5 400.209,-110.5 296.9531,-110.5"/>
<text text-anchor="middle" x="348.5811" y="-116.5" font-family="Helvetica,sans-Serif" font-size="10.00" fill="#000000">BayesFilters/Data.h</text>
</a>
</g>
</g>
<!-- Node8&#45;&gt;Node9 -->
<g id="edge10" class="edge">
<title>Node8&#45;&gt;Node9</title>
<path fill="none" stroke="#191970" d="M409.6222,-165.2808C397.3085,-156.0456 381.2758,-144.021 368.7317,-134.613"/>
<polygon fill="#191970" stroke="#191970" points="370.7933,-131.7842 360.6933,-128.5842 366.5933,-137.3842 370.7933,-131.7842"/>
</g>
<!-- Node8&#45;&gt;Node12 -->
<g id="edge22" class="edge">
<title>Node8&#45;&gt;Node12</title>
<path fill="none" stroke="#191970" d="M424.8965,-165.4437C419.2307,-140.3941 411.4782,-87.6093 436.5811,-55 448.918,-38.974 500.3695,-24.964 536.3211,-16.8656"/>
<polygon fill="#191970" stroke="#191970" points="537.4428,-20.203 546.4621,-14.6439 535.9447,-13.3651 537.4428,-20.203"/>
</g>
<!-- Node16 -->
<g id="node17" class="node">
<title>Node16</title>
<g id="a_node17"><a xlink:href="Logger_8h.html" target="_top" xlink:title="BayesFilters/Logger.h">
<polygon fill="#ffffff" stroke="#000000" points="456.2192,-110.5 456.2192,-128.5 568.9429,-128.5 568.9429,-110.5 456.2192,-110.5"/>
<text text-anchor="middle" x="512.5811" y="-116.5" font-family="Helvetica,sans-Serif" font-size="10.00" fill="#000000">BayesFilters/Logger.h</text>
</a>
</g>
</g>
<!-- Node8&#45;&gt;Node16 -->
<g id="edge17" class="edge">
<title>Node8&#45;&gt;Node16</title>
<path fill="none" stroke="#191970" d="M448.4879,-165.2808C461.4173,-156.0456 478.2516,-144.021 491.4229,-134.613"/>
<polygon fill="#191970" stroke="#191970" points="493.7602,-137.2447 499.8632,-128.5842 489.6915,-131.5485 493.7602,-137.2447"/>
</g>
<!-- Node19 -->
<g id="node20" class="node">
<title>Node19</title>
<polygon fill="#ffffff" stroke="#bfbfbf" points="585.3545,-55.5 585.3545,-73.5 625.8076,-73.5 625.8076,-55.5 585.3545,-55.5"/>
<text text-anchor="middle" x="605.5811" y="-61.5" font-family="Helvetica,sans-Serif" font-size="10.00" fill="#000000">string</text>
</g>
<!-- Node8&#45;&gt;Node19 -->
<g id="edge23" class="edge">
<title>Node8&#45;&gt;Node19</title>
<path fill="none" stroke="#191970" d="M485.1393,-165.4457C521.1941,-155.5401 563.6645,-141.8097 577.5811,-129 590.6075,-117.0096 597.861,-97.9035 601.7017,-83.5925"/>
<polygon fill="#191970" stroke="#191970" points="605.1268,-84.3168 604.0125,-73.7808 598.3132,-82.712 605.1268,-84.3168"/>
</g>
<!-- Node8&#45;&gt;Node20 -->
<g id="edge24" class="edge">
<title>Node8&#45;&gt;Node20</title>
<path fill="none" stroke="#191970" d="M488.6017,-165.4327C541.0786,-153.1334 615.0306,-135.8009 655.4294,-126.3324"/>
<polygon fill="#191970" stroke="#191970" points="656.2428,-129.7367 665.1803,-124.0471 654.6454,-122.9214 656.2428,-129.7367"/>
</g>
<!-- Node10 -->
<g id="node11" class="node">
<title>Node10</title>
<g id="a_node11"><a xlink:href="any_8h.html" target="_top" xlink:title="BayesFilters/any.h">
<polygon fill="#ffffff" stroke="#000000" points="291.8218,-55.5 291.8218,-73.5 389.3403,-73.5 389.3403,-55.5 291.8218,-55.5"/>
<text text-anchor="middle" x="340.5811" y="-61.5" font-family="Helvetica,sans-Serif" font-size="10.00" fill="#000000">BayesFilters/any.h</text>
</a>
</g>
</g>
<!-- Node9&#45;&gt;Node10 -->
<g id="edge11" class="edge">
<title>Node9&#45;&gt;Node10</title>
<path fill="none" stroke="#191970" d="M347.26,-110.4179C346.2125,-103.2164 344.7114,-92.8962 343.3975,-83.8632"/>
<polygon fill="#191970" stroke="#191970" points="346.8338,-83.1715 341.9308,-73.7795 339.9067,-84.1791 346.8338,-83.1715"/>
</g>
<!-- Node11 -->
<g id="node12" class="node">
<title>Node11</title>
<polygon fill="#ffffff" stroke="#bfbfbf" points="200.0171,-.5 200.0171,-18.5 257.145,-18.5 257.145,-.5 200.0171,-.5"/>
<text text-anchor="middle" x="228.5811" y="-6.5" font-family="Helvetica,sans-Serif" font-size="10.00" fill="#000000">algorithm</text>
</g>
<!-- Node10&#45;&gt;Node11 -->
<g id="edge12" class="edge">
<title>Node10&#45;&gt;Node11</title>
<path fill="none" stroke="#191970" d="M322.0865,-55.4179C304.1719,-46.6205 276.78,-33.1691 256.2666,-23.0956"/>
<polygon fill="#191970" stroke="#191970" points="257.6219,-19.8619 247.1031,-18.5956 254.5364,-26.1452 257.6219,-19.8619"/>
</g>
<!-- Node10&#45;&gt;Node12 -->
<g id="edge13" class="edge">
<title>Node10&#45;&gt;Node12</title>
<path fill="none" stroke="#191970" d="M378.6313,-55.4795C422.4268,-45.0969 493.8128,-28.1735 536.6805,-18.0109"/>
<polygon fill="#191970" stroke="#191970" points="537.4887,-21.4164 546.4117,-15.704 535.874,-14.6052 537.4887,-21.4164"/>
</g>
<!-- Node13 -->
<g id="node14" class="node">
<title>Node13</title>
<polygon fill="#ffffff" stroke="#bfbfbf" points="275.1797,-.5 275.1797,-18.5 333.9824,-18.5 333.9824,-.5 275.1797,-.5"/>
<text text-anchor="middle" x="304.5811" y="-6.5" font-family="Helvetica,sans-Serif" font-size="10.00" fill="#000000">stdexcept</text>
</g>
<!-- Node10&#45;&gt;Node13 -->
<g id="edge14" class="edge">
<title>Node10&#45;&gt;Node13</title>
<path fill="none" stroke="#191970" d="M334.6364,-55.4179C329.6637,-47.8207 322.4192,-36.7527 316.2887,-27.3866"/>
<polygon fill="#191970" stroke="#191970" points="319.06,-25.2297 310.6549,-18.7795 313.2031,-29.0633 319.06,-25.2297"/>
</g>
<!-- Node14 -->
<g id="node15" class="node">
<title>Node14</title>
<polygon fill="#ffffff" stroke="#bfbfbf" points="352.0688,-.5 352.0688,-18.5 403.0933,-18.5 403.0933,-.5 352.0688,-.5"/>
<text text-anchor="middle" x="377.5811" y="-6.5" font-family="Helvetica,sans-Serif" font-size="10.00" fill="#000000">typeinfo</text>
</g>
<!-- Node10&#45;&gt;Node14 -->
<g id="edge15" class="edge">
<title>Node10&#45;&gt;Node14</title>
<path fill="none" stroke="#191970" d="M346.6909,-55.4179C351.8549,-47.7415 359.4028,-36.5217 365.7448,-27.0945"/>
<polygon fill="#191970" stroke="#191970" points="368.6607,-29.0303 371.3385,-18.7795 362.8527,-25.1231 368.6607,-29.0303"/>
</g>
<!-- Node15 -->
<g id="node16" class="node">
<title>Node15</title>
<polygon fill="#ffffff" stroke="#bfbfbf" points="421.5146,-.5 421.5146,-18.5 483.6475,-18.5 483.6475,-.5 421.5146,-.5"/>
<text text-anchor="middle" x="452.5811" y="-6.5" font-family="Helvetica,sans-Serif" font-size="10.00" fill="#000000">type_traits</text>
</g>
<!-- Node10&#45;&gt;Node15 -->
<g id="edge16" class="edge">
<title>Node10&#45;&gt;Node15</title>
<path fill="none" stroke="#191970" d="M359.0756,-55.4179C376.9902,-46.6205 404.3822,-33.1691 424.8955,-23.0956"/>
<polygon fill="#191970" stroke="#191970" points="426.6257,-26.1452 434.0591,-18.5956 423.5402,-19.8619 426.6257,-26.1452"/>
</g>
<!-- Node16&#45;&gt;Node4 -->
<g id="edge21" class="edge">
<title>Node16&#45;&gt;Node4</title>
<path fill="none" stroke="#191970" d="M457.6377,-110.4795C386.8656,-98.8602 266.1973,-79.0489 209.19,-69.6895"/>
<polygon fill="#191970" stroke="#191970" points="209.7477,-66.2343 199.3128,-68.0679 208.6136,-73.1418 209.7477,-66.2343"/>
</g>
<!-- Node17 -->
<g id="node18" class="node">
<title>Node17</title>
<polygon fill="#ffffff" stroke="#bfbfbf" points="445.9111,-55.5 445.9111,-73.5 495.251,-73.5 495.251,-55.5 445.9111,-55.5"/>
<text text-anchor="middle" x="470.5811" y="-61.5" font-family="Helvetica,sans-Serif" font-size="10.00" fill="#000000">fstream</text>
</g>
<!-- Node16&#45;&gt;Node17 -->
<g id="edge18" class="edge">
<title>Node16&#45;&gt;Node17</title>
<path fill="none" stroke="#191970" d="M505.6456,-110.4179C499.7232,-102.6624 491.0389,-91.29 483.7946,-81.8035"/>
<polygon fill="#191970" stroke="#191970" points="486.5181,-79.6029 477.6672,-73.7795 480.9547,-83.8514 486.5181,-79.6029"/>
</g>
<!-- Node18 -->
<g id="node19" class="node">
<title>Node18</title>
<polygon fill="#ffffff" stroke="#bfbfbf" points="513.4087,-55.5 513.4087,-73.5 567.7534,-73.5 567.7534,-55.5 513.4087,-55.5"/>
<text text-anchor="middle" x="540.5811" y="-61.5" font-family="Helvetica,sans-Serif" font-size="10.00" fill="#000000">iostream</text>
</g>
<!-- Node16&#45;&gt;Node18 -->
<g id="edge19" class="edge">
<title>Node16&#45;&gt;Node18</title>
<path fill="none" stroke="#191970" d="M517.2047,-110.4179C520.9918,-102.9789 526.473,-92.2123 531.176,-82.9742"/>
<polygon fill="#191970" stroke="#191970" points="534.4392,-84.279 535.857,-73.7795 528.201,-81.1032 534.4392,-84.279"/>
</g>
<!-- Node16&#45;&gt;Node19 -->
<g id="edge20" class="edge">
<title>Node16&#45;&gt;Node19</title>
<path fill="none" stroke="#191970" d="M527.9381,-110.4179C542.4771,-101.8195 564.5336,-88.7754 581.4274,-78.7844"/>
<polygon fill="#191970" stroke="#191970" points="583.3754,-81.6987 590.2012,-73.5956 579.8121,-75.6735 583.3754,-81.6987"/>
</g>
</g>
</svg>
