<?xml version="1.0" encoding="UTF-8" standalone="no"?>
<!DOCTYPE svg PUBLIC "-//W3C//DTD SVG 1.1//EN"
 "http://www.w3.org/Graphics/SVG/1.1/DTD/svg11.dtd">
<!-- Generated by graphviz version 2.40.1 (20161225.0304)
 -->
<!-- Title: bfl::UKFCorrection::correctStep Pages: 1 -->
<svg width="596pt" height="407pt"
 viewBox="0.00 0.00 596.27 407.40" xmlns="http://www.w3.org/2000/svg" xmlns:xlink="http://www.w3.org/1999/xlink">
<g id="graph0" class="graph" transform="scale(1 1) rotate(0) translate(4 403.4021)">
<title>bfl::UKFCorrection::correctStep</title>
<polygon fill="#ffffff" stroke="transparent" points="-4,4 -4,-403.4021 592.2744,-403.4021 592.2744,4 -4,4"/>
<!-- Node5 -->
<g id="node1" class="node">
<title>Node5</title>
<polygon fill="#bfbfbf" stroke="#000000" points="0,-197.689 0,-225.689 98.2461,-225.689 98.2461,-197.689 0,-197.689"/>
<text text-anchor="start" x="8" y="-213.689" font-family="Helvetica,sans-Serif" font-size="10.00" fill="#000000">bfl::UKFCorrection</text>
<text text-anchor="middle" x="49.123" y="-203.689" font-family="Helvetica,sans-Serif" font-size="10.00" fill="#000000">::correctStep</text>
</g>
<!-- Node6 -->
<g id="node2" class="node">
<title>Node6</title>
<g id="a_node2"><a xlink:href="namespacebfl_1_1any.html#a4ecb51ad57b3fa935cabdc0dcdcb4df1" target="_top" xlink:title="Performs type&#45;safe access to the contained object. ">
<polygon fill="#ffffff" stroke="#000000" points="322.9624,-265.689 322.9624,-283.689 416.7847,-283.689 416.7847,-265.689 322.9624,-265.689"/>
<text text-anchor="middle" x="369.8735" y="-271.689" font-family="Helvetica,sans-Serif" font-size="10.00" fill="#000000">bfl::any::any_cast</text>
</a>
</g>
</g>
<!-- Node5&#45;&gt;Node6 -->
<g id="edge1" class="edge">
<title>Node5&#45;&gt;Node6</title>
<path fill="none" stroke="#191970" d="M60.5513,-225.9635C75.3974,-243.2393 103.1256,-271.414 134.2461,-282.689 197.4789,-305.5984 276.6108,-295.8034 325.1825,-285.8486"/>
<polygon fill="#191970" stroke="#191970" points="326.0203,-289.2486 335.0665,-283.7336 324.5555,-282.4036 326.0203,-289.2486"/>
</g>
<!-- Node7 -->
<g id="node3" class="node">
<title>Node7</title>
<g id="a_node3"><a xlink:href="classbfl_1_1GaussianMixture.html#aec4e807341e18c18faed041c41121cb7" target="_top" xlink:title="bfl::GaussianMixture\l::augmentWithNoise">
<polygon fill="#ffffff" stroke="#000000" points="150.0859,-330.689 150.0859,-358.689 257.2334,-358.689 257.2334,-330.689 150.0859,-330.689"/>
<text text-anchor="start" x="158.0859" y="-346.689" font-family="Helvetica,sans-Serif" font-size="10.00" fill="#000000">bfl::GaussianMixture</text>
<text text-anchor="middle" x="203.6597" y="-336.689" font-family="Helvetica,sans-Serif" font-size="10.00" fill="#000000">::augmentWithNoise</text>
</a>
</g>
</g>
<!-- Node5&#45;&gt;Node7 -->
<g id="edge2" class="edge">
<title>Node5&#45;&gt;Node7</title>
<path fill="none" stroke="#191970" d="M57.588,-226.0131C71.2205,-247.9962 100.0059,-290.1791 134.2461,-315.689 139.594,-319.6734 145.5701,-323.222 151.7111,-326.3503"/>
<polygon fill="#191970" stroke="#191970" points="150.2358,-329.5243 160.7724,-330.6346 153.228,-323.1959 150.2358,-329.5243"/>
</g>
<!-- Node8 -->
<g id="node4" class="node">
<title>Node8</title>
<g id="a_node4"><a xlink:href="classbfl_1_1GaussianMixture.html#a65a60ef46d16ac33196a09963bbccdee" target="_top" xlink:title="bfl::GaussianMixture\l::covariance">
<polygon fill="#ffffff" stroke="#000000" points="473.9004,-305.689 473.9004,-333.689 581.0479,-333.689 581.0479,-305.689 473.9004,-305.689"/>
<text text-anchor="start" x="481.9004" y="-321.689" font-family="Helvetica,sans-Serif" font-size="10.00" fill="#000000">bfl::GaussianMixture</text>
<text text-anchor="middle" x="527.4741" y="-311.689" font-family="Helvetica,sans-Serif" font-size="10.00" fill="#000000">::covariance</text>
</a>
</g>
</g>
<!-- Node5&#45;&gt;Node8 -->
<g id="edge3" class="edge">
<title>Node5&#45;&gt;Node8</title>
<path fill="none" stroke="#191970" d="M51.8069,-225.9009C58.7607,-258.2046 80.6965,-336.8088 134.2461,-368.689 249.6567,-437.3977 417.7409,-372.8082 491.0332,-338.2744"/>
<polygon fill="#191970" stroke="#191970" points="492.8167,-341.3008 500.3187,-333.8194 489.7886,-334.9896 492.8167,-341.3008"/>
</g>
<!-- Node9 -->
<g id="node5" class="node">
<title>Node9</title>
<g id="a_node5"><a xlink:href="classbfl_1_1MeasurementModel.html#af25f42076b69e0c6cab47d36d796536f" target="_top" xlink:title="bfl::MeasurementModel\l::getNoiseCovarianceMatrix">
<polygon fill="#ffffff" stroke="#000000" points="134.2461,-244.689 134.2461,-272.689 273.0732,-272.689 273.0732,-244.689 134.2461,-244.689"/>
<text text-anchor="start" x="142.2461" y="-260.689" font-family="Helvetica,sans-Serif" font-size="10.00" fill="#000000">bfl::MeasurementModel</text>
<text text-anchor="middle" x="203.6597" y="-250.689" font-family="Helvetica,sans-Serif" font-size="10.00" fill="#000000">::getNoiseCovarianceMatrix</text>
</a>
</g>
</g>
<!-- Node5&#45;&gt;Node9 -->
<g id="edge4" class="edge">
<title>Node5&#45;&gt;Node9</title>
<path fill="none" stroke="#191970" d="M95.4891,-225.7906C111.9138,-230.7859 130.5688,-236.4595 147.7062,-241.6716"/>
<polygon fill="#191970" stroke="#191970" points="147.007,-245.1172 157.5928,-244.6785 149.0439,-238.4201 147.007,-245.1172"/>
</g>
<!-- Node10 -->
<g id="node6" class="node">
<title>Node10</title>
<g id="a_node6"><a xlink:href="classbfl_1_1MeasurementModel.html#a6cca2022b576c9dbb61e73b83a10c6ee" target="_top" xlink:title="bfl::MeasurementModel\l::getOutputSize">
<polygon fill="#ffffff" stroke="#000000" points="143.4136,-197.689 143.4136,-225.689 263.9058,-225.689 263.9058,-197.689 143.4136,-197.689"/>
<text text-anchor="start" x="151.4136" y="-213.689" font-family="Helvetica,sans-Serif" font-size="10.00" fill="#000000">bfl::MeasurementModel</text>
<text text-anchor="middle" x="203.6597" y="-203.689" font-family="Helvetica,sans-Serif" font-size="10.00" fill="#000000">::getOutputSize</text>
</a>
</g>
</g>
<!-- Node5&#45;&gt;Node10 -->
<g id="edge5" class="edge">
<title>Node5&#45;&gt;Node10</title>
<path fill="none" stroke="#191970" d="M98.4443,-211.689C109.4437,-211.689 121.3164,-211.689 132.987,-211.689"/>
<polygon fill="#191970" stroke="#191970" points="133.1639,-215.1891 143.1639,-211.689 133.1638,-208.1891 133.1639,-215.1891"/>
</g>
<!-- Node11 -->
<g id="node7" class="node">
<title>Node11</title>
<g id="a_node7"><a xlink:href="classbfl_1_1MeasurementModel.html#aa06e0643805551a981bcc013ad44c829" target="_top" xlink:title="bfl::MeasurementModel\l::innovation">
<polygon fill="#ffffff" stroke="#000000" points="143.4136,-150.689 143.4136,-178.689 263.9058,-178.689 263.9058,-150.689 143.4136,-150.689"/>
<text text-anchor="start" x="151.4136" y="-166.689" font-family="Helvetica,sans-Serif" font-size="10.00" fill="#000000">bfl::MeasurementModel</text>
<text text-anchor="middle" x="203.6597" y="-156.689" font-family="Helvetica,sans-Serif" font-size="10.00" fill="#000000">::innovation</text>
</a>
</g>
</g>
<!-- Node5&#45;&gt;Node11 -->
<g id="edge6" class="edge">
<title>Node5&#45;&gt;Node11</title>
<path fill="none" stroke="#191970" d="M95.4891,-197.5875C111.9138,-192.5922 130.5688,-186.9185 147.7062,-181.7064"/>
<polygon fill="#191970" stroke="#191970" points="149.0439,-184.958 157.5928,-178.6996 147.007,-178.2608 149.0439,-184.958"/>
</g>
<!-- Node12 -->
<g id="node8" class="node">
<title>Node12</title>
<g id="a_node8"><a xlink:href="classbfl_1_1GaussianMixture.html#af4fd865a97ac27c72510cfbf9429bd97" target="_top" xlink:title="bfl::GaussianMixture\l::mean">
<polygon fill="#ffffff" stroke="#000000" points="473.9004,-144.689 473.9004,-172.689 581.0479,-172.689 581.0479,-144.689 473.9004,-144.689"/>
<text text-anchor="start" x="481.9004" y="-160.689" font-family="Helvetica,sans-Serif" font-size="10.00" fill="#000000">bfl::GaussianMixture</text>
<text text-anchor="middle" x="527.4741" y="-150.689" font-family="Helvetica,sans-Serif" font-size="10.00" fill="#000000">::mean</text>
</a>
</g>
</g>
<!-- Node5&#45;&gt;Node12 -->
<g id="edge7" class="edge">
<title>Node5&#45;&gt;Node12</title>
<path fill="none" stroke="#191970" d="M51.4658,-197.2839C57.7897,-163.7145 78.6441,-80.5693 134.2461,-46.689 246.751,21.8643 310.8685,8.116 430.6738,-46.689 470.6048,-64.9555 500.3532,-108.7277 515.7244,-135.824"/>
<polygon fill="#191970" stroke="#191970" points="512.6814,-137.5543 520.5549,-144.6436 518.8209,-134.1917 512.6814,-137.5543"/>
</g>
<!-- Node13 -->
<g id="node9" class="node">
<title>Node13</title>
<g id="a_node9"><a xlink:href="classbfl_1_1MeasurementModel.html#ad372b720cef4e6bc0ac2489f4098bfc9" target="_top" xlink:title="bfl::MeasurementModel\l::measure">
<polygon fill="#ffffff" stroke="#000000" points="143.4136,-56.689 143.4136,-84.689 263.9058,-84.689 263.9058,-56.689 143.4136,-56.689"/>
<text text-anchor="start" x="151.4136" y="-72.689" font-family="Helvetica,sans-Serif" font-size="10.00" fill="#000000">bfl::MeasurementModel</text>
<text text-anchor="middle" x="203.6597" y="-62.689" font-family="Helvetica,sans-Serif" font-size="10.00" fill="#000000">::measure</text>
</a>
</g>
</g>
<!-- Node5&#45;&gt;Node13 -->
<g id="edge8" class="edge">
<title>Node5&#45;&gt;Node13</title>
<path fill="none" stroke="#191970" d="M55.6527,-197.4748C67.6995,-172.7874 95.7515,-121.9281 134.2461,-93.689 136.3062,-92.1778 138.4713,-90.762 140.7123,-89.4361"/>
<polygon fill="#191970" stroke="#191970" points="142.4282,-92.4885 149.6699,-84.7549 139.1861,-86.2846 142.4282,-92.4885"/>
</g>
<!-- Node14 -->
<g id="node10" class="node">
<title>Node14</title>
<g id="a_node10"><a xlink:href="namespacebfl_1_1sigma__point.html#afe170453152d4f96db4dad71bd9be9a3" target="_top" xlink:title="bfl::sigma_point::unscented\l_transform">
<polygon fill="#ffffff" stroke="#000000" points="134.7881,-103.689 134.7881,-131.689 272.5313,-131.689 272.5313,-103.689 134.7881,-103.689"/>
<text text-anchor="start" x="142.7881" y="-119.689" font-family="Helvetica,sans-Serif" font-size="10.00" fill="#000000">bfl::sigma_point::unscented</text>
<text text-anchor="middle" x="203.6597" y="-109.689" font-family="Helvetica,sans-Serif" font-size="10.00" fill="#000000">_transform</text>
</a>
</g>
</g>
<!-- Node5&#45;&gt;Node14 -->
<g id="edge9" class="edge">
<title>Node5&#45;&gt;Node14</title>
<path fill="none" stroke="#191970" d="M62.6507,-197.5756C78.4932,-181.7646 106.16,-156.3098 134.2461,-140.689 137.3353,-138.9709 140.5736,-137.3544 143.8922,-135.8378"/>
<polygon fill="#191970" stroke="#191970" points="145.5464,-138.9387 153.3994,-131.8267 142.8253,-132.4892 145.5464,-138.9387"/>
</g>
<!-- Node14&#45;&gt;Node6 -->
<g id="edge14" class="edge">
<title>Node14&#45;&gt;Node6</title>
<path fill="none" stroke="#191970" d="M260.5923,-131.7775C265.1156,-134.2787 269.3619,-137.2231 273.0732,-140.689 303.9573,-169.5309 283.308,-195.1952 309.0732,-228.689 318.7199,-241.2294 332.6135,-252.0877 344.6848,-260.1007"/>
<polygon fill="#191970" stroke="#191970" points="343.1385,-263.2641 353.4602,-265.6545 346.882,-257.3492 343.1385,-263.2641"/>
</g>
<!-- Node14&#45;&gt;Node12 -->
<g id="edge17" class="edge">
<title>Node14&#45;&gt;Node12</title>
<path fill="none" stroke="#191970" d="M261.3992,-131.7319C276.8134,-135.0839 293.512,-138.3606 309.0732,-140.689 360.8016,-148.4291 419.9571,-153.047 463.6443,-155.664"/>
<polygon fill="#191970" stroke="#191970" points="463.6554,-159.1704 473.8413,-156.2554 464.0608,-152.1822 463.6554,-159.1704"/>
</g>
<!-- Node15 -->
<g id="node11" class="node">
<title>Node15</title>
<g id="a_node11"><a xlink:href="namespacebfl_1_1sigma__point.html#ab919aca5fccc30ee2acd5cd966cd9dc9" target="_top" xlink:title="bfl::sigma_point::sigma\l_point">
<polygon fill="#ffffff" stroke="#000000" points="310.7383,-190.689 310.7383,-218.689 429.0088,-218.689 429.0088,-190.689 310.7383,-190.689"/>
<text text-anchor="start" x="318.7383" y="-206.689" font-family="Helvetica,sans-Serif" font-size="10.00" fill="#000000">bfl::sigma_point::sigma</text>
<text text-anchor="middle" x="369.8735" y="-196.689" font-family="Helvetica,sans-Serif" font-size="10.00" fill="#000000">_point</text>
</a>
</g>
</g>
<!-- Node14&#45;&gt;Node15 -->
<g id="edge10" class="edge">
<title>Node14&#45;&gt;Node15</title>
<path fill="none" stroke="#191970" d="M254.8478,-131.7791C261.1765,-134.3452 267.4056,-137.304 273.0732,-140.689 291.9677,-151.9738 291.0044,-162.1247 309.0732,-174.689 314.852,-178.7073 321.2484,-182.4852 327.6586,-185.9157"/>
<polygon fill="#191970" stroke="#191970" points="326.4921,-189.25 336.9899,-190.681 329.6758,-183.0158 326.4921,-189.25"/>
</g>
<!-- Node17 -->
<g id="node13" class="node">
<title>Node17</title>
<g id="a_node13"><a xlink:href="namespacebfl_1_1directional__statistics.html#ad8758aac208bc2baa75aad514a3f53e6" target="_top" xlink:title="bfl::directional_statistics\l::directional_mean">
<polygon fill="#ffffff" stroke="#000000" points="309.0732,-103.689 309.0732,-131.689 430.6738,-131.689 430.6738,-103.689 309.0732,-103.689"/>
<text text-anchor="start" x="317.0732" y="-119.689" font-family="Helvetica,sans-Serif" font-size="10.00" fill="#000000">bfl::directional_statistics</text>
<text text-anchor="middle" x="369.8735" y="-109.689" font-family="Helvetica,sans-Serif" font-size="10.00" fill="#000000">::directional_mean</text>
</a>
</g>
</g>
<!-- Node14&#45;&gt;Node17 -->
<g id="edge15" class="edge">
<title>Node14&#45;&gt;Node17</title>
<path fill="none" stroke="#191970" d="M272.7053,-117.689C281.3599,-117.689 290.224,-117.689 298.9073,-117.689"/>
<polygon fill="#191970" stroke="#191970" points="298.9945,-121.1891 308.9945,-117.689 298.9944,-114.1891 298.9945,-121.1891"/>
</g>
<!-- Node18 -->
<g id="node14" class="node">
<title>Node18</title>
<g id="a_node14"><a xlink:href="namespacebfl_1_1directional__statistics.html#a18bffca88c7ea5f4ea11d2ad910736fe" target="_top" xlink:title="bfl::directional_statistics\l::directional_sub">
<polygon fill="#ffffff" stroke="#000000" points="309.0732,-56.689 309.0732,-84.689 430.6738,-84.689 430.6738,-56.689 309.0732,-56.689"/>
<text text-anchor="start" x="317.0732" y="-72.689" font-family="Helvetica,sans-Serif" font-size="10.00" fill="#000000">bfl::directional_statistics</text>
<text text-anchor="middle" x="369.8735" y="-62.689" font-family="Helvetica,sans-Serif" font-size="10.00" fill="#000000">::directional_sub</text>
</a>
</g>
</g>
<!-- Node14&#45;&gt;Node18 -->
<g id="edge16" class="edge">
<title>Node14&#45;&gt;Node18</title>
<path fill="none" stroke="#191970" d="M253.5293,-103.5875C271.4427,-98.5221 291.8227,-92.7593 310.4663,-87.4875"/>
<polygon fill="#191970" stroke="#191970" points="311.6554,-90.7886 320.3257,-84.6996 309.7506,-84.0527 311.6554,-90.7886"/>
</g>
<!-- Node15&#45;&gt;Node8 -->
<g id="edge11" class="edge">
<title>Node15&#45;&gt;Node8</title>
<path fill="none" stroke="#191970" d="M389.1985,-218.7903C416.8468,-238.9651 467.8496,-276.1814 499.5861,-299.3393"/>
<polygon fill="#191970" stroke="#191970" points="497.85,-302.4052 507.9911,-305.4724 501.9761,-296.7506 497.85,-302.4052"/>
</g>
<!-- Node15&#45;&gt;Node12 -->
<g id="edge12" class="edge">
<title>Node15&#45;&gt;Node12</title>
<path fill="none" stroke="#191970" d="M418.0153,-190.6376C434.2845,-185.8889 452.6195,-180.5374 469.5652,-175.5913"/>
<polygon fill="#191970" stroke="#191970" points="470.7371,-178.8954 479.3559,-172.7336 468.7757,-172.1758 470.7371,-178.8954"/>
</g>
<!-- Node16 -->
<g id="node12" class="node">
<title>Node16</title>
<g id="a_node12"><a xlink:href="namespacebfl_1_1directional__statistics.html#af9984a4df2b3f6f0bc0c264783181123" target="_top" xlink:title="bfl::directional_statistics\l::directional_add">
<polygon fill="#ffffff" stroke="#000000" points="466.6738,-191.689 466.6738,-219.689 588.2744,-219.689 588.2744,-191.689 466.6738,-191.689"/>
<text text-anchor="start" x="474.6738" y="-207.689" font-family="Helvetica,sans-Serif" font-size="10.00" fill="#000000">bfl::directional_statistics</text>
<text text-anchor="middle" x="527.4741" y="-197.689" font-family="Helvetica,sans-Serif" font-size="10.00" fill="#000000">::directional_add</text>
</a>
</g>
</g>
<!-- Node15&#45;&gt;Node16 -->
<g id="edge13" class="edge">
<title>Node15&#45;&gt;Node16</title>
<path fill="none" stroke="#191970" d="M429.4556,-205.0671C438.2588,-205.1229 447.4028,-205.181 456.4107,-205.2381"/>
<polygon fill="#191970" stroke="#191970" points="456.4755,-208.7385 466.4976,-205.3021 456.52,-201.7386 456.4755,-208.7385"/>
</g>
</g>
</svg>
