<?xml version="1.0" encoding="UTF-8" standalone="no"?>
<!DOCTYPE svg PUBLIC "-//W3C//DTD SVG 1.1//EN"
 "http://www.w3.org/Graphics/SVG/1.1/DTD/svg11.dtd">
<!-- Generated by graphviz version 2.40.1 (20161225.0304)
 -->
<!-- Title: bfl::GaussianCorrection Pages: 1 -->
<svg width="339pt" height="82pt"
 viewBox="0.00 0.00 338.64 82.00" xmlns="http://www.w3.org/2000/svg" xmlns:xlink="http://www.w3.org/1999/xlink">
<g id="graph0" class="graph" transform="scale(1 1) rotate(0) translate(4 78)">
<title>bfl::GaussianCorrection</title>
<polygon fill="#ffffff" stroke="transparent" points="-4,4 -4,-78 334.6353,-78 334.6353,4 -4,4"/>
<!-- Node0 -->
<g id="node1" class="node">
<title>Node0</title>
<polygon fill="#bfbfbf" stroke="#000000" points="101.2661,-55.5 101.2661,-73.5 221.7583,-73.5 221.7583,-55.5 101.2661,-55.5"/>
<text text-anchor="middle" x="161.5122" y="-61.5" font-family="Helvetica,sans-Serif" font-size="10.00" fill="#000000">bfl::GaussianCorrection</text>
</g>
<!-- Node1 -->
<g id="node2" class="node">
<title>Node1</title>
<g id="a_node2"><a xlink:href="classbfl_1_1KFCorrection.html" target="_top" xlink:title="bfl::KFCorrection">
<polygon fill="#ffffff" stroke="#000000" points="0,-.5 0,-18.5 91.0244,-18.5 91.0244,-.5 0,-.5"/>
<text text-anchor="middle" x="45.5122" y="-6.5" font-family="Helvetica,sans-Serif" font-size="10.00" fill="#000000">bfl::KFCorrection</text>
</a>
</g>
</g>
<!-- Node0&#45;&gt;Node1 -->
<g id="edge1" class="edge">
<title>Node0&#45;&gt;Node1</title>
<path fill="none" stroke="#191970" d="M133.1583,-51.0563C111.8887,-40.9716 83.3442,-27.4376 64.6957,-18.5956"/>
<polygon fill="#191970" stroke="#191970" points="131.8219,-54.2961 142.3572,-55.4179 134.8209,-47.9711 131.8219,-54.2961"/>
</g>
<!-- Node2 -->
<g id="node3" class="node">
<title>Node2</title>
<g id="a_node3"><a xlink:href="classbfl_1_1SUKFCorrection.html" target="_top" xlink:title="This class implements the algorithm: Barfoot, T., McManus, C. ">
<polygon fill="#ffffff" stroke="#000000" points="109.0542,-.5 109.0542,-18.5 213.9702,-18.5 213.9702,-.5 109.0542,-.5"/>
<text text-anchor="middle" x="161.5122" y="-6.5" font-family="Helvetica,sans-Serif" font-size="10.00" fill="#000000">bfl::SUKFCorrection</text>
</a>
</g>
</g>
<!-- Node0&#45;&gt;Node2 -->
<g id="edge2" class="edge">
<title>Node0&#45;&gt;Node2</title>
<path fill="none" stroke="#191970" d="M161.5122,-45.383C161.5122,-36.3738 161.5122,-26.0373 161.5122,-18.7795"/>
<polygon fill="#191970" stroke="#191970" points="158.0123,-45.4178 161.5122,-55.4179 165.0123,-45.4179 158.0123,-45.4178"/>
</g>
<!-- Node3 -->
<g id="node4" class="node">
<title>Node3</title>
<g id="a_node4"><a xlink:href="classbfl_1_1UKFCorrection.html" target="_top" xlink:title="bfl::UKFCorrection">
<polygon fill="#ffffff" stroke="#000000" points="232.3892,-.5 232.3892,-18.5 330.6353,-18.5 330.6353,-.5 232.3892,-.5"/>
<text text-anchor="middle" x="281.5122" y="-6.5" font-family="Helvetica,sans-Serif" font-size="10.00" fill="#000000">bfl::UKFCorrection</text>
</a>
</g>
</g>
<!-- Node0&#45;&gt;Node3 -->
<g id="edge3" class="edge">
<title>Node0&#45;&gt;Node3</title>
<path fill="none" stroke="#191970" d="M190.547,-51.1924C212.5806,-41.0937 242.2888,-27.4774 261.6672,-18.5956"/>
<polygon fill="#191970" stroke="#191970" points="188.9601,-48.0695 181.3278,-55.4179 191.8767,-54.433 188.9601,-48.0695"/>
</g>
</g>
</svg>
