<?xml version="1.0" encoding="UTF-8" standalone="no"?>
<!DOCTYPE svg PUBLIC "-//W3C//DTD SVG 1.1//EN"
 "http://www.w3.org/Graphics/SVG/1.1/DTD/svg11.dtd">
<!-- Generated by graphviz version 2.40.1 (20161225.0304)
 -->
<!-- Title: bfl::LTIMeasurementModel Pages: 1 -->
<svg width="156pt" height="257pt"
 viewBox="0.00 0.00 156.29 257.00" xmlns="http://www.w3.org/2000/svg" xmlns:xlink="http://www.w3.org/1999/xlink">
<g id="graph0" class="graph" transform="scale(1 1) rotate(0) translate(4 253)">
<title>bfl::LTIMeasurementModel</title>
<polygon fill="#ffffff" stroke="transparent" points="-4,4 -4,-253 152.29,-253 152.29,4 -4,4"/>
<!-- Node0 -->
<g id="node1" class="node">
<title>Node0</title>
<polygon fill="#bfbfbf" stroke="#000000" points="7.0435,-.5 7.0435,-18.5 141.2466,-18.5 141.2466,-.5 7.0435,-.5"/>
<text text-anchor="middle" x="74.145" y="-6.5" font-family="Helvetica,sans-Serif" font-size="10.00" fill="#000000">bfl::LTIMeasurementModel</text>
</g>
<!-- Node1 -->
<g id="node2" class="node">
<title>Node1</title>
<g id="a_node2"><a xlink:href="classbfl_1_1LinearMeasurementModel.html" target="_top" xlink:title="bfl::LinearMeasurementModel">
<polygon fill="#ffffff" stroke="#000000" points="0,-55.5 0,-73.5 148.29,-73.5 148.29,-55.5 0,-55.5"/>
<text text-anchor="middle" x="74.145" y="-61.5" font-family="Helvetica,sans-Serif" font-size="10.00" fill="#000000">bfl::LinearMeasurementModel</text>
</a>
</g>
</g>
<!-- Node1&#45;&gt;Node0 -->
<g id="edge1" class="edge">
<title>Node1&#45;&gt;Node0</title>
<path fill="none" stroke="#191970" d="M74.145,-45.383C74.145,-36.3738 74.145,-26.0373 74.145,-18.7795"/>
<polygon fill="#191970" stroke="#191970" points="70.6451,-45.4178 74.145,-55.4179 77.6451,-45.4179 70.6451,-45.4178"/>
</g>
<!-- Node2 -->
<g id="node3" class="node">
<title>Node2</title>
<g id="a_node3"><a xlink:href="classbfl_1_1AdditiveMeasurementModel.html" target="_top" xlink:title="bfl::AdditiveMeasurement\lModel">
<polygon fill="#ffffff" stroke="#000000" points="9.729,-110.5 9.729,-138.5 138.561,-138.5 138.561,-110.5 9.729,-110.5"/>
<text text-anchor="start" x="17.729" y="-126.5" font-family="Helvetica,sans-Serif" font-size="10.00" fill="#000000">bfl::AdditiveMeasurement</text>
<text text-anchor="middle" x="74.145" y="-116.5" font-family="Helvetica,sans-Serif" font-size="10.00" fill="#000000">Model</text>
</a>
</g>
</g>
<!-- Node2&#45;&gt;Node1 -->
<g id="edge2" class="edge">
<title>Node2&#45;&gt;Node1</title>
<path fill="none" stroke="#191970" d="M74.145,-100.2151C74.145,-90.8253 74.145,-80.6598 74.145,-73.5842"/>
<polygon fill="#191970" stroke="#191970" points="70.6451,-100.2808 74.145,-110.2808 77.6451,-100.2809 70.6451,-100.2808"/>
</g>
<!-- Node3 -->
<g id="node4" class="node">
<title>Node3</title>
<g id="a_node4"><a xlink:href="classbfl_1_1MeasurementModel.html" target="_top" xlink:title="bfl::MeasurementModel">
<polygon fill="#ffffff" stroke="#000000" points="13.8989,-175.5 13.8989,-193.5 134.3911,-193.5 134.3911,-175.5 13.8989,-175.5"/>
<text text-anchor="middle" x="74.145" y="-181.5" font-family="Helvetica,sans-Serif" font-size="10.00" fill="#000000">bfl::MeasurementModel</text>
</a>
</g>
</g>
<!-- Node3&#45;&gt;Node2 -->
<g id="edge3" class="edge">
<title>Node3&#45;&gt;Node2</title>
<path fill="none" stroke="#191970" d="M74.145,-165.1865C74.145,-156.6283 74.145,-146.7354 74.145,-138.8477"/>
<polygon fill="#191970" stroke="#191970" points="70.6451,-165.3873 74.145,-175.3873 77.6451,-165.3873 70.6451,-165.3873"/>
</g>
<!-- Node4 -->
<g id="node5" class="node">
<title>Node4</title>
<g id="a_node5"><a xlink:href="classbfl_1_1Logger.html" target="_top" xlink:title="bfl::Logger">
<polygon fill="#ffffff" stroke="#000000" points="42.5171,-230.5 42.5171,-248.5 105.7729,-248.5 105.7729,-230.5 42.5171,-230.5"/>
<text text-anchor="middle" x="74.145" y="-236.5" font-family="Helvetica,sans-Serif" font-size="10.00" fill="#000000">bfl::Logger</text>
</a>
</g>
</g>
<!-- Node4&#45;&gt;Node3 -->
<g id="edge4" class="edge">
<title>Node4&#45;&gt;Node3</title>
<path fill="none" stroke="#191970" d="M74.145,-220.383C74.145,-211.3738 74.145,-201.0373 74.145,-193.7795"/>
<polygon fill="#191970" stroke="#191970" points="70.6451,-220.4178 74.145,-230.4179 77.6451,-220.4179 70.6451,-220.4178"/>
</g>
</g>
</svg>
