<?xml version="1.0" encoding="UTF-8" standalone="no"?>
<!DOCTYPE svg PUBLIC "-//W3C//DTD SVG 1.1//EN"
 "http://www.w3.org/Graphics/SVG/1.1/DTD/svg11.dtd">
<!-- Generated by graphviz version 2.40.1 (20161225.0304)
 -->
<!-- Title: bfl::any::any::swap Pages: 1 -->
<svg width="220pt" height="27pt"
 viewBox="0.00 0.00 219.96 27.00" xmlns="http://www.w3.org/2000/svg" xmlns:xlink="http://www.w3.org/1999/xlink">
<g id="graph0" class="graph" transform="scale(1 1) rotate(0) translate(4 23)">
<title>bfl::any::any::swap</title>
<polygon fill="#ffffff" stroke="transparent" points="-4,4 -4,-23 215.9648,-23 215.9648,4 -4,4"/>
<!-- Node17 -->
<g id="node1" class="node">
<title>Node17</title>
<polygon fill="#bfbfbf" stroke="#000000" points="0,-.5 0,-18.5 98.8223,-18.5 98.8223,-.5 0,-.5"/>
<text text-anchor="middle" x="49.4111" y="-6.5" font-family="Helvetica,sans-Serif" font-size="10.00" fill="#000000">bfl::any::any::swap</text>
</g>
<!-- Node18 -->
<g id="node2" class="node">
<title>Node18</title>
<g id="a_node2"><a xlink:href="namespacebfl_1_1any.html#adb1328ea975e3bf9c0addc1689215bad" target="_top" xlink:title="Overloads the std::swap algorithm for std::any. ">
<polygon fill="#ffffff" stroke="#000000" points="134.8223,-.5 134.8223,-18.5 211.9648,-18.5 211.9648,-.5 134.8223,-.5"/>
<text text-anchor="middle" x="173.3936" y="-6.5" font-family="Helvetica,sans-Serif" font-size="10.00" fill="#000000">bfl::any::swap</text>
</a>
</g>
</g>
<!-- Node17&#45;&gt;Node18 -->
<g id="edge1" class="edge">
<title>Node17&#45;&gt;Node18</title>
<path fill="none" stroke="#191970" d="M99.1251,-2.8691C107.5547,-2.7036 116.2997,-2.7106 124.7026,-2.89"/>
<polygon fill="#191970" stroke="#191970" points="124.6368,-6.3895 134.7384,-3.1944 124.8491,.6072 124.6368,-6.3895"/>
</g>
<!-- Node18&#45;&gt;Node17 -->
<g id="edge2" class="edge">
<title>Node18&#45;&gt;Node17</title>
<path fill="none" stroke="#191970" d="M134.7384,-15.8056C126.6343,-16.1288 117.9073,-16.2757 109.2368,-16.2463"/>
<polygon fill="#191970" stroke="#191970" points="109.1645,-12.7454 99.1251,-16.1309 109.0845,-19.7449 109.1645,-12.7454"/>
</g>
</g>
</svg>
