<?xml version="1.0" encoding="UTF-8" standalone="no"?>
<!DOCTYPE svg PUBLIC "-//W3C//DTD SVG 1.1//EN"
 "http://www.w3.org/Graphics/SVG/1.1/DTD/svg11.dtd">
<!-- Generated by graphviz version 2.40.1 (20161225.0304)
 -->
<!-- Title: bfl::FilteringAlgorithm Pages: 1 -->
<svg width="364pt" height="192pt"
 viewBox="0.00 0.00 364.32 192.00" xmlns="http://www.w3.org/2000/svg" xmlns:xlink="http://www.w3.org/1999/xlink">
<g id="graph0" class="graph" transform="scale(1 1) rotate(0) translate(4 188)">
<title>bfl::FilteringAlgorithm</title>
<polygon fill="#ffffff" stroke="transparent" points="-4,4 -4,-188 360.3198,-188 360.3198,4 -4,4"/>
<!-- Node0 -->
<g id="node1" class="node">
<title>Node0</title>
<polygon fill="#bfbfbf" stroke="#000000" points="103.3325,-110.5 103.3325,-128.5 213.2534,-128.5 213.2534,-110.5 103.3325,-110.5"/>
<text text-anchor="middle" x="158.293" y="-116.5" font-family="Helvetica,sans-Serif" font-size="10.00" fill="#000000">bfl::FilteringAlgorithm</text>
</g>
<!-- Node2 -->
<g id="node3" class="node">
<title>Node2</title>
<g id="a_node3"><a xlink:href="classbfl_1_1GaussianFilter.html" target="_top" xlink:title="bfl::GaussianFilter">
<polygon fill="#ffffff" stroke="#000000" points="0,-55.5 0,-73.5 96.5859,-73.5 96.5859,-55.5 0,-55.5"/>
<text text-anchor="middle" x="48.293" y="-61.5" font-family="Helvetica,sans-Serif" font-size="10.00" fill="#000000">bfl::GaussianFilter</text>
</a>
</g>
</g>
<!-- Node0&#45;&gt;Node2 -->
<g id="edge2" class="edge">
<title>Node0&#45;&gt;Node2</title>
<path fill="none" stroke="#191970" d="M131.1326,-105.9198C110.9926,-95.8498 84.0885,-82.3977 66.4842,-73.5956"/>
<polygon fill="#191970" stroke="#191970" points="129.6192,-109.0762 140.1287,-110.4179 132.7497,-102.8152 129.6192,-109.0762"/>
</g>
<!-- Node3 -->
<g id="node4" class="node">
<title>Node3</title>
<g id="a_node4"><a xlink:href="classbfl_1_1ParticleFilter.html" target="_top" xlink:title="bfl::ParticleFilter">
<polygon fill="#ffffff" stroke="#000000" points="114.4507,-55.5 114.4507,-73.5 202.1353,-73.5 202.1353,-55.5 114.4507,-55.5"/>
<text text-anchor="middle" x="158.293" y="-61.5" font-family="Helvetica,sans-Serif" font-size="10.00" fill="#000000">bfl::ParticleFilter</text>
</a>
</g>
</g>
<!-- Node0&#45;&gt;Node3 -->
<g id="edge3" class="edge">
<title>Node0&#45;&gt;Node3</title>
<path fill="none" stroke="#191970" d="M158.293,-100.383C158.293,-91.3738 158.293,-81.0373 158.293,-73.7795"/>
<polygon fill="#191970" stroke="#191970" points="154.7931,-100.4178 158.293,-110.4179 161.7931,-100.4179 154.7931,-100.4178"/>
</g>
<!-- Node5 -->
<g id="node6" class="node">
<title>Node5</title>
<g id="a_node6"><a xlink:href="classbfl_1_1UnscentedKalmanFilter.html" target="_top" xlink:title="bfl::UnscentedKalmanFilter">
<polygon fill="#ffffff" stroke="#000000" points="220.2661,-55.5 220.2661,-73.5 356.3198,-73.5 356.3198,-55.5 220.2661,-55.5"/>
<text text-anchor="middle" x="288.293" y="-61.5" font-family="Helvetica,sans-Serif" font-size="10.00" fill="#000000">bfl::UnscentedKalmanFilter</text>
</a>
</g>
</g>
<!-- Node0&#45;&gt;Node5 -->
<g id="edge5" class="edge">
<title>Node0&#45;&gt;Node5</title>
<path fill="none" stroke="#191970" d="M189.1071,-106.4633C213.0389,-96.3383 245.6126,-82.5571 266.7942,-73.5956"/>
<polygon fill="#191970" stroke="#191970" points="187.6057,-103.298 179.7598,-110.4179 190.3333,-109.7448 187.6057,-103.298"/>
</g>
<!-- Node1 -->
<g id="node2" class="node">
<title>Node1</title>
<g id="a_node2"><a xlink:href="classbfl_1_1Logger.html" target="_top" xlink:title="bfl::Logger">
<polygon fill="#ffffff" stroke="#000000" points="126.665,-165.5 126.665,-183.5 189.9209,-183.5 189.9209,-165.5 126.665,-165.5"/>
<text text-anchor="middle" x="158.293" y="-171.5" font-family="Helvetica,sans-Serif" font-size="10.00" fill="#000000">bfl::Logger</text>
</a>
</g>
</g>
<!-- Node1&#45;&gt;Node0 -->
<g id="edge1" class="edge">
<title>Node1&#45;&gt;Node0</title>
<path fill="none" stroke="#191970" d="M158.293,-155.383C158.293,-146.3738 158.293,-136.0373 158.293,-128.7795"/>
<polygon fill="#191970" stroke="#191970" points="154.7931,-155.4178 158.293,-165.4179 161.7931,-155.4179 154.7931,-155.4178"/>
</g>
<!-- Node4 -->
<g id="node5" class="node">
<title>Node4</title>
<g id="a_node5"><a xlink:href="classbfl_1_1SIS.html" target="_top" xlink:title="bfl::SIS">
<polygon fill="#ffffff" stroke="#000000" points="134.1748,-.5 134.1748,-18.5 182.4111,-18.5 182.4111,-.5 134.1748,-.5"/>
<text text-anchor="middle" x="158.293" y="-6.5" font-family="Helvetica,sans-Serif" font-size="10.00" fill="#000000">bfl::SIS</text>
</a>
</g>
</g>
<!-- Node3&#45;&gt;Node4 -->
<g id="edge4" class="edge">
<title>Node3&#45;&gt;Node4</title>
<path fill="none" stroke="#191970" d="M158.293,-45.383C158.293,-36.3738 158.293,-26.0373 158.293,-18.7795"/>
<polygon fill="#191970" stroke="#191970" points="154.7931,-45.4178 158.293,-55.4179 161.7931,-45.4179 154.7931,-45.4178"/>
</g>
</g>
</svg>
