<?xml version="1.0" encoding="UTF-8" standalone="no"?>
<!DOCTYPE svg PUBLIC "-//W3C//DTD SVG 1.1//EN"
 "http://www.w3.org/Graphics/SVG/1.1/DTD/svg11.dtd">
<!-- Generated by graphviz version 2.40.1 (20161225.0304)
 -->
<!-- Title: bfl::any::any::operator= Pages: 1 -->
<svg width="375pt" height="64pt"
 viewBox="0.00 0.00 374.53 64.00" xmlns="http://www.w3.org/2000/svg" xmlns:xlink="http://www.w3.org/1999/xlink">
<g id="graph0" class="graph" transform="scale(1 1) rotate(0) translate(4 60)">
<title>bfl::any::any::operator=</title>
<polygon fill="#ffffff" stroke="transparent" points="-4,4 -4,-60 370.5283,-60 370.5283,4 -4,4"/>
<!-- Node9 -->
<g id="node1" class="node">
<title>Node9</title>
<polygon fill="#bfbfbf" stroke="#000000" points="0,-18.5 0,-36.5 118.5635,-36.5 118.5635,-18.5 0,-18.5"/>
<text text-anchor="middle" x="59.2817" y="-24.5" font-family="Helvetica,sans-Serif" font-size="10.00" fill="#000000">bfl::any::any::operator=</text>
</g>
<!-- Node10 -->
<g id="node2" class="node">
<title>Node10</title>
<g id="a_node2"><a xlink:href="classbfl_1_1any_1_1any.html#a55b5d940fdb6f1e7215332b7d97c6365" target="_top" xlink:title="Constructs an empty object. ">
<polygon fill="#ffffff" stroke="#000000" points="158.1743,-37.5 158.1743,-55.5 249.7749,-55.5 249.7749,-37.5 158.1743,-37.5"/>
<text text-anchor="middle" x="203.9746" y="-43.5" font-family="Helvetica,sans-Serif" font-size="10.00" fill="#000000">bfl::any::any::any</text>
</a>
</g>
</g>
<!-- Node9&#45;&gt;Node10 -->
<g id="edge1" class="edge">
<title>Node9&#45;&gt;Node10</title>
<path fill="none" stroke="#191970" d="M118.9692,-35.3377C128.5735,-36.5989 138.485,-37.9004 147.998,-39.1496"/>
<polygon fill="#191970" stroke="#191970" points="147.7602,-42.6483 158.1308,-40.4801 148.6716,-35.7079 147.7602,-42.6483"/>
</g>
<!-- Node11 -->
<g id="node3" class="node">
<title>Node11</title>
<g id="a_node3"><a xlink:href="classbfl_1_1any_1_1any.html#a0441e5816aa5ef4721f134868b7ca402" target="_top" xlink:title="Swaps the content of two any objects. ">
<polygon fill="#ffffff" stroke="#000000" points="154.5635,-.5 154.5635,-18.5 253.3857,-18.5 253.3857,-.5 154.5635,-.5"/>
<text text-anchor="middle" x="203.9746" y="-6.5" font-family="Helvetica,sans-Serif" font-size="10.00" fill="#000000">bfl::any::any::swap</text>
</a>
</g>
</g>
<!-- Node9&#45;&gt;Node11 -->
<g id="edge2" class="edge">
<title>Node9&#45;&gt;Node11</title>
<path fill="none" stroke="#191970" d="M118.9692,-20.0748C127.3815,-19.0283 136.0295,-17.9525 144.4389,-16.9063"/>
<polygon fill="#191970" stroke="#191970" points="145.0549,-20.3568 154.5463,-15.649 144.1907,-13.4103 145.0549,-20.3568"/>
</g>
<!-- Node12 -->
<g id="node4" class="node">
<title>Node12</title>
<g id="a_node4"><a xlink:href="namespacebfl_1_1any.html#adb1328ea975e3bf9c0addc1689215bad" target="_top" xlink:title="Overloads the std::swap algorithm for std::any. ">
<polygon fill="#ffffff" stroke="#000000" points="289.3857,-.5 289.3857,-18.5 366.5283,-18.5 366.5283,-.5 289.3857,-.5"/>
<text text-anchor="middle" x="327.957" y="-6.5" font-family="Helvetica,sans-Serif" font-size="10.00" fill="#000000">bfl::any::swap</text>
</a>
</g>
</g>
<!-- Node11&#45;&gt;Node12 -->
<g id="edge3" class="edge">
<title>Node11&#45;&gt;Node12</title>
<path fill="none" stroke="#191970" d="M253.6886,-2.8691C262.1182,-2.7036 270.8632,-2.7106 279.2661,-2.89"/>
<polygon fill="#191970" stroke="#191970" points="279.2003,-6.3895 289.3018,-3.1944 279.4126,.6072 279.2003,-6.3895"/>
</g>
<!-- Node12&#45;&gt;Node11 -->
<g id="edge4" class="edge">
<title>Node12&#45;&gt;Node11</title>
<path fill="none" stroke="#191970" d="M289.3018,-15.8056C281.1978,-16.1288 272.4708,-16.2757 263.8003,-16.2463"/>
<polygon fill="#191970" stroke="#191970" points="263.7279,-12.7454 253.6886,-16.1309 263.648,-19.7449 263.7279,-12.7454"/>
</g>
</g>
</svg>
