<?xml version="1.0" encoding="UTF-8" standalone="no"?>
<!DOCTYPE svg PUBLIC "-//W3C//DTD SVG 1.1//EN"
 "http://www.w3.org/Graphics/SVG/1.1/DTD/svg11.dtd">
<!-- Generated by graphviz version 2.40.1 (20161225.0304)
 -->
<!-- Title: bfl::Logger Pages: 1 -->
<!--zoomable 185 -->
<svg id="main" version="1.1" xmlns="http://www.w3.org/2000/svg" xmlns:xlink="http://www.w3.org/1999/xlink" xml:space="preserve" onload="init(evt)">
<style type="text/css"><![CDATA[
.edge:hover path { stroke: red; }
.edge:hover polygon { stroke: red; fill: red; }
]]></style>
<script type="text/javascript"><![CDATA[
var edges = document.getElementsByTagName('g');
if (edges && edges.length) {
  for (var i=0;i<edges.length;i++) {
    if (edges[i].id.substr(0,4)=='edge') {
      edges[i].setAttribute('class','edge');
    }
  }
}
]]></script>
        <defs>
                <circle id="rim" cx="0" cy="0" r="7"/>
                <circle id="rim2" cx="0" cy="0" r="3.5"/>
                <g id="zoomPlus">
                        <use xlink:href="#rim" fill="#404040">
                                <set attributeName="fill" to="#808080" begin="zoomplus.mouseover" end="zoomplus.mouseout"/>
                        </use>
                        <path d="M-4,0h8M0,-4v8" fill="none" stroke="white" stroke-width="1.5" pointer-events="none"/>
                </g>
                <g id="zoomMin">
                        <use xlink:href="#rim" fill="#404040">
                                <set attributeName="fill" to="#808080" begin="zoomminus.mouseover" end="zoomminus.mouseout"/>
                        </use>
                        <path d="M-4,0h8" fill="none" stroke="white" stroke-width="1.5" pointer-events="none"/>
                </g>
                <g id="dirArrow">
                        <path fill="none" stroke="white" stroke-width="1.5" d="M0,-3.0v7 M-2.5,-0.5L0,-3.0L2.5,-0.5"/>
                </g>
               <g id="resetDef">
                       <use xlink:href="#rim2" fill="#404040">
                               <set attributeName="fill" to="#808080" begin="reset.mouseover" end="reset.mouseout"/>
                       </use>
               </g>
        </defs>

<script type="text/javascript">
var viewWidth = 961;
var viewHeight = 185;
var sectionId = 'dynsection-0';
</script>
<script xlink:href="svgpan.js"/>
<svg id="graph" class="graph">
<g id="viewport">
<title>bfl::Logger</title>
<polygon fill="#ffffff" stroke="transparent" points="-4,4 -4,-181 957.3877,-181 957.3877,4 -4,4"/>
<!-- Node0 -->
<g id="node1" class="node">
<title>Node0</title>
<polygon fill="#bfbfbf" stroke="#000000" points="0,-42.5 0,-60.5 63.2559,-60.5 63.2559,-42.5 0,-42.5"/>
<text text-anchor="middle" x="31.6279" y="-48.5" font-family="Helvetica,sans-Serif" font-size="10.00" fill="#000000">bfl::Logger</text>
</g>
<!-- Node1 -->
<g id="node2" class="node">
<title>Node1</title>
<g id="a_node2"><a xlink:href="classbfl_1_1FilteringAlgorithm.html" target="_top" xlink:title="bfl::FilteringAlgorithm">
<polygon fill="#ffffff" stroke="#000000" points="107.8813,-102.5 107.8813,-120.5 217.8022,-120.5 217.8022,-102.5 107.8813,-102.5"/>
<text text-anchor="middle" x="162.8418" y="-108.5" font-family="Helvetica,sans-Serif" font-size="10.00" fill="#000000">bfl::FilteringAlgorithm</text>
</a>
</g>
</g>
<!-- Node0&#45;&gt;Node1 -->
<g id="edge1" class="edge">
<title>Node0&#45;&gt;Node1</title>
<path fill="none" stroke="#191970" d="M60.9339,-64.9007C85.9905,-76.3583 121.3569,-92.5302 143.1556,-102.4981"/>
<polygon fill="#191970" stroke="#191970" points="62.1063,-61.5883 51.5565,-60.6127 59.1953,-67.9543 62.1063,-61.5883"/>
</g>
<!-- Node6 -->
<g id="node7" class="node">
<title>Node6</title>
<g id="a_node7"><a xlink:href="classbfl_1_1MeasurementModel.html" target="_top" xlink:title="bfl::MeasurementModel">
<polygon fill="#ffffff" stroke="#000000" points="102.5957,-42.5 102.5957,-60.5 223.0879,-60.5 223.0879,-42.5 102.5957,-42.5"/>
<text text-anchor="middle" x="162.8418" y="-48.5" font-family="Helvetica,sans-Serif" font-size="10.00" fill="#000000">bfl::MeasurementModel</text>
</a>
</g>
</g>
<!-- Node0&#45;&gt;Node6 -->
<g id="edge6" class="edge">
<title>Node0&#45;&gt;Node6</title>
<path fill="none" stroke="#191970" d="M73.4359,-51.5C82.6466,-51.5 92.5811,-51.5 102.3628,-51.5"/>
<polygon fill="#191970" stroke="#191970" points="73.3912,-48.0001 63.3911,-51.5 73.3911,-55.0001 73.3912,-48.0001"/>
</g>
<!-- Node13 -->
<g id="node14" class="node">
<title>Node13</title>
<g id="a_node14"><a xlink:href="classbfl_1_1SimulatedStateModel.html" target="_top" xlink:title="bfl::SimulatedStateModel">
<polygon fill="#ffffff" stroke="#000000" points="99.2559,-5.5 99.2559,-23.5 226.4277,-23.5 226.4277,-5.5 99.2559,-5.5"/>
<text text-anchor="middle" x="162.8418" y="-11.5" font-family="Helvetica,sans-Serif" font-size="10.00" fill="#000000">bfl::SimulatedStateModel</text>
</a>
</g>
</g>
<!-- Node0&#45;&gt;Node13 -->
<g id="edge13" class="edge">
<title>Node0&#45;&gt;Node13</title>
<path fill="none" stroke="#191970" d="M73.1295,-39.7973C91.815,-34.5283 113.5306,-28.4049 130.9163,-23.5024"/>
<polygon fill="#191970" stroke="#191970" points="72.0659,-36.4606 63.3911,-42.5433 73.9657,-43.1979 72.0659,-36.4606"/>
</g>
<!-- Node2 -->
<g id="node3" class="node">
<title>Node2</title>
<g id="a_node3"><a xlink:href="classbfl_1_1GaussianFilter.html" target="_top" xlink:title="bfl::GaussianFilter">
<polygon fill="#ffffff" stroke="#000000" points="296.334,-158.5 296.334,-176.5 392.9199,-176.5 392.9199,-158.5 296.334,-158.5"/>
<text text-anchor="middle" x="344.627" y="-164.5" font-family="Helvetica,sans-Serif" font-size="10.00" fill="#000000">bfl::GaussianFilter</text>
</a>
</g>
</g>
<!-- Node1&#45;&gt;Node2 -->
<g id="edge2" class="edge">
<title>Node1&#45;&gt;Node2</title>
<path fill="none" stroke="#191970" d="M193.1866,-124.431C212.7088,-132.4112 238.7636,-142.437 262.4277,-149.5 273.6266,-152.8425 285.8535,-155.8538 297.3722,-158.4144"/>
<polygon fill="#191970" stroke="#191970" points="194.4727,-121.1754 183.8943,-120.5856 191.796,-127.6435 194.4727,-121.1754"/>
</g>
<!-- Node3 -->
<g id="node4" class="node">
<title>Node3</title>
<g id="a_node4"><a xlink:href="classbfl_1_1ParticleFilter.html" target="_top" xlink:title="bfl::ParticleFilter">
<polygon fill="#ffffff" stroke="#000000" points="300.7847,-121.5 300.7847,-139.5 388.4692,-139.5 388.4692,-121.5 300.7847,-121.5"/>
<text text-anchor="middle" x="344.627" y="-127.5" font-family="Helvetica,sans-Serif" font-size="10.00" fill="#000000">bfl::ParticleFilter</text>
</a>
</g>
</g>
<!-- Node1&#45;&gt;Node3 -->
<g id="edge3" class="edge">
<title>Node1&#45;&gt;Node3</title>
<path fill="none" stroke="#191970" d="M228.0359,-118.314C252.1687,-120.8364 278.9349,-123.6339 300.7287,-125.9118"/>
<polygon fill="#191970" stroke="#191970" points="228.1863,-114.8108 217.8767,-117.2522 227.4586,-121.7728 228.1863,-114.8108"/>
</g>
<!-- Node5 -->
<g id="node6" class="node">
<title>Node5</title>
<g id="a_node6"><a xlink:href="classbfl_1_1UnscentedKalmanFilter.html" target="_top" xlink:title="bfl::UnscentedKalmanFilter">
<polygon fill="#ffffff" stroke="#000000" points="276.6001,-84.5 276.6001,-102.5 412.6538,-102.5 412.6538,-84.5 276.6001,-84.5"/>
<text text-anchor="middle" x="344.627" y="-90.5" font-family="Helvetica,sans-Serif" font-size="10.00" fill="#000000">bfl::UnscentedKalmanFilter</text>
</a>
</g>
</g>
<!-- Node1&#45;&gt;Node5 -->
<g id="edge5" class="edge">
<title>Node1&#45;&gt;Node5</title>
<path fill="none" stroke="#191970" d="M227.9952,-105.0486C243.67,-103.4966 260.458,-101.8342 276.2741,-100.2682"/>
<polygon fill="#191970" stroke="#191970" points="227.4831,-101.5821 217.8767,-106.0506 228.1729,-108.5481 227.4831,-101.5821"/>
</g>
<!-- Node4 -->
<g id="node5" class="node">
<title>Node4</title>
<g id="a_node5"><a xlink:href="classbfl_1_1SIS.html" target="_top" xlink:title="bfl::SIS">
<polygon fill="#ffffff" stroke="#000000" points="512.853,-121.5 512.853,-139.5 561.0894,-139.5 561.0894,-121.5 512.853,-121.5"/>
<text text-anchor="middle" x="536.9712" y="-127.5" font-family="Helvetica,sans-Serif" font-size="10.00" fill="#000000">bfl::SIS</text>
</a>
</g>
</g>
<!-- Node3&#45;&gt;Node4 -->
<g id="edge4" class="edge">
<title>Node3&#45;&gt;Node4</title>
<path fill="none" stroke="#191970" d="M399.0045,-130.5C436.4183,-130.5 484.3092,-130.5 512.7043,-130.5"/>
<polygon fill="#191970" stroke="#191970" points="398.7546,-127.0001 388.7546,-130.5 398.7546,-134.0001 398.7546,-127.0001"/>
</g>
<!-- Node7 -->
<g id="node8" class="node">
<title>Node7</title>
<g id="a_node8"><a xlink:href="classbfl_1_1AdditiveMeasurementModel.html" target="_top" xlink:title="bfl::AdditiveMeasurement\lModel">
<polygon fill="#ffffff" stroke="#000000" points="280.2109,-37.5 280.2109,-65.5 409.043,-65.5 409.043,-37.5 280.2109,-37.5"/>
<text text-anchor="start" x="288.2109" y="-53.5" font-family="Helvetica,sans-Serif" font-size="10.00" fill="#000000">bfl::AdditiveMeasurement</text>
<text text-anchor="middle" x="344.627" y="-43.5" font-family="Helvetica,sans-Serif" font-size="10.00" fill="#000000">Model</text>
</a>
</g>
</g>
<!-- Node6&#45;&gt;Node7 -->
<g id="edge7" class="edge">
<title>Node6&#45;&gt;Node7</title>
<path fill="none" stroke="#191970" d="M233.1436,-51.5C248.6097,-51.5 264.9154,-51.5 280.139,-51.5"/>
<polygon fill="#191970" stroke="#191970" points="233.1212,-48.0001 223.1211,-51.5 233.1211,-55.0001 233.1212,-48.0001"/>
</g>
<!-- Node12 -->
<g id="node13" class="node">
<title>Node12</title>
<g id="a_node13"><a xlink:href="classbfl_1_1MeasurementModelDecorator.html" target="_top" xlink:title="bfl::MeasurementModelDecorator">
<polygon fill="#ffffff" stroke="#000000" points="262.4277,-.5 262.4277,-18.5 426.8262,-18.5 426.8262,-.5 262.4277,-.5"/>
<text text-anchor="middle" x="344.627" y="-6.5" font-family="Helvetica,sans-Serif" font-size="10.00" fill="#000000">bfl::MeasurementModelDecorator</text>
</a>
</g>
</g>
<!-- Node6&#45;&gt;Node12 -->
<g id="edge12" class="edge">
<title>Node6&#45;&gt;Node12</title>
<path fill="none" stroke="#191970" d="M209.718,-39.9895C226.3462,-35.963 245.2042,-31.4608 262.4277,-27.5 275.3836,-24.5206 289.5152,-21.385 302.3496,-18.5806"/>
<polygon fill="#191970" stroke="#191970" points="208.5786,-36.6644 199.6874,-42.426 210.231,-43.4666 208.5786,-36.6644"/>
</g>
<!-- Node8 -->
<g id="node9" class="node">
<title>Node8</title>
<g id="a_node9"><a xlink:href="classbfl_1_1LinearMeasurementModel.html" target="_top" xlink:title="bfl::LinearMeasurementModel">
<polygon fill="#ffffff" stroke="#000000" points="462.8262,-42.5 462.8262,-60.5 611.1162,-60.5 611.1162,-42.5 462.8262,-42.5"/>
<text text-anchor="middle" x="536.9712" y="-48.5" font-family="Helvetica,sans-Serif" font-size="10.00" fill="#000000">bfl::LinearMeasurementModel</text>
</a>
</g>
</g>
<!-- Node7&#45;&gt;Node8 -->
<g id="edge8" class="edge">
<title>Node7&#45;&gt;Node8</title>
<path fill="none" stroke="#191970" d="M419.403,-51.5C433.5861,-51.5 448.4233,-51.5 462.5941,-51.5"/>
<polygon fill="#191970" stroke="#191970" points="419.2099,-48.0001 409.2099,-51.5 419.2098,-55.0001 419.2099,-48.0001"/>
</g>
<!-- Node9 -->
<g id="node10" class="node">
<title>Node9</title>
<g id="a_node10"><a xlink:href="classbfl_1_1LinearModel.html" target="_top" xlink:title="bfl::LinearModel">
<polygon fill="#ffffff" stroke="#000000" points="670.6416,-61.5 670.6416,-79.5 757.7939,-79.5 757.7939,-61.5 670.6416,-61.5"/>
<text text-anchor="middle" x="714.2178" y="-67.5" font-family="Helvetica,sans-Serif" font-size="10.00" fill="#000000">bfl::LinearModel</text>
</a>
</g>
</g>
<!-- Node8&#45;&gt;Node9 -->
<g id="edge9" class="edge">
<title>Node8&#45;&gt;Node9</title>
<path fill="none" stroke="#191970" d="M621.3636,-60.5465C638.4116,-62.3739 655.6689,-64.2238 670.6043,-65.8248"/>
<polygon fill="#191970" stroke="#191970" points="621.6854,-57.061 611.3693,-59.4751 620.9392,-64.0211 621.6854,-57.061"/>
</g>
<!-- Node11 -->
<g id="node12" class="node">
<title>Node11</title>
<g id="a_node12"><a xlink:href="classbfl_1_1LTIMeasurementModel.html" target="_top" xlink:title="bfl::LTIMeasurementModel">
<polygon fill="#ffffff" stroke="#000000" points="647.1162,-24.5 647.1162,-42.5 781.3193,-42.5 781.3193,-24.5 647.1162,-24.5"/>
<text text-anchor="middle" x="714.2178" y="-30.5" font-family="Helvetica,sans-Serif" font-size="10.00" fill="#000000">bfl::LTIMeasurementModel</text>
</a>
</g>
</g>
<!-- Node8&#45;&gt;Node11 -->
<g id="edge11" class="edge">
<title>Node8&#45;&gt;Node11</title>
<path fill="none" stroke="#191970" d="M621.4242,-42.9235C630.0266,-42.0499 638.6816,-41.171 647.0638,-40.3197"/>
<polygon fill="#191970" stroke="#191970" points="620.9645,-39.4521 611.3693,-43.9446 621.6718,-46.4163 620.9645,-39.4521"/>
</g>
<!-- Node10 -->
<g id="node11" class="node">
<title>Node10</title>
<g id="a_node11"><a xlink:href="classbfl_1_1SimulatedLinearSensor.html" target="_top" xlink:title="bfl::SimulatedLinearSensor">
<polygon fill="#ffffff" stroke="#000000" points="817.3193,-61.5 817.3193,-79.5 953.3877,-79.5 953.3877,-61.5 817.3193,-61.5"/>
<text text-anchor="middle" x="885.3535" y="-67.5" font-family="Helvetica,sans-Serif" font-size="10.00" fill="#000000">bfl::SimulatedLinearSensor</text>
</a>
</g>
</g>
<!-- Node9&#45;&gt;Node10 -->
<g id="edge10" class="edge">
<title>Node9&#45;&gt;Node10</title>
<path fill="none" stroke="#191970" d="M767.8537,-70.5C783.4885,-70.5 800.7837,-70.5 817.1879,-70.5"/>
<polygon fill="#191970" stroke="#191970" points="767.8454,-67.0001 757.8453,-70.5 767.8453,-74.0001 767.8454,-67.0001"/>
</g>
</g>
</svg>
        <g id="navigator" transform="translate(0 0)" fill="#404254">
                <rect fill="#f2f5e9" fill-opacity="0.5" stroke="#606060" stroke-width=".5" x="0" y="0" width="60" height="60"/>
                <use id="zoomplus" xlink:href="#zoomPlus" x="17" y="9" onmousedown="handleZoom(evt,'in')"/>
                <use id="zoomminus" xlink:href="#zoomMin" x="42" y="9" onmousedown="handleZoom(evt,'out')"/>
                <use id="reset" xlink:href="#resetDef" x="30" y="36" onmousedown="handleReset()"/>
                <g id="arrowUp" xlink:href="#dirArrow" transform="translate(30 24)" onmousedown="handlePan(0,-1)">
                  <use xlink:href="#rim" fill="#404040">
                        <set attributeName="fill" to="#808080" begin="arrowUp.mouseover" end="arrowUp.mouseout"/>
                  </use>
                  <path fill="none" stroke="white" stroke-width="1.5" d="M0,-3.0v7 M-2.5,-0.5L0,-3.0L2.5,-0.5"/>
                </g>
                <g id="arrowRight" xlink:href="#dirArrow" transform="rotate(90) translate(36 -43)" onmousedown="handlePan(1,0)">
                  <use xlink:href="#rim" fill="#404040">
                        <set attributeName="fill" to="#808080" begin="arrowRight.mouseover" end="arrowRight.mouseout"/>
                  </use>
                  <path fill="none" stroke="white" stroke-width="1.5" d="M0,-3.0v7 M-2.5,-0.5L0,-3.0L2.5,-0.5"/>
                </g>
                <g id="arrowDown" xlink:href="#dirArrow" transform="rotate(180) translate(-30 -48)" onmousedown="handlePan(0,1)">
                  <use xlink:href="#rim" fill="#404040">
                        <set attributeName="fill" to="#808080" begin="arrowDown.mouseover" end="arrowDown.mouseout"/>
                  </use>
                  <path fill="none" stroke="white" stroke-width="1.5" d="M0,-3.0v7 M-2.5,-0.5L0,-3.0L2.5,-0.5"/>
                </g>
                <g id="arrowLeft" xlink:href="#dirArrow" transform="rotate(270) translate(-36 17)" onmousedown="handlePan(-1,0)">
                  <use xlink:href="#rim" fill="#404040">
                        <set attributeName="fill" to="#808080" begin="arrowLeft.mouseover" end="arrowLeft.mouseout"/>
                  </use>
                  <path fill="none" stroke="white" stroke-width="1.5" d="M0,-3.0v7 M-2.5,-0.5L0,-3.0L2.5,-0.5"/>
                </g>
        </g>
        <svg viewBox="0 0 15 15" width="100%" height="30px" preserveAspectRatio="xMaxYMin meet">
         <g id="arrow_out" transform="scale(0.3 0.3)">
          <a xlink:href="classbfl_1_1Logger__inherit__graph_org.svg" target="_base">
           <rect id="button" ry="5" rx="5" y="6" x="6" height="38" width="38"
                fill="#f2f5e9" fill-opacity="0.5" stroke="#606060" stroke-width="1.0"/>
           <path id="arrow"
             d="M 11.500037,31.436501 C 11.940474,20.09759 22.043105,11.32322 32.158766,21.979434 L 37.068811,17.246167 C 37.068811,17.246167 37.088388,32 37.088388,32 L 22.160133,31.978069 C 22.160133,31.978069 26.997745,27.140456 26.997745,27.140456 C 18.528582,18.264221 13.291696,25.230495 11.500037,31.436501 z"
             style="fill:#404040;"/>
          </a>
         </g>
        </svg>
</svg>
