<?xml version="1.0" encoding="UTF-8" standalone="no"?>
<!DOCTYPE svg PUBLIC "-//W3C//DTD SVG 1.1//EN"
 "http://www.w3.org/Graphics/SVG/1.1/DTD/svg11.dtd">
<!-- Generated by graphviz version 2.40.1 (20161225.0304)
 -->
<!-- Title: bfl::GaussianLikelihood::likelihood Pages: 1 -->
<svg width="302pt" height="215pt"
 viewBox="0.00 0.00 302.23 215.00" xmlns="http://www.w3.org/2000/svg" xmlns:xlink="http://www.w3.org/1999/xlink">
<g id="graph0" class="graph" transform="scale(1 1) rotate(0) translate(4 211)">
<title>bfl::GaussianLikelihood::likelihood</title>
<polygon fill="#ffffff" stroke="transparent" points="-4,4 -4,-211 298.2256,-211 298.2256,4 -4,4"/>
<!-- Node3 -->
<g id="node1" class="node">
<title>Node3</title>
<polygon fill="#bfbfbf" stroke="#000000" points="0,-94.5 0,-122.5 119.3984,-122.5 119.3984,-94.5 0,-94.5"/>
<text text-anchor="start" x="8" y="-110.5" font-family="Helvetica,sans-Serif" font-size="10.00" fill="#000000">bfl::GaussianLikelihood</text>
<text text-anchor="middle" x="59.6992" y="-100.5" font-family="Helvetica,sans-Serif" font-size="10.00" fill="#000000">::likelihood</text>
</g>
<!-- Node4 -->
<g id="node2" class="node">
<title>Node4</title>
<g id="a_node2"><a xlink:href="namespacebfl_1_1any.html#a4ecb51ad57b3fa935cabdc0dcdcb4df1" target="_top" xlink:title="Performs type&#45;safe access to the contained object. ">
<polygon fill="#ffffff" stroke="#000000" points="177.9009,-188.5 177.9009,-206.5 271.7231,-206.5 271.7231,-188.5 177.9009,-188.5"/>
<text text-anchor="middle" x="224.812" y="-194.5" font-family="Helvetica,sans-Serif" font-size="10.00" fill="#000000">bfl::any::any_cast</text>
</a>
</g>
</g>
<!-- Node3&#45;&gt;Node4 -->
<g id="edge1" class="edge">
<title>Node3&#45;&gt;Node4</title>
<path fill="none" stroke="#191970" d="M74.7342,-122.5863C92.6275,-138.6155 124.0431,-164.5075 155.3984,-179.5 159.9841,-181.6926 164.8727,-183.6437 169.8508,-185.3745"/>
<polygon fill="#191970" stroke="#191970" points="168.8881,-188.741 179.4786,-188.4371 171.0101,-182.0704 168.8881,-188.741"/>
</g>
<!-- Node5 -->
<g id="node3" class="node">
<title>Node5</title>
<g id="a_node3"><a xlink:href="classbfl_1_1MeasurementModel.html#af25f42076b69e0c6cab47d36d796536f" target="_top" xlink:title="bfl::MeasurementModel\l::getNoiseCovarianceMatrix">
<polygon fill="#ffffff" stroke="#000000" points="155.3984,-141.5 155.3984,-169.5 294.2256,-169.5 294.2256,-141.5 155.3984,-141.5"/>
<text text-anchor="start" x="163.3984" y="-157.5" font-family="Helvetica,sans-Serif" font-size="10.00" fill="#000000">bfl::MeasurementModel</text>
<text text-anchor="middle" x="224.812" y="-147.5" font-family="Helvetica,sans-Serif" font-size="10.00" fill="#000000">::getNoiseCovarianceMatrix</text>
</a>
</g>
</g>
<!-- Node3&#45;&gt;Node5 -->
<g id="edge2" class="edge">
<title>Node3&#45;&gt;Node5</title>
<path fill="none" stroke="#191970" d="M109.2385,-122.6015C127.0332,-127.6669 147.2782,-133.4297 165.7983,-138.7015"/>
<polygon fill="#191970" stroke="#191970" points="165.0162,-142.1179 175.5924,-141.4894 166.9327,-135.3853 165.0162,-142.1179"/>
</g>
<!-- Node6 -->
<g id="node4" class="node">
<title>Node6</title>
<g id="a_node4"><a xlink:href="classbfl_1_1MeasurementModel.html#aa06e0643805551a981bcc013ad44c829" target="_top" xlink:title="bfl::MeasurementModel\l::innovation">
<polygon fill="#ffffff" stroke="#000000" points="164.5659,-94.5 164.5659,-122.5 285.0581,-122.5 285.0581,-94.5 164.5659,-94.5"/>
<text text-anchor="start" x="172.5659" y="-110.5" font-family="Helvetica,sans-Serif" font-size="10.00" fill="#000000">bfl::MeasurementModel</text>
<text text-anchor="middle" x="224.812" y="-100.5" font-family="Helvetica,sans-Serif" font-size="10.00" fill="#000000">::innovation</text>
</a>
</g>
</g>
<!-- Node3&#45;&gt;Node6 -->
<g id="edge3" class="edge">
<title>Node3&#45;&gt;Node6</title>
<path fill="none" stroke="#191970" d="M119.7758,-108.5C131.0437,-108.5 142.9165,-108.5 154.4634,-108.5"/>
<polygon fill="#191970" stroke="#191970" points="154.5035,-112.0001 164.5035,-108.5 154.5034,-105.0001 154.5035,-112.0001"/>
</g>
<!-- Node7 -->
<g id="node5" class="node">
<title>Node7</title>
<g id="a_node5"><a xlink:href="classbfl_1_1MeasurementModel.html#ad372b720cef4e6bc0ac2489f4098bfc9" target="_top" xlink:title="bfl::MeasurementModel\l::measure">
<polygon fill="#ffffff" stroke="#000000" points="164.5659,-47.5 164.5659,-75.5 285.0581,-75.5 285.0581,-47.5 164.5659,-47.5"/>
<text text-anchor="start" x="172.5659" y="-63.5" font-family="Helvetica,sans-Serif" font-size="10.00" fill="#000000">bfl::MeasurementModel</text>
<text text-anchor="middle" x="224.812" y="-53.5" font-family="Helvetica,sans-Serif" font-size="10.00" fill="#000000">::measure</text>
</a>
</g>
</g>
<!-- Node3&#45;&gt;Node7 -->
<g id="edge4" class="edge">
<title>Node3&#45;&gt;Node7</title>
<path fill="none" stroke="#191970" d="M109.2385,-94.3985C127.0332,-89.3331 147.2782,-83.5703 165.7983,-78.2985"/>
<polygon fill="#191970" stroke="#191970" points="166.9327,-81.6147 175.5924,-75.5106 165.0162,-74.8821 166.9327,-81.6147"/>
</g>
<!-- Node8 -->
<g id="node6" class="node">
<title>Node8</title>
<g id="a_node6"><a xlink:href="classbfl_1_1MeasurementModel.html#a8fc8798aa2db48f428d4ce59b33b5307" target="_top" xlink:title="bfl::MeasurementModel\l::predictedMeasure">
<polygon fill="#ffffff" stroke="#000000" points="164.5659,-.5 164.5659,-28.5 285.0581,-28.5 285.0581,-.5 164.5659,-.5"/>
<text text-anchor="start" x="172.5659" y="-16.5" font-family="Helvetica,sans-Serif" font-size="10.00" fill="#000000">bfl::MeasurementModel</text>
<text text-anchor="middle" x="224.812" y="-6.5" font-family="Helvetica,sans-Serif" font-size="10.00" fill="#000000">::predictedMeasure</text>
</a>
</g>
</g>
<!-- Node3&#45;&gt;Node8 -->
<g id="edge5" class="edge">
<title>Node3&#45;&gt;Node8</title>
<path fill="none" stroke="#191970" d="M75.9724,-94.2238C94.2496,-78.7772 125.3066,-54.2507 155.3984,-38.5 159.6242,-36.2881 164.0971,-34.2102 168.6546,-32.2744"/>
<polygon fill="#191970" stroke="#191970" points="170.0933,-35.4686 178.0764,-28.5029 167.4919,-28.9699 170.0933,-35.4686"/>
</g>
</g>
</svg>
