<?xml version="1.0" encoding="UTF-8" standalone="no"?>
<!DOCTYPE svg PUBLIC "-//W3C//DTD SVG 1.1//EN"
 "http://www.w3.org/Graphics/SVG/1.1/DTD/svg11.dtd">
<!-- Generated by graphviz version 2.40.1 (20161225.0304)
 -->
<!-- Title: bfl::DrawParticles::predictStep Pages: 1 -->
<svg width="246pt" height="74pt"
 viewBox="0.00 0.00 245.51 74.00" xmlns="http://www.w3.org/2000/svg" xmlns:xlink="http://www.w3.org/1999/xlink">
<g id="graph0" class="graph" transform="scale(1 1) rotate(0) translate(4 70)">
<title>bfl::DrawParticles::predictStep</title>
<polygon fill="#ffffff" stroke="transparent" points="-4,4 -4,-70 241.5068,-70 241.5068,4 -4,4"/>
<!-- Node8 -->
<g id="node1" class="node">
<title>Node8</title>
<polygon fill="#bfbfbf" stroke="#000000" points="0,-21.5 0,-49.5 93.7979,-49.5 93.7979,-21.5 0,-21.5"/>
<text text-anchor="start" x="8" y="-37.5" font-family="Helvetica,sans-Serif" font-size="10.00" fill="#000000">bfl::DrawParticles</text>
<text text-anchor="middle" x="46.8989" y="-27.5" font-family="Helvetica,sans-Serif" font-size="10.00" fill="#000000">::predictStep</text>
</g>
<!-- Node9 -->
<g id="node2" class="node">
<title>Node9</title>
<g id="a_node2"><a xlink:href="classbfl_1_1ParticleSet.html#a85950583083c2903f4235801cc03130c" target="_top" xlink:title="bfl::ParticleSet::state">
<polygon fill="#ffffff" stroke="#000000" points="129.7979,-47.5 129.7979,-65.5 237.5068,-65.5 237.5068,-47.5 129.7979,-47.5"/>
<text text-anchor="middle" x="183.6523" y="-53.5" font-family="Helvetica,sans-Serif" font-size="10.00" fill="#000000">bfl::ParticleSet::state</text>
</a>
</g>
</g>
<!-- Node8&#45;&gt;Node9 -->
<g id="edge1" class="edge">
<title>Node8&#45;&gt;Node9</title>
<path fill="none" stroke="#191970" d="M93.9617,-42.727C102.1804,-43.9891 110.8555,-45.3212 119.4427,-46.6399"/>
<polygon fill="#191970" stroke="#191970" points="119.0349,-50.1182 129.4503,-48.1767 120.0975,-43.1993 119.0349,-50.1182"/>
</g>
<!-- Node10 -->
<g id="node3" class="node">
<title>Node10</title>
<g id="a_node3"><a xlink:href="classbfl_1_1GaussianMixture.html#ada5625de6a3e2f98afb5aaa148503dad" target="_top" xlink:title="bfl::GaussianMixture\l::weight">
<polygon fill="#ffffff" stroke="#000000" points="130.0786,-.5 130.0786,-28.5 237.2261,-28.5 237.2261,-.5 130.0786,-.5"/>
<text text-anchor="start" x="138.0786" y="-16.5" font-family="Helvetica,sans-Serif" font-size="10.00" fill="#000000">bfl::GaussianMixture</text>
<text text-anchor="middle" x="183.6523" y="-6.5" font-family="Helvetica,sans-Serif" font-size="10.00" fill="#000000">::weight</text>
</a>
</g>
</g>
<!-- Node8&#45;&gt;Node10 -->
<g id="edge2" class="edge">
<title>Node8&#45;&gt;Node10</title>
<path fill="none" stroke="#191970" d="M93.9617,-28.273C102.2914,-26.9939 111.0901,-25.6427 119.7908,-24.3066"/>
<polygon fill="#191970" stroke="#191970" points="120.5729,-27.7277 129.9258,-22.7503 119.5104,-20.8088 120.5729,-27.7277"/>
</g>
</g>
</svg>
