<?xml version="1.0" encoding="UTF-8" standalone="no"?>
<!DOCTYPE svg PUBLIC "-//W3C//DTD SVG 1.1//EN"
 "http://www.w3.org/Graphics/SVG/1.1/DTD/svg11.dtd">
<!-- Generated by graphviz version 2.40.1 (20161225.0304)
 -->
<!-- Title: bfl::StateModel Pages: 1 -->
<svg width="327pt" height="192pt"
 viewBox="0.00 0.00 326.51 192.00" xmlns="http://www.w3.org/2000/svg" xmlns:xlink="http://www.w3.org/1999/xlink">
<g id="graph0" class="graph" transform="scale(1 1) rotate(0) translate(4 188)">
<title>bfl::StateModel</title>
<polygon fill="#ffffff" stroke="transparent" points="-4,4 -4,-188 322.5127,-188 322.5127,4 -4,4"/>
<!-- Node0 -->
<g id="node1" class="node">
<title>Node0</title>
<polygon fill="#bfbfbf" stroke="#000000" points="143.8555,-165.5 143.8555,-183.5 226.5596,-183.5 226.5596,-165.5 143.8555,-165.5"/>
<text text-anchor="middle" x="185.2075" y="-171.5" font-family="Helvetica,sans-Serif" font-size="10.00" fill="#000000">bfl::StateModel</text>
</g>
<!-- Node1 -->
<g id="node2" class="node">
<title>Node1</title>
<g id="a_node2"><a xlink:href="classbfl_1_1AdditiveStateModel.html" target="_top" xlink:title="bfl::AdditiveStateModel">
<polygon fill="#ffffff" stroke="#000000" points="56.0674,-110.5 56.0674,-128.5 174.3477,-128.5 174.3477,-110.5 56.0674,-110.5"/>
<text text-anchor="middle" x="115.2075" y="-116.5" font-family="Helvetica,sans-Serif" font-size="10.00" fill="#000000">bfl::AdditiveStateModel</text>
</a>
</g>
</g>
<!-- Node0&#45;&gt;Node1 -->
<g id="edge1" class="edge">
<title>Node0&#45;&gt;Node1</title>
<path fill="none" stroke="#191970" d="M165.6712,-159.15C153.2493,-149.3899 137.5747,-137.0742 127.0177,-128.7795"/>
<polygon fill="#191970" stroke="#191970" points="163.6229,-161.9917 173.6484,-165.4179 167.9476,-156.4875 163.6229,-161.9917"/>
</g>
<!-- Node5 -->
<g id="node6" class="node">
<title>Node5</title>
<g id="a_node6"><a xlink:href="classbfl_1_1StateModelDecorator.html" target="_top" xlink:title="bfl::StateModelDecorator">
<polygon fill="#ffffff" stroke="#000000" points="191.9023,-110.5 191.9023,-128.5 318.5127,-128.5 318.5127,-110.5 191.9023,-110.5"/>
<text text-anchor="middle" x="255.2075" y="-116.5" font-family="Helvetica,sans-Serif" font-size="10.00" fill="#000000">bfl::StateModelDecorator</text>
</a>
</g>
</g>
<!-- Node0&#45;&gt;Node5 -->
<g id="edge5" class="edge">
<title>Node0&#45;&gt;Node5</title>
<path fill="none" stroke="#191970" d="M204.7439,-159.15C217.1658,-149.3899 232.8404,-137.0742 243.3973,-128.7795"/>
<polygon fill="#191970" stroke="#191970" points="202.4674,-156.4875 196.7666,-165.4179 206.7922,-161.9917 202.4674,-156.4875"/>
</g>
<!-- Node2 -->
<g id="node3" class="node">
<title>Node2</title>
<g id="a_node3"><a xlink:href="classbfl_1_1LinearStateModel.html" target="_top" xlink:title="bfl::LinearStateModel">
<polygon fill="#ffffff" stroke="#000000" points="59.9565,-55.5 59.9565,-73.5 170.4585,-73.5 170.4585,-55.5 59.9565,-55.5"/>
<text text-anchor="middle" x="115.2075" y="-61.5" font-family="Helvetica,sans-Serif" font-size="10.00" fill="#000000">bfl::LinearStateModel</text>
</a>
</g>
</g>
<!-- Node1&#45;&gt;Node2 -->
<g id="edge2" class="edge">
<title>Node1&#45;&gt;Node2</title>
<path fill="none" stroke="#191970" d="M115.2075,-100.383C115.2075,-91.3738 115.2075,-81.0373 115.2075,-73.7795"/>
<polygon fill="#191970" stroke="#191970" points="111.7076,-100.4178 115.2075,-110.4179 118.7076,-100.4179 111.7076,-100.4178"/>
</g>
<!-- Node3 -->
<g id="node4" class="node">
<title>Node3</title>
<g id="a_node4"><a xlink:href="classbfl_1_1LTIStateModel.html" target="_top" xlink:title="bfl::LTIStateModel">
<polygon fill="#ffffff" stroke="#000000" points="0,-.5 0,-18.5 96.415,-18.5 96.415,-.5 0,-.5"/>
<text text-anchor="middle" x="48.2075" y="-6.5" font-family="Helvetica,sans-Serif" font-size="10.00" fill="#000000">bfl::LTIStateModel</text>
</a>
</g>
</g>
<!-- Node2&#45;&gt;Node3 -->
<g id="edge3" class="edge">
<title>Node2&#45;&gt;Node3</title>
<path fill="none" stroke="#191970" d="M96.1646,-48.8678C84.3308,-39.1535 69.5189,-26.9944 59.5116,-18.7795"/>
<polygon fill="#191970" stroke="#191970" points="94.1938,-51.7782 104.1438,-55.4179 98.6353,-46.3676 94.1938,-51.7782"/>
</g>
<!-- Node4 -->
<g id="node5" class="node">
<title>Node4</title>
<g id="a_node5"><a xlink:href="classbfl_1_1WhiteNoiseAcceleration.html" target="_top" xlink:title="bfl::WhiteNoiseAcceleration">
<polygon fill="#ffffff" stroke="#000000" points="114.0698,-.5 114.0698,-18.5 252.3452,-18.5 252.3452,-.5 114.0698,-.5"/>
<text text-anchor="middle" x="183.2075" y="-6.5" font-family="Helvetica,sans-Serif" font-size="10.00" fill="#000000">bfl::WhiteNoiseAcceleration</text>
</a>
</g>
</g>
<!-- Node2&#45;&gt;Node4 -->
<g id="edge4" class="edge">
<title>Node2&#45;&gt;Node4</title>
<path fill="none" stroke="#191970" d="M134.5346,-48.8678C146.545,-39.1535 161.578,-26.9944 171.7347,-18.7795"/>
<polygon fill="#191970" stroke="#191970" points="132.0104,-46.4078 126.4363,-55.4179 136.4125,-51.8504 132.0104,-46.4078"/>
</g>
</g>
</svg>
