<?xml version="1.0" encoding="UTF-8" standalone="no"?>
<!DOCTYPE svg PUBLIC "-//W3C//DTD SVG 1.1//EN"
 "http://www.w3.org/Graphics/SVG/1.1/DTD/svg11.dtd">
<!-- Generated by graphviz version 2.40.1 (20161225.0304)
 -->
<!-- Title: bfl::FilteringAlgorithm::filteringRecursion Pages: 1 -->
<svg width="264pt" height="131pt"
 viewBox="0.00 0.00 263.84 131.00" xmlns="http://www.w3.org/2000/svg" xmlns:xlink="http://www.w3.org/1999/xlink">
<g id="graph0" class="graph" transform="scale(1 1) rotate(0) translate(4 127)">
<title>bfl::FilteringAlgorithm::filteringRecursion</title>
<polygon fill="#ffffff" stroke="transparent" points="-4,4 -4,-127 259.8418,-127 259.8418,4 -4,4"/>
<!-- Node9 -->
<g id="node1" class="node">
<title>Node9</title>
<polygon fill="#bfbfbf" stroke="#000000" points="0,-47.5 0,-75.5 109.9209,-75.5 109.9209,-47.5 0,-47.5"/>
<text text-anchor="start" x="8" y="-63.5" font-family="Helvetica,sans-Serif" font-size="10.00" fill="#000000">bfl::FilteringAlgorithm</text>
<text text-anchor="middle" x="54.9604" y="-53.5" font-family="Helvetica,sans-Serif" font-size="10.00" fill="#000000">::filteringRecursion</text>
</g>
<!-- Node10 -->
<g id="node2" class="node">
<title>Node10</title>
<g id="a_node2"><a xlink:href="classbfl_1_1FilteringAlgorithm.html#ab3bceb43b5810a4bf1da884b8a0b145a" target="_top" xlink:title="bfl::FilteringAlgorithm\l::filteringStep">
<polygon fill="#ffffff" stroke="#000000" points="145.9209,-94.5 145.9209,-122.5 255.8418,-122.5 255.8418,-94.5 145.9209,-94.5"/>
<text text-anchor="start" x="153.9209" y="-110.5" font-family="Helvetica,sans-Serif" font-size="10.00" fill="#000000">bfl::FilteringAlgorithm</text>
<text text-anchor="middle" x="200.8813" y="-100.5" font-family="Helvetica,sans-Serif" font-size="10.00" fill="#000000">::filteringStep</text>
</a>
</g>
</g>
<!-- Node9&#45;&gt;Node10 -->
<g id="edge1" class="edge">
<title>Node9&#45;&gt;Node10</title>
<path fill="none" stroke="#191970" d="M98.7415,-75.6015C114.1055,-80.5502 131.5363,-86.1645 147.5933,-91.3363"/>
<polygon fill="#191970" stroke="#191970" points="146.7913,-94.755 157.3828,-94.4894 148.9374,-88.0921 146.7913,-94.755"/>
</g>
<!-- Node11 -->
<g id="node3" class="node">
<title>Node11</title>
<g id="a_node3"><a xlink:href="classbfl_1_1FilteringAlgorithm.html#adebe2ec2372f97a2a5baecf8c2c2a9c9" target="_top" xlink:title="bfl::FilteringAlgorithm\l::initialization">
<polygon fill="#ffffff" stroke="#000000" points="145.9209,-47.5 145.9209,-75.5 255.8418,-75.5 255.8418,-47.5 145.9209,-47.5"/>
<text text-anchor="start" x="153.9209" y="-63.5" font-family="Helvetica,sans-Serif" font-size="10.00" fill="#000000">bfl::FilteringAlgorithm</text>
<text text-anchor="middle" x="200.8813" y="-53.5" font-family="Helvetica,sans-Serif" font-size="10.00" fill="#000000">::initialization</text>
</a>
</g>
</g>
<!-- Node9&#45;&gt;Node11 -->
<g id="edge2" class="edge">
<title>Node9&#45;&gt;Node11</title>
<path fill="none" stroke="#191970" d="M110.1269,-61.5C118.3893,-61.5 126.976,-61.5 135.4269,-61.5"/>
<polygon fill="#191970" stroke="#191970" points="135.6369,-65.0001 145.6369,-61.5 135.6369,-58.0001 135.6369,-65.0001"/>
</g>
<!-- Node12 -->
<g id="node4" class="node">
<title>Node12</title>
<g id="a_node4"><a xlink:href="classbfl_1_1FilteringAlgorithm.html#a5fc12882356f6906b102fbfff2bc4b7c" target="_top" xlink:title="bfl::FilteringAlgorithm\l::runCondition">
<polygon fill="#ffffff" stroke="#000000" points="145.9209,-.5 145.9209,-28.5 255.8418,-28.5 255.8418,-.5 145.9209,-.5"/>
<text text-anchor="start" x="153.9209" y="-16.5" font-family="Helvetica,sans-Serif" font-size="10.00" fill="#000000">bfl::FilteringAlgorithm</text>
<text text-anchor="middle" x="200.8813" y="-6.5" font-family="Helvetica,sans-Serif" font-size="10.00" fill="#000000">::runCondition</text>
</a>
</g>
</g>
<!-- Node9&#45;&gt;Node12 -->
<g id="edge3" class="edge">
<title>Node9&#45;&gt;Node12</title>
<path fill="none" stroke="#191970" d="M98.7415,-47.3985C114.1055,-42.4498 131.5363,-36.8355 147.5933,-31.6637"/>
<polygon fill="#191970" stroke="#191970" points="148.9374,-34.9079 157.3828,-28.5106 146.7913,-28.245 148.9374,-34.9079"/>
</g>
</g>
</svg>
