<?xml version="1.0" encoding="UTF-8" standalone="no"?>
<!DOCTYPE svg PUBLIC "-//W3C//DTD SVG 1.1//EN"
 "http://www.w3.org/Graphics/SVG/1.1/DTD/svg11.dtd">
<!-- Generated by graphviz version 2.40.1 (20161225.0304)
 -->
<!-- Title: bfl::GaussianMixture Pages: 1 -->
<svg width="180pt" height="82pt"
 viewBox="0.00 0.00 180.42 82.00" xmlns="http://www.w3.org/2000/svg" xmlns:xlink="http://www.w3.org/1999/xlink">
<g id="graph0" class="graph" transform="scale(1 1) rotate(0) translate(4 78)">
<title>bfl::GaussianMixture</title>
<polygon fill="#ffffff" stroke="transparent" points="-4,4 -4,-78 176.4185,-78 176.4185,4 -4,4"/>
<!-- Node0 -->
<g id="node1" class="node">
<title>Node0</title>
<polygon fill="#bfbfbf" stroke="#000000" points="30.6084,-55.5 30.6084,-73.5 137.7559,-73.5 137.7559,-55.5 30.6084,-55.5"/>
<text text-anchor="middle" x="84.1821" y="-61.5" font-family="Helvetica,sans-Serif" font-size="10.00" fill="#000000">bfl::GaussianMixture</text>
</g>
<!-- Node1 -->
<g id="node2" class="node">
<title>Node1</title>
<g id="a_node2"><a xlink:href="classbfl_1_1Gaussian.html" target="_top" xlink:title="bfl::Gaussian">
<polygon fill="#ffffff" stroke="#000000" points="0,-.5 0,-18.5 74.3643,-18.5 74.3643,-.5 0,-.5"/>
<text text-anchor="middle" x="37.1821" y="-6.5" font-family="Helvetica,sans-Serif" font-size="10.00" fill="#000000">bfl::Gaussian</text>
</a>
</g>
</g>
<!-- Node0&#45;&gt;Node1 -->
<g id="edge1" class="edge">
<title>Node0&#45;&gt;Node1</title>
<path fill="none" stroke="#191970" d="M69.8474,-47.7253C61.7204,-38.215 51.8593,-26.6754 45.1118,-18.7795"/>
<polygon fill="#191970" stroke="#191970" points="67.2637,-50.0893 76.421,-55.4179 72.5853,-45.5417 67.2637,-50.0893"/>
</g>
<!-- Node2 -->
<g id="node3" class="node">
<title>Node2</title>
<g id="a_node3"><a xlink:href="classbfl_1_1ParticleSet.html" target="_top" xlink:title="bfl::ParticleSet">
<polygon fill="#ffffff" stroke="#000000" points="91.9458,-.5 91.9458,-18.5 172.4185,-18.5 172.4185,-.5 91.9458,-.5"/>
<text text-anchor="middle" x="132.1821" y="-6.5" font-family="Helvetica,sans-Serif" font-size="10.00" fill="#000000">bfl::ParticleSet</text>
</a>
</g>
</g>
<!-- Node0&#45;&gt;Node2 -->
<g id="edge2" class="edge">
<title>Node0&#45;&gt;Node2</title>
<path fill="none" stroke="#191970" d="M98.8218,-47.7253C107.1217,-38.215 117.1927,-26.6754 124.0837,-18.7795"/>
<polygon fill="#191970" stroke="#191970" points="96.0467,-45.5822 92.1084,-55.4179 101.3207,-50.185 96.0467,-45.5822"/>
</g>
</g>
</svg>
