<?xml version="1.0" encoding="UTF-8" standalone="no"?>
<!DOCTYPE svg PUBLIC "-//W3C//DTD SVG 1.1//EN"
 "http://www.w3.org/Graphics/SVG/1.1/DTD/svg11.dtd">
<!-- Generated by graphviz version 2.40.1 (20161225.0304)
 -->
<!-- Title: bfl::LTIStateModel Pages: 1 -->
<svg width="126pt" height="192pt"
 viewBox="0.00 0.00 126.28 192.00" xmlns="http://www.w3.org/2000/svg" xmlns:xlink="http://www.w3.org/1999/xlink">
<g id="graph0" class="graph" transform="scale(1 1) rotate(0) translate(4 188)">
<title>bfl::LTIStateModel</title>
<polygon fill="#ffffff" stroke="transparent" points="-4,4 -4,-188 122.2803,-188 122.2803,4 -4,4"/>
<!-- Node0 -->
<g id="node1" class="node">
<title>Node0</title>
<polygon fill="#bfbfbf" stroke="#000000" points="10.9326,-.5 10.9326,-18.5 107.3477,-18.5 107.3477,-.5 10.9326,-.5"/>
<text text-anchor="middle" x="59.1401" y="-6.5" font-family="Helvetica,sans-Serif" font-size="10.00" fill="#000000">bfl::LTIStateModel</text>
</g>
<!-- Node1 -->
<g id="node2" class="node">
<title>Node1</title>
<g id="a_node2"><a xlink:href="classbfl_1_1LinearStateModel.html" target="_top" xlink:title="bfl::LinearStateModel">
<polygon fill="#ffffff" stroke="#000000" points="3.8892,-55.5 3.8892,-73.5 114.3911,-73.5 114.3911,-55.5 3.8892,-55.5"/>
<text text-anchor="middle" x="59.1401" y="-61.5" font-family="Helvetica,sans-Serif" font-size="10.00" fill="#000000">bfl::LinearStateModel</text>
</a>
</g>
</g>
<!-- Node1&#45;&gt;Node0 -->
<g id="edge1" class="edge">
<title>Node1&#45;&gt;Node0</title>
<path fill="none" stroke="#191970" d="M59.1401,-45.383C59.1401,-36.3738 59.1401,-26.0373 59.1401,-18.7795"/>
<polygon fill="#191970" stroke="#191970" points="55.6402,-45.4178 59.1401,-55.4179 62.6402,-45.4179 55.6402,-45.4178"/>
</g>
<!-- Node2 -->
<g id="node3" class="node">
<title>Node2</title>
<g id="a_node3"><a xlink:href="classbfl_1_1AdditiveStateModel.html" target="_top" xlink:title="bfl::AdditiveStateModel">
<polygon fill="#ffffff" stroke="#000000" points="0,-110.5 0,-128.5 118.2803,-128.5 118.2803,-110.5 0,-110.5"/>
<text text-anchor="middle" x="59.1401" y="-116.5" font-family="Helvetica,sans-Serif" font-size="10.00" fill="#000000">bfl::AdditiveStateModel</text>
</a>
</g>
</g>
<!-- Node2&#45;&gt;Node1 -->
<g id="edge2" class="edge">
<title>Node2&#45;&gt;Node1</title>
<path fill="none" stroke="#191970" d="M59.1401,-100.383C59.1401,-91.3738 59.1401,-81.0373 59.1401,-73.7795"/>
<polygon fill="#191970" stroke="#191970" points="55.6402,-100.4178 59.1401,-110.4179 62.6402,-100.4179 55.6402,-100.4178"/>
</g>
<!-- Node3 -->
<g id="node4" class="node">
<title>Node3</title>
<g id="a_node4"><a xlink:href="classbfl_1_1StateModel.html" target="_top" xlink:title="bfl::StateModel">
<polygon fill="#ffffff" stroke="#000000" points="17.7881,-165.5 17.7881,-183.5 100.4922,-183.5 100.4922,-165.5 17.7881,-165.5"/>
<text text-anchor="middle" x="59.1401" y="-171.5" font-family="Helvetica,sans-Serif" font-size="10.00" fill="#000000">bfl::StateModel</text>
</a>
</g>
</g>
<!-- Node3&#45;&gt;Node2 -->
<g id="edge3" class="edge">
<title>Node3&#45;&gt;Node2</title>
<path fill="none" stroke="#191970" d="M59.1401,-155.383C59.1401,-146.3738 59.1401,-136.0373 59.1401,-128.7795"/>
<polygon fill="#191970" stroke="#191970" points="55.6402,-155.4178 59.1401,-165.4179 62.6402,-155.4179 55.6402,-155.4178"/>
</g>
</g>
</svg>
