<?xml version="1.0" encoding="UTF-8" standalone="no"?>
<!DOCTYPE svg PUBLIC "-//W3C//DTD SVG 1.1//EN"
 "http://www.w3.org/Graphics/SVG/1.1/DTD/svg11.dtd">
<!-- Generated by graphviz version 2.40.1 (20161225.0304)
 -->
<!-- Title: bfl::MeasurementModel Pages: 1 -->
<svg width="387pt" height="312pt"
 viewBox="0.00 0.00 387.23 312.00" xmlns="http://www.w3.org/2000/svg" xmlns:xlink="http://www.w3.org/1999/xlink">
<g id="graph0" class="graph" transform="scale(1 1) rotate(0) translate(4 308)">
<title>bfl::MeasurementModel</title>
<polygon fill="#ffffff" stroke="transparent" points="-4,4 -4,-308 383.2334,-308 383.2334,4 -4,4"/>
<!-- Node0 -->
<g id="node1" class="node">
<title>Node0</title>
<polygon fill="#bfbfbf" stroke="#000000" points="153.7881,-230.5 153.7881,-248.5 274.2803,-248.5 274.2803,-230.5 153.7881,-230.5"/>
<text text-anchor="middle" x="214.0342" y="-236.5" font-family="Helvetica,sans-Serif" font-size="10.00" fill="#000000">bfl::MeasurementModel</text>
</g>
<!-- Node2 -->
<g id="node3" class="node">
<title>Node2</title>
<g id="a_node3"><a xlink:href="classbfl_1_1AdditiveMeasurementModel.html" target="_top" xlink:title="bfl::AdditiveMeasurement\lModel">
<polygon fill="#ffffff" stroke="#000000" points="67.6182,-165.5 67.6182,-193.5 196.4502,-193.5 196.4502,-165.5 67.6182,-165.5"/>
<text text-anchor="start" x="75.6182" y="-181.5" font-family="Helvetica,sans-Serif" font-size="10.00" fill="#000000">bfl::AdditiveMeasurement</text>
<text text-anchor="middle" x="132.0342" y="-171.5" font-family="Helvetica,sans-Serif" font-size="10.00" fill="#000000">Model</text>
</a>
</g>
</g>
<!-- Node0&#45;&gt;Node2 -->
<g id="edge2" class="edge">
<title>Node0&#45;&gt;Node2</title>
<path fill="none" stroke="#191970" d="M193.3157,-224.3402C180.4207,-214.9048 163.9478,-202.8515 151.3292,-193.6183"/>
<polygon fill="#191970" stroke="#191970" points="191.443,-227.3068 201.5801,-230.3873 195.5766,-221.6575 191.443,-227.3068"/>
</g>
<!-- Node7 -->
<g id="node8" class="node">
<title>Node7</title>
<g id="a_node8"><a xlink:href="classbfl_1_1MeasurementModelDecorator.html" target="_top" xlink:title="bfl::MeasurementModelDecorator">
<polygon fill="#ffffff" stroke="#000000" points="214.835,-170.5 214.835,-188.5 379.2334,-188.5 379.2334,-170.5 214.835,-170.5"/>
<text text-anchor="middle" x="297.0342" y="-176.5" font-family="Helvetica,sans-Serif" font-size="10.00" fill="#000000">bfl::MeasurementModelDecorator</text>
</a>
</g>
</g>
<!-- Node0&#45;&gt;Node7 -->
<g id="edge7" class="edge">
<title>Node0&#45;&gt;Node7</title>
<path fill="none" stroke="#191970" d="M235.1495,-224.2359C250.773,-212.9418 271.5248,-197.9405 284.5816,-188.5019"/>
<polygon fill="#191970" stroke="#191970" points="232.6938,-221.6923 226.6401,-230.3873 236.7948,-227.3653 232.6938,-221.6923"/>
</g>
<!-- Node1 -->
<g id="node2" class="node">
<title>Node1</title>
<g id="a_node2"><a xlink:href="classbfl_1_1Logger.html" target="_top" xlink:title="bfl::Logger">
<polygon fill="#ffffff" stroke="#000000" points="182.4063,-285.5 182.4063,-303.5 245.6621,-303.5 245.6621,-285.5 182.4063,-285.5"/>
<text text-anchor="middle" x="214.0342" y="-291.5" font-family="Helvetica,sans-Serif" font-size="10.00" fill="#000000">bfl::Logger</text>
</a>
</g>
</g>
<!-- Node1&#45;&gt;Node0 -->
<g id="edge1" class="edge">
<title>Node1&#45;&gt;Node0</title>
<path fill="none" stroke="#191970" d="M214.0342,-275.383C214.0342,-266.3738 214.0342,-256.0373 214.0342,-248.7795"/>
<polygon fill="#191970" stroke="#191970" points="210.5343,-275.4178 214.0342,-285.4179 217.5343,-275.4179 210.5343,-275.4178"/>
</g>
<!-- Node3 -->
<g id="node4" class="node">
<title>Node3</title>
<g id="a_node4"><a xlink:href="classbfl_1_1LinearMeasurementModel.html" target="_top" xlink:title="bfl::LinearMeasurementModel">
<polygon fill="#ffffff" stroke="#000000" points="57.8892,-110.5 57.8892,-128.5 206.1792,-128.5 206.1792,-110.5 57.8892,-110.5"/>
<text text-anchor="middle" x="132.0342" y="-116.5" font-family="Helvetica,sans-Serif" font-size="10.00" fill="#000000">bfl::LinearMeasurementModel</text>
</a>
</g>
</g>
<!-- Node2&#45;&gt;Node3 -->
<g id="edge3" class="edge">
<title>Node2&#45;&gt;Node3</title>
<path fill="none" stroke="#191970" d="M132.0342,-155.2151C132.0342,-145.8253 132.0342,-135.6598 132.0342,-128.5842"/>
<polygon fill="#191970" stroke="#191970" points="128.5343,-155.2808 132.0342,-165.2808 135.5343,-155.2809 128.5343,-155.2808"/>
</g>
<!-- Node4 -->
<g id="node5" class="node">
<title>Node4</title>
<g id="a_node5"><a xlink:href="classbfl_1_1LinearModel.html" target="_top" xlink:title="bfl::LinearModel">
<polygon fill="#ffffff" stroke="#000000" points="24.458,-55.5 24.458,-73.5 111.6104,-73.5 111.6104,-55.5 24.458,-55.5"/>
<text text-anchor="middle" x="68.0342" y="-61.5" font-family="Helvetica,sans-Serif" font-size="10.00" fill="#000000">bfl::LinearModel</text>
</a>
</g>
</g>
<!-- Node3&#45;&gt;Node4 -->
<g id="edge4" class="edge">
<title>Node3&#45;&gt;Node4</title>
<path fill="none" stroke="#191970" d="M113.844,-103.8678C102.54,-94.1535 88.3913,-81.9944 78.8321,-73.7795"/>
<polygon fill="#191970" stroke="#191970" points="111.6005,-106.5546 121.4659,-110.4179 116.1629,-101.2457 111.6005,-106.5546"/>
</g>
<!-- Node6 -->
<g id="node7" class="node">
<title>Node6</title>
<g id="a_node7"><a xlink:href="classbfl_1_1LTIMeasurementModel.html" target="_top" xlink:title="bfl::LTIMeasurementModel">
<polygon fill="#ffffff" stroke="#000000" points="129.9326,-55.5 129.9326,-73.5 264.1357,-73.5 264.1357,-55.5 129.9326,-55.5"/>
<text text-anchor="middle" x="197.0342" y="-61.5" font-family="Helvetica,sans-Serif" font-size="10.00" fill="#000000">bfl::LTIMeasurementModel</text>
</a>
</g>
</g>
<!-- Node3&#45;&gt;Node6 -->
<g id="edge6" class="edge">
<title>Node3&#45;&gt;Node6</title>
<path fill="none" stroke="#191970" d="M150.5086,-103.8678C161.9892,-94.1535 176.3589,-81.9944 186.0675,-73.7795"/>
<polygon fill="#191970" stroke="#191970" points="148.1407,-101.2866 142.7676,-110.4179 152.6623,-106.6303 148.1407,-101.2866"/>
</g>
<!-- Node5 -->
<g id="node6" class="node">
<title>Node5</title>
<g id="a_node6"><a xlink:href="classbfl_1_1SimulatedLinearSensor.html" target="_top" xlink:title="bfl::SimulatedLinearSensor">
<polygon fill="#ffffff" stroke="#000000" points="0,-.5 0,-18.5 136.0684,-18.5 136.0684,-.5 0,-.5"/>
<text text-anchor="middle" x="68.0342" y="-6.5" font-family="Helvetica,sans-Serif" font-size="10.00" fill="#000000">bfl::SimulatedLinearSensor</text>
</a>
</g>
</g>
<!-- Node4&#45;&gt;Node5 -->
<g id="edge5" class="edge">
<title>Node4&#45;&gt;Node5</title>
<path fill="none" stroke="#191970" d="M68.0342,-45.383C68.0342,-36.3738 68.0342,-26.0373 68.0342,-18.7795"/>
<polygon fill="#191970" stroke="#191970" points="64.5343,-45.4178 68.0342,-55.4179 71.5343,-45.4179 64.5343,-45.4178"/>
</g>
</g>
</svg>
