<?xml version="1.0" encoding="UTF-8" standalone="no"?>
<!DOCTYPE svg PUBLIC "-//W3C//DTD SVG 1.1//EN"
 "http://www.w3.org/Graphics/SVG/1.1/DTD/svg11.dtd">
<!-- Generated by graphviz version 2.40.1 (20161225.0304)
 -->
<!-- Title: bfl::KFCorrection::correctStep Pages: 1 -->
<svg width="248pt" height="121pt"
 viewBox="0.00 0.00 247.73 121.00" xmlns="http://www.w3.org/2000/svg" xmlns:xlink="http://www.w3.org/1999/xlink">
<g id="graph0" class="graph" transform="scale(1 1) rotate(0) translate(4 117)">
<title>bfl::KFCorrection::correctStep</title>
<polygon fill="#ffffff" stroke="transparent" points="-4,4 -4,-117 243.7285,-117 243.7285,4 -4,4"/>
<!-- Node4 -->
<g id="node1" class="node">
<title>Node4</title>
<polygon fill="#bfbfbf" stroke="#000000" points="0,-47.5 0,-75.5 96.5811,-75.5 96.5811,-47.5 0,-47.5"/>
<text text-anchor="start" x="8" y="-63.5" font-family="Helvetica,sans-Serif" font-size="10.00" fill="#000000">bfl::KFCorrection::</text>
<text text-anchor="middle" x="48.2905" y="-53.5" font-family="Helvetica,sans-Serif" font-size="10.00" fill="#000000">correctStep</text>
</g>
<!-- Node5 -->
<g id="node2" class="node">
<title>Node5</title>
<g id="a_node2"><a xlink:href="namespacebfl_1_1any.html#a4ecb51ad57b3fa935cabdc0dcdcb4df1" target="_top" xlink:title="Performs type&#45;safe access to the contained object. ">
<polygon fill="#ffffff" stroke="#000000" points="139.2437,-94.5 139.2437,-112.5 233.0659,-112.5 233.0659,-94.5 139.2437,-94.5"/>
<text text-anchor="middle" x="186.1548" y="-100.5" font-family="Helvetica,sans-Serif" font-size="10.00" fill="#000000">bfl::any::any_cast</text>
</a>
</g>
</g>
<!-- Node4&#45;&gt;Node5 -->
<g id="edge1" class="edge">
<title>Node4&#45;&gt;Node5</title>
<path fill="none" stroke="#191970" d="M94.5809,-75.6022C111.4236,-80.7333 130.2951,-86.4825 146.5105,-91.4225"/>
<polygon fill="#191970" stroke="#191970" points="145.6358,-94.8147 156.2217,-94.381 147.6758,-88.1186 145.6358,-94.8147"/>
</g>
<!-- Node6 -->
<g id="node3" class="node">
<title>Node6</title>
<g id="a_node3"><a xlink:href="classbfl_1_1GaussianMixture.html#a65a60ef46d16ac33196a09963bbccdee" target="_top" xlink:title="bfl::GaussianMixture\l::covariance">
<polygon fill="#ffffff" stroke="#000000" points="132.5811,-47.5 132.5811,-75.5 239.7285,-75.5 239.7285,-47.5 132.5811,-47.5"/>
<text text-anchor="start" x="140.5811" y="-63.5" font-family="Helvetica,sans-Serif" font-size="10.00" fill="#000000">bfl::GaussianMixture</text>
<text text-anchor="middle" x="186.1548" y="-53.5" font-family="Helvetica,sans-Serif" font-size="10.00" fill="#000000">::covariance</text>
</a>
</g>
</g>
<!-- Node4&#45;&gt;Node6 -->
<g id="edge2" class="edge">
<title>Node4&#45;&gt;Node6</title>
<path fill="none" stroke="#191970" d="M96.8963,-61.5C105.0532,-61.5 113.6272,-61.5 122.1022,-61.5"/>
<polygon fill="#191970" stroke="#191970" points="122.3563,-65.0001 132.3562,-61.5 122.3562,-58.0001 122.3563,-65.0001"/>
</g>
<!-- Node7 -->
<g id="node4" class="node">
<title>Node7</title>
<g id="a_node4"><a xlink:href="classbfl_1_1GaussianMixture.html#af4fd865a97ac27c72510cfbf9429bd97" target="_top" xlink:title="bfl::GaussianMixture\l::mean">
<polygon fill="#ffffff" stroke="#000000" points="132.5811,-.5 132.5811,-28.5 239.7285,-28.5 239.7285,-.5 132.5811,-.5"/>
<text text-anchor="start" x="140.5811" y="-16.5" font-family="Helvetica,sans-Serif" font-size="10.00" fill="#000000">bfl::GaussianMixture</text>
<text text-anchor="middle" x="186.1548" y="-6.5" font-family="Helvetica,sans-Serif" font-size="10.00" fill="#000000">::mean</text>
</a>
</g>
</g>
<!-- Node4&#45;&gt;Node7 -->
<g id="edge3" class="edge">
<title>Node4&#45;&gt;Node7</title>
<path fill="none" stroke="#191970" d="M89.6544,-47.3985C103.9681,-42.5187 120.1805,-36.9916 135.1748,-31.8798"/>
<polygon fill="#191970" stroke="#191970" points="136.4845,-35.1312 144.8202,-28.5916 134.2257,-28.5057 136.4845,-35.1312"/>
</g>
</g>
</svg>
