<?xml version="1.0" encoding="UTF-8" standalone="no"?>
<!DOCTYPE svg PUBLIC "-//W3C//DTD SVG 1.1//EN"
 "http://www.w3.org/Graphics/SVG/1.1/DTD/svg11.dtd">
<!-- Generated by graphviz version 2.40.1 (20161225.0304)
 -->
<!-- Title: bfl::GPFCorrection::correctStep Pages: 1 -->
<svg width="251pt" height="168pt"
 viewBox="0.00 0.00 250.51 168.00" xmlns="http://www.w3.org/2000/svg" xmlns:xlink="http://www.w3.org/1999/xlink">
<g id="graph0" class="graph" transform="scale(1 1) rotate(0) translate(4 164)">
<title>bfl::GPFCorrection::correctStep</title>
<polygon fill="#ffffff" stroke="transparent" points="-4,4 -4,-164 246.5117,-164 246.5117,4 -4,4"/>
<!-- Node5 -->
<g id="node1" class="node">
<title>Node5</title>
<polygon fill="#bfbfbf" stroke="#000000" points="0,-63.5 0,-91.5 98.8027,-91.5 98.8027,-63.5 0,-63.5"/>
<text text-anchor="start" x="8" y="-79.5" font-family="Helvetica,sans-Serif" font-size="10.00" fill="#000000">bfl::GPFCorrection</text>
<text text-anchor="middle" x="49.4014" y="-69.5" font-family="Helvetica,sans-Serif" font-size="10.00" fill="#000000">::correctStep</text>
</g>
<!-- Node6 -->
<g id="node2" class="node">
<title>Node6</title>
<g id="a_node2"><a xlink:href="classbfl_1_1GaussianMixture.html#a65a60ef46d16ac33196a09963bbccdee" target="_top" xlink:title="bfl::GaussianMixture\l::covariance">
<polygon fill="#ffffff" stroke="#000000" points="135.0835,-131.5 135.0835,-159.5 242.231,-159.5 242.231,-131.5 135.0835,-131.5"/>
<text text-anchor="start" x="143.0835" y="-147.5" font-family="Helvetica,sans-Serif" font-size="10.00" fill="#000000">bfl::GaussianMixture</text>
<text text-anchor="middle" x="188.6572" y="-137.5" font-family="Helvetica,sans-Serif" font-size="10.00" fill="#000000">::covariance</text>
</a>
</g>
</g>
<!-- Node5&#45;&gt;Node6 -->
<g id="edge1" class="edge">
<title>Node5&#45;&gt;Node6</title>
<path fill="none" stroke="#191970" d="M74.9116,-91.6387C91.7424,-100.7932 114.3746,-112.7755 134.8027,-122.5 138.1677,-124.1018 141.6731,-125.7165 145.2099,-127.3075"/>
<polygon fill="#191970" stroke="#191970" points="144.0082,-130.6028 154.57,-131.4385 146.8346,-124.1987 144.0082,-130.6028"/>
</g>
<!-- Node7 -->
<g id="node3" class="node">
<title>Node7</title>
<g id="a_node3"><a xlink:href="classbfl_1_1GaussianMixture.html#af4fd865a97ac27c72510cfbf9429bd97" target="_top" xlink:title="bfl::GaussianMixture\l::mean">
<polygon fill="#ffffff" stroke="#000000" points="135.0835,-84.5 135.0835,-112.5 242.231,-112.5 242.231,-84.5 135.0835,-84.5"/>
<text text-anchor="start" x="143.0835" y="-100.5" font-family="Helvetica,sans-Serif" font-size="10.00" fill="#000000">bfl::GaussianMixture</text>
<text text-anchor="middle" x="188.6572" y="-90.5" font-family="Helvetica,sans-Serif" font-size="10.00" fill="#000000">::mean</text>
</a>
</g>
</g>
<!-- Node5&#45;&gt;Node7 -->
<g id="edge2" class="edge">
<title>Node5&#45;&gt;Node7</title>
<path fill="none" stroke="#191970" d="M98.8899,-84.9629C107.3182,-86.234 116.1774,-87.5699 124.9121,-88.8871"/>
<polygon fill="#191970" stroke="#191970" points="124.6654,-92.3894 135.0756,-90.4198 125.7093,-85.4677 124.6654,-92.3894"/>
</g>
<!-- Node8 -->
<g id="node4" class="node">
<title>Node8</title>
<g id="a_node4"><a xlink:href="classbfl_1_1ParticleSet.html#a85950583083c2903f4235801cc03130c" target="_top" xlink:title="bfl::ParticleSet::state">
<polygon fill="#ffffff" stroke="#000000" points="134.8027,-47.5 134.8027,-65.5 242.5117,-65.5 242.5117,-47.5 134.8027,-47.5"/>
<text text-anchor="middle" x="188.6572" y="-53.5" font-family="Helvetica,sans-Serif" font-size="10.00" fill="#000000">bfl::ParticleSet::state</text>
</a>
</g>
</g>
<!-- Node5&#45;&gt;Node8 -->
<g id="edge3" class="edge">
<title>Node5&#45;&gt;Node8</title>
<path fill="none" stroke="#191970" d="M98.8899,-70.0371C107.2059,-68.783 115.9412,-67.4657 124.5627,-66.1656"/>
<polygon fill="#191970" stroke="#191970" points="125.233,-69.6041 134.5993,-64.652 124.1891,-62.6824 125.233,-69.6041"/>
</g>
<!-- Node9 -->
<g id="node5" class="node">
<title>Node9</title>
<g id="a_node5"><a xlink:href="classbfl_1_1GaussianMixture.html#ada5625de6a3e2f98afb5aaa148503dad" target="_top" xlink:title="bfl::GaussianMixture\l::weight">
<polygon fill="#ffffff" stroke="#000000" points="135.0835,-.5 135.0835,-28.5 242.231,-28.5 242.231,-.5 135.0835,-.5"/>
<text text-anchor="start" x="143.0835" y="-16.5" font-family="Helvetica,sans-Serif" font-size="10.00" fill="#000000">bfl::GaussianMixture</text>
<text text-anchor="middle" x="188.6572" y="-6.5" font-family="Helvetica,sans-Serif" font-size="10.00" fill="#000000">::weight</text>
</a>
</g>
</g>
<!-- Node5&#45;&gt;Node9 -->
<g id="edge4" class="edge">
<title>Node5&#45;&gt;Node9</title>
<path fill="none" stroke="#191970" d="M80.2033,-63.3515C96.4313,-55.9182 116.6766,-46.6775 134.8027,-38.5 138.9563,-36.6261 143.2938,-34.6783 147.6256,-32.7388"/>
<polygon fill="#191970" stroke="#191970" points="149.3239,-35.8135 157.0261,-28.5383 146.4682,-29.4225 149.3239,-35.8135"/>
</g>
</g>
</svg>
