<?xml version="1.0" encoding="UTF-8" standalone="no"?>
<!DOCTYPE svg PUBLIC "-//W3C//DTD SVG 1.1//EN"
 "http://www.w3.org/Graphics/SVG/1.1/DTD/svg11.dtd">
<!-- Generated by graphviz version 2.40.1 (20161225.0304)
 -->
<!-- Title: bfl::SimulatedLinearSensor::freezeMeasurements Pages: 1 -->
<svg width="468pt" height="111pt"
 viewBox="0.00 0.00 467.65 111.00" xmlns="http://www.w3.org/2000/svg" xmlns:xlink="http://www.w3.org/1999/xlink">
<g id="graph0" class="graph" transform="scale(1 1) rotate(0) translate(4 107)">
<title>bfl::SimulatedLinearSensor::freezeMeasurements</title>
<polygon fill="#ffffff" stroke="transparent" points="-4,4 -4,-107 463.6484,-107 463.6484,4 -4,4"/>
<!-- Node8 -->
<g id="node1" class="node">
<title>Node8</title>
<polygon fill="#bfbfbf" stroke="#000000" points="0,-37.5 0,-65.5 136.0684,-65.5 136.0684,-37.5 0,-37.5"/>
<text text-anchor="start" x="8" y="-53.5" font-family="Helvetica,sans-Serif" font-size="10.00" fill="#000000">bfl::SimulatedLinearSensor</text>
<text text-anchor="middle" x="68.0342" y="-43.5" font-family="Helvetica,sans-Serif" font-size="10.00" fill="#000000">::freezeMeasurements</text>
</g>
<!-- Node9 -->
<g id="node2" class="node">
<title>Node9</title>
<g id="a_node2"><a xlink:href="namespacebfl_1_1any.html#a4ecb51ad57b3fa935cabdc0dcdcb4df1" target="_top" xlink:title="Performs type&#45;safe access to the contained object. ">
<polygon fill="#ffffff" stroke="#000000" points="202.6421,-84.5 202.6421,-102.5 296.4644,-102.5 296.4644,-84.5 202.6421,-84.5"/>
<text text-anchor="middle" x="249.5532" y="-90.5" font-family="Helvetica,sans-Serif" font-size="10.00" fill="#000000">bfl::any::any_cast</text>
</a>
</g>
</g>
<!-- Node8&#45;&gt;Node9 -->
<g id="edge1" class="edge">
<title>Node8&#45;&gt;Node9</title>
<path fill="none" stroke="#191970" d="M128.7298,-65.5438C152.1463,-70.9619 178.5728,-77.0765 200.7268,-82.2025"/>
<polygon fill="#191970" stroke="#191970" points="200.0473,-85.6377 210.5789,-84.4821 201.6253,-78.8178 200.0473,-85.6377"/>
</g>
<!-- Node10 -->
<g id="node3" class="node">
<title>Node10</title>
<g id="a_node3"><a xlink:href="classbfl_1_1LinearModel.html#af248dfa32cd9145d87e84ddade6316ad" target="_top" xlink:title="bfl::LinearModel::getNoise\lSample">
<polygon fill="#ffffff" stroke="#000000" points="183.4648,-37.5 183.4648,-65.5 315.6416,-65.5 315.6416,-37.5 183.4648,-37.5"/>
<text text-anchor="start" x="191.4648" y="-53.5" font-family="Helvetica,sans-Serif" font-size="10.00" fill="#000000">bfl::LinearModel::getNoise</text>
<text text-anchor="middle" x="249.5532" y="-43.5" font-family="Helvetica,sans-Serif" font-size="10.00" fill="#000000">Sample</text>
</a>
</g>
</g>
<!-- Node8&#45;&gt;Node10 -->
<g id="edge2" class="edge">
<title>Node8&#45;&gt;Node10</title>
<path fill="none" stroke="#191970" d="M136.1416,-51.5C148.1664,-51.5 160.7578,-51.5 172.996,-51.5"/>
<polygon fill="#191970" stroke="#191970" points="173.1729,-55.0001 183.1728,-51.5 173.1728,-48.0001 173.1729,-55.0001"/>
</g>
<!-- Node11 -->
<g id="node4" class="node">
<title>Node11</title>
<g id="a_node4"><a xlink:href="classbfl_1_1SimulatedLinearSensor.html#ab75bbe744d8516c97dfc90ad499b10e6" target="_top" xlink:title="bfl::SimulatedLinearSensor::log">
<polygon fill="#ffffff" stroke="#000000" points="172.0684,-.5 172.0684,-18.5 327.0381,-18.5 327.0381,-.5 172.0684,-.5"/>
<text text-anchor="middle" x="249.5532" y="-6.5" font-family="Helvetica,sans-Serif" font-size="10.00" fill="#000000">bfl::SimulatedLinearSensor::log</text>
</a>
</g>
</g>
<!-- Node8&#45;&gt;Node11 -->
<g id="edge3" class="edge">
<title>Node8&#45;&gt;Node11</title>
<path fill="none" stroke="#191970" d="M128.7298,-37.4562C152.1463,-32.0381 178.5728,-25.9235 200.7268,-20.7975"/>
<polygon fill="#191970" stroke="#191970" points="201.6253,-24.1822 210.5789,-18.5179 200.0473,-17.3623 201.6253,-24.1822"/>
</g>
<!-- Node12 -->
<g id="node5" class="node">
<title>Node12</title>
<g id="a_node5"><a xlink:href="classbfl_1_1Logger.html#a1033ff31398484f2132f84fd140da9e3" target="_top" xlink:title="bfl::Logger::logger">
<polygon fill="#ffffff" stroke="#000000" points="363.0381,-.5 363.0381,-18.5 459.6484,-18.5 459.6484,-.5 363.0381,-.5"/>
<text text-anchor="middle" x="411.3433" y="-6.5" font-family="Helvetica,sans-Serif" font-size="10.00" fill="#000000">bfl::Logger::logger</text>
</a>
</g>
</g>
<!-- Node11&#45;&gt;Node12 -->
<g id="edge4" class="edge">
<title>Node11&#45;&gt;Node12</title>
<path fill="none" stroke="#191970" d="M327.1311,-9.5C335.6845,-9.5 344.2874,-9.5 352.5564,-9.5"/>
<polygon fill="#191970" stroke="#191970" points="352.8232,-13.0001 362.8232,-9.5 352.8232,-6.0001 352.8232,-13.0001"/>
</g>
</g>
</svg>
