<?xml version="1.0" encoding="UTF-8" standalone="no"?>
<!DOCTYPE svg PUBLIC "-//W3C//DTD SVG 1.1//EN"
 "http://www.w3.org/Graphics/SVG/1.1/DTD/svg11.dtd">
<!-- Generated by graphviz version 2.40.1 (20161225.0304)
 -->
<!-- Title: bfl::InitSurveillanceAreaGrid::initialize Pages: 1 -->
<svg width="273pt" height="74pt"
 viewBox="0.00 0.00 272.76 74.00" xmlns="http://www.w3.org/2000/svg" xmlns:xlink="http://www.w3.org/1999/xlink">
<g id="graph0" class="graph" transform="scale(1 1) rotate(0) translate(4 70)">
<title>bfl::InitSurveillanceAreaGrid::initialize</title>
<polygon fill="#ffffff" stroke="transparent" points="-4,4 -4,-70 268.7627,-70 268.7627,4 -4,4"/>
<!-- Node3 -->
<g id="node1" class="node">
<title>Node3</title>
<polygon fill="#bfbfbf" stroke="#000000" points="0,-21.5 0,-49.5 121.0537,-49.5 121.0537,-21.5 0,-21.5"/>
<text text-anchor="start" x="8" y="-37.5" font-family="Helvetica,sans-Serif" font-size="10.00" fill="#000000">bfl::InitSurveillanceArea</text>
<text text-anchor="middle" x="60.5269" y="-27.5" font-family="Helvetica,sans-Serif" font-size="10.00" fill="#000000">Grid::initialize</text>
</g>
<!-- Node4 -->
<g id="node2" class="node">
<title>Node4</title>
<g id="a_node2"><a xlink:href="classbfl_1_1ParticleSet.html#a85950583083c2903f4235801cc03130c" target="_top" xlink:title="bfl::ParticleSet::state">
<polygon fill="#ffffff" stroke="#000000" points="157.0537,-47.5 157.0537,-65.5 264.7627,-65.5 264.7627,-47.5 157.0537,-47.5"/>
<text text-anchor="middle" x="210.9082" y="-53.5" font-family="Helvetica,sans-Serif" font-size="10.00" fill="#000000">bfl::ParticleSet::state</text>
</a>
</g>
</g>
<!-- Node3&#45;&gt;Node4 -->
<g id="edge1" class="edge">
<title>Node3&#45;&gt;Node4</title>
<path fill="none" stroke="#191970" d="M121.2592,-43.981C129.6045,-45.1463 138.1966,-46.3462 146.6033,-47.5201"/>
<polygon fill="#191970" stroke="#191970" points="146.3486,-51.0185 156.7366,-48.9352 147.3168,-44.0857 146.3486,-51.0185"/>
</g>
<!-- Node5 -->
<g id="node3" class="node">
<title>Node5</title>
<g id="a_node3"><a xlink:href="classbfl_1_1GaussianMixture.html#ada5625de6a3e2f98afb5aaa148503dad" target="_top" xlink:title="bfl::GaussianMixture\l::weight">
<polygon fill="#ffffff" stroke="#000000" points="157.3345,-.5 157.3345,-28.5 264.4819,-28.5 264.4819,-.5 157.3345,-.5"/>
<text text-anchor="start" x="165.3345" y="-16.5" font-family="Helvetica,sans-Serif" font-size="10.00" fill="#000000">bfl::GaussianMixture</text>
<text text-anchor="middle" x="210.9082" y="-6.5" font-family="Helvetica,sans-Serif" font-size="10.00" fill="#000000">::weight</text>
</a>
</g>
</g>
<!-- Node3&#45;&gt;Node5 -->
<g id="edge2" class="edge">
<title>Node3&#45;&gt;Node5</title>
<path fill="none" stroke="#191970" d="M121.2592,-27.019C129.8134,-25.8245 138.6269,-24.5937 147.2343,-23.3917"/>
<polygon fill="#191970" stroke="#191970" points="147.7961,-26.8473 157.2159,-21.9979 146.8279,-19.9146 147.7961,-26.8473"/>
</g>
</g>
</svg>
