<?xml version="1.0" encoding="UTF-8" standalone="no"?>
<!DOCTYPE svg PUBLIC "-//W3C//DTD SVG 1.1//EN"
 "http://www.w3.org/Graphics/SVG/1.1/DTD/svg11.dtd">
<!-- Generated by graphviz version 2.40.1 (20161225.0304)
 -->
<!-- Title: bfl::ResamplingWithPrior::resample Pages: 1 -->
<svg width="445pt" height="220pt"
 viewBox="0.00 0.00 445.35 220.00" xmlns="http://www.w3.org/2000/svg" xmlns:xlink="http://www.w3.org/1999/xlink">
<g id="graph0" class="graph" transform="scale(1 1) rotate(0) translate(4 216)">
<title>bfl::ResamplingWithPrior::resample</title>
<polygon fill="#ffffff" stroke="transparent" points="-4,4 -4,-216 441.3486,-216 441.3486,4 -4,4"/>
<!-- Node8 -->
<g id="node1" class="node">
<title>Node8</title>
<polygon fill="#bfbfbf" stroke="#000000" points="0,-90.5 0,-118.5 126.0342,-118.5 126.0342,-90.5 0,-90.5"/>
<text text-anchor="start" x="8" y="-106.5" font-family="Helvetica,sans-Serif" font-size="10.00" fill="#000000">bfl::ResamplingWithPrior</text>
<text text-anchor="middle" x="63.0171" y="-96.5" font-family="Helvetica,sans-Serif" font-size="10.00" fill="#000000">::resample</text>
</g>
<!-- Node9 -->
<g id="node2" class="node">
<title>Node9</title>
<g id="a_node2"><a xlink:href="classbfl_1_1GaussianMixture.html#a65a60ef46d16ac33196a09963bbccdee" target="_top" xlink:title="bfl::GaussianMixture\l::covariance">
<polygon fill="#ffffff" stroke="#000000" points="329.9204,-183.5 329.9204,-211.5 437.0679,-211.5 437.0679,-183.5 329.9204,-183.5"/>
<text text-anchor="start" x="337.9204" y="-199.5" font-family="Helvetica,sans-Serif" font-size="10.00" fill="#000000">bfl::GaussianMixture</text>
<text text-anchor="middle" x="383.4941" y="-189.5" font-family="Helvetica,sans-Serif" font-size="10.00" fill="#000000">::covariance</text>
</a>
</g>
</g>
<!-- Node8&#45;&gt;Node9 -->
<g id="edge1" class="edge">
<title>Node8&#45;&gt;Node9</title>
<path fill="none" stroke="#191970" d="M82.4576,-118.5465C101.7095,-131.7464 132.5067,-150.9972 162.0342,-161.5 213.2763,-179.7265 274.5002,-188.7802 319.5746,-193.245"/>
<polygon fill="#191970" stroke="#191970" points="319.5176,-196.755 329.8015,-194.207 320.1733,-189.7858 319.5176,-196.755"/>
</g>
<!-- Node10 -->
<g id="node3" class="node">
<title>Node10</title>
<g id="a_node3"><a xlink:href="namespacebfl_1_1utils.html#a137b996032449ce79a5638cbcbb73966" target="_top" xlink:title="Return the logarithm of the sum of exponentials. ">
<polygon fill="#ffffff" stroke="#000000" points="170.3667,-.5 170.3667,-18.5 285.3071,-18.5 285.3071,-.5 170.3667,-.5"/>
<text text-anchor="middle" x="227.8369" y="-6.5" font-family="Helvetica,sans-Serif" font-size="10.00" fill="#000000">bfl::utils::log_sum_exp</text>
</a>
</g>
</g>
<!-- Node8&#45;&gt;Node10 -->
<g id="edge2" class="edge">
<title>Node8&#45;&gt;Node10</title>
<path fill="none" stroke="#191970" d="M79.6137,-90.4246C98.5685,-74.8837 130.9845,-49.8986 162.0342,-33.5 170.1592,-29.2089 179.2207,-25.36 187.9579,-22.0661"/>
<polygon fill="#191970" stroke="#191970" points="189.394,-25.2691 197.6176,-18.5891 187.0232,-18.6828 189.394,-25.2691"/>
</g>
<!-- Node11 -->
<g id="node4" class="node">
<title>Node11</title>
<g id="a_node4"><a xlink:href="classbfl_1_1GaussianMixture.html#af4fd865a97ac27c72510cfbf9429bd97" target="_top" xlink:title="bfl::GaussianMixture\l::mean">
<polygon fill="#ffffff" stroke="#000000" points="329.9204,-135.5 329.9204,-163.5 437.0679,-163.5 437.0679,-135.5 329.9204,-135.5"/>
<text text-anchor="start" x="337.9204" y="-151.5" font-family="Helvetica,sans-Serif" font-size="10.00" fill="#000000">bfl::GaussianMixture</text>
<text text-anchor="middle" x="383.4941" y="-141.5" font-family="Helvetica,sans-Serif" font-size="10.00" fill="#000000">::mean</text>
</a>
</g>
</g>
<!-- Node8&#45;&gt;Node11 -->
<g id="edge3" class="edge">
<title>Node8&#45;&gt;Node11</title>
<path fill="none" stroke="#191970" d="M92.1375,-118.6492C111.4642,-127.2868 137.6674,-137.5855 162.0342,-142.5 214.3335,-153.0482 274.9679,-154.2214 319.5544,-153.0819"/>
<polygon fill="#191970" stroke="#191970" points="319.78,-156.5768 329.6699,-152.7768 319.5689,-149.5799 319.78,-156.5768"/>
</g>
<!-- Node12 -->
<g id="node5" class="node">
<title>Node12</title>
<g id="a_node5"><a xlink:href="classbfl_1_1Resampling.html#a7527025ad8afc6dbae2225213571391c" target="_top" xlink:title="bfl::Resampling::resample">
<polygon fill="#ffffff" stroke="#000000" points="162.0342,-114.5 162.0342,-132.5 293.6396,-132.5 293.6396,-114.5 162.0342,-114.5"/>
<text text-anchor="middle" x="227.8369" y="-120.5" font-family="Helvetica,sans-Serif" font-size="10.00" fill="#000000">bfl::Resampling::resample</text>
</a>
</g>
</g>
<!-- Node8&#45;&gt;Node12 -->
<g id="edge4" class="edge">
<title>Node8&#45;&gt;Node12</title>
<path fill="none" stroke="#191970" d="M126.2694,-111.7916C134.6865,-112.7619 143.3859,-113.7647 151.9893,-114.7565"/>
<polygon fill="#191970" stroke="#191970" points="151.6872,-118.2448 162.0222,-115.9131 152.4889,-111.2908 151.6872,-118.2448"/>
</g>
<!-- Node13 -->
<g id="node6" class="node">
<title>Node13</title>
<g id="a_node6"><a xlink:href="classbfl_1_1ParticleSet.html#a85950583083c2903f4235801cc03130c" target="_top" xlink:title="bfl::ParticleSet::state">
<polygon fill="#ffffff" stroke="#000000" points="329.6396,-95.5 329.6396,-113.5 437.3486,-113.5 437.3486,-95.5 329.6396,-95.5"/>
<text text-anchor="middle" x="383.4941" y="-101.5" font-family="Helvetica,sans-Serif" font-size="10.00" fill="#000000">bfl::ParticleSet::state</text>
</a>
</g>
</g>
<!-- Node8&#45;&gt;Node13 -->
<g id="edge9" class="edge">
<title>Node8&#45;&gt;Node13</title>
<path fill="none" stroke="#191970" d="M126.333,-104.5C182.2303,-104.5 263.3326,-104.5 319.4479,-104.5"/>
<polygon fill="#191970" stroke="#191970" points="319.6234,-108.0001 329.6234,-104.5 319.6234,-101.0001 319.6234,-108.0001"/>
</g>
<!-- Node14 -->
<g id="node7" class="node">
<title>Node14</title>
<g id="a_node7"><a xlink:href="classbfl_1_1GaussianMixture.html#ada5625de6a3e2f98afb5aaa148503dad" target="_top" xlink:title="bfl::GaussianMixture\l::weight">
<polygon fill="#ffffff" stroke="#000000" points="329.9204,-43.5 329.9204,-71.5 437.0679,-71.5 437.0679,-43.5 329.9204,-43.5"/>
<text text-anchor="start" x="337.9204" y="-59.5" font-family="Helvetica,sans-Serif" font-size="10.00" fill="#000000">bfl::GaussianMixture</text>
<text text-anchor="middle" x="383.4941" y="-49.5" font-family="Helvetica,sans-Serif" font-size="10.00" fill="#000000">::weight</text>
</a>
</g>
</g>
<!-- Node8&#45;&gt;Node14 -->
<g id="edge10" class="edge">
<title>Node8&#45;&gt;Node14</title>
<path fill="none" stroke="#191970" d="M126.333,-95.2143C182.3161,-87.004 263.5818,-75.0859 319.7063,-66.8549"/>
<polygon fill="#191970" stroke="#191970" points="320.4954,-70.2767 329.8817,-65.3626 319.4796,-63.3508 320.4954,-70.2767"/>
</g>
<!-- Node12&#45;&gt;Node9 -->
<g id="edge5" class="edge">
<title>Node12&#45;&gt;Node9</title>
<path fill="none" stroke="#191970" d="M245.7608,-132.5552C266.0201,-142.7312 300.037,-159.6401 329.6396,-173.5 333.7128,-175.407 337.9742,-177.3664 342.2393,-179.3041"/>
<polygon fill="#191970" stroke="#191970" points="340.9553,-182.5644 351.5103,-183.4822 343.8315,-176.1825 340.9553,-182.5644"/>
</g>
<!-- Node12&#45;&gt;Node11 -->
<g id="edge6" class="edge">
<title>Node12&#45;&gt;Node11</title>
<path fill="none" stroke="#191970" d="M281.8414,-132.5206C294.105,-134.569 307.242,-136.7633 319.8633,-138.8715"/>
<polygon fill="#191970" stroke="#191970" points="319.4083,-142.3439 329.8483,-140.5393 320.5616,-135.4396 319.4083,-142.3439"/>
</g>
<!-- Node12&#45;&gt;Node13 -->
<g id="edge7" class="edge">
<title>Node12&#45;&gt;Node13</title>
<path fill="none" stroke="#191970" d="M293.8496,-115.4423C302.3324,-114.4069 311.0069,-113.348 319.4574,-112.3165"/>
<polygon fill="#191970" stroke="#191970" points="320.1238,-115.7612 329.626,-111.0753 319.2756,-108.8128 320.1238,-115.7612"/>
</g>
<!-- Node12&#45;&gt;Node14 -->
<g id="edge8" class="edge">
<title>Node12&#45;&gt;Node14</title>
<path fill="none" stroke="#191970" d="M249.154,-114.4614C272.6702,-104.4903 311.1209,-88.1869 340.8736,-75.5715"/>
<polygon fill="#191970" stroke="#191970" points="342.3577,-78.7439 350.198,-71.6178 339.6251,-72.2993 342.3577,-78.7439"/>
</g>
</g>
</svg>
