<?xml version="1.0" encoding="UTF-8" standalone="no"?>
<!DOCTYPE svg PUBLIC "-//W3C//DTD SVG 1.1//EN"
 "http://www.w3.org/Graphics/SVG/1.1/DTD/svg11.dtd">
<!-- Generated by graphviz version 2.40.1 (20161225.0304)
 -->
<!-- Title: bfl::PFPrediction Pages: 1 -->
<svg width="368pt" height="82pt"
 viewBox="0.00 0.00 367.53 82.00" xmlns="http://www.w3.org/2000/svg" xmlns:xlink="http://www.w3.org/1999/xlink">
<g id="graph0" class="graph" transform="scale(1 1) rotate(0) translate(4 78)">
<title>bfl::PFPrediction</title>
<polygon fill="#ffffff" stroke="transparent" points="-4,4 -4,-78 363.5342,-78 363.5342,4 -4,4"/>
<!-- Node0 -->
<g id="node1" class="node">
<title>Node0</title>
<polygon fill="#bfbfbf" stroke="#000000" points="115.2168,-55.5 115.2168,-73.5 204.5811,-73.5 204.5811,-55.5 115.2168,-55.5"/>
<text text-anchor="middle" x="159.8989" y="-61.5" font-family="Helvetica,sans-Serif" font-size="10.00" fill="#000000">bfl::PFPrediction</text>
</g>
<!-- Node1 -->
<g id="node2" class="node">
<title>Node1</title>
<g id="a_node2"><a xlink:href="classbfl_1_1DrawParticles.html" target="_top" xlink:title="bfl::DrawParticles">
<polygon fill="#ffffff" stroke="#000000" points="0,-.5 0,-18.5 93.7979,-18.5 93.7979,-.5 0,-.5"/>
<text text-anchor="middle" x="46.8989" y="-6.5" font-family="Helvetica,sans-Serif" font-size="10.00" fill="#000000">bfl::DrawParticles</text>
</a>
</g>
</g>
<!-- Node0&#45;&gt;Node1 -->
<g id="edge1" class="edge">
<title>Node0&#45;&gt;Node1</title>
<path fill="none" stroke="#191970" d="M131.9979,-50.9198C111.3085,-40.8498 83.6707,-27.3977 65.5863,-18.5956"/>
<polygon fill="#191970" stroke="#191970" points="130.716,-54.1884 141.2393,-55.4179 133.7795,-47.8944 130.716,-54.1884"/>
</g>
<!-- Node2 -->
<g id="node3" class="node">
<title>Node2</title>
<g id="a_node3"><a xlink:href="classbfl_1_1GPFPrediction.html" target="_top" xlink:title="bfl::GPFPrediction">
<polygon fill="#ffffff" stroke="#000000" points="111.3276,-.5 111.3276,-18.5 208.4702,-18.5 208.4702,-.5 111.3276,-.5"/>
<text text-anchor="middle" x="159.8989" y="-6.5" font-family="Helvetica,sans-Serif" font-size="10.00" fill="#000000">bfl::GPFPrediction</text>
</a>
</g>
</g>
<!-- Node0&#45;&gt;Node2 -->
<g id="edge2" class="edge">
<title>Node0&#45;&gt;Node2</title>
<path fill="none" stroke="#191970" d="M159.8989,-45.383C159.8989,-36.3738 159.8989,-26.0373 159.8989,-18.7795"/>
<polygon fill="#191970" stroke="#191970" points="156.399,-45.4178 159.8989,-55.4179 163.399,-45.4179 156.399,-45.4178"/>
</g>
<!-- Node3 -->
<g id="node4" class="node">
<title>Node3</title>
<g id="a_node4"><a xlink:href="classbfl_1_1PFPredictionDecorator.html" target="_top" xlink:title="bfl::PFPredictionDecorator">
<polygon fill="#ffffff" stroke="#000000" points="226.2637,-.5 226.2637,-18.5 359.5342,-18.5 359.5342,-.5 226.2637,-.5"/>
<text text-anchor="middle" x="292.8989" y="-6.5" font-family="Helvetica,sans-Serif" font-size="10.00" fill="#000000">bfl::PFPredictionDecorator</text>
</a>
</g>
</g>
<!-- Node0&#45;&gt;Node3 -->
<g id="edge3" class="edge">
<title>Node0&#45;&gt;Node3</title>
<path fill="none" stroke="#191970" d="M191.4241,-51.4633C215.9082,-41.3383 249.2337,-27.5571 270.9041,-18.5956"/>
<polygon fill="#191970" stroke="#191970" points="189.7647,-48.362 181.8612,-55.4179 192.4397,-54.8307 189.7647,-48.362"/>
</g>
</g>
</svg>
