<?xml version="1.0" encoding="UTF-8" standalone="no"?>
<!DOCTYPE svg PUBLIC "-//W3C//DTD SVG 1.1//EN"
 "http://www.w3.org/Graphics/SVG/1.1/DTD/svg11.dtd">
<!-- Generated by graphviz version 2.40.1 (20161225.0304)
 -->
<!-- Title: bfl::GaussianFilter Pages: 1 -->
<svg width="118pt" height="137pt"
 viewBox="0.00 0.00 117.92 137.00" xmlns="http://www.w3.org/2000/svg" xmlns:xlink="http://www.w3.org/1999/xlink">
<g id="graph0" class="graph" transform="scale(1 1) rotate(0) translate(4 133)">
<title>bfl::GaussianFilter</title>
<polygon fill="#ffffff" stroke="transparent" points="-4,4 -4,-133 113.9209,-133 113.9209,4 -4,4"/>
<!-- Node0 -->
<g id="node1" class="node">
<title>Node0</title>
<polygon fill="#bfbfbf" stroke="#000000" points="6.6675,-.5 6.6675,-18.5 103.2534,-18.5 103.2534,-.5 6.6675,-.5"/>
<text text-anchor="middle" x="54.9604" y="-6.5" font-family="Helvetica,sans-Serif" font-size="10.00" fill="#000000">bfl::GaussianFilter</text>
</g>
<!-- Node1 -->
<g id="node2" class="node">
<title>Node1</title>
<g id="a_node2"><a xlink:href="classbfl_1_1FilteringAlgorithm.html" target="_top" xlink:title="bfl::FilteringAlgorithm">
<polygon fill="#ffffff" stroke="#000000" points="0,-55.5 0,-73.5 109.9209,-73.5 109.9209,-55.5 0,-55.5"/>
<text text-anchor="middle" x="54.9604" y="-61.5" font-family="Helvetica,sans-Serif" font-size="10.00" fill="#000000">bfl::FilteringAlgorithm</text>
</a>
</g>
</g>
<!-- Node1&#45;&gt;Node0 -->
<g id="edge1" class="edge">
<title>Node1&#45;&gt;Node0</title>
<path fill="none" stroke="#191970" d="M54.9604,-45.383C54.9604,-36.3738 54.9604,-26.0373 54.9604,-18.7795"/>
<polygon fill="#191970" stroke="#191970" points="51.4605,-45.4178 54.9604,-55.4179 58.4605,-45.4179 51.4605,-45.4178"/>
</g>
<!-- Node2 -->
<g id="node3" class="node">
<title>Node2</title>
<g id="a_node3"><a xlink:href="classbfl_1_1Logger.html" target="_top" xlink:title="bfl::Logger">
<polygon fill="#ffffff" stroke="#000000" points="23.3325,-110.5 23.3325,-128.5 86.5884,-128.5 86.5884,-110.5 23.3325,-110.5"/>
<text text-anchor="middle" x="54.9604" y="-116.5" font-family="Helvetica,sans-Serif" font-size="10.00" fill="#000000">bfl::Logger</text>
</a>
</g>
</g>
<!-- Node2&#45;&gt;Node1 -->
<g id="edge2" class="edge">
<title>Node2&#45;&gt;Node1</title>
<path fill="none" stroke="#191970" d="M54.9604,-100.383C54.9604,-91.3738 54.9604,-81.0373 54.9604,-73.7795"/>
<polygon fill="#191970" stroke="#191970" points="51.4605,-100.4178 54.9604,-110.4179 58.4605,-100.4179 51.4605,-100.4178"/>
</g>
</g>
</svg>
