<?xml version="1.0" encoding="UTF-8" standalone="no"?>
<!DOCTYPE svg PUBLIC "-//W3C//DTD SVG 1.1//EN"
 "http://www.w3.org/Graphics/SVG/1.1/DTD/svg11.dtd">
<!-- Generated by graphviz version 2.40.1 (20161225.0304)
 -->
<!-- Title: bfl::SimulatedLinearSensor::SimulatedLinearSensor Pages: 1 -->
<svg width="301pt" height="37pt"
 viewBox="0.00 0.00 300.56 37.00" xmlns="http://www.w3.org/2000/svg" xmlns:xlink="http://www.w3.org/1999/xlink">
<g id="graph0" class="graph" transform="scale(1 1) rotate(0) translate(4 33)">
<title>bfl::SimulatedLinearSensor::SimulatedLinearSensor</title>
<polygon fill="#ffffff" stroke="transparent" points="-4,4 -4,-33 296.5605,-33 296.5605,4 -4,4"/>
<!-- Node0 -->
<g id="node1" class="node">
<title>Node0</title>
<polygon fill="#bfbfbf" stroke="#000000" points="0,-.5 0,-28.5 136.0684,-28.5 136.0684,-.5 0,-.5"/>
<text text-anchor="start" x="8" y="-16.5" font-family="Helvetica,sans-Serif" font-size="10.00" fill="#000000">bfl::SimulatedLinearSensor</text>
<text text-anchor="middle" x="68.0342" y="-6.5" font-family="Helvetica,sans-Serif" font-size="10.00" fill="#000000">::SimulatedLinearSensor</text>
</g>
<!-- Node1 -->
<g id="node2" class="node">
<title>Node1</title>
<g id="a_node2"><a xlink:href="classbfl_1_1MeasurementModel.html#a6cca2022b576c9dbb61e73b83a10c6ee" target="_top" xlink:title="bfl::MeasurementModel\l::getOutputSize">
<polygon fill="#ffffff" stroke="#000000" points="172.0684,-.5 172.0684,-28.5 292.5605,-28.5 292.5605,-.5 172.0684,-.5"/>
<text text-anchor="start" x="180.0684" y="-16.5" font-family="Helvetica,sans-Serif" font-size="10.00" fill="#000000">bfl::MeasurementModel</text>
<text text-anchor="middle" x="232.3145" y="-6.5" font-family="Helvetica,sans-Serif" font-size="10.00" fill="#000000">::getOutputSize</text>
</a>
</g>
</g>
<!-- Node0&#45;&gt;Node1 -->
<g id="edge1" class="edge">
<title>Node0&#45;&gt;Node1</title>
<path fill="none" stroke="#191970" d="M136.2766,-14.5C144.6748,-14.5 153.2727,-14.5 161.7051,-14.5"/>
<polygon fill="#191970" stroke="#191970" points="161.8843,-18.0001 171.8843,-14.5 161.8843,-11.0001 161.8843,-18.0001"/>
</g>
</g>
</svg>
