<?xml version="1.0" encoding="UTF-8" standalone="no"?>
<!DOCTYPE svg PUBLIC "-//W3C//DTD SVG 1.1//EN"
 "http://www.w3.org/Graphics/SVG/1.1/DTD/svg11.dtd">
<!-- Generated by graphviz version 2.40.1 (20161225.0304)
 -->
<!-- Title: bfl::SimulatedStateModel Pages: 1 -->
<svg width="148pt" height="82pt"
 viewBox="0.00 0.00 147.75 82.00" xmlns="http://www.w3.org/2000/svg" xmlns:xlink="http://www.w3.org/1999/xlink">
<g id="graph0" class="graph" transform="scale(1 1) rotate(0) translate(4 78)">
<title>bfl::SimulatedStateModel</title>
<polygon fill="#ffffff" stroke="transparent" points="-4,4 -4,-78 143.7534,-78 143.7534,4 -4,4"/>
<!-- Node0 -->
<g id="node1" class="node">
<title>Node0</title>
<polygon fill="#bfbfbf" stroke="#000000" points="4.5396,-.5 4.5396,-18.5 131.7114,-18.5 131.7114,-.5 4.5396,-.5"/>
<text text-anchor="middle" x="68.1255" y="-6.5" font-family="Helvetica,sans-Serif" font-size="10.00" fill="#000000">bfl::SimulatedStateModel</text>
</g>
<!-- Node1 -->
<g id="node2" class="node">
<title>Node1</title>
<g id="a_node2"><a xlink:href="classbfl_1_1Agent.html" target="_top" xlink:title="bfl::Agent">
<polygon fill="#ffffff" stroke="#000000" points="0,-55.5 0,-73.5 58.251,-73.5 58.251,-55.5 0,-55.5"/>
<text text-anchor="middle" x="29.1255" y="-61.5" font-family="Helvetica,sans-Serif" font-size="10.00" fill="#000000">bfl::Agent</text>
</a>
</g>
</g>
<!-- Node1&#45;&gt;Node0 -->
<g id="edge1" class="edge">
<title>Node1&#45;&gt;Node0</title>
<path fill="none" stroke="#191970" d="M41.4307,-47.1465C48.0935,-37.7503 56.0597,-26.5159 61.5455,-18.7795"/>
<polygon fill="#191970" stroke="#191970" points="38.4948,-45.236 35.5655,-55.4179 44.2049,-49.285 38.4948,-45.236"/>
</g>
<!-- Node2 -->
<g id="node3" class="node">
<title>Node2</title>
<g id="a_node3"><a xlink:href="classbfl_1_1Logger.html" target="_top" xlink:title="bfl::Logger">
<polygon fill="#ffffff" stroke="#000000" points="76.4976,-55.5 76.4976,-73.5 139.7534,-73.5 139.7534,-55.5 76.4976,-55.5"/>
<text text-anchor="middle" x="108.1255" y="-61.5" font-family="Helvetica,sans-Serif" font-size="10.00" fill="#000000">bfl::Logger</text>
</a>
</g>
</g>
<!-- Node2&#45;&gt;Node0 -->
<g id="edge2" class="edge">
<title>Node2&#45;&gt;Node0</title>
<path fill="none" stroke="#191970" d="M95.5048,-47.1465C88.6711,-37.7503 80.5007,-26.5159 74.8742,-18.7795"/>
<polygon fill="#191970" stroke="#191970" points="92.808,-49.3891 101.5203,-55.4179 98.4691,-45.2719 92.808,-49.3891"/>
</g>
</g>
</svg>
