<?xml version="1.0" encoding="UTF-8" standalone="no"?>
<!DOCTYPE svg PUBLIC "-//W3C//DTD SVG 1.1//EN"
 "http://www.w3.org/Graphics/SVG/1.1/DTD/svg11.dtd">
<!-- Generated by graphviz version 2.40.1 (20161225.0304)
 -->
<!-- Title: bfl::ParticleFilter Pages: 1 -->
<svg width="118pt" height="192pt"
 viewBox="0.00 0.00 117.92 192.00" xmlns="http://www.w3.org/2000/svg" xmlns:xlink="http://www.w3.org/1999/xlink">
<g id="graph0" class="graph" transform="scale(1 1) rotate(0) translate(4 188)">
<title>bfl::ParticleFilter</title>
<polygon fill="#ffffff" stroke="transparent" points="-4,4 -4,-188 113.9209,-188 113.9209,4 -4,4"/>
<!-- Node0 -->
<g id="node1" class="node">
<title>Node0</title>
<polygon fill="#bfbfbf" stroke="#000000" points="11.1182,-55.5 11.1182,-73.5 98.8027,-73.5 98.8027,-55.5 11.1182,-55.5"/>
<text text-anchor="middle" x="54.9604" y="-61.5" font-family="Helvetica,sans-Serif" font-size="10.00" fill="#000000">bfl::ParticleFilter</text>
</g>
<!-- Node3 -->
<g id="node4" class="node">
<title>Node3</title>
<g id="a_node4"><a xlink:href="classbfl_1_1SIS.html" target="_top" xlink:title="bfl::SIS">
<polygon fill="#ffffff" stroke="#000000" points="30.8423,-.5 30.8423,-18.5 79.0786,-18.5 79.0786,-.5 30.8423,-.5"/>
<text text-anchor="middle" x="54.9604" y="-6.5" font-family="Helvetica,sans-Serif" font-size="10.00" fill="#000000">bfl::SIS</text>
</a>
</g>
</g>
<!-- Node0&#45;&gt;Node3 -->
<g id="edge3" class="edge">
<title>Node0&#45;&gt;Node3</title>
<path fill="none" stroke="#191970" d="M54.9604,-45.383C54.9604,-36.3738 54.9604,-26.0373 54.9604,-18.7795"/>
<polygon fill="#191970" stroke="#191970" points="51.4605,-45.4178 54.9604,-55.4179 58.4605,-45.4179 51.4605,-45.4178"/>
</g>
<!-- Node1 -->
<g id="node2" class="node">
<title>Node1</title>
<g id="a_node2"><a xlink:href="classbfl_1_1FilteringAlgorithm.html" target="_top" xlink:title="bfl::FilteringAlgorithm">
<polygon fill="#ffffff" stroke="#000000" points="0,-110.5 0,-128.5 109.9209,-128.5 109.9209,-110.5 0,-110.5"/>
<text text-anchor="middle" x="54.9604" y="-116.5" font-family="Helvetica,sans-Serif" font-size="10.00" fill="#000000">bfl::FilteringAlgorithm</text>
</a>
</g>
</g>
<!-- Node1&#45;&gt;Node0 -->
<g id="edge1" class="edge">
<title>Node1&#45;&gt;Node0</title>
<path fill="none" stroke="#191970" d="M54.9604,-100.383C54.9604,-91.3738 54.9604,-81.0373 54.9604,-73.7795"/>
<polygon fill="#191970" stroke="#191970" points="51.4605,-100.4178 54.9604,-110.4179 58.4605,-100.4179 51.4605,-100.4178"/>
</g>
<!-- Node2 -->
<g id="node3" class="node">
<title>Node2</title>
<g id="a_node3"><a xlink:href="classbfl_1_1Logger.html" target="_top" xlink:title="bfl::Logger">
<polygon fill="#ffffff" stroke="#000000" points="23.3325,-165.5 23.3325,-183.5 86.5884,-183.5 86.5884,-165.5 23.3325,-165.5"/>
<text text-anchor="middle" x="54.9604" y="-171.5" font-family="Helvetica,sans-Serif" font-size="10.00" fill="#000000">bfl::Logger</text>
</a>
</g>
</g>
<!-- Node2&#45;&gt;Node1 -->
<g id="edge2" class="edge">
<title>Node2&#45;&gt;Node1</title>
<path fill="none" stroke="#191970" d="M54.9604,-155.383C54.9604,-146.3738 54.9604,-136.0373 54.9604,-128.7795"/>
<polygon fill="#191970" stroke="#191970" points="51.4605,-155.4178 54.9604,-165.4179 58.4605,-155.4179 51.4605,-155.4178"/>
</g>
</g>
</svg>
