<?xml version="1.0" encoding="UTF-8" standalone="no"?>
<!DOCTYPE svg PUBLIC "-//W3C//DTD SVG 1.1//EN"
 "http://www.w3.org/Graphics/SVG/1.1/DTD/svg11.dtd">
<!-- Generated by graphviz version 2.40.1 (20161225.0304)
 -->
<!-- Title: bfl::GaussianPrediction Pages: 1 -->
<svg width="212pt" height="82pt"
 viewBox="0.00 0.00 211.98 82.00" xmlns="http://www.w3.org/2000/svg" xmlns:xlink="http://www.w3.org/1999/xlink">
<g id="graph0" class="graph" transform="scale(1 1) rotate(0) translate(4 78)">
<title>bfl::GaussianPrediction</title>
<polygon fill="#ffffff" stroke="transparent" points="-4,4 -4,-78 207.9751,-78 207.9751,4 -4,4"/>
<!-- Node0 -->
<g id="node1" class="node">
<title>Node0</title>
<polygon fill="#bfbfbf" stroke="#000000" points="40.2661,-55.5 40.2661,-73.5 159.0981,-73.5 159.0981,-55.5 40.2661,-55.5"/>
<text text-anchor="middle" x="99.6821" y="-61.5" font-family="Helvetica,sans-Serif" font-size="10.00" fill="#000000">bfl::GaussianPrediction</text>
</g>
<!-- Node1 -->
<g id="node2" class="node">
<title>Node1</title>
<g id="a_node2"><a xlink:href="classbfl_1_1KFPrediction.html" target="_top" xlink:title="bfl::KFPrediction">
<polygon fill="#ffffff" stroke="#000000" points="0,-.5 0,-18.5 89.3643,-18.5 89.3643,-.5 0,-.5"/>
<text text-anchor="middle" x="44.6821" y="-6.5" font-family="Helvetica,sans-Serif" font-size="10.00" fill="#000000">bfl::KFPrediction</text>
</a>
</g>
</g>
<!-- Node0&#45;&gt;Node1 -->
<g id="edge1" class="edge">
<title>Node0&#45;&gt;Node1</title>
<path fill="none" stroke="#191970" d="M83.4813,-48.2992C73.8649,-38.6828 62.017,-26.8349 53.9616,-18.7795"/>
<polygon fill="#191970" stroke="#191970" points="81.054,-50.8217 90.6,-55.4179 86.0038,-45.8719 81.054,-50.8217"/>
</g>
<!-- Node2 -->
<g id="node3" class="node">
<title>Node2</title>
<g id="a_node3"><a xlink:href="classbfl_1_1UKFPrediction.html" target="_top" xlink:title="bfl::UKFPrediction">
<polygon fill="#ffffff" stroke="#000000" points="107.3892,-.5 107.3892,-18.5 203.9751,-18.5 203.9751,-.5 107.3892,-.5"/>
<text text-anchor="middle" x="155.6821" y="-6.5" font-family="Helvetica,sans-Serif" font-size="10.00" fill="#000000">bfl::UKFPrediction</text>
</a>
</g>
</g>
<!-- Node0&#45;&gt;Node2 -->
<g id="edge2" class="edge">
<title>Node0&#45;&gt;Node2</title>
<path fill="none" stroke="#191970" d="M116.1775,-48.2992C125.9688,-38.6828 138.032,-26.8349 146.234,-18.7795"/>
<polygon fill="#191970" stroke="#191970" points="113.6114,-45.9137 108.9294,-55.4179 118.5164,-50.9078 113.6114,-45.9137"/>
</g>
</g>
</svg>
