<?xml version="1.0" encoding="UTF-8" standalone="no"?>
<!DOCTYPE svg PUBLIC "-//W3C//DTD SVG 1.1//EN"
 "http://www.w3.org/Graphics/SVG/1.1/DTD/svg11.dtd">
<!-- Generated by graphviz version 2.40.1 (20161225.0304)
 -->
<!-- Title: bfl::SUKFCorrection::correctStep Pages: 1 -->
<svg width="428pt" height="203pt"
 viewBox="0.00 0.00 428.12 203.00" xmlns="http://www.w3.org/2000/svg" xmlns:xlink="http://www.w3.org/1999/xlink">
<g id="graph0" class="graph" transform="scale(1 1) rotate(0) translate(4 199)">
<title>bfl::SUKFCorrection::correctStep</title>
<polygon fill="#ffffff" stroke="transparent" points="-4,4 -4,-199 424.1172,-199 424.1172,4 -4,4"/>
<!-- Node5 -->
<g id="node1" class="node">
<title>Node5</title>
<polygon fill="#bfbfbf" stroke="#000000" points="0,-90.5 0,-118.5 104.916,-118.5 104.916,-90.5 0,-90.5"/>
<text text-anchor="start" x="8" y="-106.5" font-family="Helvetica,sans-Serif" font-size="10.00" fill="#000000">bfl::SUKFCorrection</text>
<text text-anchor="middle" x="52.458" y="-96.5" font-family="Helvetica,sans-Serif" font-size="10.00" fill="#000000">::correctStep</text>
</g>
<!-- Node6 -->
<g id="node2" class="node">
<title>Node6</title>
<g id="a_node2"><a xlink:href="namespacebfl_1_1any.html#a4ecb51ad57b3fa935cabdc0dcdcb4df1" target="_top" xlink:title="Performs type&#45;safe access to the contained object. ">
<polygon fill="#ffffff" stroke="#000000" points="154.8052,-176.5 154.8052,-194.5 248.6274,-194.5 248.6274,-176.5 154.8052,-176.5"/>
<text text-anchor="middle" x="201.7163" y="-182.5" font-family="Helvetica,sans-Serif" font-size="10.00" fill="#000000">bfl::any::any_cast</text>
</a>
</g>
</g>
<!-- Node5&#45;&gt;Node6 -->
<g id="edge1" class="edge">
<title>Node5&#45;&gt;Node6</title>
<path fill="none" stroke="#191970" d="M71.817,-118.5581C89.3083,-130.8695 116.0478,-148.7366 140.916,-161.5 148.8257,-165.5596 157.5884,-169.3821 165.9412,-172.7326"/>
<polygon fill="#191970" stroke="#191970" points="164.8939,-176.0804 175.4828,-176.4347 167.426,-169.5544 164.8939,-176.0804"/>
</g>
<!-- Node7 -->
<g id="node3" class="node">
<title>Node7</title>
<g id="a_node3"><a xlink:href="classbfl_1_1GaussianMixture.html#a65a60ef46d16ac33196a09963bbccdee" target="_top" xlink:title="bfl::GaussianMixture\l::covariance">
<polygon fill="#ffffff" stroke="#000000" points="305.7432,-113.5 305.7432,-141.5 412.8906,-141.5 412.8906,-113.5 305.7432,-113.5"/>
<text text-anchor="start" x="313.7432" y="-129.5" font-family="Helvetica,sans-Serif" font-size="10.00" fill="#000000">bfl::GaussianMixture</text>
<text text-anchor="middle" x="359.3169" y="-119.5" font-family="Helvetica,sans-Serif" font-size="10.00" fill="#000000">::covariance</text>
</a>
</g>
</g>
<!-- Node5&#45;&gt;Node7 -->
<g id="edge2" class="edge">
<title>Node5&#45;&gt;Node7</title>
<path fill="none" stroke="#191970" d="M95.1826,-118.5418C109.5489,-122.6029 125.7739,-126.4823 140.916,-128.5 192.5873,-135.3851 251.747,-134.5869 295.4504,-132.372"/>
<polygon fill="#191970" stroke="#191970" points="295.8572,-135.8551 305.6515,-131.8152 295.4756,-128.8655 295.8572,-135.8551"/>
</g>
<!-- Node8 -->
<g id="node4" class="node">
<title>Node8</title>
<g id="a_node4"><a xlink:href="namespacebfl_1_1directional__statistics.html#a18bffca88c7ea5f4ea11d2ad910736fe" target="_top" xlink:title="bfl::directional_statistics\l::directional_sub">
<polygon fill="#ffffff" stroke="#000000" points="140.916,-90.5 140.916,-118.5 262.5166,-118.5 262.5166,-90.5 140.916,-90.5"/>
<text text-anchor="start" x="148.916" y="-106.5" font-family="Helvetica,sans-Serif" font-size="10.00" fill="#000000">bfl::directional_statistics</text>
<text text-anchor="middle" x="201.7163" y="-96.5" font-family="Helvetica,sans-Serif" font-size="10.00" fill="#000000">::directional_sub</text>
</a>
</g>
</g>
<!-- Node5&#45;&gt;Node8 -->
<g id="edge3" class="edge">
<title>Node5&#45;&gt;Node8</title>
<path fill="none" stroke="#191970" d="M105.0809,-104.5C113.4057,-104.5 122.1318,-104.5 130.7912,-104.5"/>
<polygon fill="#191970" stroke="#191970" points="130.898,-108.0001 140.8979,-104.5 130.8979,-101.0001 130.898,-108.0001"/>
</g>
<!-- Node9 -->
<g id="node5" class="node">
<title>Node9</title>
<g id="a_node5"><a xlink:href="classbfl_1_1GaussianMixture.html#af4fd865a97ac27c72510cfbf9429bd97" target="_top" xlink:title="bfl::GaussianMixture\l::mean">
<polygon fill="#ffffff" stroke="#000000" points="305.7432,-.5 305.7432,-28.5 412.8906,-28.5 412.8906,-.5 305.7432,-.5"/>
<text text-anchor="start" x="313.7432" y="-16.5" font-family="Helvetica,sans-Serif" font-size="10.00" fill="#000000">bfl::GaussianMixture</text>
<text text-anchor="middle" x="359.3169" y="-6.5" font-family="Helvetica,sans-Serif" font-size="10.00" fill="#000000">::mean</text>
</a>
</g>
</g>
<!-- Node5&#45;&gt;Node9 -->
<g id="edge4" class="edge">
<title>Node5&#45;&gt;Node9</title>
<path fill="none" stroke="#191970" d="M64.902,-90.3629C80.6943,-73.5057 109.6639,-46.0392 140.916,-33.5 190.2353,-13.7118 250.7237,-9.8569 295.527,-10.4415"/>
<polygon fill="#191970" stroke="#191970" points="295.6278,-13.9442 305.6986,-10.6534 295.7737,-6.9458 295.6278,-13.9442"/>
</g>
<!-- Node10 -->
<g id="node6" class="node">
<title>Node10</title>
<g id="a_node6"><a xlink:href="namespacebfl_1_1sigma__point.html#ab919aca5fccc30ee2acd5cd966cd9dc9" target="_top" xlink:title="bfl::sigma_point::sigma\l_point">
<polygon fill="#ffffff" stroke="#000000" points="142.5811,-43.5 142.5811,-71.5 260.8516,-71.5 260.8516,-43.5 142.5811,-43.5"/>
<text text-anchor="start" x="150.5811" y="-59.5" font-family="Helvetica,sans-Serif" font-size="10.00" fill="#000000">bfl::sigma_point::sigma</text>
<text text-anchor="middle" x="201.7163" y="-49.5" font-family="Helvetica,sans-Serif" font-size="10.00" fill="#000000">_point</text>
</a>
</g>
</g>
<!-- Node5&#45;&gt;Node10 -->
<g id="edge5" class="edge">
<title>Node5&#45;&gt;Node10</title>
<path fill="none" stroke="#191970" d="M97.2404,-90.3985C113.1041,-85.4031 131.1219,-79.7295 147.674,-74.5174"/>
<polygon fill="#191970" stroke="#191970" points="148.7358,-77.8525 157.2229,-71.5106 146.6333,-71.1757 148.7358,-77.8525"/>
</g>
<!-- Node10&#45;&gt;Node7 -->
<g id="edge6" class="edge">
<title>Node10&#45;&gt;Node7</title>
<path fill="none" stroke="#191970" d="M238.5336,-71.5701C246.4845,-74.7374 254.8142,-78.1542 262.5166,-81.5 282.0999,-90.0066 303.5763,-100.1295 321.314,-108.7106"/>
<polygon fill="#191970" stroke="#191970" points="320.2242,-112.0726 330.7478,-113.2992 323.2861,-105.7777 320.2242,-112.0726"/>
</g>
<!-- Node10&#45;&gt;Node9 -->
<g id="edge7" class="edge">
<title>Node10&#45;&gt;Node9</title>
<path fill="none" stroke="#191970" d="M253.3206,-43.4202C267.5438,-39.5395 283.1143,-35.2912 297.8363,-31.2745"/>
<polygon fill="#191970" stroke="#191970" points="299.1399,-34.5468 307.8659,-28.538 297.2973,-27.7937 299.1399,-34.5468"/>
</g>
<!-- Node11 -->
<g id="node7" class="node">
<title>Node11</title>
<g id="a_node7"><a xlink:href="namespacebfl_1_1directional__statistics.html#af9984a4df2b3f6f0bc0c264783181123" target="_top" xlink:title="bfl::directional_statistics\l::directional_add">
<polygon fill="#ffffff" stroke="#000000" points="298.5166,-47.5 298.5166,-75.5 420.1172,-75.5 420.1172,-47.5 298.5166,-47.5"/>
<text text-anchor="start" x="306.5166" y="-63.5" font-family="Helvetica,sans-Serif" font-size="10.00" fill="#000000">bfl::directional_statistics</text>
<text text-anchor="middle" x="359.3169" y="-53.5" font-family="Helvetica,sans-Serif" font-size="10.00" fill="#000000">::directional_add</text>
</a>
</g>
</g>
<!-- Node10&#45;&gt;Node11 -->
<g id="edge8" class="edge">
<title>Node10&#45;&gt;Node11</title>
<path fill="none" stroke="#191970" d="M261.2983,-59.0122C270.1016,-59.2357 279.2456,-59.4677 288.2535,-59.6964"/>
<polygon fill="#191970" stroke="#191970" points="288.2547,-63.1974 298.3403,-59.9524 288.4324,-56.1997 288.2547,-63.1974"/>
</g>
</g>
</svg>
