<?xml version="1.0" encoding="UTF-8" standalone="no"?>
<!DOCTYPE svg PUBLIC "-//W3C//DTD SVG 1.1//EN"
 "http://www.w3.org/Graphics/SVG/1.1/DTD/svg11.dtd">
<!-- Generated by graphviz version 2.40.1 (20161225.0304)
 -->
<!-- Title: bfl::FilteringAlgorithm::boot Pages: 1 -->
<svg width="410pt" height="131pt"
 viewBox="0.00 0.00 409.76 131.00" xmlns="http://www.w3.org/2000/svg" xmlns:xlink="http://www.w3.org/1999/xlink">
<g id="graph0" class="graph" transform="scale(1 1) rotate(0) translate(4 127)">
<title>bfl::FilteringAlgorithm::boot</title>
<polygon fill="#ffffff" stroke="transparent" points="-4,4 -4,-127 405.7627,-127 405.7627,4 -4,4"/>
<!-- Node2 -->
<g id="node1" class="node">
<title>Node2</title>
<polygon fill="#bfbfbf" stroke="#000000" points="0,-47.5 0,-75.5 109.9209,-75.5 109.9209,-47.5 0,-47.5"/>
<text text-anchor="start" x="8" y="-63.5" font-family="Helvetica,sans-Serif" font-size="10.00" fill="#000000">bfl::FilteringAlgorithm</text>
<text text-anchor="middle" x="54.9604" y="-53.5" font-family="Helvetica,sans-Serif" font-size="10.00" fill="#000000">::boot</text>
</g>
<!-- Node3 -->
<g id="node2" class="node">
<title>Node3</title>
<g id="a_node2"><a xlink:href="classbfl_1_1FilteringAlgorithm.html#a139fe290f73939e72c88cb43c8ef7544" target="_top" xlink:title="bfl::FilteringAlgorithm\l::filteringRecursion">
<polygon fill="#ffffff" stroke="#000000" points="145.9209,-47.5 145.9209,-75.5 255.8418,-75.5 255.8418,-47.5 145.9209,-47.5"/>
<text text-anchor="start" x="153.9209" y="-63.5" font-family="Helvetica,sans-Serif" font-size="10.00" fill="#000000">bfl::FilteringAlgorithm</text>
<text text-anchor="middle" x="200.8813" y="-53.5" font-family="Helvetica,sans-Serif" font-size="10.00" fill="#000000">::filteringRecursion</text>
</a>
</g>
</g>
<!-- Node2&#45;&gt;Node3 -->
<g id="edge1" class="edge">
<title>Node2&#45;&gt;Node3</title>
<path fill="none" stroke="#191970" d="M110.1269,-61.5C118.3893,-61.5 126.976,-61.5 135.4269,-61.5"/>
<polygon fill="#191970" stroke="#191970" points="135.6369,-65.0001 145.6369,-61.5 135.6369,-58.0001 135.6369,-65.0001"/>
</g>
<!-- Node4 -->
<g id="node3" class="node">
<title>Node4</title>
<g id="a_node3"><a xlink:href="classbfl_1_1FilteringAlgorithm.html#ab3bceb43b5810a4bf1da884b8a0b145a" target="_top" xlink:title="bfl::FilteringAlgorithm\l::filteringStep">
<polygon fill="#ffffff" stroke="#000000" points="291.8418,-94.5 291.8418,-122.5 401.7627,-122.5 401.7627,-94.5 291.8418,-94.5"/>
<text text-anchor="start" x="299.8418" y="-110.5" font-family="Helvetica,sans-Serif" font-size="10.00" fill="#000000">bfl::FilteringAlgorithm</text>
<text text-anchor="middle" x="346.8022" y="-100.5" font-family="Helvetica,sans-Serif" font-size="10.00" fill="#000000">::filteringStep</text>
</a>
</g>
</g>
<!-- Node3&#45;&gt;Node4 -->
<g id="edge2" class="edge">
<title>Node3&#45;&gt;Node4</title>
<path fill="none" stroke="#191970" d="M244.6624,-75.6015C260.0264,-80.5502 277.4572,-86.1645 293.5142,-91.3363"/>
<polygon fill="#191970" stroke="#191970" points="292.7122,-94.755 303.3037,-94.4894 294.8583,-88.0921 292.7122,-94.755"/>
</g>
<!-- Node5 -->
<g id="node4" class="node">
<title>Node5</title>
<g id="a_node4"><a xlink:href="classbfl_1_1FilteringAlgorithm.html#adebe2ec2372f97a2a5baecf8c2c2a9c9" target="_top" xlink:title="bfl::FilteringAlgorithm\l::initialization">
<polygon fill="#ffffff" stroke="#000000" points="291.8418,-47.5 291.8418,-75.5 401.7627,-75.5 401.7627,-47.5 291.8418,-47.5"/>
<text text-anchor="start" x="299.8418" y="-63.5" font-family="Helvetica,sans-Serif" font-size="10.00" fill="#000000">bfl::FilteringAlgorithm</text>
<text text-anchor="middle" x="346.8022" y="-53.5" font-family="Helvetica,sans-Serif" font-size="10.00" fill="#000000">::initialization</text>
</a>
</g>
</g>
<!-- Node3&#45;&gt;Node5 -->
<g id="edge3" class="edge">
<title>Node3&#45;&gt;Node5</title>
<path fill="none" stroke="#191970" d="M256.0478,-61.5C264.3102,-61.5 272.8969,-61.5 281.3478,-61.5"/>
<polygon fill="#191970" stroke="#191970" points="281.5578,-65.0001 291.5578,-61.5 281.5578,-58.0001 281.5578,-65.0001"/>
</g>
<!-- Node6 -->
<g id="node5" class="node">
<title>Node6</title>
<g id="a_node5"><a xlink:href="classbfl_1_1FilteringAlgorithm.html#a5fc12882356f6906b102fbfff2bc4b7c" target="_top" xlink:title="bfl::FilteringAlgorithm\l::runCondition">
<polygon fill="#ffffff" stroke="#000000" points="291.8418,-.5 291.8418,-28.5 401.7627,-28.5 401.7627,-.5 291.8418,-.5"/>
<text text-anchor="start" x="299.8418" y="-16.5" font-family="Helvetica,sans-Serif" font-size="10.00" fill="#000000">bfl::FilteringAlgorithm</text>
<text text-anchor="middle" x="346.8022" y="-6.5" font-family="Helvetica,sans-Serif" font-size="10.00" fill="#000000">::runCondition</text>
</a>
</g>
</g>
<!-- Node3&#45;&gt;Node6 -->
<g id="edge4" class="edge">
<title>Node3&#45;&gt;Node6</title>
<path fill="none" stroke="#191970" d="M244.6624,-47.3985C260.0264,-42.4498 277.4572,-36.8355 293.5142,-31.6637"/>
<polygon fill="#191970" stroke="#191970" points="294.8583,-34.9079 303.3037,-28.5106 292.7122,-28.245 294.8583,-34.9079"/>
</g>
</g>
</svg>
