<?xml version="1.0" encoding="UTF-8" standalone="no"?>
<!DOCTYPE svg PUBLIC "-//W3C//DTD SVG 1.1//EN"
 "http://www.w3.org/Graphics/SVG/1.1/DTD/svg11.dtd">
<!-- Generated by graphviz version 2.40.1 (20161225.0304)
 -->
<!-- Title: bfl::UKFPrediction::predictStep Pages: 1 -->
<!--zoomable 257 -->
<svg id="main" version="1.1" xmlns="http://www.w3.org/2000/svg" xmlns:xlink="http://www.w3.org/1999/xlink" xml:space="preserve" onload="init(evt)">
<style type="text/css"><![CDATA[
.edge:hover path { stroke: red; }
.edge:hover polygon { stroke: red; fill: red; }
]]></style>
<script type="text/javascript"><![CDATA[
var edges = document.getElementsByTagName('g');
if (edges && edges.length) {
  for (var i=0;i<edges.length;i++) {
    if (edges[i].id.substr(0,4)=='edge') {
      edges[i].setAttribute('class','edge');
    }
  }
}
]]></script>
        <defs>
                <circle id="rim" cx="0" cy="0" r="7"/>
                <circle id="rim2" cx="0" cy="0" r="3.5"/>
                <g id="zoomPlus">
                        <use xlink:href="#rim" fill="#404040">
                                <set attributeName="fill" to="#808080" begin="zoomplus.mouseover" end="zoomplus.mouseout"/>
                        </use>
                        <path d="M-4,0h8M0,-4v8" fill="none" stroke="white" stroke-width="1.5" pointer-events="none"/>
                </g>
                <g id="zoomMin">
                        <use xlink:href="#rim" fill="#404040">
                                <set attributeName="fill" to="#808080" begin="zoomminus.mouseover" end="zoomminus.mouseout"/>
                        </use>
                        <path d="M-4,0h8" fill="none" stroke="white" stroke-width="1.5" pointer-events="none"/>
                </g>
                <g id="dirArrow">
                        <path fill="none" stroke="white" stroke-width="1.5" d="M0,-3.0v7 M-2.5,-0.5L0,-3.0L2.5,-0.5"/>
                </g>
               <g id="resetDef">
                       <use xlink:href="#rim2" fill="#404040">
                               <set attributeName="fill" to="#808080" begin="reset.mouseover" end="reset.mouseout"/>
                       </use>
               </g>
        </defs>

<script type="text/javascript">
var viewWidth = 594;
var viewHeight = 257;
var sectionId = 'dynsection-1';
</script>
<script xlink:href="svgpan.js"/>
<svg id="graph" class="graph">
<g id="viewport">
<title>bfl::UKFPrediction::predictStep</title>
<polygon fill="#ffffff" stroke="transparent" points="-4,4 -4,-253 589.5303,-253 589.5303,4 -4,4"/>
<!-- Node7 -->
<g id="node1" class="node">
<title>Node7</title>
<polygon fill="#bfbfbf" stroke="#000000" points="0,-112.5 0,-140.5 96.5859,-140.5 96.5859,-112.5 0,-112.5"/>
<text text-anchor="start" x="8" y="-128.5" font-family="Helvetica,sans-Serif" font-size="10.00" fill="#000000">bfl::UKFPrediction</text>
<text text-anchor="middle" x="48.293" y="-118.5" font-family="Helvetica,sans-Serif" font-size="10.00" fill="#000000">::predictStep</text>
</g>
<!-- Node8 -->
<g id="node2" class="node">
<title>Node8</title>
<g id="a_node2"><a xlink:href="classbfl_1_1GaussianMixture.html#aec4e807341e18c18faed041c41121cb7" target="_top" xlink:title="bfl::GaussianMixture\l::augmentWithNoise">
<polygon fill="#ffffff" stroke="#000000" points="147.8838,-136.5 147.8838,-164.5 255.0313,-164.5 255.0313,-136.5 147.8838,-136.5"/>
<text text-anchor="start" x="155.8838" y="-152.5" font-family="Helvetica,sans-Serif" font-size="10.00" fill="#000000">bfl::GaussianMixture</text>
<text text-anchor="middle" x="201.4575" y="-142.5" font-family="Helvetica,sans-Serif" font-size="10.00" fill="#000000">::augmentWithNoise</text>
</a>
</g>
</g>
<!-- Node7&#45;&gt;Node8 -->
<g id="edge1" class="edge">
<title>Node7&#45;&gt;Node8</title>
<path fill="none" stroke="#191970" d="M96.7552,-134.0938C109.6755,-136.1183 123.8358,-138.3371 137.4509,-140.4705"/>
<polygon fill="#191970" stroke="#191970" points="137.3053,-143.9904 147.7266,-142.0807 138.389,-137.0747 137.3053,-143.9904"/>
</g>
<!-- Node9 -->
<g id="node3" class="node">
<title>Node9</title>
<g id="a_node3"><a xlink:href="namespacebfl_1_1sigma__point.html#afe170453152d4f96db4dad71bd9be9a3" target="_top" xlink:title="bfl::sigma_point::unscented\l_transform">
<polygon fill="#ffffff" stroke="#000000" points="132.5859,-89.5 132.5859,-117.5 270.3291,-117.5 270.3291,-89.5 132.5859,-89.5"/>
<text text-anchor="start" x="140.5859" y="-105.5" font-family="Helvetica,sans-Serif" font-size="10.00" fill="#000000">bfl::sigma_point::unscented</text>
<text text-anchor="middle" x="201.4575" y="-95.5" font-family="Helvetica,sans-Serif" font-size="10.00" fill="#000000">_transform</text>
</a>
</g>
</g>
<!-- Node7&#45;&gt;Node9 -->
<g id="edge2" class="edge">
<title>Node7&#45;&gt;Node9</title>
<path fill="none" stroke="#191970" d="M96.7552,-119.2227C104.8812,-118.0024 113.4977,-116.7085 122.1606,-115.4076"/>
<polygon fill="#191970" stroke="#191970" points="122.9555,-118.8276 132.3248,-113.8813 121.9159,-111.9052 122.9555,-118.8276"/>
</g>
<!-- Node10 -->
<g id="node4" class="node">
<title>Node10</title>
<g id="a_node4"><a xlink:href="namespacebfl_1_1sigma__point.html#ab919aca5fccc30ee2acd5cd966cd9dc9" target="_top" xlink:title="bfl::sigma_point::sigma\l_point">
<polygon fill="#ffffff" stroke="#000000" points="307.9941,-172.5 307.9941,-200.5 426.2646,-200.5 426.2646,-172.5 307.9941,-172.5"/>
<text text-anchor="start" x="315.9941" y="-188.5" font-family="Helvetica,sans-Serif" font-size="10.00" fill="#000000">bfl::sigma_point::sigma</text>
<text text-anchor="middle" x="367.1294" y="-178.5" font-family="Helvetica,sans-Serif" font-size="10.00" fill="#000000">_point</text>
</a>
</g>
</g>
<!-- Node9&#45;&gt;Node10 -->
<g id="edge3" class="edge">
<title>Node9&#45;&gt;Node10</title>
<path fill="none" stroke="#191970" d="M250.9067,-117.6214C257.5966,-120.2166 264.2453,-123.1747 270.3291,-126.5 288.3575,-136.354 289.0853,-144.3298 306.3291,-155.5 312.9716,-159.8029 320.2871,-163.9709 327.4722,-167.7814"/>
<polygon fill="#191970" stroke="#191970" points="325.9501,-170.9343 336.4431,-172.4001 329.1544,-164.7107 325.9501,-170.9343"/>
</g>
<!-- Node12 -->
<g id="node6" class="node">
<title>Node12</title>
<g id="a_node6"><a xlink:href="classbfl_1_1GaussianMixture.html#af4fd865a97ac27c72510cfbf9429bd97" target="_top" xlink:title="bfl::GaussianMixture\l::mean">
<polygon fill="#ffffff" stroke="#000000" points="471.1563,-126.5 471.1563,-154.5 578.3037,-154.5 578.3037,-126.5 471.1563,-126.5"/>
<text text-anchor="start" x="479.1563" y="-142.5" font-family="Helvetica,sans-Serif" font-size="10.00" fill="#000000">bfl::GaussianMixture</text>
<text text-anchor="middle" x="524.73" y="-132.5" font-family="Helvetica,sans-Serif" font-size="10.00" fill="#000000">::mean</text>
</a>
</g>
</g>
<!-- Node9&#45;&gt;Node12 -->
<g id="edge10" class="edge">
<title>Node9&#45;&gt;Node12</title>
<path fill="none" stroke="#191970" d="M270.4382,-116.1794C282.3804,-118.1339 294.6952,-119.9982 306.3291,-121.5 358.0481,-128.1764 416.9679,-133.1488 460.5652,-136.3288"/>
<polygon fill="#191970" stroke="#191970" points="460.5187,-139.8344 470.7436,-137.059 461.0197,-132.8523 460.5187,-139.8344"/>
</g>
<!-- Node14 -->
<g id="node8" class="node">
<title>Node14</title>
<g id="a_node8"><a xlink:href="namespacebfl_1_1any.html#a4ecb51ad57b3fa935cabdc0dcdcb4df1" target="_top" xlink:title="Performs type&#45;safe access to the contained object. ">
<polygon fill="#ffffff" stroke="#000000" points="320.2183,-94.5 320.2183,-112.5 414.0405,-112.5 414.0405,-94.5 320.2183,-94.5"/>
<text text-anchor="middle" x="367.1294" y="-100.5" font-family="Helvetica,sans-Serif" font-size="10.00" fill="#000000">bfl::any::any_cast</text>
</a>
</g>
</g>
<!-- Node9&#45;&gt;Node14 -->
<g id="edge7" class="edge">
<title>Node9&#45;&gt;Node14</title>
<path fill="none" stroke="#191970" d="M270.7574,-103.5C283.6421,-103.5 296.9758,-103.5 309.4659,-103.5"/>
<polygon fill="#191970" stroke="#191970" points="309.7308,-107.0001 319.7307,-103.5 309.7307,-100.0001 309.7308,-107.0001"/>
</g>
<!-- Node15 -->
<g id="node9" class="node">
<title>Node15</title>
<g id="a_node9"><a xlink:href="namespacebfl_1_1directional__statistics.html#ad8758aac208bc2baa75aad514a3f53e6" target="_top" xlink:title="bfl::directional_statistics\l::directional_mean">
<polygon fill="#ffffff" stroke="#000000" points="306.3291,-47.5 306.3291,-75.5 427.9297,-75.5 427.9297,-47.5 306.3291,-47.5"/>
<text text-anchor="start" x="314.3291" y="-63.5" font-family="Helvetica,sans-Serif" font-size="10.00" fill="#000000">bfl::directional_statistics</text>
<text text-anchor="middle" x="367.1294" y="-53.5" font-family="Helvetica,sans-Serif" font-size="10.00" fill="#000000">::directional_mean</text>
</a>
</g>
</g>
<!-- Node9&#45;&gt;Node15 -->
<g id="edge8" class="edge">
<title>Node9&#45;&gt;Node15</title>
<path fill="none" stroke="#191970" d="M257.0847,-89.3978C271.3673,-85.777 286.8638,-81.8484 301.5961,-78.1135"/>
<polygon fill="#191970" stroke="#191970" points="302.8157,-81.4152 311.649,-75.565 301.0955,-74.6298 302.8157,-81.4152"/>
</g>
<!-- Node16 -->
<g id="node10" class="node">
<title>Node16</title>
<g id="a_node10"><a xlink:href="namespacebfl_1_1directional__statistics.html#a18bffca88c7ea5f4ea11d2ad910736fe" target="_top" xlink:title="bfl::directional_statistics\l::directional_sub">
<polygon fill="#ffffff" stroke="#000000" points="306.3291,-.5 306.3291,-28.5 427.9297,-28.5 427.9297,-.5 306.3291,-.5"/>
<text text-anchor="start" x="314.3291" y="-16.5" font-family="Helvetica,sans-Serif" font-size="10.00" fill="#000000">bfl::directional_statistics</text>
<text text-anchor="middle" x="367.1294" y="-6.5" font-family="Helvetica,sans-Serif" font-size="10.00" fill="#000000">::directional_sub</text>
</a>
</g>
</g>
<!-- Node9&#45;&gt;Node16 -->
<g id="edge9" class="edge">
<title>Node9&#45;&gt;Node16</title>
<path fill="none" stroke="#191970" d="M221.2539,-89.3529C241.8356,-75.0552 275.3203,-52.9283 306.3291,-37.5 309.8103,-35.768 313.4557,-34.0855 317.158,-32.4707"/>
<polygon fill="#191970" stroke="#191970" points="318.5369,-35.6879 326.4174,-28.6064 315.8408,-29.2279 318.5369,-35.6879"/>
</g>
<!-- Node11 -->
<g id="node5" class="node">
<title>Node11</title>
<g id="a_node5"><a xlink:href="classbfl_1_1GaussianMixture.html#a65a60ef46d16ac33196a09963bbccdee" target="_top" xlink:title="bfl::GaussianMixture\l::covariance">
<polygon fill="#ffffff" stroke="#000000" points="471.1563,-220.5 471.1563,-248.5 578.3037,-248.5 578.3037,-220.5 471.1563,-220.5"/>
<text text-anchor="start" x="479.1563" y="-236.5" font-family="Helvetica,sans-Serif" font-size="10.00" fill="#000000">bfl::GaussianMixture</text>
<text text-anchor="middle" x="524.73" y="-226.5" font-family="Helvetica,sans-Serif" font-size="10.00" fill="#000000">::covariance</text>
</a>
</g>
</g>
<!-- Node10&#45;&gt;Node11 -->
<g id="edge4" class="edge">
<title>Node10&#45;&gt;Node11</title>
<path fill="none" stroke="#191970" d="M413.1377,-200.5126C430.6199,-205.8371 450.723,-211.9599 469.0078,-217.5288"/>
<polygon fill="#191970" stroke="#191970" points="468.0786,-220.9045 478.6645,-220.47 470.1181,-214.2082 468.0786,-220.9045"/>
</g>
<!-- Node10&#45;&gt;Node12 -->
<g id="edge5" class="edge">
<title>Node10&#45;&gt;Node12</title>
<path fill="none" stroke="#191970" d="M415.2711,-172.4485C431.5404,-167.6999 449.8753,-162.3484 466.821,-157.4023"/>
<polygon fill="#191970" stroke="#191970" points="467.9929,-160.7064 476.6117,-154.5446 466.0316,-153.9867 467.9929,-160.7064"/>
</g>
<!-- Node13 -->
<g id="node7" class="node">
<title>Node13</title>
<g id="a_node7"><a xlink:href="namespacebfl_1_1directional__statistics.html#af9984a4df2b3f6f0bc0c264783181123" target="_top" xlink:title="bfl::directional_statistics\l::directional_add">
<polygon fill="#ffffff" stroke="#000000" points="463.9297,-173.5 463.9297,-201.5 585.5303,-201.5 585.5303,-173.5 463.9297,-173.5"/>
<text text-anchor="start" x="471.9297" y="-189.5" font-family="Helvetica,sans-Serif" font-size="10.00" fill="#000000">bfl::directional_statistics</text>
<text text-anchor="middle" x="524.73" y="-179.5" font-family="Helvetica,sans-Serif" font-size="10.00" fill="#000000">::directional_add</text>
</a>
</g>
</g>
<!-- Node10&#45;&gt;Node13 -->
<g id="edge6" class="edge">
<title>Node10&#45;&gt;Node13</title>
<path fill="none" stroke="#191970" d="M426.7114,-186.8781C435.5146,-186.9339 444.6587,-186.9919 453.6665,-187.0491"/>
<polygon fill="#191970" stroke="#191970" points="453.7314,-190.5495 463.7534,-187.1131 453.7759,-183.5496 453.7314,-190.5495"/>
</g>
</g>
</svg>
        <g id="navigator" transform="translate(0 0)" fill="#404254">
                <rect fill="#f2f5e9" fill-opacity="0.5" stroke="#606060" stroke-width=".5" x="0" y="0" width="60" height="60"/>
                <use id="zoomplus" xlink:href="#zoomPlus" x="17" y="9" onmousedown="handleZoom(evt,'in')"/>
                <use id="zoomminus" xlink:href="#zoomMin" x="42" y="9" onmousedown="handleZoom(evt,'out')"/>
                <use id="reset" xlink:href="#resetDef" x="30" y="36" onmousedown="handleReset()"/>
                <g id="arrowUp" xlink:href="#dirArrow" transform="translate(30 24)" onmousedown="handlePan(0,-1)">
                  <use xlink:href="#rim" fill="#404040">
                        <set attributeName="fill" to="#808080" begin="arrowUp.mouseover" end="arrowUp.mouseout"/>
                  </use>
                  <path fill="none" stroke="white" stroke-width="1.5" d="M0,-3.0v7 M-2.5,-0.5L0,-3.0L2.5,-0.5"/>
                </g>
                <g id="arrowRight" xlink:href="#dirArrow" transform="rotate(90) translate(36 -43)" onmousedown="handlePan(1,0)">
                  <use xlink:href="#rim" fill="#404040">
                        <set attributeName="fill" to="#808080" begin="arrowRight.mouseover" end="arrowRight.mouseout"/>
                  </use>
                  <path fill="none" stroke="white" stroke-width="1.5" d="M0,-3.0v7 M-2.5,-0.5L0,-3.0L2.5,-0.5"/>
                </g>
                <g id="arrowDown" xlink:href="#dirArrow" transform="rotate(180) translate(-30 -48)" onmousedown="handlePan(0,1)">
                  <use xlink:href="#rim" fill="#404040">
                        <set attributeName="fill" to="#808080" begin="arrowDown.mouseover" end="arrowDown.mouseout"/>
                  </use>
                  <path fill="none" stroke="white" stroke-width="1.5" d="M0,-3.0v7 M-2.5,-0.5L0,-3.0L2.5,-0.5"/>
                </g>
                <g id="arrowLeft" xlink:href="#dirArrow" transform="rotate(270) translate(-36 17)" onmousedown="handlePan(-1,0)">
                  <use xlink:href="#rim" fill="#404040">
                        <set attributeName="fill" to="#808080" begin="arrowLeft.mouseover" end="arrowLeft.mouseout"/>
                  </use>
                  <path fill="none" stroke="white" stroke-width="1.5" d="M0,-3.0v7 M-2.5,-0.5L0,-3.0L2.5,-0.5"/>
                </g>
        </g>
        <svg viewBox="0 0 15 15" width="100%" height="30px" preserveAspectRatio="xMaxYMin meet">
         <g id="arrow_out" transform="scale(0.3 0.3)">
          <a xlink:href="classbfl_1_1UKFPrediction_a0ffba56fa1aa4d71c6872e1d76bd2f02_cgraph_org.svg" target="_base">
           <rect id="button" ry="5" rx="5" y="6" x="6" height="38" width="38"
                fill="#f2f5e9" fill-opacity="0.5" stroke="#606060" stroke-width="1.0"/>
           <path id="arrow"
             d="M 11.500037,31.436501 C 11.940474,20.09759 22.043105,11.32322 32.158766,21.979434 L 37.068811,17.246167 C 37.068811,17.246167 37.088388,32 37.088388,32 L 22.160133,31.978069 C 22.160133,31.978069 26.997745,27.140456 26.997745,27.140456 C 18.528582,18.264221 13.291696,25.230495 11.500037,31.436501 z"
             style="fill:#404040;"/>
          </a>
         </g>
        </svg>
</svg>
