<?xml version="1.0" encoding="UTF-8" standalone="no"?>
<!DOCTYPE svg PUBLIC "-//W3C//DTD SVG 1.1//EN"
 "http://www.w3.org/Graphics/SVG/1.1/DTD/svg11.dtd">
<!-- Generated by graphviz version 2.40.1 (20161225.0304)
 -->
<!-- Title: bfl::Logger::logger_helper Pages: 1 -->
<svg width="237pt" height="37pt"
 viewBox="0.00 0.00 237.22 37.00" xmlns="http://www.w3.org/2000/svg" xmlns:xlink="http://www.w3.org/1999/xlink">
<g id="graph0" class="graph" transform="scale(1 1) rotate(0) translate(4 33)">
<title>bfl::Logger::logger_helper</title>
<polygon fill="#ffffff" stroke="transparent" points="-4,4 -4,-33 233.2207,-33 233.2207,4 -4,4"/>
<!-- Node16 -->
<g id="node1" class="node">
<title>Node16</title>
<polygon fill="#bfbfbf" stroke="#000000" points="0,-.5 0,-28.5 96.6104,-28.5 96.6104,-.5 0,-.5"/>
<text text-anchor="start" x="8" y="-16.5" font-family="Helvetica,sans-Serif" font-size="10.00" fill="#000000">bfl::Logger::logger</text>
<text text-anchor="middle" x="48.3052" y="-6.5" font-family="Helvetica,sans-Serif" font-size="10.00" fill="#000000">_helper</text>
</g>
<!-- Node17 -->
<g id="node2" class="node">
<title>Node17</title>
<g id="a_node2"><a xlink:href="classbfl_1_1Logger.html#a0904d00289e404f5bae335db56ceacae" target="_top" xlink:title="bfl::Logger::logger\l_helper">
<polygon fill="#ffffff" stroke="#000000" points="132.6104,-.5 132.6104,-28.5 229.2207,-28.5 229.2207,-.5 132.6104,-.5"/>
<text text-anchor="start" x="140.6104" y="-16.5" font-family="Helvetica,sans-Serif" font-size="10.00" fill="#000000">bfl::Logger::logger</text>
<text text-anchor="middle" x="180.9155" y="-6.5" font-family="Helvetica,sans-Serif" font-size="10.00" fill="#000000">_helper</text>
</a>
</g>
</g>
<!-- Node16&#45;&gt;Node17 -->
<g id="edge1" class="edge">
<title>Node16&#45;&gt;Node17</title>
<path fill="none" stroke="#191970" d="M96.9314,-14.5C105.1295,-14.5 113.7167,-14.5 122.1397,-14.5"/>
<polygon fill="#191970" stroke="#191970" points="122.2952,-18.0001 132.2952,-14.5 122.2952,-11.0001 122.2952,-18.0001"/>
</g>
</g>
</svg>
