<?xml version="1.0" encoding="UTF-8" standalone="no"?>
<!DOCTYPE svg PUBLIC "-//W3C//DTD SVG 1.1//EN"
 "http://www.w3.org/Graphics/SVG/1.1/DTD/svg11.dtd">
<!-- Generated by graphviz version 2.40.1 (20161225.0304)
 -->
<!-- Title: bfl::BoostrapCorrection::correctStep Pages: 1 -->
<svg width="270pt" height="74pt"
 viewBox="0.00 0.00 269.98 74.00" xmlns="http://www.w3.org/2000/svg" xmlns:xlink="http://www.w3.org/1999/xlink">
<g id="graph0" class="graph" transform="scale(1 1) rotate(0) translate(4 70)">
<title>bfl::BoostrapCorrection::correctStep</title>
<polygon fill="#ffffff" stroke="transparent" points="-4,4 -4,-70 265.9795,-70 265.9795,4 -4,4"/>
<!-- Node3 -->
<g id="node1" class="node">
<title>Node3</title>
<polygon fill="#bfbfbf" stroke="#000000" points="0,-21.5 0,-49.5 118.2705,-49.5 118.2705,-21.5 0,-21.5"/>
<text text-anchor="start" x="8" y="-37.5" font-family="Helvetica,sans-Serif" font-size="10.00" fill="#000000">bfl::BoostrapCorrection</text>
<text text-anchor="middle" x="59.1353" y="-27.5" font-family="Helvetica,sans-Serif" font-size="10.00" fill="#000000">::correctStep</text>
</g>
<!-- Node4 -->
<g id="node2" class="node">
<title>Node4</title>
<g id="a_node2"><a xlink:href="classbfl_1_1ParticleSet.html#a85950583083c2903f4235801cc03130c" target="_top" xlink:title="bfl::ParticleSet::state">
<polygon fill="#ffffff" stroke="#000000" points="154.2705,-47.5 154.2705,-65.5 261.9795,-65.5 261.9795,-47.5 154.2705,-47.5"/>
<text text-anchor="middle" x="208.125" y="-53.5" font-family="Helvetica,sans-Serif" font-size="10.00" fill="#000000">bfl::ParticleSet::state</text>
</a>
</g>
</g>
<!-- Node3&#45;&gt;Node4 -->
<g id="edge1" class="edge">
<title>Node3&#45;&gt;Node4</title>
<path fill="none" stroke="#191970" d="M118.448,-43.8601C126.7557,-45.0311 135.3264,-46.2391 143.7229,-47.4226"/>
<polygon fill="#191970" stroke="#191970" points="143.4583,-50.9198 153.8489,-48.8498 144.4353,-43.9883 143.4583,-50.9198"/>
</g>
<!-- Node5 -->
<g id="node3" class="node">
<title>Node5</title>
<g id="a_node3"><a xlink:href="classbfl_1_1GaussianMixture.html#ada5625de6a3e2f98afb5aaa148503dad" target="_top" xlink:title="bfl::GaussianMixture\l::weight">
<polygon fill="#ffffff" stroke="#000000" points="154.5513,-.5 154.5513,-28.5 261.6987,-28.5 261.6987,-.5 154.5513,-.5"/>
<text text-anchor="start" x="162.5513" y="-16.5" font-family="Helvetica,sans-Serif" font-size="10.00" fill="#000000">bfl::GaussianMixture</text>
<text text-anchor="middle" x="208.125" y="-6.5" font-family="Helvetica,sans-Serif" font-size="10.00" fill="#000000">::weight</text>
</a>
</g>
</g>
<!-- Node3&#45;&gt;Node5 -->
<g id="edge2" class="edge">
<title>Node3&#45;&gt;Node5</title>
<path fill="none" stroke="#191970" d="M118.448,-27.1399C126.9637,-25.9396 135.7557,-24.7004 144.3531,-23.4886"/>
<polygon fill="#191970" stroke="#191970" points="144.9145,-26.9442 154.3281,-22.0826 143.9374,-20.0127 144.9145,-26.9442"/>
</g>
</g>
</svg>
