<?xml version="1.0" encoding="UTF-8" standalone="no"?>
<!DOCTYPE svg PUBLIC "-//W3C//DTD SVG 1.1//EN"
 "http://www.w3.org/Graphics/SVG/1.1/DTD/svg11.dtd">
<!-- Generated by graphviz version 2.40.1 (20161225.0304)
 -->
<!-- Title: bfl::Resampling::resample Pages: 1 -->
<svg width="283pt" height="168pt"
 viewBox="0.00 0.00 283.31 168.00" xmlns="http://www.w3.org/2000/svg" xmlns:xlink="http://www.w3.org/1999/xlink">
<g id="graph0" class="graph" transform="scale(1 1) rotate(0) translate(4 164)">
<title>bfl::Resampling::resample</title>
<polygon fill="#ffffff" stroke="transparent" points="-4,4 -4,-164 279.3145,-164 279.3145,4 -4,4"/>
<!-- Node9 -->
<g id="node1" class="node">
<title>Node9</title>
<polygon fill="#bfbfbf" stroke="#000000" points="0,-68.5 0,-86.5 131.6055,-86.5 131.6055,-68.5 0,-68.5"/>
<text text-anchor="middle" x="65.8027" y="-74.5" font-family="Helvetica,sans-Serif" font-size="10.00" fill="#000000">bfl::Resampling::resample</text>
</g>
<!-- Node10 -->
<g id="node2" class="node">
<title>Node10</title>
<g id="a_node2"><a xlink:href="classbfl_1_1GaussianMixture.html#a65a60ef46d16ac33196a09963bbccdee" target="_top" xlink:title="bfl::GaussianMixture\l::covariance">
<polygon fill="#ffffff" stroke="#000000" points="167.8862,-131.5 167.8862,-159.5 275.0337,-159.5 275.0337,-131.5 167.8862,-131.5"/>
<text text-anchor="start" x="175.8862" y="-147.5" font-family="Helvetica,sans-Serif" font-size="10.00" fill="#000000">bfl::GaussianMixture</text>
<text text-anchor="middle" x="221.46" y="-137.5" font-family="Helvetica,sans-Serif" font-size="10.00" fill="#000000">::covariance</text>
</a>
</g>
</g>
<!-- Node9&#45;&gt;Node10 -->
<g id="edge1" class="edge">
<title>Node9&#45;&gt;Node10</title>
<path fill="none" stroke="#191970" d="M86.0508,-86.54C106.5713,-95.6805 139.2489,-110.1781 167.6055,-122.5 171.277,-124.0954 175.0931,-125.7441 178.9225,-127.392"/>
<polygon fill="#191970" stroke="#191970" points="177.824,-130.7293 188.3939,-131.4559 180.5841,-124.2964 177.824,-130.7293"/>
</g>
<!-- Node11 -->
<g id="node3" class="node">
<title>Node11</title>
<g id="a_node3"><a xlink:href="classbfl_1_1GaussianMixture.html#af4fd865a97ac27c72510cfbf9429bd97" target="_top" xlink:title="bfl::GaussianMixture\l::mean">
<polygon fill="#ffffff" stroke="#000000" points="167.8862,-84.5 167.8862,-112.5 275.0337,-112.5 275.0337,-84.5 167.8862,-84.5"/>
<text text-anchor="start" x="175.8862" y="-100.5" font-family="Helvetica,sans-Serif" font-size="10.00" fill="#000000">bfl::GaussianMixture</text>
<text text-anchor="middle" x="221.46" y="-90.5" font-family="Helvetica,sans-Serif" font-size="10.00" fill="#000000">::mean</text>
</a>
</g>
</g>
<!-- Node9&#45;&gt;Node11 -->
<g id="edge2" class="edge">
<title>Node9&#45;&gt;Node11</title>
<path fill="none" stroke="#191970" d="M131.8154,-86.4059C140.2982,-87.5503 148.9728,-88.7206 157.4232,-89.8607"/>
<polygon fill="#191970" stroke="#191970" points="157.2136,-93.364 167.5918,-91.2326 158.1496,-86.4269 157.2136,-93.364"/>
</g>
<!-- Node12 -->
<g id="node4" class="node">
<title>Node12</title>
<g id="a_node4"><a xlink:href="classbfl_1_1ParticleSet.html#a85950583083c2903f4235801cc03130c" target="_top" xlink:title="bfl::ParticleSet::state">
<polygon fill="#ffffff" stroke="#000000" points="167.6055,-47.5 167.6055,-65.5 275.3145,-65.5 275.3145,-47.5 167.6055,-47.5"/>
<text text-anchor="middle" x="221.46" y="-53.5" font-family="Helvetica,sans-Serif" font-size="10.00" fill="#000000">bfl::ParticleSet::state</text>
</a>
</g>
</g>
<!-- Node9&#45;&gt;Node12 -->
<g id="edge3" class="edge">
<title>Node9&#45;&gt;Node12</title>
<path fill="none" stroke="#191970" d="M131.8154,-68.5941C140.2982,-67.4497 148.9728,-66.2794 157.4232,-65.1393"/>
<polygon fill="#191970" stroke="#191970" points="158.1496,-68.5731 167.5918,-63.7674 157.2136,-61.636 158.1496,-68.5731"/>
</g>
<!-- Node13 -->
<g id="node5" class="node">
<title>Node13</title>
<g id="a_node5"><a xlink:href="classbfl_1_1GaussianMixture.html#ada5625de6a3e2f98afb5aaa148503dad" target="_top" xlink:title="bfl::GaussianMixture\l::weight">
<polygon fill="#ffffff" stroke="#000000" points="167.8862,-.5 167.8862,-28.5 275.0337,-28.5 275.0337,-.5 167.8862,-.5"/>
<text text-anchor="start" x="175.8862" y="-16.5" font-family="Helvetica,sans-Serif" font-size="10.00" fill="#000000">bfl::GaussianMixture</text>
<text text-anchor="middle" x="221.46" y="-6.5" font-family="Helvetica,sans-Serif" font-size="10.00" fill="#000000">::weight</text>
</a>
</g>
</g>
<!-- Node9&#45;&gt;Node13 -->
<g id="edge4" class="edge">
<title>Node9&#45;&gt;Node13</title>
<path fill="none" stroke="#191970" d="M88.1046,-68.4736C111.2911,-59.0892 148.197,-44.1521 177.3117,-32.3683"/>
<polygon fill="#191970" stroke="#191970" points="178.8993,-35.5017 186.8557,-28.5056 176.273,-29.013 178.8993,-35.5017"/>
</g>
</g>
</svg>
