<?xml version="1.0" encoding="UTF-8" standalone="no"?>
<!DOCTYPE svg PUBLIC "-//W3C//DTD SVG 1.1//EN"
 "http://www.w3.org/Graphics/SVG/1.1/DTD/svg11.dtd">
<!-- Generated by graphviz version 2.40.1 (20161225.0304)
 -->
<!-- Title: bfl::WhiteNoiseAcceleration Pages: 1 -->
<svg width="146pt" height="192pt"
 viewBox="0.00 0.00 146.28 192.00" xmlns="http://www.w3.org/2000/svg" xmlns:xlink="http://www.w3.org/1999/xlink">
<g id="graph0" class="graph" transform="scale(1 1) rotate(0) translate(4 188)">
<title>bfl::WhiteNoiseAcceleration</title>
<polygon fill="#ffffff" stroke="transparent" points="-4,4 -4,-188 142.2754,-188 142.2754,4 -4,4"/>
<!-- Node0 -->
<g id="node1" class="node">
<title>Node0</title>
<polygon fill="#bfbfbf" stroke="#000000" points="0,-.5 0,-18.5 138.2754,-18.5 138.2754,-.5 0,-.5"/>
<text text-anchor="middle" x="69.1377" y="-6.5" font-family="Helvetica,sans-Serif" font-size="10.00" fill="#000000">bfl::WhiteNoiseAcceleration</text>
</g>
<!-- Node1 -->
<g id="node2" class="node">
<title>Node1</title>
<g id="a_node2"><a xlink:href="classbfl_1_1LinearStateModel.html" target="_top" xlink:title="bfl::LinearStateModel">
<polygon fill="#ffffff" stroke="#000000" points="13.8867,-55.5 13.8867,-73.5 124.3887,-73.5 124.3887,-55.5 13.8867,-55.5"/>
<text text-anchor="middle" x="69.1377" y="-61.5" font-family="Helvetica,sans-Serif" font-size="10.00" fill="#000000">bfl::LinearStateModel</text>
</a>
</g>
</g>
<!-- Node1&#45;&gt;Node0 -->
<g id="edge1" class="edge">
<title>Node1&#45;&gt;Node0</title>
<path fill="none" stroke="#191970" d="M69.1377,-45.383C69.1377,-36.3738 69.1377,-26.0373 69.1377,-18.7795"/>
<polygon fill="#191970" stroke="#191970" points="65.6378,-45.4178 69.1377,-55.4179 72.6378,-45.4179 65.6378,-45.4178"/>
</g>
<!-- Node2 -->
<g id="node3" class="node">
<title>Node2</title>
<g id="a_node3"><a xlink:href="classbfl_1_1AdditiveStateModel.html" target="_top" xlink:title="bfl::AdditiveStateModel">
<polygon fill="#ffffff" stroke="#000000" points="9.9976,-110.5 9.9976,-128.5 128.2778,-128.5 128.2778,-110.5 9.9976,-110.5"/>
<text text-anchor="middle" x="69.1377" y="-116.5" font-family="Helvetica,sans-Serif" font-size="10.00" fill="#000000">bfl::AdditiveStateModel</text>
</a>
</g>
</g>
<!-- Node2&#45;&gt;Node1 -->
<g id="edge2" class="edge">
<title>Node2&#45;&gt;Node1</title>
<path fill="none" stroke="#191970" d="M69.1377,-100.383C69.1377,-91.3738 69.1377,-81.0373 69.1377,-73.7795"/>
<polygon fill="#191970" stroke="#191970" points="65.6378,-100.4178 69.1377,-110.4179 72.6378,-100.4179 65.6378,-100.4178"/>
</g>
<!-- Node3 -->
<g id="node4" class="node">
<title>Node3</title>
<g id="a_node4"><a xlink:href="classbfl_1_1StateModel.html" target="_top" xlink:title="bfl::StateModel">
<polygon fill="#ffffff" stroke="#000000" points="27.7856,-165.5 27.7856,-183.5 110.4897,-183.5 110.4897,-165.5 27.7856,-165.5"/>
<text text-anchor="middle" x="69.1377" y="-171.5" font-family="Helvetica,sans-Serif" font-size="10.00" fill="#000000">bfl::StateModel</text>
</a>
</g>
</g>
<!-- Node3&#45;&gt;Node2 -->
<g id="edge3" class="edge">
<title>Node3&#45;&gt;Node2</title>
<path fill="none" stroke="#191970" d="M69.1377,-155.383C69.1377,-146.3738 69.1377,-136.0373 69.1377,-128.7795"/>
<polygon fill="#191970" stroke="#191970" points="65.6378,-155.4178 69.1377,-165.4179 72.6378,-155.4179 65.6378,-155.4178"/>
</g>
</g>
</svg>
