<?xml version="1.0" encoding="UTF-8" standalone="no"?>
<!DOCTYPE svg PUBLIC "-//W3C//DTD SVG 1.1//EN"
 "http://www.w3.org/Graphics/SVG/1.1/DTD/svg11.dtd">
<!-- Generated by graphviz version 2.40.1 (20161225.0304)
 -->
<!-- Title: bfl::GPFPrediction::predictStep Pages: 1 -->
<svg width="249pt" height="74pt"
 viewBox="0.00 0.00 248.85 74.00" xmlns="http://www.w3.org/2000/svg" xmlns:xlink="http://www.w3.org/1999/xlink">
<g id="graph0" class="graph" transform="scale(1 1) rotate(0) translate(4 70)">
<title>bfl::GPFPrediction::predictStep</title>
<polygon fill="#ffffff" stroke="transparent" points="-4,4 -4,-70 244.8516,-70 244.8516,4 -4,4"/>
<!-- Node8 -->
<g id="node1" class="node">
<title>Node8</title>
<polygon fill="#bfbfbf" stroke="#000000" points="0,-21.5 0,-49.5 97.1426,-49.5 97.1426,-21.5 0,-21.5"/>
<text text-anchor="start" x="8" y="-37.5" font-family="Helvetica,sans-Serif" font-size="10.00" fill="#000000">bfl::GPFPrediction</text>
<text text-anchor="middle" x="48.5713" y="-27.5" font-family="Helvetica,sans-Serif" font-size="10.00" fill="#000000">::predictStep</text>
</g>
<!-- Node9 -->
<g id="node2" class="node">
<title>Node9</title>
<g id="a_node2"><a xlink:href="classbfl_1_1ParticleSet.html#a85950583083c2903f4235801cc03130c" target="_top" xlink:title="bfl::ParticleSet::state">
<polygon fill="#ffffff" stroke="#000000" points="133.1426,-47.5 133.1426,-65.5 240.8516,-65.5 240.8516,-47.5 133.1426,-47.5"/>
<text text-anchor="middle" x="186.9971" y="-53.5" font-family="Helvetica,sans-Serif" font-size="10.00" fill="#000000">bfl::ParticleSet::state</text>
</a>
</g>
</g>
<!-- Node8&#45;&gt;Node9 -->
<g id="edge1" class="edge">
<title>Node8&#45;&gt;Node9</title>
<path fill="none" stroke="#191970" d="M97.375,-42.9038C105.6552,-44.16 114.3633,-45.481 122.9641,-46.7858"/>
<polygon fill="#191970" stroke="#191970" points="122.5675,-50.2656 132.9794,-48.3052 123.6175,-43.3448 122.5675,-50.2656"/>
</g>
<!-- Node10 -->
<g id="node3" class="node">
<title>Node10</title>
<g id="a_node3"><a xlink:href="classbfl_1_1GaussianMixture.html#ada5625de6a3e2f98afb5aaa148503dad" target="_top" xlink:title="bfl::GaussianMixture\l::weight">
<polygon fill="#ffffff" stroke="#000000" points="133.4233,-.5 133.4233,-28.5 240.5708,-28.5 240.5708,-.5 133.4233,-.5"/>
<text text-anchor="start" x="141.4233" y="-16.5" font-family="Helvetica,sans-Serif" font-size="10.00" fill="#000000">bfl::GaussianMixture</text>
<text text-anchor="middle" x="186.9971" y="-6.5" font-family="Helvetica,sans-Serif" font-size="10.00" fill="#000000">::weight</text>
</a>
</g>
</g>
<!-- Node8&#45;&gt;Node10 -->
<g id="edge2" class="edge">
<title>Node8&#45;&gt;Node10</title>
<path fill="none" stroke="#191970" d="M97.375,-28.0962C105.6552,-26.84 114.3633,-25.519 122.9641,-24.2142"/>
<polygon fill="#191970" stroke="#191970" points="123.6175,-27.6552 132.9794,-22.6948 122.5675,-20.7344 123.6175,-27.6552"/>
</g>
</g>
</svg>
