<?xml version="1.0" encoding="UTF-8" standalone="no"?>
<!DOCTYPE svg PUBLIC "-//W3C//DTD SVG 1.1//EN"
 "http://www.w3.org/Graphics/SVG/1.1/DTD/svg11.dtd">
<!-- Generated by graphviz version 2.40.1 (20161225.0304)
 -->
<!-- Title: bfl::PFCorrection Pages: 1 -->
<svg width="397pt" height="82pt"
 viewBox="0.00 0.00 396.60 82.00" xmlns="http://www.w3.org/2000/svg" xmlns:xlink="http://www.w3.org/1999/xlink">
<g id="graph0" class="graph" transform="scale(1 1) rotate(0) translate(4 78)">
<title>bfl::PFCorrection</title>
<polygon fill="#ffffff" stroke="transparent" points="-4,4 -4,-78 392.6006,-78 392.6006,4 -4,4"/>
<!-- Node0 -->
<g id="node1" class="node">
<title>Node0</title>
<polygon fill="#bfbfbf" stroke="#000000" points="140.623,-55.5 140.623,-73.5 231.6475,-73.5 231.6475,-55.5 140.623,-55.5"/>
<text text-anchor="middle" x="186.1353" y="-61.5" font-family="Helvetica,sans-Serif" font-size="10.00" fill="#000000">bfl::PFCorrection</text>
</g>
<!-- Node1 -->
<g id="node2" class="node">
<title>Node1</title>
<g id="a_node2"><a xlink:href="classbfl_1_1BoostrapCorrection.html" target="_top" xlink:title="bfl::BoostrapCorrection">
<polygon fill="#ffffff" stroke="#000000" points="0,-.5 0,-18.5 118.2705,-18.5 118.2705,-.5 0,-.5"/>
<text text-anchor="middle" x="59.1353" y="-6.5" font-family="Helvetica,sans-Serif" font-size="10.00" fill="#000000">bfl::BoostrapCorrection</text>
</a>
</g>
</g>
<!-- Node0&#45;&gt;Node1 -->
<g id="edge1" class="edge">
<title>Node0&#45;&gt;Node1</title>
<path fill="none" stroke="#191970" d="M155.72,-51.328C132.3701,-41.2159 100.7387,-27.5172 80.1379,-18.5956"/>
<polygon fill="#191970" stroke="#191970" points="154.5964,-54.6555 165.1638,-55.4179 157.3783,-48.232 154.5964,-54.6555"/>
</g>
<!-- Node2 -->
<g id="node3" class="node">
<title>Node2</title>
<g id="a_node3"><a xlink:href="classbfl_1_1GPFCorrection.html" target="_top" xlink:title="bfl::GPFCorrection">
<polygon fill="#ffffff" stroke="#000000" points="136.7339,-.5 136.7339,-18.5 235.5366,-18.5 235.5366,-.5 136.7339,-.5"/>
<text text-anchor="middle" x="186.1353" y="-6.5" font-family="Helvetica,sans-Serif" font-size="10.00" fill="#000000">bfl::GPFCorrection</text>
</a>
</g>
</g>
<!-- Node0&#45;&gt;Node2 -->
<g id="edge2" class="edge">
<title>Node0&#45;&gt;Node2</title>
<path fill="none" stroke="#191970" d="M186.1353,-45.383C186.1353,-36.3738 186.1353,-26.0373 186.1353,-18.7795"/>
<polygon fill="#191970" stroke="#191970" points="182.6354,-45.4178 186.1353,-55.4179 189.6354,-45.4179 182.6354,-45.4178"/>
</g>
<!-- Node3 -->
<g id="node4" class="node">
<title>Node3</title>
<g id="a_node4"><a xlink:href="classbfl_1_1PFCorrectionDecorator.html" target="_top" xlink:title="bfl::PFCorrectionDecorator">
<polygon fill="#ffffff" stroke="#000000" points="253.6699,-.5 253.6699,-18.5 388.6006,-18.5 388.6006,-.5 253.6699,-.5"/>
<text text-anchor="middle" x="321.1353" y="-6.5" font-family="Helvetica,sans-Serif" font-size="10.00" fill="#000000">bfl::PFCorrectionDecorator</text>
</a>
</g>
</g>
<!-- Node0&#45;&gt;Node3 -->
<g id="edge3" class="edge">
<title>Node0&#45;&gt;Node3</title>
<path fill="none" stroke="#191970" d="M217.8037,-51.598C242.6859,-41.4609 276.7156,-27.5969 298.8096,-18.5956"/>
<polygon fill="#191970" stroke="#191970" points="216.3681,-48.4035 208.4278,-55.4179 219.0092,-54.8862 216.3681,-48.4035"/>
</g>
</g>
</svg>
