<?xml version="1.0" encoding="UTF-8" standalone="no"?>
<!DOCTYPE svg PUBLIC "-//W3C//DTD SVG 1.1//EN"
 "http://www.w3.org/Graphics/SVG/1.1/DTD/svg11.dtd">
<!-- Generated by graphviz version 2.40.1 (20161225.0304)
 -->
<!-- Title: bfl::KFPrediction::predictStep Pages: 1 -->
<svg width="246pt" height="84pt"
 viewBox="0.00 0.00 246.07 84.00" xmlns="http://www.w3.org/2000/svg" xmlns:xlink="http://www.w3.org/1999/xlink">
<g id="graph0" class="graph" transform="scale(1 1) rotate(0) translate(4 80)">
<title>bfl::KFPrediction::predictStep</title>
<polygon fill="#ffffff" stroke="transparent" points="-4,4 -4,-80 242.0684,-80 242.0684,4 -4,4"/>
<!-- Node7 -->
<g id="node1" class="node">
<title>Node7</title>
<polygon fill="#bfbfbf" stroke="#000000" points="0,-23.5 0,-51.5 94.9209,-51.5 94.9209,-23.5 0,-23.5"/>
<text text-anchor="start" x="8" y="-39.5" font-family="Helvetica,sans-Serif" font-size="10.00" fill="#000000">bfl::KFPrediction::</text>
<text text-anchor="middle" x="47.4604" y="-29.5" font-family="Helvetica,sans-Serif" font-size="10.00" fill="#000000">predictStep</text>
</g>
<!-- Node8 -->
<g id="node2" class="node">
<title>Node8</title>
<g id="a_node2"><a xlink:href="classbfl_1_1GaussianMixture.html#a65a60ef46d16ac33196a09963bbccdee" target="_top" xlink:title="bfl::GaussianMixture\l::covariance">
<polygon fill="#ffffff" stroke="#000000" points="130.9209,-47.5 130.9209,-75.5 238.0684,-75.5 238.0684,-47.5 130.9209,-47.5"/>
<text text-anchor="start" x="138.9209" y="-63.5" font-family="Helvetica,sans-Serif" font-size="10.00" fill="#000000">bfl::GaussianMixture</text>
<text text-anchor="middle" x="184.4946" y="-53.5" font-family="Helvetica,sans-Serif" font-size="10.00" fill="#000000">::covariance</text>
</a>
</g>
</g>
<!-- Node7&#45;&gt;Node8 -->
<g id="edge1" class="edge">
<title>Node7&#45;&gt;Node8</title>
<path fill="none" stroke="#191970" d="M95.0038,-45.8267C103.2268,-47.2669 111.8959,-48.7851 120.4707,-50.2869"/>
<polygon fill="#191970" stroke="#191970" points="120.0072,-53.759 130.4611,-52.0366 121.2149,-46.8639 120.0072,-53.759"/>
</g>
<!-- Node9 -->
<g id="node3" class="node">
<title>Node9</title>
<g id="a_node3"><a xlink:href="classbfl_1_1GaussianMixture.html#af4fd865a97ac27c72510cfbf9429bd97" target="_top" xlink:title="bfl::GaussianMixture\l::mean">
<polygon fill="#ffffff" stroke="#000000" points="130.9209,-.5 130.9209,-28.5 238.0684,-28.5 238.0684,-.5 130.9209,-.5"/>
<text text-anchor="start" x="138.9209" y="-16.5" font-family="Helvetica,sans-Serif" font-size="10.00" fill="#000000">bfl::GaussianMixture</text>
<text text-anchor="middle" x="184.4946" y="-6.5" font-family="Helvetica,sans-Serif" font-size="10.00" fill="#000000">::mean</text>
</a>
</g>
</g>
<!-- Node7&#45;&gt;Node9 -->
<g id="edge2" class="edge">
<title>Node7&#45;&gt;Node9</title>
<path fill="none" stroke="#191970" d="M95.0038,-29.5203C103.2268,-28.1401 111.8959,-26.6851 120.4707,-25.2459"/>
<polygon fill="#191970" stroke="#191970" points="121.1784,-28.6761 130.4611,-23.5691 120.0197,-21.7727 121.1784,-28.6761"/>
</g>
</g>
</svg>
