<?xml version="1.0" encoding="UTF-8" standalone="no"?>
<!DOCTYPE svg PUBLIC "-//W3C//DTD SVG 1.1//EN"
 "http://www.w3.org/Graphics/SVG/1.1/DTD/svg11.dtd">
<!-- Generated by graphviz version 2.40.1 (20161225.0304)
 -->
<!-- Title: /Users/Claudio/GitHub/bayes&#45;filters&#45;lib/src/BayesFilters/include/BayesFilters/Data.h Pages: 1 -->
<svg width="362pt" height="167pt"
 viewBox="0.00 0.00 361.63 167.00" xmlns="http://www.w3.org/2000/svg" xmlns:xlink="http://www.w3.org/1999/xlink">
<g id="graph0" class="graph" transform="scale(1 1) rotate(0) translate(4 163)">
<title>/Users/Claudio/GitHub/bayes&#45;filters&#45;lib/src/BayesFilters/include/BayesFilters/Data.h</title>
<polygon fill="#ffffff" stroke="transparent" points="-4,4 -4,-163 357.6304,-163 357.6304,4 -4,4"/>
<!-- Node0 -->
<g id="node1" class="node">
<title>Node0</title>
<polygon fill="#bfbfbf" stroke="#000000" points="90.1479,-110.5 90.1479,-158.5 258.98,-158.5 258.98,-110.5 90.1479,-110.5"/>
<text text-anchor="start" x="98.1479" y="-146.5" font-family="Helvetica,sans-Serif" font-size="10.00" fill="#000000">/Users/Claudio/GitHub</text>
<text text-anchor="start" x="98.1479" y="-136.5" font-family="Helvetica,sans-Serif" font-size="10.00" fill="#000000">/bayes&#45;filters&#45;lib/src</text>
<text text-anchor="start" x="98.1479" y="-126.5" font-family="Helvetica,sans-Serif" font-size="10.00" fill="#000000">/BayesFilters/include/BayesFilters/</text>
<text text-anchor="middle" x="174.564" y="-116.5" font-family="Helvetica,sans-Serif" font-size="10.00" fill="#000000">Data.h</text>
</g>
<!-- Node1 -->
<g id="node2" class="node">
<title>Node1</title>
<g id="a_node2"><a xlink:href="any_8h.html" target="_top" xlink:title="BayesFilters/any.h">
<polygon fill="#ffffff" stroke="#000000" points="125.8047,-55.5 125.8047,-73.5 223.3232,-73.5 223.3232,-55.5 125.8047,-55.5"/>
<text text-anchor="middle" x="174.564" y="-61.5" font-family="Helvetica,sans-Serif" font-size="10.00" fill="#000000">BayesFilters/any.h</text>
</a>
</g>
</g>
<!-- Node0&#45;&gt;Node1 -->
<g id="edge1" class="edge">
<title>Node0&#45;&gt;Node1</title>
<path fill="none" stroke="#191970" d="M174.564,-110.41C174.564,-101.7094 174.564,-92.0095 174.564,-83.7754"/>
<polygon fill="#191970" stroke="#191970" points="178.0641,-83.6872 174.564,-73.6872 171.0641,-83.6873 178.0641,-83.6872"/>
</g>
<!-- Node2 -->
<g id="node3" class="node">
<title>Node2</title>
<polygon fill="#ffffff" stroke="#bfbfbf" points="0,-.5 0,-18.5 57.1279,-18.5 57.1279,-.5 0,-.5"/>
<text text-anchor="middle" x="28.564" y="-6.5" font-family="Helvetica,sans-Serif" font-size="10.00" fill="#000000">algorithm</text>
</g>
<!-- Node1&#45;&gt;Node2 -->
<g id="edge2" class="edge">
<title>Node1&#45;&gt;Node2</title>
<path fill="none" stroke="#191970" d="M150.455,-55.4179C126.3623,-46.3419 89.1203,-32.3123 62.1408,-22.1488"/>
<polygon fill="#191970" stroke="#191970" points="63.3006,-18.8457 52.7087,-18.5956 60.8329,-25.3963 63.3006,-18.8457"/>
</g>
<!-- Node3 -->
<g id="node4" class="node">
<title>Node3</title>
<polygon fill="#ffffff" stroke="#bfbfbf" points="75.5073,-.5 75.5073,-18.5 127.6206,-18.5 127.6206,-.5 75.5073,-.5"/>
<text text-anchor="middle" x="101.564" y="-6.5" font-family="Helvetica,sans-Serif" font-size="10.00" fill="#000000">memory</text>
</g>
<!-- Node1&#45;&gt;Node3 -->
<g id="edge3" class="edge">
<title>Node1&#45;&gt;Node3</title>
<path fill="none" stroke="#191970" d="M162.5095,-55.4179C151.4806,-47.1084 134.9408,-34.6469 121.8733,-24.8015"/>
<polygon fill="#191970" stroke="#191970" points="123.9733,-22.0016 113.8803,-18.7795 119.7611,-27.5924 123.9733,-22.0016"/>
</g>
<!-- Node4 -->
<g id="node5" class="node">
<title>Node4</title>
<polygon fill="#ffffff" stroke="#bfbfbf" points="145.1626,-.5 145.1626,-18.5 203.9653,-18.5 203.9653,-.5 145.1626,-.5"/>
<text text-anchor="middle" x="174.564" y="-6.5" font-family="Helvetica,sans-Serif" font-size="10.00" fill="#000000">stdexcept</text>
</g>
<!-- Node1&#45;&gt;Node4 -->
<g id="edge4" class="edge">
<title>Node1&#45;&gt;Node4</title>
<path fill="none" stroke="#191970" d="M174.564,-55.4179C174.564,-48.2164 174.564,-37.8962 174.564,-28.8632"/>
<polygon fill="#191970" stroke="#191970" points="178.0641,-28.7794 174.564,-18.7795 171.0641,-28.7795 178.0641,-28.7794"/>
</g>
<!-- Node5 -->
<g id="node6" class="node">
<title>Node5</title>
<polygon fill="#ffffff" stroke="#bfbfbf" points="222.0518,-.5 222.0518,-18.5 273.0762,-18.5 273.0762,-.5 222.0518,-.5"/>
<text text-anchor="middle" x="247.564" y="-6.5" font-family="Helvetica,sans-Serif" font-size="10.00" fill="#000000">typeinfo</text>
</g>
<!-- Node1&#45;&gt;Node5 -->
<g id="edge5" class="edge">
<title>Node1&#45;&gt;Node5</title>
<path fill="none" stroke="#191970" d="M186.6184,-55.4179C197.6473,-47.1084 214.1872,-34.6469 227.2546,-24.8015"/>
<polygon fill="#191970" stroke="#191970" points="229.3669,-27.5924 235.2476,-18.7795 225.1546,-22.0016 229.3669,-27.5924"/>
</g>
<!-- Node6 -->
<g id="node7" class="node">
<title>Node6</title>
<polygon fill="#ffffff" stroke="#bfbfbf" points="291.4976,-.5 291.4976,-18.5 353.6304,-18.5 353.6304,-.5 291.4976,-.5"/>
<text text-anchor="middle" x="322.564" y="-6.5" font-family="Helvetica,sans-Serif" font-size="10.00" fill="#000000">type_traits</text>
</g>
<!-- Node1&#45;&gt;Node6 -->
<g id="edge6" class="edge">
<title>Node1&#45;&gt;Node6</title>
<path fill="none" stroke="#191970" d="M199.0032,-55.4179C223.4259,-46.3419 261.1781,-32.3123 288.5272,-22.1488"/>
<polygon fill="#191970" stroke="#191970" points="289.934,-25.3599 298.0885,-18.5956 287.4956,-18.7984 289.934,-25.3599"/>
</g>
</g>
</svg>
