<?xml version="1.0" encoding="UTF-8" standalone="no"?>
<!DOCTYPE svg PUBLIC "-//W3C//DTD SVG 1.1//EN"
 "http://www.w3.org/Graphics/SVG/1.1/DTD/svg11.dtd">
<!-- Generated by graphviz version 2.40.1 (20161225.0304)
 -->
<!-- Title: /Users/Claudio/GitHub/bayes&#45;filters&#45;lib/src/BayesFilters Pages: 1 -->
<svg width="200pt" height="182pt"
 viewBox="0.00 0.00 200.00 182.00" xmlns="http://www.w3.org/2000/svg" xmlns:xlink="http://www.w3.org/1999/xlink">
<g id="graph0" class="graph" transform="scale(1 1) rotate(0) translate(4 178)">
<title>/Users/Claudio/GitHub/bayes&#45;filters&#45;lib/src/BayesFilters</title>
<polygon fill="#ffffff" stroke="transparent" points="-4,4 -4,-178 196,-178 196,4 -4,4"/>
<g id="clust1" class="cluster">
<title>clusterdir_68267d1309a1af8e8297ef4c3efbcdba</title>
<g id="a_clust1"><a xlink:href="dir_68267d1309a1af8e8297ef4c3efbcdba.html" target="_top" xlink:title="src">
<polygon fill="#ddddee" stroke="#000000" points="8,-8 8,-166 184,-166 184,-8 8,-8"/>
<text text-anchor="middle" x="96" y="-154" font-family="Helvetica,sans-Serif" font-size="10.00" fill="#000000">src</text>
</a>
</g>
</g>
<g id="clust2" class="cluster">
<title>clusterdir_2241471e9eadb441faa409a32682273a</title>
<g id="a_clust2"><a xlink:href="dir_2241471e9eadb441faa409a32682273a.html" target="_top">
<polygon fill="#eeeeff" stroke="#000000" points="16,-16 16,-140 176,-140 176,-16 16,-16"/>
</a>
</g>
</g>
<!-- dir_2241471e9eadb441faa409a32682273a -->
<g id="node1" class="node">
<title>dir_2241471e9eadb441faa409a32682273a</title>
<text text-anchor="middle" x="132" y="-111" font-family="Helvetica,sans-Serif" font-size="10.00" fill="#000000">BayesFilters</text>
</g>
<!-- dir_72bbe13a2fb85c634f60240cfcc5a45f -->
<g id="node2" class="node">
<title>dir_72bbe13a2fb85c634f60240cfcc5a45f</title>
<g id="a_node2"><a xlink:href="dir_72bbe13a2fb85c634f60240cfcc5a45f.html" target="_top" xlink:title="include">
<polygon fill="#ffffff" stroke="#ff0000" points="78,-60 24,-60 24,-24 78,-24 78,-60"/>
<text text-anchor="middle" x="51" y="-39" font-family="Helvetica,sans-Serif" font-size="10.00" fill="#000000">include</text>
</a>
</g>
</g>
<!-- dir_6829d6f0b9da600532ec29a78b3850ba -->
<g id="node3" class="node">
<title>dir_6829d6f0b9da600532ec29a78b3850ba</title>
<g id="a_node3"><a xlink:href="dir_6829d6f0b9da600532ec29a78b3850ba.html" target="_top" xlink:title="src">
<polygon fill="#ffffff" stroke="#000000" points="78,-132 24,-132 24,-96 78,-96 78,-132"/>
<text text-anchor="middle" x="51" y="-111" font-family="Helvetica,sans-Serif" font-size="10.00" fill="#000000">src</text>
</a>
</g>
</g>
<!-- dir_6829d6f0b9da600532ec29a78b3850ba&#45;&gt;dir_72bbe13a2fb85c634f60240cfcc5a45f -->
<g id="edge1" class="edge">
<title>dir_6829d6f0b9da600532ec29a78b3850ba&#45;&gt;dir_72bbe13a2fb85c634f60240cfcc5a45f</title>
<path fill="none" stroke="#000000" d="M51,-95.8314C51,-88.131 51,-78.9743 51,-70.4166"/>
<polygon fill="#000000" stroke="#000000" points="54.5001,-70.4132 51,-60.4133 47.5001,-70.4133 54.5001,-70.4132"/>
<g id="a_edge1&#45;headlabel"><a xlink:href="dir_000004_000002.html" target="_top" xlink:title="54">
<text text-anchor="middle" x="57.3393" y="-71.0079" font-family="Helvetica,sans-Serif" font-size="10.00" fill="#000000">54</text>
</a>
</g>
</g>
</g>
</svg>
