<?xml version="1.0" encoding="UTF-8" standalone="no"?>
<!DOCTYPE svg PUBLIC "-//W3C//DTD SVG 1.1//EN"
 "http://www.w3.org/Graphics/SVG/1.1/DTD/svg11.dtd">
<!-- Generated by graphviz version 2.40.1 (20161225.0304)
 -->
<!-- Title: /Users/Claudio/GitHub/bayes&#45;filters&#45;lib/src/BayesFilters/include/BayesFilters/directional_statistics.h Pages: 1 -->
<svg width="486pt" height="142pt"
 viewBox="0.00 0.00 486.32 142.00" xmlns="http://www.w3.org/2000/svg" xmlns:xlink="http://www.w3.org/1999/xlink">
<g id="graph0" class="graph" transform="scale(1 1) rotate(0) translate(4 138)">
<title>/Users/Claudio/GitHub/bayes&#45;filters&#45;lib/src/BayesFilters/include/BayesFilters/directional_statistics.h</title>
<polygon fill="#ffffff" stroke="transparent" points="-4,4 -4,-138 482.3198,-138 482.3198,4 -4,4"/>
<!-- Node2 -->
<g id="node1" class="node">
<title>Node2</title>
<polygon fill="#bfbfbf" stroke="#000000" points="133.1035,-85.5 133.1035,-133.5 299.1572,-133.5 299.1572,-85.5 133.1035,-85.5"/>
<text text-anchor="start" x="141.1035" y="-121.5" font-family="Helvetica,sans-Serif" font-size="10.00" fill="#000000">/Users/Claudio/GitHub</text>
<text text-anchor="start" x="141.1035" y="-111.5" font-family="Helvetica,sans-Serif" font-size="10.00" fill="#000000">/bayes&#45;filters&#45;lib/src</text>
<text text-anchor="start" x="141.1035" y="-101.5" font-family="Helvetica,sans-Serif" font-size="10.00" fill="#000000">/BayesFilters/include/BayesFilters</text>
<text text-anchor="middle" x="216.1304" y="-91.5" font-family="Helvetica,sans-Serif" font-size="10.00" fill="#000000">/directional_statistics.h</text>
</g>
<!-- Node3 -->
<g id="node2" class="node">
<title>Node3</title>
<g id="a_node2"><a xlink:href="directional__statistics_8cpp.html" target="_top" xlink:title="/Users/Claudio/GitHub\l/bayes&#45;filters&#45;lib/src\l/BayesFilters/src/directional\l_statistics.cpp">
<polygon fill="#ffffff" stroke="#000000" points="0,-.5 0,-48.5 138.2607,-48.5 138.2607,-.5 0,-.5"/>
<text text-anchor="start" x="8" y="-36.5" font-family="Helvetica,sans-Serif" font-size="10.00" fill="#000000">/Users/Claudio/GitHub</text>
<text text-anchor="start" x="8" y="-26.5" font-family="Helvetica,sans-Serif" font-size="10.00" fill="#000000">/bayes&#45;filters&#45;lib/src</text>
<text text-anchor="start" x="8" y="-16.5" font-family="Helvetica,sans-Serif" font-size="10.00" fill="#000000">/BayesFilters/src/directional</text>
<text text-anchor="middle" x="69.1304" y="-6.5" font-family="Helvetica,sans-Serif" font-size="10.00" fill="#000000">_statistics.cpp</text>
</a>
</g>
</g>
<!-- Node2&#45;&gt;Node3 -->
<g id="edge1" class="edge">
<title>Node2&#45;&gt;Node3</title>
<path fill="none" stroke="#191970" d="M165.2863,-80.1004C147.4681,-69.7973 127.681,-58.3558 110.7112,-48.5433"/>
<polygon fill="#191970" stroke="#191970" points="163.9903,-83.3939 174.3993,-85.3698 167.4943,-77.3341 163.9903,-83.3939"/>
</g>
<!-- Node4 -->
<g id="node3" class="node">
<title>Node4</title>
<g id="a_node3"><a xlink:href="sigma__point_8cpp.html" target="_top" xlink:title="/Users/Claudio/GitHub\l/bayes&#45;filters&#45;lib/src\l/BayesFilters/src/sigma\l_point.cpp">
<polygon fill="#ffffff" stroke="#000000" points="156.4531,-.5 156.4531,-48.5 275.8076,-48.5 275.8076,-.5 156.4531,-.5"/>
<text text-anchor="start" x="164.4531" y="-36.5" font-family="Helvetica,sans-Serif" font-size="10.00" fill="#000000">/Users/Claudio/GitHub</text>
<text text-anchor="start" x="164.4531" y="-26.5" font-family="Helvetica,sans-Serif" font-size="10.00" fill="#000000">/bayes&#45;filters&#45;lib/src</text>
<text text-anchor="start" x="164.4531" y="-16.5" font-family="Helvetica,sans-Serif" font-size="10.00" fill="#000000">/BayesFilters/src/sigma</text>
<text text-anchor="middle" x="216.1304" y="-6.5" font-family="Helvetica,sans-Serif" font-size="10.00" fill="#000000">_point.cpp</text>
</a>
</g>
</g>
<!-- Node2&#45;&gt;Node4 -->
<g id="edge2" class="edge">
<title>Node2&#45;&gt;Node4</title>
<path fill="none" stroke="#191970" d="M216.1304,-75.2518C216.1304,-66.3524 216.1304,-56.951 216.1304,-48.6906"/>
<polygon fill="#191970" stroke="#191970" points="212.6305,-75.3697 216.1304,-85.3698 219.6305,-75.3698 212.6305,-75.3697"/>
</g>
<!-- Node5 -->
<g id="node4" class="node">
<title>Node5</title>
<g id="a_node4"><a xlink:href="SUKFCorrection_8cpp.html" target="_top" xlink:title="/Users/Claudio/GitHub\l/bayes&#45;filters&#45;lib/src\l/BayesFilters/src/SUKFCorrection.cpp">
<polygon fill="#ffffff" stroke="#000000" points="293.9409,-5.5 293.9409,-43.5 478.3198,-43.5 478.3198,-5.5 293.9409,-5.5"/>
<text text-anchor="start" x="301.9409" y="-31.5" font-family="Helvetica,sans-Serif" font-size="10.00" fill="#000000">/Users/Claudio/GitHub</text>
<text text-anchor="start" x="301.9409" y="-21.5" font-family="Helvetica,sans-Serif" font-size="10.00" fill="#000000">/bayes&#45;filters&#45;lib/src</text>
<text text-anchor="middle" x="386.1304" y="-11.5" font-family="Helvetica,sans-Serif" font-size="10.00" fill="#000000">/BayesFilters/src/SUKFCorrection.cpp</text>
</a>
</g>
</g>
<!-- Node2&#45;&gt;Node5 -->
<g id="edge3" class="edge">
<title>Node2&#45;&gt;Node5</title>
<path fill="none" stroke="#191970" d="M273.6055,-80.7625C298.1379,-68.4962 326.0995,-54.5154 348.0121,-43.5591"/>
<polygon fill="#191970" stroke="#191970" points="271.7698,-77.7671 264.3908,-85.3698 274.9004,-84.0281 271.7698,-77.7671"/>
</g>
</g>
</svg>
