<?xml version="1.0" encoding="UTF-8" standalone="no"?>
<!DOCTYPE svg PUBLIC "-//W3C//DTD SVG 1.1//EN"
 "http://www.w3.org/Graphics/SVG/1.1/DTD/svg11.dtd">
<!-- Generated by graphviz version 2.40.1 (20161225.0304)
 -->
<!-- Title: /Users/Claudio/GitHub/bayes&#45;filters&#45;lib/src/BayesFilters/src/directional_statistics.cpp Pages: 1 -->
<svg width="188pt" height="177pt"
 viewBox="0.00 0.00 188.30 177.00" xmlns="http://www.w3.org/2000/svg" xmlns:xlink="http://www.w3.org/1999/xlink">
<g id="graph0" class="graph" transform="scale(1 1) rotate(0) translate(4 173)">
<title>/Users/Claudio/GitHub/bayes&#45;filters&#45;lib/src/BayesFilters/src/directional_statistics.cpp</title>
<polygon fill="#ffffff" stroke="transparent" points="-4,4 -4,-173 184.3027,-173 184.3027,4 -4,4"/>
<!-- Node0 -->
<g id="node1" class="node">
<title>Node0</title>
<polygon fill="#bfbfbf" stroke="#000000" points="39.5566,-120.5 39.5566,-168.5 177.8174,-168.5 177.8174,-120.5 39.5566,-120.5"/>
<text text-anchor="start" x="47.5566" y="-156.5" font-family="Helvetica,sans-Serif" font-size="10.00" fill="#000000">/Users/Claudio/GitHub</text>
<text text-anchor="start" x="47.5566" y="-146.5" font-family="Helvetica,sans-Serif" font-size="10.00" fill="#000000">/bayes&#45;filters&#45;lib/src</text>
<text text-anchor="start" x="47.5566" y="-136.5" font-family="Helvetica,sans-Serif" font-size="10.00" fill="#000000">/BayesFilters/src/directional</text>
<text text-anchor="middle" x="108.687" y="-126.5" font-family="Helvetica,sans-Serif" font-size="10.00" fill="#000000">_statistics.cpp</text>
</g>
<!-- Node1 -->
<g id="node2" class="node">
<title>Node1</title>
<g id="a_node2"><a xlink:href="directional__statistics_8h.html" target="_top" xlink:title="BayesFilters/directional\l_statistics.h">
<polygon fill="#ffffff" stroke="#000000" points="0,-55.5 0,-83.5 119.374,-83.5 119.374,-55.5 0,-55.5"/>
<text text-anchor="start" x="8" y="-71.5" font-family="Helvetica,sans-Serif" font-size="10.00" fill="#000000">BayesFilters/directional</text>
<text text-anchor="middle" x="59.687" y="-61.5" font-family="Helvetica,sans-Serif" font-size="10.00" fill="#000000">_statistics.h</text>
</a>
</g>
</g>
<!-- Node0&#45;&gt;Node1 -->
<g id="edge1" class="edge">
<title>Node0&#45;&gt;Node1</title>
<path fill="none" stroke="#191970" d="M92.9134,-120.3567C86.9543,-111.2356 80.2029,-100.9018 74.3497,-91.9429"/>
<polygon fill="#191970" stroke="#191970" points="77.2582,-89.9955 68.8586,-83.5382 71.3981,-93.8242 77.2582,-89.9955"/>
</g>
<!-- Node3 -->
<g id="node4" class="node">
<title>Node3</title>
<polygon fill="#ffffff" stroke="#bfbfbf" points="137.0713,-60.5 137.0713,-78.5 180.3027,-78.5 180.3027,-60.5 137.0713,-60.5"/>
<text text-anchor="middle" x="158.687" y="-66.5" font-family="Helvetica,sans-Serif" font-size="10.00" fill="#000000">cmath</text>
</g>
<!-- Node0&#45;&gt;Node3 -->
<g id="edge3" class="edge">
<title>Node0&#45;&gt;Node3</title>
<path fill="none" stroke="#191970" d="M124.7825,-120.3567C131.9651,-109.5829 140.2755,-97.1172 146.8711,-87.2239"/>
<polygon fill="#191970" stroke="#191970" points="149.9415,-88.928 152.5764,-78.666 144.1171,-85.045 149.9415,-88.928"/>
</g>
<!-- Node2 -->
<g id="node3" class="node">
<title>Node2</title>
<polygon fill="#ffffff" stroke="#bfbfbf" points="23.0566,-.5 23.0566,-18.5 96.3174,-18.5 96.3174,-.5 23.0566,-.5"/>
<text text-anchor="middle" x="59.687" y="-6.5" font-family="Helvetica,sans-Serif" font-size="10.00" fill="#000000">Eigen/Dense</text>
</g>
<!-- Node1&#45;&gt;Node2 -->
<g id="edge2" class="edge">
<title>Node1&#45;&gt;Node2</title>
<path fill="none" stroke="#191970" d="M59.687,-55.2808C59.687,-47.3776 59.687,-37.4316 59.687,-28.8308"/>
<polygon fill="#191970" stroke="#191970" points="63.1871,-28.5842 59.687,-18.5842 56.1871,-28.5842 63.1871,-28.5842"/>
</g>
</g>
</svg>
