<?xml version="1.0" encoding="UTF-8" standalone="no"?>
<!DOCTYPE svg PUBLIC "-//W3C//DTD SVG 1.1//EN"
 "http://www.w3.org/Graphics/SVG/1.1/DTD/svg11.dtd">
<!-- Generated by graphviz version 2.40.1 (20161225.0304)
 -->
<!-- Title: /Users/Claudio/GitHub/bayes&#45;filters&#45;lib/src/BayesFilters/src/DrawParticles.cpp Pages: 1 -->
<svg width="545pt" height="322pt"
 viewBox="0.00 0.00 544.91 322.00" xmlns="http://www.w3.org/2000/svg" xmlns:xlink="http://www.w3.org/1999/xlink">
<g id="graph0" class="graph" transform="scale(1 1) rotate(0) translate(4 318)">
<title>/Users/Claudio/GitHub/bayes&#45;filters&#45;lib/src/BayesFilters/src/DrawParticles.cpp</title>
<polygon fill="#ffffff" stroke="transparent" points="-4,4 -4,-318 540.914,-318 540.914,4 -4,4"/>
<!-- Node0 -->
<g id="node1" class="node">
<title>Node0</title>
<polygon fill="#bfbfbf" stroke="#000000" points="271.9242,-275.5 271.9242,-313.5 445.185,-313.5 445.185,-275.5 271.9242,-275.5"/>
<text text-anchor="start" x="279.9242" y="-301.5" font-family="Helvetica,sans-Serif" font-size="10.00" fill="#000000">/Users/Claudio/GitHub</text>
<text text-anchor="start" x="279.9242" y="-291.5" font-family="Helvetica,sans-Serif" font-size="10.00" fill="#000000">/bayes&#45;filters&#45;lib/src</text>
<text text-anchor="middle" x="358.5546" y="-281.5" font-family="Helvetica,sans-Serif" font-size="10.00" fill="#000000">/BayesFilters/src/DrawParticles.cpp</text>
</g>
<!-- Node1 -->
<g id="node2" class="node">
<title>Node1</title>
<g id="a_node2"><a xlink:href="DrawParticles_8h.html" target="_top" xlink:title="BayesFilters/DrawParticles.h">
<polygon fill="#ffffff" stroke="#000000" points="232.6483,-220.5 232.6483,-238.5 376.4608,-238.5 376.4608,-220.5 232.6483,-220.5"/>
<text text-anchor="middle" x="304.5546" y="-226.5" font-family="Helvetica,sans-Serif" font-size="10.00" fill="#000000">BayesFilters/DrawParticles.h</text>
</a>
</g>
</g>
<!-- Node0&#45;&gt;Node1 -->
<g id="edge1" class="edge">
<title>Node0&#45;&gt;Node1</title>
<path fill="none" stroke="#191970" d="M342.6449,-275.3494C335.0062,-266.1548 325.9342,-255.2347 318.5602,-246.3586"/>
<polygon fill="#191970" stroke="#191970" points="321.1952,-244.0532 312.1128,-238.5978 315.8109,-248.5264 321.1952,-244.0532"/>
</g>
<!-- Node12 -->
<g id="node13" class="node">
<title>Node12</title>
<polygon fill="#ffffff" stroke="#bfbfbf" points="394.163,-220.5 394.163,-238.5 432.9462,-238.5 432.9462,-220.5 394.163,-220.5"/>
<text text-anchor="middle" x="413.5546" y="-226.5" font-family="Helvetica,sans-Serif" font-size="10.00" fill="#000000">utility</text>
</g>
<!-- Node0&#45;&gt;Node12 -->
<g id="edge18" class="edge">
<title>Node0&#45;&gt;Node12</title>
<path fill="none" stroke="#191970" d="M374.7589,-275.3494C382.539,-266.1548 391.7791,-255.2347 399.2896,-246.3586"/>
<polygon fill="#191970" stroke="#191970" points="402.0688,-248.4925 405.8564,-238.5978 396.7251,-243.9709 402.0688,-248.4925"/>
</g>
<!-- Node2 -->
<g id="node3" class="node">
<title>Node2</title>
<g id="a_node3"><a xlink:href="ParticleSet_8h.html" target="_top" xlink:title="BayesFilters/ParticleSet.h">
<polygon fill="#ffffff" stroke="#000000" points="33.3109,-110.5 33.3109,-128.5 163.7982,-128.5 163.7982,-110.5 33.3109,-110.5"/>
<text text-anchor="middle" x="98.5546" y="-116.5" font-family="Helvetica,sans-Serif" font-size="10.00" fill="#000000">BayesFilters/ParticleSet.h</text>
</a>
</g>
</g>
<!-- Node1&#45;&gt;Node2 -->
<g id="edge2" class="edge">
<title>Node1&#45;&gt;Node2</title>
<path fill="none" stroke="#191970" d="M268.8974,-220.4615C242.3875,-212.8939 205.8852,-200.6475 176.5546,-184 153.0873,-170.6804 129.7076,-150.1318 114.7545,-135.8195"/>
<polygon fill="#191970" stroke="#191970" points="116.9639,-133.0847 107.3671,-128.5954 112.0697,-138.0894 116.9639,-133.0847"/>
</g>
<!-- Node6 -->
<g id="node7" class="node">
<title>Node6</title>
<g id="a_node7"><a xlink:href="PFPrediction_8h.html" target="_top" xlink:title="BayesFilters/PFPrediction.h">
<polygon fill="#ffffff" stroke="#000000" points="185.8651,-165.5 185.8651,-183.5 325.244,-183.5 325.244,-165.5 185.8651,-165.5"/>
<text text-anchor="middle" x="255.5546" y="-171.5" font-family="Helvetica,sans-Serif" font-size="10.00" fill="#000000">BayesFilters/PFPrediction.h</text>
</a>
</g>
</g>
<!-- Node1&#45;&gt;Node6 -->
<g id="edge7" class="edge">
<title>Node1&#45;&gt;Node6</title>
<path fill="none" stroke="#191970" d="M296.4632,-220.4179C289.4833,-212.5833 279.2149,-201.0575 270.7122,-191.5137"/>
<polygon fill="#191970" stroke="#191970" points="273.0872,-188.9178 263.8217,-183.7795 267.8605,-193.5743 273.0872,-188.9178"/>
</g>
<!-- Node9 -->
<g id="node10" class="node">
<title>Node9</title>
<polygon fill="#ffffff" stroke="#bfbfbf" points="360.498,-110.5 360.498,-128.5 412.6112,-128.5 412.6112,-110.5 360.498,-110.5"/>
<text text-anchor="middle" x="386.5546" y="-116.5" font-family="Helvetica,sans-Serif" font-size="10.00" fill="#000000">memory</text>
</g>
<!-- Node1&#45;&gt;Node9 -->
<g id="edge17" class="edge">
<title>Node1&#45;&gt;Node9</title>
<path fill="none" stroke="#191970" d="M311.265,-220.4982C324.8996,-202.2079 356.0428,-160.4304 373.7064,-136.7354"/>
<polygon fill="#191970" stroke="#191970" points="376.5809,-138.7355 379.7515,-128.6261 370.9687,-134.5518 376.5809,-138.7355"/>
</g>
<!-- Node11 -->
<g id="node12" class="node">
<title>Node11</title>
<polygon fill="#ffffff" stroke="#bfbfbf" points="381.6015,-165.5 381.6015,-183.5 431.5077,-183.5 431.5077,-165.5 381.6015,-165.5"/>
<text text-anchor="middle" x="406.5546" y="-171.5" font-family="Helvetica,sans-Serif" font-size="10.00" fill="#000000">random</text>
</g>
<!-- Node1&#45;&gt;Node11 -->
<g id="edge16" class="edge">
<title>Node1&#45;&gt;Node11</title>
<path fill="none" stroke="#191970" d="M321.3978,-220.4179C337.5653,-211.7001 362.2084,-198.4122 380.8322,-188.3699"/>
<polygon fill="#191970" stroke="#191970" points="382.5456,-191.4225 389.6863,-183.5956 379.2232,-185.2611 382.5456,-191.4225"/>
</g>
<!-- Node3 -->
<g id="node4" class="node">
<title>Node3</title>
<g id="a_node4"><a xlink:href="GaussianMixture_8h.html" target="_top" xlink:title="BayesFilters/GaussianMixture.h">
<polygon fill="#ffffff" stroke="#000000" points="12.9735,-55.5 12.9735,-73.5 170.1356,-73.5 170.1356,-55.5 12.9735,-55.5"/>
<text text-anchor="middle" x="91.5546" y="-61.5" font-family="Helvetica,sans-Serif" font-size="10.00" fill="#000000">BayesFilters/GaussianMixture.h</text>
</a>
</g>
</g>
<!-- Node2&#45;&gt;Node3 -->
<g id="edge3" class="edge">
<title>Node2&#45;&gt;Node3</title>
<path fill="none" stroke="#191970" d="M97.3987,-110.4179C96.4821,-103.2164 95.1687,-92.8962 94.019,-83.8632"/>
<polygon fill="#191970" stroke="#191970" points="97.4702,-83.2575 92.7356,-73.7795 90.5263,-84.1414 97.4702,-83.2575"/>
</g>
<!-- Node4 -->
<g id="node5" class="node">
<title>Node4</title>
<polygon fill="#ffffff" stroke="#bfbfbf" points="16.9389,-.5 16.9389,-18.5 60.1703,-18.5 60.1703,-.5 16.9389,-.5"/>
<text text-anchor="middle" x="38.5546" y="-6.5" font-family="Helvetica,sans-Serif" font-size="10.00" fill="#000000">vector</text>
</g>
<!-- Node2&#45;&gt;Node4 -->
<g id="edge6" class="edge">
<title>Node2&#45;&gt;Node4</title>
<path fill="none" stroke="#191970" d="M56.5092,-110.3416C36.8546,-103.7266 15.2496,-92.5685 3.5546,-74 -6.4349,-58.1395 6.6178,-39.2057 19.527,-25.9696"/>
<polygon fill="#191970" stroke="#191970" points="22.1166,-28.3364 26.9359,-18.9011 17.2846,-23.2717 22.1166,-28.3364"/>
</g>
<!-- Node3&#45;&gt;Node4 -->
<g id="edge4" class="edge">
<title>Node3&#45;&gt;Node4</title>
<path fill="none" stroke="#191970" d="M82.8027,-55.4179C75.1767,-47.5041 63.9217,-35.8243 54.6715,-26.2251"/>
<polygon fill="#191970" stroke="#191970" points="56.9559,-23.5516 47.4966,-18.7795 51.9153,-28.4089 56.9559,-23.5516"/>
</g>
<!-- Node5 -->
<g id="node6" class="node">
<title>Node5</title>
<polygon fill="#ffffff" stroke="#bfbfbf" points="215.9242,-.5 215.9242,-18.5 289.185,-18.5 289.185,-.5 215.9242,-.5"/>
<text text-anchor="middle" x="252.5546" y="-6.5" font-family="Helvetica,sans-Serif" font-size="10.00" fill="#000000">Eigen/Dense</text>
</g>
<!-- Node3&#45;&gt;Node5 -->
<g id="edge5" class="edge">
<title>Node3&#45;&gt;Node5</title>
<path fill="none" stroke="#191970" d="M118.1405,-55.4179C145.0217,-46.2348 186.7473,-31.9807 216.5758,-21.7909"/>
<polygon fill="#191970" stroke="#191970" points="217.8652,-25.0491 226.1968,-18.5042 215.6023,-18.4249 217.8652,-25.0491"/>
</g>
<!-- Node6&#45;&gt;Node2 -->
<g id="edge10" class="edge">
<title>Node6&#45;&gt;Node2</title>
<path fill="none" stroke="#191970" d="M229.6292,-165.4179C203.5298,-156.2748 163.0804,-142.1046 134.0196,-131.924"/>
<polygon fill="#191970" stroke="#191970" points="134.8524,-128.5073 124.2575,-128.5042 132.538,-135.1136 134.8524,-128.5073"/>
</g>
<!-- Node6&#45;&gt;Node5 -->
<g id="edge13" class="edge">
<title>Node6&#45;&gt;Node5</title>
<path fill="none" stroke="#191970" d="M248.6671,-165.4653C234.3044,-145.4741 203.6044,-96.0152 217.5546,-55 221.1749,-44.3559 228.4012,-34.2572 235.3524,-26.2901"/>
<polygon fill="#191970" stroke="#191970" points="238.0591,-28.52 242.3339,-18.8258 232.9468,-23.7383 238.0591,-28.52"/>
</g>
<!-- Node7 -->
<g id="node8" class="node">
<title>Node7</title>
<g id="a_node8"><a xlink:href="ExogenousModel_8h.html" target="_top" xlink:title="BayesFilters/ExogenousModel.h">
<polygon fill="#ffffff" stroke="#000000" points="226.8505,-55.5 226.8505,-73.5 386.2587,-73.5 386.2587,-55.5 226.8505,-55.5"/>
<text text-anchor="middle" x="306.5546" y="-61.5" font-family="Helvetica,sans-Serif" font-size="10.00" fill="#000000">BayesFilters/ExogenousModel.h</text>
</a>
</g>
</g>
<!-- Node6&#45;&gt;Node7 -->
<g id="edge8" class="edge">
<title>Node6&#45;&gt;Node7</title>
<path fill="none" stroke="#191970" d="M254.3224,-165.2368C253.0132,-152.2358 252.1458,-128.1377 260.5546,-110 266.0359,-98.1769 275.9965,-87.7253 285.2507,-79.8302"/>
<polygon fill="#191970" stroke="#191970" points="287.4445,-82.5574 293.071,-73.5801 283.0742,-77.0892 287.4445,-82.5574"/>
</g>
<!-- Node8 -->
<g id="node9" class="node">
<title>Node8</title>
<g id="a_node9"><a xlink:href="StateModel_8h.html" target="_top" xlink:title="BayesFilters/StateModel.h">
<polygon fill="#ffffff" stroke="#000000" points="404.1952,-55.5 404.1952,-73.5 536.914,-73.5 536.914,-55.5 404.1952,-55.5"/>
<text text-anchor="middle" x="470.5546" y="-61.5" font-family="Helvetica,sans-Serif" font-size="10.00" fill="#000000">BayesFilters/StateModel.h</text>
</a>
</g>
</g>
<!-- Node6&#45;&gt;Node8 -->
<g id="edge11" class="edge">
<title>Node6&#45;&gt;Node8</title>
<path fill="none" stroke="#191970" d="M258.3466,-165.4755C263.1745,-151.408 274.4449,-124.3772 293.5546,-110 311.6075,-96.4179 364.3474,-83.8668 407.5966,-75.4027"/>
<polygon fill="#191970" stroke="#191970" points="408.3484,-78.8224 417.5097,-73.5006 407.0292,-71.9478 408.3484,-78.8224"/>
</g>
<!-- Node6&#45;&gt;Node9 -->
<g id="edge14" class="edge">
<title>Node6&#45;&gt;Node9</title>
<path fill="none" stroke="#191970" d="M277.1866,-165.4179C298.5196,-156.4613 331.3425,-142.6806 355.4671,-132.552"/>
<polygon fill="#191970" stroke="#191970" points="357.0251,-135.6939 364.8905,-128.5956 354.3152,-129.2397 357.0251,-135.6939"/>
</g>
<!-- Node10 -->
<g id="node11" class="node">
<title>Node10</title>
<polygon fill="#ffffff" stroke="#bfbfbf" points="302.328,-110.5 302.328,-128.5 342.7812,-128.5 342.7812,-110.5 302.328,-110.5"/>
<text text-anchor="middle" x="322.5546" y="-116.5" font-family="Helvetica,sans-Serif" font-size="10.00" fill="#000000">string</text>
</g>
<!-- Node6&#45;&gt;Node10 -->
<g id="edge15" class="edge">
<title>Node6&#45;&gt;Node10</title>
<path fill="none" stroke="#191970" d="M266.6183,-165.4179C276.5479,-157.2667 291.3446,-145.1201 303.2258,-135.3669"/>
<polygon fill="#191970" stroke="#191970" points="305.742,-137.8297 311.2505,-128.7795 301.3005,-132.4192 305.742,-137.8297"/>
</g>
<!-- Node7&#45;&gt;Node5 -->
<g id="edge9" class="edge">
<title>Node7&#45;&gt;Node5</title>
<path fill="none" stroke="#191970" d="M297.6376,-55.4179C289.79,-47.425 278.1706,-35.5903 268.6935,-25.9377"/>
<polygon fill="#191970" stroke="#191970" points="271.1687,-23.463 261.6653,-18.7795 266.1738,-28.3672 271.1687,-23.463"/>
</g>
<!-- Node8&#45;&gt;Node5 -->
<g id="edge12" class="edge">
<title>Node8&#45;&gt;Node5</title>
<path fill="none" stroke="#191970" d="M434.5563,-55.4179C397.2086,-45.9953 338.6987,-31.2336 298.1439,-21.0019"/>
<polygon fill="#191970" stroke="#191970" points="298.7964,-17.5569 288.244,-18.5042 297.084,-24.3442 298.7964,-17.5569"/>
</g>
</g>
</svg>
