<?xml version="1.0" encoding="UTF-8" standalone="no"?>
<!DOCTYPE svg PUBLIC "-//W3C//DTD SVG 1.1//EN"
 "http://www.w3.org/Graphics/SVG/1.1/DTD/svg11.dtd">
<!-- Generated by graphviz version 2.40.1 (20161225.0304)
 -->
<!-- Title: /Users/Claudio/GitHub/bayes&#45;filters&#45;lib/src/BayesFilters/include/BayesFilters/EstimatesExtraction.h Pages: 1 -->
<svg width="306pt" height="167pt"
 viewBox="0.00 0.00 305.83 167.00" xmlns="http://www.w3.org/2000/svg" xmlns:xlink="http://www.w3.org/1999/xlink">
<g id="graph0" class="graph" transform="scale(1 1) rotate(0) translate(4 163)">
<title>/Users/Claudio/GitHub/bayes&#45;filters&#45;lib/src/BayesFilters/include/BayesFilters/EstimatesExtraction.h</title>
<polygon fill="#ffffff" stroke="transparent" points="-4,4 -4,-163 301.8281,-163 301.8281,4 -4,4"/>
<!-- Node0 -->
<g id="node1" class="node">
<title>Node0</title>
<polygon fill="#bfbfbf" stroke="#000000" points="22.1997,-110.5 22.1997,-158.5 188.2534,-158.5 188.2534,-110.5 22.1997,-110.5"/>
<text text-anchor="start" x="30.1997" y="-146.5" font-family="Helvetica,sans-Serif" font-size="10.00" fill="#000000">/Users/Claudio/GitHub</text>
<text text-anchor="start" x="30.1997" y="-136.5" font-family="Helvetica,sans-Serif" font-size="10.00" fill="#000000">/bayes&#45;filters&#45;lib/src</text>
<text text-anchor="start" x="30.1997" y="-126.5" font-family="Helvetica,sans-Serif" font-size="10.00" fill="#000000">/BayesFilters/include/BayesFilters</text>
<text text-anchor="middle" x="105.2266" y="-116.5" font-family="Helvetica,sans-Serif" font-size="10.00" fill="#000000">/EstimatesExtraction.h</text>
</g>
<!-- Node1 -->
<g id="node2" class="node">
<title>Node1</title>
<polygon fill="#ffffff" stroke="#bfbfbf" points="0,-55.5 0,-73.5 40.4531,-73.5 40.4531,-55.5 0,-55.5"/>
<text text-anchor="middle" x="20.2266" y="-61.5" font-family="Helvetica,sans-Serif" font-size="10.00" fill="#000000">string</text>
</g>
<!-- Node0&#45;&gt;Node1 -->
<g id="edge1" class="edge">
<title>Node0&#45;&gt;Node1</title>
<path fill="none" stroke="#191970" d="M75.9744,-110.41C63.8487,-100.4241 50.1245,-89.1218 39.3275,-80.2301"/>
<polygon fill="#191970" stroke="#191970" points="41.3268,-77.3426 31.3825,-73.6872 36.8768,-82.7461 41.3268,-77.3426"/>
</g>
<!-- Node2 -->
<g id="node3" class="node">
<title>Node2</title>
<polygon fill="#ffffff" stroke="#bfbfbf" points="58.6108,-55.5 58.6108,-73.5 101.8423,-73.5 101.8423,-55.5 58.6108,-55.5"/>
<text text-anchor="middle" x="80.2266" y="-61.5" font-family="Helvetica,sans-Serif" font-size="10.00" fill="#000000">vector</text>
</g>
<!-- Node0&#45;&gt;Node2 -->
<g id="edge2" class="edge">
<title>Node0&#45;&gt;Node2</title>
<path fill="none" stroke="#191970" d="M96.623,-110.41C93.445,-101.5117 89.8937,-91.5681 86.911,-83.2163"/>
<polygon fill="#191970" stroke="#191970" points="90.1672,-81.9275 83.5077,-73.6872 83.5751,-84.2819 90.1672,-81.9275"/>
</g>
<!-- Node3 -->
<g id="node4" class="node">
<title>Node3</title>
<polygon fill="#ffffff" stroke="#bfbfbf" points="110.2119,-.5 110.2119,-18.5 176.2412,-18.5 176.2412,-.5 110.2119,-.5"/>
<text text-anchor="middle" x="143.2266" y="-6.5" font-family="Helvetica,sans-Serif" font-size="10.00" fill="#000000">Eigen/Core</text>
</g>
<!-- Node0&#45;&gt;Node3 -->
<g id="edge3" class="edge">
<title>Node0&#45;&gt;Node3</title>
<path fill="none" stroke="#191970" d="M112.5533,-110.3987C119.8226,-86.4866 130.8139,-50.331 137.4765,-28.4147"/>
<polygon fill="#191970" stroke="#191970" points="140.8839,-29.2392 140.4439,-18.6536 134.1866,-27.2032 140.8839,-29.2392"/>
</g>
<!-- Node4 -->
<g id="node5" class="node">
<title>Node4</title>
<g id="a_node5"><a xlink:href="HistoryBuffer_8h.html" target="_top" xlink:title="BayesFilters/HistoryBuffer.h">
<polygon fill="#ffffff" stroke="#000000" points="158.625,-55.5 158.625,-73.5 297.8281,-73.5 297.8281,-55.5 158.625,-55.5"/>
<text text-anchor="middle" x="228.2266" y="-61.5" font-family="Helvetica,sans-Serif" font-size="10.00" fill="#000000">BayesFilters/HistoryBuffer.h</text>
</a>
</g>
</g>
<!-- Node0&#45;&gt;Node4 -->
<g id="edge4" class="edge">
<title>Node0&#45;&gt;Node4</title>
<path fill="none" stroke="#191970" d="M147.5562,-110.41C166.2613,-99.7648 187.5952,-87.6235 203.624,-78.5015"/>
<polygon fill="#191970" stroke="#191970" points="205.4285,-81.5017 212.3885,-73.5136 201.9662,-75.4179 205.4285,-81.5017"/>
</g>
<!-- Node4&#45;&gt;Node3 -->
<g id="edge6" class="edge">
<title>Node4&#45;&gt;Node3</title>
<path fill="none" stroke="#191970" d="M214.1905,-55.4179C201.0252,-46.8992 181.1158,-34.0166 165.7326,-24.0627"/>
<polygon fill="#191970" stroke="#191970" points="167.5805,-21.0897 157.2834,-18.5956 163.7778,-26.9667 167.5805,-21.0897"/>
</g>
<!-- Node5 -->
<g id="node6" class="node">
<title>Node5</title>
<polygon fill="#ffffff" stroke="#bfbfbf" points="206.3228,-.5 206.3228,-18.5 250.1304,-18.5 250.1304,-.5 206.3228,-.5"/>
<text text-anchor="middle" x="228.2266" y="-6.5" font-family="Helvetica,sans-Serif" font-size="10.00" fill="#000000">deque</text>
</g>
<!-- Node4&#45;&gt;Node5 -->
<g id="edge5" class="edge">
<title>Node4&#45;&gt;Node5</title>
<path fill="none" stroke="#191970" d="M228.2266,-55.4179C228.2266,-48.2164 228.2266,-37.8962 228.2266,-28.8632"/>
<polygon fill="#191970" stroke="#191970" points="231.7267,-28.7794 228.2266,-18.7795 224.7267,-28.7795 231.7267,-28.7794"/>
</g>
</g>
</svg>
