<?xml version="1.0" encoding="UTF-8" standalone="no"?>
<!DOCTYPE svg PUBLIC "-//W3C//DTD SVG 1.1//EN"
 "http://www.w3.org/Graphics/SVG/1.1/DTD/svg11.dtd">
<!-- Generated by graphviz version 2.40.1 (20161225.0304)
 -->
<!-- Title: /Users/Claudio/GitHub/bayes&#45;filters&#45;lib/src/BayesFilters/src/EstimatesExtraction.cpp Pages: 1 -->
<svg width="306pt" height="212pt"
 viewBox="0.00 0.00 305.83 212.00" xmlns="http://www.w3.org/2000/svg" xmlns:xlink="http://www.w3.org/1999/xlink">
<g id="graph0" class="graph" transform="scale(1 1) rotate(0) translate(4 208)">
<title>/Users/Claudio/GitHub/bayes&#45;filters&#45;lib/src/BayesFilters/src/EstimatesExtraction.cpp</title>
<polygon fill="#ffffff" stroke="transparent" points="-4,4 -4,-208 301.8281,-208 301.8281,4 -4,4"/>
<!-- Node0 -->
<g id="node1" class="node">
<title>Node0</title>
<polygon fill="#bfbfbf" stroke="#000000" points="5.2539,-165.5 5.2539,-203.5 205.1992,-203.5 205.1992,-165.5 5.2539,-165.5"/>
<text text-anchor="start" x="13.2539" y="-191.5" font-family="Helvetica,sans-Serif" font-size="10.00" fill="#000000">/Users/Claudio/GitHub</text>
<text text-anchor="start" x="13.2539" y="-181.5" font-family="Helvetica,sans-Serif" font-size="10.00" fill="#000000">/bayes&#45;filters&#45;lib/src</text>
<text text-anchor="middle" x="105.2266" y="-171.5" font-family="Helvetica,sans-Serif" font-size="10.00" fill="#000000">/BayesFilters/src/EstimatesExtraction.cpp</text>
</g>
<!-- Node1 -->
<g id="node2" class="node">
<title>Node1</title>
<g id="a_node2"><a xlink:href="EstimatesExtraction_8h.html" target="_top" xlink:title="BayesFilters/EstimatesExtraction.h">
<polygon fill="#ffffff" stroke="#000000" points="19.978,-110.5 19.978,-128.5 190.4751,-128.5 190.4751,-110.5 19.978,-110.5"/>
<text text-anchor="middle" x="105.2266" y="-116.5" font-family="Helvetica,sans-Serif" font-size="10.00" fill="#000000">BayesFilters/EstimatesExtraction.h</text>
</a>
</g>
</g>
<!-- Node0&#45;&gt;Node1 -->
<g id="edge1" class="edge">
<title>Node0&#45;&gt;Node1</title>
<path fill="none" stroke="#191970" d="M105.2266,-165.3494C105.2266,-157.0079 105.2266,-147.2463 105.2266,-138.879"/>
<polygon fill="#191970" stroke="#191970" points="108.7267,-138.5978 105.2266,-128.5978 101.7267,-138.5979 108.7267,-138.5978"/>
</g>
<!-- Node2 -->
<g id="node3" class="node">
<title>Node2</title>
<polygon fill="#ffffff" stroke="#bfbfbf" points="0,-55.5 0,-73.5 40.4531,-73.5 40.4531,-55.5 0,-55.5"/>
<text text-anchor="middle" x="20.2266" y="-61.5" font-family="Helvetica,sans-Serif" font-size="10.00" fill="#000000">string</text>
</g>
<!-- Node1&#45;&gt;Node2 -->
<g id="edge2" class="edge">
<title>Node1&#45;&gt;Node2</title>
<path fill="none" stroke="#191970" d="M91.1905,-110.4179C78.0252,-101.8992 58.1158,-89.0166 42.7326,-79.0627"/>
<polygon fill="#191970" stroke="#191970" points="44.5805,-76.0897 34.2834,-73.5956 40.7778,-81.9667 44.5805,-76.0897"/>
</g>
<!-- Node3 -->
<g id="node4" class="node">
<title>Node3</title>
<polygon fill="#ffffff" stroke="#bfbfbf" points="58.6108,-55.5 58.6108,-73.5 101.8423,-73.5 101.8423,-55.5 58.6108,-55.5"/>
<text text-anchor="middle" x="80.2266" y="-61.5" font-family="Helvetica,sans-Serif" font-size="10.00" fill="#000000">vector</text>
</g>
<!-- Node1&#45;&gt;Node3 -->
<g id="edge3" class="edge">
<title>Node1&#45;&gt;Node3</title>
<path fill="none" stroke="#191970" d="M101.0983,-110.4179C97.717,-102.9789 92.8231,-92.2123 88.6239,-82.9742"/>
<polygon fill="#191970" stroke="#191970" points="91.7689,-81.4348 84.4445,-73.7795 85.3963,-84.3315 91.7689,-81.4348"/>
</g>
<!-- Node4 -->
<g id="node5" class="node">
<title>Node4</title>
<polygon fill="#ffffff" stroke="#bfbfbf" points="110.2119,-.5 110.2119,-18.5 176.2412,-18.5 176.2412,-.5 110.2119,-.5"/>
<text text-anchor="middle" x="143.2266" y="-6.5" font-family="Helvetica,sans-Serif" font-size="10.00" fill="#000000">Eigen/Core</text>
</g>
<!-- Node1&#45;&gt;Node4 -->
<g id="edge4" class="edge">
<title>Node1&#45;&gt;Node4</title>
<path fill="none" stroke="#191970" d="M108.3363,-110.4982C114.5156,-92.6108 128.4551,-52.2594 136.7227,-28.3271"/>
<polygon fill="#191970" stroke="#191970" points="140.1168,-29.2209 140.0739,-18.6261 133.5005,-26.9352 140.1168,-29.2209"/>
</g>
<!-- Node5 -->
<g id="node6" class="node">
<title>Node5</title>
<g id="a_node6"><a xlink:href="HistoryBuffer_8h.html" target="_top" xlink:title="BayesFilters/HistoryBuffer.h">
<polygon fill="#ffffff" stroke="#000000" points="158.625,-55.5 158.625,-73.5 297.8281,-73.5 297.8281,-55.5 158.625,-55.5"/>
<text text-anchor="middle" x="228.2266" y="-61.5" font-family="Helvetica,sans-Serif" font-size="10.00" fill="#000000">BayesFilters/HistoryBuffer.h</text>
</a>
</g>
</g>
<!-- Node1&#45;&gt;Node5 -->
<g id="edge5" class="edge">
<title>Node1&#45;&gt;Node5</title>
<path fill="none" stroke="#191970" d="M125.5375,-110.4179C145.4787,-101.5011 176.1125,-87.803 198.7351,-77.6873"/>
<polygon fill="#191970" stroke="#191970" points="200.1853,-80.8728 207.8854,-73.5956 197.3278,-74.4826 200.1853,-80.8728"/>
</g>
<!-- Node5&#45;&gt;Node4 -->
<g id="edge7" class="edge">
<title>Node5&#45;&gt;Node4</title>
<path fill="none" stroke="#191970" d="M214.1905,-55.4179C201.0252,-46.8992 181.1158,-34.0166 165.7326,-24.0627"/>
<polygon fill="#191970" stroke="#191970" points="167.5805,-21.0897 157.2834,-18.5956 163.7778,-26.9667 167.5805,-21.0897"/>
</g>
<!-- Node6 -->
<g id="node7" class="node">
<title>Node6</title>
<polygon fill="#ffffff" stroke="#bfbfbf" points="206.3228,-.5 206.3228,-18.5 250.1304,-18.5 250.1304,-.5 206.3228,-.5"/>
<text text-anchor="middle" x="228.2266" y="-6.5" font-family="Helvetica,sans-Serif" font-size="10.00" fill="#000000">deque</text>
</g>
<!-- Node5&#45;&gt;Node6 -->
<g id="edge6" class="edge">
<title>Node5&#45;&gt;Node6</title>
<path fill="none" stroke="#191970" d="M228.2266,-55.4179C228.2266,-48.2164 228.2266,-37.8962 228.2266,-28.8632"/>
<polygon fill="#191970" stroke="#191970" points="231.7267,-28.7794 228.2266,-18.7795 224.7267,-28.7795 231.7267,-28.7794"/>
</g>
</g>
</svg>
