<?xml version="1.0" encoding="UTF-8" standalone="no"?>
<!DOCTYPE svg PUBLIC "-//W3C//DTD SVG 1.1//EN"
 "http://www.w3.org/Graphics/SVG/1.1/DTD/svg11.dtd">
<!-- Generated by graphviz version 2.40.1 (20161225.0304)
 -->
<!-- Title: /Users/Claudio/GitHub/bayes&#45;filters&#45;lib/src/BayesFilters/include/BayesFilters/ExogenousModel.h Pages: 1 -->
<!--zoomable 387 -->
<svg id="main" version="1.1" xmlns="http://www.w3.org/2000/svg" xmlns:xlink="http://www.w3.org/1999/xlink" xml:space="preserve" onload="init(evt)">
<style type="text/css"><![CDATA[
.edge:hover path { stroke: red; }
.edge:hover polygon { stroke: red; fill: red; }
]]></style>
<script type="text/javascript"><![CDATA[
var edges = document.getElementsByTagName('g');
if (edges && edges.length) {
  for (var i=0;i<edges.length;i++) {
    if (edges[i].id.substr(0,4)=='edge') {
      edges[i].setAttribute('class','edge');
    }
  }
}
]]></script>
        <defs>
                <circle id="rim" cx="0" cy="0" r="7"/>
                <circle id="rim2" cx="0" cy="0" r="3.5"/>
                <g id="zoomPlus">
                        <use xlink:href="#rim" fill="#404040">
                                <set attributeName="fill" to="#808080" begin="zoomplus.mouseover" end="zoomplus.mouseout"/>
                        </use>
                        <path d="M-4,0h8M0,-4v8" fill="none" stroke="white" stroke-width="1.5" pointer-events="none"/>
                </g>
                <g id="zoomMin">
                        <use xlink:href="#rim" fill="#404040">
                                <set attributeName="fill" to="#808080" begin="zoomminus.mouseover" end="zoomminus.mouseout"/>
                        </use>
                        <path d="M-4,0h8" fill="none" stroke="white" stroke-width="1.5" pointer-events="none"/>
                </g>
                <g id="dirArrow">
                        <path fill="none" stroke="white" stroke-width="1.5" d="M0,-3.0v7 M-2.5,-0.5L0,-3.0L2.5,-0.5"/>
                </g>
               <g id="resetDef">
                       <use xlink:href="#rim2" fill="#404040">
                               <set attributeName="fill" to="#808080" begin="reset.mouseover" end="reset.mouseout"/>
                       </use>
               </g>
        </defs>

<script type="text/javascript">
var viewWidth = 1842;
var viewHeight = 387;
var sectionId = 'dynsection-1';
</script>
<script xlink:href="svgpan.js"/>
<svg id="graph" class="graph">
<g id="viewport">
<title>/Users/Claudio/GitHub/bayes&#45;filters&#45;lib/src/BayesFilters/include/BayesFilters/ExogenousModel.h</title>
<polygon fill="#ffffff" stroke="transparent" points="-4,4 -4,-383 1838.438,-383 1838.438,4 -4,4"/>
<!-- Node2 -->
<g id="node1" class="node">
<title>Node2</title>
<polygon fill="#bfbfbf" stroke="#000000" points="500.3867,-330.5 500.3867,-378.5 666.4404,-378.5 666.4404,-330.5 500.3867,-330.5"/>
<text text-anchor="start" x="508.3867" y="-366.5" font-family="Helvetica,sans-Serif" font-size="10.00" fill="#000000">/Users/Claudio/GitHub</text>
<text text-anchor="start" x="508.3867" y="-356.5" font-family="Helvetica,sans-Serif" font-size="10.00" fill="#000000">/bayes&#45;filters&#45;lib/src</text>
<text text-anchor="start" x="508.3867" y="-346.5" font-family="Helvetica,sans-Serif" font-size="10.00" fill="#000000">/BayesFilters/include/BayesFilters</text>
<text text-anchor="middle" x="583.4136" y="-336.5" font-family="Helvetica,sans-Serif" font-size="10.00" fill="#000000">/ExogenousModel.h</text>
</g>
<!-- Node3 -->
<g id="node2" class="node">
<title>Node3</title>
<g id="a_node2"><a xlink:href="GPFPrediction_8h.html" target="_top" xlink:title="/Users/Claudio/GitHub\l/bayes&#45;filters&#45;lib/src\l/BayesFilters/include/BayesFilters\l/GPFPrediction.h">
<polygon fill="#ffffff" stroke="#000000" points="186.3867,-160.5 186.3867,-208.5 352.4404,-208.5 352.4404,-160.5 186.3867,-160.5"/>
<text text-anchor="start" x="194.3867" y="-196.5" font-family="Helvetica,sans-Serif" font-size="10.00" fill="#000000">/Users/Claudio/GitHub</text>
<text text-anchor="start" x="194.3867" y="-186.5" font-family="Helvetica,sans-Serif" font-size="10.00" fill="#000000">/bayes&#45;filters&#45;lib/src</text>
<text text-anchor="start" x="194.3867" y="-176.5" font-family="Helvetica,sans-Serif" font-size="10.00" fill="#000000">/BayesFilters/include/BayesFilters</text>
<text text-anchor="middle" x="269.4136" y="-166.5" font-family="Helvetica,sans-Serif" font-size="10.00" fill="#000000">/GPFPrediction.h</text>
</a>
</g>
</g>
<!-- Node2&#45;&gt;Node3 -->
<g id="edge1" class="edge">
<title>Node2&#45;&gt;Node3</title>
<path fill="none" stroke="#191970" d="M529.6877,-325.4127C468.8073,-292.452 370.6901,-239.3313 313.9146,-208.5929"/>
<polygon fill="#191970" stroke="#191970" points="528.2982,-328.6405 538.7585,-330.3237 531.631,-322.4847 528.2982,-328.6405"/>
</g>
<!-- Node5 -->
<g id="node4" class="node">
<title>Node5</title>
<g id="a_node4"><a xlink:href="KFPrediction_8h.html" target="_top" xlink:title="/Users/Claudio/GitHub\l/bayes&#45;filters&#45;lib/src\l/BayesFilters/include/BayesFilters\l/KFPrediction.h">
<polygon fill="#ffffff" stroke="#000000" points="140.3867,-245.5 140.3867,-293.5 306.4404,-293.5 306.4404,-245.5 140.3867,-245.5"/>
<text text-anchor="start" x="148.3867" y="-281.5" font-family="Helvetica,sans-Serif" font-size="10.00" fill="#000000">/Users/Claudio/GitHub</text>
<text text-anchor="start" x="148.3867" y="-271.5" font-family="Helvetica,sans-Serif" font-size="10.00" fill="#000000">/bayes&#45;filters&#45;lib/src</text>
<text text-anchor="start" x="148.3867" y="-261.5" font-family="Helvetica,sans-Serif" font-size="10.00" fill="#000000">/BayesFilters/include/BayesFilters</text>
<text text-anchor="middle" x="223.4136" y="-251.5" font-family="Helvetica,sans-Serif" font-size="10.00" fill="#000000">/KFPrediction.h</text>
</a>
</g>
</g>
<!-- Node2&#45;&gt;Node5 -->
<g id="edge3" class="edge">
<title>Node2&#45;&gt;Node5</title>
<path fill="none" stroke="#191970" d="M490.3125,-332.5178C433.5243,-319.1095 361.5533,-302.1163 306.6619,-289.1559"/>
<polygon fill="#191970" stroke="#191970" points="489.8336,-336.0009 500.3703,-334.8926 491.4422,-329.1882 489.8336,-336.0009"/>
</g>
<!-- Node7 -->
<g id="node6" class="node">
<title>Node7</title>
<g id="a_node6"><a xlink:href="PFPrediction_8h.html" target="_top" xlink:title="/Users/Claudio/GitHub\l/bayes&#45;filters&#45;lib/src\l/BayesFilters/include/BayesFilters\l/PFPrediction.h">
<polygon fill="#ffffff" stroke="#000000" points="500.3867,-245.5 500.3867,-293.5 666.4404,-293.5 666.4404,-245.5 500.3867,-245.5"/>
<text text-anchor="start" x="508.3867" y="-281.5" font-family="Helvetica,sans-Serif" font-size="10.00" fill="#000000">/Users/Claudio/GitHub</text>
<text text-anchor="start" x="508.3867" y="-271.5" font-family="Helvetica,sans-Serif" font-size="10.00" fill="#000000">/bayes&#45;filters&#45;lib/src</text>
<text text-anchor="start" x="508.3867" y="-261.5" font-family="Helvetica,sans-Serif" font-size="10.00" fill="#000000">/BayesFilters/include/BayesFilters</text>
<text text-anchor="middle" x="583.4136" y="-251.5" font-family="Helvetica,sans-Serif" font-size="10.00" fill="#000000">/PFPrediction.h</text>
</a>
</g>
</g>
<!-- Node2&#45;&gt;Node7 -->
<g id="edge5" class="edge">
<title>Node2&#45;&gt;Node7</title>
<path fill="none" stroke="#191970" d="M583.4136,-320.2518C583.4136,-311.3524 583.4136,-301.951 583.4136,-293.6906"/>
<polygon fill="#191970" stroke="#191970" points="579.9137,-320.3697 583.4136,-330.3698 586.9137,-320.3698 579.9137,-320.3697"/>
</g>
<!-- Node17 -->
<g id="node16" class="node">
<title>Node17</title>
<g id="a_node16"><a xlink:href="sigma__point_8h.html" target="_top" xlink:title="/Users/Claudio/GitHub\l/bayes&#45;filters&#45;lib/src\l/BayesFilters/include/BayesFilters\l/sigma_point.h">
<polygon fill="#ffffff" stroke="#000000" points="1284.3867,-245.5 1284.3867,-293.5 1450.4404,-293.5 1450.4404,-245.5 1284.3867,-245.5"/>
<text text-anchor="start" x="1292.3867" y="-281.5" font-family="Helvetica,sans-Serif" font-size="10.00" fill="#000000">/Users/Claudio/GitHub</text>
<text text-anchor="start" x="1292.3867" y="-271.5" font-family="Helvetica,sans-Serif" font-size="10.00" fill="#000000">/bayes&#45;filters&#45;lib/src</text>
<text text-anchor="start" x="1292.3867" y="-261.5" font-family="Helvetica,sans-Serif" font-size="10.00" fill="#000000">/BayesFilters/include/BayesFilters</text>
<text text-anchor="middle" x="1367.4136" y="-251.5" font-family="Helvetica,sans-Serif" font-size="10.00" fill="#000000">/sigma_point.h</text>
</a>
</g>
</g>
<!-- Node2&#45;&gt;Node17 -->
<g id="edge17" class="edge">
<title>Node2&#45;&gt;Node17</title>
<path fill="none" stroke="#191970" d="M676.9706,-344.3567C831.3397,-327.6203 1136.9443,-294.4871 1284.2226,-278.5194"/>
<polygon fill="#191970" stroke="#191970" points="676.1375,-340.9264 666.5731,-345.484 676.8921,-347.8856 676.1375,-340.9264"/>
</g>
<!-- Node22 -->
<g id="node21" class="node">
<title>Node22</title>
<g id="a_node21"><a xlink:href="UKFPrediction_8h.html" target="_top" xlink:title="/Users/Claudio/GitHub\l/bayes&#45;filters&#45;lib/src\l/BayesFilters/include/BayesFilters\l/UKFPrediction.h">
<polygon fill="#ffffff" stroke="#000000" points="1652.3867,-160.5 1652.3867,-208.5 1818.4404,-208.5 1818.4404,-160.5 1652.3867,-160.5"/>
<text text-anchor="start" x="1660.3867" y="-196.5" font-family="Helvetica,sans-Serif" font-size="10.00" fill="#000000">/Users/Claudio/GitHub</text>
<text text-anchor="start" x="1660.3867" y="-186.5" font-family="Helvetica,sans-Serif" font-size="10.00" fill="#000000">/bayes&#45;filters&#45;lib/src</text>
<text text-anchor="start" x="1660.3867" y="-176.5" font-family="Helvetica,sans-Serif" font-size="10.00" fill="#000000">/BayesFilters/include/BayesFilters</text>
<text text-anchor="middle" x="1735.4136" y="-166.5" font-family="Helvetica,sans-Serif" font-size="10.00" fill="#000000">/UKFPrediction.h</text>
</a>
</g>
</g>
<!-- Node2&#45;&gt;Node22 -->
<g id="edge25" class="edge">
<title>Node2&#45;&gt;Node22</title>
<path fill="none" stroke="#191970" d="M676.8399,-351.6859C871.0843,-345.2404 1312.6366,-327.3347 1459.4136,-294 1542.8615,-275.048 1634.138,-234.6328 1688.0029,-208.5582"/>
<polygon fill="#191970" stroke="#191970" points="676.5334,-348.1939 666.6539,-352.0208 676.7636,-355.1902 676.5334,-348.1939"/>
</g>
<!-- Node4 -->
<g id="node3" class="node">
<title>Node4</title>
<g id="a_node3"><a xlink:href="GPFPrediction_8cpp.html" target="_top" xlink:title="/Users/Claudio/GitHub\l/bayes&#45;filters&#45;lib/src\l/BayesFilters/src/GPFPrediction.cpp">
<polygon fill="#ffffff" stroke="#000000" points="89.1108,-80.5 89.1108,-118.5 265.7163,-118.5 265.7163,-80.5 89.1108,-80.5"/>
<text text-anchor="start" x="97.1108" y="-106.5" font-family="Helvetica,sans-Serif" font-size="10.00" fill="#000000">/Users/Claudio/GitHub</text>
<text text-anchor="start" x="97.1108" y="-96.5" font-family="Helvetica,sans-Serif" font-size="10.00" fill="#000000">/bayes&#45;filters&#45;lib/src</text>
<text text-anchor="middle" x="177.4136" y="-86.5" font-family="Helvetica,sans-Serif" font-size="10.00" fill="#000000">/BayesFilters/src/GPFPrediction.cpp</text>
</a>
</g>
</g>
<!-- Node3&#45;&gt;Node4 -->
<g id="edge2" class="edge">
<title>Node3&#45;&gt;Node4</title>
<path fill="none" stroke="#191970" d="M235.6547,-153.3097C223.0475,-141.6617 209.1172,-128.7914 198.0423,-118.5591"/>
<polygon fill="#191970" stroke="#191970" points="233.576,-156.1544 243.2962,-160.3698 238.3263,-151.0129 233.576,-156.1544"/>
</g>
<!-- Node6 -->
<g id="node5" class="node">
<title>Node6</title>
<g id="a_node5"><a xlink:href="KFPrediction_8cpp.html" target="_top" xlink:title="/Users/Claudio/GitHub\l/bayes&#45;filters&#45;lib/src\l/BayesFilters/src/KFPrediction.cpp">
<polygon fill="#ffffff" stroke="#000000" points="0,-165.5 0,-203.5 168.8271,-203.5 168.8271,-165.5 0,-165.5"/>
<text text-anchor="start" x="8" y="-191.5" font-family="Helvetica,sans-Serif" font-size="10.00" fill="#000000">/Users/Claudio/GitHub</text>
<text text-anchor="start" x="8" y="-181.5" font-family="Helvetica,sans-Serif" font-size="10.00" fill="#000000">/bayes&#45;filters&#45;lib/src</text>
<text text-anchor="middle" x="84.4136" y="-171.5" font-family="Helvetica,sans-Serif" font-size="10.00" fill="#000000">/BayesFilters/src/KFPrediction.cpp</text>
</a>
</g>
</g>
<!-- Node5&#45;&gt;Node6 -->
<g id="edge4" class="edge">
<title>Node5&#45;&gt;Node6</title>
<path fill="none" stroke="#191970" d="M175.3563,-240.1124C155.5561,-228.0044 133.1819,-214.3224 115.5808,-203.5591"/>
<polygon fill="#191970" stroke="#191970" points="173.5963,-243.1387 183.9536,-245.3698 177.2482,-237.1668 173.5963,-243.1387"/>
</g>
<!-- Node7&#45;&gt;Node3 -->
<g id="edge8" class="edge">
<title>Node7&#45;&gt;Node3</title>
<path fill="none" stroke="#191970" d="M490.3206,-244.2997C446.6199,-232.4699 394.9538,-218.4838 352.5795,-207.0131"/>
<polygon fill="#191970" stroke="#191970" points="489.5246,-247.7101 500.0917,-246.9447 491.3537,-240.9533 489.5246,-247.7101"/>
</g>
<!-- Node8 -->
<g id="node7" class="node">
<title>Node8</title>
<g id="a_node7"><a xlink:href="DrawParticles_8h.html" target="_top" xlink:title="/Users/Claudio/GitHub\l/bayes&#45;filters&#45;lib/src\l/BayesFilters/include/BayesFilters\l/DrawParticles.h">
<polygon fill="#ffffff" stroke="#000000" points="962.3867,-160.5 962.3867,-208.5 1128.4404,-208.5 1128.4404,-160.5 962.3867,-160.5"/>
<text text-anchor="start" x="970.3867" y="-196.5" font-family="Helvetica,sans-Serif" font-size="10.00" fill="#000000">/Users/Claudio/GitHub</text>
<text text-anchor="start" x="970.3867" y="-186.5" font-family="Helvetica,sans-Serif" font-size="10.00" fill="#000000">/bayes&#45;filters&#45;lib/src</text>
<text text-anchor="start" x="970.3867" y="-176.5" font-family="Helvetica,sans-Serif" font-size="10.00" fill="#000000">/BayesFilters/include/BayesFilters</text>
<text text-anchor="middle" x="1045.4136" y="-166.5" font-family="Helvetica,sans-Serif" font-size="10.00" fill="#000000">/DrawParticles.h</text>
</a>
</g>
</g>
<!-- Node7&#45;&gt;Node8 -->
<g id="edge6" class="edge">
<title>Node7&#45;&gt;Node8</title>
<path fill="none" stroke="#191970" d="M676.4228,-256.875C751.5349,-246.06 859.7666,-229.0749 953.4136,-209 956.3227,-208.3764 959.2775,-207.7193 962.2573,-207.0366"/>
<polygon fill="#191970" stroke="#191970" points="675.9132,-253.4122 666.5102,-258.2941 676.9053,-260.3415 675.9132,-253.4122"/>
</g>
<!-- Node10 -->
<g id="node9" class="node">
<title>Node10</title>
<g id="a_node9"><a xlink:href="ParticleFilter_8h.html" target="_top" xlink:title="/Users/Claudio/GitHub\l/bayes&#45;filters&#45;lib/src\l/BayesFilters/include/BayesFilters\l/ParticleFilter.h">
<polygon fill="#ffffff" stroke="#000000" points="408.3867,-160.5 408.3867,-208.5 574.4404,-208.5 574.4404,-160.5 408.3867,-160.5"/>
<text text-anchor="start" x="416.3867" y="-196.5" font-family="Helvetica,sans-Serif" font-size="10.00" fill="#000000">/Users/Claudio/GitHub</text>
<text text-anchor="start" x="416.3867" y="-186.5" font-family="Helvetica,sans-Serif" font-size="10.00" fill="#000000">/bayes&#45;filters&#45;lib/src</text>
<text text-anchor="start" x="416.3867" y="-176.5" font-family="Helvetica,sans-Serif" font-size="10.00" fill="#000000">/BayesFilters/include/BayesFilters</text>
<text text-anchor="middle" x="491.4136" y="-166.5" font-family="Helvetica,sans-Serif" font-size="10.00" fill="#000000">/ParticleFilter.h</text>
</a>
</g>
</g>
<!-- Node7&#45;&gt;Node10 -->
<g id="edge9" class="edge">
<title>Node7&#45;&gt;Node10</title>
<path fill="none" stroke="#191970" d="M549.7736,-238.4196C539.1636,-228.6169 527.606,-217.9387 517.5963,-208.6906"/>
<polygon fill="#191970" stroke="#191970" points="547.576,-241.1544 557.2962,-245.3698 552.3263,-236.0129 547.576,-241.1544"/>
</g>
<!-- Node11 -->
<g id="node10" class="node">
<title>Node11</title>
<g id="a_node10"><a xlink:href="SIS_8h.html" target="_top" xlink:title="/Users/Claudio/GitHub\l/bayes&#45;filters&#45;lib/src\l/BayesFilters/include/BayesFilters/SIS.h">
<polygon fill="#ffffff" stroke="#000000" points="283.7686,-80.5 283.7686,-118.5 477.0586,-118.5 477.0586,-80.5 283.7686,-80.5"/>
<text text-anchor="start" x="291.7686" y="-106.5" font-family="Helvetica,sans-Serif" font-size="10.00" fill="#000000">/Users/Claudio/GitHub</text>
<text text-anchor="start" x="291.7686" y="-96.5" font-family="Helvetica,sans-Serif" font-size="10.00" fill="#000000">/bayes&#45;filters&#45;lib/src</text>
<text text-anchor="middle" x="380.4136" y="-86.5" font-family="Helvetica,sans-Serif" font-size="10.00" fill="#000000">/BayesFilters/include/BayesFilters/SIS.h</text>
</a>
</g>
</g>
<!-- Node7&#45;&gt;Node11 -->
<g id="edge15" class="edge">
<title>Node7&#45;&gt;Node11</title>
<path fill="none" stroke="#191970" d="M490.1099,-248.2941C451.2427,-237.6023 412.1803,-223.7793 399.4136,-209 377.5934,-183.74 376.5876,-142.614 378.2291,-118.6016"/>
<polygon fill="#191970" stroke="#191970" points="489.4054,-251.7289 499.9711,-250.9436 491.2218,-244.9686 489.4054,-251.7289"/>
</g>
<!-- Node14 -->
<g id="node13" class="node">
<title>Node14</title>
<g id="a_node13"><a xlink:href="PFPredictionDecorator_8h.html" target="_top" xlink:title="/Users/Claudio/GitHub\l/bayes&#45;filters&#45;lib/src\l/BayesFilters/include/BayesFilters\l/PFPredictionDecorator.h">
<polygon fill="#ffffff" stroke="#000000" points="592.3867,-160.5 592.3867,-208.5 758.4404,-208.5 758.4404,-160.5 592.3867,-160.5"/>
<text text-anchor="start" x="600.3867" y="-196.5" font-family="Helvetica,sans-Serif" font-size="10.00" fill="#000000">/Users/Claudio/GitHub</text>
<text text-anchor="start" x="600.3867" y="-186.5" font-family="Helvetica,sans-Serif" font-size="10.00" fill="#000000">/bayes&#45;filters&#45;lib/src</text>
<text text-anchor="start" x="600.3867" y="-176.5" font-family="Helvetica,sans-Serif" font-size="10.00" fill="#000000">/BayesFilters/include/BayesFilters</text>
<text text-anchor="middle" x="675.4136" y="-166.5" font-family="Helvetica,sans-Serif" font-size="10.00" fill="#000000">/PFPredictionDecorator.h</text>
</a>
</g>
</g>
<!-- Node7&#45;&gt;Node14 -->
<g id="edge13" class="edge">
<title>Node7&#45;&gt;Node14</title>
<path fill="none" stroke="#191970" d="M617.0536,-238.4196C627.6635,-228.6169 639.2211,-217.9387 649.2308,-208.6906"/>
<polygon fill="#191970" stroke="#191970" points="614.5008,-236.0129 609.531,-245.3698 619.2511,-241.1544 614.5008,-236.0129"/>
</g>
<!-- Node16 -->
<g id="node15" class="node">
<title>Node16</title>
<g id="a_node15"><a xlink:href="PFPrediction_8cpp.html" target="_top" xlink:title="/Users/Claudio/GitHub\l/bayes&#45;filters&#45;lib/src\l/BayesFilters/src/PFPrediction.cpp">
<polygon fill="#ffffff" stroke="#000000" points="776,-165.5 776,-203.5 944.8271,-203.5 944.8271,-165.5 776,-165.5"/>
<text text-anchor="start" x="784" y="-191.5" font-family="Helvetica,sans-Serif" font-size="10.00" fill="#000000">/Users/Claudio/GitHub</text>
<text text-anchor="start" x="784" y="-181.5" font-family="Helvetica,sans-Serif" font-size="10.00" fill="#000000">/bayes&#45;filters&#45;lib/src</text>
<text text-anchor="middle" x="860.4136" y="-171.5" font-family="Helvetica,sans-Serif" font-size="10.00" fill="#000000">/BayesFilters/src/PFPrediction.cpp</text>
</a>
</g>
</g>
<!-- Node7&#45;&gt;Node16 -->
<g id="edge16" class="edge">
<title>Node7&#45;&gt;Node16</title>
<path fill="none" stroke="#191970" d="M671.4491,-242.4855C712.6596,-229.8397 760.7751,-215.075 798.1402,-203.6092"/>
<polygon fill="#191970" stroke="#191970" points="670.2132,-239.2036 661.68,-245.4832 672.2668,-245.8956 670.2132,-239.2036"/>
</g>
<!-- Node9 -->
<g id="node8" class="node">
<title>Node9</title>
<g id="a_node8"><a xlink:href="DrawParticles_8cpp.html" target="_top" xlink:title="/Users/Claudio/GitHub\l/bayes&#45;filters&#45;lib/src\l/BayesFilters/src/DrawParticles.cpp">
<polygon fill="#ffffff" stroke="#000000" points="958.7832,-80.5 958.7832,-118.5 1132.0439,-118.5 1132.0439,-80.5 958.7832,-80.5"/>
<text text-anchor="start" x="966.7832" y="-106.5" font-family="Helvetica,sans-Serif" font-size="10.00" fill="#000000">/Users/Claudio/GitHub</text>
<text text-anchor="start" x="966.7832" y="-96.5" font-family="Helvetica,sans-Serif" font-size="10.00" fill="#000000">/bayes&#45;filters&#45;lib/src</text>
<text text-anchor="middle" x="1045.4136" y="-86.5" font-family="Helvetica,sans-Serif" font-size="10.00" fill="#000000">/BayesFilters/src/DrawParticles.cpp</text>
</a>
</g>
</g>
<!-- Node8&#45;&gt;Node9 -->
<g id="edge7" class="edge">
<title>Node8&#45;&gt;Node9</title>
<path fill="none" stroke="#191970" d="M1045.4136,-150.3187C1045.4136,-139.4952 1045.4136,-127.9227 1045.4136,-118.5591"/>
<polygon fill="#191970" stroke="#191970" points="1041.9137,-150.3697 1045.4136,-160.3698 1048.9137,-150.3698 1041.9137,-150.3697"/>
</g>
<!-- Node10&#45;&gt;Node11 -->
<g id="edge10" class="edge">
<title>Node10&#45;&gt;Node11</title>
<path fill="none" stroke="#191970" d="M451.542,-153.9677C436.1073,-142.1484 418.9169,-128.9845 405.3025,-118.5591"/>
<polygon fill="#191970" stroke="#191970" points="449.8349,-157.0688 459.9023,-160.3698 454.0907,-151.5111 449.8349,-157.0688"/>
</g>
<!-- Node13 -->
<g id="node12" class="node">
<title>Node13</title>
<g id="a_node12"><a xlink:href="ParticleFilter_8cpp.html" target="_top" xlink:title="/Users/Claudio/GitHub\l/bayes&#45;filters&#45;lib/src\l/BayesFilters/src/ParticleFilter.cpp">
<polygon fill="#ffffff" stroke="#000000" points="495.1133,-80.5 495.1133,-118.5 661.7139,-118.5 661.7139,-80.5 495.1133,-80.5"/>
<text text-anchor="start" x="503.1133" y="-106.5" font-family="Helvetica,sans-Serif" font-size="10.00" fill="#000000">/Users/Claudio/GitHub</text>
<text text-anchor="start" x="503.1133" y="-96.5" font-family="Helvetica,sans-Serif" font-size="10.00" fill="#000000">/bayes&#45;filters&#45;lib/src</text>
<text text-anchor="middle" x="578.4136" y="-86.5" font-family="Helvetica,sans-Serif" font-size="10.00" fill="#000000">/BayesFilters/src/ParticleFilter.cpp</text>
</a>
</g>
</g>
<!-- Node10&#45;&gt;Node13 -->
<g id="edge12" class="edge">
<title>Node10&#45;&gt;Node13</title>
<path fill="none" stroke="#191970" d="M523.3377,-153.3097C535.2598,-141.6617 548.4329,-128.7914 558.906,-118.5591"/>
<polygon fill="#191970" stroke="#191970" points="520.8185,-150.8779 516.1116,-160.3698 525.7103,-155.8849 520.8185,-150.8779"/>
</g>
<!-- Node12 -->
<g id="node11" class="node">
<title>Node12</title>
<g id="a_node11"><a xlink:href="SIS_8cpp.html" target="_top" xlink:title="/Users/Claudio/GitHub\l/bayes&#45;filters&#45;lib/src\l/BayesFilters/src/SIS.cpp">
<polygon fill="#ffffff" stroke="#000000" points="316.564,-.5 316.564,-38.5 444.2632,-38.5 444.2632,-.5 316.564,-.5"/>
<text text-anchor="start" x="324.564" y="-26.5" font-family="Helvetica,sans-Serif" font-size="10.00" fill="#000000">/Users/Claudio/GitHub</text>
<text text-anchor="start" x="324.564" y="-16.5" font-family="Helvetica,sans-Serif" font-size="10.00" fill="#000000">/bayes&#45;filters&#45;lib/src</text>
<text text-anchor="middle" x="380.4136" y="-6.5" font-family="Helvetica,sans-Serif" font-size="10.00" fill="#000000">/BayesFilters/src/SIS.cpp</text>
</a>
</g>
</g>
<!-- Node11&#45;&gt;Node12 -->
<g id="edge11" class="edge">
<title>Node11&#45;&gt;Node12</title>
<path fill="none" stroke="#191970" d="M380.4136,-70.1156C380.4136,-59.6295 380.4136,-48.0942 380.4136,-38.6874"/>
<polygon fill="#191970" stroke="#191970" points="376.9137,-70.1342 380.4136,-80.1342 383.9137,-70.1343 376.9137,-70.1342"/>
</g>
<!-- Node15 -->
<g id="node14" class="node">
<title>Node15</title>
<g id="a_node14"><a xlink:href="PFPredictionDecorator_8cpp.html" target="_top" xlink:title="/Users/Claudio/GitHub\l/bayes&#45;filters&#45;lib/src\l/BayesFilters/src/PFPrediction\lDecorator.cpp">
<polygon fill="#ffffff" stroke="#000000" points="679.4507,-75.5 679.4507,-123.5 829.3765,-123.5 829.3765,-75.5 679.4507,-75.5"/>
<text text-anchor="start" x="687.4507" y="-111.5" font-family="Helvetica,sans-Serif" font-size="10.00" fill="#000000">/Users/Claudio/GitHub</text>
<text text-anchor="start" x="687.4507" y="-101.5" font-family="Helvetica,sans-Serif" font-size="10.00" fill="#000000">/bayes&#45;filters&#45;lib/src</text>
<text text-anchor="start" x="687.4507" y="-91.5" font-family="Helvetica,sans-Serif" font-size="10.00" fill="#000000">/BayesFilters/src/PFPrediction</text>
<text text-anchor="middle" x="754.4136" y="-81.5" font-family="Helvetica,sans-Serif" font-size="10.00" fill="#000000">Decorator.cpp</text>
</a>
</g>
</g>
<!-- Node14&#45;&gt;Node15 -->
<g id="edge14" class="edge">
<title>Node14&#45;&gt;Node15</title>
<path fill="none" stroke="#191970" d="M704.8317,-152.8476C713.7957,-143.2027 723.5022,-132.7591 731.9306,-123.6906"/>
<polygon fill="#191970" stroke="#191970" points="702.0846,-150.6621 697.8405,-160.3698 707.212,-155.4276 702.0846,-150.6621"/>
</g>
<!-- Node18 -->
<g id="node17" class="node">
<title>Node18</title>
<g id="a_node17"><a xlink:href="SUKFCorrection_8h.html" target="_top" xlink:title="/Users/Claudio/GitHub\l/bayes&#45;filters&#45;lib/src\l/BayesFilters/include/BayesFilters\l/SUKFCorrection.h">
<polygon fill="#ffffff" stroke="#000000" points="1284.3867,-160.5 1284.3867,-208.5 1450.4404,-208.5 1450.4404,-160.5 1284.3867,-160.5"/>
<text text-anchor="start" x="1292.3867" y="-196.5" font-family="Helvetica,sans-Serif" font-size="10.00" fill="#000000">/Users/Claudio/GitHub</text>
<text text-anchor="start" x="1292.3867" y="-186.5" font-family="Helvetica,sans-Serif" font-size="10.00" fill="#000000">/bayes&#45;filters&#45;lib/src</text>
<text text-anchor="start" x="1292.3867" y="-176.5" font-family="Helvetica,sans-Serif" font-size="10.00" fill="#000000">/BayesFilters/include/BayesFilters</text>
<text text-anchor="middle" x="1367.4136" y="-166.5" font-family="Helvetica,sans-Serif" font-size="10.00" fill="#000000">/SUKFCorrection.h</text>
</a>
</g>
</g>
<!-- Node17&#45;&gt;Node18 -->
<g id="edge18" class="edge">
<title>Node17&#45;&gt;Node18</title>
<path fill="none" stroke="#191970" d="M1367.4136,-235.2518C1367.4136,-226.3524 1367.4136,-216.951 1367.4136,-208.6906"/>
<polygon fill="#191970" stroke="#191970" points="1363.9137,-235.3697 1367.4136,-245.3698 1370.9137,-235.3698 1363.9137,-235.3697"/>
</g>
<!-- Node20 -->
<g id="node19" class="node">
<title>Node20</title>
<g id="a_node19"><a xlink:href="UKFCorrection_8h.html" target="_top" xlink:title="/Users/Claudio/GitHub\l/bayes&#45;filters&#45;lib/src\l/BayesFilters/include/BayesFilters\l/UKFCorrection.h">
<polygon fill="#ffffff" stroke="#000000" points="1468.3867,-160.5 1468.3867,-208.5 1634.4404,-208.5 1634.4404,-160.5 1468.3867,-160.5"/>
<text text-anchor="start" x="1476.3867" y="-196.5" font-family="Helvetica,sans-Serif" font-size="10.00" fill="#000000">/Users/Claudio/GitHub</text>
<text text-anchor="start" x="1476.3867" y="-186.5" font-family="Helvetica,sans-Serif" font-size="10.00" fill="#000000">/bayes&#45;filters&#45;lib/src</text>
<text text-anchor="start" x="1476.3867" y="-176.5" font-family="Helvetica,sans-Serif" font-size="10.00" fill="#000000">/BayesFilters/include/BayesFilters</text>
<text text-anchor="middle" x="1551.4136" y="-166.5" font-family="Helvetica,sans-Serif" font-size="10.00" fill="#000000">/UKFCorrection.h</text>
</a>
</g>
</g>
<!-- Node17&#45;&gt;Node20 -->
<g id="edge20" class="edge">
<title>Node17&#45;&gt;Node20</title>
<path fill="none" stroke="#191970" d="M1428.9145,-241.0893C1451.764,-230.5338 1477.4437,-218.6709 1499.3668,-208.5433"/>
<polygon fill="#191970" stroke="#191970" points="1427.2588,-237.9987 1419.6484,-245.3698 1430.1944,-244.3534 1427.2588,-237.9987"/>
</g>
<!-- Node17&#45;&gt;Node22 -->
<g id="edge22" class="edge">
<title>Node17&#45;&gt;Node22</title>
<path fill="none" stroke="#191970" d="M1460.5004,-250.1727C1514.1216,-238.7704 1582.716,-223.7268 1643.4136,-209 1646.3049,-208.2985 1649.2444,-207.5745 1652.2112,-206.8347"/>
<polygon fill="#191970" stroke="#191970" points="1459.7237,-246.7595 1450.6677,-252.2585 1461.1764,-253.6071 1459.7237,-246.7595"/>
</g>
<!-- Node24 -->
<g id="node23" class="node">
<title>Node24</title>
<g id="a_node23"><a xlink:href="sigma__point_8cpp.html" target="_top" xlink:title="/Users/Claudio/GitHub\l/bayes&#45;filters&#45;lib/src\l/BayesFilters/src/sigma\l_point.cpp">
<polygon fill="#ffffff" stroke="#000000" points="1146.7363,-160.5 1146.7363,-208.5 1266.0908,-208.5 1266.0908,-160.5 1146.7363,-160.5"/>
<text text-anchor="start" x="1154.7363" y="-196.5" font-family="Helvetica,sans-Serif" font-size="10.00" fill="#000000">/Users/Claudio/GitHub</text>
<text text-anchor="start" x="1154.7363" y="-186.5" font-family="Helvetica,sans-Serif" font-size="10.00" fill="#000000">/bayes&#45;filters&#45;lib/src</text>
<text text-anchor="start" x="1154.7363" y="-176.5" font-family="Helvetica,sans-Serif" font-size="10.00" fill="#000000">/BayesFilters/src/sigma</text>
<text text-anchor="middle" x="1206.4136" y="-166.5" font-family="Helvetica,sans-Serif" font-size="10.00" fill="#000000">_point.cpp</text>
</a>
</g>
</g>
<!-- Node17&#45;&gt;Node24 -->
<g id="edge24" class="edge">
<title>Node17&#45;&gt;Node24</title>
<path fill="none" stroke="#191970" d="M1312.7993,-240.6664C1293.0084,-230.2178 1270.8815,-218.5358 1251.9545,-208.5433"/>
<polygon fill="#191970" stroke="#191970" points="1311.2308,-243.7961 1321.7081,-245.3698 1314.499,-237.6058 1311.2308,-243.7961"/>
</g>
<!-- Node19 -->
<g id="node18" class="node">
<title>Node19</title>
<g id="a_node18"><a xlink:href="SUKFCorrection_8cpp.html" target="_top" xlink:title="/Users/Claudio/GitHub\l/bayes&#45;filters&#45;lib/src\l/BayesFilters/src/SUKFCorrection.cpp">
<polygon fill="#ffffff" stroke="#000000" points="1260.2241,-80.5 1260.2241,-118.5 1444.603,-118.5 1444.603,-80.5 1260.2241,-80.5"/>
<text text-anchor="start" x="1268.2241" y="-106.5" font-family="Helvetica,sans-Serif" font-size="10.00" fill="#000000">/Users/Claudio/GitHub</text>
<text text-anchor="start" x="1268.2241" y="-96.5" font-family="Helvetica,sans-Serif" font-size="10.00" fill="#000000">/bayes&#45;filters&#45;lib/src</text>
<text text-anchor="middle" x="1352.4136" y="-86.5" font-family="Helvetica,sans-Serif" font-size="10.00" fill="#000000">/BayesFilters/src/SUKFCorrection.cpp</text>
</a>
</g>
</g>
<!-- Node18&#45;&gt;Node19 -->
<g id="edge19" class="edge">
<title>Node18&#45;&gt;Node19</title>
<path fill="none" stroke="#191970" d="M1361.3816,-150.3187C1359.4716,-139.4952 1357.4293,-127.9227 1355.7769,-118.5591"/>
<polygon fill="#191970" stroke="#191970" points="1357.9706,-151.1302 1363.1553,-160.3698 1364.8641,-149.9137 1357.9706,-151.1302"/>
</g>
<!-- Node21 -->
<g id="node20" class="node">
<title>Node21</title>
<g id="a_node20"><a xlink:href="UKFCorrection_8cpp.html" target="_top" xlink:title="/Users/Claudio/GitHub\l/bayes&#45;filters&#45;lib/src\l/BayesFilters/src/UKFCorrection.cpp">
<polygon fill="#ffffff" stroke="#000000" points="1462.5591,-80.5 1462.5591,-118.5 1640.2681,-118.5 1640.2681,-80.5 1462.5591,-80.5"/>
<text text-anchor="start" x="1470.5591" y="-106.5" font-family="Helvetica,sans-Serif" font-size="10.00" fill="#000000">/Users/Claudio/GitHub</text>
<text text-anchor="start" x="1470.5591" y="-96.5" font-family="Helvetica,sans-Serif" font-size="10.00" fill="#000000">/bayes&#45;filters&#45;lib/src</text>
<text text-anchor="middle" x="1551.4136" y="-86.5" font-family="Helvetica,sans-Serif" font-size="10.00" fill="#000000">/BayesFilters/src/UKFCorrection.cpp</text>
</a>
</g>
</g>
<!-- Node20&#45;&gt;Node21 -->
<g id="edge21" class="edge">
<title>Node20&#45;&gt;Node21</title>
<path fill="none" stroke="#191970" d="M1551.4136,-150.3187C1551.4136,-139.4952 1551.4136,-127.9227 1551.4136,-118.5591"/>
<polygon fill="#191970" stroke="#191970" points="1547.9137,-150.3697 1551.4136,-160.3698 1554.9137,-150.3698 1547.9137,-150.3697"/>
</g>
<!-- Node23 -->
<g id="node22" class="node">
<title>Node23</title>
<g id="a_node22"><a xlink:href="UKFPrediction_8cpp.html" target="_top" xlink:title="/Users/Claudio/GitHub\l/bayes&#45;filters&#45;lib/src\l/BayesFilters/src/UKFPrediction.cpp">
<polygon fill="#ffffff" stroke="#000000" points="1658.3892,-80.5 1658.3892,-118.5 1834.438,-118.5 1834.438,-80.5 1658.3892,-80.5"/>
<text text-anchor="start" x="1666.3892" y="-106.5" font-family="Helvetica,sans-Serif" font-size="10.00" fill="#000000">/Users/Claudio/GitHub</text>
<text text-anchor="start" x="1666.3892" y="-96.5" font-family="Helvetica,sans-Serif" font-size="10.00" fill="#000000">/bayes&#45;filters&#45;lib/src</text>
<text text-anchor="middle" x="1746.4136" y="-86.5" font-family="Helvetica,sans-Serif" font-size="10.00" fill="#000000">/BayesFilters/src/UKFPrediction.cpp</text>
</a>
</g>
</g>
<!-- Node22&#45;&gt;Node23 -->
<g id="edge23" class="edge">
<title>Node22&#45;&gt;Node23</title>
<path fill="none" stroke="#191970" d="M1739.837,-150.3187C1741.2377,-139.4952 1742.7353,-127.9227 1743.9471,-118.5591"/>
<polygon fill="#191970" stroke="#191970" points="1736.3488,-150.0032 1738.5363,-160.3698 1743.2909,-150.9017 1736.3488,-150.0032"/>
</g>
</g>
</svg>
        <g id="navigator" transform="translate(0 0)" fill="#404254">
                <rect fill="#f2f5e9" fill-opacity="0.5" stroke="#606060" stroke-width=".5" x="0" y="0" width="60" height="60"/>
                <use id="zoomplus" xlink:href="#zoomPlus" x="17" y="9" onmousedown="handleZoom(evt,'in')"/>
                <use id="zoomminus" xlink:href="#zoomMin" x="42" y="9" onmousedown="handleZoom(evt,'out')"/>
                <use id="reset" xlink:href="#resetDef" x="30" y="36" onmousedown="handleReset()"/>
                <g id="arrowUp" xlink:href="#dirArrow" transform="translate(30 24)" onmousedown="handlePan(0,-1)">
                  <use xlink:href="#rim" fill="#404040">
                        <set attributeName="fill" to="#808080" begin="arrowUp.mouseover" end="arrowUp.mouseout"/>
                  </use>
                  <path fill="none" stroke="white" stroke-width="1.5" d="M0,-3.0v7 M-2.5,-0.5L0,-3.0L2.5,-0.5"/>
                </g>
                <g id="arrowRight" xlink:href="#dirArrow" transform="rotate(90) translate(36 -43)" onmousedown="handlePan(1,0)">
                  <use xlink:href="#rim" fill="#404040">
                        <set attributeName="fill" to="#808080" begin="arrowRight.mouseover" end="arrowRight.mouseout"/>
                  </use>
                  <path fill="none" stroke="white" stroke-width="1.5" d="M0,-3.0v7 M-2.5,-0.5L0,-3.0L2.5,-0.5"/>
                </g>
                <g id="arrowDown" xlink:href="#dirArrow" transform="rotate(180) translate(-30 -48)" onmousedown="handlePan(0,1)">
                  <use xlink:href="#rim" fill="#404040">
                        <set attributeName="fill" to="#808080" begin="arrowDown.mouseover" end="arrowDown.mouseout"/>
                  </use>
                  <path fill="none" stroke="white" stroke-width="1.5" d="M0,-3.0v7 M-2.5,-0.5L0,-3.0L2.5,-0.5"/>
                </g>
                <g id="arrowLeft" xlink:href="#dirArrow" transform="rotate(270) translate(-36 17)" onmousedown="handlePan(-1,0)">
                  <use xlink:href="#rim" fill="#404040">
                        <set attributeName="fill" to="#808080" begin="arrowLeft.mouseover" end="arrowLeft.mouseout"/>
                  </use>
                  <path fill="none" stroke="white" stroke-width="1.5" d="M0,-3.0v7 M-2.5,-0.5L0,-3.0L2.5,-0.5"/>
                </g>
        </g>
        <svg viewBox="0 0 15 15" width="100%" height="30px" preserveAspectRatio="xMaxYMin meet">
         <g id="arrow_out" transform="scale(0.3 0.3)">
          <a xlink:href="ExogenousModel_8h__dep__incl_org.svg" target="_base">
           <rect id="button" ry="5" rx="5" y="6" x="6" height="38" width="38"
                fill="#f2f5e9" fill-opacity="0.5" stroke="#606060" stroke-width="1.0"/>
           <path id="arrow"
             d="M 11.500037,31.436501 C 11.940474,20.09759 22.043105,11.32322 32.158766,21.979434 L 37.068811,17.246167 C 37.068811,17.246167 37.088388,32 37.088388,32 L 22.160133,31.978069 C 22.160133,31.978069 26.997745,27.140456 26.997745,27.140456 C 18.528582,18.264221 13.291696,25.230495 11.500037,31.436501 z"
             style="fill:#404040;"/>
          </a>
         </g>
        </svg>
</svg>
