<?xml version="1.0" encoding="UTF-8" standalone="no"?>
<!DOCTYPE svg PUBLIC "-//W3C//DTD SVG 1.1//EN"
 "http://www.w3.org/Graphics/SVG/1.1/DTD/svg11.dtd">
<!-- Generated by graphviz version 2.40.1 (20161225.0304)
 -->
<!-- Title: /Users/Claudio/GitHub/bayes&#45;filters&#45;lib/src/BayesFilters/include/BayesFilters/ExogenousModel.h Pages: 1 -->
<svg width="174pt" height="112pt"
 viewBox="0.00 0.00 174.05 112.00" xmlns="http://www.w3.org/2000/svg" xmlns:xlink="http://www.w3.org/1999/xlink">
<g id="graph0" class="graph" transform="scale(1 1) rotate(0) translate(4 108)">
<title>/Users/Claudio/GitHub/bayes&#45;filters&#45;lib/src/BayesFilters/include/BayesFilters/ExogenousModel.h</title>
<polygon fill="#ffffff" stroke="transparent" points="-4,4 -4,-108 170.0537,-108 170.0537,4 -4,4"/>
<!-- Node0 -->
<g id="node1" class="node">
<title>Node0</title>
<polygon fill="#bfbfbf" stroke="#000000" points="0,-55.5 0,-103.5 166.0537,-103.5 166.0537,-55.5 0,-55.5"/>
<text text-anchor="start" x="8" y="-91.5" font-family="Helvetica,sans-Serif" font-size="10.00" fill="#000000">/Users/Claudio/GitHub</text>
<text text-anchor="start" x="8" y="-81.5" font-family="Helvetica,sans-Serif" font-size="10.00" fill="#000000">/bayes&#45;filters&#45;lib/src</text>
<text text-anchor="start" x="8" y="-71.5" font-family="Helvetica,sans-Serif" font-size="10.00" fill="#000000">/BayesFilters/include/BayesFilters</text>
<text text-anchor="middle" x="83.0269" y="-61.5" font-family="Helvetica,sans-Serif" font-size="10.00" fill="#000000">/ExogenousModel.h</text>
</g>
<!-- Node1 -->
<g id="node2" class="node">
<title>Node1</title>
<polygon fill="#ffffff" stroke="#bfbfbf" points="46.3965,-.5 46.3965,-18.5 119.6572,-18.5 119.6572,-.5 46.3965,-.5"/>
<text text-anchor="middle" x="83.0269" y="-6.5" font-family="Helvetica,sans-Serif" font-size="10.00" fill="#000000">Eigen/Dense</text>
</g>
<!-- Node0&#45;&gt;Node1 -->
<g id="edge1" class="edge">
<title>Node0&#45;&gt;Node1</title>
<path fill="none" stroke="#191970" d="M83.0269,-55.41C83.0269,-46.7094 83.0269,-37.0095 83.0269,-28.7754"/>
<polygon fill="#191970" stroke="#191970" points="86.527,-28.6872 83.0269,-18.6872 79.527,-28.6873 86.527,-28.6872"/>
</g>
</g>
</svg>
