<?xml version="1.0" encoding="UTF-8" standalone="no"?>
<!DOCTYPE svg PUBLIC "-//W3C//DTD SVG 1.1//EN"
 "http://www.w3.org/Graphics/SVG/1.1/DTD/svg11.dtd">
<!-- Generated by graphviz version 2.40.1 (20161225.0304)
 -->
<!-- Title: /Users/Claudio/GitHub/bayes&#45;filters&#45;lib/src/BayesFilters/include/BayesFilters/FilteringAlgorithm.h Pages: 1 -->
<svg width="582pt" height="167pt"
 viewBox="0.00 0.00 581.97 167.00" xmlns="http://www.w3.org/2000/svg" xmlns:xlink="http://www.w3.org/1999/xlink">
<g id="graph0" class="graph" transform="scale(1 1) rotate(0) translate(4 163)">
<title>/Users/Claudio/GitHub/bayes&#45;filters&#45;lib/src/BayesFilters/include/BayesFilters/FilteringAlgorithm.h</title>
<polygon fill="#ffffff" stroke="transparent" points="-4,4 -4,-163 577.9727,-163 577.9727,4 -4,4"/>
<!-- Node0 -->
<g id="node1" class="node">
<title>Node0</title>
<polygon fill="#bfbfbf" stroke="#000000" points="258.6431,-110.5 258.6431,-158.5 424.6968,-158.5 424.6968,-110.5 258.6431,-110.5"/>
<text text-anchor="start" x="266.6431" y="-146.5" font-family="Helvetica,sans-Serif" font-size="10.00" fill="#000000">/Users/Claudio/GitHub</text>
<text text-anchor="start" x="266.6431" y="-136.5" font-family="Helvetica,sans-Serif" font-size="10.00" fill="#000000">/bayes&#45;filters&#45;lib/src</text>
<text text-anchor="start" x="266.6431" y="-126.5" font-family="Helvetica,sans-Serif" font-size="10.00" fill="#000000">/BayesFilters/include/BayesFilters</text>
<text text-anchor="middle" x="341.6699" y="-116.5" font-family="Helvetica,sans-Serif" font-size="10.00" fill="#000000">/FilteringAlgorithm.h</text>
</g>
<!-- Node1 -->
<g id="node2" class="node">
<title>Node1</title>
<g id="a_node2"><a xlink:href="Logger_8h.html" target="_top" xlink:title="BayesFilters/Logger.h">
<polygon fill="#ffffff" stroke="#000000" points="81.3081,-55.5 81.3081,-73.5 194.0317,-73.5 194.0317,-55.5 81.3081,-55.5"/>
<text text-anchor="middle" x="137.6699" y="-61.5" font-family="Helvetica,sans-Serif" font-size="10.00" fill="#000000">BayesFilters/Logger.h</text>
</a>
</g>
</g>
<!-- Node0&#45;&gt;Node1 -->
<g id="edge1" class="edge">
<title>Node0&#45;&gt;Node1</title>
<path fill="none" stroke="#191970" d="M271.4647,-110.41C238.557,-99.1181 200.7436,-86.1429 173.7298,-76.8735"/>
<polygon fill="#191970" stroke="#191970" points="174.5326,-73.4487 163.938,-73.5136 172.2607,-80.0698 174.5326,-73.4487"/>
</g>
<!-- Node4 -->
<g id="node5" class="node">
<title>Node4</title>
<polygon fill="#ffffff" stroke="#bfbfbf" points="201.4434,-.5 201.4434,-18.5 241.8965,-18.5 241.8965,-.5 201.4434,-.5"/>
<text text-anchor="middle" x="221.6699" y="-6.5" font-family="Helvetica,sans-Serif" font-size="10.00" fill="#000000">string</text>
</g>
<!-- Node0&#45;&gt;Node4 -->
<g id="edge8" class="edge">
<title>Node0&#45;&gt;Node4</title>
<path fill="none" stroke="#191970" d="M285.1261,-110.4334C268.8177,-101.1256 252.3065,-89.0312 240.6699,-74 230.6207,-61.0192 225.8786,-42.8368 223.6455,-29.0843"/>
<polygon fill="#191970" stroke="#191970" points="227.0659,-28.2471 222.2983,-18.7856 220.125,-29.1551 227.0659,-28.2471"/>
</g>
<!-- Node6 -->
<g id="node7" class="node">
<title>Node6</title>
<polygon fill="#ffffff" stroke="#bfbfbf" points="249.3647,-55.5 249.3647,-73.5 345.9751,-73.5 345.9751,-55.5 249.3647,-55.5"/>
<text text-anchor="middle" x="297.6699" y="-61.5" font-family="Helvetica,sans-Serif" font-size="10.00" fill="#000000">condition_variable</text>
</g>
<!-- Node0&#45;&gt;Node6 -->
<g id="edge6" class="edge">
<title>Node0&#45;&gt;Node6</title>
<path fill="none" stroke="#191970" d="M326.5276,-110.41C320.748,-101.2151 314.2667,-90.904 308.9129,-82.3865"/>
<polygon fill="#191970" stroke="#191970" points="311.7298,-80.291 303.4448,-73.6872 305.8033,-84.0162 311.7298,-80.291"/>
</g>
<!-- Node7 -->
<g id="node8" class="node">
<title>Node7</title>
<polygon fill="#ffffff" stroke="#bfbfbf" points="364.0542,-55.5 364.0542,-73.5 407.2856,-73.5 407.2856,-55.5 364.0542,-55.5"/>
<text text-anchor="middle" x="385.6699" y="-61.5" font-family="Helvetica,sans-Serif" font-size="10.00" fill="#000000">mutex</text>
</g>
<!-- Node0&#45;&gt;Node7 -->
<g id="edge7" class="edge">
<title>Node0&#45;&gt;Node7</title>
<path fill="none" stroke="#191970" d="M356.8122,-110.41C362.5919,-101.2151 369.0731,-90.904 374.427,-82.3865"/>
<polygon fill="#191970" stroke="#191970" points="377.5366,-84.0162 379.8951,-73.6872 371.6101,-80.291 377.5366,-84.0162"/>
</g>
<!-- Node8 -->
<g id="node9" class="node">
<title>Node8</title>
<polygon fill="#ffffff" stroke="#bfbfbf" points="425.4927,-55.5 425.4927,-73.5 469.8472,-73.5 469.8472,-55.5 425.4927,-55.5"/>
<text text-anchor="middle" x="447.6699" y="-61.5" font-family="Helvetica,sans-Serif" font-size="10.00" fill="#000000">thread</text>
</g>
<!-- Node0&#45;&gt;Node8 -->
<g id="edge9" class="edge">
<title>Node0&#45;&gt;Node8</title>
<path fill="none" stroke="#191970" d="M378.1491,-110.41C393.817,-100.0633 411.6251,-88.3032 425.2952,-79.2758"/>
<polygon fill="#191970" stroke="#191970" points="427.6049,-81.9448 434.0208,-73.5136 423.7474,-76.1036 427.6049,-81.9448"/>
</g>
<!-- Node9 -->
<g id="node10" class="node">
<title>Node9</title>
<polygon fill="#ffffff" stroke="#bfbfbf" points="487.3672,-55.5 487.3672,-73.5 573.9727,-73.5 573.9727,-55.5 487.3672,-55.5"/>
<text text-anchor="middle" x="530.6699" y="-61.5" font-family="Helvetica,sans-Serif" font-size="10.00" fill="#000000">unordered_map</text>
</g>
<!-- Node0&#45;&gt;Node9 -->
<g id="edge10" class="edge">
<title>Node0&#45;&gt;Node9</title>
<path fill="none" stroke="#191970" d="M406.713,-110.41C437.0667,-99.1679 471.9255,-86.2572 496.9302,-76.9962"/>
<polygon fill="#191970" stroke="#191970" points="498.1715,-80.2689 506.3333,-73.5136 495.7402,-73.7046 498.1715,-80.2689"/>
</g>
<!-- Node2 -->
<g id="node3" class="node">
<title>Node2</title>
<polygon fill="#ffffff" stroke="#bfbfbf" points="0,-.5 0,-18.5 49.3398,-18.5 49.3398,-.5 0,-.5"/>
<text text-anchor="middle" x="24.6699" y="-6.5" font-family="Helvetica,sans-Serif" font-size="10.00" fill="#000000">fstream</text>
</g>
<!-- Node1&#45;&gt;Node2 -->
<g id="edge2" class="edge">
<title>Node1&#45;&gt;Node2</title>
<path fill="none" stroke="#191970" d="M119.0103,-55.4179C100.9357,-46.6205 73.2992,-33.1691 52.6027,-23.0956"/>
<polygon fill="#191970" stroke="#191970" points="53.8806,-19.825 43.3573,-18.5956 50.8171,-26.1191 53.8806,-19.825"/>
</g>
<!-- Node3 -->
<g id="node4" class="node">
<title>Node3</title>
<polygon fill="#ffffff" stroke="#bfbfbf" points="67.4976,-.5 67.4976,-18.5 121.8423,-18.5 121.8423,-.5 67.4976,-.5"/>
<text text-anchor="middle" x="94.6699" y="-6.5" font-family="Helvetica,sans-Serif" font-size="10.00" fill="#000000">iostream</text>
</g>
<!-- Node1&#45;&gt;Node3 -->
<g id="edge3" class="edge">
<title>Node1&#45;&gt;Node3</title>
<path fill="none" stroke="#191970" d="M130.5693,-55.4179C124.506,-47.6624 115.6148,-36.29 108.1981,-26.8035"/>
<polygon fill="#191970" stroke="#191970" points="110.8414,-24.5018 101.9248,-18.7795 105.3267,-28.8133 110.8414,-24.5018"/>
</g>
<!-- Node1&#45;&gt;Node4 -->
<g id="edge4" class="edge">
<title>Node1&#45;&gt;Node4</title>
<path fill="none" stroke="#191970" d="M151.5408,-55.4179C164.4296,-46.9788 183.8593,-34.257 199.0013,-24.3426"/>
<polygon fill="#191970" stroke="#191970" points="201.3295,-27.0017 207.7784,-18.5956 197.495,-21.1454 201.3295,-27.0017"/>
</g>
<!-- Node5 -->
<g id="node6" class="node">
<title>Node5</title>
<polygon fill="#ffffff" stroke="#bfbfbf" points="140.0542,-.5 140.0542,-18.5 183.2856,-18.5 183.2856,-.5 140.0542,-.5"/>
<text text-anchor="middle" x="161.6699" y="-6.5" font-family="Helvetica,sans-Serif" font-size="10.00" fill="#000000">vector</text>
</g>
<!-- Node1&#45;&gt;Node5 -->
<g id="edge5" class="edge">
<title>Node1&#45;&gt;Node5</title>
<path fill="none" stroke="#191970" d="M141.633,-55.4179C144.8791,-47.9789 149.5773,-37.2123 153.6085,-27.9742"/>
<polygon fill="#191970" stroke="#191970" points="156.8291,-29.3447 157.6207,-18.7795 150.4133,-26.545 156.8291,-29.3447"/>
</g>
</g>
</svg>
