<?xml version="1.0" encoding="UTF-8" standalone="no"?>
<!DOCTYPE svg PUBLIC "-//W3C//DTD SVG 1.1//EN"
 "http://www.w3.org/Graphics/SVG/1.1/DTD/svg11.dtd">
<!-- Generated by graphviz version 2.40.1 (20161225.0304)
 -->
<!-- Title: /Users/Claudio/GitHub/bayes&#45;filters&#45;lib/src/BayesFilters/src/FilteringAlgorithm.cpp Pages: 1 -->
<svg width="518pt" height="212pt"
 viewBox="0.00 0.00 518.36 212.00" xmlns="http://www.w3.org/2000/svg" xmlns:xlink="http://www.w3.org/1999/xlink">
<g id="graph0" class="graph" transform="scale(1 1) rotate(0) translate(4 208)">
<title>/Users/Claudio/GitHub/bayes&#45;filters&#45;lib/src/BayesFilters/src/FilteringAlgorithm.cpp</title>
<polygon fill="#ffffff" stroke="transparent" points="-4,4 -4,-208 514.3618,-208 514.3618,4 -4,4"/>
<!-- Node0 -->
<g id="node1" class="node">
<title>Node0</title>
<polygon fill="#bfbfbf" stroke="#000000" points="318.5347,-165.5 318.5347,-203.5 507.9185,-203.5 507.9185,-165.5 318.5347,-165.5"/>
<text text-anchor="start" x="326.5347" y="-191.5" font-family="Helvetica,sans-Serif" font-size="10.00" fill="#000000">/Users/Claudio/GitHub</text>
<text text-anchor="start" x="326.5347" y="-181.5" font-family="Helvetica,sans-Serif" font-size="10.00" fill="#000000">/bayes&#45;filters&#45;lib/src</text>
<text text-anchor="middle" x="413.2266" y="-171.5" font-family="Helvetica,sans-Serif" font-size="10.00" fill="#000000">/BayesFilters/src/FilteringAlgorithm.cpp</text>
</g>
<!-- Node1 -->
<g id="node2" class="node">
<title>Node1</title>
<g id="a_node2"><a xlink:href="FilteringAlgorithm_8h.html" target="_top" xlink:title="BayesFilters/FilteringAlgorithm.h">
<polygon fill="#ffffff" stroke="#000000" points="225.2588,-110.5 225.2588,-128.5 385.1943,-128.5 385.1943,-110.5 225.2588,-110.5"/>
<text text-anchor="middle" x="305.2266" y="-116.5" font-family="Helvetica,sans-Serif" font-size="10.00" fill="#000000">BayesFilters/FilteringAlgorithm.h</text>
</a>
</g>
</g>
<!-- Node0&#45;&gt;Node1 -->
<g id="edge1" class="edge">
<title>Node0&#45;&gt;Node1</title>
<path fill="none" stroke="#191970" d="M381.4071,-165.3494C364.7124,-155.3016 344.5941,-143.1934 329.2254,-133.9437"/>
<polygon fill="#191970" stroke="#191970" points="330.7158,-130.7557 320.343,-128.5978 327.1061,-136.7533 330.7158,-130.7557"/>
</g>
<!-- Node4 -->
<g id="node5" class="node">
<title>Node4</title>
<polygon fill="#ffffff" stroke="#bfbfbf" points="343.0542,-.5 343.0542,-18.5 397.3989,-18.5 397.3989,-.5 343.0542,-.5"/>
<text text-anchor="middle" x="370.2266" y="-6.5" font-family="Helvetica,sans-Serif" font-size="10.00" fill="#000000">iostream</text>
</g>
<!-- Node0&#45;&gt;Node4 -->
<g id="edge12" class="edge">
<title>Node0&#45;&gt;Node4</title>
<path fill="none" stroke="#191970" d="M442.6427,-165.4847C478.1763,-140.1134 529.9432,-93.8709 502.2266,-55 490.9871,-39.2373 442.3833,-25.431 407.4182,-17.2764"/>
<polygon fill="#191970" stroke="#191970" points="408.0379,-13.8281 397.5115,-15.0303 406.49,-20.6549 408.0379,-13.8281"/>
</g>
<!-- Node2 -->
<g id="node3" class="node">
<title>Node2</title>
<g id="a_node3"><a xlink:href="Logger_8h.html" target="_top" xlink:title="BayesFilters/Logger.h">
<polygon fill="#ffffff" stroke="#000000" points="37.8647,-55.5 37.8647,-73.5 150.5884,-73.5 150.5884,-55.5 37.8647,-55.5"/>
<text text-anchor="middle" x="94.2266" y="-61.5" font-family="Helvetica,sans-Serif" font-size="10.00" fill="#000000">BayesFilters/Logger.h</text>
</a>
</g>
</g>
<!-- Node1&#45;&gt;Node2 -->
<g id="edge2" class="edge">
<title>Node1&#45;&gt;Node2</title>
<path fill="none" stroke="#191970" d="M270.3842,-110.4179C234.3123,-101.0152 177.8444,-86.2961 138.6017,-76.067"/>
<polygon fill="#191970" stroke="#191970" points="139.3295,-72.6398 128.77,-73.5042 137.5638,-79.4135 139.3295,-72.6398"/>
</g>
<!-- Node5 -->
<g id="node6" class="node">
<title>Node5</title>
<polygon fill="#ffffff" stroke="#bfbfbf" points="0,-.5 0,-18.5 40.4531,-18.5 40.4531,-.5 0,-.5"/>
<text text-anchor="middle" x="20.2266" y="-6.5" font-family="Helvetica,sans-Serif" font-size="10.00" fill="#000000">string</text>
</g>
<!-- Node1&#45;&gt;Node5 -->
<g id="edge9" class="edge">
<title>Node1&#45;&gt;Node5</title>
<path fill="none" stroke="#191970" d="M224.9237,-116.5711C153.3124,-112.1839 55.8051,-101.2445 29.2266,-74 17.8882,-62.3775 16.4386,-43.4972 17.3513,-29.1595"/>
<polygon fill="#191970" stroke="#191970" points="20.8693,-29.1742 18.4458,-18.8603 13.9085,-28.4344 20.8693,-29.1742"/>
</g>
<!-- Node7 -->
<g id="node8" class="node">
<title>Node7</title>
<polygon fill="#ffffff" stroke="#bfbfbf" points="168.9214,-55.5 168.9214,-73.5 265.5317,-73.5 265.5317,-55.5 168.9214,-55.5"/>
<text text-anchor="middle" x="217.2266" y="-61.5" font-family="Helvetica,sans-Serif" font-size="10.00" fill="#000000">condition_variable</text>
</g>
<!-- Node1&#45;&gt;Node7 -->
<g id="edge7" class="edge">
<title>Node1&#45;&gt;Node7</title>
<path fill="none" stroke="#191970" d="M290.6952,-110.4179C277.0652,-101.8992 256.4531,-89.0166 240.5269,-79.0627"/>
<polygon fill="#191970" stroke="#191970" points="242.1146,-75.9277 231.7796,-73.5956 238.4045,-81.8637 242.1146,-75.9277"/>
</g>
<!-- Node8 -->
<g id="node9" class="node">
<title>Node8</title>
<polygon fill="#ffffff" stroke="#bfbfbf" points="283.6108,-55.5 283.6108,-73.5 326.8423,-73.5 326.8423,-55.5 283.6108,-55.5"/>
<text text-anchor="middle" x="305.2266" y="-61.5" font-family="Helvetica,sans-Serif" font-size="10.00" fill="#000000">mutex</text>
</g>
<!-- Node1&#45;&gt;Node8 -->
<g id="edge8" class="edge">
<title>Node1&#45;&gt;Node8</title>
<path fill="none" stroke="#191970" d="M305.2266,-110.4179C305.2266,-103.2164 305.2266,-92.8962 305.2266,-83.8632"/>
<polygon fill="#191970" stroke="#191970" points="308.7267,-83.7794 305.2266,-73.7795 301.7267,-83.7795 308.7267,-83.7794"/>
</g>
<!-- Node9 -->
<g id="node10" class="node">
<title>Node9</title>
<polygon fill="#ffffff" stroke="#bfbfbf" points="345.0493,-55.5 345.0493,-73.5 389.4038,-73.5 389.4038,-55.5 345.0493,-55.5"/>
<text text-anchor="middle" x="367.2266" y="-61.5" font-family="Helvetica,sans-Serif" font-size="10.00" fill="#000000">thread</text>
</g>
<!-- Node1&#45;&gt;Node9 -->
<g id="edge10" class="edge">
<title>Node1&#45;&gt;Node9</title>
<path fill="none" stroke="#191970" d="M315.4646,-110.4179C324.564,-102.3458 338.0802,-90.3556 349.0192,-80.6517"/>
<polygon fill="#191970" stroke="#191970" points="351.608,-83.0339 356.7661,-73.7795 346.9627,-77.7974 351.608,-83.0339"/>
</g>
<!-- Node10 -->
<g id="node11" class="node">
<title>Node10</title>
<polygon fill="#ffffff" stroke="#bfbfbf" points="406.9238,-55.5 406.9238,-73.5 493.5293,-73.5 493.5293,-55.5 406.9238,-55.5"/>
<text text-anchor="middle" x="450.2266" y="-61.5" font-family="Helvetica,sans-Serif" font-size="10.00" fill="#000000">unordered_map</text>
</g>
<!-- Node1&#45;&gt;Node10 -->
<g id="edge11" class="edge">
<title>Node1&#45;&gt;Node10</title>
<path fill="none" stroke="#191970" d="M329.1704,-110.4179C353.098,-101.3419 390.085,-87.3123 416.8797,-77.1488"/>
<polygon fill="#191970" stroke="#191970" points="418.1385,-80.4147 426.2472,-73.5956 415.6559,-73.8697 418.1385,-80.4147"/>
</g>
<!-- Node3 -->
<g id="node4" class="node">
<title>Node3</title>
<polygon fill="#ffffff" stroke="#bfbfbf" points="63.5566,-.5 63.5566,-18.5 112.8965,-18.5 112.8965,-.5 63.5566,-.5"/>
<text text-anchor="middle" x="88.2266" y="-6.5" font-family="Helvetica,sans-Serif" font-size="10.00" fill="#000000">fstream</text>
</g>
<!-- Node2&#45;&gt;Node3 -->
<g id="edge3" class="edge">
<title>Node2&#45;&gt;Node3</title>
<path fill="none" stroke="#191970" d="M93.2358,-55.4179C92.4502,-48.2164 91.3243,-37.8962 90.3389,-28.8632"/>
<polygon fill="#191970" stroke="#191970" points="93.8028,-28.3409 89.2389,-18.7795 86.8441,-29.1001 93.8028,-28.3409"/>
</g>
<!-- Node2&#45;&gt;Node4 -->
<g id="edge4" class="edge">
<title>Node2&#45;&gt;Node4</title>
<path fill="none" stroke="#191970" d="M139.4933,-55.4795C193.4623,-44.7248 282.6494,-26.952 332.867,-16.9448"/>
<polygon fill="#191970" stroke="#191970" points="333.8416,-20.3195 342.9647,-14.9326 332.4735,-13.4545 333.8416,-20.3195"/>
</g>
<!-- Node2&#45;&gt;Node5 -->
<g id="edge5" class="edge">
<title>Node2&#45;&gt;Node5</title>
<path fill="none" stroke="#191970" d="M82.007,-55.4179C70.7597,-47.0584 53.8584,-34.4966 40.5751,-24.6239"/>
<polygon fill="#191970" stroke="#191970" points="42.5781,-21.7518 32.4643,-18.5956 38.4024,-27.37 42.5781,-21.7518"/>
</g>
<!-- Node6 -->
<g id="node7" class="node">
<title>Node6</title>
<polygon fill="#ffffff" stroke="#bfbfbf" points="130.6108,-.5 130.6108,-18.5 173.8423,-18.5 173.8423,-.5 130.6108,-.5"/>
<text text-anchor="middle" x="152.2266" y="-6.5" font-family="Helvetica,sans-Serif" font-size="10.00" fill="#000000">vector</text>
</g>
<!-- Node2&#45;&gt;Node6 -->
<g id="edge6" class="edge">
<title>Node2&#45;&gt;Node6</title>
<path fill="none" stroke="#191970" d="M103.8041,-55.4179C112.2329,-47.425 124.7131,-35.5903 134.8922,-25.9377"/>
<polygon fill="#191970" stroke="#191970" points="137.593,-28.2001 142.441,-18.7795 132.7764,-23.1207 137.593,-28.2001"/>
</g>
</g>
</svg>
