<?xml version="1.0" encoding="UTF-8" standalone="no"?>
<!DOCTYPE svg PUBLIC "-//W3C//DTD SVG 1.1//EN"
 "http://www.w3.org/Graphics/SVG/1.1/DTD/svg11.dtd">
<!-- Generated by graphviz version 2.40.1 (20161225.0304)
 -->
<!-- Title: /Users/Claudio/GitHub/bayes&#45;filters&#45;lib/src/BayesFilters/include/BayesFilters/FilteringContext.h Pages: 1 -->
<!--zoomable 222 -->
<svg id="main" version="1.1" xmlns="http://www.w3.org/2000/svg" xmlns:xlink="http://www.w3.org/1999/xlink" xml:space="preserve" onload="init(evt)">
<style type="text/css"><![CDATA[
.edge:hover path { stroke: red; }
.edge:hover polygon { stroke: red; fill: red; }
]]></style>
<script type="text/javascript"><![CDATA[
var edges = document.getElementsByTagName('g');
if (edges && edges.length) {
  for (var i=0;i<edges.length;i++) {
    if (edges[i].id.substr(0,4)=='edge') {
      edges[i].setAttribute('class','edge');
    }
  }
}
]]></script>
        <defs>
                <circle id="rim" cx="0" cy="0" r="7"/>
                <circle id="rim2" cx="0" cy="0" r="3.5"/>
                <g id="zoomPlus">
                        <use xlink:href="#rim" fill="#404040">
                                <set attributeName="fill" to="#808080" begin="zoomplus.mouseover" end="zoomplus.mouseout"/>
                        </use>
                        <path d="M-4,0h8M0,-4v8" fill="none" stroke="white" stroke-width="1.5" pointer-events="none"/>
                </g>
                <g id="zoomMin">
                        <use xlink:href="#rim" fill="#404040">
                                <set attributeName="fill" to="#808080" begin="zoomminus.mouseover" end="zoomminus.mouseout"/>
                        </use>
                        <path d="M-4,0h8" fill="none" stroke="white" stroke-width="1.5" pointer-events="none"/>
                </g>
                <g id="dirArrow">
                        <path fill="none" stroke="white" stroke-width="1.5" d="M0,-3.0v7 M-2.5,-0.5L0,-3.0L2.5,-0.5"/>
                </g>
               <g id="resetDef">
                       <use xlink:href="#rim2" fill="#404040">
                               <set attributeName="fill" to="#808080" begin="reset.mouseover" end="reset.mouseout"/>
                       </use>
               </g>
        </defs>

<script type="text/javascript">
var viewWidth = 582;
var viewHeight = 222;
var sectionId = 'dynsection-0';
</script>
<script xlink:href="svgpan.js"/>
<svg id="graph" class="graph">
<g id="viewport">
<title>/Users/Claudio/GitHub/bayes&#45;filters&#45;lib/src/BayesFilters/include/BayesFilters/FilteringContext.h</title>
<polygon fill="#ffffff" stroke="transparent" points="-4,4 -4,-218 577.9727,-218 577.9727,4 -4,4"/>
<!-- Node0 -->
<g id="node1" class="node">
<title>Node0</title>
<polygon fill="#bfbfbf" stroke="#000000" points="320.6431,-165.5 320.6431,-213.5 486.6968,-213.5 486.6968,-165.5 320.6431,-165.5"/>
<text text-anchor="start" x="328.6431" y="-201.5" font-family="Helvetica,sans-Serif" font-size="10.00" fill="#000000">/Users/Claudio/GitHub</text>
<text text-anchor="start" x="328.6431" y="-191.5" font-family="Helvetica,sans-Serif" font-size="10.00" fill="#000000">/bayes&#45;filters&#45;lib/src</text>
<text text-anchor="start" x="328.6431" y="-181.5" font-family="Helvetica,sans-Serif" font-size="10.00" fill="#000000">/BayesFilters/include/BayesFilters</text>
<text text-anchor="middle" x="403.6699" y="-171.5" font-family="Helvetica,sans-Serif" font-size="10.00" fill="#000000">/FilteringContext.h</text>
</g>
<!-- Node1 -->
<g id="node2" class="node">
<title>Node1</title>
<g id="a_node2"><a xlink:href="FilteringAlgorithm_8h.html" target="_top" xlink:title="BayesFilters/FilteringAlgorithm.h">
<polygon fill="#ffffff" stroke="#000000" points="261.7021,-110.5 261.7021,-128.5 421.6377,-128.5 421.6377,-110.5 261.7021,-110.5"/>
<text text-anchor="middle" x="341.6699" y="-116.5" font-family="Helvetica,sans-Serif" font-size="10.00" fill="#000000">BayesFilters/FilteringAlgorithm.h</text>
</a>
</g>
</g>
<!-- Node0&#45;&gt;Node1 -->
<g id="edge1" class="edge">
<title>Node0&#45;&gt;Node1</title>
<path fill="none" stroke="#191970" d="M382.333,-165.41C373.8387,-155.8196 364.2689,-145.015 356.5479,-136.2977"/>
<polygon fill="#191970" stroke="#191970" points="359.0576,-133.8525 349.8072,-128.6872 353.8175,-138.4938 359.0576,-133.8525"/>
</g>
<!-- Node11 -->
<g id="node12" class="node">
<title>Node11</title>
<polygon fill="#ffffff" stroke="#bfbfbf" points="439.6133,-110.5 439.6133,-128.5 491.7266,-128.5 491.7266,-110.5 439.6133,-110.5"/>
<text text-anchor="middle" x="465.6699" y="-116.5" font-family="Helvetica,sans-Serif" font-size="10.00" fill="#000000">memory</text>
</g>
<!-- Node0&#45;&gt;Node11 -->
<g id="edge12" class="edge">
<title>Node0&#45;&gt;Node11</title>
<path fill="none" stroke="#191970" d="M425.0068,-165.41C433.5011,-155.8196 443.0709,-145.015 450.792,-136.2977"/>
<polygon fill="#191970" stroke="#191970" points="453.5223,-138.4938 457.5327,-128.6872 448.2822,-133.8525 453.5223,-138.4938"/>
</g>
<!-- Node2 -->
<g id="node3" class="node">
<title>Node2</title>
<g id="a_node3"><a xlink:href="Logger_8h.html" target="_top" xlink:title="BayesFilters/Logger.h">
<polygon fill="#ffffff" stroke="#000000" points="81.3081,-55.5 81.3081,-73.5 194.0317,-73.5 194.0317,-55.5 81.3081,-55.5"/>
<text text-anchor="middle" x="137.6699" y="-61.5" font-family="Helvetica,sans-Serif" font-size="10.00" fill="#000000">BayesFilters/Logger.h</text>
</a>
</g>
</g>
<!-- Node1&#45;&gt;Node2 -->
<g id="edge2" class="edge">
<title>Node1&#45;&gt;Node2</title>
<path fill="none" stroke="#191970" d="M307.9835,-110.4179C273.1823,-101.0352 218.7455,-86.3586 180.8148,-76.1322"/>
<polygon fill="#191970" stroke="#191970" points="181.6337,-72.7281 171.0674,-73.5042 179.8115,-79.4867 181.6337,-72.7281"/>
</g>
<!-- Node5 -->
<g id="node6" class="node">
<title>Node5</title>
<polygon fill="#ffffff" stroke="#bfbfbf" points="201.4434,-.5 201.4434,-18.5 241.8965,-18.5 241.8965,-.5 201.4434,-.5"/>
<text text-anchor="middle" x="221.6699" y="-6.5" font-family="Helvetica,sans-Serif" font-size="10.00" fill="#000000">string</text>
</g>
<!-- Node1&#45;&gt;Node5 -->
<g id="edge9" class="edge">
<title>Node1&#45;&gt;Node5</title>
<path fill="none" stroke="#191970" d="M302.3053,-110.3476C281.3094,-103.5734 256.5935,-92.2657 240.6699,-74 229.6535,-61.3633 225.0178,-42.6067 223.0708,-28.5731"/>
<polygon fill="#191970" stroke="#191970" points="226.5422,-28.117 222.0151,-18.5381 219.5806,-28.8494 226.5422,-28.117"/>
</g>
<!-- Node7 -->
<g id="node8" class="node">
<title>Node7</title>
<polygon fill="#ffffff" stroke="#bfbfbf" points="249.3647,-55.5 249.3647,-73.5 345.9751,-73.5 345.9751,-55.5 249.3647,-55.5"/>
<text text-anchor="middle" x="297.6699" y="-61.5" font-family="Helvetica,sans-Serif" font-size="10.00" fill="#000000">condition_variable</text>
</g>
<!-- Node1&#45;&gt;Node7 -->
<g id="edge7" class="edge">
<title>Node1&#45;&gt;Node7</title>
<path fill="none" stroke="#191970" d="M334.4042,-110.4179C328.1998,-102.6624 319.1019,-91.29 311.5127,-81.8035"/>
<polygon fill="#191970" stroke="#191970" points="314.0735,-79.4017 305.0935,-73.7795 308.6074,-83.7746 314.0735,-79.4017"/>
</g>
<!-- Node8 -->
<g id="node9" class="node">
<title>Node8</title>
<polygon fill="#ffffff" stroke="#bfbfbf" points="364.0542,-55.5 364.0542,-73.5 407.2856,-73.5 407.2856,-55.5 364.0542,-55.5"/>
<text text-anchor="middle" x="385.6699" y="-61.5" font-family="Helvetica,sans-Serif" font-size="10.00" fill="#000000">mutex</text>
</g>
<!-- Node1&#45;&gt;Node8 -->
<g id="edge8" class="edge">
<title>Node1&#45;&gt;Node8</title>
<path fill="none" stroke="#191970" d="M348.9356,-110.4179C355.14,-102.6624 364.2379,-91.29 371.8271,-81.8035"/>
<polygon fill="#191970" stroke="#191970" points="374.7324,-83.7746 378.2464,-73.7795 369.2663,-79.4017 374.7324,-83.7746"/>
</g>
<!-- Node9 -->
<g id="node10" class="node">
<title>Node9</title>
<polygon fill="#ffffff" stroke="#bfbfbf" points="425.4927,-55.5 425.4927,-73.5 469.8472,-73.5 469.8472,-55.5 425.4927,-55.5"/>
<text text-anchor="middle" x="447.6699" y="-61.5" font-family="Helvetica,sans-Serif" font-size="10.00" fill="#000000">thread</text>
</g>
<!-- Node1&#45;&gt;Node9 -->
<g id="edge10" class="edge">
<title>Node1&#45;&gt;Node9</title>
<path fill="none" stroke="#191970" d="M359.1737,-110.4179C376.0519,-101.6603 401.8187,-88.2907 421.2035,-78.2326"/>
<polygon fill="#191970" stroke="#191970" points="422.8759,-81.308 430.1402,-73.5956 419.6519,-75.0946 422.8759,-81.308"/>
</g>
<!-- Node10 -->
<g id="node11" class="node">
<title>Node10</title>
<polygon fill="#ffffff" stroke="#bfbfbf" points="487.3672,-55.5 487.3672,-73.5 573.9727,-73.5 573.9727,-55.5 487.3672,-55.5"/>
<text text-anchor="middle" x="530.6699" y="-61.5" font-family="Helvetica,sans-Serif" font-size="10.00" fill="#000000">unordered_map</text>
</g>
<!-- Node1&#45;&gt;Node10 -->
<g id="edge11" class="edge">
<title>Node1&#45;&gt;Node10</title>
<path fill="none" stroke="#191970" d="M372.8794,-110.4179C404.8473,-101.115 454.6987,-86.608 489.7969,-76.3943"/>
<polygon fill="#191970" stroke="#191970" points="491.1044,-79.659 499.7282,-73.5042 489.1485,-72.9378 491.1044,-79.659"/>
</g>
<!-- Node3 -->
<g id="node4" class="node">
<title>Node3</title>
<polygon fill="#ffffff" stroke="#bfbfbf" points="0,-.5 0,-18.5 49.3398,-18.5 49.3398,-.5 0,-.5"/>
<text text-anchor="middle" x="24.6699" y="-6.5" font-family="Helvetica,sans-Serif" font-size="10.00" fill="#000000">fstream</text>
</g>
<!-- Node2&#45;&gt;Node3 -->
<g id="edge3" class="edge">
<title>Node2&#45;&gt;Node3</title>
<path fill="none" stroke="#191970" d="M119.0103,-55.4179C100.9357,-46.6205 73.2992,-33.1691 52.6027,-23.0956"/>
<polygon fill="#191970" stroke="#191970" points="53.8806,-19.825 43.3573,-18.5956 50.8171,-26.1191 53.8806,-19.825"/>
</g>
<!-- Node4 -->
<g id="node5" class="node">
<title>Node4</title>
<polygon fill="#ffffff" stroke="#bfbfbf" points="67.4976,-.5 67.4976,-18.5 121.8423,-18.5 121.8423,-.5 67.4976,-.5"/>
<text text-anchor="middle" x="94.6699" y="-6.5" font-family="Helvetica,sans-Serif" font-size="10.00" fill="#000000">iostream</text>
</g>
<!-- Node2&#45;&gt;Node4 -->
<g id="edge4" class="edge">
<title>Node2&#45;&gt;Node4</title>
<path fill="none" stroke="#191970" d="M130.5693,-55.4179C124.506,-47.6624 115.6148,-36.29 108.1981,-26.8035"/>
<polygon fill="#191970" stroke="#191970" points="110.8414,-24.5018 101.9248,-18.7795 105.3267,-28.8133 110.8414,-24.5018"/>
</g>
<!-- Node2&#45;&gt;Node5 -->
<g id="edge5" class="edge">
<title>Node2&#45;&gt;Node5</title>
<path fill="none" stroke="#191970" d="M151.5408,-55.4179C164.4296,-46.9788 183.8593,-34.257 199.0013,-24.3426"/>
<polygon fill="#191970" stroke="#191970" points="201.3295,-27.0017 207.7784,-18.5956 197.495,-21.1454 201.3295,-27.0017"/>
</g>
<!-- Node6 -->
<g id="node7" class="node">
<title>Node6</title>
<polygon fill="#ffffff" stroke="#bfbfbf" points="140.0542,-.5 140.0542,-18.5 183.2856,-18.5 183.2856,-.5 140.0542,-.5"/>
<text text-anchor="middle" x="161.6699" y="-6.5" font-family="Helvetica,sans-Serif" font-size="10.00" fill="#000000">vector</text>
</g>
<!-- Node2&#45;&gt;Node6 -->
<g id="edge6" class="edge">
<title>Node2&#45;&gt;Node6</title>
<path fill="none" stroke="#191970" d="M141.633,-55.4179C144.8791,-47.9789 149.5773,-37.2123 153.6085,-27.9742"/>
<polygon fill="#191970" stroke="#191970" points="156.8291,-29.3447 157.6207,-18.7795 150.4133,-26.545 156.8291,-29.3447"/>
</g>
</g>
</svg>
        <g id="navigator" transform="translate(0 0)" fill="#404254">
                <rect fill="#f2f5e9" fill-opacity="0.5" stroke="#606060" stroke-width=".5" x="0" y="0" width="60" height="60"/>
                <use id="zoomplus" xlink:href="#zoomPlus" x="17" y="9" onmousedown="handleZoom(evt,'in')"/>
                <use id="zoomminus" xlink:href="#zoomMin" x="42" y="9" onmousedown="handleZoom(evt,'out')"/>
                <use id="reset" xlink:href="#resetDef" x="30" y="36" onmousedown="handleReset()"/>
                <g id="arrowUp" xlink:href="#dirArrow" transform="translate(30 24)" onmousedown="handlePan(0,-1)">
                  <use xlink:href="#rim" fill="#404040">
                        <set attributeName="fill" to="#808080" begin="arrowUp.mouseover" end="arrowUp.mouseout"/>
                  </use>
                  <path fill="none" stroke="white" stroke-width="1.5" d="M0,-3.0v7 M-2.5,-0.5L0,-3.0L2.5,-0.5"/>
                </g>
                <g id="arrowRight" xlink:href="#dirArrow" transform="rotate(90) translate(36 -43)" onmousedown="handlePan(1,0)">
                  <use xlink:href="#rim" fill="#404040">
                        <set attributeName="fill" to="#808080" begin="arrowRight.mouseover" end="arrowRight.mouseout"/>
                  </use>
                  <path fill="none" stroke="white" stroke-width="1.5" d="M0,-3.0v7 M-2.5,-0.5L0,-3.0L2.5,-0.5"/>
                </g>
                <g id="arrowDown" xlink:href="#dirArrow" transform="rotate(180) translate(-30 -48)" onmousedown="handlePan(0,1)">
                  <use xlink:href="#rim" fill="#404040">
                        <set attributeName="fill" to="#808080" begin="arrowDown.mouseover" end="arrowDown.mouseout"/>
                  </use>
                  <path fill="none" stroke="white" stroke-width="1.5" d="M0,-3.0v7 M-2.5,-0.5L0,-3.0L2.5,-0.5"/>
                </g>
                <g id="arrowLeft" xlink:href="#dirArrow" transform="rotate(270) translate(-36 17)" onmousedown="handlePan(-1,0)">
                  <use xlink:href="#rim" fill="#404040">
                        <set attributeName="fill" to="#808080" begin="arrowLeft.mouseover" end="arrowLeft.mouseout"/>
                  </use>
                  <path fill="none" stroke="white" stroke-width="1.5" d="M0,-3.0v7 M-2.5,-0.5L0,-3.0L2.5,-0.5"/>
                </g>
        </g>
        <svg viewBox="0 0 15 15" width="100%" height="30px" preserveAspectRatio="xMaxYMin meet">
         <g id="arrow_out" transform="scale(0.3 0.3)">
          <a xlink:href="FilteringContext_8h__incl_org.svg" target="_base">
           <rect id="button" ry="5" rx="5" y="6" x="6" height="38" width="38"
                fill="#f2f5e9" fill-opacity="0.5" stroke="#606060" stroke-width="1.0"/>
           <path id="arrow"
             d="M 11.500037,31.436501 C 11.940474,20.09759 22.043105,11.32322 32.158766,21.979434 L 37.068811,17.246167 C 37.068811,17.246167 37.088388,32 37.088388,32 L 22.160133,31.978069 C 22.160133,31.978069 26.997745,27.140456 26.997745,27.140456 C 18.528582,18.264221 13.291696,25.230495 11.500037,31.436501 z"
             style="fill:#404040;"/>
          </a>
         </g>
        </svg>
</svg>
