<?xml version="1.0" encoding="UTF-8" standalone="no"?>
<!DOCTYPE svg PUBLIC "-//W3C//DTD SVG 1.1//EN"
 "http://www.w3.org/Graphics/SVG/1.1/DTD/svg11.dtd">
<!-- Generated by graphviz version 2.40.1 (20161225.0304)
 -->
<!-- Title: /Users/Claudio/GitHub/bayes&#45;filters&#45;lib/src/BayesFilters/src/GaussianPrediction.cpp Pages: 1 -->
<svg width="374pt" height="212pt"
 viewBox="0.00 0.00 373.75 212.00" xmlns="http://www.w3.org/2000/svg" xmlns:xlink="http://www.w3.org/1999/xlink">
<g id="graph0" class="graph" transform="scale(1 1) rotate(0) translate(4 208)">
<title>/Users/Claudio/GitHub/bayes&#45;filters&#45;lib/src/BayesFilters/src/GaussianPrediction.cpp</title>
<polygon fill="#ffffff" stroke="transparent" points="-4,4 -4,-208 369.7534,-208 369.7534,4 -4,4"/>
<!-- Node0 -->
<g id="node1" class="node">
<title>Node0</title>
<polygon fill="#bfbfbf" stroke="#000000" points="164.4336,-165.5 164.4336,-203.5 362.7285,-203.5 362.7285,-165.5 164.4336,-165.5"/>
<text text-anchor="start" x="172.4336" y="-191.5" font-family="Helvetica,sans-Serif" font-size="10.00" fill="#000000">/Users/Claudio/GitHub</text>
<text text-anchor="start" x="172.4336" y="-181.5" font-family="Helvetica,sans-Serif" font-size="10.00" fill="#000000">/bayes&#45;filters&#45;lib/src</text>
<text text-anchor="middle" x="263.5811" y="-171.5" font-family="Helvetica,sans-Serif" font-size="10.00" fill="#000000">/BayesFilters/src/GaussianPrediction.cpp</text>
</g>
<!-- Node1 -->
<g id="node2" class="node">
<title>Node1</title>
<g id="a_node2"><a xlink:href="GaussianPrediction_8h.html" target="_top" xlink:title="BayesFilters/GaussianPrediction.h">
<polygon fill="#ffffff" stroke="#000000" points="47.1577,-110.5 47.1577,-128.5 216.0044,-128.5 216.0044,-110.5 47.1577,-110.5"/>
<text text-anchor="middle" x="131.5811" y="-116.5" font-family="Helvetica,sans-Serif" font-size="10.00" fill="#000000">BayesFilters/GaussianPrediction.h</text>
</a>
</g>
</g>
<!-- Node0&#45;&gt;Node1 -->
<g id="edge1" class="edge">
<title>Node0&#45;&gt;Node1</title>
<path fill="none" stroke="#191970" d="M224.6906,-165.3494C203.6122,-154.9699 178.0686,-142.3916 159.0716,-133.037"/>
<polygon fill="#191970" stroke="#191970" points="160.5742,-129.8756 150.0567,-128.5978 157.4818,-136.1555 160.5742,-129.8756"/>
</g>
<!-- Node5 -->
<g id="node6" class="node">
<title>Node5</title>
<polygon fill="#ffffff" stroke="#bfbfbf" points="234.1772,-110.5 234.1772,-128.5 292.9849,-128.5 292.9849,-110.5 234.1772,-110.5"/>
<text text-anchor="middle" x="263.5811" y="-116.5" font-family="Helvetica,sans-Serif" font-size="10.00" fill="#000000">exception</text>
</g>
<!-- Node0&#45;&gt;Node5 -->
<g id="edge6" class="edge">
<title>Node0&#45;&gt;Node5</title>
<path fill="none" stroke="#191970" d="M263.5811,-165.3494C263.5811,-157.0079 263.5811,-147.2463 263.5811,-138.879"/>
<polygon fill="#191970" stroke="#191970" points="267.0812,-138.5978 263.5811,-128.5978 260.0812,-138.5979 267.0812,-138.5978"/>
</g>
<!-- Node6 -->
<g id="node7" class="node">
<title>Node6</title>
<polygon fill="#ffffff" stroke="#bfbfbf" points="311.4087,-110.5 311.4087,-128.5 365.7534,-128.5 365.7534,-110.5 311.4087,-110.5"/>
<text text-anchor="middle" x="338.5811" y="-116.5" font-family="Helvetica,sans-Serif" font-size="10.00" fill="#000000">iostream</text>
</g>
<!-- Node0&#45;&gt;Node6 -->
<g id="edge7" class="edge">
<title>Node0&#45;&gt;Node6</title>
<path fill="none" stroke="#191970" d="M285.6779,-165.3494C296.7246,-155.7756 309.9297,-144.3311 320.3835,-135.2712"/>
<polygon fill="#191970" stroke="#191970" points="322.8189,-137.7921 328.0835,-128.5978 318.2344,-132.5023 322.8189,-137.7921"/>
</g>
<!-- Node2 -->
<g id="node3" class="node">
<title>Node2</title>
<g id="a_node3"><a xlink:href="GaussianMixture_8h.html" target="_top" xlink:title="BayesFilters/GaussianMixture.h">
<polygon fill="#ffffff" stroke="#000000" points="0,-55.5 0,-73.5 157.1621,-73.5 157.1621,-55.5 0,-55.5"/>
<text text-anchor="middle" x="78.5811" y="-61.5" font-family="Helvetica,sans-Serif" font-size="10.00" fill="#000000">BayesFilters/GaussianMixture.h</text>
</a>
</g>
</g>
<!-- Node1&#45;&gt;Node2 -->
<g id="edge2" class="edge">
<title>Node1&#45;&gt;Node2</title>
<path fill="none" stroke="#191970" d="M122.8292,-110.4179C115.2032,-102.5041 103.9481,-90.8243 94.698,-81.2251"/>
<polygon fill="#191970" stroke="#191970" points="96.9823,-78.5516 87.5231,-73.7795 91.9418,-83.4089 96.9823,-78.5516"/>
</g>
<!-- Node4 -->
<g id="node5" class="node">
<title>Node4</title>
<polygon fill="#ffffff" stroke="#bfbfbf" points="132.9507,-.5 132.9507,-18.5 206.2114,-18.5 206.2114,-.5 132.9507,-.5"/>
<text text-anchor="middle" x="169.5811" y="-6.5" font-family="Helvetica,sans-Serif" font-size="10.00" fill="#000000">Eigen/Dense</text>
</g>
<!-- Node1&#45;&gt;Node4 -->
<g id="edge5" class="edge">
<title>Node1&#45;&gt;Node4</title>
<path fill="none" stroke="#191970" d="M141.3085,-110.4499C149.7092,-101.9496 161.3027,-88.4115 166.5811,-74 171.8888,-59.5084 172.3553,-41.9495 171.6527,-28.8134"/>
<polygon fill="#191970" stroke="#191970" points="175.1212,-28.2818 170.8265,-18.5964 168.144,-28.846 175.1212,-28.2818"/>
</g>
<!-- Node3 -->
<g id="node4" class="node">
<title>Node3</title>
<polygon fill="#ffffff" stroke="#bfbfbf" points="56.9653,-.5 56.9653,-18.5 100.1968,-18.5 100.1968,-.5 56.9653,-.5"/>
<text text-anchor="middle" x="78.5811" y="-6.5" font-family="Helvetica,sans-Serif" font-size="10.00" fill="#000000">vector</text>
</g>
<!-- Node2&#45;&gt;Node3 -->
<g id="edge3" class="edge">
<title>Node2&#45;&gt;Node3</title>
<path fill="none" stroke="#191970" d="M78.5811,-55.4179C78.5811,-48.2164 78.5811,-37.8962 78.5811,-28.8632"/>
<polygon fill="#191970" stroke="#191970" points="82.0812,-28.7794 78.5811,-18.7795 75.0812,-28.7795 82.0812,-28.7794"/>
</g>
<!-- Node2&#45;&gt;Node4 -->
<g id="edge4" class="edge">
<title>Node2&#45;&gt;Node4</title>
<path fill="none" stroke="#191970" d="M93.6079,-55.4179C107.8342,-46.8195 129.4163,-33.7754 145.9468,-23.7844"/>
<polygon fill="#191970" stroke="#191970" points="147.7841,-26.7637 154.5319,-18.5956 144.1632,-20.7729 147.7841,-26.7637"/>
</g>
</g>
</svg>
