<?xml version="1.0" encoding="UTF-8" standalone="no"?>
<!DOCTYPE svg PUBLIC "-//W3C//DTD SVG 1.1//EN"
 "http://www.w3.org/Graphics/SVG/1.1/DTD/svg11.dtd">
<!-- Generated by graphviz version 2.40.1 (20161225.0304)
 -->
<!-- Title: /Users/Claudio/GitHub/bayes&#45;filters&#45;lib/src/BayesFilters/include/BayesFilters/GaussianPrediction.h Pages: 1 -->
<svg width="223pt" height="167pt"
 viewBox="0.00 0.00 222.61 167.00" xmlns="http://www.w3.org/2000/svg" xmlns:xlink="http://www.w3.org/1999/xlink">
<g id="graph0" class="graph" transform="scale(1 1) rotate(0) translate(4 163)">
<title>/Users/Claudio/GitHub/bayes&#45;filters&#45;lib/src/BayesFilters/include/BayesFilters/GaussianPrediction.h</title>
<polygon fill="#ffffff" stroke="transparent" points="-4,4 -4,-163 218.6079,-163 218.6079,4 -4,4"/>
<!-- Node0 -->
<g id="node1" class="node">
<title>Node0</title>
<polygon fill="#bfbfbf" stroke="#000000" points="48.5542,-110.5 48.5542,-158.5 214.6079,-158.5 214.6079,-110.5 48.5542,-110.5"/>
<text text-anchor="start" x="56.5542" y="-146.5" font-family="Helvetica,sans-Serif" font-size="10.00" fill="#000000">/Users/Claudio/GitHub</text>
<text text-anchor="start" x="56.5542" y="-136.5" font-family="Helvetica,sans-Serif" font-size="10.00" fill="#000000">/bayes&#45;filters&#45;lib/src</text>
<text text-anchor="start" x="56.5542" y="-126.5" font-family="Helvetica,sans-Serif" font-size="10.00" fill="#000000">/BayesFilters/include/BayesFilters</text>
<text text-anchor="middle" x="131.5811" y="-116.5" font-family="Helvetica,sans-Serif" font-size="10.00" fill="#000000">/GaussianPrediction.h</text>
</g>
<!-- Node1 -->
<g id="node2" class="node">
<title>Node1</title>
<g id="a_node2"><a xlink:href="GaussianMixture_8h.html" target="_top" xlink:title="BayesFilters/GaussianMixture.h">
<polygon fill="#ffffff" stroke="#000000" points="0,-55.5 0,-73.5 157.1621,-73.5 157.1621,-55.5 0,-55.5"/>
<text text-anchor="middle" x="78.5811" y="-61.5" font-family="Helvetica,sans-Serif" font-size="10.00" fill="#000000">BayesFilters/GaussianMixture.h</text>
</a>
</g>
</g>
<!-- Node0&#45;&gt;Node1 -->
<g id="edge1" class="edge">
<title>Node0&#45;&gt;Node1</title>
<path fill="none" stroke="#191970" d="M113.3415,-110.41C106.2299,-101.0174 98.2365,-90.46 91.7096,-81.8395"/>
<polygon fill="#191970" stroke="#191970" points="94.3639,-79.5471 85.5371,-73.6872 88.7831,-83.7726 94.3639,-79.5471"/>
</g>
<!-- Node3 -->
<g id="node4" class="node">
<title>Node3</title>
<polygon fill="#ffffff" stroke="#bfbfbf" points="132.9507,-.5 132.9507,-18.5 206.2114,-18.5 206.2114,-.5 132.9507,-.5"/>
<text text-anchor="middle" x="169.5811" y="-6.5" font-family="Helvetica,sans-Serif" font-size="10.00" fill="#000000">Eigen/Dense</text>
</g>
<!-- Node0&#45;&gt;Node3 -->
<g id="edge4" class="edge">
<title>Node0&#45;&gt;Node3</title>
<path fill="none" stroke="#191970" d="M149.0803,-110.4086C155.8314,-99.779 162.8221,-86.8077 166.5811,-74 170.8784,-59.3579 171.4538,-42.0503 171.0505,-29.0518"/>
<polygon fill="#191970" stroke="#191970" points="174.5376,-28.7141 170.513,-18.9135 167.5474,-29.0848 174.5376,-28.7141"/>
</g>
<!-- Node2 -->
<g id="node3" class="node">
<title>Node2</title>
<polygon fill="#ffffff" stroke="#bfbfbf" points="56.9653,-.5 56.9653,-18.5 100.1968,-18.5 100.1968,-.5 56.9653,-.5"/>
<text text-anchor="middle" x="78.5811" y="-6.5" font-family="Helvetica,sans-Serif" font-size="10.00" fill="#000000">vector</text>
</g>
<!-- Node1&#45;&gt;Node2 -->
<g id="edge2" class="edge">
<title>Node1&#45;&gt;Node2</title>
<path fill="none" stroke="#191970" d="M78.5811,-55.4179C78.5811,-48.2164 78.5811,-37.8962 78.5811,-28.8632"/>
<polygon fill="#191970" stroke="#191970" points="82.0812,-28.7794 78.5811,-18.7795 75.0812,-28.7795 82.0812,-28.7794"/>
</g>
<!-- Node1&#45;&gt;Node3 -->
<g id="edge3" class="edge">
<title>Node1&#45;&gt;Node3</title>
<path fill="none" stroke="#191970" d="M93.6079,-55.4179C107.8342,-46.8195 129.4163,-33.7754 145.9468,-23.7844"/>
<polygon fill="#191970" stroke="#191970" points="147.7841,-26.7637 154.5319,-18.5956 144.1632,-20.7729 147.7841,-26.7637"/>
</g>
</g>
</svg>
