<?xml version="1.0" encoding="UTF-8" standalone="no"?>
<!DOCTYPE svg PUBLIC "-//W3C//DTD SVG 1.1//EN"
 "http://www.w3.org/Graphics/SVG/1.1/DTD/svg11.dtd">
<!-- Generated by graphviz version 2.40.1 (20161225.0304)
 -->
<!-- Title: /Users/Claudio/GitHub/bayes&#45;filters&#45;lib/src/BayesFilters/src/GaussianMixture.cpp Pages: 1 -->
<svg width="195pt" height="157pt"
 viewBox="0.00 0.00 194.61 157.00" xmlns="http://www.w3.org/2000/svg" xmlns:xlink="http://www.w3.org/1999/xlink">
<g id="graph0" class="graph" transform="scale(1 1) rotate(0) translate(4 153)">
<title>/Users/Claudio/GitHub/bayes&#45;filters&#45;lib/src/BayesFilters/src/GaussianMixture.cpp</title>
<polygon fill="#ffffff" stroke="transparent" points="-4,4 -4,-153 190.6104,-153 190.6104,4 -4,4"/>
<!-- Node0 -->
<g id="node1" class="node">
<title>Node0</title>
<polygon fill="#bfbfbf" stroke="#000000" points="0,-110.5 0,-148.5 186.6104,-148.5 186.6104,-110.5 0,-110.5"/>
<text text-anchor="start" x="8" y="-136.5" font-family="Helvetica,sans-Serif" font-size="10.00" fill="#000000">/Users/Claudio/GitHub</text>
<text text-anchor="start" x="8" y="-126.5" font-family="Helvetica,sans-Serif" font-size="10.00" fill="#000000">/bayes&#45;filters&#45;lib/src</text>
<text text-anchor="middle" x="93.3052" y="-116.5" font-family="Helvetica,sans-Serif" font-size="10.00" fill="#000000">/BayesFilters/src/GaussianMixture.cpp</text>
</g>
<!-- Node1 -->
<g id="node2" class="node">
<title>Node1</title>
<g id="a_node2"><a xlink:href="GaussianMixture_8h.html" target="_top" xlink:title="BayesFilters/GaussianMixture.h">
<polygon fill="#ffffff" stroke="#000000" points="14.7241,-55.5 14.7241,-73.5 171.8862,-73.5 171.8862,-55.5 14.7241,-55.5"/>
<text text-anchor="middle" x="93.3052" y="-61.5" font-family="Helvetica,sans-Serif" font-size="10.00" fill="#000000">BayesFilters/GaussianMixture.h</text>
</a>
</g>
</g>
<!-- Node0&#45;&gt;Node1 -->
<g id="edge1" class="edge">
<title>Node0&#45;&gt;Node1</title>
<path fill="none" stroke="#191970" d="M93.3052,-110.3494C93.3052,-102.0079 93.3052,-92.2463 93.3052,-83.879"/>
<polygon fill="#191970" stroke="#191970" points="96.8053,-83.5978 93.3052,-73.5978 89.8053,-83.5979 96.8053,-83.5978"/>
</g>
<!-- Node2 -->
<g id="node3" class="node">
<title>Node2</title>
<polygon fill="#ffffff" stroke="#bfbfbf" points="33.6895,-.5 33.6895,-18.5 76.9209,-18.5 76.9209,-.5 33.6895,-.5"/>
<text text-anchor="middle" x="55.3052" y="-6.5" font-family="Helvetica,sans-Serif" font-size="10.00" fill="#000000">vector</text>
</g>
<!-- Node1&#45;&gt;Node2 -->
<g id="edge2" class="edge">
<title>Node1&#45;&gt;Node2</title>
<path fill="none" stroke="#191970" d="M87.0302,-55.4179C81.7266,-47.7415 73.9747,-36.5217 67.4614,-27.0945"/>
<polygon fill="#191970" stroke="#191970" points="70.2804,-25.0173 61.7164,-18.7795 64.5212,-28.9963 70.2804,-25.0173"/>
</g>
<!-- Node3 -->
<g id="node4" class="node">
<title>Node3</title>
<polygon fill="#ffffff" stroke="#bfbfbf" points="94.6748,-.5 94.6748,-18.5 167.9355,-18.5 167.9355,-.5 94.6748,-.5"/>
<text text-anchor="middle" x="131.3052" y="-6.5" font-family="Helvetica,sans-Serif" font-size="10.00" fill="#000000">Eigen/Dense</text>
</g>
<!-- Node1&#45;&gt;Node3 -->
<g id="edge3" class="edge">
<title>Node1&#45;&gt;Node3</title>
<path fill="none" stroke="#191970" d="M99.5801,-55.4179C104.8838,-47.7415 112.6356,-36.5217 119.149,-27.0945"/>
<polygon fill="#191970" stroke="#191970" points="122.0891,-28.9963 124.8939,-18.7795 116.33,-25.0173 122.0891,-28.9963"/>
</g>
</g>
</svg>
