<?xml version="1.0" encoding="UTF-8" standalone="no"?>
<!DOCTYPE svg PUBLIC "-//W3C//DTD SVG 1.1//EN"
 "http://www.w3.org/Graphics/SVG/1.1/DTD/svg11.dtd">
<!-- Generated by graphviz version 2.40.1 (20161225.0304)
 -->
<!-- Title: /Users/Claudio/GitHub/bayes&#45;filters&#45;lib/src/BayesFilters/include/BayesFilters/Gaussian.h Pages: 1 -->
<svg width="320pt" height="167pt"
 viewBox="0.00 0.00 319.60 167.00" xmlns="http://www.w3.org/2000/svg" xmlns:xlink="http://www.w3.org/1999/xlink">
<g id="graph0" class="graph" transform="scale(1 1) rotate(0) translate(4 163)">
<title>/Users/Claudio/GitHub/bayes&#45;filters&#45;lib/src/BayesFilters/include/BayesFilters/Gaussian.h</title>
<polygon fill="#ffffff" stroke="transparent" points="-4,4 -4,-163 315.5957,-163 315.5957,4 -4,4"/>
<!-- Node0 -->
<g id="node1" class="node">
<title>Node0</title>
<polygon fill="#bfbfbf" stroke="#000000" points="118.5542,-110.5 118.5542,-158.5 284.6079,-158.5 284.6079,-110.5 118.5542,-110.5"/>
<text text-anchor="start" x="126.5542" y="-146.5" font-family="Helvetica,sans-Serif" font-size="10.00" fill="#000000">/Users/Claudio/GitHub</text>
<text text-anchor="start" x="126.5542" y="-136.5" font-family="Helvetica,sans-Serif" font-size="10.00" fill="#000000">/bayes&#45;filters&#45;lib/src</text>
<text text-anchor="start" x="126.5542" y="-126.5" font-family="Helvetica,sans-Serif" font-size="10.00" fill="#000000">/BayesFilters/include/BayesFilters</text>
<text text-anchor="middle" x="201.5811" y="-116.5" font-family="Helvetica,sans-Serif" font-size="10.00" fill="#000000">/Gaussian.h</text>
</g>
<!-- Node1 -->
<g id="node2" class="node">
<title>Node1</title>
<g id="a_node2"><a xlink:href="GaussianMixture_8h.html" target="_top" xlink:title="BayesFilters/GaussianMixture.h">
<polygon fill="#ffffff" stroke="#000000" points="0,-55.5 0,-73.5 157.1621,-73.5 157.1621,-55.5 0,-55.5"/>
<text text-anchor="middle" x="78.5811" y="-61.5" font-family="Helvetica,sans-Serif" font-size="10.00" fill="#000000">BayesFilters/GaussianMixture.h</text>
</a>
</g>
</g>
<!-- Node0&#45;&gt;Node1 -->
<g id="edge1" class="edge">
<title>Node0&#45;&gt;Node1</title>
<path fill="none" stroke="#191970" d="M159.2514,-110.41C140.5463,-99.7648 119.2124,-87.6235 103.1836,-78.5015"/>
<polygon fill="#191970" stroke="#191970" points="104.8415,-75.4179 94.4192,-73.5136 101.3791,-81.5017 104.8415,-75.4179"/>
</g>
<!-- Node4 -->
<g id="node5" class="node">
<title>Node4</title>
<polygon fill="#ffffff" stroke="#bfbfbf" points="175.5244,-55.5 175.5244,-73.5 227.6377,-73.5 227.6377,-55.5 175.5244,-55.5"/>
<text text-anchor="middle" x="201.5811" y="-61.5" font-family="Helvetica,sans-Serif" font-size="10.00" fill="#000000">memory</text>
</g>
<!-- Node0&#45;&gt;Node4 -->
<g id="edge4" class="edge">
<title>Node0&#45;&gt;Node4</title>
<path fill="none" stroke="#191970" d="M201.5811,-110.41C201.5811,-101.7094 201.5811,-92.0095 201.5811,-83.7754"/>
<polygon fill="#191970" stroke="#191970" points="205.0812,-83.6872 201.5811,-73.6872 198.0812,-83.6873 205.0812,-83.6872"/>
</g>
<!-- Node5 -->
<g id="node6" class="node">
<title>Node5</title>
<polygon fill="#ffffff" stroke="#bfbfbf" points="245.5664,-55.5 245.5664,-73.5 311.5957,-73.5 311.5957,-55.5 245.5664,-55.5"/>
<text text-anchor="middle" x="278.5811" y="-61.5" font-family="Helvetica,sans-Serif" font-size="10.00" fill="#000000">Eigen/Core</text>
</g>
<!-- Node0&#45;&gt;Node5 -->
<g id="edge5" class="edge">
<title>Node0&#45;&gt;Node5</title>
<path fill="none" stroke="#191970" d="M228.0801,-110.41C238.9557,-100.523 251.251,-89.3455 260.9866,-80.495"/>
<polygon fill="#191970" stroke="#191970" points="263.43,-83.0038 268.4751,-73.6872 258.7213,-77.8242 263.43,-83.0038"/>
</g>
<!-- Node2 -->
<g id="node3" class="node">
<title>Node2</title>
<polygon fill="#ffffff" stroke="#bfbfbf" points="18.9653,-.5 18.9653,-18.5 62.1968,-18.5 62.1968,-.5 18.9653,-.5"/>
<text text-anchor="middle" x="40.5811" y="-6.5" font-family="Helvetica,sans-Serif" font-size="10.00" fill="#000000">vector</text>
</g>
<!-- Node1&#45;&gt;Node2 -->
<g id="edge2" class="edge">
<title>Node1&#45;&gt;Node2</title>
<path fill="none" stroke="#191970" d="M72.3061,-55.4179C67.0025,-47.7415 59.2506,-36.5217 52.7372,-27.0945"/>
<polygon fill="#191970" stroke="#191970" points="55.5562,-25.0173 46.9923,-18.7795 49.7971,-28.9963 55.5562,-25.0173"/>
</g>
<!-- Node3 -->
<g id="node4" class="node">
<title>Node3</title>
<polygon fill="#ffffff" stroke="#bfbfbf" points="79.9507,-.5 79.9507,-18.5 153.2114,-18.5 153.2114,-.5 79.9507,-.5"/>
<text text-anchor="middle" x="116.5811" y="-6.5" font-family="Helvetica,sans-Serif" font-size="10.00" fill="#000000">Eigen/Dense</text>
</g>
<!-- Node1&#45;&gt;Node3 -->
<g id="edge3" class="edge">
<title>Node1&#45;&gt;Node3</title>
<path fill="none" stroke="#191970" d="M84.856,-55.4179C90.1596,-47.7415 97.9115,-36.5217 104.4249,-27.0945"/>
<polygon fill="#191970" stroke="#191970" points="107.365,-28.9963 110.1698,-18.7795 101.6059,-25.0173 107.365,-28.9963"/>
</g>
</g>
</svg>
