<?xml version="1.0" encoding="UTF-8" standalone="no"?>
<!DOCTYPE svg PUBLIC "-//W3C//DTD SVG 1.1//EN"
 "http://www.w3.org/Graphics/SVG/1.1/DTD/svg11.dtd">
<!-- Generated by graphviz version 2.40.1 (20161225.0304)
 -->
<!-- Title: /Users/Claudio/GitHub/bayes&#45;filters&#45;lib/src/BayesFilters/src/Gaussian.cpp Pages: 1 -->
<svg width="349pt" height="212pt"
 viewBox="0.00 0.00 348.98 212.00" xmlns="http://www.w3.org/2000/svg" xmlns:xlink="http://www.w3.org/1999/xlink">
<g id="graph0" class="graph" transform="scale(1 1) rotate(0) translate(4 208)">
<title>/Users/Claudio/GitHub/bayes&#45;filters&#45;lib/src/BayesFilters/src/Gaussian.cpp</title>
<polygon fill="#ffffff" stroke="transparent" points="-4,4 -4,-208 344.9849,-208 344.9849,4 -4,4"/>
<!-- Node0 -->
<g id="node1" class="node">
<title>Node0</title>
<polygon fill="#bfbfbf" stroke="#000000" points="179.6675,-165.5 179.6675,-203.5 333.4946,-203.5 333.4946,-165.5 179.6675,-165.5"/>
<text text-anchor="start" x="187.6675" y="-191.5" font-family="Helvetica,sans-Serif" font-size="10.00" fill="#000000">/Users/Claudio/GitHub</text>
<text text-anchor="start" x="187.6675" y="-181.5" font-family="Helvetica,sans-Serif" font-size="10.00" fill="#000000">/bayes&#45;filters&#45;lib/src</text>
<text text-anchor="middle" x="256.5811" y="-171.5" font-family="Helvetica,sans-Serif" font-size="10.00" fill="#000000">/BayesFilters/src/Gaussian.cpp</text>
</g>
<!-- Node1 -->
<g id="node2" class="node">
<title>Node1</title>
<g id="a_node2"><a xlink:href="Gaussian_8h.html" target="_top" xlink:title="BayesFilters/Gaussian.h">
<polygon fill="#ffffff" stroke="#000000" points="139.3916,-110.5 139.3916,-128.5 263.7705,-128.5 263.7705,-110.5 139.3916,-110.5"/>
<text text-anchor="middle" x="201.5811" y="-116.5" font-family="Helvetica,sans-Serif" font-size="10.00" fill="#000000">BayesFilters/Gaussian.h</text>
</a>
</g>
</g>
<!-- Node0&#45;&gt;Node1 -->
<g id="edge1" class="edge">
<title>Node0&#45;&gt;Node1</title>
<path fill="none" stroke="#191970" d="M240.3767,-165.3494C232.5966,-156.1548 223.3566,-145.2347 215.846,-136.3586"/>
<polygon fill="#191970" stroke="#191970" points="218.4106,-133.9709 209.2792,-128.5978 213.0668,-138.4925 218.4106,-133.9709"/>
</g>
<!-- Node7 -->
<g id="node8" class="node">
<title>Node7</title>
<polygon fill="#ffffff" stroke="#bfbfbf" points="282.1772,-110.5 282.1772,-128.5 340.9849,-128.5 340.9849,-110.5 282.1772,-110.5"/>
<text text-anchor="middle" x="311.5811" y="-116.5" font-family="Helvetica,sans-Serif" font-size="10.00" fill="#000000">exception</text>
</g>
<!-- Node0&#45;&gt;Node7 -->
<g id="edge7" class="edge">
<title>Node0&#45;&gt;Node7</title>
<path fill="none" stroke="#191970" d="M272.7854,-165.3494C280.5655,-156.1548 289.8055,-145.2347 297.3161,-136.3586"/>
<polygon fill="#191970" stroke="#191970" points="300.0953,-138.4925 303.8829,-128.5978 294.7516,-133.9709 300.0953,-138.4925"/>
</g>
<!-- Node2 -->
<g id="node3" class="node">
<title>Node2</title>
<g id="a_node3"><a xlink:href="GaussianMixture_8h.html" target="_top" xlink:title="BayesFilters/GaussianMixture.h">
<polygon fill="#ffffff" stroke="#000000" points="0,-55.5 0,-73.5 157.1621,-73.5 157.1621,-55.5 0,-55.5"/>
<text text-anchor="middle" x="78.5811" y="-61.5" font-family="Helvetica,sans-Serif" font-size="10.00" fill="#000000">BayesFilters/GaussianMixture.h</text>
</a>
</g>
</g>
<!-- Node1&#45;&gt;Node2 -->
<g id="edge2" class="edge">
<title>Node1&#45;&gt;Node2</title>
<path fill="none" stroke="#191970" d="M181.2701,-110.4179C161.3289,-101.5011 130.6951,-87.803 108.0726,-77.6873"/>
<polygon fill="#191970" stroke="#191970" points="109.4798,-74.4826 98.9222,-73.5956 106.6224,-80.8728 109.4798,-74.4826"/>
</g>
<!-- Node5 -->
<g id="node6" class="node">
<title>Node5</title>
<polygon fill="#ffffff" stroke="#bfbfbf" points="175.5244,-55.5 175.5244,-73.5 227.6377,-73.5 227.6377,-55.5 175.5244,-55.5"/>
<text text-anchor="middle" x="201.5811" y="-61.5" font-family="Helvetica,sans-Serif" font-size="10.00" fill="#000000">memory</text>
</g>
<!-- Node1&#45;&gt;Node5 -->
<g id="edge5" class="edge">
<title>Node1&#45;&gt;Node5</title>
<path fill="none" stroke="#191970" d="M201.5811,-110.4179C201.5811,-103.2164 201.5811,-92.8962 201.5811,-83.8632"/>
<polygon fill="#191970" stroke="#191970" points="205.0812,-83.7794 201.5811,-73.7795 198.0812,-83.7795 205.0812,-83.7794"/>
</g>
<!-- Node6 -->
<g id="node7" class="node">
<title>Node6</title>
<polygon fill="#ffffff" stroke="#bfbfbf" points="245.5664,-55.5 245.5664,-73.5 311.5957,-73.5 311.5957,-55.5 245.5664,-55.5"/>
<text text-anchor="middle" x="278.5811" y="-61.5" font-family="Helvetica,sans-Serif" font-size="10.00" fill="#000000">Eigen/Core</text>
</g>
<!-- Node1&#45;&gt;Node6 -->
<g id="edge6" class="edge">
<title>Node1&#45;&gt;Node6</title>
<path fill="none" stroke="#191970" d="M214.296,-110.4179C225.9993,-102.0584 243.5858,-89.4966 257.4076,-79.6239"/>
<polygon fill="#191970" stroke="#191970" points="259.7442,-82.2561 265.8472,-73.5956 255.6755,-76.56 259.7442,-82.2561"/>
</g>
<!-- Node3 -->
<g id="node4" class="node">
<title>Node3</title>
<polygon fill="#ffffff" stroke="#bfbfbf" points="18.9653,-.5 18.9653,-18.5 62.1968,-18.5 62.1968,-.5 18.9653,-.5"/>
<text text-anchor="middle" x="40.5811" y="-6.5" font-family="Helvetica,sans-Serif" font-size="10.00" fill="#000000">vector</text>
</g>
<!-- Node2&#45;&gt;Node3 -->
<g id="edge3" class="edge">
<title>Node2&#45;&gt;Node3</title>
<path fill="none" stroke="#191970" d="M72.3061,-55.4179C67.0025,-47.7415 59.2506,-36.5217 52.7372,-27.0945"/>
<polygon fill="#191970" stroke="#191970" points="55.5562,-25.0173 46.9923,-18.7795 49.7971,-28.9963 55.5562,-25.0173"/>
</g>
<!-- Node4 -->
<g id="node5" class="node">
<title>Node4</title>
<polygon fill="#ffffff" stroke="#bfbfbf" points="79.9507,-.5 79.9507,-18.5 153.2114,-18.5 153.2114,-.5 79.9507,-.5"/>
<text text-anchor="middle" x="116.5811" y="-6.5" font-family="Helvetica,sans-Serif" font-size="10.00" fill="#000000">Eigen/Dense</text>
</g>
<!-- Node2&#45;&gt;Node4 -->
<g id="edge4" class="edge">
<title>Node2&#45;&gt;Node4</title>
<path fill="none" stroke="#191970" d="M84.856,-55.4179C90.1596,-47.7415 97.9115,-36.5217 104.4249,-27.0945"/>
<polygon fill="#191970" stroke="#191970" points="107.365,-28.9963 110.1698,-18.7795 101.6059,-25.0173 107.365,-28.9963"/>
</g>
</g>
</svg>
