<?xml version="1.0" encoding="UTF-8" standalone="no"?>
<!DOCTYPE svg PUBLIC "-//W3C//DTD SVG 1.1//EN"
 "http://www.w3.org/Graphics/SVG/1.1/DTD/svg11.dtd">
<!-- Generated by graphviz version 2.40.1 (20161225.0304)
 -->
<!-- Title: /Users/Claudio/GitHub/bayes&#45;filters&#45;lib/src/BayesFilters/include/BayesFilters/GaussianInitialization.h Pages: 1 -->
<svg width="362pt" height="222pt"
 viewBox="0.00 0.00 361.61 222.00" xmlns="http://www.w3.org/2000/svg" xmlns:xlink="http://www.w3.org/1999/xlink">
<g id="graph0" class="graph" transform="scale(1 1) rotate(0) translate(4 218)">
<title>/Users/Claudio/GitHub/bayes&#45;filters&#45;lib/src/BayesFilters/include/BayesFilters/GaussianInitialization.h</title>
<polygon fill="#ffffff" stroke="transparent" points="-4,4 -4,-218 357.6079,-218 357.6079,4 -4,4"/>
<!-- Node0 -->
<g id="node1" class="node">
<title>Node0</title>
<polygon fill="#bfbfbf" stroke="#000000" points="187.5542,-165.5 187.5542,-213.5 353.6079,-213.5 353.6079,-165.5 187.5542,-165.5"/>
<text text-anchor="start" x="195.5542" y="-201.5" font-family="Helvetica,sans-Serif" font-size="10.00" fill="#000000">/Users/Claudio/GitHub</text>
<text text-anchor="start" x="195.5542" y="-191.5" font-family="Helvetica,sans-Serif" font-size="10.00" fill="#000000">/bayes&#45;filters&#45;lib/src</text>
<text text-anchor="start" x="195.5542" y="-181.5" font-family="Helvetica,sans-Serif" font-size="10.00" fill="#000000">/BayesFilters/include/BayesFilters</text>
<text text-anchor="middle" x="270.5811" y="-171.5" font-family="Helvetica,sans-Serif" font-size="10.00" fill="#000000">/GaussianInitialization.h</text>
</g>
<!-- Node1 -->
<g id="node2" class="node">
<title>Node1</title>
<g id="a_node2"><a xlink:href="Gaussian_8h.html" target="_top" xlink:title="BayesFilters/Gaussian.h">
<polygon fill="#ffffff" stroke="#000000" points="163.3916,-110.5 163.3916,-128.5 287.7705,-128.5 287.7705,-110.5 163.3916,-110.5"/>
<text text-anchor="middle" x="225.5811" y="-116.5" font-family="Helvetica,sans-Serif" font-size="10.00" fill="#000000">BayesFilters/Gaussian.h</text>
</a>
</g>
</g>
<!-- Node0&#45;&gt;Node1 -->
<g id="edge1" class="edge">
<title>Node0&#45;&gt;Node1</title>
<path fill="none" stroke="#191970" d="M255.0946,-165.41C249.1201,-156.1162 242.4124,-145.6821 236.9033,-137.1124"/>
<polygon fill="#191970" stroke="#191970" points="239.8389,-135.2064 231.4871,-128.6872 233.9506,-138.9917 239.8389,-135.2064"/>
</g>
<!-- Node4 -->
<g id="node5" class="node">
<title>Node4</title>
<polygon fill="#ffffff" stroke="#bfbfbf" points="209.9507,-.5 209.9507,-18.5 283.2114,-18.5 283.2114,-.5 209.9507,-.5"/>
<text text-anchor="middle" x="246.5811" y="-6.5" font-family="Helvetica,sans-Serif" font-size="10.00" fill="#000000">Eigen/Dense</text>
</g>
<!-- Node0&#45;&gt;Node4 -->
<g id="edge7" class="edge">
<title>Node0&#45;&gt;Node4</title>
<path fill="none" stroke="#191970" d="M291.8698,-165.2014C313.4189,-137.4862 340.882,-91.3137 320.5811,-55 312.4916,-40.5299 297.7058,-30.0974 283.4656,-22.903"/>
<polygon fill="#191970" stroke="#191970" points="284.8068,-19.6669 274.2625,-18.6329 281.8606,-26.0167 284.8068,-19.6669"/>
</g>
<!-- Node2 -->
<g id="node3" class="node">
<title>Node2</title>
<g id="a_node3"><a xlink:href="GaussianMixture_8h.html" target="_top" xlink:title="BayesFilters/GaussianMixture.h">
<polygon fill="#ffffff" stroke="#000000" points="0,-55.5 0,-73.5 157.1621,-73.5 157.1621,-55.5 0,-55.5"/>
<text text-anchor="middle" x="78.5811" y="-61.5" font-family="Helvetica,sans-Serif" font-size="10.00" fill="#000000">BayesFilters/GaussianMixture.h</text>
</a>
</g>
</g>
<!-- Node1&#45;&gt;Node2 -->
<g id="edge2" class="edge">
<title>Node1&#45;&gt;Node2</title>
<path fill="none" stroke="#191970" d="M201.307,-110.4179C177.0493,-101.3419 139.5521,-87.3123 112.3879,-77.1488"/>
<polygon fill="#191970" stroke="#191970" points="113.4836,-73.8219 102.8912,-73.5956 111.0306,-80.378 113.4836,-73.8219"/>
</g>
<!-- Node5 -->
<g id="node6" class="node">
<title>Node5</title>
<polygon fill="#ffffff" stroke="#bfbfbf" points="175.5244,-55.5 175.5244,-73.5 227.6377,-73.5 227.6377,-55.5 175.5244,-55.5"/>
<text text-anchor="middle" x="201.5811" y="-61.5" font-family="Helvetica,sans-Serif" font-size="10.00" fill="#000000">memory</text>
</g>
<!-- Node1&#45;&gt;Node5 -->
<g id="edge5" class="edge">
<title>Node1&#45;&gt;Node5</title>
<path fill="none" stroke="#191970" d="M221.6179,-110.4179C218.3719,-102.9789 213.6737,-92.2123 209.6425,-82.9742"/>
<polygon fill="#191970" stroke="#191970" points="212.8377,-81.545 205.6303,-73.7795 206.4219,-84.3447 212.8377,-81.545"/>
</g>
<!-- Node6 -->
<g id="node7" class="node">
<title>Node6</title>
<polygon fill="#ffffff" stroke="#bfbfbf" points="245.5664,-55.5 245.5664,-73.5 311.5957,-73.5 311.5957,-55.5 245.5664,-55.5"/>
<text text-anchor="middle" x="278.5811" y="-61.5" font-family="Helvetica,sans-Serif" font-size="10.00" fill="#000000">Eigen/Core</text>
</g>
<!-- Node1&#45;&gt;Node6 -->
<g id="edge6" class="edge">
<title>Node1&#45;&gt;Node6</title>
<path fill="none" stroke="#191970" d="M234.3329,-110.4179C241.9589,-102.5041 253.214,-90.8243 262.4641,-81.2251"/>
<polygon fill="#191970" stroke="#191970" points="265.2204,-83.4089 269.639,-73.7795 260.1798,-78.5516 265.2204,-83.4089"/>
</g>
<!-- Node3 -->
<g id="node4" class="node">
<title>Node3</title>
<polygon fill="#ffffff" stroke="#bfbfbf" points="56.9653,-.5 56.9653,-18.5 100.1968,-18.5 100.1968,-.5 56.9653,-.5"/>
<text text-anchor="middle" x="78.5811" y="-6.5" font-family="Helvetica,sans-Serif" font-size="10.00" fill="#000000">vector</text>
</g>
<!-- Node2&#45;&gt;Node3 -->
<g id="edge3" class="edge">
<title>Node2&#45;&gt;Node3</title>
<path fill="none" stroke="#191970" d="M78.5811,-55.4179C78.5811,-48.2164 78.5811,-37.8962 78.5811,-28.8632"/>
<polygon fill="#191970" stroke="#191970" points="82.0812,-28.7794 78.5811,-18.7795 75.0812,-28.7795 82.0812,-28.7794"/>
</g>
<!-- Node2&#45;&gt;Node4 -->
<g id="edge4" class="edge">
<title>Node2&#45;&gt;Node4</title>
<path fill="none" stroke="#191970" d="M106.3228,-55.4179C134.4948,-46.1949 178.2915,-31.8567 209.4432,-21.6582"/>
<polygon fill="#191970" stroke="#191970" points="210.6626,-24.9419 219.0773,-18.5042 208.4846,-18.2893 210.6626,-24.9419"/>
</g>
</g>
</svg>
