<?xml version="1.0" encoding="UTF-8" standalone="no"?>
<!DOCTYPE svg PUBLIC "-//W3C//DTD SVG 1.1//EN"
 "http://www.w3.org/Graphics/SVG/1.1/DTD/svg11.dtd">
<!-- Generated by graphviz version 2.40.1 (20161225.0304)
 -->
<!-- Title: /Users/Claudio/GitHub/bayes&#45;filters&#45;lib/src/BayesFilters/src/GaussianFilter.cpp Pages: 1 -->
<!--zoomable 387 -->
<svg id="main" version="1.1" xmlns="http://www.w3.org/2000/svg" xmlns:xlink="http://www.w3.org/1999/xlink" xml:space="preserve" onload="init(evt)">
<style type="text/css"><![CDATA[
.edge:hover path { stroke: red; }
.edge:hover polygon { stroke: red; fill: red; }
]]></style>
<script type="text/javascript"><![CDATA[
var edges = document.getElementsByTagName('g');
if (edges && edges.length) {
  for (var i=0;i<edges.length;i++) {
    if (edges[i].id.substr(0,4)=='edge') {
      edges[i].setAttribute('class','edge');
    }
  }
}
]]></script>
        <defs>
                <circle id="rim" cx="0" cy="0" r="7"/>
                <circle id="rim2" cx="0" cy="0" r="3.5"/>
                <g id="zoomPlus">
                        <use xlink:href="#rim" fill="#404040">
                                <set attributeName="fill" to="#808080" begin="zoomplus.mouseover" end="zoomplus.mouseout"/>
                        </use>
                        <path d="M-4,0h8M0,-4v8" fill="none" stroke="white" stroke-width="1.5" pointer-events="none"/>
                </g>
                <g id="zoomMin">
                        <use xlink:href="#rim" fill="#404040">
                                <set attributeName="fill" to="#808080" begin="zoomminus.mouseover" end="zoomminus.mouseout"/>
                        </use>
                        <path d="M-4,0h8" fill="none" stroke="white" stroke-width="1.5" pointer-events="none"/>
                </g>
                <g id="dirArrow">
                        <path fill="none" stroke="white" stroke-width="1.5" d="M0,-3.0v7 M-2.5,-0.5L0,-3.0L2.5,-0.5"/>
                </g>
               <g id="resetDef">
                       <use xlink:href="#rim2" fill="#404040">
                               <set attributeName="fill" to="#808080" begin="reset.mouseover" end="reset.mouseout"/>
                       </use>
               </g>
        </defs>

<script type="text/javascript">
var viewWidth = 1054;
var viewHeight = 387;
var sectionId = 'dynsection-0';
</script>
<script xlink:href="svgpan.js"/>
<svg id="graph" class="graph">
<g id="viewport">
<title>/Users/Claudio/GitHub/bayes&#45;filters&#45;lib/src/BayesFilters/src/GaussianFilter.cpp</title>
<polygon fill="#ffffff" stroke="transparent" points="-4,4 -4,-383 1049.8052,-383 1049.8052,4 -4,4"/>
<!-- Node0 -->
<g id="node1" class="node">
<title>Node0</title>
<polygon fill="#bfbfbf" stroke="#000000" points="233.4385,-340.5 233.4385,-378.5 408.9404,-378.5 408.9404,-340.5 233.4385,-340.5"/>
<text text-anchor="start" x="241.4385" y="-366.5" font-family="Helvetica,sans-Serif" font-size="10.00" fill="#000000">/Users/Claudio/GitHub</text>
<text text-anchor="start" x="241.4385" y="-356.5" font-family="Helvetica,sans-Serif" font-size="10.00" fill="#000000">/bayes&#45;filters&#45;lib/src</text>
<text text-anchor="middle" x="321.1895" y="-346.5" font-family="Helvetica,sans-Serif" font-size="10.00" fill="#000000">/BayesFilters/src/GaussianFilter.cpp</text>
</g>
<!-- Node1 -->
<g id="node2" class="node">
<title>Node1</title>
<g id="a_node2"><a xlink:href="GaussianFilter_8h.html" target="_top" xlink:title="BayesFilters/GaussianFilter.h">
<polygon fill="#ffffff" stroke="#000000" points="248.1626,-285.5 248.1626,-303.5 394.2163,-303.5 394.2163,-285.5 248.1626,-285.5"/>
<text text-anchor="middle" x="321.1895" y="-291.5" font-family="Helvetica,sans-Serif" font-size="10.00" fill="#000000">BayesFilters/GaussianFilter.h</text>
</a>
</g>
</g>
<!-- Node0&#45;&gt;Node1 -->
<g id="edge1" class="edge">
<title>Node0&#45;&gt;Node1</title>
<path fill="none" stroke="#191970" d="M321.1895,-340.3494C321.1895,-332.0079 321.1895,-322.2463 321.1895,-313.879"/>
<polygon fill="#191970" stroke="#191970" points="324.6896,-313.5978 321.1895,-303.5978 317.6896,-313.5979 324.6896,-313.5978"/>
</g>
<!-- Node2 -->
<g id="node3" class="node">
<title>Node2</title>
<g id="a_node3"><a xlink:href="FilteringAlgorithm_8h.html" target="_top" xlink:title="BayesFilters/FilteringAlgorithm.h">
<polygon fill="#ffffff" stroke="#000000" points="663.2217,-170.5 663.2217,-188.5 823.1572,-188.5 823.1572,-170.5 663.2217,-170.5"/>
<text text-anchor="middle" x="743.1895" y="-176.5" font-family="Helvetica,sans-Serif" font-size="10.00" fill="#000000">BayesFilters/FilteringAlgorithm.h</text>
</a>
</g>
</g>
<!-- Node1&#45;&gt;Node2 -->
<g id="edge2" class="edge">
<title>Node1&#45;&gt;Node2</title>
<path fill="none" stroke="#191970" d="M361.3156,-285.4165C399.4824,-276.6285 458.4431,-262.6673 509.1895,-249 578.5743,-230.3129 658.7006,-205.8911 704.9008,-191.5291"/>
<polygon fill="#191970" stroke="#191970" points="705.9991,-194.8529 714.505,-188.5363 703.9166,-188.1698 705.9991,-194.8529"/>
</g>
<!-- Node12 -->
<g id="node13" class="node">
<title>Node12</title>
<g id="a_node13"><a xlink:href="Gaussian_8h.html" target="_top" xlink:title="BayesFilters/Gaussian.h">
<polygon fill="#ffffff" stroke="#000000" points="0,-230.5 0,-248.5 124.3789,-248.5 124.3789,-230.5 0,-230.5"/>
<text text-anchor="middle" x="62.1895" y="-236.5" font-family="Helvetica,sans-Serif" font-size="10.00" fill="#000000">BayesFilters/Gaussian.h</text>
</a>
</g>
</g>
<!-- Node1&#45;&gt;Node12 -->
<g id="edge13" class="edge">
<title>Node1&#45;&gt;Node12</title>
<path fill="none" stroke="#191970" d="M278.7109,-285.4795C233.8273,-275.9482 162.9861,-260.9047 114.6472,-250.6397"/>
<polygon fill="#191970" stroke="#191970" points="115.2001,-247.1791 104.6912,-248.5255 113.746,-254.0264 115.2001,-247.1791"/>
</g>
<!-- Node17 -->
<g id="node18" class="node">
<title>Node17</title>
<g id="a_node18"><a xlink:href="GaussianPrediction_8h.html" target="_top" xlink:title="BayesFilters/GaussianPrediction.h">
<polygon fill="#ffffff" stroke="#000000" points="142.7661,-230.5 142.7661,-248.5 311.6128,-248.5 311.6128,-230.5 142.7661,-230.5"/>
<text text-anchor="middle" x="227.1895" y="-236.5" font-family="Helvetica,sans-Serif" font-size="10.00" fill="#000000">BayesFilters/GaussianPrediction.h</text>
</a>
</g>
</g>
<!-- Node1&#45;&gt;Node17 -->
<g id="edge19" class="edge">
<title>Node1&#45;&gt;Node17</title>
<path fill="none" stroke="#191970" d="M305.6673,-285.4179C290.9719,-276.8195 268.6783,-263.7754 251.6028,-253.7844"/>
<polygon fill="#191970" stroke="#191970" points="253.1334,-250.6249 242.7347,-248.5956 249.5983,-256.6667 253.1334,-250.6249"/>
</g>
<!-- Node18 -->
<g id="node19" class="node">
<title>Node18</title>
<g id="a_node19"><a xlink:href="GaussianCorrection_8h.html" target="_top" xlink:title="BayesFilters/GaussianCorrection.h">
<polygon fill="#ffffff" stroke="#000000" points="329.936,-230.5 329.936,-248.5 500.4429,-248.5 500.4429,-230.5 329.936,-230.5"/>
<text text-anchor="middle" x="415.1895" y="-236.5" font-family="Helvetica,sans-Serif" font-size="10.00" fill="#000000">BayesFilters/GaussianCorrection.h</text>
</a>
</g>
</g>
<!-- Node1&#45;&gt;Node18 -->
<g id="edge22" class="edge">
<title>Node1&#45;&gt;Node18</title>
<path fill="none" stroke="#191970" d="M336.7116,-285.4179C351.407,-276.8195 373.7006,-263.7754 390.7761,-253.7844"/>
<polygon fill="#191970" stroke="#191970" points="392.7806,-256.6667 399.6442,-248.5956 389.2455,-250.6249 392.7806,-256.6667"/>
</g>
<!-- Node3 -->
<g id="node4" class="node">
<title>Node3</title>
<g id="a_node4"><a xlink:href="Logger_8h.html" target="_top" xlink:title="BayesFilters/Logger.h">
<polygon fill="#ffffff" stroke="#000000" points="514.8276,-110.5 514.8276,-128.5 627.5513,-128.5 627.5513,-110.5 514.8276,-110.5"/>
<text text-anchor="middle" x="571.1895" y="-116.5" font-family="Helvetica,sans-Serif" font-size="10.00" fill="#000000">BayesFilters/Logger.h</text>
</a>
</g>
</g>
<!-- Node2&#45;&gt;Node3 -->
<g id="edge3" class="edge">
<title>Node2&#45;&gt;Node3</title>
<path fill="none" stroke="#191970" d="M717.0664,-170.3873C687.5985,-160.1078 639.5109,-143.3331 606.6625,-131.8743"/>
<polygon fill="#191970" stroke="#191970" points="607.5897,-128.491 596.9948,-128.5019 605.284,-135.1004 607.5897,-128.491"/>
</g>
<!-- Node6 -->
<g id="node7" class="node">
<title>Node6</title>
<polygon fill="#ffffff" stroke="#bfbfbf" points="662.9629,-55.5 662.9629,-73.5 703.416,-73.5 703.416,-55.5 662.9629,-55.5"/>
<text text-anchor="middle" x="683.1895" y="-61.5" font-family="Helvetica,sans-Serif" font-size="10.00" fill="#000000">string</text>
</g>
<!-- Node2&#45;&gt;Node6 -->
<g id="edge10" class="edge">
<title>Node2&#45;&gt;Node6</title>
<path fill="none" stroke="#191970" d="M737.1125,-170.3998C730.5818,-160.4444 720.078,-143.9136 712.1895,-129 704.2171,-113.928 696.3601,-96.2271 690.8396,-83.1851"/>
<polygon fill="#191970" stroke="#191970" points="694.0326,-81.7482 686.9555,-73.8637 687.5711,-84.4406 694.0326,-81.7482"/>
</g>
<!-- Node8 -->
<g id="node9" class="node">
<title>Node8</title>
<polygon fill="#ffffff" stroke="#bfbfbf" points="887.8843,-110.5 887.8843,-128.5 984.4946,-128.5 984.4946,-110.5 887.8843,-110.5"/>
<text text-anchor="middle" x="936.1895" y="-116.5" font-family="Helvetica,sans-Serif" font-size="10.00" fill="#000000">condition_variable</text>
</g>
<!-- Node2&#45;&gt;Node8 -->
<g id="edge8" class="edge">
<title>Node2&#45;&gt;Node8</title>
<path fill="none" stroke="#191970" d="M772.502,-170.3873C805.8527,-160.0192 860.4583,-143.0434 897.3349,-131.5791"/>
<polygon fill="#191970" stroke="#191970" points="898.7233,-134.8128 907.2334,-128.5019 896.6452,-128.1284 898.7233,-134.8128"/>
</g>
<!-- Node9 -->
<g id="node10" class="node">
<title>Node9</title>
<polygon fill="#ffffff" stroke="#bfbfbf" points="1002.5737,-110.5 1002.5737,-128.5 1045.8052,-128.5 1045.8052,-110.5 1002.5737,-110.5"/>
<text text-anchor="middle" x="1024.1895" y="-116.5" font-family="Helvetica,sans-Serif" font-size="10.00" fill="#000000">mutex</text>
</g>
<!-- Node2&#45;&gt;Node9 -->
<g id="edge9" class="edge">
<title>Node2&#45;&gt;Node9</title>
<path fill="none" stroke="#191970" d="M795.718,-170.4377C844.3566,-161.6985 918.8478,-147.4339 992.3562,-129.0199"/>
<polygon fill="#191970" stroke="#191970" points="993.4143,-132.3625 1002.249,-126.5147 991.6958,-125.5767 993.4143,-132.3625"/>
</g>
<!-- Node10 -->
<g id="node11" class="node">
<title>Node10</title>
<polygon fill="#ffffff" stroke="#bfbfbf" points="721.0122,-110.5 721.0122,-128.5 765.3667,-128.5 765.3667,-110.5 721.0122,-110.5"/>
<text text-anchor="middle" x="743.1895" y="-116.5" font-family="Helvetica,sans-Serif" font-size="10.00" fill="#000000">thread</text>
</g>
<!-- Node2&#45;&gt;Node10 -->
<g id="edge11" class="edge">
<title>Node2&#45;&gt;Node10</title>
<path fill="none" stroke="#191970" d="M743.1895,-170.3873C743.1895,-162.0174 743.1895,-149.3414 743.1895,-138.735"/>
<polygon fill="#191970" stroke="#191970" points="746.6896,-138.6984 743.1895,-128.6985 739.6896,-138.6985 746.6896,-138.6984"/>
</g>
<!-- Node11 -->
<g id="node12" class="node">
<title>Node11</title>
<polygon fill="#ffffff" stroke="#bfbfbf" points="782.8867,-110.5 782.8867,-128.5 869.4922,-128.5 869.4922,-110.5 782.8867,-110.5"/>
<text text-anchor="middle" x="826.1895" y="-116.5" font-family="Helvetica,sans-Serif" font-size="10.00" fill="#000000">unordered_map</text>
</g>
<!-- Node2&#45;&gt;Node11 -->
<g id="edge12" class="edge">
<title>Node2&#45;&gt;Node11</title>
<path fill="none" stroke="#191970" d="M755.7954,-170.3873C768.912,-160.9054 789.6737,-145.897 805.257,-134.6319"/>
<polygon fill="#191970" stroke="#191970" points="807.6831,-137.1969 813.7369,-128.5019 803.5821,-131.5239 807.6831,-137.1969"/>
</g>
<!-- Node4 -->
<g id="node5" class="node">
<title>Node4</title>
<polygon fill="#ffffff" stroke="#bfbfbf" points="595.5195,-55.5 595.5195,-73.5 644.8594,-73.5 644.8594,-55.5 595.5195,-55.5"/>
<text text-anchor="middle" x="620.1895" y="-61.5" font-family="Helvetica,sans-Serif" font-size="10.00" fill="#000000">fstream</text>
</g>
<!-- Node3&#45;&gt;Node4 -->
<g id="edge4" class="edge">
<title>Node3&#45;&gt;Node4</title>
<path fill="none" stroke="#191970" d="M579.2808,-110.4179C586.2607,-102.5833 596.5291,-91.0575 605.0318,-81.5137"/>
<polygon fill="#191970" stroke="#191970" points="607.8835,-83.5743 611.9223,-73.7795 602.6569,-78.9178 607.8835,-83.5743"/>
</g>
<!-- Node5 -->
<g id="node6" class="node">
<title>Node5</title>
<polygon fill="#ffffff" stroke="#bfbfbf" points="523.0171,-55.5 523.0171,-73.5 577.3618,-73.5 577.3618,-55.5 523.0171,-55.5"/>
<text text-anchor="middle" x="550.1895" y="-61.5" font-family="Helvetica,sans-Serif" font-size="10.00" fill="#000000">iostream</text>
</g>
<!-- Node3&#45;&gt;Node5 -->
<g id="edge5" class="edge">
<title>Node3&#45;&gt;Node5</title>
<path fill="none" stroke="#191970" d="M567.7217,-110.4179C564.9116,-103.0581 560.8578,-92.441 557.356,-83.2695"/>
<polygon fill="#191970" stroke="#191970" points="560.5694,-81.8732 553.7325,-73.7795 554.0298,-84.3701 560.5694,-81.8732"/>
</g>
<!-- Node3&#45;&gt;Node6 -->
<g id="edge6" class="edge">
<title>Node3&#45;&gt;Node6</title>
<path fill="none" stroke="#191970" d="M589.684,-110.4179C607.5986,-101.6205 634.9906,-88.1691 655.5039,-78.0956"/>
<polygon fill="#191970" stroke="#191970" points="657.2341,-81.1452 664.6675,-73.5956 654.1486,-74.8619 657.2341,-81.1452"/>
</g>
<!-- Node7 -->
<g id="node8" class="node">
<title>Node7</title>
<polygon fill="#ffffff" stroke="#bfbfbf" points="461.5737,-55.5 461.5737,-73.5 504.8052,-73.5 504.8052,-55.5 461.5737,-55.5"/>
<text text-anchor="middle" x="483.1895" y="-61.5" font-family="Helvetica,sans-Serif" font-size="10.00" fill="#000000">vector</text>
</g>
<!-- Node3&#45;&gt;Node7 -->
<g id="edge7" class="edge">
<title>Node3&#45;&gt;Node7</title>
<path fill="none" stroke="#191970" d="M556.658,-110.4179C543.0281,-101.8992 522.4159,-89.0166 506.4898,-79.0627"/>
<polygon fill="#191970" stroke="#191970" points="508.0775,-75.9277 497.7425,-73.5956 504.3674,-81.8637 508.0775,-75.9277"/>
</g>
<!-- Node13 -->
<g id="node14" class="node">
<title>Node13</title>
<g id="a_node14"><a xlink:href="GaussianMixture_8h.html" target="_top" xlink:title="BayesFilters/GaussianMixture.h">
<polygon fill="#ffffff" stroke="#000000" points="113.6084,-170.5 113.6084,-188.5 270.7705,-188.5 270.7705,-170.5 113.6084,-170.5"/>
<text text-anchor="middle" x="192.1895" y="-176.5" font-family="Helvetica,sans-Serif" font-size="10.00" fill="#000000">BayesFilters/GaussianMixture.h</text>
</a>
</g>
</g>
<!-- Node12&#45;&gt;Node13 -->
<g id="edge14" class="edge">
<title>Node12&#45;&gt;Node13</title>
<path fill="none" stroke="#191970" d="M81.9337,-230.3873C103.6298,-220.3737 138.6806,-204.1964 163.4295,-192.7738"/>
<polygon fill="#191970" stroke="#191970" points="165.0725,-195.8704 172.6854,-188.5019 162.1391,-189.5147 165.0725,-195.8704"/>
</g>
<!-- Node15 -->
<g id="node16" class="node">
<title>Node15</title>
<polygon fill="#ffffff" stroke="#bfbfbf" points="220.1328,-.5 220.1328,-18.5 272.2461,-18.5 272.2461,-.5 220.1328,-.5"/>
<text text-anchor="middle" x="246.1895" y="-6.5" font-family="Helvetica,sans-Serif" font-size="10.00" fill="#000000">memory</text>
</g>
<!-- Node12&#45;&gt;Node15 -->
<g id="edge17" class="edge">
<title>Node12&#45;&gt;Node15</title>
<path fill="none" stroke="#191970" d="M49.5704,-230.282C39.4717,-222.0582 26.0613,-209.0182 20.1895,-194 15.4961,-181.996 14.1912,-176.4081 20.1895,-165 60.4811,-88.3694 157.5079,-42.1603 210.3788,-21.8082"/>
<polygon fill="#191970" stroke="#191970" points="211.8879,-24.9805 220.024,-18.1942 209.4317,-18.4255 211.8879,-24.9805"/>
</g>
<!-- Node16 -->
<g id="node17" class="node">
<title>Node16</title>
<polygon fill="#ffffff" stroke="#bfbfbf" points="29.1748,-170.5 29.1748,-188.5 95.2041,-188.5 95.2041,-170.5 29.1748,-170.5"/>
<text text-anchor="middle" x="62.1895" y="-176.5" font-family="Helvetica,sans-Serif" font-size="10.00" fill="#000000">Eigen/Core</text>
</g>
<!-- Node12&#45;&gt;Node16 -->
<g id="edge18" class="edge">
<title>Node12&#45;&gt;Node16</title>
<path fill="none" stroke="#191970" d="M62.1895,-230.3873C62.1895,-222.0174 62.1895,-209.3414 62.1895,-198.735"/>
<polygon fill="#191970" stroke="#191970" points="65.6896,-198.6984 62.1895,-188.6985 58.6896,-198.6985 65.6896,-198.6984"/>
</g>
<!-- Node13&#45;&gt;Node7 -->
<g id="edge15" class="edge">
<title>Node13&#45;&gt;Node7</title>
<path fill="none" stroke="#191970" d="M189.8151,-170.4208C186.5502,-155.632 182.6979,-126.3537 198.1895,-110 235.6245,-70.4816 382.0619,-85.0446 451.3195,-73.8215"/>
<polygon fill="#191970" stroke="#191970" points="452.1982,-77.2164 461.3501,-71.8784 450.8669,-70.3442 452.1982,-77.2164"/>
</g>
<!-- Node14 -->
<g id="node15" class="node">
<title>Node14</title>
<polygon fill="#ffffff" stroke="#bfbfbf" points="207.5591,-110.5 207.5591,-128.5 280.8198,-128.5 280.8198,-110.5 207.5591,-110.5"/>
<text text-anchor="middle" x="244.1895" y="-116.5" font-family="Helvetica,sans-Serif" font-size="10.00" fill="#000000">Eigen/Dense</text>
</g>
<!-- Node13&#45;&gt;Node14 -->
<g id="edge16" class="edge">
<title>Node13&#45;&gt;Node14</title>
<path fill="none" stroke="#191970" d="M200.0871,-170.3873C207.8755,-161.4007 219.9662,-147.4499 229.5197,-136.4267"/>
<polygon fill="#191970" stroke="#191970" points="232.313,-138.5477 236.2174,-128.6985 227.0232,-133.9631 232.313,-138.5477"/>
</g>
<!-- Node17&#45;&gt;Node13 -->
<g id="edge20" class="edge">
<title>Node17&#45;&gt;Node13</title>
<path fill="none" stroke="#191970" d="M221.8737,-230.3873C216.7857,-221.665 208.9698,-208.2663 202.635,-197.4067"/>
<polygon fill="#191970" stroke="#191970" points="205.6172,-195.5727 197.5552,-188.6985 199.5708,-199.0998 205.6172,-195.5727"/>
</g>
<!-- Node17&#45;&gt;Node14 -->
<g id="edge21" class="edge">
<title>Node17&#45;&gt;Node14</title>
<path fill="none" stroke="#191970" d="M244.042,-230.4285C256.5983,-222.6252 272.7974,-210.0885 280.1895,-194 285.5706,-182.2882 284.423,-177.1738 280.1895,-165 276.4177,-154.1541 268.8662,-143.9451 261.6493,-135.9564"/>
<polygon fill="#191970" stroke="#191970" points="264.164,-133.522 254.6963,-128.7666 259.1321,-138.3882 264.164,-133.522"/>
</g>
<!-- Node18&#45;&gt;Node13 -->
<g id="edge23" class="edge">
<title>Node18&#45;&gt;Node13</title>
<path fill="none" stroke="#191970" d="M381.3206,-230.3873C342.2918,-219.8863 278.0705,-202.607 235.455,-191.141"/>
<polygon fill="#191970" stroke="#191970" points="236.2124,-187.7203 225.6464,-188.5019 234.3936,-194.4799 236.2124,-187.7203"/>
</g>
<!-- Node18&#45;&gt;Node14 -->
<g id="edge37" class="edge">
<title>Node18&#45;&gt;Node14</title>
<path fill="none" stroke="#191970" d="M402.3367,-230.4805C373.1223,-209.9792 301.4842,-159.7069 265.519,-134.4681"/>
<polygon fill="#191970" stroke="#191970" points="267.3875,-131.5035 257.1914,-128.6242 263.3665,-137.2334 267.3875,-131.5035"/>
</g>
<!-- Node19 -->
<g id="node20" class="node">
<title>Node19</title>
<g id="a_node20"><a xlink:href="MeasurementModel_8h.html" target="_top" xlink:title="BayesFilters/Measurement\lModel.h">
<polygon fill="#ffffff" stroke="#000000" points="364.7241,-165.5 364.7241,-193.5 499.6548,-193.5 499.6548,-165.5 364.7241,-165.5"/>
<text text-anchor="start" x="372.7241" y="-181.5" font-family="Helvetica,sans-Serif" font-size="10.00" fill="#000000">BayesFilters/Measurement</text>
<text text-anchor="middle" x="432.1895" y="-171.5" font-family="Helvetica,sans-Serif" font-size="10.00" fill="#000000">Model.h</text>
</a>
</g>
</g>
<!-- Node18&#45;&gt;Node19 -->
<g id="edge24" class="edge">
<title>Node18&#45;&gt;Node19</title>
<path fill="none" stroke="#191970" d="M417.7714,-230.3873C419.7905,-223.2611 422.694,-213.0134 425.367,-203.5792"/>
<polygon fill="#191970" stroke="#191970" points="428.7656,-204.4231 428.1243,-193.8477 422.0307,-202.5148 428.7656,-204.4231"/>
</g>
<!-- Node19&#45;&gt;Node3 -->
<g id="edge32" class="edge">
<title>Node19&#45;&gt;Node3</title>
<path fill="none" stroke="#191970" d="M464.7788,-165.4327C487.7056,-155.5362 518.1818,-142.381 540.6418,-132.686"/>
<polygon fill="#191970" stroke="#191970" points="542.2418,-135.8076 550.0358,-128.6311 539.4675,-129.3808 542.2418,-135.8076"/>
</g>
<!-- Node19&#45;&gt;Node6 -->
<g id="edge34" class="edge">
<title>Node19&#45;&gt;Node6</title>
<path fill="none" stroke="#191970" d="M499.7988,-167.9191C550.1907,-158.3429 613.972,-143.9362 636.1895,-129 653.3799,-117.4433 666.5212,-97.3875 674.4801,-82.7006"/>
<polygon fill="#191970" stroke="#191970" points="677.7165,-84.0586 679.1481,-73.5609 671.4826,-80.8746 677.7165,-84.0586"/>
</g>
<!-- Node19&#45;&gt;Node14 -->
<g id="edge36" class="edge">
<title>Node19&#45;&gt;Node14</title>
<path fill="none" stroke="#191970" d="M388.1118,-165.4327C356.032,-155.1944 313.0241,-141.4685 282.3981,-131.6942"/>
<polygon fill="#191970" stroke="#191970" points="283.111,-128.2479 272.5202,-128.5417 280.9826,-134.9165 283.111,-128.2479"/>
</g>
<!-- Node19&#45;&gt;Node15 -->
<g id="edge33" class="edge">
<title>Node19&#45;&gt;Node15</title>
<path fill="none" stroke="#191970" d="M391.2843,-165.3991C370.8367,-156.9925 346.5961,-144.8441 328.1895,-129 294.3337,-99.8576 267.9981,-53.6618 255.0352,-28.0824"/>
<polygon fill="#191970" stroke="#191970" points="258.0127,-26.2063 250.4541,-18.7822 251.7332,-29.2995 258.0127,-26.2063"/>
</g>
<!-- Node20 -->
<g id="node21" class="node">
<title>Node20</title>
<g id="a_node21"><a xlink:href="Data_8h.html" target="_top" xlink:title="BayesFilters/Data.h">
<polygon fill="#ffffff" stroke="#000000" points="393.5615,-110.5 393.5615,-128.5 496.8174,-128.5 496.8174,-110.5 393.5615,-110.5"/>
<text text-anchor="middle" x="445.1895" y="-116.5" font-family="Helvetica,sans-Serif" font-size="10.00" fill="#000000">BayesFilters/Data.h</text>
</a>
</g>
</g>
<!-- Node19&#45;&gt;Node20 -->
<g id="edge25" class="edge">
<title>Node19&#45;&gt;Node20</title>
<path fill="none" stroke="#191970" d="M435.2703,-165.2808C437.0019,-157.2888 439.1861,-147.2079 441.0638,-138.5414"/>
<polygon fill="#191970" stroke="#191970" points="444.5242,-139.0986 443.2212,-128.5842 437.683,-137.6163 444.5242,-139.0986"/>
</g>
<!-- Node26 -->
<g id="node27" class="node">
<title>Node26</title>
<polygon fill="#ffffff" stroke="#bfbfbf" points="336.7979,-110.5 336.7979,-128.5 375.5811,-128.5 375.5811,-110.5 336.7979,-110.5"/>
<text text-anchor="middle" x="356.1895" y="-116.5" font-family="Helvetica,sans-Serif" font-size="10.00" fill="#000000">utility</text>
</g>
<!-- Node19&#45;&gt;Node26 -->
<g id="edge35" class="edge">
<title>Node19&#45;&gt;Node26</title>
<path fill="none" stroke="#191970" d="M414.1785,-165.2808C402.593,-156.1344 387.542,-144.252 375.6772,-134.8851"/>
<polygon fill="#191970" stroke="#191970" points="377.7137,-132.0336 367.6961,-128.5842 373.3762,-137.5278 377.7137,-132.0336"/>
</g>
<!-- Node21 -->
<g id="node22" class="node">
<title>Node21</title>
<g id="a_node22"><a xlink:href="any_8h.html" target="_top" xlink:title="BayesFilters/any.h">
<polygon fill="#ffffff" stroke="#000000" points="346.4302,-55.5 346.4302,-73.5 443.9487,-73.5 443.9487,-55.5 346.4302,-55.5"/>
<text text-anchor="middle" x="395.1895" y="-61.5" font-family="Helvetica,sans-Serif" font-size="10.00" fill="#000000">BayesFilters/any.h</text>
</a>
</g>
</g>
<!-- Node20&#45;&gt;Node21 -->
<g id="edge26" class="edge">
<title>Node20&#45;&gt;Node21</title>
<path fill="none" stroke="#191970" d="M436.933,-110.4179C429.7387,-102.5041 419.1206,-90.8243 410.3941,-81.2251"/>
<polygon fill="#191970" stroke="#191970" points="412.9419,-78.8245 403.6253,-73.7795 407.7623,-83.5332 412.9419,-78.8245"/>
</g>
<!-- Node21&#45;&gt;Node15 -->
<g id="edge28" class="edge">
<title>Node21&#45;&gt;Node15</title>
<path fill="none" stroke="#191970" d="M370.5851,-55.4179C345.9974,-46.3419 307.9901,-32.3123 280.4562,-22.1488"/>
<polygon fill="#191970" stroke="#191970" points="281.4236,-18.7751 270.8303,-18.5956 278.9996,-25.342 281.4236,-18.7751"/>
</g>
<!-- Node22 -->
<g id="node23" class="node">
<title>Node22</title>
<polygon fill="#ffffff" stroke="#bfbfbf" points="290.6255,-.5 290.6255,-18.5 347.7534,-18.5 347.7534,-.5 290.6255,-.5"/>
<text text-anchor="middle" x="319.1895" y="-6.5" font-family="Helvetica,sans-Serif" font-size="10.00" fill="#000000">algorithm</text>
</g>
<!-- Node21&#45;&gt;Node22 -->
<g id="edge27" class="edge">
<title>Node21&#45;&gt;Node22</title>
<path fill="none" stroke="#191970" d="M382.6396,-55.4179C371.0883,-47.0584 353.7302,-34.4966 340.0879,-24.6239"/>
<polygon fill="#191970" stroke="#191970" points="341.9111,-21.6229 331.758,-18.5956 337.8072,-27.2938 341.9111,-21.6229"/>
</g>
<!-- Node23 -->
<g id="node24" class="node">
<title>Node23</title>
<polygon fill="#ffffff" stroke="#bfbfbf" points="365.7881,-.5 365.7881,-18.5 424.5908,-18.5 424.5908,-.5 365.7881,-.5"/>
<text text-anchor="middle" x="395.1895" y="-6.5" font-family="Helvetica,sans-Serif" font-size="10.00" fill="#000000">stdexcept</text>
</g>
<!-- Node21&#45;&gt;Node23 -->
<g id="edge29" class="edge">
<title>Node21&#45;&gt;Node23</title>
<path fill="none" stroke="#191970" d="M395.1895,-55.4179C395.1895,-48.2164 395.1895,-37.8962 395.1895,-28.8632"/>
<polygon fill="#191970" stroke="#191970" points="398.6896,-28.7794 395.1895,-18.7795 391.6896,-28.7795 398.6896,-28.7794"/>
</g>
<!-- Node24 -->
<g id="node25" class="node">
<title>Node24</title>
<polygon fill="#ffffff" stroke="#bfbfbf" points="442.6772,-.5 442.6772,-18.5 493.7017,-18.5 493.7017,-.5 442.6772,-.5"/>
<text text-anchor="middle" x="468.1895" y="-6.5" font-family="Helvetica,sans-Serif" font-size="10.00" fill="#000000">typeinfo</text>
</g>
<!-- Node21&#45;&gt;Node24 -->
<g id="edge30" class="edge">
<title>Node21&#45;&gt;Node24</title>
<path fill="none" stroke="#191970" d="M407.2439,-55.4179C418.2728,-47.1084 434.8126,-34.6469 447.8801,-24.8015"/>
<polygon fill="#191970" stroke="#191970" points="449.9923,-27.5924 455.8731,-18.7795 445.7801,-22.0016 449.9923,-27.5924"/>
</g>
<!-- Node25 -->
<g id="node26" class="node">
<title>Node25</title>
<polygon fill="#ffffff" stroke="#bfbfbf" points="512.123,-.5 512.123,-18.5 574.2559,-18.5 574.2559,-.5 512.123,-.5"/>
<text text-anchor="middle" x="543.1895" y="-6.5" font-family="Helvetica,sans-Serif" font-size="10.00" fill="#000000">type_traits</text>
</g>
<!-- Node21&#45;&gt;Node25 -->
<g id="edge31" class="edge">
<title>Node21&#45;&gt;Node25</title>
<path fill="none" stroke="#191970" d="M419.6286,-55.4179C444.0514,-46.3419 481.8036,-32.3123 509.1526,-22.1488"/>
<polygon fill="#191970" stroke="#191970" points="510.5595,-25.3599 518.714,-18.5956 508.1211,-18.7984 510.5595,-25.3599"/>
</g>
</g>
</svg>
        <g id="navigator" transform="translate(0 0)" fill="#404254">
                <rect fill="#f2f5e9" fill-opacity="0.5" stroke="#606060" stroke-width=".5" x="0" y="0" width="60" height="60"/>
                <use id="zoomplus" xlink:href="#zoomPlus" x="17" y="9" onmousedown="handleZoom(evt,'in')"/>
                <use id="zoomminus" xlink:href="#zoomMin" x="42" y="9" onmousedown="handleZoom(evt,'out')"/>
                <use id="reset" xlink:href="#resetDef" x="30" y="36" onmousedown="handleReset()"/>
                <g id="arrowUp" xlink:href="#dirArrow" transform="translate(30 24)" onmousedown="handlePan(0,-1)">
                  <use xlink:href="#rim" fill="#404040">
                        <set attributeName="fill" to="#808080" begin="arrowUp.mouseover" end="arrowUp.mouseout"/>
                  </use>
                  <path fill="none" stroke="white" stroke-width="1.5" d="M0,-3.0v7 M-2.5,-0.5L0,-3.0L2.5,-0.5"/>
                </g>
                <g id="arrowRight" xlink:href="#dirArrow" transform="rotate(90) translate(36 -43)" onmousedown="handlePan(1,0)">
                  <use xlink:href="#rim" fill="#404040">
                        <set attributeName="fill" to="#808080" begin="arrowRight.mouseover" end="arrowRight.mouseout"/>
                  </use>
                  <path fill="none" stroke="white" stroke-width="1.5" d="M0,-3.0v7 M-2.5,-0.5L0,-3.0L2.5,-0.5"/>
                </g>
                <g id="arrowDown" xlink:href="#dirArrow" transform="rotate(180) translate(-30 -48)" onmousedown="handlePan(0,1)">
                  <use xlink:href="#rim" fill="#404040">
                        <set attributeName="fill" to="#808080" begin="arrowDown.mouseover" end="arrowDown.mouseout"/>
                  </use>
                  <path fill="none" stroke="white" stroke-width="1.5" d="M0,-3.0v7 M-2.5,-0.5L0,-3.0L2.5,-0.5"/>
                </g>
                <g id="arrowLeft" xlink:href="#dirArrow" transform="rotate(270) translate(-36 17)" onmousedown="handlePan(-1,0)">
                  <use xlink:href="#rim" fill="#404040">
                        <set attributeName="fill" to="#808080" begin="arrowLeft.mouseover" end="arrowLeft.mouseout"/>
                  </use>
                  <path fill="none" stroke="white" stroke-width="1.5" d="M0,-3.0v7 M-2.5,-0.5L0,-3.0L2.5,-0.5"/>
                </g>
        </g>
        <svg viewBox="0 0 15 15" width="100%" height="30px" preserveAspectRatio="xMaxYMin meet">
         <g id="arrow_out" transform="scale(0.3 0.3)">
          <a xlink:href="GaussianFilter_8cpp__incl_org.svg" target="_base">
           <rect id="button" ry="5" rx="5" y="6" x="6" height="38" width="38"
                fill="#f2f5e9" fill-opacity="0.5" stroke="#606060" stroke-width="1.0"/>
           <path id="arrow"
             d="M 11.500037,31.436501 C 11.940474,20.09759 22.043105,11.32322 32.158766,21.979434 L 37.068811,17.246167 C 37.068811,17.246167 37.088388,32 37.088388,32 L 22.160133,31.978069 C 22.160133,31.978069 26.997745,27.140456 26.997745,27.140456 C 18.528582,18.264221 13.291696,25.230495 11.500037,31.436501 z"
             style="fill:#404040;"/>
          </a>
         </g>
        </svg>
</svg>
