<?xml version="1.0" encoding="UTF-8" standalone="no"?>
<!DOCTYPE svg PUBLIC "-//W3C//DTD SVG 1.1//EN"
 "http://www.w3.org/Graphics/SVG/1.1/DTD/svg11.dtd">
<!-- Generated by graphviz version 2.40.1 (20161225.0304)
 -->
<!-- Title: /Users/Claudio/GitHub/bayes&#45;filters&#45;lib/src/BayesFilters/include/BayesFilters/GaussianCorrection.h Pages: 1 -->
<svg width="730pt" height="287pt"
 viewBox="0.00 0.00 730.15 287.00" xmlns="http://www.w3.org/2000/svg" xmlns:xlink="http://www.w3.org/1999/xlink">
<g id="graph0" class="graph" transform="scale(1 1) rotate(0) translate(4 283)">
<title>/Users/Claudio/GitHub/bayes&#45;filters&#45;lib/src/BayesFilters/include/BayesFilters/GaussianCorrection.h</title>
<polygon fill="#ffffff" stroke="transparent" points="-4,4 -4,-283 726.145,-283 726.145,4 -4,4"/>
<!-- Node0 -->
<g id="node1" class="node">
<title>Node0</title>
<polygon fill="#bfbfbf" stroke="#000000" points="102.5542,-230.5 102.5542,-278.5 268.6079,-278.5 268.6079,-230.5 102.5542,-230.5"/>
<text text-anchor="start" x="110.5542" y="-266.5" font-family="Helvetica,sans-Serif" font-size="10.00" fill="#000000">/Users/Claudio/GitHub</text>
<text text-anchor="start" x="110.5542" y="-256.5" font-family="Helvetica,sans-Serif" font-size="10.00" fill="#000000">/bayes&#45;filters&#45;lib/src</text>
<text text-anchor="start" x="110.5542" y="-246.5" font-family="Helvetica,sans-Serif" font-size="10.00" fill="#000000">/BayesFilters/include/BayesFilters</text>
<text text-anchor="middle" x="185.5811" y="-236.5" font-family="Helvetica,sans-Serif" font-size="10.00" fill="#000000">/GaussianCorrection.h</text>
</g>
<!-- Node1 -->
<g id="node2" class="node">
<title>Node1</title>
<g id="a_node2"><a xlink:href="GaussianMixture_8h.html" target="_top" xlink:title="BayesFilters/GaussianMixture.h">
<polygon fill="#ffffff" stroke="#000000" points="0,-170.5 0,-188.5 157.1621,-188.5 157.1621,-170.5 0,-170.5"/>
<text text-anchor="middle" x="78.5811" y="-176.5" font-family="Helvetica,sans-Serif" font-size="10.00" fill="#000000">BayesFilters/GaussianMixture.h</text>
</a>
</g>
</g>
<!-- Node0&#45;&gt;Node1 -->
<g id="edge1" class="edge">
<title>Node0&#45;&gt;Node1</title>
<path fill="none" stroke="#191970" d="M151.1366,-230.3567C134.3399,-218.5833 114.6607,-204.7894 100.0381,-194.54"/>
<polygon fill="#191970" stroke="#191970" points="101.8555,-191.5397 91.6579,-188.666 97.8377,-197.2718 101.8555,-191.5397"/>
</g>
<!-- Node3 -->
<g id="node4" class="node">
<title>Node3</title>
<polygon fill="#ffffff" stroke="#bfbfbf" points="77.9507,-110.5 77.9507,-128.5 151.2114,-128.5 151.2114,-110.5 77.9507,-110.5"/>
<text text-anchor="middle" x="114.5811" y="-116.5" font-family="Helvetica,sans-Serif" font-size="10.00" fill="#000000">Eigen/Dense</text>
</g>
<!-- Node0&#45;&gt;Node3 -->
<g id="edge21" class="edge">
<title>Node0&#45;&gt;Node3</title>
<path fill="none" stroke="#191970" d="M184.572,-230.2067C182.8461,-211.3004 178.3166,-185.0029 166.5811,-165 159.5623,-153.0368 148.2759,-142.5983 138.0087,-134.7477"/>
<polygon fill="#191970" stroke="#191970" points="139.8983,-131.7952 129.74,-128.7852 135.8041,-137.4731 139.8983,-131.7952"/>
</g>
<!-- Node4 -->
<g id="node5" class="node">
<title>Node4</title>
<g id="a_node5"><a xlink:href="MeasurementModel_8h.html" target="_top" xlink:title="BayesFilters/Measurement\lModel.h">
<polygon fill="#ffffff" stroke="#000000" points="242.1157,-165.5 242.1157,-193.5 377.0464,-193.5 377.0464,-165.5 242.1157,-165.5"/>
<text text-anchor="start" x="250.1157" y="-181.5" font-family="Helvetica,sans-Serif" font-size="10.00" fill="#000000">BayesFilters/Measurement</text>
<text text-anchor="middle" x="309.5811" y="-171.5" font-family="Helvetica,sans-Serif" font-size="10.00" fill="#000000">Model.h</text>
</a>
</g>
</g>
<!-- Node0&#45;&gt;Node4 -->
<g id="edge4" class="edge">
<title>Node0&#45;&gt;Node4</title>
<path fill="none" stroke="#191970" d="M225.498,-230.3567C242.3061,-220.1905 261.6051,-208.5177 277.4711,-198.9214"/>
<polygon fill="#191970" stroke="#191970" points="279.626,-201.7084 286.3713,-193.5382 276.0033,-195.7188 279.626,-201.7084"/>
</g>
<!-- Node2 -->
<g id="node3" class="node">
<title>Node2</title>
<polygon fill="#ffffff" stroke="#bfbfbf" points="53.9653,-55.5 53.9653,-73.5 97.1968,-73.5 97.1968,-55.5 53.9653,-55.5"/>
<text text-anchor="middle" x="75.5811" y="-61.5" font-family="Helvetica,sans-Serif" font-size="10.00" fill="#000000">vector</text>
</g>
<!-- Node1&#45;&gt;Node2 -->
<g id="edge2" class="edge">
<title>Node1&#45;&gt;Node2</title>
<path fill="none" stroke="#191970" d="M76.189,-170.2735C73.7132,-160.2101 70.0115,-143.5877 68.5811,-129 67.757,-120.5959 67.9372,-118.4199 68.5811,-110 69.2514,-101.2341 70.6381,-91.6007 72.0018,-83.4637"/>
<polygon fill="#191970" stroke="#191970" points="75.4654,-83.9769 73.7776,-73.5174 68.5744,-82.7466 75.4654,-83.9769"/>
</g>
<!-- Node1&#45;&gt;Node3 -->
<g id="edge3" class="edge">
<title>Node1&#45;&gt;Node3</title>
<path fill="none" stroke="#191970" d="M84.0487,-170.3873C89.2821,-161.665 97.3213,-148.2663 103.837,-137.4067"/>
<polygon fill="#191970" stroke="#191970" points="106.9182,-139.0742 109.062,-128.6985 100.9157,-135.4727 106.9182,-139.0742"/>
</g>
<!-- Node4&#45;&gt;Node3 -->
<g id="edge20" class="edge">
<title>Node4&#45;&gt;Node3</title>
<path fill="none" stroke="#191970" d="M263.8622,-165.4327C230.4433,-155.1499 185.5906,-141.3491 153.7987,-131.567"/>
<polygon fill="#191970" stroke="#191970" points="154.5538,-128.1374 143.9667,-128.5417 152.4951,-134.8279 154.5538,-128.1374"/>
</g>
<!-- Node5 -->
<g id="node6" class="node">
<title>Node5</title>
<g id="a_node6"><a xlink:href="Data_8h.html" target="_top" xlink:title="BayesFilters/Data.h">
<polygon fill="#ffffff" stroke="#000000" points="464.9531,-110.5 464.9531,-128.5 568.209,-128.5 568.209,-110.5 464.9531,-110.5"/>
<text text-anchor="middle" x="516.5811" y="-116.5" font-family="Helvetica,sans-Serif" font-size="10.00" fill="#000000">BayesFilters/Data.h</text>
</a>
</g>
</g>
<!-- Node4&#45;&gt;Node5 -->
<g id="edge5" class="edge">
<title>Node4&#45;&gt;Node5</title>
<path fill="none" stroke="#191970" d="M358.1134,-165.4327C393.7424,-155.1054 441.6142,-141.2295 475.3875,-131.4402"/>
<polygon fill="#191970" stroke="#191970" points="476.7568,-134.6874 485.3871,-128.5417 474.808,-127.9641 476.7568,-134.6874"/>
</g>
<!-- Node8 -->
<g id="node9" class="node">
<title>Node8</title>
<polygon fill="#ffffff" stroke="#bfbfbf" points="368.5244,-.5 368.5244,-18.5 420.6377,-18.5 420.6377,-.5 368.5244,-.5"/>
<text text-anchor="middle" x="394.5811" y="-6.5" font-family="Helvetica,sans-Serif" font-size="10.00" fill="#000000">memory</text>
</g>
<!-- Node4&#45;&gt;Node8 -->
<g id="edge17" class="edge">
<title>Node4&#45;&gt;Node8</title>
<path fill="none" stroke="#191970" d="M342.9045,-165.432C358.2533,-157.1539 375.1242,-145.1092 384.5811,-129 402.9524,-97.7054 400.9424,-53.6268 397.7886,-28.681"/>
<polygon fill="#191970" stroke="#191970" points="401.2366,-28.0696 396.3282,-18.6803 394.31,-29.0812 401.2366,-28.0696"/>
</g>
<!-- Node12 -->
<g id="node13" class="node">
<title>Node12</title>
<g id="a_node13"><a xlink:href="Logger_8h.html" target="_top" xlink:title="BayesFilters/Logger.h">
<polygon fill="#ffffff" stroke="#000000" points="169.2192,-110.5 169.2192,-128.5 281.9429,-128.5 281.9429,-110.5 169.2192,-110.5"/>
<text text-anchor="middle" x="225.5811" y="-116.5" font-family="Helvetica,sans-Serif" font-size="10.00" fill="#000000">BayesFilters/Logger.h</text>
</a>
</g>
</g>
<!-- Node4&#45;&gt;Node12 -->
<g id="edge12" class="edge">
<title>Node4&#45;&gt;Node12</title>
<path fill="none" stroke="#191970" d="M289.6742,-165.2808C276.7448,-156.0456 259.9105,-144.021 246.7392,-134.613"/>
<polygon fill="#191970" stroke="#191970" points="248.4706,-131.5485 238.2989,-128.5842 244.4019,-137.2447 248.4706,-131.5485"/>
</g>
<!-- Node15 -->
<g id="node16" class="node">
<title>Node15</title>
<polygon fill="#ffffff" stroke="#bfbfbf" points="280.3545,-55.5 280.3545,-73.5 320.8076,-73.5 320.8076,-55.5 280.3545,-55.5"/>
<text text-anchor="middle" x="300.5811" y="-61.5" font-family="Helvetica,sans-Serif" font-size="10.00" fill="#000000">string</text>
</g>
<!-- Node4&#45;&gt;Node15 -->
<g id="edge18" class="edge">
<title>Node4&#45;&gt;Node15</title>
<path fill="none" stroke="#191970" d="M308.4775,-165.3987C306.8793,-144.9779 303.9148,-107.0975 302.1078,-84.0089"/>
<polygon fill="#191970" stroke="#191970" points="305.5729,-83.425 301.3033,-73.7286 298.5943,-83.9713 305.5729,-83.425"/>
</g>
<!-- Node16 -->
<g id="node17" class="node">
<title>Node16</title>
<polygon fill="#ffffff" stroke="#bfbfbf" points="337.1895,-110.5 337.1895,-128.5 375.9727,-128.5 375.9727,-110.5 337.1895,-110.5"/>
<text text-anchor="middle" x="356.5811" y="-116.5" font-family="Helvetica,sans-Serif" font-size="10.00" fill="#000000">utility</text>
</g>
<!-- Node4&#45;&gt;Node16 -->
<g id="edge19" class="edge">
<title>Node4&#45;&gt;Node16</title>
<path fill="none" stroke="#191970" d="M320.7194,-165.2808C327.4668,-156.6672 336.1148,-145.6271 343.2279,-136.5466"/>
<polygon fill="#191970" stroke="#191970" points="346.0538,-138.6148 349.4651,-128.5842 340.5431,-134.2982 346.0538,-138.6148"/>
</g>
<!-- Node6 -->
<g id="node7" class="node">
<title>Node6</title>
<g id="a_node7"><a xlink:href="any_8h.html" target="_top" xlink:title="BayesFilters/any.h">
<polygon fill="#ffffff" stroke="#000000" points="483.8218,-55.5 483.8218,-73.5 581.3403,-73.5 581.3403,-55.5 483.8218,-55.5"/>
<text text-anchor="middle" x="532.5811" y="-61.5" font-family="Helvetica,sans-Serif" font-size="10.00" fill="#000000">BayesFilters/any.h</text>
</a>
</g>
</g>
<!-- Node5&#45;&gt;Node6 -->
<g id="edge6" class="edge">
<title>Node5&#45;&gt;Node6</title>
<path fill="none" stroke="#191970" d="M519.2231,-110.4179C521.3411,-103.1372 524.3864,-92.669 527.0346,-83.5659"/>
<polygon fill="#191970" stroke="#191970" points="530.4489,-84.3591 529.8816,-73.7795 523.7275,-82.4037 530.4489,-84.3591"/>
</g>
<!-- Node7 -->
<g id="node8" class="node">
<title>Node7</title>
<polygon fill="#ffffff" stroke="#bfbfbf" points="665.0171,-.5 665.0171,-18.5 722.145,-18.5 722.145,-.5 665.0171,-.5"/>
<text text-anchor="middle" x="693.5811" y="-6.5" font-family="Helvetica,sans-Serif" font-size="10.00" fill="#000000">algorithm</text>
</g>
<!-- Node6&#45;&gt;Node7 -->
<g id="edge7" class="edge">
<title>Node6&#45;&gt;Node7</title>
<path fill="none" stroke="#191970" d="M559.1669,-55.4179C586.0482,-46.2348 627.7738,-31.9807 657.6023,-21.7909"/>
<polygon fill="#191970" stroke="#191970" points="658.8917,-25.0491 667.2233,-18.5042 656.6287,-18.4249 658.8917,-25.0491"/>
</g>
<!-- Node6&#45;&gt;Node8 -->
<g id="edge8" class="edge">
<title>Node6&#45;&gt;Node8</title>
<path fill="none" stroke="#191970" d="M509.7932,-55.4179C487.2204,-46.4215 452.4358,-32.5581 426.9914,-22.4172"/>
<polygon fill="#191970" stroke="#191970" points="427.988,-19.0467 417.4028,-18.5956 425.3964,-25.5493 427.988,-19.0467"/>
</g>
<!-- Node9 -->
<g id="node10" class="node">
<title>Node9</title>
<polygon fill="#ffffff" stroke="#bfbfbf" points="438.1797,-.5 438.1797,-18.5 496.9824,-18.5 496.9824,-.5 438.1797,-.5"/>
<text text-anchor="middle" x="467.5811" y="-6.5" font-family="Helvetica,sans-Serif" font-size="10.00" fill="#000000">stdexcept</text>
</g>
<!-- Node6&#45;&gt;Node9 -->
<g id="edge9" class="edge">
<title>Node6&#45;&gt;Node9</title>
<path fill="none" stroke="#191970" d="M521.8476,-55.4179C512.2144,-47.2667 497.8594,-35.1201 486.3329,-25.3669"/>
<polygon fill="#191970" stroke="#191970" points="488.4424,-22.5671 478.5477,-18.7795 483.9208,-27.9108 488.4424,-22.5671"/>
</g>
<!-- Node10 -->
<g id="node11" class="node">
<title>Node10</title>
<polygon fill="#ffffff" stroke="#bfbfbf" points="515.0688,-.5 515.0688,-18.5 566.0933,-18.5 566.0933,-.5 515.0688,-.5"/>
<text text-anchor="middle" x="540.5811" y="-6.5" font-family="Helvetica,sans-Serif" font-size="10.00" fill="#000000">typeinfo</text>
</g>
<!-- Node6&#45;&gt;Node10 -->
<g id="edge10" class="edge">
<title>Node6&#45;&gt;Node10</title>
<path fill="none" stroke="#191970" d="M533.9021,-55.4179C534.9496,-48.2164 536.4507,-37.8962 537.7646,-28.8632"/>
<polygon fill="#191970" stroke="#191970" points="541.2554,-29.1791 539.2313,-18.7795 534.3283,-28.1715 541.2554,-29.1791"/>
</g>
<!-- Node11 -->
<g id="node12" class="node">
<title>Node11</title>
<polygon fill="#ffffff" stroke="#bfbfbf" points="584.5146,-.5 584.5146,-18.5 646.6475,-18.5 646.6475,-.5 584.5146,-.5"/>
<text text-anchor="middle" x="615.5811" y="-6.5" font-family="Helvetica,sans-Serif" font-size="10.00" fill="#000000">type_traits</text>
</g>
<!-- Node6&#45;&gt;Node11 -->
<g id="edge11" class="edge">
<title>Node6&#45;&gt;Node11</title>
<path fill="none" stroke="#191970" d="M546.2868,-55.4179C559.0222,-46.9788 578.2205,-34.257 593.1823,-24.3426"/>
<polygon fill="#191970" stroke="#191970" points="595.4523,-27.037 601.8549,-18.5956 591.5856,-21.2019 595.4523,-27.037"/>
</g>
<!-- Node12&#45;&gt;Node2 -->
<g id="edge16" class="edge">
<title>Node12&#45;&gt;Node2</title>
<path fill="none" stroke="#191970" d="M200.8116,-110.4179C175.1695,-101.0158 135.0296,-86.2978 107.1321,-76.0687"/>
<polygon fill="#191970" stroke="#191970" points="108.0512,-72.6779 97.4575,-72.5214 105.6414,-79.2501 108.0512,-72.6779"/>
</g>
<!-- Node13 -->
<g id="node14" class="node">
<title>Node13</title>
<polygon fill="#ffffff" stroke="#bfbfbf" points="135.9111,-55.5 135.9111,-73.5 185.251,-73.5 185.251,-55.5 135.9111,-55.5"/>
<text text-anchor="middle" x="160.5811" y="-61.5" font-family="Helvetica,sans-Serif" font-size="10.00" fill="#000000">fstream</text>
</g>
<!-- Node12&#45;&gt;Node13 -->
<g id="edge13" class="edge">
<title>Node12&#45;&gt;Node13</title>
<path fill="none" stroke="#191970" d="M214.8476,-110.4179C205.2144,-102.2667 190.8594,-90.1201 179.3329,-80.3669"/>
<polygon fill="#191970" stroke="#191970" points="181.4424,-77.5671 171.5477,-73.7795 176.9208,-82.9108 181.4424,-77.5671"/>
</g>
<!-- Node14 -->
<g id="node15" class="node">
<title>Node14</title>
<polygon fill="#ffffff" stroke="#bfbfbf" points="203.4087,-55.5 203.4087,-73.5 257.7534,-73.5 257.7534,-55.5 203.4087,-55.5"/>
<text text-anchor="middle" x="230.5811" y="-61.5" font-family="Helvetica,sans-Serif" font-size="10.00" fill="#000000">iostream</text>
</g>
<!-- Node12&#45;&gt;Node14 -->
<g id="edge14" class="edge">
<title>Node12&#45;&gt;Node14</title>
<path fill="none" stroke="#191970" d="M226.4067,-110.4179C227.0614,-103.2164 227.9996,-92.8962 228.8208,-83.8632"/>
<polygon fill="#191970" stroke="#191970" points="232.3176,-84.0553 229.7375,-73.7795 225.3464,-83.4215 232.3176,-84.0553"/>
</g>
<!-- Node12&#45;&gt;Node15 -->
<g id="edge15" class="edge">
<title>Node12&#45;&gt;Node15</title>
<path fill="none" stroke="#191970" d="M237.9658,-110.4179C249.3651,-102.0584 266.4947,-89.4966 279.9575,-79.6239"/>
<polygon fill="#191970" stroke="#191970" points="282.1836,-82.3317 288.1779,-73.5956 278.0441,-76.6869 282.1836,-82.3317"/>
</g>
</g>
</svg>
