<?xml version="1.0" encoding="UTF-8" standalone="no"?>
<!DOCTYPE svg PUBLIC "-//W3C//DTD SVG 1.1//EN"
 "http://www.w3.org/Graphics/SVG/1.1/DTD/svg11.dtd">
<!-- Generated by graphviz version 2.40.1 (20161225.0304)
 -->
<!-- Title: /Users/Claudio/GitHub/bayes&#45;filters&#45;lib/src/BayesFilters/include/BayesFilters/Gaussian.h Pages: 1 -->
<svg width="535pt" height="217pt"
 viewBox="0.00 0.00 534.66 217.00" xmlns="http://www.w3.org/2000/svg" xmlns:xlink="http://www.w3.org/1999/xlink">
<g id="graph0" class="graph" transform="scale(1 1) rotate(0) translate(4 213)">
<title>/Users/Claudio/GitHub/bayes&#45;filters&#45;lib/src/BayesFilters/include/BayesFilters/Gaussian.h</title>
<polygon fill="#ffffff" stroke="transparent" points="-4,4 -4,-213 530.6646,-213 530.6646,4 -4,4"/>
<!-- Node6 -->
<g id="node1" class="node">
<title>Node6</title>
<polygon fill="#bfbfbf" stroke="#000000" points="188.7241,-160.5 188.7241,-208.5 354.7778,-208.5 354.7778,-160.5 188.7241,-160.5"/>
<text text-anchor="start" x="196.7241" y="-196.5" font-family="Helvetica,sans-Serif" font-size="10.00" fill="#000000">/Users/Claudio/GitHub</text>
<text text-anchor="start" x="196.7241" y="-186.5" font-family="Helvetica,sans-Serif" font-size="10.00" fill="#000000">/bayes&#45;filters&#45;lib/src</text>
<text text-anchor="start" x="196.7241" y="-176.5" font-family="Helvetica,sans-Serif" font-size="10.00" fill="#000000">/BayesFilters/include/BayesFilters</text>
<text text-anchor="middle" x="271.751" y="-166.5" font-family="Helvetica,sans-Serif" font-size="10.00" fill="#000000">/Gaussian.h</text>
</g>
<!-- Node7 -->
<g id="node2" class="node">
<title>Node7</title>
<g id="a_node2"><a xlink:href="GaussianFilter_8h.html" target="_top" xlink:title="/Users/Claudio/GitHub\l/bayes&#45;filters&#45;lib/src\l/BayesFilters/include/BayesFilters\l/GaussianFilter.h">
<polygon fill="#ffffff" stroke="#000000" points="4.7241,-75.5 4.7241,-123.5 170.7778,-123.5 170.7778,-75.5 4.7241,-75.5"/>
<text text-anchor="start" x="12.7241" y="-111.5" font-family="Helvetica,sans-Serif" font-size="10.00" fill="#000000">/Users/Claudio/GitHub</text>
<text text-anchor="start" x="12.7241" y="-101.5" font-family="Helvetica,sans-Serif" font-size="10.00" fill="#000000">/bayes&#45;filters&#45;lib/src</text>
<text text-anchor="start" x="12.7241" y="-91.5" font-family="Helvetica,sans-Serif" font-size="10.00" fill="#000000">/BayesFilters/include/BayesFilters</text>
<text text-anchor="middle" x="87.751" y="-81.5" font-family="Helvetica,sans-Serif" font-size="10.00" fill="#000000">/GaussianFilter.h</text>
</a>
</g>
</g>
<!-- Node6&#45;&gt;Node7 -->
<g id="edge1" class="edge">
<title>Node6&#45;&gt;Node7</title>
<path fill="none" stroke="#191970" d="M210.2501,-156.0893C187.4006,-145.5338 161.7209,-133.6709 139.7977,-123.5433"/>
<polygon fill="#191970" stroke="#191970" points="208.9702,-159.3534 219.5161,-160.3698 211.9058,-152.9987 208.9702,-159.3534"/>
</g>
<!-- Node9 -->
<g id="node4" class="node">
<title>Node9</title>
<g id="a_node4"><a xlink:href="GaussianInitialization_8h.html" target="_top" xlink:title="/Users/Claudio/GitHub\l/bayes&#45;filters&#45;lib/src\l/BayesFilters/include/BayesFilters\l/GaussianInitialization.h">
<polygon fill="#ffffff" stroke="#000000" points="188.7241,-75.5 188.7241,-123.5 354.7778,-123.5 354.7778,-75.5 188.7241,-75.5"/>
<text text-anchor="start" x="196.7241" y="-111.5" font-family="Helvetica,sans-Serif" font-size="10.00" fill="#000000">/Users/Claudio/GitHub</text>
<text text-anchor="start" x="196.7241" y="-101.5" font-family="Helvetica,sans-Serif" font-size="10.00" fill="#000000">/bayes&#45;filters&#45;lib/src</text>
<text text-anchor="start" x="196.7241" y="-91.5" font-family="Helvetica,sans-Serif" font-size="10.00" fill="#000000">/BayesFilters/include/BayesFilters</text>
<text text-anchor="middle" x="271.751" y="-81.5" font-family="Helvetica,sans-Serif" font-size="10.00" fill="#000000">/GaussianInitialization.h</text>
</a>
</g>
</g>
<!-- Node6&#45;&gt;Node9 -->
<g id="edge3" class="edge">
<title>Node6&#45;&gt;Node9</title>
<path fill="none" stroke="#191970" d="M271.751,-150.2518C271.751,-141.3524 271.751,-131.951 271.751,-123.6906"/>
<polygon fill="#191970" stroke="#191970" points="268.2511,-150.3697 271.751,-160.3698 275.2511,-150.3698 268.2511,-150.3697"/>
</g>
<!-- Node10 -->
<g id="node5" class="node">
<title>Node10</title>
<g id="a_node5"><a xlink:href="Gaussian_8cpp.html" target="_top" xlink:title="/Users/Claudio/GitHub\l/bayes&#45;filters&#45;lib/src\l/BayesFilters/src/Gaussian.cpp">
<polygon fill="#ffffff" stroke="#000000" points="372.8374,-80.5 372.8374,-118.5 526.6646,-118.5 526.6646,-80.5 372.8374,-80.5"/>
<text text-anchor="start" x="380.8374" y="-106.5" font-family="Helvetica,sans-Serif" font-size="10.00" fill="#000000">/Users/Claudio/GitHub</text>
<text text-anchor="start" x="380.8374" y="-96.5" font-family="Helvetica,sans-Serif" font-size="10.00" fill="#000000">/bayes&#45;filters&#45;lib/src</text>
<text text-anchor="middle" x="449.751" y="-86.5" font-family="Helvetica,sans-Serif" font-size="10.00" fill="#000000">/BayesFilters/src/Gaussian.cpp</text>
</a>
</g>
</g>
<!-- Node6&#45;&gt;Node10 -->
<g id="edge4" class="edge">
<title>Node6&#45;&gt;Node10</title>
<path fill="none" stroke="#191970" d="M331.5915,-155.9245C357.3596,-143.6195 386.7941,-129.5637 409.8389,-118.5591"/>
<polygon fill="#191970" stroke="#191970" points="329.7982,-152.9022 322.2825,-160.3698 332.8147,-159.2189 329.7982,-152.9022"/>
</g>
<!-- Node8 -->
<g id="node3" class="node">
<title>Node8</title>
<g id="a_node3"><a xlink:href="GaussianFilter_8cpp.html" target="_top" xlink:title="/Users/Claudio/GitHub\l/bayes&#45;filters&#45;lib/src\l/BayesFilters/src/GaussianFilter.cpp">
<polygon fill="#ffffff" stroke="#000000" points="0,-.5 0,-38.5 175.502,-38.5 175.502,-.5 0,-.5"/>
<text text-anchor="start" x="8" y="-26.5" font-family="Helvetica,sans-Serif" font-size="10.00" fill="#000000">/Users/Claudio/GitHub</text>
<text text-anchor="start" x="8" y="-16.5" font-family="Helvetica,sans-Serif" font-size="10.00" fill="#000000">/bayes&#45;filters&#45;lib/src</text>
<text text-anchor="middle" x="87.751" y="-6.5" font-family="Helvetica,sans-Serif" font-size="10.00" fill="#000000">/BayesFilters/src/GaussianFilter.cpp</text>
</a>
</g>
</g>
<!-- Node7&#45;&gt;Node8 -->
<g id="edge2" class="edge">
<title>Node7&#45;&gt;Node8</title>
<path fill="none" stroke="#191970" d="M87.751,-65.4405C87.751,-56.2795 87.751,-46.6933 87.751,-38.662"/>
<polygon fill="#191970" stroke="#191970" points="84.2511,-65.4973 87.751,-75.4974 91.2511,-65.4974 84.2511,-65.4973"/>
</g>
</g>
</svg>
