<?xml version="1.0" encoding="UTF-8" standalone="no"?>
<!DOCTYPE svg PUBLIC "-//W3C//DTD SVG 1.1//EN"
 "http://www.w3.org/Graphics/SVG/1.1/DTD/svg11.dtd">
<!-- Generated by graphviz version 2.40.1 (20161225.0304)
 -->
<!-- Title: /Users/Claudio/GitHub/bayes&#45;filters&#45;lib/src/BayesFilters/include/BayesFilters/GaussianPrediction.h Pages: 1 -->
<svg width="962pt" height="217pt"
 viewBox="0.00 0.00 961.90 217.00" xmlns="http://www.w3.org/2000/svg" xmlns:xlink="http://www.w3.org/1999/xlink">
<g id="graph0" class="graph" transform="scale(1 1) rotate(0) translate(4 213)">
<title>/Users/Claudio/GitHub/bayes&#45;filters&#45;lib/src/BayesFilters/include/BayesFilters/GaussianPrediction.h</title>
<polygon fill="#ffffff" stroke="transparent" points="-4,4 -4,-213 957.8984,-213 957.8984,4 -4,4"/>
<!-- Node4 -->
<g id="node1" class="node">
<title>Node4</title>
<polygon fill="#bfbfbf" stroke="#000000" points="387.7241,-160.5 387.7241,-208.5 553.7778,-208.5 553.7778,-160.5 387.7241,-160.5"/>
<text text-anchor="start" x="395.7241" y="-196.5" font-family="Helvetica,sans-Serif" font-size="10.00" fill="#000000">/Users/Claudio/GitHub</text>
<text text-anchor="start" x="395.7241" y="-186.5" font-family="Helvetica,sans-Serif" font-size="10.00" fill="#000000">/bayes&#45;filters&#45;lib/src</text>
<text text-anchor="start" x="395.7241" y="-176.5" font-family="Helvetica,sans-Serif" font-size="10.00" fill="#000000">/BayesFilters/include/BayesFilters</text>
<text text-anchor="middle" x="470.751" y="-166.5" font-family="Helvetica,sans-Serif" font-size="10.00" fill="#000000">/GaussianPrediction.h</text>
</g>
<!-- Node5 -->
<g id="node2" class="node">
<title>Node5</title>
<g id="a_node2"><a xlink:href="GaussianFilter_8h.html" target="_top" xlink:title="/Users/Claudio/GitHub\l/bayes&#45;filters&#45;lib/src\l/BayesFilters/include/BayesFilters\l/GaussianFilter.h">
<polygon fill="#ffffff" stroke="#000000" points="11.7241,-75.5 11.7241,-123.5 177.7778,-123.5 177.7778,-75.5 11.7241,-75.5"/>
<text text-anchor="start" x="19.7241" y="-111.5" font-family="Helvetica,sans-Serif" font-size="10.00" fill="#000000">/Users/Claudio/GitHub</text>
<text text-anchor="start" x="19.7241" y="-101.5" font-family="Helvetica,sans-Serif" font-size="10.00" fill="#000000">/bayes&#45;filters&#45;lib/src</text>
<text text-anchor="start" x="19.7241" y="-91.5" font-family="Helvetica,sans-Serif" font-size="10.00" fill="#000000">/BayesFilters/include/BayesFilters</text>
<text text-anchor="middle" x="94.751" y="-81.5" font-family="Helvetica,sans-Serif" font-size="10.00" fill="#000000">/GaussianFilter.h</text>
</a>
</g>
</g>
<!-- Node4&#45;&gt;Node5 -->
<g id="edge1" class="edge">
<title>Node4&#45;&gt;Node5</title>
<path fill="none" stroke="#191970" d="M377.6134,-165.1276C323.2985,-153.6246 253.5295,-138.4958 191.751,-124 187.1853,-122.9287 182.5037,-121.8109 177.7814,-120.6682"/>
<polygon fill="#191970" stroke="#191970" points="377.0622,-168.5884 387.5699,-167.2323 378.51,-161.7397 377.0622,-168.5884"/>
</g>
<!-- Node7 -->
<g id="node4" class="node">
<title>Node7</title>
<g id="a_node4"><a xlink:href="GPFPrediction_8h.html" target="_top" xlink:title="/Users/Claudio/GitHub\l/bayes&#45;filters&#45;lib/src\l/BayesFilters/include/BayesFilters\l/GPFPrediction.h">
<polygon fill="#ffffff" stroke="#000000" points="200.7241,-75.5 200.7241,-123.5 366.7778,-123.5 366.7778,-75.5 200.7241,-75.5"/>
<text text-anchor="start" x="208.7241" y="-111.5" font-family="Helvetica,sans-Serif" font-size="10.00" fill="#000000">/Users/Claudio/GitHub</text>
<text text-anchor="start" x="208.7241" y="-101.5" font-family="Helvetica,sans-Serif" font-size="10.00" fill="#000000">/bayes&#45;filters&#45;lib/src</text>
<text text-anchor="start" x="208.7241" y="-91.5" font-family="Helvetica,sans-Serif" font-size="10.00" fill="#000000">/BayesFilters/include/BayesFilters</text>
<text text-anchor="middle" x="283.751" y="-81.5" font-family="Helvetica,sans-Serif" font-size="10.00" fill="#000000">/GPFPrediction.h</text>
</a>
</g>
</g>
<!-- Node4&#45;&gt;Node7 -->
<g id="edge3" class="edge">
<title>Node4&#45;&gt;Node7</title>
<path fill="none" stroke="#191970" d="M408.5568,-156.2299C385.2574,-145.6393 359.0259,-133.7159 336.6463,-123.5433"/>
<polygon fill="#191970" stroke="#191970" points="407.1125,-159.418 417.6645,-160.3698 410.0091,-153.0454 407.1125,-159.418"/>
</g>
<!-- Node9 -->
<g id="node6" class="node">
<title>Node9</title>
<g id="a_node6"><a xlink:href="KFPrediction_8h.html" target="_top" xlink:title="/Users/Claudio/GitHub\l/bayes&#45;filters&#45;lib/src\l/BayesFilters/include/BayesFilters\l/KFPrediction.h">
<polygon fill="#ffffff" stroke="#000000" points="387.7241,-75.5 387.7241,-123.5 553.7778,-123.5 553.7778,-75.5 387.7241,-75.5"/>
<text text-anchor="start" x="395.7241" y="-111.5" font-family="Helvetica,sans-Serif" font-size="10.00" fill="#000000">/Users/Claudio/GitHub</text>
<text text-anchor="start" x="395.7241" y="-101.5" font-family="Helvetica,sans-Serif" font-size="10.00" fill="#000000">/bayes&#45;filters&#45;lib/src</text>
<text text-anchor="start" x="395.7241" y="-91.5" font-family="Helvetica,sans-Serif" font-size="10.00" fill="#000000">/BayesFilters/include/BayesFilters</text>
<text text-anchor="middle" x="470.751" y="-81.5" font-family="Helvetica,sans-Serif" font-size="10.00" fill="#000000">/KFPrediction.h</text>
</a>
</g>
</g>
<!-- Node4&#45;&gt;Node9 -->
<g id="edge5" class="edge">
<title>Node4&#45;&gt;Node9</title>
<path fill="none" stroke="#191970" d="M470.751,-150.2518C470.751,-141.3524 470.751,-131.951 470.751,-123.6906"/>
<polygon fill="#191970" stroke="#191970" points="467.2511,-150.3697 470.751,-160.3698 474.2511,-150.3698 467.2511,-150.3697"/>
</g>
<!-- Node11 -->
<g id="node8" class="node">
<title>Node11</title>
<g id="a_node8"><a xlink:href="UKFPrediction_8h.html" target="_top" xlink:title="/Users/Claudio/GitHub\l/bayes&#45;filters&#45;lib/src\l/BayesFilters/include/BayesFilters\l/UKFPrediction.h">
<polygon fill="#ffffff" stroke="#000000" points="571.7241,-75.5 571.7241,-123.5 737.7778,-123.5 737.7778,-75.5 571.7241,-75.5"/>
<text text-anchor="start" x="579.7241" y="-111.5" font-family="Helvetica,sans-Serif" font-size="10.00" fill="#000000">/Users/Claudio/GitHub</text>
<text text-anchor="start" x="579.7241" y="-101.5" font-family="Helvetica,sans-Serif" font-size="10.00" fill="#000000">/bayes&#45;filters&#45;lib/src</text>
<text text-anchor="start" x="579.7241" y="-91.5" font-family="Helvetica,sans-Serif" font-size="10.00" fill="#000000">/BayesFilters/include/BayesFilters</text>
<text text-anchor="middle" x="654.751" y="-81.5" font-family="Helvetica,sans-Serif" font-size="10.00" fill="#000000">/UKFPrediction.h</text>
</a>
</g>
</g>
<!-- Node4&#45;&gt;Node11 -->
<g id="edge7" class="edge">
<title>Node4&#45;&gt;Node11</title>
<path fill="none" stroke="#191970" d="M532.2519,-156.0893C555.1014,-145.5338 580.7811,-133.6709 602.7042,-123.5433"/>
<polygon fill="#191970" stroke="#191970" points="530.5962,-152.9987 522.9858,-160.3698 533.5318,-159.3534 530.5962,-152.9987"/>
</g>
<!-- Node13 -->
<g id="node10" class="node">
<title>Node13</title>
<g id="a_node10"><a xlink:href="GaussianPrediction_8cpp.html" target="_top" xlink:title="/Users/Claudio/GitHub\l/bayes&#45;filters&#45;lib/src\l/BayesFilters/src/GaussianPrediction.cpp">
<polygon fill="#ffffff" stroke="#000000" points="755.6035,-80.5 755.6035,-118.5 953.8984,-118.5 953.8984,-80.5 755.6035,-80.5"/>
<text text-anchor="start" x="763.6035" y="-106.5" font-family="Helvetica,sans-Serif" font-size="10.00" fill="#000000">/Users/Claudio/GitHub</text>
<text text-anchor="start" x="763.6035" y="-96.5" font-family="Helvetica,sans-Serif" font-size="10.00" fill="#000000">/bayes&#45;filters&#45;lib/src</text>
<text text-anchor="middle" x="854.751" y="-86.5" font-family="Helvetica,sans-Serif" font-size="10.00" fill="#000000">/BayesFilters/src/GaussianPrediction.cpp</text>
</a>
</g>
</g>
<!-- Node4&#45;&gt;Node13 -->
<g id="edge9" class="edge">
<title>Node4&#45;&gt;Node13</title>
<path fill="none" stroke="#191970" d="M563.6383,-164.3154C617.1943,-152.6334 685.7901,-137.5958 746.751,-124 754.6324,-122.2422 762.8348,-120.4018 771.0406,-118.5531"/>
<polygon fill="#191970" stroke="#191970" points="562.8432,-160.9064 553.8184,-166.4565 564.3345,-167.7457 562.8432,-160.9064"/>
</g>
<!-- Node6 -->
<g id="node3" class="node">
<title>Node6</title>
<g id="a_node3"><a xlink:href="GaussianFilter_8cpp.html" target="_top" xlink:title="/Users/Claudio/GitHub\l/bayes&#45;filters&#45;lib/src\l/BayesFilters/src/GaussianFilter.cpp">
<polygon fill="#ffffff" stroke="#000000" points="0,-.5 0,-38.5 175.502,-38.5 175.502,-.5 0,-.5"/>
<text text-anchor="start" x="8" y="-26.5" font-family="Helvetica,sans-Serif" font-size="10.00" fill="#000000">/Users/Claudio/GitHub</text>
<text text-anchor="start" x="8" y="-16.5" font-family="Helvetica,sans-Serif" font-size="10.00" fill="#000000">/bayes&#45;filters&#45;lib/src</text>
<text text-anchor="middle" x="87.751" y="-6.5" font-family="Helvetica,sans-Serif" font-size="10.00" fill="#000000">/BayesFilters/src/GaussianFilter.cpp</text>
</a>
</g>
</g>
<!-- Node5&#45;&gt;Node6 -->
<g id="edge2" class="edge">
<title>Node5&#45;&gt;Node6</title>
<path fill="none" stroke="#191970" d="M91.7708,-65.4405C90.9692,-56.2795 90.1304,-46.6933 89.4277,-38.662"/>
<polygon fill="#191970" stroke="#191970" points="88.2923,-65.8405 92.6507,-75.4974 95.2657,-65.2303 88.2923,-65.8405"/>
</g>
<!-- Node8 -->
<g id="node5" class="node">
<title>Node8</title>
<g id="a_node5"><a xlink:href="GPFPrediction_8cpp.html" target="_top" xlink:title="/Users/Claudio/GitHub\l/bayes&#45;filters&#45;lib/src\l/BayesFilters/src/GPFPrediction.cpp">
<polygon fill="#ffffff" stroke="#000000" points="193.4482,-.5 193.4482,-38.5 370.0537,-38.5 370.0537,-.5 193.4482,-.5"/>
<text text-anchor="start" x="201.4482" y="-26.5" font-family="Helvetica,sans-Serif" font-size="10.00" fill="#000000">/Users/Claudio/GitHub</text>
<text text-anchor="start" x="201.4482" y="-16.5" font-family="Helvetica,sans-Serif" font-size="10.00" fill="#000000">/bayes&#45;filters&#45;lib/src</text>
<text text-anchor="middle" x="281.751" y="-6.5" font-family="Helvetica,sans-Serif" font-size="10.00" fill="#000000">/BayesFilters/src/GPFPrediction.cpp</text>
</a>
</g>
</g>
<!-- Node7&#45;&gt;Node8 -->
<g id="edge4" class="edge">
<title>Node7&#45;&gt;Node8</title>
<path fill="none" stroke="#191970" d="M282.8995,-65.4405C282.6705,-56.2795 282.4308,-46.6933 282.23,-38.662"/>
<polygon fill="#191970" stroke="#191970" points="279.402,-65.588 283.1509,-75.4974 286.3998,-65.413 279.402,-65.588"/>
</g>
<!-- Node10 -->
<g id="node7" class="node">
<title>Node10</title>
<g id="a_node7"><a xlink:href="KFPrediction_8cpp.html" target="_top" xlink:title="/Users/Claudio/GitHub\l/bayes&#45;filters&#45;lib/src\l/BayesFilters/src/KFPrediction.cpp">
<polygon fill="#ffffff" stroke="#000000" points="388.3374,-.5 388.3374,-38.5 557.1646,-38.5 557.1646,-.5 388.3374,-.5"/>
<text text-anchor="start" x="396.3374" y="-26.5" font-family="Helvetica,sans-Serif" font-size="10.00" fill="#000000">/Users/Claudio/GitHub</text>
<text text-anchor="start" x="396.3374" y="-16.5" font-family="Helvetica,sans-Serif" font-size="10.00" fill="#000000">/bayes&#45;filters&#45;lib/src</text>
<text text-anchor="middle" x="472.751" y="-6.5" font-family="Helvetica,sans-Serif" font-size="10.00" fill="#000000">/BayesFilters/src/KFPrediction.cpp</text>
</a>
</g>
</g>
<!-- Node9&#45;&gt;Node10 -->
<g id="edge6" class="edge">
<title>Node9&#45;&gt;Node10</title>
<path fill="none" stroke="#191970" d="M471.6025,-65.4405C471.8315,-56.2795 472.0711,-46.6933 472.2719,-38.662"/>
<polygon fill="#191970" stroke="#191970" points="468.1022,-65.413 471.351,-75.4974 475.1,-65.588 468.1022,-65.413"/>
</g>
<!-- Node12 -->
<g id="node9" class="node">
<title>Node12</title>
<g id="a_node9"><a xlink:href="UKFPrediction_8cpp.html" target="_top" xlink:title="/Users/Claudio/GitHub\l/bayes&#45;filters&#45;lib/src\l/BayesFilters/src/UKFPrediction.cpp">
<polygon fill="#ffffff" stroke="#000000" points="574.7266,-.5 574.7266,-38.5 750.7754,-38.5 750.7754,-.5 574.7266,-.5"/>
<text text-anchor="start" x="582.7266" y="-26.5" font-family="Helvetica,sans-Serif" font-size="10.00" fill="#000000">/Users/Claudio/GitHub</text>
<text text-anchor="start" x="582.7266" y="-16.5" font-family="Helvetica,sans-Serif" font-size="10.00" fill="#000000">/bayes&#45;filters&#45;lib/src</text>
<text text-anchor="middle" x="662.751" y="-6.5" font-family="Helvetica,sans-Serif" font-size="10.00" fill="#000000">/BayesFilters/src/UKFPrediction.cpp</text>
</a>
</g>
</g>
<!-- Node11&#45;&gt;Node12 -->
<g id="edge8" class="edge">
<title>Node11&#45;&gt;Node12</title>
<path fill="none" stroke="#191970" d="M658.1569,-65.4405C659.073,-56.2795 660.0317,-46.6933 660.8348,-38.662"/>
<polygon fill="#191970" stroke="#191970" points="654.6637,-65.1987 657.1512,-75.4974 661.629,-65.8953 654.6637,-65.1987"/>
</g>
</g>
</svg>
