<?xml version="1.0" encoding="UTF-8" standalone="no"?>
<!DOCTYPE svg PUBLIC "-//W3C//DTD SVG 1.1//EN"
 "http://www.w3.org/Graphics/SVG/1.1/DTD/svg11.dtd">
<!-- Generated by graphviz version 2.40.1 (20161225.0304)
 -->
<!-- Title: /Users/Claudio/GitHub/bayes&#45;filters&#45;lib/src/BayesFilters/include/BayesFilters/GaussianMixture.h Pages: 1 -->
<svg width="174pt" height="112pt"
 viewBox="0.00 0.00 174.05 112.00" xmlns="http://www.w3.org/2000/svg" xmlns:xlink="http://www.w3.org/1999/xlink">
<g id="graph0" class="graph" transform="scale(1 1) rotate(0) translate(4 108)">
<title>/Users/Claudio/GitHub/bayes&#45;filters&#45;lib/src/BayesFilters/include/BayesFilters/GaussianMixture.h</title>
<polygon fill="#ffffff" stroke="transparent" points="-4,4 -4,-108 170.0537,-108 170.0537,4 -4,4"/>
<!-- Node0 -->
<g id="node1" class="node">
<title>Node0</title>
<polygon fill="#bfbfbf" stroke="#000000" points="0,-55.5 0,-103.5 166.0537,-103.5 166.0537,-55.5 0,-55.5"/>
<text text-anchor="start" x="8" y="-91.5" font-family="Helvetica,sans-Serif" font-size="10.00" fill="#000000">/Users/Claudio/GitHub</text>
<text text-anchor="start" x="8" y="-81.5" font-family="Helvetica,sans-Serif" font-size="10.00" fill="#000000">/bayes&#45;filters&#45;lib/src</text>
<text text-anchor="start" x="8" y="-71.5" font-family="Helvetica,sans-Serif" font-size="10.00" fill="#000000">/BayesFilters/include/BayesFilters</text>
<text text-anchor="middle" x="83.0269" y="-61.5" font-family="Helvetica,sans-Serif" font-size="10.00" fill="#000000">/GaussianMixture.h</text>
</g>
<!-- Node1 -->
<g id="node2" class="node">
<title>Node1</title>
<polygon fill="#ffffff" stroke="#bfbfbf" points="23.4111,-.5 23.4111,-18.5 66.6426,-18.5 66.6426,-.5 23.4111,-.5"/>
<text text-anchor="middle" x="45.0269" y="-6.5" font-family="Helvetica,sans-Serif" font-size="10.00" fill="#000000">vector</text>
</g>
<!-- Node0&#45;&gt;Node1 -->
<g id="edge1" class="edge">
<title>Node0&#45;&gt;Node1</title>
<path fill="none" stroke="#191970" d="M69.9494,-55.41C65.0116,-46.314 59.4808,-36.1256 54.8862,-27.6619"/>
<polygon fill="#191970" stroke="#191970" points="57.8612,-25.8059 50.0142,-18.6872 51.7092,-29.1456 57.8612,-25.8059"/>
</g>
<!-- Node2 -->
<g id="node3" class="node">
<title>Node2</title>
<polygon fill="#ffffff" stroke="#bfbfbf" points="84.3965,-.5 84.3965,-18.5 157.6572,-18.5 157.6572,-.5 84.3965,-.5"/>
<text text-anchor="middle" x="121.0269" y="-6.5" font-family="Helvetica,sans-Serif" font-size="10.00" fill="#000000">Eigen/Dense</text>
</g>
<!-- Node0&#45;&gt;Node2 -->
<g id="edge2" class="edge">
<title>Node0&#45;&gt;Node2</title>
<path fill="none" stroke="#191970" d="M96.1043,-55.41C101.0421,-46.314 106.5729,-36.1256 111.1675,-27.6619"/>
<polygon fill="#191970" stroke="#191970" points="114.3445,-29.1456 116.0395,-18.6872 108.1925,-25.8059 114.3445,-29.1456"/>
</g>
</g>
</svg>
