<?xml version="1.0" encoding="UTF-8" standalone="no"?>
<!DOCTYPE svg PUBLIC "-//W3C//DTD SVG 1.1//EN"
 "http://www.w3.org/Graphics/SVG/1.1/DTD/svg11.dtd">
<!-- Generated by graphviz version 2.40.1 (20161225.0304)
 -->
<!-- Title: /Users/Claudio/GitHub/bayes&#45;filters&#45;lib/src/BayesFilters/include/BayesFilters/GaussianCorrection.h Pages: 1 -->
<svg width="1152pt" height="217pt"
 viewBox="0.00 0.00 1151.73 217.00" xmlns="http://www.w3.org/2000/svg" xmlns:xlink="http://www.w3.org/1999/xlink">
<g id="graph0" class="graph" transform="scale(1 1) rotate(0) translate(4 213)">
<title>/Users/Claudio/GitHub/bayes&#45;filters&#45;lib/src/BayesFilters/include/BayesFilters/GaussianCorrection.h</title>
<polygon fill="#ffffff" stroke="transparent" points="-4,4 -4,-213 1147.7285,-213 1147.7285,4 -4,4"/>
<!-- Node17 -->
<g id="node1" class="node">
<title>Node17</title>
<polygon fill="#bfbfbf" stroke="#000000" points="483.7241,-160.5 483.7241,-208.5 649.7778,-208.5 649.7778,-160.5 483.7241,-160.5"/>
<text text-anchor="start" x="491.7241" y="-196.5" font-family="Helvetica,sans-Serif" font-size="10.00" fill="#000000">/Users/Claudio/GitHub</text>
<text text-anchor="start" x="491.7241" y="-186.5" font-family="Helvetica,sans-Serif" font-size="10.00" fill="#000000">/bayes&#45;filters&#45;lib/src</text>
<text text-anchor="start" x="491.7241" y="-176.5" font-family="Helvetica,sans-Serif" font-size="10.00" fill="#000000">/BayesFilters/include/BayesFilters</text>
<text text-anchor="middle" x="566.751" y="-166.5" font-family="Helvetica,sans-Serif" font-size="10.00" fill="#000000">/GaussianCorrection.h</text>
</g>
<!-- Node18 -->
<g id="node2" class="node">
<title>Node18</title>
<g id="a_node2"><a xlink:href="GaussianFilter_8h.html" target="_top" xlink:title="/Users/Claudio/GitHub\l/bayes&#45;filters&#45;lib/src\l/BayesFilters/include/BayesFilters\l/GaussianFilter.h">
<polygon fill="#ffffff" stroke="#000000" points="14.7241,-75.5 14.7241,-123.5 180.7778,-123.5 180.7778,-75.5 14.7241,-75.5"/>
<text text-anchor="start" x="22.7241" y="-111.5" font-family="Helvetica,sans-Serif" font-size="10.00" fill="#000000">/Users/Claudio/GitHub</text>
<text text-anchor="start" x="22.7241" y="-101.5" font-family="Helvetica,sans-Serif" font-size="10.00" fill="#000000">/bayes&#45;filters&#45;lib/src</text>
<text text-anchor="start" x="22.7241" y="-91.5" font-family="Helvetica,sans-Serif" font-size="10.00" fill="#000000">/BayesFilters/include/BayesFilters</text>
<text text-anchor="middle" x="97.751" y="-81.5" font-family="Helvetica,sans-Serif" font-size="10.00" fill="#000000">/GaussianFilter.h</text>
</a>
</g>
</g>
<!-- Node17&#45;&gt;Node18 -->
<g id="edge1" class="edge">
<title>Node17&#45;&gt;Node18</title>
<path fill="none" stroke="#191970" d="M473.6737,-171.6354C398.1794,-160.6558 289.1805,-143.5662 194.751,-124 190.2439,-123.0661 185.6305,-122.063 180.9811,-121.0151"/>
<polygon fill="#191970" stroke="#191970" points="473.2372,-175.1086 483.6354,-173.077 474.2398,-168.1807 473.2372,-175.1086"/>
</g>
<!-- Node20 -->
<g id="node4" class="node">
<title>Node20</title>
<g id="a_node4"><a xlink:href="GPFCorrection_8h.html" target="_top" xlink:title="/Users/Claudio/GitHub\l/bayes&#45;filters&#45;lib/src\l/BayesFilters/include/BayesFilters\l/GPFCorrection.h">
<polygon fill="#ffffff" stroke="#000000" points="203.7241,-75.5 203.7241,-123.5 369.7778,-123.5 369.7778,-75.5 203.7241,-75.5"/>
<text text-anchor="start" x="211.7241" y="-111.5" font-family="Helvetica,sans-Serif" font-size="10.00" fill="#000000">/Users/Claudio/GitHub</text>
<text text-anchor="start" x="211.7241" y="-101.5" font-family="Helvetica,sans-Serif" font-size="10.00" fill="#000000">/bayes&#45;filters&#45;lib/src</text>
<text text-anchor="start" x="211.7241" y="-91.5" font-family="Helvetica,sans-Serif" font-size="10.00" fill="#000000">/BayesFilters/include/BayesFilters</text>
<text text-anchor="middle" x="286.751" y="-81.5" font-family="Helvetica,sans-Serif" font-size="10.00" fill="#000000">/GPFCorrection.h</text>
</a>
</g>
</g>
<!-- Node17&#45;&gt;Node20 -->
<g id="edge3" class="edge">
<title>Node17&#45;&gt;Node20</title>
<path fill="none" stroke="#191970" d="M477.6839,-157.4618C441.8785,-146.5923 400.9268,-134.1605 366.1548,-123.6047"/>
<polygon fill="#191970" stroke="#191970" points="477.0514,-160.9274 487.6369,-160.4832 479.0848,-154.2293 477.0514,-160.9274"/>
</g>
<!-- Node22 -->
<g id="node6" class="node">
<title>Node22</title>
<g id="a_node6"><a xlink:href="KFCorrection_8h.html" target="_top" xlink:title="/Users/Claudio/GitHub\l/bayes&#45;filters&#45;lib/src\l/BayesFilters/include/BayesFilters\l/KFCorrection.h">
<polygon fill="#ffffff" stroke="#000000" points="391.7241,-75.5 391.7241,-123.5 557.7778,-123.5 557.7778,-75.5 391.7241,-75.5"/>
<text text-anchor="start" x="399.7241" y="-111.5" font-family="Helvetica,sans-Serif" font-size="10.00" fill="#000000">/Users/Claudio/GitHub</text>
<text text-anchor="start" x="399.7241" y="-101.5" font-family="Helvetica,sans-Serif" font-size="10.00" fill="#000000">/bayes&#45;filters&#45;lib/src</text>
<text text-anchor="start" x="399.7241" y="-91.5" font-family="Helvetica,sans-Serif" font-size="10.00" fill="#000000">/BayesFilters/include/BayesFilters</text>
<text text-anchor="middle" x="474.751" y="-81.5" font-family="Helvetica,sans-Serif" font-size="10.00" fill="#000000">/KFCorrection.h</text>
</a>
</g>
</g>
<!-- Node17&#45;&gt;Node22 -->
<g id="edge5" class="edge">
<title>Node17&#45;&gt;Node22</title>
<path fill="none" stroke="#191970" d="M533.111,-153.4196C522.501,-143.6169 510.9434,-132.9387 500.9337,-123.6906"/>
<polygon fill="#191970" stroke="#191970" points="530.9134,-156.1544 540.6336,-160.3698 535.6637,-151.0129 530.9134,-156.1544"/>
</g>
<!-- Node24 -->
<g id="node8" class="node">
<title>Node24</title>
<g id="a_node8"><a xlink:href="SUKFCorrection_8h.html" target="_top" xlink:title="/Users/Claudio/GitHub\l/bayes&#45;filters&#45;lib/src\l/BayesFilters/include/BayesFilters\l/SUKFCorrection.h">
<polygon fill="#ffffff" stroke="#000000" points="575.7241,-75.5 575.7241,-123.5 741.7778,-123.5 741.7778,-75.5 575.7241,-75.5"/>
<text text-anchor="start" x="583.7241" y="-111.5" font-family="Helvetica,sans-Serif" font-size="10.00" fill="#000000">/Users/Claudio/GitHub</text>
<text text-anchor="start" x="583.7241" y="-101.5" font-family="Helvetica,sans-Serif" font-size="10.00" fill="#000000">/bayes&#45;filters&#45;lib/src</text>
<text text-anchor="start" x="583.7241" y="-91.5" font-family="Helvetica,sans-Serif" font-size="10.00" fill="#000000">/BayesFilters/include/BayesFilters</text>
<text text-anchor="middle" x="658.751" y="-81.5" font-family="Helvetica,sans-Serif" font-size="10.00" fill="#000000">/SUKFCorrection.h</text>
</a>
</g>
</g>
<!-- Node17&#45;&gt;Node24 -->
<g id="edge7" class="edge">
<title>Node17&#45;&gt;Node24</title>
<path fill="none" stroke="#191970" d="M600.391,-153.4196C611.0009,-143.6169 622.5585,-132.9387 632.5683,-123.6906"/>
<polygon fill="#191970" stroke="#191970" points="597.8382,-151.0129 592.8684,-160.3698 602.5885,-156.1544 597.8382,-151.0129"/>
</g>
<!-- Node26 -->
<g id="node10" class="node">
<title>Node26</title>
<g id="a_node10"><a xlink:href="UKFCorrection_8h.html" target="_top" xlink:title="/Users/Claudio/GitHub\l/bayes&#45;filters&#45;lib/src\l/BayesFilters/include/BayesFilters\l/UKFCorrection.h">
<polygon fill="#ffffff" stroke="#000000" points="759.7241,-75.5 759.7241,-123.5 925.7778,-123.5 925.7778,-75.5 759.7241,-75.5"/>
<text text-anchor="start" x="767.7241" y="-111.5" font-family="Helvetica,sans-Serif" font-size="10.00" fill="#000000">/Users/Claudio/GitHub</text>
<text text-anchor="start" x="767.7241" y="-101.5" font-family="Helvetica,sans-Serif" font-size="10.00" fill="#000000">/bayes&#45;filters&#45;lib/src</text>
<text text-anchor="start" x="767.7241" y="-91.5" font-family="Helvetica,sans-Serif" font-size="10.00" fill="#000000">/BayesFilters/include/BayesFilters</text>
<text text-anchor="middle" x="842.751" y="-81.5" font-family="Helvetica,sans-Serif" font-size="10.00" fill="#000000">/UKFCorrection.h</text>
</a>
</g>
</g>
<!-- Node17&#45;&gt;Node26 -->
<g id="edge9" class="edge">
<title>Node17&#45;&gt;Node26</title>
<path fill="none" stroke="#191970" d="M654.5457,-157.4618C689.8396,-146.5923 730.2062,-134.1605 764.4815,-123.6047"/>
<polygon fill="#191970" stroke="#191970" points="653.2617,-154.1949 644.7348,-160.4832 655.322,-160.8848 653.2617,-154.1949"/>
</g>
<!-- Node28 -->
<g id="node12" class="node">
<title>Node28</title>
<g id="a_node12"><a xlink:href="GaussianCorrection_8cpp.html" target="_top" xlink:title="/Users/Claudio/GitHub\l/bayes&#45;filters&#45;lib/src\l/BayesFilters/src/GaussianCorrection.cpp">
<polygon fill="#ffffff" stroke="#000000" points="943.7734,-80.5 943.7734,-118.5 1143.7285,-118.5 1143.7285,-80.5 943.7734,-80.5"/>
<text text-anchor="start" x="951.7734" y="-106.5" font-family="Helvetica,sans-Serif" font-size="10.00" fill="#000000">/Users/Claudio/GitHub</text>
<text text-anchor="start" x="951.7734" y="-96.5" font-family="Helvetica,sans-Serif" font-size="10.00" fill="#000000">/bayes&#45;filters&#45;lib/src</text>
<text text-anchor="middle" x="1043.751" y="-86.5" font-family="Helvetica,sans-Serif" font-size="10.00" fill="#000000">/BayesFilters/src/GaussianCorrection.cpp</text>
</a>
</g>
</g>
<!-- Node17&#45;&gt;Node28 -->
<g id="edge11" class="edge">
<title>Node17&#45;&gt;Node28</title>
<path fill="none" stroke="#191970" d="M660.2377,-170.6668C734.7787,-159.2673 841.726,-142.0855 934.751,-124 943.4138,-122.3158 952.4406,-120.4563 961.4282,-118.5371"/>
<polygon fill="#191970" stroke="#191970" points="659.298,-167.2695 649.9396,-172.2364 660.3528,-174.1896 659.298,-167.2695"/>
</g>
<!-- Node19 -->
<g id="node3" class="node">
<title>Node19</title>
<g id="a_node3"><a xlink:href="GaussianFilter_8cpp.html" target="_top" xlink:title="/Users/Claudio/GitHub\l/bayes&#45;filters&#45;lib/src\l/BayesFilters/src/GaussianFilter.cpp">
<polygon fill="#ffffff" stroke="#000000" points="0,-.5 0,-38.5 175.502,-38.5 175.502,-.5 0,-.5"/>
<text text-anchor="start" x="8" y="-26.5" font-family="Helvetica,sans-Serif" font-size="10.00" fill="#000000">/Users/Claudio/GitHub</text>
<text text-anchor="start" x="8" y="-16.5" font-family="Helvetica,sans-Serif" font-size="10.00" fill="#000000">/bayes&#45;filters&#45;lib/src</text>
<text text-anchor="middle" x="87.751" y="-6.5" font-family="Helvetica,sans-Serif" font-size="10.00" fill="#000000">/BayesFilters/src/GaussianFilter.cpp</text>
</a>
</g>
</g>
<!-- Node18&#45;&gt;Node19 -->
<g id="edge2" class="edge">
<title>Node18&#45;&gt;Node19</title>
<path fill="none" stroke="#191970" d="M93.4935,-65.4405C92.3484,-56.2795 91.1501,-46.6933 90.1462,-38.662"/>
<polygon fill="#191970" stroke="#191970" points="90.0372,-66.0087 94.7506,-75.4974 96.9832,-65.1404 90.0372,-66.0087"/>
</g>
<!-- Node21 -->
<g id="node5" class="node">
<title>Node21</title>
<g id="a_node5"><a xlink:href="GPFCorrection_8cpp.html" target="_top" xlink:title="/Users/Claudio/GitHub\l/bayes&#45;filters&#45;lib/src\l/BayesFilters/src/GPFCorrection.cpp">
<polygon fill="#ffffff" stroke="#000000" points="193.6182,-.5 193.6182,-38.5 371.8838,-38.5 371.8838,-.5 193.6182,-.5"/>
<text text-anchor="start" x="201.6182" y="-26.5" font-family="Helvetica,sans-Serif" font-size="10.00" fill="#000000">/Users/Claudio/GitHub</text>
<text text-anchor="start" x="201.6182" y="-16.5" font-family="Helvetica,sans-Serif" font-size="10.00" fill="#000000">/bayes&#45;filters&#45;lib/src</text>
<text text-anchor="middle" x="282.751" y="-6.5" font-family="Helvetica,sans-Serif" font-size="10.00" fill="#000000">/BayesFilters/src/GPFCorrection.cpp</text>
</a>
</g>
</g>
<!-- Node20&#45;&gt;Node21 -->
<g id="edge4" class="edge">
<title>Node20&#45;&gt;Node21</title>
<path fill="none" stroke="#191970" d="M285.048,-65.4405C284.5899,-56.2795 284.1106,-46.6933 283.7091,-38.662"/>
<polygon fill="#191970" stroke="#191970" points="281.5557,-65.6847 285.5508,-75.4974 288.547,-65.335 281.5557,-65.6847"/>
</g>
<!-- Node23 -->
<g id="node7" class="node">
<title>Node23</title>
<g id="a_node7"><a xlink:href="KFCorrection_8cpp.html" target="_top" xlink:title="/Users/Claudio/GitHub\l/bayes&#45;filters&#45;lib/src\l/BayesFilters/src/KFCorrection.cpp">
<polygon fill="#ffffff" stroke="#000000" points="389.5073,-.5 389.5073,-38.5 559.9946,-38.5 559.9946,-.5 389.5073,-.5"/>
<text text-anchor="start" x="397.5073" y="-26.5" font-family="Helvetica,sans-Serif" font-size="10.00" fill="#000000">/Users/Claudio/GitHub</text>
<text text-anchor="start" x="397.5073" y="-16.5" font-family="Helvetica,sans-Serif" font-size="10.00" fill="#000000">/bayes&#45;filters&#45;lib/src</text>
<text text-anchor="middle" x="474.751" y="-6.5" font-family="Helvetica,sans-Serif" font-size="10.00" fill="#000000">/BayesFilters/src/KFCorrection.cpp</text>
</a>
</g>
</g>
<!-- Node22&#45;&gt;Node23 -->
<g id="edge6" class="edge">
<title>Node22&#45;&gt;Node23</title>
<path fill="none" stroke="#191970" d="M474.751,-65.4405C474.751,-56.2795 474.751,-46.6933 474.751,-38.662"/>
<polygon fill="#191970" stroke="#191970" points="471.2511,-65.4973 474.751,-75.4974 478.2511,-65.4974 471.2511,-65.4973"/>
</g>
<!-- Node25 -->
<g id="node9" class="node">
<title>Node25</title>
<g id="a_node9"><a xlink:href="SUKFCorrection_8cpp.html" target="_top" xlink:title="/Users/Claudio/GitHub\l/bayes&#45;filters&#45;lib/src\l/BayesFilters/src/SUKFCorrection.cpp">
<polygon fill="#ffffff" stroke="#000000" points="577.5615,-.5 577.5615,-38.5 761.9404,-38.5 761.9404,-.5 577.5615,-.5"/>
<text text-anchor="start" x="585.5615" y="-26.5" font-family="Helvetica,sans-Serif" font-size="10.00" fill="#000000">/Users/Claudio/GitHub</text>
<text text-anchor="start" x="585.5615" y="-16.5" font-family="Helvetica,sans-Serif" font-size="10.00" fill="#000000">/bayes&#45;filters&#45;lib/src</text>
<text text-anchor="middle" x="669.751" y="-6.5" font-family="Helvetica,sans-Serif" font-size="10.00" fill="#000000">/BayesFilters/src/SUKFCorrection.cpp</text>
</a>
</g>
</g>
<!-- Node24&#45;&gt;Node25 -->
<g id="edge8" class="edge">
<title>Node24&#45;&gt;Node25</title>
<path fill="none" stroke="#191970" d="M663.4342,-65.4405C664.6938,-56.2795 666.0119,-46.6933 667.1162,-38.662"/>
<polygon fill="#191970" stroke="#191970" points="659.9462,-65.1138 662.0513,-75.4974 666.881,-66.0674 659.9462,-65.1138"/>
</g>
<!-- Node27 -->
<g id="node11" class="node">
<title>Node27</title>
<g id="a_node11"><a xlink:href="UKFCorrection_8cpp.html" target="_top" xlink:title="/Users/Claudio/GitHub\l/bayes&#45;filters&#45;lib/src\l/BayesFilters/src/UKFCorrection.cpp">
<polygon fill="#ffffff" stroke="#000000" points="779.8965,-.5 779.8965,-38.5 957.6055,-38.5 957.6055,-.5 779.8965,-.5"/>
<text text-anchor="start" x="787.8965" y="-26.5" font-family="Helvetica,sans-Serif" font-size="10.00" fill="#000000">/Users/Claudio/GitHub</text>
<text text-anchor="start" x="787.8965" y="-16.5" font-family="Helvetica,sans-Serif" font-size="10.00" fill="#000000">/bayes&#45;filters&#45;lib/src</text>
<text text-anchor="middle" x="868.751" y="-6.5" font-family="Helvetica,sans-Serif" font-size="10.00" fill="#000000">/BayesFilters/src/UKFCorrection.cpp</text>
</a>
</g>
</g>
<!-- Node26&#45;&gt;Node27 -->
<g id="edge10" class="edge">
<title>Node26&#45;&gt;Node27</title>
<path fill="none" stroke="#191970" d="M853.7243,-65.7358C856.7306,-56.4858 859.8851,-46.7796 862.5233,-38.662"/>
<polygon fill="#191970" stroke="#191970" points="850.3141,-64.9052 850.5518,-75.4974 856.9714,-67.0688 850.3141,-64.9052"/>
</g>
</g>
</svg>
