<?xml version="1.0" encoding="UTF-8" standalone="no"?>
<!DOCTYPE svg PUBLIC "-//W3C//DTD SVG 1.1//EN"
 "http://www.w3.org/Graphics/SVG/1.1/DTD/svg11.dtd">
<!-- Generated by graphviz version 2.40.1 (20161225.0304)
 -->
<!-- Title: /Users/Claudio/GitHub/bayes&#45;filters&#45;lib/src/BayesFilters/src/GPFCorrection.cpp Pages: 1 -->
<!--zoomable 442 -->
<svg id="main" version="1.1" xmlns="http://www.w3.org/2000/svg" xmlns:xlink="http://www.w3.org/1999/xlink" xml:space="preserve" onload="init(evt)">
<style type="text/css"><![CDATA[
.edge:hover path { stroke: red; }
.edge:hover polygon { stroke: red; fill: red; }
]]></style>
<script type="text/javascript"><![CDATA[
var edges = document.getElementsByTagName('g');
if (edges && edges.length) {
  for (var i=0;i<edges.length;i++) {
    if (edges[i].id.substr(0,4)=='edge') {
      edges[i].setAttribute('class','edge');
    }
  }
}
]]></script>
        <defs>
                <circle id="rim" cx="0" cy="0" r="7"/>
                <circle id="rim2" cx="0" cy="0" r="3.5"/>
                <g id="zoomPlus">
                        <use xlink:href="#rim" fill="#404040">
                                <set attributeName="fill" to="#808080" begin="zoomplus.mouseover" end="zoomplus.mouseout"/>
                        </use>
                        <path d="M-4,0h8M0,-4v8" fill="none" stroke="white" stroke-width="1.5" pointer-events="none"/>
                </g>
                <g id="zoomMin">
                        <use xlink:href="#rim" fill="#404040">
                                <set attributeName="fill" to="#808080" begin="zoomminus.mouseover" end="zoomminus.mouseout"/>
                        </use>
                        <path d="M-4,0h8" fill="none" stroke="white" stroke-width="1.5" pointer-events="none"/>
                </g>
                <g id="dirArrow">
                        <path fill="none" stroke="white" stroke-width="1.5" d="M0,-3.0v7 M-2.5,-0.5L0,-3.0L2.5,-0.5"/>
                </g>
               <g id="resetDef">
                       <use xlink:href="#rim2" fill="#404040">
                               <set attributeName="fill" to="#808080" begin="reset.mouseover" end="reset.mouseout"/>
                       </use>
               </g>
        </defs>

<script type="text/javascript">
var viewWidth = 1138;
var viewHeight = 442;
var sectionId = 'dynsection-0';
</script>
<script xlink:href="svgpan.js"/>
<svg id="graph" class="graph">
<g id="viewport">
<title>/Users/Claudio/GitHub/bayes&#45;filters&#45;lib/src/BayesFilters/src/GPFCorrection.cpp</title>
<polygon fill="#ffffff" stroke="transparent" points="-4,4 -4,-438 1133.8076,-438 1133.8076,4 -4,4"/>
<!-- Node0 -->
<g id="node1" class="node">
<title>Node0</title>
<polygon fill="#bfbfbf" stroke="#000000" points="710.1108,-395.5 710.1108,-433.5 888.3765,-433.5 888.3765,-395.5 710.1108,-395.5"/>
<text text-anchor="start" x="718.1108" y="-421.5" font-family="Helvetica,sans-Serif" font-size="10.00" fill="#000000">/Users/Claudio/GitHub</text>
<text text-anchor="start" x="718.1108" y="-411.5" font-family="Helvetica,sans-Serif" font-size="10.00" fill="#000000">/bayes&#45;filters&#45;lib/src</text>
<text text-anchor="middle" x="799.2437" y="-401.5" font-family="Helvetica,sans-Serif" font-size="10.00" fill="#000000">/BayesFilters/src/GPFCorrection.cpp</text>
</g>
<!-- Node1 -->
<g id="node2" class="node">
<title>Node1</title>
<g id="a_node2"><a xlink:href="GPFCorrection_8h.html" target="_top" xlink:title="BayesFilters/GPFCorrection.h">
<polygon fill="#ffffff" stroke="#000000" points="589.835,-340.5 589.835,-358.5 738.6523,-358.5 738.6523,-340.5 589.835,-340.5"/>
<text text-anchor="middle" x="664.2437" y="-346.5" font-family="Helvetica,sans-Serif" font-size="10.00" fill="#000000">BayesFilters/GPFCorrection.h</text>
</a>
</g>
</g>
<!-- Node0&#45;&gt;Node1 -->
<g id="edge1" class="edge">
<title>Node0&#45;&gt;Node1</title>
<path fill="none" stroke="#191970" d="M759.4694,-395.3494C737.9119,-384.9699 711.7878,-372.3916 692.359,-363.037"/>
<polygon fill="#191970" stroke="#191970" points="693.6676,-359.7825 683.1392,-358.5978 690.6308,-366.0896 693.6676,-359.7825"/>
</g>
<!-- Node26 -->
<g id="node27" class="node">
<title>Node26</title>
<polygon fill="#ffffff" stroke="#bfbfbf" points="756.5024,-340.5 756.5024,-358.5 841.9849,-358.5 841.9849,-340.5 756.5024,-340.5"/>
<text text-anchor="middle" x="799.2437" y="-346.5" font-family="Helvetica,sans-Serif" font-size="10.00" fill="#000000">Eigen/Cholesky</text>
</g>
<!-- Node0&#45;&gt;Node26 -->
<g id="edge43" class="edge">
<title>Node0&#45;&gt;Node26</title>
<path fill="none" stroke="#191970" d="M799.2437,-395.3494C799.2437,-387.0079 799.2437,-377.2463 799.2437,-368.879"/>
<polygon fill="#191970" stroke="#191970" points="802.7437,-368.5978 799.2437,-358.5978 795.7437,-368.5979 802.7437,-368.5978"/>
</g>
<!-- Node27 -->
<g id="node28" class="node">
<title>Node27</title>
<polygon fill="#ffffff" stroke="#bfbfbf" points="859.8398,-340.5 859.8398,-358.5 918.6475,-358.5 918.6475,-340.5 859.8398,-340.5"/>
<text text-anchor="middle" x="889.2437" y="-346.5" font-family="Helvetica,sans-Serif" font-size="10.00" fill="#000000">exception</text>
</g>
<!-- Node0&#45;&gt;Node27 -->
<g id="edge44" class="edge">
<title>Node0&#45;&gt;Node27</title>
<path fill="none" stroke="#191970" d="M825.7598,-395.3494C839.4097,-385.4912 855.8057,-373.6496 868.5155,-364.4703"/>
<polygon fill="#191970" stroke="#191970" points="870.5891,-367.2902 876.6466,-358.5978 866.4906,-361.6154 870.5891,-367.2902"/>
</g>
<!-- Node2 -->
<g id="node3" class="node">
<title>Node2</title>
<g id="a_node3"><a xlink:href="GaussianCorrection_8h.html" target="_top" xlink:title="BayesFilters/GaussianCorrection.h">
<polygon fill="#ffffff" stroke="#000000" points="299.9902,-230.5 299.9902,-248.5 470.4971,-248.5 470.4971,-230.5 299.9902,-230.5"/>
<text text-anchor="middle" x="385.2437" y="-236.5" font-family="Helvetica,sans-Serif" font-size="10.00" fill="#000000">BayesFilters/GaussianCorrection.h</text>
</a>
</g>
</g>
<!-- Node1&#45;&gt;Node2 -->
<g id="edge2" class="edge">
<title>Node1&#45;&gt;Node2</title>
<path fill="none" stroke="#191970" d="M609.8754,-340.4407C573.5951,-333.2569 525.3689,-321.482 485.2437,-304 455.1873,-290.9049 423.967,-269.2591 404.5759,-254.696"/>
<polygon fill="#191970" stroke="#191970" points="406.6163,-251.8503 396.5455,-248.5594 402.366,-257.4123 406.6163,-251.8503"/>
</g>
<!-- Node6 -->
<g id="node7" class="node">
<title>Node6</title>
<g id="a_node7"><a xlink:href="MeasurementModel_8h.html" target="_top" xlink:title="BayesFilters/Measurement\lModel.h">
<polygon fill="#ffffff" stroke="#000000" points="601.7783,-165.5 601.7783,-193.5 736.709,-193.5 736.709,-165.5 601.7783,-165.5"/>
<text text-anchor="start" x="609.7783" y="-181.5" font-family="Helvetica,sans-Serif" font-size="10.00" fill="#000000">BayesFilters/Measurement</text>
<text text-anchor="middle" x="669.2437" y="-171.5" font-family="Helvetica,sans-Serif" font-size="10.00" fill="#000000">Model.h</text>
</a>
</g>
</g>
<!-- Node1&#45;&gt;Node6 -->
<g id="edge27" class="edge">
<title>Node1&#45;&gt;Node6</title>
<path fill="none" stroke="#191970" d="M664.5125,-340.3601C665.262,-314.8754 667.394,-242.3866 668.5226,-204.0164"/>
<polygon fill="#191970" stroke="#191970" points="672.0296,-203.8276 668.8252,-193.729 665.0326,-203.6218 672.0296,-203.8276"/>
</g>
<!-- Node10 -->
<g id="node11" class="node">
<title>Node10</title>
<polygon fill="#ffffff" stroke="#bfbfbf" points="768.187,-.5 768.187,-18.5 820.3003,-18.5 820.3003,-.5 768.187,-.5"/>
<text text-anchor="middle" x="794.2437" y="-6.5" font-family="Helvetica,sans-Serif" font-size="10.00" fill="#000000">memory</text>
</g>
<!-- Node1&#45;&gt;Node10 -->
<g id="edge41" class="edge">
<title>Node1&#45;&gt;Node10</title>
<path fill="none" stroke="#191970" d="M703.6071,-340.4384C772.863,-323.3435 909.2437,-284.027 909.2437,-239.5 909.2437,-239.5 909.2437,-239.5 909.2437,-119.5 909.2437,-72.9066 859.3365,-39.9644 825.2767,-22.9079"/>
<polygon fill="#191970" stroke="#191970" points="826.6743,-19.6964 816.145,-18.5201 823.6426,-26.0058 826.6743,-19.6964"/>
</g>
<!-- Node19 -->
<g id="node20" class="node">
<title>Node19</title>
<g id="a_node20"><a xlink:href="LikelihoodModel_8h.html" target="_top" xlink:title="BayesFilters/LikelihoodModel.h">
<polygon fill="#ffffff" stroke="#000000" points="692.042,-230.5 692.042,-248.5 846.4453,-248.5 846.4453,-230.5 692.042,-230.5"/>
<text text-anchor="middle" x="769.2437" y="-236.5" font-family="Helvetica,sans-Serif" font-size="10.00" fill="#000000">BayesFilters/LikelihoodModel.h</text>
</a>
</g>
</g>
<!-- Node1&#45;&gt;Node19 -->
<g id="edge24" class="edge">
<title>Node1&#45;&gt;Node19</title>
<path fill="none" stroke="#191970" d="M672.8362,-340.4982C690.449,-322.0467 730.8782,-279.6924 753.3854,-256.1134"/>
<polygon fill="#191970" stroke="#191970" points="756.1593,-258.2764 760.5323,-248.6261 751.0958,-253.443 756.1593,-258.2764"/>
</g>
<!-- Node21 -->
<g id="node22" class="node">
<title>Node21</title>
<g id="a_node22"><a xlink:href="ParticleSet_8h.html" target="_top" xlink:title="BayesFilters/ParticleSet.h">
<polygon fill="#ffffff" stroke="#000000" points="0,-230.5 0,-248.5 130.4873,-248.5 130.4873,-230.5 0,-230.5"/>
<text text-anchor="middle" x="65.2437" y="-236.5" font-family="Helvetica,sans-Serif" font-size="10.00" fill="#000000">BayesFilters/ParticleSet.h</text>
</a>
</g>
</g>
<!-- Node1&#45;&gt;Node21 -->
<g id="edge28" class="edge">
<title>Node1&#45;&gt;Node21</title>
<path fill="none" stroke="#191970" d="M600.5059,-340.4955C541.4431,-331.9237 451.2109,-318.2495 373.2437,-304 281.7983,-287.2873 175.8441,-264.2961 115.068,-250.7562"/>
<polygon fill="#191970" stroke="#191970" points="115.5077,-247.2682 104.9852,-248.5042 113.9818,-254.0999 115.5077,-247.2682"/>
</g>
<!-- Node22 -->
<g id="node23" class="node">
<title>Node22</title>
<g id="a_node23"><a xlink:href="PFCorrection_8h.html" target="_top" xlink:title="BayesFilters/PFCorrection.h">
<polygon fill="#ffffff" stroke="#000000" points="494.7241,-285.5 494.7241,-303.5 635.7632,-303.5 635.7632,-285.5 494.7241,-285.5"/>
<text text-anchor="middle" x="565.2437" y="-291.5" font-family="Helvetica,sans-Serif" font-size="10.00" fill="#000000">BayesFilters/PFCorrection.h</text>
</a>
</g>
</g>
<!-- Node1&#45;&gt;Node22 -->
<g id="edge31" class="edge">
<title>Node1&#45;&gt;Node22</title>
<path fill="none" stroke="#191970" d="M647.8958,-340.4179C632.2755,-331.7399 608.5038,-318.5334 590.4575,-308.5077"/>
<polygon fill="#191970" stroke="#191970" points="592.0571,-305.3925 581.6158,-303.5956 588.6576,-311.5117 592.0571,-305.3925"/>
</g>
<!-- Node23 -->
<g id="node24" class="node">
<title>Node23</title>
<g id="a_node24"><a xlink:href="StateModel_8h.html" target="_top" xlink:title="BayesFilters/StateModel.h">
<polygon fill="#ffffff" stroke="#000000" points="148.8843,-230.5 148.8843,-248.5 281.603,-248.5 281.603,-230.5 148.8843,-230.5"/>
<text text-anchor="middle" x="215.2437" y="-236.5" font-family="Helvetica,sans-Serif" font-size="10.00" fill="#000000">BayesFilters/StateModel.h</text>
</a>
</g>
</g>
<!-- Node1&#45;&gt;Node23 -->
<g id="edge38" class="edge">
<title>Node1&#45;&gt;Node23</title>
<path fill="none" stroke="#191970" d="M616.6341,-340.435C572.5354,-331.8215 505.2127,-318.12 447.2437,-304 379.3187,-287.4549 301.1367,-265.002 255.0834,-251.4199"/>
<polygon fill="#191970" stroke="#191970" points="256.0636,-248.0601 245.4815,-248.5793 254.0778,-254.7725 256.0636,-248.0601"/>
</g>
<!-- Node24 -->
<g id="node25" class="node">
<title>Node24</title>
<polygon fill="#ffffff" stroke="#bfbfbf" points="936.8398,-285.5 936.8398,-303.5 995.6475,-303.5 995.6475,-285.5 936.8398,-285.5"/>
<text text-anchor="middle" x="966.2437" y="-291.5" font-family="Helvetica,sans-Serif" font-size="10.00" fill="#000000">functional</text>
</g>
<!-- Node1&#45;&gt;Node24 -->
<g id="edge40" class="edge">
<title>Node1&#45;&gt;Node24</title>
<path fill="none" stroke="#191970" d="M719.697,-340.4762C772.2289,-331.7581 853.2707,-317.869 923.2437,-304 924.3311,-303.7845 925.4332,-303.5629 926.545,-303.3366"/>
<polygon fill="#191970" stroke="#191970" points="927.6035,-306.6908 936.6711,-301.2109 926.1653,-299.8401 927.6035,-306.6908"/>
</g>
<!-- Node25 -->
<g id="node26" class="node">
<title>Node25</title>
<polygon fill="#ffffff" stroke="#bfbfbf" points="1013.2905,-285.5 1013.2905,-303.5 1063.1968,-303.5 1063.1968,-285.5 1013.2905,-285.5"/>
<text text-anchor="middle" x="1038.2437" y="-291.5" font-family="Helvetica,sans-Serif" font-size="10.00" fill="#000000">random</text>
</g>
<!-- Node1&#45;&gt;Node25 -->
<g id="edge42" class="edge">
<title>Node1&#45;&gt;Node25</title>
<path fill="none" stroke="#191970" d="M738.6529,-340.7729C818.3472,-331.2202 940.7223,-315.909 1002.9181,-303.984"/>
<polygon fill="#191970" stroke="#191970" points="1003.9688,-307.3432 1013.0883,-301.9501 1002.596,-300.4791 1003.9688,-307.3432"/>
</g>
<!-- Node3 -->
<g id="node4" class="node">
<title>Node3</title>
<g id="a_node4"><a xlink:href="GaussianMixture_8h.html" target="_top" xlink:title="BayesFilters/GaussianMixture.h">
<polygon fill="#ffffff" stroke="#000000" points="194.6626,-170.5 194.6626,-188.5 351.8247,-188.5 351.8247,-170.5 194.6626,-170.5"/>
<text text-anchor="middle" x="273.2437" y="-176.5" font-family="Helvetica,sans-Serif" font-size="10.00" fill="#000000">BayesFilters/GaussianMixture.h</text>
</a>
</g>
</g>
<!-- Node2&#45;&gt;Node3 -->
<g id="edge3" class="edge">
<title>Node2&#45;&gt;Node3</title>
<path fill="none" stroke="#191970" d="M368.2333,-230.3873C349.7893,-220.5066 320.1433,-204.6248 298.8752,-193.2312"/>
<polygon fill="#191970" stroke="#191970" points="300.5148,-190.139 290.0472,-188.5019 297.2092,-196.3093 300.5148,-190.139"/>
</g>
<!-- Node5 -->
<g id="node6" class="node">
<title>Node5</title>
<polygon fill="#ffffff" stroke="#bfbfbf" points="381.6133,-110.5 381.6133,-128.5 454.874,-128.5 454.874,-110.5 381.6133,-110.5"/>
<text text-anchor="middle" x="418.2437" y="-116.5" font-family="Helvetica,sans-Serif" font-size="10.00" fill="#000000">Eigen/Dense</text>
</g>
<!-- Node2&#45;&gt;Node5 -->
<g id="edge23" class="edge">
<title>Node2&#45;&gt;Node5</title>
<path fill="none" stroke="#191970" d="M387.724,-230.4805C393.0752,-211.0216 405.802,-164.7423 413.0173,-138.505"/>
<polygon fill="#191970" stroke="#191970" points="416.4576,-139.1943 415.7345,-128.6242 409.7081,-137.3382 416.4576,-139.1943"/>
</g>
<!-- Node2&#45;&gt;Node6 -->
<g id="edge6" class="edge">
<title>Node2&#45;&gt;Node6</title>
<path fill="none" stroke="#191970" d="M428.0688,-230.4524C471.5957,-221.2566 539.9539,-206.8147 592.7961,-195.6509"/>
<polygon fill="#191970" stroke="#191970" points="593.7483,-199.0271 602.8089,-193.5355 592.3013,-192.1782 593.7483,-199.0271"/>
</g>
<!-- Node4 -->
<g id="node5" class="node">
<title>Node4</title>
<polygon fill="#ffffff" stroke="#bfbfbf" points="251.6279,-55.5 251.6279,-73.5 294.8594,-73.5 294.8594,-55.5 251.6279,-55.5"/>
<text text-anchor="middle" x="273.2437" y="-61.5" font-family="Helvetica,sans-Serif" font-size="10.00" fill="#000000">vector</text>
</g>
<!-- Node3&#45;&gt;Node4 -->
<g id="edge4" class="edge">
<title>Node3&#45;&gt;Node4</title>
<path fill="none" stroke="#191970" d="M273.2437,-170.4761C273.2437,-151.9256 273.2437,-109.142 273.2437,-83.9748"/>
<polygon fill="#191970" stroke="#191970" points="276.7438,-83.8013 273.2437,-73.8014 269.7438,-83.8014 276.7438,-83.8013"/>
</g>
<!-- Node3&#45;&gt;Node5 -->
<g id="edge5" class="edge">
<title>Node3&#45;&gt;Node5</title>
<path fill="none" stroke="#191970" d="M295.266,-170.3873C319.6798,-160.2851 359.2538,-143.9096 386.8954,-132.4717"/>
<polygon fill="#191970" stroke="#191970" points="388.5872,-135.5595 396.4891,-128.5019 385.9107,-129.0914 388.5872,-135.5595"/>
</g>
<!-- Node6&#45;&gt;Node5 -->
<g id="edge22" class="edge">
<title>Node6&#45;&gt;Node5</title>
<path fill="none" stroke="#191970" d="M610.3953,-165.4327C565.9533,-154.8091 505.8023,-140.4304 464.7113,-130.6078"/>
<polygon fill="#191970" stroke="#191970" points="465.4951,-127.1966 454.9554,-128.2757 463.8676,-134.0048 465.4951,-127.1966"/>
</g>
<!-- Node7 -->
<g id="node8" class="node">
<title>Node7</title>
<g id="a_node8"><a xlink:href="Data_8h.html" target="_top" xlink:title="BayesFilters/Data.h">
<polygon fill="#ffffff" stroke="#000000" points="777.6157,-110.5 777.6157,-128.5 880.8716,-128.5 880.8716,-110.5 777.6157,-110.5"/>
<text text-anchor="middle" x="829.2437" y="-116.5" font-family="Helvetica,sans-Serif" font-size="10.00" fill="#000000">BayesFilters/Data.h</text>
</a>
</g>
</g>
<!-- Node6&#45;&gt;Node7 -->
<g id="edge7" class="edge">
<title>Node6&#45;&gt;Node7</title>
<path fill="none" stroke="#191970" d="M706.7565,-165.4327C733.6205,-155.3587 769.4889,-141.908 795.4631,-132.1677"/>
<polygon fill="#191970" stroke="#191970" points="796.7598,-135.4195 804.8942,-128.6311 794.3019,-128.8652 796.7598,-135.4195"/>
</g>
<!-- Node6&#45;&gt;Node10 -->
<g id="edge19" class="edge">
<title>Node6&#45;&gt;Node10</title>
<path fill="none" stroke="#191970" d="M680.2993,-165.4485C688.1786,-155.3703 698.9733,-141.4328 708.2437,-129 735.0859,-93.0011 765.5878,-50.1336 782.0855,-26.7778"/>
<polygon fill="#191970" stroke="#191970" points="784.9709,-28.7594 787.8738,-18.57 779.2503,-24.7252 784.9709,-28.7594"/>
</g>
<!-- Node14 -->
<g id="node15" class="node">
<title>Node14</title>
<g id="a_node15"><a xlink:href="Logger_8h.html" target="_top" xlink:title="BayesFilters/Logger.h">
<polygon fill="#ffffff" stroke="#000000" points="570.8818,-110.5 570.8818,-128.5 683.6055,-128.5 683.6055,-110.5 570.8818,-110.5"/>
<text text-anchor="middle" x="627.2437" y="-116.5" font-family="Helvetica,sans-Serif" font-size="10.00" fill="#000000">BayesFilters/Logger.h</text>
</a>
</g>
</g>
<!-- Node6&#45;&gt;Node14 -->
<g id="edge14" class="edge">
<title>Node6&#45;&gt;Node14</title>
<path fill="none" stroke="#191970" d="M659.2902,-165.2808C653.3228,-156.756 645.6918,-145.8545 639.3733,-136.8281"/>
<polygon fill="#191970" stroke="#191970" points="642.2046,-134.7694 633.6026,-128.5842 636.4699,-138.7837 642.2046,-134.7694"/>
</g>
<!-- Node17 -->
<g id="node18" class="node">
<title>Node17</title>
<polygon fill="#ffffff" stroke="#bfbfbf" points="677.0171,-55.5 677.0171,-73.5 717.4702,-73.5 717.4702,-55.5 677.0171,-55.5"/>
<text text-anchor="middle" x="697.2437" y="-61.5" font-family="Helvetica,sans-Serif" font-size="10.00" fill="#000000">string</text>
</g>
<!-- Node6&#45;&gt;Node17 -->
<g id="edge20" class="edge">
<title>Node6&#45;&gt;Node17</title>
<path fill="none" stroke="#191970" d="M677.2828,-165.4085C682.4998,-155.5426 688.924,-141.8736 692.2437,-129 696.0613,-114.1954 697.2327,-96.8981 697.4926,-83.9449"/>
<polygon fill="#191970" stroke="#191970" points="700.9928,-83.8649 697.5301,-73.8519 693.9929,-83.8388 700.9928,-83.8649"/>
</g>
<!-- Node18 -->
<g id="node19" class="node">
<title>Node18</title>
<polygon fill="#ffffff" stroke="#bfbfbf" points="513.8521,-110.5 513.8521,-128.5 552.6353,-128.5 552.6353,-110.5 513.8521,-110.5"/>
<text text-anchor="middle" x="533.2437" y="-116.5" font-family="Helvetica,sans-Serif" font-size="10.00" fill="#000000">utility</text>
</g>
<!-- Node6&#45;&gt;Node18 -->
<g id="edge21" class="edge">
<title>Node6&#45;&gt;Node18</title>
<path fill="none" stroke="#191970" d="M637.3577,-165.4327C614.5154,-155.3552 584.0139,-141.8986 561.934,-132.1575"/>
<polygon fill="#191970" stroke="#191970" points="563.299,-128.9343 552.737,-128.1 560.4735,-135.3387 563.299,-128.9343"/>
</g>
<!-- Node8 -->
<g id="node9" class="node">
<title>Node8</title>
<g id="a_node9"><a xlink:href="any_8h.html" target="_top" xlink:title="BayesFilters/any.h">
<polygon fill="#ffffff" stroke="#000000" points="937.4844,-55.5 937.4844,-73.5 1035.0029,-73.5 1035.0029,-55.5 937.4844,-55.5"/>
<text text-anchor="middle" x="986.2437" y="-61.5" font-family="Helvetica,sans-Serif" font-size="10.00" fill="#000000">BayesFilters/any.h</text>
</a>
</g>
</g>
<!-- Node7&#45;&gt;Node8 -->
<g id="edge8" class="edge">
<title>Node7&#45;&gt;Node8</title>
<path fill="none" stroke="#191970" d="M855.169,-110.4179C881.2685,-101.2748 921.7178,-87.1046 950.7787,-76.924"/>
<polygon fill="#191970" stroke="#191970" points="952.2603,-80.1136 960.5407,-73.5042 949.9459,-73.5073 952.2603,-80.1136"/>
</g>
<!-- Node9 -->
<g id="node10" class="node">
<title>Node9</title>
<polygon fill="#ffffff" stroke="#bfbfbf" points="1072.6797,-.5 1072.6797,-18.5 1129.8076,-18.5 1129.8076,-.5 1072.6797,-.5"/>
<text text-anchor="middle" x="1101.2437" y="-6.5" font-family="Helvetica,sans-Serif" font-size="10.00" fill="#000000">algorithm</text>
</g>
<!-- Node8&#45;&gt;Node9 -->
<g id="edge9" class="edge">
<title>Node8&#45;&gt;Node9</title>
<path fill="none" stroke="#191970" d="M1005.2336,-55.4179C1023.7113,-46.5807 1052.0084,-33.0473 1073.102,-22.9591"/>
<polygon fill="#191970" stroke="#191970" points="1074.7143,-26.0677 1082.2255,-18.5956 1071.6941,-19.7528 1074.7143,-26.0677"/>
</g>
<!-- Node8&#45;&gt;Node10 -->
<g id="edge10" class="edge">
<title>Node8&#45;&gt;Node10</title>
<path fill="none" stroke="#191970" d="M954.5388,-55.4179C920.4154,-45.643 866.2341,-30.1223 830.4574,-19.8737"/>
<polygon fill="#191970" stroke="#191970" points="831.0148,-16.3927 820.4376,-17.0035 829.0871,-23.122 831.0148,-16.3927"/>
</g>
<!-- Node11 -->
<g id="node12" class="node">
<title>Node11</title>
<polygon fill="#ffffff" stroke="#bfbfbf" points="845.8423,-.5 845.8423,-18.5 904.645,-18.5 904.645,-.5 845.8423,-.5"/>
<text text-anchor="middle" x="875.2437" y="-6.5" font-family="Helvetica,sans-Serif" font-size="10.00" fill="#000000">stdexcept</text>
</g>
<!-- Node8&#45;&gt;Node11 -->
<g id="edge11" class="edge">
<title>Node8&#45;&gt;Node11</title>
<path fill="none" stroke="#191970" d="M967.9143,-55.4179C950.1596,-46.6205 923.0122,-33.1691 902.6821,-23.0956"/>
<polygon fill="#191970" stroke="#191970" points="904.1146,-19.8994 893.6003,-18.5956 901.0067,-26.1716 904.1146,-19.8994"/>
</g>
<!-- Node12 -->
<g id="node13" class="node">
<title>Node12</title>
<polygon fill="#ffffff" stroke="#bfbfbf" points="922.7314,-.5 922.7314,-18.5 973.7559,-18.5 973.7559,-.5 922.7314,-.5"/>
<text text-anchor="middle" x="948.2437" y="-6.5" font-family="Helvetica,sans-Serif" font-size="10.00" fill="#000000">typeinfo</text>
</g>
<!-- Node8&#45;&gt;Node12 -->
<g id="edge12" class="edge">
<title>Node8&#45;&gt;Node12</title>
<path fill="none" stroke="#191970" d="M979.9687,-55.4179C974.6651,-47.7415 966.9132,-36.5217 960.3998,-27.0945"/>
<polygon fill="#191970" stroke="#191970" points="963.2188,-25.0173 954.6549,-18.7795 957.4597,-28.9963 963.2188,-25.0173"/>
</g>
<!-- Node13 -->
<g id="node14" class="node">
<title>Node13</title>
<polygon fill="#ffffff" stroke="#bfbfbf" points="992.1772,-.5 992.1772,-18.5 1054.3101,-18.5 1054.3101,-.5 992.1772,-.5"/>
<text text-anchor="middle" x="1023.2437" y="-6.5" font-family="Helvetica,sans-Serif" font-size="10.00" fill="#000000">type_traits</text>
</g>
<!-- Node8&#45;&gt;Node13 -->
<g id="edge13" class="edge">
<title>Node8&#45;&gt;Node13</title>
<path fill="none" stroke="#191970" d="M992.3534,-55.4179C997.5175,-47.7415 1005.0654,-36.5217 1011.4074,-27.0945"/>
<polygon fill="#191970" stroke="#191970" points="1014.3233,-29.0303 1017.0011,-18.7795 1008.5153,-25.1231 1014.3233,-29.0303"/>
</g>
<!-- Node14&#45;&gt;Node4 -->
<g id="edge18" class="edge">
<title>Node14&#45;&gt;Node4</title>
<path fill="none" stroke="#191970" d="M570.7599,-110.7243C495.6281,-99.0513 365.3253,-78.8065 305.2578,-69.474"/>
<polygon fill="#191970" stroke="#191970" points="305.6438,-65.992 295.225,-67.9152 304.5691,-72.909 305.6438,-65.992"/>
</g>
<!-- Node15 -->
<g id="node16" class="node">
<title>Node15</title>
<polygon fill="#ffffff" stroke="#bfbfbf" points="534.5737,-55.5 534.5737,-73.5 583.9136,-73.5 583.9136,-55.5 534.5737,-55.5"/>
<text text-anchor="middle" x="559.2437" y="-61.5" font-family="Helvetica,sans-Serif" font-size="10.00" fill="#000000">fstream</text>
</g>
<!-- Node14&#45;&gt;Node15 -->
<g id="edge15" class="edge">
<title>Node14&#45;&gt;Node15</title>
<path fill="none" stroke="#191970" d="M616.0148,-110.4179C605.8392,-102.1876 590.6274,-89.8839 578.5106,-80.0836"/>
<polygon fill="#191970" stroke="#191970" points="580.6926,-77.3469 570.7164,-73.7795 576.2905,-82.7895 580.6926,-77.3469"/>
</g>
<!-- Node16 -->
<g id="node17" class="node">
<title>Node16</title>
<polygon fill="#ffffff" stroke="#bfbfbf" points="602.0713,-55.5 602.0713,-73.5 656.416,-73.5 656.416,-55.5 602.0713,-55.5"/>
<text text-anchor="middle" x="629.2437" y="-61.5" font-family="Helvetica,sans-Serif" font-size="10.00" fill="#000000">iostream</text>
</g>
<!-- Node14&#45;&gt;Node16 -->
<g id="edge16" class="edge">
<title>Node14&#45;&gt;Node16</title>
<path fill="none" stroke="#191970" d="M627.5739,-110.4179C627.8358,-103.2164 628.2111,-92.8962 628.5395,-83.8632"/>
<polygon fill="#191970" stroke="#191970" points="632.0404,-83.9001 628.9062,-73.7795 625.045,-83.6456 632.0404,-83.9001"/>
</g>
<!-- Node14&#45;&gt;Node17 -->
<g id="edge17" class="edge">
<title>Node14&#45;&gt;Node17</title>
<path fill="none" stroke="#191970" d="M638.8027,-110.4179C649.2776,-102.1876 664.9369,-89.8839 677.41,-80.0836"/>
<polygon fill="#191970" stroke="#191970" points="679.7326,-82.7098 685.4334,-73.7795 675.4078,-77.2056 679.7326,-82.7098"/>
</g>
<!-- Node19&#45;&gt;Node6 -->
<g id="edge25" class="edge">
<title>Node19&#45;&gt;Node6</title>
<path fill="none" stroke="#191970" d="M754.0558,-230.3873C740.1905,-222.0681 719.235,-209.4948 701.6236,-198.928"/>
<polygon fill="#191970" stroke="#191970" points="703.1498,-195.7621 692.7741,-193.6183 699.5483,-201.7645 703.1498,-195.7621"/>
</g>
<!-- Node20 -->
<g id="node21" class="node">
<title>Node20</title>
<polygon fill="#ffffff" stroke="#bfbfbf" points="754.229,-170.5 754.229,-188.5 820.2583,-188.5 820.2583,-170.5 754.229,-170.5"/>
<text text-anchor="middle" x="787.2437" y="-176.5" font-family="Helvetica,sans-Serif" font-size="10.00" fill="#000000">Eigen/Core</text>
</g>
<!-- Node19&#45;&gt;Node20 -->
<g id="edge26" class="edge">
<title>Node19&#45;&gt;Node20</title>
<path fill="none" stroke="#191970" d="M771.9775,-230.3873C774.5149,-221.9293 778.3714,-209.074 781.5734,-198.4007"/>
<polygon fill="#191970" stroke="#191970" points="784.963,-199.2825 784.4841,-188.6985 778.2582,-197.271 784.963,-199.2825"/>
</g>
<!-- Node21&#45;&gt;Node3 -->
<g id="edge29" class="edge">
<title>Node21&#45;&gt;Node3</title>
<path fill="none" stroke="#191970" d="M96.8344,-230.3873C133.0843,-219.9306 192.6343,-202.7527 232.3841,-191.2864"/>
<polygon fill="#191970" stroke="#191970" points="233.399,-194.6364 242.0372,-188.5019 231.4588,-187.9107 233.399,-194.6364"/>
</g>
<!-- Node21&#45;&gt;Node4 -->
<g id="edge30" class="edge">
<title>Node21&#45;&gt;Node4</title>
<path fill="none" stroke="#191970" d="M76.1338,-230.3376C109.7604,-202.046 212.2301,-115.8335 254.6018,-80.1842"/>
<polygon fill="#191970" stroke="#191970" points="257.0626,-82.6879 262.4613,-73.5717 252.556,-77.3315 257.0626,-82.6879"/>
</g>
<!-- Node22&#45;&gt;Node5 -->
<g id="edge37" class="edge">
<title>Node22&#45;&gt;Node5</title>
<path fill="none" stroke="#191970" d="M556.1243,-285.293C547.2619,-276.2434 533.5268,-261.9456 522.2437,-249 488.3274,-210.0864 450.9898,-162.2713 431.6007,-137.0324"/>
<polygon fill="#191970" stroke="#191970" points="434.1668,-134.6265 425.3089,-128.8136 428.6085,-138.8816 434.1668,-134.6265"/>
</g>
<!-- Node22&#45;&gt;Node6 -->
<g id="edge33" class="edge">
<title>Node22&#45;&gt;Node6</title>
<path fill="none" stroke="#191970" d="M573.4044,-285.4761C589.6508,-267.5113 626.4502,-226.8197 649.4292,-201.4102"/>
<polygon fill="#191970" stroke="#191970" points="652.2492,-203.51 656.3608,-193.7455 647.0574,-198.8148 652.2492,-203.51"/>
</g>
<!-- Node22&#45;&gt;Node10 -->
<g id="edge35" class="edge">
<title>Node22&#45;&gt;Node10</title>
<path fill="none" stroke="#191970" d="M558.8665,-285.146C534.7474,-248.5764 453.9999,-114.3763 525.2437,-55 559.9684,-26.0596 692.4544,-14.9808 757.6156,-11.2169"/>
<polygon fill="#191970" stroke="#191970" points="758.051,-14.6983 767.8437,-10.6545 757.6666,-7.7089 758.051,-14.6983"/>
</g>
<!-- Node22&#45;&gt;Node18 -->
<g id="edge36" class="edge">
<title>Node22&#45;&gt;Node18</title>
<path fill="none" stroke="#191970" d="M564.9397,-285.2603C564.0696,-263.8365 560.8999,-209.2265 550.2437,-165 548.0492,-155.8925 544.5579,-146.1209 541.3086,-137.9768"/>
<polygon fill="#191970" stroke="#191970" points="544.5199,-136.584 537.438,-128.7038 538.0601,-139.2804 544.5199,-136.584"/>
</g>
<!-- Node22&#45;&gt;Node19 -->
<g id="edge32" class="edge">
<title>Node22&#45;&gt;Node19</title>
<path fill="none" stroke="#191970" d="M598.9301,-285.4179C633.7313,-276.0352 688.1681,-261.3586 726.0988,-251.1322"/>
<polygon fill="#191970" stroke="#191970" points="727.1021,-254.4867 735.8462,-248.5042 725.2799,-247.7281 727.1021,-254.4867"/>
</g>
<!-- Node22&#45;&gt;Node21 -->
<g id="edge34" class="edge">
<title>Node22&#45;&gt;Node21</title>
<path fill="none" stroke="#191970" d="M494.5096,-287.3499C412.2666,-278.9412 272.1451,-264.3212 140.918,-249.0585"/>
<polygon fill="#191970" stroke="#191970" points="141.0192,-245.5466 130.6811,-247.8644 140.2082,-252.4995 141.0192,-245.5466"/>
</g>
<!-- Node23&#45;&gt;Node5 -->
<g id="edge39" class="edge">
<title>Node23&#45;&gt;Node5</title>
<path fill="none" stroke="#191970" d="M271.1961,-230.4828C300.008,-223.8478 334.5842,-212.6289 361.2437,-194 382.2229,-179.3403 398.9253,-154.6032 408.6957,-137.6863"/>
<polygon fill="#191970" stroke="#191970" points="411.8525,-139.21 413.6272,-128.7649 405.7262,-135.8235 411.8525,-139.21"/>
</g>
</g>
</svg>
        <g id="navigator" transform="translate(0 0)" fill="#404254">
                <rect fill="#f2f5e9" fill-opacity="0.5" stroke="#606060" stroke-width=".5" x="0" y="0" width="60" height="60"/>
                <use id="zoomplus" xlink:href="#zoomPlus" x="17" y="9" onmousedown="handleZoom(evt,'in')"/>
                <use id="zoomminus" xlink:href="#zoomMin" x="42" y="9" onmousedown="handleZoom(evt,'out')"/>
                <use id="reset" xlink:href="#resetDef" x="30" y="36" onmousedown="handleReset()"/>
                <g id="arrowUp" xlink:href="#dirArrow" transform="translate(30 24)" onmousedown="handlePan(0,-1)">
                  <use xlink:href="#rim" fill="#404040">
                        <set attributeName="fill" to="#808080" begin="arrowUp.mouseover" end="arrowUp.mouseout"/>
                  </use>
                  <path fill="none" stroke="white" stroke-width="1.5" d="M0,-3.0v7 M-2.5,-0.5L0,-3.0L2.5,-0.5"/>
                </g>
                <g id="arrowRight" xlink:href="#dirArrow" transform="rotate(90) translate(36 -43)" onmousedown="handlePan(1,0)">
                  <use xlink:href="#rim" fill="#404040">
                        <set attributeName="fill" to="#808080" begin="arrowRight.mouseover" end="arrowRight.mouseout"/>
                  </use>
                  <path fill="none" stroke="white" stroke-width="1.5" d="M0,-3.0v7 M-2.5,-0.5L0,-3.0L2.5,-0.5"/>
                </g>
                <g id="arrowDown" xlink:href="#dirArrow" transform="rotate(180) translate(-30 -48)" onmousedown="handlePan(0,1)">
                  <use xlink:href="#rim" fill="#404040">
                        <set attributeName="fill" to="#808080" begin="arrowDown.mouseover" end="arrowDown.mouseout"/>
                  </use>
                  <path fill="none" stroke="white" stroke-width="1.5" d="M0,-3.0v7 M-2.5,-0.5L0,-3.0L2.5,-0.5"/>
                </g>
                <g id="arrowLeft" xlink:href="#dirArrow" transform="rotate(270) translate(-36 17)" onmousedown="handlePan(-1,0)">
                  <use xlink:href="#rim" fill="#404040">
                        <set attributeName="fill" to="#808080" begin="arrowLeft.mouseover" end="arrowLeft.mouseout"/>
                  </use>
                  <path fill="none" stroke="white" stroke-width="1.5" d="M0,-3.0v7 M-2.5,-0.5L0,-3.0L2.5,-0.5"/>
                </g>
        </g>
        <svg viewBox="0 0 15 15" width="100%" height="30px" preserveAspectRatio="xMaxYMin meet">
         <g id="arrow_out" transform="scale(0.3 0.3)">
          <a xlink:href="GPFCorrection_8cpp__incl_org.svg" target="_base">
           <rect id="button" ry="5" rx="5" y="6" x="6" height="38" width="38"
                fill="#f2f5e9" fill-opacity="0.5" stroke="#606060" stroke-width="1.0"/>
           <path id="arrow"
             d="M 11.500037,31.436501 C 11.940474,20.09759 22.043105,11.32322 32.158766,21.979434 L 37.068811,17.246167 C 37.068811,17.246167 37.088388,32 37.088388,32 L 22.160133,31.978069 C 22.160133,31.978069 26.997745,27.140456 26.997745,27.140456 C 18.528582,18.264221 13.291696,25.230495 11.500037,31.436501 z"
             style="fill:#404040;"/>
          </a>
         </g>
        </svg>
</svg>
