<?xml version="1.0" encoding="UTF-8" standalone="no"?>
<!DOCTYPE svg PUBLIC "-//W3C//DTD SVG 1.1//EN"
 "http://www.w3.org/Graphics/SVG/1.1/DTD/svg11.dtd">
<!-- Generated by graphviz version 2.40.1 (20161225.0304)
 -->
<!-- Title: /Users/Claudio/GitHub/bayes&#45;filters&#45;lib/src/BayesFilters/include/BayesFilters/GPFPrediction.h Pages: 1 -->
<svg width="819pt" height="277pt"
 viewBox="0.00 0.00 818.95 277.00" xmlns="http://www.w3.org/2000/svg" xmlns:xlink="http://www.w3.org/1999/xlink">
<g id="graph0" class="graph" transform="scale(1 1) rotate(0) translate(4 273)">
<title>/Users/Claudio/GitHub/bayes&#45;filters&#45;lib/src/BayesFilters/include/BayesFilters/GPFPrediction.h</title>
<polygon fill="#ffffff" stroke="transparent" points="-4,4 -4,-273 814.9478,-273 814.9478,4 -4,4"/>
<!-- Node0 -->
<g id="node1" class="node">
<title>Node0</title>
<polygon fill="#bfbfbf" stroke="#000000" points="317.6772,-220.5 317.6772,-268.5 483.731,-268.5 483.731,-220.5 317.6772,-220.5"/>
<text text-anchor="start" x="325.6772" y="-256.5" font-family="Helvetica,sans-Serif" font-size="10.00" fill="#000000">/Users/Claudio/GitHub</text>
<text text-anchor="start" x="325.6772" y="-246.5" font-family="Helvetica,sans-Serif" font-size="10.00" fill="#000000">/bayes&#45;filters&#45;lib/src</text>
<text text-anchor="start" x="325.6772" y="-236.5" font-family="Helvetica,sans-Serif" font-size="10.00" fill="#000000">/BayesFilters/include/BayesFilters</text>
<text text-anchor="middle" x="400.7041" y="-226.5" font-family="Helvetica,sans-Serif" font-size="10.00" fill="#000000">/GPFPrediction.h</text>
</g>
<!-- Node1 -->
<g id="node2" class="node">
<title>Node1</title>
<g id="a_node2"><a xlink:href="ExogenousModel_8h.html" target="_top" xlink:title="BayesFilters/ExogenousModel.h">
<polygon fill="#ffffff" stroke="#000000" points="0,-110.5 0,-128.5 159.4082,-128.5 159.4082,-110.5 0,-110.5"/>
<text text-anchor="middle" x="79.7041" y="-116.5" font-family="Helvetica,sans-Serif" font-size="10.00" fill="#000000">BayesFilters/ExogenousModel.h</text>
</a>
</g>
</g>
<!-- Node0&#45;&gt;Node1 -->
<g id="edge1" class="edge">
<title>Node0&#45;&gt;Node1</title>
<path fill="none" stroke="#191970" d="M338.8121,-220.3987C271.206,-194.0724 165.4896,-152.9056 112.4188,-132.2394"/>
<polygon fill="#191970" stroke="#191970" points="113.4265,-128.8758 102.838,-128.5085 110.8864,-135.3987 113.4265,-128.8758"/>
</g>
<!-- Node3 -->
<g id="node4" class="node">
<title>Node3</title>
<g id="a_node4"><a xlink:href="GaussianPrediction_8h.html" target="_top" xlink:title="BayesFilters/GaussianPrediction.h">
<polygon fill="#ffffff" stroke="#000000" points="493.2808,-110.5 493.2808,-128.5 662.1274,-128.5 662.1274,-110.5 493.2808,-110.5"/>
<text text-anchor="middle" x="577.7041" y="-116.5" font-family="Helvetica,sans-Serif" font-size="10.00" fill="#000000">BayesFilters/GaussianPrediction.h</text>
</a>
</g>
</g>
<!-- Node0&#45;&gt;Node3 -->
<g id="edge3" class="edge">
<title>Node0&#45;&gt;Node3</title>
<path fill="none" stroke="#191970" d="M434.8315,-220.3987C470.701,-195.0671 526.0267,-155.9954 556.2264,-134.6679"/>
<polygon fill="#191970" stroke="#191970" points="558.5933,-137.2812 564.7427,-128.6536 554.5552,-131.5633 558.5933,-137.2812"/>
</g>
<!-- Node6 -->
<g id="node7" class="node">
<title>Node6</title>
<g id="a_node7"><a xlink:href="ParticleSet_8h.html" target="_top" xlink:title="BayesFilters/ParticleSet.h">
<polygon fill="#ffffff" stroke="#000000" points="680.4604,-110.5 680.4604,-128.5 810.9478,-128.5 810.9478,-110.5 680.4604,-110.5"/>
<text text-anchor="middle" x="745.7041" y="-116.5" font-family="Helvetica,sans-Serif" font-size="10.00" fill="#000000">BayesFilters/ParticleSet.h</text>
</a>
</g>
</g>
<!-- Node0&#45;&gt;Node6 -->
<g id="edge8" class="edge">
<title>Node0&#45;&gt;Node6</title>
<path fill="none" stroke="#191970" d="M467.2236,-220.3987C540.1864,-193.9629 654.4503,-152.563 711.252,-131.9826"/>
<polygon fill="#191970" stroke="#191970" points="712.6309,-135.2058 720.8405,-128.5085 710.2463,-128.6244 712.6309,-135.2058"/>
</g>
<!-- Node7 -->
<g id="node8" class="node">
<title>Node7</title>
<g id="a_node8"><a xlink:href="PFPrediction_8h.html" target="_top" xlink:title="BayesFilters/PFPrediction.h">
<polygon fill="#ffffff" stroke="#000000" points="282.0146,-165.5 282.0146,-183.5 421.3936,-183.5 421.3936,-165.5 282.0146,-165.5"/>
<text text-anchor="middle" x="351.7041" y="-171.5" font-family="Helvetica,sans-Serif" font-size="10.00" fill="#000000">BayesFilters/PFPrediction.h</text>
</a>
</g>
</g>
<!-- Node0&#45;&gt;Node7 -->
<g id="edge11" class="edge">
<title>Node0&#45;&gt;Node7</title>
<path fill="none" stroke="#191970" d="M383.8411,-220.41C377.3355,-211.1162 370.0316,-200.6821 364.0328,-192.1124"/>
<polygon fill="#191970" stroke="#191970" points="366.7372,-189.8724 358.1352,-183.6872 361.0025,-193.8867 366.7372,-189.8724"/>
</g>
<!-- Node8 -->
<g id="node9" class="node">
<title>Node8</title>
<g id="a_node9"><a xlink:href="StateModel_8h.html" target="_top" xlink:title="BayesFilters/StateModel.h">
<polygon fill="#ffffff" stroke="#000000" points="177.3447,-110.5 177.3447,-128.5 310.0635,-128.5 310.0635,-110.5 177.3447,-110.5"/>
<text text-anchor="middle" x="243.7041" y="-116.5" font-family="Helvetica,sans-Serif" font-size="10.00" fill="#000000">BayesFilters/StateModel.h</text>
</a>
</g>
</g>
<!-- Node0&#45;&gt;Node8 -->
<g id="edge19" class="edge">
<title>Node0&#45;&gt;Node8</title>
<path fill="none" stroke="#191970" d="M327.2526,-220.4793C307.7117,-211.413 287.8528,-199.4393 272.7041,-184 260.3555,-171.4145 252.7353,-152.6516 248.4245,-138.6026"/>
<polygon fill="#191970" stroke="#191970" points="251.6854,-137.2619 245.6497,-128.5543 244.9379,-139.1252 251.6854,-137.2619"/>
</g>
<!-- Node9 -->
<g id="node10" class="node">
<title>Node9</title>
<polygon fill="#ffffff" stroke="#bfbfbf" points="423.6475,-110.5 423.6475,-128.5 475.7607,-128.5 475.7607,-110.5 423.6475,-110.5"/>
<text text-anchor="middle" x="449.7041" y="-116.5" font-family="Helvetica,sans-Serif" font-size="10.00" fill="#000000">memory</text>
</g>
<!-- Node0&#45;&gt;Node9 -->
<g id="edge20" class="edge">
<title>Node0&#45;&gt;Node9</title>
<path fill="none" stroke="#191970" d="M413.9553,-220.2128C419.5732,-209.3343 425.9142,-196.2259 430.7041,-184 436.5594,-169.0548 441.6061,-151.5566 445.0236,-138.5594"/>
<polygon fill="#191970" stroke="#191970" points="448.4187,-139.4096 447.4931,-128.8553 441.6349,-137.6832 448.4187,-139.4096"/>
</g>
<!-- Node2 -->
<g id="node3" class="node">
<title>Node2</title>
<polygon fill="#ffffff" stroke="#bfbfbf" points="301.0737,-.5 301.0737,-18.5 374.3345,-18.5 374.3345,-.5 301.0737,-.5"/>
<text text-anchor="middle" x="337.7041" y="-6.5" font-family="Helvetica,sans-Serif" font-size="10.00" fill="#000000">Eigen/Dense</text>
</g>
<!-- Node1&#45;&gt;Node2 -->
<g id="edge2" class="edge">
<title>Node1&#45;&gt;Node2</title>
<path fill="none" stroke="#191970" d="M100.8173,-110.4982C146.3623,-91.0798 253.9998,-45.1879 307.055,-22.5674"/>
<polygon fill="#191970" stroke="#191970" points="308.473,-25.7678 316.2991,-18.6261 305.7276,-19.3286 308.473,-25.7678"/>
</g>
<!-- Node3&#45;&gt;Node2 -->
<g id="edge7" class="edge">
<title>Node3&#45;&gt;Node2</title>
<path fill="none" stroke="#191970" d="M558.0639,-110.4982C515.8723,-91.1604 416.3985,-45.5683 366.8318,-22.8502"/>
<polygon fill="#191970" stroke="#191970" points="368.1647,-19.611 357.6157,-18.6261 365.248,-25.9745 368.1647,-19.611"/>
</g>
<!-- Node4 -->
<g id="node5" class="node">
<title>Node4</title>
<g id="a_node5"><a xlink:href="GaussianMixture_8h.html" target="_top" xlink:title="BayesFilters/GaussianMixture.h">
<polygon fill="#ffffff" stroke="#000000" points="514.123,-55.5 514.123,-73.5 671.2852,-73.5 671.2852,-55.5 514.123,-55.5"/>
<text text-anchor="middle" x="592.7041" y="-61.5" font-family="Helvetica,sans-Serif" font-size="10.00" fill="#000000">BayesFilters/GaussianMixture.h</text>
</a>
</g>
</g>
<!-- Node3&#45;&gt;Node4 -->
<g id="edge4" class="edge">
<title>Node3&#45;&gt;Node4</title>
<path fill="none" stroke="#191970" d="M580.181,-110.4179C582.1667,-103.1372 585.0217,-92.669 587.5043,-83.5659"/>
<polygon fill="#191970" stroke="#191970" points="590.9188,-84.348 590.1733,-73.7795 584.1654,-82.5062 590.9188,-84.348"/>
</g>
<!-- Node4&#45;&gt;Node2 -->
<g id="edge6" class="edge">
<title>Node4&#45;&gt;Node2</title>
<path fill="none" stroke="#191970" d="M550.8816,-55.4795C505.204,-45.6274 432.2206,-29.8859 384.6238,-19.6199"/>
<polygon fill="#191970" stroke="#191970" points="385.0905,-16.1402 374.5774,-17.4531 383.6146,-22.9828 385.0905,-16.1402"/>
</g>
<!-- Node5 -->
<g id="node6" class="node">
<title>Node5</title>
<polygon fill="#ffffff" stroke="#bfbfbf" points="639.0884,-.5 639.0884,-18.5 682.3198,-18.5 682.3198,-.5 639.0884,-.5"/>
<text text-anchor="middle" x="660.7041" y="-6.5" font-family="Helvetica,sans-Serif" font-size="10.00" fill="#000000">vector</text>
</g>
<!-- Node4&#45;&gt;Node5 -->
<g id="edge5" class="edge">
<title>Node4&#45;&gt;Node5</title>
<path fill="none" stroke="#191970" d="M603.9329,-55.4179C614.1086,-47.1876 629.3204,-34.8839 641.4372,-25.0836"/>
<polygon fill="#191970" stroke="#191970" points="643.6572,-27.7895 649.2313,-18.7795 639.2551,-22.3469 643.6572,-27.7895"/>
</g>
<!-- Node6&#45;&gt;Node4 -->
<g id="edge9" class="edge">
<title>Node6&#45;&gt;Node4</title>
<path fill="none" stroke="#191970" d="M720.4393,-110.4179C695.0048,-101.2748 655.586,-87.1046 627.2655,-76.924"/>
<polygon fill="#191970" stroke="#191970" points="628.3466,-73.5935 617.7522,-73.5042 625.9786,-80.1808 628.3466,-73.5935"/>
</g>
<!-- Node6&#45;&gt;Node5 -->
<g id="edge10" class="edge">
<title>Node6&#45;&gt;Node5</title>
<path fill="none" stroke="#191970" d="M738.7482,-110.4982C724.6147,-92.2079 692.3321,-50.4304 674.0224,-26.7354"/>
<polygon fill="#191970" stroke="#191970" points="676.6401,-24.3989 667.7561,-18.6261 671.1011,-28.6791 676.6401,-24.3989"/>
</g>
<!-- Node7&#45;&gt;Node1 -->
<g id="edge12" class="edge">
<title>Node7&#45;&gt;Node1</title>
<path fill="none" stroke="#191970" d="M307.0934,-165.4795C259.7597,-155.9083 184.937,-140.7787 134.1589,-130.5111"/>
<polygon fill="#191970" stroke="#191970" points="134.8345,-127.0769 124.3392,-128.5255 133.4471,-133.9381 134.8345,-127.0769"/>
</g>
<!-- Node7&#45;&gt;Node2 -->
<g id="edge16" class="edge">
<title>Node7&#45;&gt;Node2</title>
<path fill="none" stroke="#191970" d="M350.9113,-165.1561C348.6878,-138.9504 342.3585,-64.3557 339.3419,-28.8021"/>
<polygon fill="#191970" stroke="#191970" points="342.8212,-28.4097 338.4882,-18.7414 335.8463,-29.0015 342.8212,-28.4097"/>
</g>
<!-- Node7&#45;&gt;Node6 -->
<g id="edge13" class="edge">
<title>Node7&#45;&gt;Node6</title>
<path fill="none" stroke="#191970" d="M416.324,-165.4795C486.1738,-155.7288 597.3495,-140.2094 670.9249,-129.9387"/>
<polygon fill="#191970" stroke="#191970" points="671.6289,-133.3745 681.0489,-128.5255 670.661,-126.4417 671.6289,-133.3745"/>
</g>
<!-- Node7&#45;&gt;Node8 -->
<g id="edge14" class="edge">
<title>Node7&#45;&gt;Node8</title>
<path fill="none" stroke="#191970" d="M333.8701,-165.4179C316.6734,-156.6603 290.4205,-143.2907 270.6698,-133.2326"/>
<polygon fill="#191970" stroke="#191970" points="272.064,-130.0148 261.5646,-128.5956 268.8873,-136.2526 272.064,-130.0148"/>
</g>
<!-- Node7&#45;&gt;Node9 -->
<g id="edge17" class="edge">
<title>Node7&#45;&gt;Node9</title>
<path fill="none" stroke="#191970" d="M367.8868,-165.4179C383.3493,-156.7399 406.8809,-143.5334 424.745,-133.5077"/>
<polygon fill="#191970" stroke="#191970" points="426.4898,-136.542 433.4974,-128.5956 423.0639,-130.4377 426.4898,-136.542"/>
</g>
<!-- Node10 -->
<g id="node11" class="node">
<title>Node10</title>
<polygon fill="#ffffff" stroke="#bfbfbf" points="365.4775,-110.5 365.4775,-128.5 405.9307,-128.5 405.9307,-110.5 365.4775,-110.5"/>
<text text-anchor="middle" x="385.7041" y="-116.5" font-family="Helvetica,sans-Serif" font-size="10.00" fill="#000000">string</text>
</g>
<!-- Node7&#45;&gt;Node10 -->
<g id="edge18" class="edge">
<title>Node7&#45;&gt;Node10</title>
<path fill="none" stroke="#191970" d="M357.3185,-165.4179C362.015,-157.8207 368.857,-146.7527 374.6469,-137.3866"/>
<polygon fill="#191970" stroke="#191970" points="377.6865,-139.1258 379.9677,-128.7795 371.7324,-135.445 377.6865,-139.1258"/>
</g>
<!-- Node8&#45;&gt;Node2 -->
<g id="edge15" class="edge">
<title>Node8&#45;&gt;Node2</title>
<path fill="none" stroke="#191970" d="M251.3965,-110.4982C267.0953,-92.1273 303.0421,-50.0619 323.2423,-26.4233"/>
<polygon fill="#191970" stroke="#191970" points="326.0697,-28.5023 329.9054,-18.6261 320.748,-23.9547 326.0697,-28.5023"/>
</g>
</g>
</svg>
