<?xml version="1.0" encoding="UTF-8" standalone="no"?>
<!DOCTYPE svg PUBLIC "-//W3C//DTD SVG 1.1//EN"
 "http://www.w3.org/Graphics/SVG/1.1/DTD/svg11.dtd">
<!-- Generated by graphviz version 2.40.1 (20161225.0304)
 -->
<!-- Title: /Users/Claudio/GitHub/bayes&#45;filters&#45;lib/src/BayesFilters/include/BayesFilters/HistoryBuffer.h Pages: 1 -->
<svg width="377pt" height="217pt"
 viewBox="0.00 0.00 377.30 217.00" xmlns="http://www.w3.org/2000/svg" xmlns:xlink="http://www.w3.org/1999/xlink">
<g id="graph0" class="graph" transform="scale(1 1) rotate(0) translate(4 213)">
<title>/Users/Claudio/GitHub/bayes&#45;filters&#45;lib/src/BayesFilters/include/BayesFilters/HistoryBuffer.h</title>
<polygon fill="#ffffff" stroke="transparent" points="-4,4 -4,-213 373.2983,-213 373.2983,4 -4,4"/>
<!-- Node3 -->
<g id="node1" class="node">
<title>Node3</title>
<polygon fill="#bfbfbf" stroke="#000000" points="108.9458,-160.5 108.9458,-208.5 274.9995,-208.5 274.9995,-160.5 108.9458,-160.5"/>
<text text-anchor="start" x="116.9458" y="-196.5" font-family="Helvetica,sans-Serif" font-size="10.00" fill="#000000">/Users/Claudio/GitHub</text>
<text text-anchor="start" x="116.9458" y="-186.5" font-family="Helvetica,sans-Serif" font-size="10.00" fill="#000000">/bayes&#45;filters&#45;lib/src</text>
<text text-anchor="start" x="116.9458" y="-176.5" font-family="Helvetica,sans-Serif" font-size="10.00" fill="#000000">/BayesFilters/include/BayesFilters</text>
<text text-anchor="middle" x="191.9727" y="-166.5" font-family="Helvetica,sans-Serif" font-size="10.00" fill="#000000">/HistoryBuffer.h</text>
</g>
<!-- Node4 -->
<g id="node2" class="node">
<title>Node4</title>
<g id="a_node2"><a xlink:href="EstimatesExtraction_8h.html" target="_top" xlink:title="/Users/Claudio/GitHub\l/bayes&#45;filters&#45;lib/src\l/BayesFilters/include/BayesFilters\l/EstimatesExtraction.h">
<polygon fill="#ffffff" stroke="#000000" points="16.9458,-75.5 16.9458,-123.5 182.9995,-123.5 182.9995,-75.5 16.9458,-75.5"/>
<text text-anchor="start" x="24.9458" y="-111.5" font-family="Helvetica,sans-Serif" font-size="10.00" fill="#000000">/Users/Claudio/GitHub</text>
<text text-anchor="start" x="24.9458" y="-101.5" font-family="Helvetica,sans-Serif" font-size="10.00" fill="#000000">/bayes&#45;filters&#45;lib/src</text>
<text text-anchor="start" x="24.9458" y="-91.5" font-family="Helvetica,sans-Serif" font-size="10.00" fill="#000000">/BayesFilters/include/BayesFilters</text>
<text text-anchor="middle" x="99.9727" y="-81.5" font-family="Helvetica,sans-Serif" font-size="10.00" fill="#000000">/EstimatesExtraction.h</text>
</a>
</g>
</g>
<!-- Node3&#45;&gt;Node4 -->
<g id="edge1" class="edge">
<title>Node3&#45;&gt;Node4</title>
<path fill="none" stroke="#191970" d="M158.3327,-153.4196C147.7227,-143.6169 136.1651,-132.9387 126.1554,-123.6906"/>
<polygon fill="#191970" stroke="#191970" points="156.1351,-156.1544 165.8552,-160.3698 160.8854,-151.0129 156.1351,-156.1544"/>
</g>
<!-- Node6 -->
<g id="node4" class="node">
<title>Node6</title>
<g id="a_node4"><a xlink:href="HistoryBuffer_8cpp.html" target="_top" xlink:title="/Users/Claudio/GitHub\l/bayes&#45;filters&#45;lib/src\l/BayesFilters/src/HistoryBuffer.cpp">
<polygon fill="#ffffff" stroke="#000000" points="200.647,-80.5 200.647,-118.5 369.2983,-118.5 369.2983,-80.5 200.647,-80.5"/>
<text text-anchor="start" x="208.647" y="-106.5" font-family="Helvetica,sans-Serif" font-size="10.00" fill="#000000">/Users/Claudio/GitHub</text>
<text text-anchor="start" x="208.647" y="-96.5" font-family="Helvetica,sans-Serif" font-size="10.00" fill="#000000">/bayes&#45;filters&#45;lib/src</text>
<text text-anchor="middle" x="284.9727" y="-86.5" font-family="Helvetica,sans-Serif" font-size="10.00" fill="#000000">/BayesFilters/src/HistoryBuffer.cpp</text>
</a>
</g>
</g>
<!-- Node3&#45;&gt;Node6 -->
<g id="edge3" class="edge">
<title>Node3&#45;&gt;Node6</title>
<path fill="none" stroke="#191970" d="M226.0985,-153.3097C238.8427,-141.6617 252.9244,-128.7914 264.1197,-118.5591"/>
<polygon fill="#191970" stroke="#191970" points="223.3941,-151.0398 218.374,-160.3698 228.1167,-156.2068 223.3941,-151.0398"/>
</g>
<!-- Node5 -->
<g id="node3" class="node">
<title>Node5</title>
<g id="a_node3"><a xlink:href="EstimatesExtraction_8cpp.html" target="_top" xlink:title="/Users/Claudio/GitHub\l/bayes&#45;filters&#45;lib/src\l/BayesFilters/src/EstimatesExtraction.cpp">
<polygon fill="#ffffff" stroke="#000000" points="0,-.5 0,-38.5 199.9453,-38.5 199.9453,-.5 0,-.5"/>
<text text-anchor="start" x="8" y="-26.5" font-family="Helvetica,sans-Serif" font-size="10.00" fill="#000000">/Users/Claudio/GitHub</text>
<text text-anchor="start" x="8" y="-16.5" font-family="Helvetica,sans-Serif" font-size="10.00" fill="#000000">/bayes&#45;filters&#45;lib/src</text>
<text text-anchor="middle" x="99.9727" y="-6.5" font-family="Helvetica,sans-Serif" font-size="10.00" fill="#000000">/BayesFilters/src/EstimatesExtraction.cpp</text>
</a>
</g>
</g>
<!-- Node4&#45;&gt;Node5 -->
<g id="edge2" class="edge">
<title>Node4&#45;&gt;Node5</title>
<path fill="none" stroke="#191970" d="M99.9727,-65.4405C99.9727,-56.2795 99.9727,-46.6933 99.9727,-38.662"/>
<polygon fill="#191970" stroke="#191970" points="96.4728,-65.4973 99.9727,-75.4974 103.4728,-65.4974 96.4728,-65.4973"/>
</g>
</g>
</svg>
