<?xml version="1.0" encoding="UTF-8" standalone="no"?>
<!DOCTYPE svg PUBLIC "-//W3C//DTD SVG 1.1//EN"
 "http://www.w3.org/Graphics/SVG/1.1/DTD/svg11.dtd">
<!-- Generated by graphviz version 2.40.1 (20161225.0304)
 -->
<!-- Title: /Users/Claudio/GitHub/bayes&#45;filters&#45;lib/src/BayesFilters/src/HistoryBuffer.cpp Pages: 1 -->
<svg width="177pt" height="157pt"
 viewBox="0.00 0.00 176.65 157.00" xmlns="http://www.w3.org/2000/svg" xmlns:xlink="http://www.w3.org/1999/xlink">
<g id="graph0" class="graph" transform="scale(1 1) rotate(0) translate(4 153)">
<title>/Users/Claudio/GitHub/bayes&#45;filters&#45;lib/src/BayesFilters/src/HistoryBuffer.cpp</title>
<polygon fill="#ffffff" stroke="transparent" points="-4,4 -4,-153 172.6514,-153 172.6514,4 -4,4"/>
<!-- Node0 -->
<g id="node1" class="node">
<title>Node0</title>
<polygon fill="#bfbfbf" stroke="#000000" points="0,-110.5 0,-148.5 168.6514,-148.5 168.6514,-110.5 0,-110.5"/>
<text text-anchor="start" x="8" y="-136.5" font-family="Helvetica,sans-Serif" font-size="10.00" fill="#000000">/Users/Claudio/GitHub</text>
<text text-anchor="start" x="8" y="-126.5" font-family="Helvetica,sans-Serif" font-size="10.00" fill="#000000">/bayes&#45;filters&#45;lib/src</text>
<text text-anchor="middle" x="84.3257" y="-116.5" font-family="Helvetica,sans-Serif" font-size="10.00" fill="#000000">/BayesFilters/src/HistoryBuffer.cpp</text>
</g>
<!-- Node1 -->
<g id="node2" class="node">
<title>Node1</title>
<g id="a_node2"><a xlink:href="HistoryBuffer_8h.html" target="_top" xlink:title="BayesFilters/HistoryBuffer.h">
<polygon fill="#ffffff" stroke="#000000" points="14.7241,-55.5 14.7241,-73.5 153.9272,-73.5 153.9272,-55.5 14.7241,-55.5"/>
<text text-anchor="middle" x="84.3257" y="-61.5" font-family="Helvetica,sans-Serif" font-size="10.00" fill="#000000">BayesFilters/HistoryBuffer.h</text>
</a>
</g>
</g>
<!-- Node0&#45;&gt;Node1 -->
<g id="edge1" class="edge">
<title>Node0&#45;&gt;Node1</title>
<path fill="none" stroke="#191970" d="M84.3257,-110.3494C84.3257,-102.0079 84.3257,-92.2463 84.3257,-83.879"/>
<polygon fill="#191970" stroke="#191970" points="87.8258,-83.5978 84.3257,-73.5978 80.8258,-83.5979 87.8258,-83.5978"/>
</g>
<!-- Node2 -->
<g id="node3" class="node">
<title>Node2</title>
<polygon fill="#ffffff" stroke="#bfbfbf" points="26.4219,-.5 26.4219,-18.5 70.2295,-18.5 70.2295,-.5 26.4219,-.5"/>
<text text-anchor="middle" x="48.3257" y="-6.5" font-family="Helvetica,sans-Serif" font-size="10.00" fill="#000000">deque</text>
</g>
<!-- Node1&#45;&gt;Node2 -->
<g id="edge2" class="edge">
<title>Node1&#45;&gt;Node2</title>
<path fill="none" stroke="#191970" d="M78.381,-55.4179C73.4083,-47.8207 66.1638,-36.7527 60.0333,-27.3866"/>
<polygon fill="#191970" stroke="#191970" points="62.8046,-25.2297 54.3995,-18.7795 56.9477,-29.0633 62.8046,-25.2297"/>
</g>
<!-- Node3 -->
<g id="node4" class="node">
<title>Node3</title>
<polygon fill="#ffffff" stroke="#bfbfbf" points="88.311,-.5 88.311,-18.5 154.3403,-18.5 154.3403,-.5 88.311,-.5"/>
<text text-anchor="middle" x="121.3257" y="-6.5" font-family="Helvetica,sans-Serif" font-size="10.00" fill="#000000">Eigen/Core</text>
</g>
<!-- Node1&#45;&gt;Node3 -->
<g id="edge3" class="edge">
<title>Node1&#45;&gt;Node3</title>
<path fill="none" stroke="#191970" d="M90.4355,-55.4179C95.5996,-47.7415 103.1474,-36.5217 109.4894,-27.0945"/>
<polygon fill="#191970" stroke="#191970" points="112.4054,-29.0303 115.0831,-18.7795 106.5973,-25.1231 112.4054,-29.0303"/>
</g>
</g>
</svg>
