<?xml version="1.0" encoding="UTF-8" standalone="no"?>
<!DOCTYPE svg PUBLIC "-//W3C//DTD SVG 1.1//EN"
 "http://www.w3.org/Graphics/SVG/1.1/DTD/svg11.dtd">
<!-- Generated by graphviz version 2.40.1 (20161225.0304)
 -->
<!-- Title: /Users/Claudio/GitHub/bayes&#45;filters&#45;lib/src/BayesFilters/include/BayesFilters/HistoryBuffer.h Pages: 1 -->
<svg width="174pt" height="112pt"
 viewBox="0.00 0.00 174.05 112.00" xmlns="http://www.w3.org/2000/svg" xmlns:xlink="http://www.w3.org/1999/xlink">
<g id="graph0" class="graph" transform="scale(1 1) rotate(0) translate(4 108)">
<title>/Users/Claudio/GitHub/bayes&#45;filters&#45;lib/src/BayesFilters/include/BayesFilters/HistoryBuffer.h</title>
<polygon fill="#ffffff" stroke="transparent" points="-4,4 -4,-108 170.0537,-108 170.0537,4 -4,4"/>
<!-- Node0 -->
<g id="node1" class="node">
<title>Node0</title>
<polygon fill="#bfbfbf" stroke="#000000" points="0,-55.5 0,-103.5 166.0537,-103.5 166.0537,-55.5 0,-55.5"/>
<text text-anchor="start" x="8" y="-91.5" font-family="Helvetica,sans-Serif" font-size="10.00" fill="#000000">/Users/Claudio/GitHub</text>
<text text-anchor="start" x="8" y="-81.5" font-family="Helvetica,sans-Serif" font-size="10.00" fill="#000000">/bayes&#45;filters&#45;lib/src</text>
<text text-anchor="start" x="8" y="-71.5" font-family="Helvetica,sans-Serif" font-size="10.00" fill="#000000">/BayesFilters/include/BayesFilters</text>
<text text-anchor="middle" x="83.0269" y="-61.5" font-family="Helvetica,sans-Serif" font-size="10.00" fill="#000000">/HistoryBuffer.h</text>
</g>
<!-- Node1 -->
<g id="node2" class="node">
<title>Node1</title>
<polygon fill="#ffffff" stroke="#bfbfbf" points="25.123,-.5 25.123,-18.5 68.9307,-18.5 68.9307,-.5 25.123,-.5"/>
<text text-anchor="middle" x="47.0269" y="-6.5" font-family="Helvetica,sans-Serif" font-size="10.00" fill="#000000">deque</text>
</g>
<!-- Node0&#45;&gt;Node1 -->
<g id="edge1" class="edge">
<title>Node0&#45;&gt;Node1</title>
<path fill="none" stroke="#191970" d="M70.6377,-55.41C65.9598,-46.314 60.72,-36.1256 56.3673,-27.6619"/>
<polygon fill="#191970" stroke="#191970" points="59.4378,-25.9794 51.7517,-18.6872 53.2127,-29.1809 59.4378,-25.9794"/>
</g>
<!-- Node2 -->
<g id="node3" class="node">
<title>Node2</title>
<polygon fill="#ffffff" stroke="#bfbfbf" points="87.0122,-.5 87.0122,-18.5 153.0415,-18.5 153.0415,-.5 87.0122,-.5"/>
<text text-anchor="middle" x="120.0269" y="-6.5" font-family="Helvetica,sans-Serif" font-size="10.00" fill="#000000">Eigen/Core</text>
</g>
<!-- Node0&#45;&gt;Node2 -->
<g id="edge2" class="edge">
<title>Node0&#45;&gt;Node2</title>
<path fill="none" stroke="#191970" d="M95.7602,-55.41C100.568,-46.314 105.9533,-36.1256 110.427,-27.6619"/>
<polygon fill="#191970" stroke="#191970" points="113.592,-29.1638 115.1707,-18.6872 107.4033,-25.8926 113.592,-29.1638"/>
</g>
</g>
</svg>
