<?xml version="1.0" encoding="UTF-8" standalone="no"?>
<!DOCTYPE svg PUBLIC "-//W3C//DTD SVG 1.1//EN"
 "http://www.w3.org/Graphics/SVG/1.1/DTD/svg11.dtd">
<!-- Generated by graphviz version 2.40.1 (20161225.0304)
 -->
<!-- Title: Graphical Class Hierarchy Pages: 1 -->
<svg width="574pt" height="83pt"
 viewBox="0.00 0.00 574.09 83.00" xmlns="http://www.w3.org/2000/svg" xmlns:xlink="http://www.w3.org/1999/xlink">
<g id="graph0" class="graph" transform="scale(1 1) rotate(0) translate(4 79)">
<title>Graphical Class Hierarchy</title>
<polygon fill="#ffffff" stroke="transparent" points="-4,4 -4,-79 570.0918,-79 570.0918,4 -4,4"/>
<!-- Node0 -->
<g id="node1" class="node">
<title>Node0</title>
<g id="a_node1"><a xlink:href="classbfl_1_1StateModel.html" target="_top" xlink:title="bfl::StateModel">
<polygon fill="#ffffff" stroke="#000000" points="0,-18.5 0,-36.5 82.7041,-36.5 82.7041,-18.5 0,-18.5"/>
<text text-anchor="middle" x="41.3521" y="-24.5" font-family="Helvetica,sans-Serif" font-size="10.00" fill="#000000">bfl::StateModel</text>
</a>
</g>
</g>
<!-- Node1 -->
<g id="node2" class="node">
<title>Node1</title>
<g id="a_node2"><a xlink:href="classbfl_1_1AdditiveStateModel.html" target="_top" xlink:title="bfl::AdditiveStateModel">
<polygon fill="#ffffff" stroke="#000000" points="122.8691,-37.5 122.8691,-55.5 241.1494,-55.5 241.1494,-37.5 122.8691,-37.5"/>
<text text-anchor="middle" x="182.0093" y="-43.5" font-family="Helvetica,sans-Serif" font-size="10.00" fill="#000000">bfl::AdditiveStateModel</text>
</a>
</g>
</g>
<!-- Node0&#45;&gt;Node1 -->
<g id="edge1" class="edge">
<title>Node0&#45;&gt;Node1</title>
<path fill="none" stroke="#191970" d="M92.7036,-34.4366C102.4286,-35.7502 112.6768,-37.1346 122.6255,-38.4784"/>
<polygon fill="#191970" stroke="#191970" points="93.1716,-30.9681 82.7931,-33.0979 92.2345,-37.9051 93.1716,-30.9681"/>
</g>
<!-- Node5 -->
<g id="node6" class="node">
<title>Node5</title>
<g id="a_node6"><a xlink:href="classbfl_1_1StateModelDecorator.html" target="_top" xlink:title="bfl::StateModelDecorator">
<polygon fill="#ffffff" stroke="#000000" points="118.7041,-.5 118.7041,-18.5 245.3145,-18.5 245.3145,-.5 118.7041,-.5"/>
<text text-anchor="middle" x="182.0093" y="-6.5" font-family="Helvetica,sans-Serif" font-size="10.00" fill="#000000">bfl::StateModelDecorator</text>
</a>
</g>
</g>
<!-- Node0&#45;&gt;Node5 -->
<g id="edge5" class="edge">
<title>Node0&#45;&gt;Node5</title>
<path fill="none" stroke="#191970" d="M92.8253,-20.9129C101.2372,-19.8365 110.0377,-18.7103 118.695,-17.6024"/>
<polygon fill="#191970" stroke="#191970" points="92.2679,-17.4556 82.7931,-22.1968 93.1565,-24.399 92.2679,-17.4556"/>
</g>
<!-- Node2 -->
<g id="node3" class="node">
<title>Node2</title>
<g id="a_node3"><a xlink:href="classbfl_1_1LinearStateModel.html" target="_top" xlink:title="bfl::LinearStateModel">
<polygon fill="#ffffff" stroke="#000000" points="281.3145,-37.5 281.3145,-55.5 391.8164,-55.5 391.8164,-37.5 281.3145,-37.5"/>
<text text-anchor="middle" x="336.5654" y="-43.5" font-family="Helvetica,sans-Serif" font-size="10.00" fill="#000000">bfl::LinearStateModel</text>
</a>
</g>
</g>
<!-- Node1&#45;&gt;Node2 -->
<g id="edge2" class="edge">
<title>Node1&#45;&gt;Node2</title>
<path fill="none" stroke="#191970" d="M251.58,-46.5C261.5092,-46.5 271.6098,-46.5 281.2173,-46.5"/>
<polygon fill="#191970" stroke="#191970" points="251.3227,-43.0001 241.3227,-46.5 251.3227,-50.0001 251.3227,-43.0001"/>
</g>
<!-- Node3 -->
<g id="node4" class="node">
<title>Node3</title>
<g id="a_node4"><a xlink:href="classbfl_1_1LTIStateModel.html" target="_top" xlink:title="bfl::LTIStateModel">
<polygon fill="#ffffff" stroke="#000000" points="448.7466,-56.5 448.7466,-74.5 545.1616,-74.5 545.1616,-56.5 448.7466,-56.5"/>
<text text-anchor="middle" x="496.9541" y="-62.5" font-family="Helvetica,sans-Serif" font-size="10.00" fill="#000000">bfl::LTIStateModel</text>
</a>
</g>
</g>
<!-- Node2&#45;&gt;Node3 -->
<g id="edge3" class="edge">
<title>Node2&#45;&gt;Node3</title>
<path fill="none" stroke="#191970" d="M402.271,-54.2836C417.7816,-56.121 434.0401,-58.0471 448.6207,-59.7743"/>
<polygon fill="#191970" stroke="#191970" points="402.5538,-50.7927 392.2115,-53.092 401.7303,-57.7441 402.5538,-50.7927"/>
</g>
<!-- Node4 -->
<g id="node5" class="node">
<title>Node4</title>
<g id="a_node5"><a xlink:href="classbfl_1_1WhiteNoiseAcceleration.html" target="_top" xlink:title="bfl::WhiteNoiseAcceleration">
<polygon fill="#ffffff" stroke="#000000" points="427.8164,-19.5 427.8164,-37.5 566.0918,-37.5 566.0918,-19.5 427.8164,-19.5"/>
<text text-anchor="middle" x="496.9541" y="-25.5" font-family="Helvetica,sans-Serif" font-size="10.00" fill="#000000">bfl::WhiteNoiseAcceleration</text>
</a>
</g>
</g>
<!-- Node2&#45;&gt;Node4 -->
<g id="edge4" class="edge">
<title>Node2&#45;&gt;Node4</title>
<path fill="none" stroke="#191970" d="M402.2557,-39.1278C410.5991,-38.1914 419.1591,-37.2307 427.5582,-36.2881"/>
<polygon fill="#191970" stroke="#191970" points="401.7587,-35.6615 392.2115,-40.255 402.5395,-42.6178 401.7587,-35.6615"/>
</g>
</g>
</svg>
