<?xml version="1.0" encoding="UTF-8" standalone="no"?>
<!DOCTYPE svg PUBLIC "-//W3C//DTD SVG 1.1//EN"
 "http://www.w3.org/Graphics/SVG/1.1/DTD/svg11.dtd">
<!-- Generated by graphviz version 2.40.1 (20161225.0304)
 -->
<!-- Title: Graphical Class Hierarchy Pages: 1 -->
<svg width="270pt" height="101pt"
 viewBox="0.00 0.00 269.96 101.00" xmlns="http://www.w3.org/2000/svg" xmlns:xlink="http://www.w3.org/1999/xlink">
<g id="graph0" class="graph" transform="scale(1 1) rotate(0) translate(4 97)">
<title>Graphical Class Hierarchy</title>
<polygon fill="#ffffff" stroke="transparent" points="-4,4 -4,-97 265.9551,-97 265.9551,4 -4,4"/>
<!-- Node0 -->
<g id="node1" class="node">
<title>Node0</title>
<g id="a_node1"><a xlink:href="classbfl_1_1PFCorrection.html" target="_top" xlink:title="bfl::PFCorrection">
<polygon fill="#ffffff" stroke="#000000" points="0,-37.5 0,-55.5 91.0244,-55.5 91.0244,-37.5 0,-37.5"/>
<text text-anchor="middle" x="45.5122" y="-43.5" font-family="Helvetica,sans-Serif" font-size="10.00" fill="#000000">bfl::PFCorrection</text>
</a>
</g>
</g>
<!-- Node1 -->
<g id="node2" class="node">
<title>Node1</title>
<g id="a_node2"><a xlink:href="classbfl_1_1BoostrapCorrection.html" target="_top" xlink:title="bfl::BoostrapCorrection">
<polygon fill="#ffffff" stroke="#000000" points="135.3545,-74.5 135.3545,-92.5 253.625,-92.5 253.625,-74.5 135.3545,-74.5"/>
<text text-anchor="middle" x="194.4897" y="-80.5" font-family="Helvetica,sans-Serif" font-size="10.00" fill="#000000">bfl::BoostrapCorrection</text>
</a>
</g>
</g>
<!-- Node0&#45;&gt;Node1 -->
<g id="edge1" class="edge">
<title>Node0&#45;&gt;Node1</title>
<path fill="none" stroke="#191970" d="M91.8026,-57.9967C113.1745,-63.3046 138.1798,-69.5149 158.1641,-74.4782"/>
<polygon fill="#191970" stroke="#191970" points="92.505,-54.5649 81.9562,-55.5512 90.8177,-61.3585 92.505,-54.5649"/>
</g>
<!-- Node2 -->
<g id="node3" class="node">
<title>Node2</title>
<g id="a_node3"><a xlink:href="classbfl_1_1GPFCorrection.html" target="_top" xlink:title="bfl::GPFCorrection">
<polygon fill="#ffffff" stroke="#000000" points="145.0884,-37.5 145.0884,-55.5 243.8911,-55.5 243.8911,-37.5 145.0884,-37.5"/>
<text text-anchor="middle" x="194.4897" y="-43.5" font-family="Helvetica,sans-Serif" font-size="10.00" fill="#000000">bfl::GPFCorrection</text>
</a>
</g>
</g>
<!-- Node0&#45;&gt;Node2 -->
<g id="edge2" class="edge">
<title>Node0&#45;&gt;Node2</title>
<path fill="none" stroke="#191970" d="M101.578,-46.5C115.7963,-46.5 130.9702,-46.5 144.8452,-46.5"/>
<polygon fill="#191970" stroke="#191970" points="101.426,-43.0001 91.426,-46.5 101.426,-50.0001 101.426,-43.0001"/>
</g>
<!-- Node3 -->
<g id="node4" class="node">
<title>Node3</title>
<g id="a_node4"><a xlink:href="classbfl_1_1PFCorrectionDecorator.html" target="_top" xlink:title="bfl::PFCorrectionDecorator">
<polygon fill="#ffffff" stroke="#000000" points="127.0244,-.5 127.0244,-18.5 261.9551,-18.5 261.9551,-.5 127.0244,-.5"/>
<text text-anchor="middle" x="194.4897" y="-6.5" font-family="Helvetica,sans-Serif" font-size="10.00" fill="#000000">bfl::PFCorrectionDecorator</text>
</a>
</g>
</g>
<!-- Node0&#45;&gt;Node3 -->
<g id="edge3" class="edge">
<title>Node0&#45;&gt;Node3</title>
<path fill="none" stroke="#191970" d="M91.8026,-35.0033C113.1745,-29.6954 138.1798,-23.4851 158.1641,-18.5218"/>
<polygon fill="#191970" stroke="#191970" points="90.8177,-31.6415 81.9562,-37.4488 92.505,-38.4351 90.8177,-31.6415"/>
</g>
</g>
</svg>
