<?xml version="1.0" encoding="UTF-8" standalone="no"?>
<!DOCTYPE svg PUBLIC "-//W3C//DTD SVG 1.1//EN"
 "http://www.w3.org/Graphics/SVG/1.1/DTD/svg11.dtd">
<!-- Generated by graphviz version 2.40.1 (20161225.0304)
 -->
<!-- Title: Graphical Class Hierarchy Pages: 1 -->
<svg width="961pt" height="185pt"
 viewBox="0.00 0.00 961.39 185.00" xmlns="http://www.w3.org/2000/svg" xmlns:xlink="http://www.w3.org/1999/xlink">
<g id="graph0" class="graph" transform="scale(1 1) rotate(0) translate(4 181)">
<title>Graphical Class Hierarchy</title>
<polygon fill="#ffffff" stroke="transparent" points="-4,4 -4,-181 957.3877,-181 957.3877,4 -4,4"/>
<!-- Node56 -->
<g id="node1" class="node">
<title>Node56</title>
<g id="a_node1"><a xlink:href="classbfl_1_1Agent.html" target="_top" xlink:title="bfl::Agent">
<polygon fill="#ffffff" stroke="#000000" points="2.5024,-139.5 2.5024,-157.5 60.7534,-157.5 60.7534,-139.5 2.5024,-139.5"/>
<text text-anchor="middle" x="31.6279" y="-145.5" font-family="Helvetica,sans-Serif" font-size="10.00" fill="#000000">bfl::Agent</text>
</a>
</g>
</g>
<!-- Node13 -->
<g id="node2" class="node">
<title>Node13</title>
<g id="a_node2"><a xlink:href="classbfl_1_1SimulatedStateModel.html" target="_top" xlink:title="bfl::SimulatedStateModel">
<polygon fill="#ffffff" stroke="#000000" points="99.2559,-139.5 99.2559,-157.5 226.4277,-157.5 226.4277,-139.5 99.2559,-139.5"/>
<text text-anchor="middle" x="162.8418" y="-145.5" font-family="Helvetica,sans-Serif" font-size="10.00" fill="#000000">bfl::SimulatedStateModel</text>
</a>
</g>
</g>
<!-- Node56&#45;&gt;Node13 -->
<g id="edge1" class="edge">
<title>Node56&#45;&gt;Node13</title>
<path fill="none" stroke="#191970" d="M71.0858,-148.5C79.9534,-148.5 89.5831,-148.5 99.1582,-148.5"/>
<polygon fill="#191970" stroke="#191970" points="71.0749,-145.0001 61.0749,-148.5 71.0748,-152.0001 71.0749,-145.0001"/>
</g>
<!-- Node0 -->
<g id="node3" class="node">
<title>Node0</title>
<g id="a_node3"><a xlink:href="classbfl_1_1Logger.html" target="_top" xlink:title="bfl::Logger">
<polygon fill="#ffffff" stroke="#000000" points="0,-102.5 0,-120.5 63.2559,-120.5 63.2559,-102.5 0,-102.5"/>
<text text-anchor="middle" x="31.6279" y="-108.5" font-family="Helvetica,sans-Serif" font-size="10.00" fill="#000000">bfl::Logger</text>
</a>
</g>
</g>
<!-- Node0&#45;&gt;Node13 -->
<g id="edge14" class="edge">
<title>Node0&#45;&gt;Node13</title>
<path fill="none" stroke="#191970" d="M73.1295,-123.2027C91.815,-128.4717 113.5306,-134.5951 130.9163,-139.4976"/>
<polygon fill="#191970" stroke="#191970" points="73.9657,-119.8021 63.3911,-120.4567 72.0659,-126.5394 73.9657,-119.8021"/>
</g>
<!-- Node1 -->
<g id="node4" class="node">
<title>Node1</title>
<g id="a_node4"><a xlink:href="classbfl_1_1FilteringAlgorithm.html" target="_top" xlink:title="bfl::FilteringAlgorithm">
<polygon fill="#ffffff" stroke="#000000" points="107.8813,-102.5 107.8813,-120.5 217.8022,-120.5 217.8022,-102.5 107.8813,-102.5"/>
<text text-anchor="middle" x="162.8418" y="-108.5" font-family="Helvetica,sans-Serif" font-size="10.00" fill="#000000">bfl::FilteringAlgorithm</text>
</a>
</g>
</g>
<!-- Node0&#45;&gt;Node1 -->
<g id="edge2" class="edge">
<title>Node0&#45;&gt;Node1</title>
<path fill="none" stroke="#191970" d="M73.4954,-111.5C84.4074,-111.5 96.3322,-111.5 107.8131,-111.5"/>
<polygon fill="#191970" stroke="#191970" points="73.3912,-108.0001 63.3911,-111.5 73.3911,-115.0001 73.3912,-108.0001"/>
</g>
<!-- Node6 -->
<g id="node9" class="node">
<title>Node6</title>
<g id="a_node9"><a xlink:href="classbfl_1_1MeasurementModel.html" target="_top" xlink:title="bfl::MeasurementModel">
<polygon fill="#ffffff" stroke="#000000" points="102.5957,-42.5 102.5957,-60.5 223.0879,-60.5 223.0879,-42.5 102.5957,-42.5"/>
<text text-anchor="middle" x="162.8418" y="-48.5" font-family="Helvetica,sans-Serif" font-size="10.00" fill="#000000">bfl::MeasurementModel</text>
</a>
</g>
</g>
<!-- Node0&#45;&gt;Node6 -->
<g id="edge7" class="edge">
<title>Node0&#45;&gt;Node6</title>
<path fill="none" stroke="#191970" d="M60.9339,-98.0993C85.9905,-86.6417 121.3569,-70.4698 143.1556,-60.5019"/>
<polygon fill="#191970" stroke="#191970" points="59.1953,-95.0457 51.5565,-102.3873 62.1063,-101.4117 59.1953,-95.0457"/>
</g>
<!-- Node2 -->
<g id="node5" class="node">
<title>Node2</title>
<g id="a_node5"><a xlink:href="classbfl_1_1GaussianFilter.html" target="_top" xlink:title="bfl::GaussianFilter">
<polygon fill="#ffffff" stroke="#000000" points="296.334,-158.5 296.334,-176.5 392.9199,-176.5 392.9199,-158.5 296.334,-158.5"/>
<text text-anchor="middle" x="344.627" y="-164.5" font-family="Helvetica,sans-Serif" font-size="10.00" fill="#000000">bfl::GaussianFilter</text>
</a>
</g>
</g>
<!-- Node1&#45;&gt;Node2 -->
<g id="edge3" class="edge">
<title>Node1&#45;&gt;Node2</title>
<path fill="none" stroke="#191970" d="M207.5459,-123.652C213.953,-125.7411 220.4086,-128.0399 226.4277,-130.5 243.1747,-137.3446 245.4366,-143.2862 262.4277,-149.5 273.1294,-153.4137 284.9407,-156.6135 296.1919,-159.1711"/>
<polygon fill="#191970" stroke="#191970" points="208.1758,-120.1823 197.5873,-120.5487 206.0932,-126.8654 208.1758,-120.1823"/>
</g>
<!-- Node3 -->
<g id="node6" class="node">
<title>Node3</title>
<g id="a_node6"><a xlink:href="classbfl_1_1ParticleFilter.html" target="_top" xlink:title="bfl::ParticleFilter">
<polygon fill="#ffffff" stroke="#000000" points="300.7847,-121.5 300.7847,-139.5 388.4692,-139.5 388.4692,-121.5 300.7847,-121.5"/>
<text text-anchor="middle" x="344.627" y="-127.5" font-family="Helvetica,sans-Serif" font-size="10.00" fill="#000000">bfl::ParticleFilter</text>
</a>
</g>
</g>
<!-- Node1&#45;&gt;Node3 -->
<g id="edge4" class="edge">
<title>Node1&#45;&gt;Node3</title>
<path fill="none" stroke="#191970" d="M228.0359,-118.314C252.1687,-120.8364 278.9349,-123.6339 300.7287,-125.9118"/>
<polygon fill="#191970" stroke="#191970" points="228.1863,-114.8108 217.8767,-117.2522 227.4586,-121.7728 228.1863,-114.8108"/>
</g>
<!-- Node5 -->
<g id="node8" class="node">
<title>Node5</title>
<g id="a_node8"><a xlink:href="classbfl_1_1UnscentedKalmanFilter.html" target="_top" xlink:title="bfl::UnscentedKalmanFilter">
<polygon fill="#ffffff" stroke="#000000" points="276.6001,-84.5 276.6001,-102.5 412.6538,-102.5 412.6538,-84.5 276.6001,-84.5"/>
<text text-anchor="middle" x="344.627" y="-90.5" font-family="Helvetica,sans-Serif" font-size="10.00" fill="#000000">bfl::UnscentedKalmanFilter</text>
</a>
</g>
</g>
<!-- Node1&#45;&gt;Node5 -->
<g id="edge6" class="edge">
<title>Node1&#45;&gt;Node5</title>
<path fill="none" stroke="#191970" d="M227.9952,-105.0486C243.67,-103.4966 260.458,-101.8342 276.2741,-100.2682"/>
<polygon fill="#191970" stroke="#191970" points="227.4831,-101.5821 217.8767,-106.0506 228.1729,-108.5481 227.4831,-101.5821"/>
</g>
<!-- Node4 -->
<g id="node7" class="node">
<title>Node4</title>
<g id="a_node7"><a xlink:href="classbfl_1_1SIS.html" target="_top" xlink:title="bfl::SIS">
<polygon fill="#ffffff" stroke="#000000" points="512.853,-121.5 512.853,-139.5 561.0894,-139.5 561.0894,-121.5 512.853,-121.5"/>
<text text-anchor="middle" x="536.9712" y="-127.5" font-family="Helvetica,sans-Serif" font-size="10.00" fill="#000000">bfl::SIS</text>
</a>
</g>
</g>
<!-- Node3&#45;&gt;Node4 -->
<g id="edge5" class="edge">
<title>Node3&#45;&gt;Node4</title>
<path fill="none" stroke="#191970" d="M399.0045,-130.5C436.4183,-130.5 484.3092,-130.5 512.7043,-130.5"/>
<polygon fill="#191970" stroke="#191970" points="398.7546,-127.0001 388.7546,-130.5 398.7546,-134.0001 398.7546,-127.0001"/>
</g>
<!-- Node7 -->
<g id="node10" class="node">
<title>Node7</title>
<g id="a_node10"><a xlink:href="classbfl_1_1AdditiveMeasurementModel.html" target="_top" xlink:title="bfl::AdditiveMeasurement\lModel">
<polygon fill="#ffffff" stroke="#000000" points="280.2109,-37.5 280.2109,-65.5 409.043,-65.5 409.043,-37.5 280.2109,-37.5"/>
<text text-anchor="start" x="288.2109" y="-53.5" font-family="Helvetica,sans-Serif" font-size="10.00" fill="#000000">bfl::AdditiveMeasurement</text>
<text text-anchor="middle" x="344.627" y="-43.5" font-family="Helvetica,sans-Serif" font-size="10.00" fill="#000000">Model</text>
</a>
</g>
</g>
<!-- Node6&#45;&gt;Node7 -->
<g id="edge8" class="edge">
<title>Node6&#45;&gt;Node7</title>
<path fill="none" stroke="#191970" d="M233.1436,-51.5C248.6097,-51.5 264.9154,-51.5 280.139,-51.5"/>
<polygon fill="#191970" stroke="#191970" points="233.1212,-48.0001 223.1211,-51.5 233.1211,-55.0001 233.1212,-48.0001"/>
</g>
<!-- Node12 -->
<g id="node15" class="node">
<title>Node12</title>
<g id="a_node15"><a xlink:href="classbfl_1_1MeasurementModelDecorator.html" target="_top" xlink:title="bfl::MeasurementModelDecorator">
<polygon fill="#ffffff" stroke="#000000" points="262.4277,-.5 262.4277,-18.5 426.8262,-18.5 426.8262,-.5 262.4277,-.5"/>
<text text-anchor="middle" x="344.627" y="-6.5" font-family="Helvetica,sans-Serif" font-size="10.00" fill="#000000">bfl::MeasurementModelDecorator</text>
</a>
</g>
</g>
<!-- Node6&#45;&gt;Node12 -->
<g id="edge13" class="edge">
<title>Node6&#45;&gt;Node12</title>
<path fill="none" stroke="#191970" d="M209.718,-39.9895C226.3462,-35.963 245.2042,-31.4608 262.4277,-27.5 275.3836,-24.5206 289.5152,-21.385 302.3496,-18.5806"/>
<polygon fill="#191970" stroke="#191970" points="208.5786,-36.6644 199.6874,-42.426 210.231,-43.4666 208.5786,-36.6644"/>
</g>
<!-- Node8 -->
<g id="node11" class="node">
<title>Node8</title>
<g id="a_node11"><a xlink:href="classbfl_1_1LinearMeasurementModel.html" target="_top" xlink:title="bfl::LinearMeasurementModel">
<polygon fill="#ffffff" stroke="#000000" points="462.8262,-42.5 462.8262,-60.5 611.1162,-60.5 611.1162,-42.5 462.8262,-42.5"/>
<text text-anchor="middle" x="536.9712" y="-48.5" font-family="Helvetica,sans-Serif" font-size="10.00" fill="#000000">bfl::LinearMeasurementModel</text>
</a>
</g>
</g>
<!-- Node7&#45;&gt;Node8 -->
<g id="edge9" class="edge">
<title>Node7&#45;&gt;Node8</title>
<path fill="none" stroke="#191970" d="M419.403,-51.5C433.5861,-51.5 448.4233,-51.5 462.5941,-51.5"/>
<polygon fill="#191970" stroke="#191970" points="419.2099,-48.0001 409.2099,-51.5 419.2098,-55.0001 419.2099,-48.0001"/>
</g>
<!-- Node9 -->
<g id="node12" class="node">
<title>Node9</title>
<g id="a_node12"><a xlink:href="classbfl_1_1LinearModel.html" target="_top" xlink:title="bfl::LinearModel">
<polygon fill="#ffffff" stroke="#000000" points="670.6416,-61.5 670.6416,-79.5 757.7939,-79.5 757.7939,-61.5 670.6416,-61.5"/>
<text text-anchor="middle" x="714.2178" y="-67.5" font-family="Helvetica,sans-Serif" font-size="10.00" fill="#000000">bfl::LinearModel</text>
</a>
</g>
</g>
<!-- Node8&#45;&gt;Node9 -->
<g id="edge10" class="edge">
<title>Node8&#45;&gt;Node9</title>
<path fill="none" stroke="#191970" d="M621.3636,-60.5465C638.4116,-62.3739 655.6689,-64.2238 670.6043,-65.8248"/>
<polygon fill="#191970" stroke="#191970" points="621.6854,-57.061 611.3693,-59.4751 620.9392,-64.0211 621.6854,-57.061"/>
</g>
<!-- Node11 -->
<g id="node14" class="node">
<title>Node11</title>
<g id="a_node14"><a xlink:href="classbfl_1_1LTIMeasurementModel.html" target="_top" xlink:title="bfl::LTIMeasurementModel">
<polygon fill="#ffffff" stroke="#000000" points="647.1162,-24.5 647.1162,-42.5 781.3193,-42.5 781.3193,-24.5 647.1162,-24.5"/>
<text text-anchor="middle" x="714.2178" y="-30.5" font-family="Helvetica,sans-Serif" font-size="10.00" fill="#000000">bfl::LTIMeasurementModel</text>
</a>
</g>
</g>
<!-- Node8&#45;&gt;Node11 -->
<g id="edge12" class="edge">
<title>Node8&#45;&gt;Node11</title>
<path fill="none" stroke="#191970" d="M621.4242,-42.9235C630.0266,-42.0499 638.6816,-41.171 647.0638,-40.3197"/>
<polygon fill="#191970" stroke="#191970" points="620.9645,-39.4521 611.3693,-43.9446 621.6718,-46.4163 620.9645,-39.4521"/>
</g>
<!-- Node10 -->
<g id="node13" class="node">
<title>Node10</title>
<g id="a_node13"><a xlink:href="classbfl_1_1SimulatedLinearSensor.html" target="_top" xlink:title="bfl::SimulatedLinearSensor">
<polygon fill="#ffffff" stroke="#000000" points="817.3193,-61.5 817.3193,-79.5 953.3877,-79.5 953.3877,-61.5 817.3193,-61.5"/>
<text text-anchor="middle" x="885.3535" y="-67.5" font-family="Helvetica,sans-Serif" font-size="10.00" fill="#000000">bfl::SimulatedLinearSensor</text>
</a>
</g>
</g>
<!-- Node9&#45;&gt;Node10 -->
<g id="edge11" class="edge">
<title>Node9&#45;&gt;Node10</title>
<path fill="none" stroke="#191970" d="M767.8537,-70.5C783.4885,-70.5 800.7837,-70.5 817.1879,-70.5"/>
<polygon fill="#191970" stroke="#191970" points="767.8454,-67.0001 757.8453,-70.5 767.8453,-74.0001 767.8454,-67.0001"/>
</g>
</g>
</svg>
