<?xml version="1.0" encoding="UTF-8" standalone="no"?>
<!DOCTYPE svg PUBLIC "-//W3C//DTD SVG 1.1//EN"
 "http://www.w3.org/Graphics/SVG/1.1/DTD/svg11.dtd">
<!-- Generated by graphviz version 2.40.1 (20161225.0304)
 -->
<!-- Title: Graphical Class Hierarchy Pages: 1 -->
<svg width="267pt" height="101pt"
 viewBox="0.00 0.00 266.63 101.00" xmlns="http://www.w3.org/2000/svg" xmlns:xlink="http://www.w3.org/1999/xlink">
<g id="graph0" class="graph" transform="scale(1 1) rotate(0) translate(4 97)">
<title>Graphical Class Hierarchy</title>
<polygon fill="#ffffff" stroke="transparent" points="-4,4 -4,-97 262.6348,-97 262.6348,4 -4,4"/>
<!-- Node0 -->
<g id="node1" class="node">
<title>Node0</title>
<g id="a_node1"><a xlink:href="classbfl_1_1PFPrediction.html" target="_top" xlink:title="bfl::PFPrediction">
<polygon fill="#ffffff" stroke="#000000" points="0,-37.5 0,-55.5 89.3643,-55.5 89.3643,-37.5 0,-37.5"/>
<text text-anchor="middle" x="44.6821" y="-43.5" font-family="Helvetica,sans-Serif" font-size="10.00" fill="#000000">bfl::PFPrediction</text>
</a>
</g>
</g>
<!-- Node1 -->
<g id="node2" class="node">
<title>Node1</title>
<g id="a_node2"><a xlink:href="classbfl_1_1DrawParticles.html" target="_top" xlink:title="bfl::DrawParticles">
<polygon fill="#ffffff" stroke="#000000" points="145.1006,-74.5 145.1006,-92.5 238.8984,-92.5 238.8984,-74.5 145.1006,-74.5"/>
<text text-anchor="middle" x="191.9995" y="-80.5" font-family="Helvetica,sans-Serif" font-size="10.00" fill="#000000">bfl::DrawParticles</text>
</a>
</g>
</g>
<!-- Node0&#45;&gt;Node1 -->
<g id="edge1" class="edge">
<title>Node0&#45;&gt;Node1</title>
<path fill="none" stroke="#191970" d="M90.4566,-57.9967C111.5904,-63.3046 136.3171,-69.5149 156.0787,-74.4782"/>
<polygon fill="#191970" stroke="#191970" points="91.2714,-54.5927 80.72,-55.5512 89.5662,-61.3818 91.2714,-54.5927"/>
</g>
<!-- Node2 -->
<g id="node3" class="node">
<title>Node2</title>
<g id="a_node3"><a xlink:href="classbfl_1_1GPFPrediction.html" target="_top" xlink:title="bfl::GPFPrediction">
<polygon fill="#ffffff" stroke="#000000" points="143.4282,-37.5 143.4282,-55.5 240.5708,-55.5 240.5708,-37.5 143.4282,-37.5"/>
<text text-anchor="middle" x="191.9995" y="-43.5" font-family="Helvetica,sans-Serif" font-size="10.00" fill="#000000">bfl::GPFPrediction</text>
</a>
</g>
</g>
<!-- Node0&#45;&gt;Node2 -->
<g id="edge2" class="edge">
<title>Node0&#45;&gt;Node2</title>
<path fill="none" stroke="#191970" d="M99.8391,-46.5C114.0719,-46.5 129.2902,-46.5 143.1751,-46.5"/>
<polygon fill="#191970" stroke="#191970" points="99.6827,-43.0001 89.6827,-46.5 99.6826,-50.0001 99.6827,-43.0001"/>
</g>
<!-- Node3 -->
<g id="node4" class="node">
<title>Node3</title>
<g id="a_node4"><a xlink:href="classbfl_1_1PFPredictionDecorator.html" target="_top" xlink:title="bfl::PFPredictionDecorator">
<polygon fill="#ffffff" stroke="#000000" points="125.3643,-.5 125.3643,-18.5 258.6348,-18.5 258.6348,-.5 125.3643,-.5"/>
<text text-anchor="middle" x="191.9995" y="-6.5" font-family="Helvetica,sans-Serif" font-size="10.00" fill="#000000">bfl::PFPredictionDecorator</text>
</a>
</g>
</g>
<!-- Node0&#45;&gt;Node3 -->
<g id="edge3" class="edge">
<title>Node0&#45;&gt;Node3</title>
<path fill="none" stroke="#191970" d="M90.4566,-35.0033C111.5904,-29.6954 136.3171,-23.4851 156.0787,-18.5218"/>
<polygon fill="#191970" stroke="#191970" points="89.5662,-31.6182 80.72,-37.4488 91.2714,-38.4073 89.5662,-31.6182"/>
</g>
</g>
</svg>
