<?xml version="1.0" encoding="UTF-8" standalone="no"?>
<!DOCTYPE svg PUBLIC "-//W3C//DTD SVG 1.1//EN"
 "http://www.w3.org/Graphics/SVG/1.1/DTD/svg11.dtd">
<!-- Generated by graphviz version 2.40.1 (20161225.0304)
 -->
<!-- Title: Graphical Class Hierarchy Pages: 1 -->
<svg width="232pt" height="64pt"
 viewBox="0.00 0.00 231.62 64.00" xmlns="http://www.w3.org/2000/svg" xmlns:xlink="http://www.w3.org/1999/xlink">
<g id="graph0" class="graph" transform="scale(1 1) rotate(0) translate(4 60)">
<title>Graphical Class Hierarchy</title>
<polygon fill="#ffffff" stroke="transparent" points="-4,4 -4,-60 227.6201,-60 227.6201,4 -4,4"/>
<!-- Node0 -->
<g id="node1" class="node">
<title>Node0</title>
<g id="a_node1"><a xlink:href="classbfl_1_1GaussianMixture.html" target="_top" xlink:title="bfl::GaussianMixture">
<polygon fill="#ffffff" stroke="#000000" points="0,-18.5 0,-36.5 107.1475,-36.5 107.1475,-18.5 0,-18.5"/>
<text text-anchor="middle" x="53.5737" y="-24.5" font-family="Helvetica,sans-Serif" font-size="10.00" fill="#000000">bfl::GaussianMixture</text>
</a>
</g>
</g>
<!-- Node1 -->
<g id="node2" class="node">
<title>Node1</title>
<g id="a_node2"><a xlink:href="classbfl_1_1Gaussian.html" target="_top" xlink:title="bfl::Gaussian">
<polygon fill="#ffffff" stroke="#000000" points="146.2017,-37.5 146.2017,-55.5 220.5659,-55.5 220.5659,-37.5 146.2017,-37.5"/>
<text text-anchor="middle" x="183.3838" y="-43.5" font-family="Helvetica,sans-Serif" font-size="10.00" fill="#000000">bfl::Gaussian</text>
</a>
</g>
</g>
<!-- Node0&#45;&gt;Node1 -->
<g id="edge1" class="edge">
<title>Node0&#45;&gt;Node1</title>
<path fill="none" stroke="#191970" d="M117.6013,-36.8716C127.3416,-38.2972 137.1083,-39.7268 146.0237,-41.0317"/>
<polygon fill="#191970" stroke="#191970" points="117.8986,-33.3779 107.4972,-35.3926 116.8848,-40.3041 117.8986,-33.3779"/>
</g>
<!-- Node2 -->
<g id="node3" class="node">
<title>Node2</title>
<g id="a_node3"><a xlink:href="classbfl_1_1ParticleSet.html" target="_top" xlink:title="bfl::ParticleSet">
<polygon fill="#ffffff" stroke="#000000" points="143.1475,-.5 143.1475,-18.5 223.6201,-18.5 223.6201,-.5 143.1475,-.5"/>
<text text-anchor="middle" x="183.3838" y="-6.5" font-family="Helvetica,sans-Serif" font-size="10.00" fill="#000000">bfl::ParticleSet</text>
</a>
</g>
</g>
<!-- Node0&#45;&gt;Node2 -->
<g id="edge2" class="edge">
<title>Node0&#45;&gt;Node2</title>
<path fill="none" stroke="#191970" d="M117.5715,-18.6258C126.1928,-17.4303 134.8355,-16.2319 142.8908,-15.1149"/>
<polygon fill="#191970" stroke="#191970" points="116.9216,-15.1823 107.4972,-20.0228 117.8831,-22.116 116.9216,-15.1823"/>
</g>
</g>
</svg>
