<?xml version="1.0" encoding="UTF-8" standalone="no"?>
<!DOCTYPE svg PUBLIC "-//W3C//DTD SVG 1.1//EN"
 "http://www.w3.org/Graphics/SVG/1.1/DTD/svg11.dtd">
<!-- Generated by graphviz version 2.40.1 (20161225.0304)
 -->
<!-- Title: Graphical Class Hierarchy Pages: 1 -->
<svg width="269pt" height="101pt"
 viewBox="0.00 0.00 269.41 101.00" xmlns="http://www.w3.org/2000/svg" xmlns:xlink="http://www.w3.org/1999/xlink">
<g id="graph0" class="graph" transform="scale(1 1) rotate(0) translate(4 97)">
<title>Graphical Class Hierarchy</title>
<polygon fill="#ffffff" stroke="transparent" points="-4,4 -4,-97 265.4082,-97 265.4082,4 -4,4"/>
<!-- Node0 -->
<g id="node1" class="node">
<title>Node0</title>
<g id="a_node1"><a xlink:href="classbfl_1_1GaussianCorrection.html" target="_top" xlink:title="bfl::GaussianCorrection">
<polygon fill="#ffffff" stroke="#000000" points="0,-37.5 0,-55.5 120.4922,-55.5 120.4922,-37.5 0,-37.5"/>
<text text-anchor="middle" x="60.2461" y="-43.5" font-family="Helvetica,sans-Serif" font-size="10.00" fill="#000000">bfl::GaussianCorrection</text>
</a>
</g>
</g>
<!-- Node1 -->
<g id="node2" class="node">
<title>Node1</title>
<g id="a_node2"><a xlink:href="classbfl_1_1KFCorrection.html" target="_top" xlink:title="bfl::KFCorrection">
<polygon fill="#ffffff" stroke="#000000" points="163.438,-74.5 163.438,-92.5 254.4624,-92.5 254.4624,-74.5 163.438,-74.5"/>
<text text-anchor="middle" x="208.9502" y="-80.5" font-family="Helvetica,sans-Serif" font-size="10.00" fill="#000000">bfl::KFCorrection</text>
</a>
</g>
</g>
<!-- Node0&#45;&gt;Node1 -->
<g id="edge1" class="edge">
<title>Node0&#45;&gt;Node1</title>
<path fill="none" stroke="#191970" d="M106.4515,-57.9967C127.7842,-63.3046 152.7436,-69.5149 172.6912,-74.4782"/>
<polygon fill="#191970" stroke="#191970" points="107.1725,-54.5694 96.6232,-55.5512 105.4822,-61.3623 107.1725,-54.5694"/>
</g>
<!-- Node2 -->
<g id="node3" class="node">
<title>Node2</title>
<g id="a_node3"><a xlink:href="classbfl_1_1SUKFCorrection.html" target="_top" xlink:title="This class implements the algorithm: Barfoot, T., McManus, C. ">
<polygon fill="#ffffff" stroke="#000000" points="156.4922,-37.5 156.4922,-55.5 261.4082,-55.5 261.4082,-37.5 156.4922,-37.5"/>
<text text-anchor="middle" x="208.9502" y="-43.5" font-family="Helvetica,sans-Serif" font-size="10.00" fill="#000000">bfl::SUKFCorrection</text>
</a>
</g>
</g>
<!-- Node0&#45;&gt;Node2 -->
<g id="edge2" class="edge">
<title>Node0&#45;&gt;Node2</title>
<path fill="none" stroke="#191970" d="M131.0005,-46.5C139.4704,-46.5 148.0027,-46.5 156.1564,-46.5"/>
<polygon fill="#191970" stroke="#191970" points="130.7298,-43.0001 120.7297,-46.5 130.7297,-50.0001 130.7298,-43.0001"/>
</g>
<!-- Node3 -->
<g id="node4" class="node">
<title>Node3</title>
<g id="a_node4"><a xlink:href="classbfl_1_1UKFCorrection.html" target="_top" xlink:title="bfl::UKFCorrection">
<polygon fill="#ffffff" stroke="#000000" points="159.8271,-.5 159.8271,-18.5 258.0732,-18.5 258.0732,-.5 159.8271,-.5"/>
<text text-anchor="middle" x="208.9502" y="-6.5" font-family="Helvetica,sans-Serif" font-size="10.00" fill="#000000">bfl::UKFCorrection</text>
</a>
</g>
</g>
<!-- Node0&#45;&gt;Node3 -->
<g id="edge3" class="edge">
<title>Node0&#45;&gt;Node3</title>
<path fill="none" stroke="#191970" d="M106.4515,-35.0033C127.7842,-29.6954 152.7436,-23.4851 172.6912,-18.5218"/>
<polygon fill="#191970" stroke="#191970" points="105.4822,-31.6377 96.6232,-37.4488 107.1725,-38.4306 105.4822,-31.6377"/>
</g>
</g>
</svg>
