<?xml version="1.0" encoding="UTF-8" standalone="no"?>
<!DOCTYPE svg PUBLIC "-//W3C//DTD SVG 1.1//EN"
 "http://www.w3.org/Graphics/SVG/1.1/DTD/svg11.dtd">
<!-- Generated by graphviz version 2.40.1 (20161225.0304)
 -->
<!-- Title: Graphical Class Hierarchy Pages: 1 -->
<svg width="259pt" height="64pt"
 viewBox="0.00 0.00 259.42 64.00" xmlns="http://www.w3.org/2000/svg" xmlns:xlink="http://www.w3.org/1999/xlink">
<g id="graph0" class="graph" transform="scale(1 1) rotate(0) translate(4 60)">
<title>Graphical Class Hierarchy</title>
<polygon fill="#ffffff" stroke="transparent" points="-4,4 -4,-60 255.418,-60 255.418,4 -4,4"/>
<!-- Node0 -->
<g id="node1" class="node">
<title>Node0</title>
<g id="a_node1"><a xlink:href="classbfl_1_1GaussianPrediction.html" target="_top" xlink:title="bfl::GaussianPrediction">
<polygon fill="#ffffff" stroke="#000000" points="0,-18.5 0,-36.5 118.832,-36.5 118.832,-18.5 0,-18.5"/>
<text text-anchor="middle" x="59.416" y="-24.5" font-family="Helvetica,sans-Serif" font-size="10.00" fill="#000000">bfl::GaussianPrediction</text>
</a>
</g>
</g>
<!-- Node1 -->
<g id="node2" class="node">
<title>Node1</title>
<g id="a_node2"><a xlink:href="classbfl_1_1KFPrediction.html" target="_top" xlink:title="bfl::KFPrediction">
<polygon fill="#ffffff" stroke="#000000" points="158.4429,-37.5 158.4429,-55.5 247.8071,-55.5 247.8071,-37.5 158.4429,-37.5"/>
<text text-anchor="middle" x="203.125" y="-43.5" font-family="Helvetica,sans-Serif" font-size="10.00" fill="#000000">bfl::KFPrediction</text>
</a>
</g>
</g>
<!-- Node0&#45;&gt;Node1 -->
<g id="edge1" class="edge">
<title>Node0&#45;&gt;Node1</title>
<path fill="none" stroke="#191970" d="M129.3325,-36.7438C139.1858,-38.0465 149.0877,-39.3556 158.2964,-40.5731"/>
<polygon fill="#191970" stroke="#191970" points="129.4856,-33.2336 119.1131,-35.3926 128.568,-40.1732 129.4856,-33.2336"/>
</g>
<!-- Node2 -->
<g id="node3" class="node">
<title>Node2</title>
<g id="a_node3"><a xlink:href="classbfl_1_1UKFPrediction.html" target="_top" xlink:title="bfl::UKFPrediction">
<polygon fill="#ffffff" stroke="#000000" points="154.832,-.5 154.832,-18.5 251.418,-18.5 251.418,-.5 154.832,-.5"/>
<text text-anchor="middle" x="203.125" y="-6.5" font-family="Helvetica,sans-Serif" font-size="10.00" fill="#000000">bfl::UKFPrediction</text>
</a>
</g>
</g>
<!-- Node0&#45;&gt;Node2 -->
<g id="edge2" class="edge">
<title>Node0&#45;&gt;Node2</title>
<path fill="none" stroke="#191970" d="M129.2117,-18.7579C137.8554,-17.6752 146.5389,-16.5876 154.7612,-15.5577"/>
<polygon fill="#191970" stroke="#191970" points="128.6005,-15.307 119.1131,-20.0228 129.4706,-22.2527 128.6005,-15.307"/>
</g>
</g>
</svg>
