<?xml version="1.0" encoding="UTF-8" standalone="no"?>
<!DOCTYPE svg PUBLIC "-//W3C//DTD SVG 1.1//EN"
 "http://www.w3.org/Graphics/SVG/1.1/DTD/svg11.dtd">
<!-- Generated by graphviz version 2.40.1 (20161225.0304)
 -->
<!-- Title: /Users/Claudio/GitHub/bayes&#45;filters&#45;lib/src/BayesFilters/src/InitSurveillanceAreaGrid.cpp Pages: 1 -->
<svg width="250pt" height="352pt"
 viewBox="0.00 0.00 249.60 352.00" xmlns="http://www.w3.org/2000/svg" xmlns:xlink="http://www.w3.org/1999/xlink">
<g id="graph0" class="graph" transform="scale(1 1) rotate(0) translate(4 348)">
<title>/Users/Claudio/GitHub/bayes&#45;filters&#45;lib/src/BayesFilters/src/InitSurveillanceAreaGrid.cpp</title>
<polygon fill="#ffffff" stroke="transparent" points="-4,4 -4,-348 245.6012,-348 245.6012,4 -4,4"/>
<!-- Node0 -->
<g id="node1" class="node">
<title>Node0</title>
<polygon fill="#bfbfbf" stroke="#000000" points="55.2814,-295.5 55.2814,-343.5 215.7736,-343.5 215.7736,-295.5 55.2814,-295.5"/>
<text text-anchor="start" x="63.2814" y="-331.5" font-family="Helvetica,sans-Serif" font-size="10.00" fill="#000000">/Users/Claudio/GitHub</text>
<text text-anchor="start" x="63.2814" y="-321.5" font-family="Helvetica,sans-Serif" font-size="10.00" fill="#000000">/bayes&#45;filters&#45;lib/src</text>
<text text-anchor="start" x="63.2814" y="-311.5" font-family="Helvetica,sans-Serif" font-size="10.00" fill="#000000">/BayesFilters/src/InitSurveillance</text>
<text text-anchor="middle" x="135.5275" y="-301.5" font-family="Helvetica,sans-Serif" font-size="10.00" fill="#000000">AreaGrid.cpp</text>
</g>
<!-- Node1 -->
<g id="node2" class="node">
<title>Node1</title>
<g id="a_node2"><a xlink:href="InitSurveillanceAreaGrid_8h.html" target="_top" xlink:title="BayesFilters/InitSurveillance\lAreaGrid.h">
<polygon fill="#ffffff" stroke="#000000" points="64.7248,-230.5 64.7248,-258.5 206.3302,-258.5 206.3302,-230.5 64.7248,-230.5"/>
<text text-anchor="start" x="72.7248" y="-246.5" font-family="Helvetica,sans-Serif" font-size="10.00" fill="#000000">BayesFilters/InitSurveillance</text>
<text text-anchor="middle" x="135.5275" y="-236.5" font-family="Helvetica,sans-Serif" font-size="10.00" fill="#000000">AreaGrid.h</text>
</a>
</g>
</g>
<!-- Node0&#45;&gt;Node1 -->
<g id="edge1" class="edge">
<title>Node0&#45;&gt;Node1</title>
<path fill="none" stroke="#191970" d="M135.5275,-295.3567C135.5275,-286.8057 135.5275,-277.1888 135.5275,-268.6382"/>
<polygon fill="#191970" stroke="#191970" points="139.0276,-268.5381 135.5275,-258.5382 132.0276,-268.5382 139.0276,-268.5381"/>
</g>
<!-- Node2 -->
<g id="node3" class="node">
<title>Node2</title>
<g id="a_node3"><a xlink:href="ParticleSet_8h.html" target="_top" xlink:title="BayesFilters/ParticleSet.h">
<polygon fill="#ffffff" stroke="#000000" points="26.2838,-110.5 26.2838,-128.5 156.7711,-128.5 156.7711,-110.5 26.2838,-110.5"/>
<text text-anchor="middle" x="91.5275" y="-116.5" font-family="Helvetica,sans-Serif" font-size="10.00" fill="#000000">BayesFilters/ParticleSet.h</text>
</a>
</g>
</g>
<!-- Node1&#45;&gt;Node2 -->
<g id="edge2" class="edge">
<title>Node1&#45;&gt;Node2</title>
<path fill="none" stroke="#191970" d="M127.4779,-230.2723C122.1146,-220.3457 115.2162,-206.66 110.5275,-194 103.7382,-175.6682 98.4987,-153.9288 95.2577,-138.6802"/>
<polygon fill="#191970" stroke="#191970" points="98.684,-137.9652 93.2575,-128.8656 91.825,-139.3631 98.684,-137.9652"/>
</g>
<!-- Node6 -->
<g id="node7" class="node">
<title>Node6</title>
<g id="a_node7"><a xlink:href="ParticleSetInitialization_8h.html" target="_top" xlink:title="BayesFilters/ParticleSet\lInitialization.h">
<polygon fill="#ffffff" stroke="#000000" points="119.4538,-165.5 119.4538,-193.5 241.6012,-193.5 241.6012,-165.5 119.4538,-165.5"/>
<text text-anchor="start" x="127.4538" y="-181.5" font-family="Helvetica,sans-Serif" font-size="10.00" fill="#000000">BayesFilters/ParticleSet</text>
<text text-anchor="middle" x="180.5275" y="-171.5" font-family="Helvetica,sans-Serif" font-size="10.00" fill="#000000">Initialization.h</text>
</a>
</g>
</g>
<!-- Node1&#45;&gt;Node6 -->
<g id="edge7" class="edge">
<title>Node1&#45;&gt;Node6</title>
<path fill="none" stroke="#191970" d="M145.2918,-230.396C151.0708,-222.0486 158.521,-211.2871 165.0812,-201.8113"/>
<polygon fill="#191970" stroke="#191970" points="167.9678,-203.7907 170.7822,-193.5765 162.2124,-199.8062 167.9678,-203.7907"/>
</g>
<!-- Node3 -->
<g id="node4" class="node">
<title>Node3</title>
<g id="a_node4"><a xlink:href="GaussianMixture_8h.html" target="_top" xlink:title="BayesFilters/GaussianMixture.h">
<polygon fill="#ffffff" stroke="#000000" points="12.9464,-55.5 12.9464,-73.5 170.1086,-73.5 170.1086,-55.5 12.9464,-55.5"/>
<text text-anchor="middle" x="91.5275" y="-61.5" font-family="Helvetica,sans-Serif" font-size="10.00" fill="#000000">BayesFilters/GaussianMixture.h</text>
</a>
</g>
</g>
<!-- Node2&#45;&gt;Node3 -->
<g id="edge3" class="edge">
<title>Node2&#45;&gt;Node3</title>
<path fill="none" stroke="#191970" d="M91.5275,-110.4179C91.5275,-103.2164 91.5275,-92.8962 91.5275,-83.8632"/>
<polygon fill="#191970" stroke="#191970" points="95.0276,-83.7794 91.5275,-73.7795 88.0276,-83.7795 95.0276,-83.7794"/>
</g>
<!-- Node4 -->
<g id="node5" class="node">
<title>Node4</title>
<polygon fill="#ffffff" stroke="#bfbfbf" points="23.9118,-.5 23.9118,-18.5 67.1432,-18.5 67.1432,-.5 23.9118,-.5"/>
<text text-anchor="middle" x="45.5275" y="-6.5" font-family="Helvetica,sans-Serif" font-size="10.00" fill="#000000">vector</text>
</g>
<!-- Node2&#45;&gt;Node4 -->
<g id="edge6" class="edge">
<title>Node2&#45;&gt;Node4</title>
<path fill="none" stroke="#191970" d="M54.7624,-110.3766C35.9489,-103.6426 14.706,-92.3642 3.5275,-74 -6.7904,-57.0498 8.9947,-38.0608 24.0711,-25.102"/>
<polygon fill="#191970" stroke="#191970" points="26.596,-27.5634 32.2037,-18.5742 22.2143,-22.1044 26.596,-27.5634"/>
</g>
<!-- Node3&#45;&gt;Node4 -->
<g id="edge4" class="edge">
<title>Node3&#45;&gt;Node4</title>
<path fill="none" stroke="#191970" d="M83.9315,-55.4179C77.379,-47.5833 67.7392,-36.0575 59.7571,-26.5137"/>
<polygon fill="#191970" stroke="#191970" points="62.3889,-24.2048 53.2885,-18.7795 57.0193,-28.6957 62.3889,-24.2048"/>
</g>
<!-- Node5 -->
<g id="node6" class="node">
<title>Node5</title>
<polygon fill="#ffffff" stroke="#bfbfbf" points="99.8971,-.5 99.8971,-18.5 173.1579,-18.5 173.1579,-.5 99.8971,-.5"/>
<text text-anchor="middle" x="136.5275" y="-6.5" font-family="Helvetica,sans-Serif" font-size="10.00" fill="#000000">Eigen/Dense</text>
</g>
<!-- Node3&#45;&gt;Node5 -->
<g id="edge5" class="edge">
<title>Node3&#45;&gt;Node5</title>
<path fill="none" stroke="#191970" d="M98.9583,-55.4179C105.3037,-47.6624 114.6084,-36.29 122.3701,-26.8035"/>
<polygon fill="#191970" stroke="#191970" points="125.3117,-28.7354 128.9352,-18.7795 119.8939,-24.3027 125.3117,-28.7354"/>
</g>
<!-- Node6&#45;&gt;Node2 -->
<g id="edge8" class="edge">
<title>Node6&#45;&gt;Node2</title>
<path fill="none" stroke="#191970" d="M159.4357,-165.2808C145.605,-155.9568 127.557,-143.7895 113.5436,-134.3423"/>
<polygon fill="#191970" stroke="#191970" points="115.2506,-131.272 105.0024,-128.5842 111.3376,-137.0763 115.2506,-131.272"/>
</g>
<!-- Node6&#45;&gt;Node5 -->
<g id="edge9" class="edge">
<title>Node6&#45;&gt;Node5</title>
<path fill="none" stroke="#191970" d="M183.6375,-165.4143C188.1956,-141.6451 194.6177,-92.4981 179.5275,-55 174.8676,-43.4204 165.7349,-33.0734 157.0803,-25.1834"/>
<polygon fill="#191970" stroke="#191970" points="159.2951,-22.4724 149.4086,-18.6634 154.7619,-27.8063 159.2951,-22.4724"/>
</g>
</g>
</svg>
