<?xml version="1.0" encoding="UTF-8" standalone="no"?>
<!DOCTYPE svg PUBLIC "-//W3C//DTD SVG 1.1//EN"
 "http://www.w3.org/Graphics/SVG/1.1/DTD/svg11.dtd">
<!-- Generated by graphviz version 2.40.1 (20161225.0304)
 -->
<!-- Title: /Users/Claudio/GitHub/bayes&#45;filters&#45;lib/src/BayesFilters/include/BayesFilters/KFCorrection.h Pages: 1 -->
<!--zoomable 417 -->
<svg id="main" version="1.1" xmlns="http://www.w3.org/2000/svg" xmlns:xlink="http://www.w3.org/1999/xlink" xml:space="preserve" onload="init(evt)">
<style type="text/css"><![CDATA[
.edge:hover path { stroke: red; }
.edge:hover polygon { stroke: red; fill: red; }
]]></style>
<script type="text/javascript"><![CDATA[
var edges = document.getElementsByTagName('g');
if (edges && edges.length) {
  for (var i=0;i<edges.length;i++) {
    if (edges[i].id.substr(0,4)=='edge') {
      edges[i].setAttribute('class','edge');
    }
  }
}
]]></script>
        <defs>
                <circle id="rim" cx="0" cy="0" r="7"/>
                <circle id="rim2" cx="0" cy="0" r="3.5"/>
                <g id="zoomPlus">
                        <use xlink:href="#rim" fill="#404040">
                                <set attributeName="fill" to="#808080" begin="zoomplus.mouseover" end="zoomplus.mouseout"/>
                        </use>
                        <path d="M-4,0h8M0,-4v8" fill="none" stroke="white" stroke-width="1.5" pointer-events="none"/>
                </g>
                <g id="zoomMin">
                        <use xlink:href="#rim" fill="#404040">
                                <set attributeName="fill" to="#808080" begin="zoomminus.mouseover" end="zoomminus.mouseout"/>
                        </use>
                        <path d="M-4,0h8" fill="none" stroke="white" stroke-width="1.5" pointer-events="none"/>
                </g>
                <g id="dirArrow">
                        <path fill="none" stroke="white" stroke-width="1.5" d="M0,-3.0v7 M-2.5,-0.5L0,-3.0L2.5,-0.5"/>
                </g>
               <g id="resetDef">
                       <use xlink:href="#rim2" fill="#404040">
                               <set attributeName="fill" to="#808080" begin="reset.mouseover" end="reset.mouseout"/>
                       </use>
               </g>
        </defs>

<script type="text/javascript">
var viewWidth = 791;
var viewHeight = 417;
var sectionId = 'dynsection-0';
</script>
<script xlink:href="svgpan.js"/>
<svg id="graph" class="graph">
<g id="viewport">
<title>/Users/Claudio/GitHub/bayes&#45;filters&#45;lib/src/BayesFilters/include/BayesFilters/KFCorrection.h</title>
<polygon fill="#ffffff" stroke="transparent" points="-4,4 -4,-413 787.145,-413 787.145,4 -4,4"/>
<!-- Node0 -->
<g id="node1" class="node">
<title>Node0</title>
<polygon fill="#bfbfbf" stroke="#000000" points="114.5542,-360.5 114.5542,-408.5 280.6079,-408.5 280.6079,-360.5 114.5542,-360.5"/>
<text text-anchor="start" x="122.5542" y="-396.5" font-family="Helvetica,sans-Serif" font-size="10.00" fill="#000000">/Users/Claudio/GitHub</text>
<text text-anchor="start" x="122.5542" y="-386.5" font-family="Helvetica,sans-Serif" font-size="10.00" fill="#000000">/bayes&#45;filters&#45;lib/src</text>
<text text-anchor="start" x="122.5542" y="-376.5" font-family="Helvetica,sans-Serif" font-size="10.00" fill="#000000">/BayesFilters/include/BayesFilters</text>
<text text-anchor="middle" x="197.5811" y="-366.5" font-family="Helvetica,sans-Serif" font-size="10.00" fill="#000000">/KFCorrection.h</text>
</g>
<!-- Node1 -->
<g id="node2" class="node">
<title>Node1</title>
<g id="a_node2"><a xlink:href="GaussianCorrection_8h.html" target="_top" xlink:title="BayesFilters/GaussianCorrection.h">
<polygon fill="#ffffff" stroke="#000000" points="28.3276,-235.5 28.3276,-253.5 198.8345,-253.5 198.8345,-235.5 28.3276,-235.5"/>
<text text-anchor="middle" x="113.5811" y="-241.5" font-family="Helvetica,sans-Serif" font-size="10.00" fill="#000000">BayesFilters/GaussianCorrection.h</text>
</a>
</g>
</g>
<!-- Node0&#45;&gt;Node1 -->
<g id="edge1" class="edge">
<title>Node0&#45;&gt;Node1</title>
<path fill="none" stroke="#191970" d="M183.1409,-360.4331C166.4109,-332.5498 139.2355,-287.2574 124.2852,-262.3403"/>
<polygon fill="#191970" stroke="#191970" points="127.1771,-260.3572 119.0308,-253.583 121.1746,-263.9587 127.1771,-260.3572"/>
</g>
<!-- Node2 -->
<g id="node3" class="node">
<title>Node2</title>
<g id="a_node3"><a xlink:href="GaussianMixture_8h.html" target="_top" xlink:title="BayesFilters/GaussianMixture.h">
<polygon fill="#ffffff" stroke="#000000" points="0,-170.5 0,-188.5 157.1621,-188.5 157.1621,-170.5 0,-170.5"/>
<text text-anchor="middle" x="78.5811" y="-176.5" font-family="Helvetica,sans-Serif" font-size="10.00" fill="#000000">BayesFilters/GaussianMixture.h</text>
</a>
</g>
</g>
<!-- Node0&#45;&gt;Node2 -->
<g id="edge23" class="edge">
<title>Node0&#45;&gt;Node2</title>
<path fill="none" stroke="#191970" d="M137.8276,-360.3607C96.3596,-340.066 44.2961,-306.6658 19.5811,-259 13.6482,-247.5578 14.1913,-241.7078 19.5811,-230 26.4772,-215.0199 40.252,-202.8264 52.7581,-194.1762"/>
<polygon fill="#191970" stroke="#191970" points="55.0226,-196.8802 61.5239,-188.5146 51.2247,-191.0001 55.0226,-196.8802"/>
</g>
<!-- Node4 -->
<g id="node5" class="node">
<title>Node4</title>
<polygon fill="#ffffff" stroke="#bfbfbf" points="145.9507,-110.5 145.9507,-128.5 219.2114,-128.5 219.2114,-110.5 145.9507,-110.5"/>
<text text-anchor="middle" x="182.5811" y="-116.5" font-family="Helvetica,sans-Serif" font-size="10.00" fill="#000000">Eigen/Dense</text>
</g>
<!-- Node0&#45;&gt;Node4 -->
<g id="edge28" class="edge">
<title>Node0&#45;&gt;Node4</title>
<path fill="none" stroke="#191970" d="M201.7623,-360.3536C206.4352,-329.8959 212.7137,-275.9462 207.5811,-230 203.9197,-197.2247 194.3299,-159.9803 188.1482,-138.1811"/>
<polygon fill="#191970" stroke="#191970" points="191.5016,-137.1782 185.3519,-128.5508 184.7793,-139.1302 191.5016,-137.1782"/>
</g>
<!-- Node18 -->
<g id="node19" class="node">
<title>Node18</title>
<g id="a_node19"><a xlink:href="LinearMeasurementModel_8h.html" target="_top" xlink:title="BayesFilters/LinearMeasurement\lModel.h">
<polygon fill="#ffffff" stroke="#000000" points="254.2168,-295.5 254.2168,-323.5 416.9453,-323.5 416.9453,-295.5 254.2168,-295.5"/>
<text text-anchor="start" x="262.2168" y="-311.5" font-family="Helvetica,sans-Serif" font-size="10.00" fill="#000000">BayesFilters/LinearMeasurement</text>
<text text-anchor="middle" x="335.5811" y="-301.5" font-family="Helvetica,sans-Serif" font-size="10.00" fill="#000000">Model.h</text>
</a>
</g>
</g>
<!-- Node0&#45;&gt;Node18 -->
<g id="edge24" class="edge">
<title>Node0&#45;&gt;Node18</title>
<path fill="none" stroke="#191970" d="M242.0047,-360.3567C261.0602,-350.0005 282.9923,-338.0809 300.8318,-328.3854"/>
<polygon fill="#191970" stroke="#191970" points="302.6359,-331.3885 309.7508,-323.5382 299.2932,-325.2382 302.6359,-331.3885"/>
</g>
<!-- Node1&#45;&gt;Node2 -->
<g id="edge2" class="edge">
<title>Node1&#45;&gt;Node2</title>
<path fill="none" stroke="#191970" d="M108.7145,-235.462C103.4974,-225.7732 95.0728,-210.1276 88.4561,-197.8393"/>
<polygon fill="#191970" stroke="#191970" points="91.4557,-196.0275 83.633,-188.8821 85.2924,-199.3462 91.4557,-196.0275"/>
</g>
<!-- Node1&#45;&gt;Node4 -->
<g id="edge22" class="edge">
<title>Node1&#45;&gt;Node4</title>
<path fill="none" stroke="#191970" d="M127.0894,-235.3216C139.331,-226.267 156.8925,-211.2985 166.5811,-194 176.1524,-176.9107 180.0044,-154.6682 181.5511,-138.9499"/>
<polygon fill="#191970" stroke="#191970" points="185.0527,-139.0607 182.3187,-128.8247 178.0727,-138.5314 185.0527,-139.0607"/>
</g>
<!-- Node5 -->
<g id="node6" class="node">
<title>Node5</title>
<g id="a_node6"><a xlink:href="MeasurementModel_8h.html" target="_top" xlink:title="BayesFilters/Measurement\lModel.h">
<polygon fill="#ffffff" stroke="#000000" points="310.1157,-165.5 310.1157,-193.5 445.0464,-193.5 445.0464,-165.5 310.1157,-165.5"/>
<text text-anchor="start" x="318.1157" y="-181.5" font-family="Helvetica,sans-Serif" font-size="10.00" fill="#000000">BayesFilters/Measurement</text>
<text text-anchor="middle" x="377.5811" y="-171.5" font-family="Helvetica,sans-Serif" font-size="10.00" fill="#000000">Model.h</text>
</a>
</g>
</g>
<!-- Node1&#45;&gt;Node5 -->
<g id="edge5" class="edge">
<title>Node1&#45;&gt;Node5</title>
<path fill="none" stroke="#191970" d="M150.2891,-235.462C191.5976,-225.2914 259.566,-208.5567 310.4352,-196.0321"/>
<polygon fill="#191970" stroke="#191970" points="311.4949,-199.3758 320.3681,-193.5865 309.8213,-192.5788 311.4949,-199.3758"/>
</g>
<!-- Node3 -->
<g id="node4" class="node">
<title>Node3</title>
<polygon fill="#ffffff" stroke="#bfbfbf" points="121.9653,-55.5 121.9653,-73.5 165.1968,-73.5 165.1968,-55.5 121.9653,-55.5"/>
<text text-anchor="middle" x="143.5811" y="-61.5" font-family="Helvetica,sans-Serif" font-size="10.00" fill="#000000">vector</text>
</g>
<!-- Node2&#45;&gt;Node3 -->
<g id="edge3" class="edge">
<title>Node2&#45;&gt;Node3</title>
<path fill="none" stroke="#191970" d="M83.6815,-170.4761C94.3555,-151.5914 119.2245,-107.5924 133.3327,-82.6318"/>
<polygon fill="#191970" stroke="#191970" points="136.4501,-84.2292 138.3238,-73.8014 130.3562,-80.7848 136.4501,-84.2292"/>
</g>
<!-- Node2&#45;&gt;Node4 -->
<g id="edge4" class="edge">
<title>Node2&#45;&gt;Node4</title>
<path fill="none" stroke="#191970" d="M94.3764,-170.3873C111.3494,-160.5952 138.5385,-144.9092 158.2471,-133.5388"/>
<polygon fill="#191970" stroke="#191970" points="160.065,-136.5308 166.9778,-128.5019 156.5669,-130.4675 160.065,-136.5308"/>
</g>
<!-- Node5&#45;&gt;Node4 -->
<g id="edge21" class="edge">
<title>Node5&#45;&gt;Node4</title>
<path fill="none" stroke="#191970" d="M331.8622,-165.4327C298.4433,-155.1499 253.5906,-141.3491 221.7987,-131.567"/>
<polygon fill="#191970" stroke="#191970" points="222.5538,-128.1374 211.9667,-128.5417 220.4951,-134.8279 222.5538,-128.1374"/>
</g>
<!-- Node6 -->
<g id="node7" class="node">
<title>Node6</title>
<g id="a_node7"><a xlink:href="Data_8h.html" target="_top" xlink:title="BayesFilters/Data.h">
<polygon fill="#ffffff" stroke="#000000" points="532.9531,-110.5 532.9531,-128.5 636.209,-128.5 636.209,-110.5 532.9531,-110.5"/>
<text text-anchor="middle" x="584.5811" y="-116.5" font-family="Helvetica,sans-Serif" font-size="10.00" fill="#000000">BayesFilters/Data.h</text>
</a>
</g>
</g>
<!-- Node5&#45;&gt;Node6 -->
<g id="edge6" class="edge">
<title>Node5&#45;&gt;Node6</title>
<path fill="none" stroke="#191970" d="M426.1134,-165.4327C461.7424,-155.1054 509.6142,-141.2295 543.3875,-131.4402"/>
<polygon fill="#191970" stroke="#191970" points="544.7568,-134.6874 553.3871,-128.5417 542.808,-127.9641 544.7568,-134.6874"/>
</g>
<!-- Node9 -->
<g id="node10" class="node">
<title>Node9</title>
<polygon fill="#ffffff" stroke="#bfbfbf" points="429.5244,-.5 429.5244,-18.5 481.6377,-18.5 481.6377,-.5 429.5244,-.5"/>
<text text-anchor="middle" x="455.5811" y="-6.5" font-family="Helvetica,sans-Serif" font-size="10.00" fill="#000000">memory</text>
</g>
<!-- Node5&#45;&gt;Node9 -->
<g id="edge18" class="edge">
<title>Node5&#45;&gt;Node9</title>
<path fill="none" stroke="#191970" d="M411.7017,-165.4552C427.0433,-157.239 443.6739,-145.2408 452.5811,-129 469.9758,-97.2833 465.0739,-53.3575 460.1739,-28.552"/>
<polygon fill="#191970" stroke="#191970" points="463.5563,-27.6356 458.0027,-18.6129 456.7176,-29.1295 463.5563,-27.6356"/>
</g>
<!-- Node13 -->
<g id="node14" class="node">
<title>Node13</title>
<g id="a_node14"><a xlink:href="Logger_8h.html" target="_top" xlink:title="BayesFilters/Logger.h">
<polygon fill="#ffffff" stroke="#000000" points="237.2192,-110.5 237.2192,-128.5 349.9429,-128.5 349.9429,-110.5 237.2192,-110.5"/>
<text text-anchor="middle" x="293.5811" y="-116.5" font-family="Helvetica,sans-Serif" font-size="10.00" fill="#000000">BayesFilters/Logger.h</text>
</a>
</g>
</g>
<!-- Node5&#45;&gt;Node13 -->
<g id="edge13" class="edge">
<title>Node5&#45;&gt;Node13</title>
<path fill="none" stroke="#191970" d="M357.6742,-165.2808C344.7448,-156.0456 327.9105,-144.021 314.7392,-134.613"/>
<polygon fill="#191970" stroke="#191970" points="316.4706,-131.5485 306.2989,-128.5842 312.4019,-137.2447 316.4706,-131.5485"/>
</g>
<!-- Node16 -->
<g id="node17" class="node">
<title>Node16</title>
<polygon fill="#ffffff" stroke="#bfbfbf" points="348.3545,-55.5 348.3545,-73.5 388.8076,-73.5 388.8076,-55.5 348.3545,-55.5"/>
<text text-anchor="middle" x="368.5811" y="-61.5" font-family="Helvetica,sans-Serif" font-size="10.00" fill="#000000">string</text>
</g>
<!-- Node5&#45;&gt;Node16 -->
<g id="edge19" class="edge">
<title>Node5&#45;&gt;Node16</title>
<path fill="none" stroke="#191970" d="M376.4775,-165.3987C374.8793,-144.9779 371.9148,-107.0975 370.1078,-84.0089"/>
<polygon fill="#191970" stroke="#191970" points="373.5729,-83.425 369.3033,-73.7286 366.5943,-83.9713 373.5729,-83.425"/>
</g>
<!-- Node17 -->
<g id="node18" class="node">
<title>Node17</title>
<polygon fill="#ffffff" stroke="#bfbfbf" points="405.1895,-110.5 405.1895,-128.5 443.9727,-128.5 443.9727,-110.5 405.1895,-110.5"/>
<text text-anchor="middle" x="424.5811" y="-116.5" font-family="Helvetica,sans-Serif" font-size="10.00" fill="#000000">utility</text>
</g>
<!-- Node5&#45;&gt;Node17 -->
<g id="edge20" class="edge">
<title>Node5&#45;&gt;Node17</title>
<path fill="none" stroke="#191970" d="M388.7194,-165.2808C395.4668,-156.6672 404.1148,-145.6271 411.2279,-136.5466"/>
<polygon fill="#191970" stroke="#191970" points="414.0538,-138.6148 417.4651,-128.5842 408.5431,-134.2982 414.0538,-138.6148"/>
</g>
<!-- Node7 -->
<g id="node8" class="node">
<title>Node7</title>
<g id="a_node8"><a xlink:href="any_8h.html" target="_top" xlink:title="BayesFilters/any.h">
<polygon fill="#ffffff" stroke="#000000" points="543.8218,-55.5 543.8218,-73.5 641.3403,-73.5 641.3403,-55.5 543.8218,-55.5"/>
<text text-anchor="middle" x="592.5811" y="-61.5" font-family="Helvetica,sans-Serif" font-size="10.00" fill="#000000">BayesFilters/any.h</text>
</a>
</g>
</g>
<!-- Node6&#45;&gt;Node7 -->
<g id="edge7" class="edge">
<title>Node6&#45;&gt;Node7</title>
<path fill="none" stroke="#191970" d="M585.9021,-110.4179C586.9496,-103.2164 588.4507,-92.8962 589.7646,-83.8632"/>
<polygon fill="#191970" stroke="#191970" points="593.2554,-84.1791 591.2313,-73.7795 586.3283,-83.1715 593.2554,-84.1791"/>
</g>
<!-- Node8 -->
<g id="node9" class="node">
<title>Node8</title>
<polygon fill="#ffffff" stroke="#bfbfbf" points="726.0171,-.5 726.0171,-18.5 783.145,-18.5 783.145,-.5 726.0171,-.5"/>
<text text-anchor="middle" x="754.5811" y="-6.5" font-family="Helvetica,sans-Serif" font-size="10.00" fill="#000000">algorithm</text>
</g>
<!-- Node7&#45;&gt;Node8 -->
<g id="edge8" class="edge">
<title>Node7&#45;&gt;Node8</title>
<path fill="none" stroke="#191970" d="M619.3321,-55.4179C646.3803,-46.2348 688.3651,-31.9807 718.3788,-21.7909"/>
<polygon fill="#191970" stroke="#191970" points="719.7156,-25.0333 728.0596,-18.5042 717.4652,-18.4049 719.7156,-25.0333"/>
</g>
<!-- Node7&#45;&gt;Node9 -->
<g id="edge9" class="edge">
<title>Node7&#45;&gt;Node9</title>
<path fill="none" stroke="#191970" d="M569.9583,-55.4179C547.5491,-46.4215 513.0166,-32.5581 487.7565,-22.4172"/>
<polygon fill="#191970" stroke="#191970" points="488.8215,-19.0732 478.2374,-18.5956 486.2135,-25.5693 488.8215,-19.0732"/>
</g>
<!-- Node10 -->
<g id="node11" class="node">
<title>Node10</title>
<polygon fill="#ffffff" stroke="#bfbfbf" points="499.1797,-.5 499.1797,-18.5 557.9824,-18.5 557.9824,-.5 499.1797,-.5"/>
<text text-anchor="middle" x="528.5811" y="-6.5" font-family="Helvetica,sans-Serif" font-size="10.00" fill="#000000">stdexcept</text>
</g>
<!-- Node7&#45;&gt;Node10 -->
<g id="edge10" class="edge">
<title>Node7&#45;&gt;Node10</title>
<path fill="none" stroke="#191970" d="M582.0128,-55.4179C572.5278,-47.2667 558.3936,-35.1201 547.0444,-25.3669"/>
<polygon fill="#191970" stroke="#191970" points="549.2444,-22.6427 539.379,-18.7795 544.682,-27.9516 549.2444,-22.6427"/>
</g>
<!-- Node11 -->
<g id="node12" class="node">
<title>Node11</title>
<polygon fill="#ffffff" stroke="#bfbfbf" points="576.0688,-.5 576.0688,-18.5 627.0933,-18.5 627.0933,-.5 576.0688,-.5"/>
<text text-anchor="middle" x="601.5811" y="-6.5" font-family="Helvetica,sans-Serif" font-size="10.00" fill="#000000">typeinfo</text>
</g>
<!-- Node7&#45;&gt;Node11 -->
<g id="edge11" class="edge">
<title>Node7&#45;&gt;Node11</title>
<path fill="none" stroke="#191970" d="M594.0672,-55.4179C595.2457,-48.2164 596.9344,-37.8962 598.4125,-28.8632"/>
<polygon fill="#191970" stroke="#191970" points="601.9017,-29.2134 600.0626,-18.7795 594.9936,-28.083 601.9017,-29.2134"/>
</g>
<!-- Node12 -->
<g id="node13" class="node">
<title>Node12</title>
<polygon fill="#ffffff" stroke="#bfbfbf" points="645.5146,-.5 645.5146,-18.5 707.6475,-18.5 707.6475,-.5 645.5146,-.5"/>
<text text-anchor="middle" x="676.5811" y="-6.5" font-family="Helvetica,sans-Serif" font-size="10.00" fill="#000000">type_traits</text>
</g>
<!-- Node7&#45;&gt;Node12 -->
<g id="edge12" class="edge">
<title>Node7&#45;&gt;Node12</title>
<path fill="none" stroke="#191970" d="M606.4519,-55.4179C619.3408,-46.9788 638.7704,-34.257 653.9124,-24.3426"/>
<polygon fill="#191970" stroke="#191970" points="656.2406,-27.0017 662.6896,-18.5956 652.4061,-21.1454 656.2406,-27.0017"/>
</g>
<!-- Node13&#45;&gt;Node3 -->
<g id="edge17" class="edge">
<title>Node13&#45;&gt;Node3</title>
<path fill="none" stroke="#191970" d="M268.8116,-110.4179C243.1695,-101.0158 203.0296,-86.2978 175.1321,-76.0687"/>
<polygon fill="#191970" stroke="#191970" points="176.0512,-72.6779 165.4575,-72.5214 173.6414,-79.2501 176.0512,-72.6779"/>
</g>
<!-- Node14 -->
<g id="node15" class="node">
<title>Node14</title>
<polygon fill="#ffffff" stroke="#bfbfbf" points="203.9111,-55.5 203.9111,-73.5 253.251,-73.5 253.251,-55.5 203.9111,-55.5"/>
<text text-anchor="middle" x="228.5811" y="-61.5" font-family="Helvetica,sans-Serif" font-size="10.00" fill="#000000">fstream</text>
</g>
<!-- Node13&#45;&gt;Node14 -->
<g id="edge14" class="edge">
<title>Node13&#45;&gt;Node14</title>
<path fill="none" stroke="#191970" d="M282.8476,-110.4179C273.2144,-102.2667 258.8594,-90.1201 247.3329,-80.3669"/>
<polygon fill="#191970" stroke="#191970" points="249.4424,-77.5671 239.5477,-73.7795 244.9208,-82.9108 249.4424,-77.5671"/>
</g>
<!-- Node15 -->
<g id="node16" class="node">
<title>Node15</title>
<polygon fill="#ffffff" stroke="#bfbfbf" points="271.4087,-55.5 271.4087,-73.5 325.7534,-73.5 325.7534,-55.5 271.4087,-55.5"/>
<text text-anchor="middle" x="298.5811" y="-61.5" font-family="Helvetica,sans-Serif" font-size="10.00" fill="#000000">iostream</text>
</g>
<!-- Node13&#45;&gt;Node15 -->
<g id="edge15" class="edge">
<title>Node13&#45;&gt;Node15</title>
<path fill="none" stroke="#191970" d="M294.4067,-110.4179C295.0614,-103.2164 295.9996,-92.8962 296.8208,-83.8632"/>
<polygon fill="#191970" stroke="#191970" points="300.3176,-84.0553 297.7375,-73.7795 293.3464,-83.4215 300.3176,-84.0553"/>
</g>
<!-- Node13&#45;&gt;Node16 -->
<g id="edge16" class="edge">
<title>Node13&#45;&gt;Node16</title>
<path fill="none" stroke="#191970" d="M305.9658,-110.4179C317.3651,-102.0584 334.4947,-89.4966 347.9575,-79.6239"/>
<polygon fill="#191970" stroke="#191970" points="350.1836,-82.3317 356.1779,-73.5956 346.0441,-76.6869 350.1836,-82.3317"/>
</g>
<!-- Node18&#45;&gt;Node4 -->
<g id="edge27" class="edge">
<title>Node18&#45;&gt;Node4</title>
<path fill="none" stroke="#191970" d="M318.0324,-295.4115C307.0955,-285.9684 293.3039,-272.7779 283.5811,-259 257.0924,-221.4638 269.0131,-201.0865 240.5811,-165 231.0505,-152.9036 217.6654,-142.1263 206.1548,-134.1005"/>
<polygon fill="#191970" stroke="#191970" points="208.0713,-131.1717 197.8128,-128.5232 204.1806,-136.9909 208.0713,-131.1717"/>
</g>
<!-- Node19 -->
<g id="node20" class="node">
<title>Node19</title>
<g id="a_node20"><a xlink:href="AdditiveMeasurementModel_8h.html" target="_top" xlink:title="BayesFilters/AdditiveMeasurement\lModel.h">
<polygon fill="#ffffff" stroke="#000000" points="292.3276,-230.5 292.3276,-258.5 462.8345,-258.5 462.8345,-230.5 292.3276,-230.5"/>
<text text-anchor="start" x="300.3276" y="-246.5" font-family="Helvetica,sans-Serif" font-size="10.00" fill="#000000">BayesFilters/AdditiveMeasurement</text>
<text text-anchor="middle" x="377.5811" y="-236.5" font-family="Helvetica,sans-Serif" font-size="10.00" fill="#000000">Model.h</text>
</a>
</g>
</g>
<!-- Node18&#45;&gt;Node19 -->
<g id="edge25" class="edge">
<title>Node18&#45;&gt;Node19</title>
<path fill="none" stroke="#191970" d="M344.6944,-295.396C350.0331,-287.1338 356.8999,-276.5065 362.9769,-267.1017"/>
<polygon fill="#191970" stroke="#191970" points="365.998,-268.8752 368.4855,-258.5765 360.1186,-265.0762 365.998,-268.8752"/>
</g>
<!-- Node19&#45;&gt;Node5 -->
<g id="edge26" class="edge">
<title>Node19&#45;&gt;Node5</title>
<path fill="none" stroke="#191970" d="M377.5811,-230.396C377.5811,-222.6448 377.5811,-212.8122 377.5811,-203.8601"/>
<polygon fill="#191970" stroke="#191970" points="381.0812,-203.5765 377.5811,-193.5765 374.0812,-203.5765 381.0812,-203.5765"/>
</g>
</g>
</svg>
        <g id="navigator" transform="translate(0 0)" fill="#404254">
                <rect fill="#f2f5e9" fill-opacity="0.5" stroke="#606060" stroke-width=".5" x="0" y="0" width="60" height="60"/>
                <use id="zoomplus" xlink:href="#zoomPlus" x="17" y="9" onmousedown="handleZoom(evt,'in')"/>
                <use id="zoomminus" xlink:href="#zoomMin" x="42" y="9" onmousedown="handleZoom(evt,'out')"/>
                <use id="reset" xlink:href="#resetDef" x="30" y="36" onmousedown="handleReset()"/>
                <g id="arrowUp" xlink:href="#dirArrow" transform="translate(30 24)" onmousedown="handlePan(0,-1)">
                  <use xlink:href="#rim" fill="#404040">
                        <set attributeName="fill" to="#808080" begin="arrowUp.mouseover" end="arrowUp.mouseout"/>
                  </use>
                  <path fill="none" stroke="white" stroke-width="1.5" d="M0,-3.0v7 M-2.5,-0.5L0,-3.0L2.5,-0.5"/>
                </g>
                <g id="arrowRight" xlink:href="#dirArrow" transform="rotate(90) translate(36 -43)" onmousedown="handlePan(1,0)">
                  <use xlink:href="#rim" fill="#404040">
                        <set attributeName="fill" to="#808080" begin="arrowRight.mouseover" end="arrowRight.mouseout"/>
                  </use>
                  <path fill="none" stroke="white" stroke-width="1.5" d="M0,-3.0v7 M-2.5,-0.5L0,-3.0L2.5,-0.5"/>
                </g>
                <g id="arrowDown" xlink:href="#dirArrow" transform="rotate(180) translate(-30 -48)" onmousedown="handlePan(0,1)">
                  <use xlink:href="#rim" fill="#404040">
                        <set attributeName="fill" to="#808080" begin="arrowDown.mouseover" end="arrowDown.mouseout"/>
                  </use>
                  <path fill="none" stroke="white" stroke-width="1.5" d="M0,-3.0v7 M-2.5,-0.5L0,-3.0L2.5,-0.5"/>
                </g>
                <g id="arrowLeft" xlink:href="#dirArrow" transform="rotate(270) translate(-36 17)" onmousedown="handlePan(-1,0)">
                  <use xlink:href="#rim" fill="#404040">
                        <set attributeName="fill" to="#808080" begin="arrowLeft.mouseover" end="arrowLeft.mouseout"/>
                  </use>
                  <path fill="none" stroke="white" stroke-width="1.5" d="M0,-3.0v7 M-2.5,-0.5L0,-3.0L2.5,-0.5"/>
                </g>
        </g>
        <svg viewBox="0 0 15 15" width="100%" height="30px" preserveAspectRatio="xMaxYMin meet">
         <g id="arrow_out" transform="scale(0.3 0.3)">
          <a xlink:href="KFCorrection_8h__incl_org.svg" target="_base">
           <rect id="button" ry="5" rx="5" y="6" x="6" height="38" width="38"
                fill="#f2f5e9" fill-opacity="0.5" stroke="#606060" stroke-width="1.0"/>
           <path id="arrow"
             d="M 11.500037,31.436501 C 11.940474,20.09759 22.043105,11.32322 32.158766,21.979434 L 37.068811,17.246167 C 37.068811,17.246167 37.088388,32 37.088388,32 L 22.160133,31.978069 C 22.160133,31.978069 26.997745,27.140456 26.997745,27.140456 C 18.528582,18.264221 13.291696,25.230495 11.500037,31.436501 z"
             style="fill:#404040;"/>
          </a>
         </g>
        </svg>
</svg>
