<?xml version="1.0" encoding="UTF-8" standalone="no"?>
<!DOCTYPE svg PUBLIC "-//W3C//DTD SVG 1.1//EN"
 "http://www.w3.org/Graphics/SVG/1.1/DTD/svg11.dtd">
<!-- Generated by graphviz version 2.40.1 (20161225.0304)
 -->
<!-- Title: /Users/Claudio/GitHub/bayes&#45;filters&#45;lib/src/BayesFilters/src/KFCorrection.cpp Pages: 1 -->
<svg width="791pt" height="462pt"
 viewBox="0.00 0.00 791.15 462.00" xmlns="http://www.w3.org/2000/svg" xmlns:xlink="http://www.w3.org/1999/xlink">
<g id="graph0" class="graph" transform="scale(1 1) rotate(0) translate(4 458)">
<title>/Users/Claudio/GitHub/bayes&#45;filters&#45;lib/src/BayesFilters/src/KFCorrection.cpp</title>
<polygon fill="#ffffff" stroke="transparent" points="-4,4 -4,-458 787.145,-458 787.145,4 -4,4"/>
<!-- Node0 -->
<g id="node1" class="node">
<title>Node0</title>
<polygon fill="#bfbfbf" stroke="#000000" points="112.3374,-415.5 112.3374,-453.5 282.8247,-453.5 282.8247,-415.5 112.3374,-415.5"/>
<text text-anchor="start" x="120.3374" y="-441.5" font-family="Helvetica,sans-Serif" font-size="10.00" fill="#000000">/Users/Claudio/GitHub</text>
<text text-anchor="start" x="120.3374" y="-431.5" font-family="Helvetica,sans-Serif" font-size="10.00" fill="#000000">/bayes&#45;filters&#45;lib/src</text>
<text text-anchor="middle" x="197.5811" y="-421.5" font-family="Helvetica,sans-Serif" font-size="10.00" fill="#000000">/BayesFilters/src/KFCorrection.cpp</text>
</g>
<!-- Node1 -->
<g id="node2" class="node">
<title>Node1</title>
<g id="a_node2"><a xlink:href="KFCorrection_8h.html" target="_top" xlink:title="BayesFilters/KFCorrection.h">
<polygon fill="#ffffff" stroke="#000000" points="127.0615,-360.5 127.0615,-378.5 268.1006,-378.5 268.1006,-360.5 127.0615,-360.5"/>
<text text-anchor="middle" x="197.5811" y="-366.5" font-family="Helvetica,sans-Serif" font-size="10.00" fill="#000000">BayesFilters/KFCorrection.h</text>
</a>
</g>
</g>
<!-- Node0&#45;&gt;Node1 -->
<g id="edge1" class="edge">
<title>Node0&#45;&gt;Node1</title>
<path fill="none" stroke="#191970" d="M197.5811,-415.3494C197.5811,-407.0079 197.5811,-397.2463 197.5811,-388.879"/>
<polygon fill="#191970" stroke="#191970" points="201.0812,-388.5978 197.5811,-378.5978 194.0812,-388.5979 201.0812,-388.5978"/>
</g>
<!-- Node2 -->
<g id="node3" class="node">
<title>Node2</title>
<g id="a_node3"><a xlink:href="GaussianCorrection_8h.html" target="_top" xlink:title="BayesFilters/GaussianCorrection.h">
<polygon fill="#ffffff" stroke="#000000" points="28.3276,-235.5 28.3276,-253.5 198.8345,-253.5 198.8345,-235.5 28.3276,-235.5"/>
<text text-anchor="middle" x="113.5811" y="-241.5" font-family="Helvetica,sans-Serif" font-size="10.00" fill="#000000">BayesFilters/GaussianCorrection.h</text>
</a>
</g>
</g>
<!-- Node1&#45;&gt;Node2 -->
<g id="edge2" class="edge">
<title>Node1&#45;&gt;Node2</title>
<path fill="none" stroke="#191970" d="M191.2674,-360.1047C177.2739,-339.281 143.4657,-288.9713 125.4107,-262.1036"/>
<polygon fill="#191970" stroke="#191970" points="128.2224,-260.0125 119.7397,-253.6646 122.4123,-263.9168 128.2224,-260.0125"/>
</g>
<!-- Node3 -->
<g id="node4" class="node">
<title>Node3</title>
<g id="a_node4"><a xlink:href="GaussianMixture_8h.html" target="_top" xlink:title="BayesFilters/GaussianMixture.h">
<polygon fill="#ffffff" stroke="#000000" points="0,-170.5 0,-188.5 157.1621,-188.5 157.1621,-170.5 0,-170.5"/>
<text text-anchor="middle" x="78.5811" y="-176.5" font-family="Helvetica,sans-Serif" font-size="10.00" fill="#000000">BayesFilters/GaussianMixture.h</text>
</a>
</g>
</g>
<!-- Node1&#45;&gt;Node3 -->
<g id="edge24" class="edge">
<title>Node1&#45;&gt;Node3</title>
<path fill="none" stroke="#191970" d="M166.1308,-360.4995C123.9876,-346.5482 50.8761,-315.2625 19.5811,-259 13.3158,-247.7363 14.1913,-241.7078 19.5811,-230 26.4772,-215.0199 40.252,-202.8264 52.7581,-194.1762"/>
<polygon fill="#191970" stroke="#191970" points="55.0226,-196.8802 61.5239,-188.5146 51.2247,-191.0001 55.0226,-196.8802"/>
</g>
<!-- Node5 -->
<g id="node6" class="node">
<title>Node5</title>
<polygon fill="#ffffff" stroke="#bfbfbf" points="145.9507,-110.5 145.9507,-128.5 219.2114,-128.5 219.2114,-110.5 145.9507,-110.5"/>
<text text-anchor="middle" x="182.5811" y="-116.5" font-family="Helvetica,sans-Serif" font-size="10.00" fill="#000000">Eigen/Dense</text>
</g>
<!-- Node1&#45;&gt;Node5 -->
<g id="edge29" class="edge">
<title>Node1&#45;&gt;Node5</title>
<path fill="none" stroke="#191970" d="M199.3931,-360.3369C203.5589,-338.0006 213.0533,-278.9855 207.5811,-230 203.9197,-197.2247 194.3299,-159.9803 188.1482,-138.1811"/>
<polygon fill="#191970" stroke="#191970" points="191.5016,-137.1782 185.3519,-128.5508 184.7793,-139.1302 191.5016,-137.1782"/>
</g>
<!-- Node19 -->
<g id="node20" class="node">
<title>Node19</title>
<g id="a_node20"><a xlink:href="LinearMeasurementModel_8h.html" target="_top" xlink:title="BayesFilters/LinearMeasurement\lModel.h">
<polygon fill="#ffffff" stroke="#000000" points="254.2168,-295.5 254.2168,-323.5 416.9453,-323.5 416.9453,-295.5 254.2168,-295.5"/>
<text text-anchor="start" x="262.2168" y="-311.5" font-family="Helvetica,sans-Serif" font-size="10.00" fill="#000000">BayesFilters/LinearMeasurement</text>
<text text-anchor="middle" x="335.5811" y="-301.5" font-family="Helvetica,sans-Serif" font-size="10.00" fill="#000000">Model.h</text>
</a>
</g>
</g>
<!-- Node1&#45;&gt;Node19 -->
<g id="edge25" class="edge">
<title>Node1&#45;&gt;Node19</title>
<path fill="none" stroke="#191970" d="M218.5403,-360.3873C238.5311,-351.6956 269.2025,-338.3602 294.1325,-327.5211"/>
<polygon fill="#191970" stroke="#191970" points="295.5966,-330.7011 303.3718,-323.504 292.8055,-324.2816 295.5966,-330.7011"/>
</g>
<!-- Node2&#45;&gt;Node3 -->
<g id="edge3" class="edge">
<title>Node2&#45;&gt;Node3</title>
<path fill="none" stroke="#191970" d="M108.7145,-235.462C103.4974,-225.7732 95.0728,-210.1276 88.4561,-197.8393"/>
<polygon fill="#191970" stroke="#191970" points="91.4557,-196.0275 83.633,-188.8821 85.2924,-199.3462 91.4557,-196.0275"/>
</g>
<!-- Node2&#45;&gt;Node5 -->
<g id="edge23" class="edge">
<title>Node2&#45;&gt;Node5</title>
<path fill="none" stroke="#191970" d="M127.0894,-235.3216C139.331,-226.267 156.8925,-211.2985 166.5811,-194 176.1524,-176.9107 180.0044,-154.6682 181.5511,-138.9499"/>
<polygon fill="#191970" stroke="#191970" points="185.0527,-139.0607 182.3187,-128.8247 178.0727,-138.5314 185.0527,-139.0607"/>
</g>
<!-- Node6 -->
<g id="node7" class="node">
<title>Node6</title>
<g id="a_node7"><a xlink:href="MeasurementModel_8h.html" target="_top" xlink:title="BayesFilters/Measurement\lModel.h">
<polygon fill="#ffffff" stroke="#000000" points="310.1157,-165.5 310.1157,-193.5 445.0464,-193.5 445.0464,-165.5 310.1157,-165.5"/>
<text text-anchor="start" x="318.1157" y="-181.5" font-family="Helvetica,sans-Serif" font-size="10.00" fill="#000000">BayesFilters/Measurement</text>
<text text-anchor="middle" x="377.5811" y="-171.5" font-family="Helvetica,sans-Serif" font-size="10.00" fill="#000000">Model.h</text>
</a>
</g>
</g>
<!-- Node2&#45;&gt;Node6 -->
<g id="edge6" class="edge">
<title>Node2&#45;&gt;Node6</title>
<path fill="none" stroke="#191970" d="M150.2891,-235.462C191.5976,-225.2914 259.566,-208.5567 310.4352,-196.0321"/>
<polygon fill="#191970" stroke="#191970" points="311.4949,-199.3758 320.3681,-193.5865 309.8213,-192.5788 311.4949,-199.3758"/>
</g>
<!-- Node4 -->
<g id="node5" class="node">
<title>Node4</title>
<polygon fill="#ffffff" stroke="#bfbfbf" points="121.9653,-55.5 121.9653,-73.5 165.1968,-73.5 165.1968,-55.5 121.9653,-55.5"/>
<text text-anchor="middle" x="143.5811" y="-61.5" font-family="Helvetica,sans-Serif" font-size="10.00" fill="#000000">vector</text>
</g>
<!-- Node3&#45;&gt;Node4 -->
<g id="edge4" class="edge">
<title>Node3&#45;&gt;Node4</title>
<path fill="none" stroke="#191970" d="M83.6815,-170.4761C94.3555,-151.5914 119.2245,-107.5924 133.3327,-82.6318"/>
<polygon fill="#191970" stroke="#191970" points="136.4501,-84.2292 138.3238,-73.8014 130.3562,-80.7848 136.4501,-84.2292"/>
</g>
<!-- Node3&#45;&gt;Node5 -->
<g id="edge5" class="edge">
<title>Node3&#45;&gt;Node5</title>
<path fill="none" stroke="#191970" d="M94.3764,-170.3873C111.3494,-160.5952 138.5385,-144.9092 158.2471,-133.5388"/>
<polygon fill="#191970" stroke="#191970" points="160.065,-136.5308 166.9778,-128.5019 156.5669,-130.4675 160.065,-136.5308"/>
</g>
<!-- Node6&#45;&gt;Node5 -->
<g id="edge22" class="edge">
<title>Node6&#45;&gt;Node5</title>
<path fill="none" stroke="#191970" d="M331.8622,-165.4327C298.4433,-155.1499 253.5906,-141.3491 221.7987,-131.567"/>
<polygon fill="#191970" stroke="#191970" points="222.5538,-128.1374 211.9667,-128.5417 220.4951,-134.8279 222.5538,-128.1374"/>
</g>
<!-- Node7 -->
<g id="node8" class="node">
<title>Node7</title>
<g id="a_node8"><a xlink:href="Data_8h.html" target="_top" xlink:title="BayesFilters/Data.h">
<polygon fill="#ffffff" stroke="#000000" points="532.9531,-110.5 532.9531,-128.5 636.209,-128.5 636.209,-110.5 532.9531,-110.5"/>
<text text-anchor="middle" x="584.5811" y="-116.5" font-family="Helvetica,sans-Serif" font-size="10.00" fill="#000000">BayesFilters/Data.h</text>
</a>
</g>
</g>
<!-- Node6&#45;&gt;Node7 -->
<g id="edge7" class="edge">
<title>Node6&#45;&gt;Node7</title>
<path fill="none" stroke="#191970" d="M426.1134,-165.4327C461.7424,-155.1054 509.6142,-141.2295 543.3875,-131.4402"/>
<polygon fill="#191970" stroke="#191970" points="544.7568,-134.6874 553.3871,-128.5417 542.808,-127.9641 544.7568,-134.6874"/>
</g>
<!-- Node10 -->
<g id="node11" class="node">
<title>Node10</title>
<polygon fill="#ffffff" stroke="#bfbfbf" points="429.5244,-.5 429.5244,-18.5 481.6377,-18.5 481.6377,-.5 429.5244,-.5"/>
<text text-anchor="middle" x="455.5811" y="-6.5" font-family="Helvetica,sans-Serif" font-size="10.00" fill="#000000">memory</text>
</g>
<!-- Node6&#45;&gt;Node10 -->
<g id="edge19" class="edge">
<title>Node6&#45;&gt;Node10</title>
<path fill="none" stroke="#191970" d="M411.7017,-165.4552C427.0433,-157.239 443.6739,-145.2408 452.5811,-129 469.9758,-97.2833 465.0739,-53.3575 460.1739,-28.552"/>
<polygon fill="#191970" stroke="#191970" points="463.5563,-27.6356 458.0027,-18.6129 456.7176,-29.1295 463.5563,-27.6356"/>
</g>
<!-- Node14 -->
<g id="node15" class="node">
<title>Node14</title>
<g id="a_node15"><a xlink:href="Logger_8h.html" target="_top" xlink:title="BayesFilters/Logger.h">
<polygon fill="#ffffff" stroke="#000000" points="237.2192,-110.5 237.2192,-128.5 349.9429,-128.5 349.9429,-110.5 237.2192,-110.5"/>
<text text-anchor="middle" x="293.5811" y="-116.5" font-family="Helvetica,sans-Serif" font-size="10.00" fill="#000000">BayesFilters/Logger.h</text>
</a>
</g>
</g>
<!-- Node6&#45;&gt;Node14 -->
<g id="edge14" class="edge">
<title>Node6&#45;&gt;Node14</title>
<path fill="none" stroke="#191970" d="M357.6742,-165.2808C344.7448,-156.0456 327.9105,-144.021 314.7392,-134.613"/>
<polygon fill="#191970" stroke="#191970" points="316.4706,-131.5485 306.2989,-128.5842 312.4019,-137.2447 316.4706,-131.5485"/>
</g>
<!-- Node17 -->
<g id="node18" class="node">
<title>Node17</title>
<polygon fill="#ffffff" stroke="#bfbfbf" points="348.3545,-55.5 348.3545,-73.5 388.8076,-73.5 388.8076,-55.5 348.3545,-55.5"/>
<text text-anchor="middle" x="368.5811" y="-61.5" font-family="Helvetica,sans-Serif" font-size="10.00" fill="#000000">string</text>
</g>
<!-- Node6&#45;&gt;Node17 -->
<g id="edge20" class="edge">
<title>Node6&#45;&gt;Node17</title>
<path fill="none" stroke="#191970" d="M376.4775,-165.3987C374.8793,-144.9779 371.9148,-107.0975 370.1078,-84.0089"/>
<polygon fill="#191970" stroke="#191970" points="373.5729,-83.425 369.3033,-73.7286 366.5943,-83.9713 373.5729,-83.425"/>
</g>
<!-- Node18 -->
<g id="node19" class="node">
<title>Node18</title>
<polygon fill="#ffffff" stroke="#bfbfbf" points="405.1895,-110.5 405.1895,-128.5 443.9727,-128.5 443.9727,-110.5 405.1895,-110.5"/>
<text text-anchor="middle" x="424.5811" y="-116.5" font-family="Helvetica,sans-Serif" font-size="10.00" fill="#000000">utility</text>
</g>
<!-- Node6&#45;&gt;Node18 -->
<g id="edge21" class="edge">
<title>Node6&#45;&gt;Node18</title>
<path fill="none" stroke="#191970" d="M388.7194,-165.2808C395.4668,-156.6672 404.1148,-145.6271 411.2279,-136.5466"/>
<polygon fill="#191970" stroke="#191970" points="414.0538,-138.6148 417.4651,-128.5842 408.5431,-134.2982 414.0538,-138.6148"/>
</g>
<!-- Node8 -->
<g id="node9" class="node">
<title>Node8</title>
<g id="a_node9"><a xlink:href="any_8h.html" target="_top" xlink:title="BayesFilters/any.h">
<polygon fill="#ffffff" stroke="#000000" points="543.8218,-55.5 543.8218,-73.5 641.3403,-73.5 641.3403,-55.5 543.8218,-55.5"/>
<text text-anchor="middle" x="592.5811" y="-61.5" font-family="Helvetica,sans-Serif" font-size="10.00" fill="#000000">BayesFilters/any.h</text>
</a>
</g>
</g>
<!-- Node7&#45;&gt;Node8 -->
<g id="edge8" class="edge">
<title>Node7&#45;&gt;Node8</title>
<path fill="none" stroke="#191970" d="M585.9021,-110.4179C586.9496,-103.2164 588.4507,-92.8962 589.7646,-83.8632"/>
<polygon fill="#191970" stroke="#191970" points="593.2554,-84.1791 591.2313,-73.7795 586.3283,-83.1715 593.2554,-84.1791"/>
</g>
<!-- Node9 -->
<g id="node10" class="node">
<title>Node9</title>
<polygon fill="#ffffff" stroke="#bfbfbf" points="726.0171,-.5 726.0171,-18.5 783.145,-18.5 783.145,-.5 726.0171,-.5"/>
<text text-anchor="middle" x="754.5811" y="-6.5" font-family="Helvetica,sans-Serif" font-size="10.00" fill="#000000">algorithm</text>
</g>
<!-- Node8&#45;&gt;Node9 -->
<g id="edge9" class="edge">
<title>Node8&#45;&gt;Node9</title>
<path fill="none" stroke="#191970" d="M619.3321,-55.4179C646.3803,-46.2348 688.3651,-31.9807 718.3788,-21.7909"/>
<polygon fill="#191970" stroke="#191970" points="719.7156,-25.0333 728.0596,-18.5042 717.4652,-18.4049 719.7156,-25.0333"/>
</g>
<!-- Node8&#45;&gt;Node10 -->
<g id="edge10" class="edge">
<title>Node8&#45;&gt;Node10</title>
<path fill="none" stroke="#191970" d="M569.9583,-55.4179C547.5491,-46.4215 513.0166,-32.5581 487.7565,-22.4172"/>
<polygon fill="#191970" stroke="#191970" points="488.8215,-19.0732 478.2374,-18.5956 486.2135,-25.5693 488.8215,-19.0732"/>
</g>
<!-- Node11 -->
<g id="node12" class="node">
<title>Node11</title>
<polygon fill="#ffffff" stroke="#bfbfbf" points="499.1797,-.5 499.1797,-18.5 557.9824,-18.5 557.9824,-.5 499.1797,-.5"/>
<text text-anchor="middle" x="528.5811" y="-6.5" font-family="Helvetica,sans-Serif" font-size="10.00" fill="#000000">stdexcept</text>
</g>
<!-- Node8&#45;&gt;Node11 -->
<g id="edge11" class="edge">
<title>Node8&#45;&gt;Node11</title>
<path fill="none" stroke="#191970" d="M582.0128,-55.4179C572.5278,-47.2667 558.3936,-35.1201 547.0444,-25.3669"/>
<polygon fill="#191970" stroke="#191970" points="549.2444,-22.6427 539.379,-18.7795 544.682,-27.9516 549.2444,-22.6427"/>
</g>
<!-- Node12 -->
<g id="node13" class="node">
<title>Node12</title>
<polygon fill="#ffffff" stroke="#bfbfbf" points="576.0688,-.5 576.0688,-18.5 627.0933,-18.5 627.0933,-.5 576.0688,-.5"/>
<text text-anchor="middle" x="601.5811" y="-6.5" font-family="Helvetica,sans-Serif" font-size="10.00" fill="#000000">typeinfo</text>
</g>
<!-- Node8&#45;&gt;Node12 -->
<g id="edge12" class="edge">
<title>Node8&#45;&gt;Node12</title>
<path fill="none" stroke="#191970" d="M594.0672,-55.4179C595.2457,-48.2164 596.9344,-37.8962 598.4125,-28.8632"/>
<polygon fill="#191970" stroke="#191970" points="601.9017,-29.2134 600.0626,-18.7795 594.9936,-28.083 601.9017,-29.2134"/>
</g>
<!-- Node13 -->
<g id="node14" class="node">
<title>Node13</title>
<polygon fill="#ffffff" stroke="#bfbfbf" points="645.5146,-.5 645.5146,-18.5 707.6475,-18.5 707.6475,-.5 645.5146,-.5"/>
<text text-anchor="middle" x="676.5811" y="-6.5" font-family="Helvetica,sans-Serif" font-size="10.00" fill="#000000">type_traits</text>
</g>
<!-- Node8&#45;&gt;Node13 -->
<g id="edge13" class="edge">
<title>Node8&#45;&gt;Node13</title>
<path fill="none" stroke="#191970" d="M606.4519,-55.4179C619.3408,-46.9788 638.7704,-34.257 653.9124,-24.3426"/>
<polygon fill="#191970" stroke="#191970" points="656.2406,-27.0017 662.6896,-18.5956 652.4061,-21.1454 656.2406,-27.0017"/>
</g>
<!-- Node14&#45;&gt;Node4 -->
<g id="edge18" class="edge">
<title>Node14&#45;&gt;Node4</title>
<path fill="none" stroke="#191970" d="M268.8116,-110.4179C243.1695,-101.0158 203.0296,-86.2978 175.1321,-76.0687"/>
<polygon fill="#191970" stroke="#191970" points="176.0512,-72.6779 165.4575,-72.5214 173.6414,-79.2501 176.0512,-72.6779"/>
</g>
<!-- Node15 -->
<g id="node16" class="node">
<title>Node15</title>
<polygon fill="#ffffff" stroke="#bfbfbf" points="203.9111,-55.5 203.9111,-73.5 253.251,-73.5 253.251,-55.5 203.9111,-55.5"/>
<text text-anchor="middle" x="228.5811" y="-61.5" font-family="Helvetica,sans-Serif" font-size="10.00" fill="#000000">fstream</text>
</g>
<!-- Node14&#45;&gt;Node15 -->
<g id="edge15" class="edge">
<title>Node14&#45;&gt;Node15</title>
<path fill="none" stroke="#191970" d="M282.8476,-110.4179C273.2144,-102.2667 258.8594,-90.1201 247.3329,-80.3669"/>
<polygon fill="#191970" stroke="#191970" points="249.4424,-77.5671 239.5477,-73.7795 244.9208,-82.9108 249.4424,-77.5671"/>
</g>
<!-- Node16 -->
<g id="node17" class="node">
<title>Node16</title>
<polygon fill="#ffffff" stroke="#bfbfbf" points="271.4087,-55.5 271.4087,-73.5 325.7534,-73.5 325.7534,-55.5 271.4087,-55.5"/>
<text text-anchor="middle" x="298.5811" y="-61.5" font-family="Helvetica,sans-Serif" font-size="10.00" fill="#000000">iostream</text>
</g>
<!-- Node14&#45;&gt;Node16 -->
<g id="edge16" class="edge">
<title>Node14&#45;&gt;Node16</title>
<path fill="none" stroke="#191970" d="M294.4067,-110.4179C295.0614,-103.2164 295.9996,-92.8962 296.8208,-83.8632"/>
<polygon fill="#191970" stroke="#191970" points="300.3176,-84.0553 297.7375,-73.7795 293.3464,-83.4215 300.3176,-84.0553"/>
</g>
<!-- Node14&#45;&gt;Node17 -->
<g id="edge17" class="edge">
<title>Node14&#45;&gt;Node17</title>
<path fill="none" stroke="#191970" d="M305.9658,-110.4179C317.3651,-102.0584 334.4947,-89.4966 347.9575,-79.6239"/>
<polygon fill="#191970" stroke="#191970" points="350.1836,-82.3317 356.1779,-73.5956 346.0441,-76.6869 350.1836,-82.3317"/>
</g>
<!-- Node19&#45;&gt;Node5 -->
<g id="edge28" class="edge">
<title>Node19&#45;&gt;Node5</title>
<path fill="none" stroke="#191970" d="M318.0324,-295.4115C307.0955,-285.9684 293.3039,-272.7779 283.5811,-259 257.0924,-221.4638 269.0131,-201.0865 240.5811,-165 231.0505,-152.9036 217.6654,-142.1263 206.1548,-134.1005"/>
<polygon fill="#191970" stroke="#191970" points="208.0713,-131.1717 197.8128,-128.5232 204.1806,-136.9909 208.0713,-131.1717"/>
</g>
<!-- Node20 -->
<g id="node21" class="node">
<title>Node20</title>
<g id="a_node21"><a xlink:href="AdditiveMeasurementModel_8h.html" target="_top" xlink:title="BayesFilters/AdditiveMeasurement\lModel.h">
<polygon fill="#ffffff" stroke="#000000" points="292.3276,-230.5 292.3276,-258.5 462.8345,-258.5 462.8345,-230.5 292.3276,-230.5"/>
<text text-anchor="start" x="300.3276" y="-246.5" font-family="Helvetica,sans-Serif" font-size="10.00" fill="#000000">BayesFilters/AdditiveMeasurement</text>
<text text-anchor="middle" x="377.5811" y="-236.5" font-family="Helvetica,sans-Serif" font-size="10.00" fill="#000000">Model.h</text>
</a>
</g>
</g>
<!-- Node19&#45;&gt;Node20 -->
<g id="edge26" class="edge">
<title>Node19&#45;&gt;Node20</title>
<path fill="none" stroke="#191970" d="M344.6944,-295.396C350.0331,-287.1338 356.8999,-276.5065 362.9769,-267.1017"/>
<polygon fill="#191970" stroke="#191970" points="365.998,-268.8752 368.4855,-258.5765 360.1186,-265.0762 365.998,-268.8752"/>
</g>
<!-- Node20&#45;&gt;Node6 -->
<g id="edge27" class="edge">
<title>Node20&#45;&gt;Node6</title>
<path fill="none" stroke="#191970" d="M377.5811,-230.396C377.5811,-222.6448 377.5811,-212.8122 377.5811,-203.8601"/>
<polygon fill="#191970" stroke="#191970" points="381.0812,-203.5765 377.5811,-193.5765 374.0812,-203.5765 381.0812,-203.5765"/>
</g>
</g>
</svg>
