<?xml version="1.0" encoding="UTF-8" standalone="no"?>
<!DOCTYPE svg PUBLIC "-//W3C//DTD SVG 1.1//EN"
 "http://www.w3.org/Graphics/SVG/1.1/DTD/svg11.dtd">
<!-- Generated by graphviz version 2.40.1 (20161225.0304)
 -->
<!-- Title: /Users/Claudio/GitHub/bayes&#45;filters&#45;lib/src/BayesFilters/include/BayesFilters/KFPrediction.h Pages: 1 -->
<!--zoomable 297 -->
<svg id="main" version="1.1" xmlns="http://www.w3.org/2000/svg" xmlns:xlink="http://www.w3.org/1999/xlink" xml:space="preserve" onload="init(evt)">
<style type="text/css"><![CDATA[
.edge:hover path { stroke: red; }
.edge:hover polygon { stroke: red; fill: red; }
]]></style>
<script type="text/javascript"><![CDATA[
var edges = document.getElementsByTagName('g');
if (edges && edges.length) {
  for (var i=0;i<edges.length;i++) {
    if (edges[i].id.substr(0,4)=='edge') {
      edges[i].setAttribute('class','edge');
    }
  }
}
]]></script>
        <defs>
                <circle id="rim" cx="0" cy="0" r="7"/>
                <circle id="rim2" cx="0" cy="0" r="3.5"/>
                <g id="zoomPlus">
                        <use xlink:href="#rim" fill="#404040">
                                <set attributeName="fill" to="#808080" begin="zoomplus.mouseover" end="zoomplus.mouseout"/>
                        </use>
                        <path d="M-4,0h8M0,-4v8" fill="none" stroke="white" stroke-width="1.5" pointer-events="none"/>
                </g>
                <g id="zoomMin">
                        <use xlink:href="#rim" fill="#404040">
                                <set attributeName="fill" to="#808080" begin="zoomminus.mouseover" end="zoomminus.mouseout"/>
                        </use>
                        <path d="M-4,0h8" fill="none" stroke="white" stroke-width="1.5" pointer-events="none"/>
                </g>
                <g id="dirArrow">
                        <path fill="none" stroke="white" stroke-width="1.5" d="M0,-3.0v7 M-2.5,-0.5L0,-3.0L2.5,-0.5"/>
                </g>
               <g id="resetDef">
                       <use xlink:href="#rim2" fill="#404040">
                               <set attributeName="fill" to="#808080" begin="reset.mouseover" end="reset.mouseout"/>
                       </use>
               </g>
        </defs>

<script type="text/javascript">
var viewWidth = 569;
var viewHeight = 297;
var sectionId = 'dynsection-0';
</script>
<script xlink:href="svgpan.js"/>
<svg id="graph" class="graph">
<g id="viewport">
<title>/Users/Claudio/GitHub/bayes&#45;filters&#45;lib/src/BayesFilters/include/BayesFilters/KFPrediction.h</title>
<polygon fill="#ffffff" stroke="transparent" points="-4,4 -4,-293 565.2852,-293 565.2852,4 -4,4"/>
<!-- Node0 -->
<g id="node1" class="node">
<title>Node0</title>
<polygon fill="#bfbfbf" stroke="#000000" points="251.5542,-240.5 251.5542,-288.5 417.6079,-288.5 417.6079,-240.5 251.5542,-240.5"/>
<text text-anchor="start" x="259.5542" y="-276.5" font-family="Helvetica,sans-Serif" font-size="10.00" fill="#000000">/Users/Claudio/GitHub</text>
<text text-anchor="start" x="259.5542" y="-266.5" font-family="Helvetica,sans-Serif" font-size="10.00" fill="#000000">/bayes&#45;filters&#45;lib/src</text>
<text text-anchor="start" x="259.5542" y="-256.5" font-family="Helvetica,sans-Serif" font-size="10.00" fill="#000000">/BayesFilters/include/BayesFilters</text>
<text text-anchor="middle" x="334.5811" y="-246.5" font-family="Helvetica,sans-Serif" font-size="10.00" fill="#000000">/KFPrediction.h</text>
</g>
<!-- Node1 -->
<g id="node2" class="node">
<title>Node1</title>
<g id="a_node2"><a xlink:href="GaussianMixture_8h.html" target="_top" xlink:title="BayesFilters/GaussianMixture.h">
<polygon fill="#ffffff" stroke="#000000" points="0,-115.5 0,-133.5 157.1621,-133.5 157.1621,-115.5 0,-115.5"/>
<text text-anchor="middle" x="78.5811" y="-121.5" font-family="Helvetica,sans-Serif" font-size="10.00" fill="#000000">BayesFilters/GaussianMixture.h</text>
</a>
</g>
</g>
<!-- Node0&#45;&gt;Node1 -->
<g id="edge1" class="edge">
<title>Node0&#45;&gt;Node1</title>
<path fill="none" stroke="#191970" d="M251.5288,-256.1396C184.6121,-247.4856 98.2288,-231.3112 76.5811,-204 63.0871,-186.9757 66.9361,-160.8464 71.9067,-143.2355"/>
<polygon fill="#191970" stroke="#191970" points="75.2985,-144.1193 75.0016,-133.5286 68.6293,-141.9928 75.2985,-144.1193"/>
</g>
<!-- Node4 -->
<g id="node5" class="node">
<title>Node4</title>
<g id="a_node5"><a xlink:href="GaussianPrediction_8h.html" target="_top" xlink:title="BayesFilters/GaussianPrediction.h">
<polygon fill="#ffffff" stroke="#000000" points="85.1577,-180.5 85.1577,-198.5 254.0044,-198.5 254.0044,-180.5 85.1577,-180.5"/>
<text text-anchor="middle" x="169.5811" y="-186.5" font-family="Helvetica,sans-Serif" font-size="10.00" fill="#000000">BayesFilters/GaussianPrediction.h</text>
</a>
</g>
</g>
<!-- Node0&#45;&gt;Node4 -->
<g id="edge4" class="edge">
<title>Node0&#45;&gt;Node4</title>
<path fill="none" stroke="#191970" d="M281.4658,-240.3567C254.0982,-227.9169 221.7681,-213.2214 198.9171,-202.8346"/>
<polygon fill="#191970" stroke="#191970" points="200.2982,-199.6178 189.7462,-198.666 197.4016,-205.9904 200.2982,-199.6178"/>
</g>
<!-- Node5 -->
<g id="node6" class="node">
<title>Node5</title>
<g id="a_node6"><a xlink:href="LinearStateModel_8h.html" target="_top" xlink:title="BayesFilters/LinearState\lModel.h">
<polygon fill="#ffffff" stroke="#000000" points="272.1108,-175.5 272.1108,-203.5 397.0513,-203.5 397.0513,-175.5 272.1108,-175.5"/>
<text text-anchor="start" x="280.1108" y="-191.5" font-family="Helvetica,sans-Serif" font-size="10.00" fill="#000000">BayesFilters/LinearState</text>
<text text-anchor="middle" x="334.5811" y="-181.5" font-family="Helvetica,sans-Serif" font-size="10.00" fill="#000000">Model.h</text>
</a>
</g>
</g>
<!-- Node0&#45;&gt;Node5 -->
<g id="edge7" class="edge">
<title>Node0&#45;&gt;Node5</title>
<path fill="none" stroke="#191970" d="M334.5811,-240.3567C334.5811,-231.8057 334.5811,-222.1888 334.5811,-213.6382"/>
<polygon fill="#191970" stroke="#191970" points="338.0812,-213.5381 334.5811,-203.5382 331.0812,-213.5382 338.0812,-213.5381"/>
</g>
<!-- Node8 -->
<g id="node9" class="node">
<title>Node8</title>
<g id="a_node9"><a xlink:href="ExogenousModel_8h.html" target="_top" xlink:title="BayesFilters/ExogenousModel.h">
<polygon fill="#ffffff" stroke="#000000" points="401.877,-115.5 401.877,-133.5 561.2852,-133.5 561.2852,-115.5 401.877,-115.5"/>
<text text-anchor="middle" x="481.5811" y="-121.5" font-family="Helvetica,sans-Serif" font-size="10.00" fill="#000000">BayesFilters/ExogenousModel.h</text>
</a>
</g>
</g>
<!-- Node0&#45;&gt;Node8 -->
<g id="edge13" class="edge">
<title>Node0&#45;&gt;Node8</title>
<path fill="none" stroke="#191970" d="M364.1855,-240.4288C377.1561,-229.5904 392.3943,-216.4536 405.5811,-204 427.569,-183.2346 451.4417,-157.7318 466.4499,-141.3029"/>
<polygon fill="#191970" stroke="#191970" points="469.3021,-143.3682 473.4332,-133.6119 464.1197,-138.6626 469.3021,-143.3682"/>
</g>
<!-- Node9 -->
<g id="node10" class="node">
<title>Node9</title>
<polygon fill="#ffffff" stroke="#bfbfbf" points="452.5244,-180.5 452.5244,-198.5 504.6377,-198.5 504.6377,-180.5 452.5244,-180.5"/>
<text text-anchor="middle" x="478.5811" y="-186.5" font-family="Helvetica,sans-Serif" font-size="10.00" fill="#000000">memory</text>
</g>
<!-- Node0&#45;&gt;Node9 -->
<g id="edge15" class="edge">
<title>Node0&#45;&gt;Node9</title>
<path fill="none" stroke="#191970" d="M380.9362,-240.3567C404.3941,-228.139 432.0297,-213.7455 451.9025,-203.3951"/>
<polygon fill="#191970" stroke="#191970" points="453.73,-206.3896 460.9824,-198.666 450.4964,-200.1812 453.73,-206.3896"/>
</g>
<!-- Node2 -->
<g id="node3" class="node">
<title>Node2</title>
<polygon fill="#ffffff" stroke="#bfbfbf" points="56.9653,-55.5 56.9653,-73.5 100.1968,-73.5 100.1968,-55.5 56.9653,-55.5"/>
<text text-anchor="middle" x="78.5811" y="-61.5" font-family="Helvetica,sans-Serif" font-size="10.00" fill="#000000">vector</text>
</g>
<!-- Node1&#45;&gt;Node2 -->
<g id="edge2" class="edge">
<title>Node1&#45;&gt;Node2</title>
<path fill="none" stroke="#191970" d="M78.5811,-115.3873C78.5811,-107.0174 78.5811,-94.3414 78.5811,-83.735"/>
<polygon fill="#191970" stroke="#191970" points="82.0812,-83.6984 78.5811,-73.6985 75.0812,-83.6985 82.0812,-83.6984"/>
</g>
<!-- Node3 -->
<g id="node4" class="node">
<title>Node3</title>
<polygon fill="#ffffff" stroke="#bfbfbf" points="205.9507,-.5 205.9507,-18.5 279.2114,-18.5 279.2114,-.5 205.9507,-.5"/>
<text text-anchor="middle" x="242.5811" y="-6.5" font-family="Helvetica,sans-Serif" font-size="10.00" fill="#000000">Eigen/Dense</text>
</g>
<!-- Node1&#45;&gt;Node3 -->
<g id="edge3" class="edge">
<title>Node1&#45;&gt;Node3</title>
<path fill="none" stroke="#191970" d="M90.1286,-115.4491C107.5189,-101.9157 141.5914,-75.7754 171.5811,-55 187.1791,-44.1944 205.1821,-32.6674 219.1567,-23.9193"/>
<polygon fill="#191970" stroke="#191970" points="221.0516,-26.8625 227.6926,-18.6073 217.3531,-20.9194 221.0516,-26.8625"/>
</g>
<!-- Node4&#45;&gt;Node1 -->
<g id="edge5" class="edge">
<title>Node4&#45;&gt;Node1</title>
<path fill="none" stroke="#191970" d="M156.9279,-180.462C142.206,-169.9464 117.6604,-152.4138 99.9625,-139.7725"/>
<polygon fill="#191970" stroke="#191970" points="101.5918,-136.6351 91.4201,-133.6708 97.5231,-142.3313 101.5918,-136.6351"/>
</g>
<!-- Node4&#45;&gt;Node3 -->
<g id="edge6" class="edge">
<title>Node4&#45;&gt;Node3</title>
<path fill="none" stroke="#191970" d="M171.2013,-180.2951C175.37,-157.9376 187.7025,-99.3509 209.5811,-55 214.5268,-44.9743 221.6547,-34.8097 228.0213,-26.6384"/>
<polygon fill="#191970" stroke="#191970" points="230.9144,-28.6275 234.4916,-18.6548 225.4761,-24.22 230.9144,-28.6275"/>
</g>
<!-- Node5&#45;&gt;Node3 -->
<g id="edge8" class="edge">
<title>Node5&#45;&gt;Node3</title>
<path fill="none" stroke="#191970" d="M287.9368,-175.36C270.5434,-167.5683 252.6034,-155.9344 242.5811,-139 222.1507,-104.4796 230.198,-55.1745 236.9519,-28.4606"/>
<polygon fill="#191970" stroke="#191970" points="240.3311,-29.3722 239.592,-18.8032 233.5789,-27.5262 240.3311,-29.3722"/>
</g>
<!-- Node6 -->
<g id="node7" class="node">
<title>Node6</title>
<g id="a_node7"><a xlink:href="AdditiveStateModel_8h.html" target="_top" xlink:title="BayesFilters/AdditiveState\lModel.h">
<polygon fill="#ffffff" stroke="#000000" points="251.2217,-110.5 251.2217,-138.5 383.9404,-138.5 383.9404,-110.5 251.2217,-110.5"/>
<text text-anchor="start" x="259.2217" y="-126.5" font-family="Helvetica,sans-Serif" font-size="10.00" fill="#000000">BayesFilters/AdditiveState</text>
<text text-anchor="middle" x="317.5811" y="-116.5" font-family="Helvetica,sans-Serif" font-size="10.00" fill="#000000">Model.h</text>
</a>
</g>
</g>
<!-- Node5&#45;&gt;Node6 -->
<g id="edge9" class="edge">
<title>Node5&#45;&gt;Node6</title>
<path fill="none" stroke="#191970" d="M330.8923,-175.396C328.8205,-167.4745 326.1802,-157.379 323.7981,-148.2712"/>
<polygon fill="#191970" stroke="#191970" points="327.1791,-147.3655 321.2626,-138.5765 320.4068,-149.1367 327.1791,-147.3655"/>
</g>
<!-- Node6&#45;&gt;Node3 -->
<g id="edge10" class="edge">
<title>Node6&#45;&gt;Node3</title>
<path fill="none" stroke="#191970" d="M306.5026,-110.1873C298.9377,-100.2226 288.8304,-86.5265 280.5811,-74 270.5557,-58.7766 260.1098,-40.8744 252.7132,-27.7977"/>
<polygon fill="#191970" stroke="#191970" points="255.6491,-25.8772 247.7087,-18.8629 249.5418,-29.2979 255.6491,-25.8772"/>
</g>
<!-- Node7 -->
<g id="node8" class="node">
<title>Node7</title>
<g id="a_node8"><a xlink:href="StateModel_8h.html" target="_top" xlink:title="BayesFilters/StateModel.h">
<polygon fill="#ffffff" stroke="#000000" points="289.2217,-55.5 289.2217,-73.5 421.9404,-73.5 421.9404,-55.5 289.2217,-55.5"/>
<text text-anchor="middle" x="355.5811" y="-61.5" font-family="Helvetica,sans-Serif" font-size="10.00" fill="#000000">BayesFilters/StateModel.h</text>
</a>
</g>
</g>
<!-- Node6&#45;&gt;Node7 -->
<g id="edge11" class="edge">
<title>Node6&#45;&gt;Node7</title>
<path fill="none" stroke="#191970" d="M326.5865,-110.2808C331.9294,-101.8448 338.7462,-91.0813 344.4276,-82.1107"/>
<polygon fill="#191970" stroke="#191970" points="347.434,-83.9051 349.8277,-73.5842 341.5203,-80.1597 347.434,-83.9051"/>
</g>
<!-- Node7&#45;&gt;Node3 -->
<g id="edge12" class="edge">
<title>Node7&#45;&gt;Node3</title>
<path fill="none" stroke="#191970" d="M336.9214,-55.4179C318.8468,-46.6205 291.2103,-33.1691 270.5138,-23.0956"/>
<polygon fill="#191970" stroke="#191970" points="271.7917,-19.825 261.2684,-18.5956 268.7282,-26.1191 271.7917,-19.825"/>
</g>
<!-- Node8&#45;&gt;Node3 -->
<g id="edge14" class="edge">
<title>Node8&#45;&gt;Node3</title>
<path fill="none" stroke="#191970" d="M477.4236,-115.214C470.1736,-100.1278 453.7491,-70.4317 430.5811,-55 407.7325,-39.7811 337.3816,-25.4421 289.5266,-17.0671"/>
<polygon fill="#191970" stroke="#191970" points="289.8322,-13.5683 279.3835,-15.3219 288.6452,-20.467 289.8322,-13.5683"/>
</g>
</g>
</svg>
        <g id="navigator" transform="translate(0 0)" fill="#404254">
                <rect fill="#f2f5e9" fill-opacity="0.5" stroke="#606060" stroke-width=".5" x="0" y="0" width="60" height="60"/>
                <use id="zoomplus" xlink:href="#zoomPlus" x="17" y="9" onmousedown="handleZoom(evt,'in')"/>
                <use id="zoomminus" xlink:href="#zoomMin" x="42" y="9" onmousedown="handleZoom(evt,'out')"/>
                <use id="reset" xlink:href="#resetDef" x="30" y="36" onmousedown="handleReset()"/>
                <g id="arrowUp" xlink:href="#dirArrow" transform="translate(30 24)" onmousedown="handlePan(0,-1)">
                  <use xlink:href="#rim" fill="#404040">
                        <set attributeName="fill" to="#808080" begin="arrowUp.mouseover" end="arrowUp.mouseout"/>
                  </use>
                  <path fill="none" stroke="white" stroke-width="1.5" d="M0,-3.0v7 M-2.5,-0.5L0,-3.0L2.5,-0.5"/>
                </g>
                <g id="arrowRight" xlink:href="#dirArrow" transform="rotate(90) translate(36 -43)" onmousedown="handlePan(1,0)">
                  <use xlink:href="#rim" fill="#404040">
                        <set attributeName="fill" to="#808080" begin="arrowRight.mouseover" end="arrowRight.mouseout"/>
                  </use>
                  <path fill="none" stroke="white" stroke-width="1.5" d="M0,-3.0v7 M-2.5,-0.5L0,-3.0L2.5,-0.5"/>
                </g>
                <g id="arrowDown" xlink:href="#dirArrow" transform="rotate(180) translate(-30 -48)" onmousedown="handlePan(0,1)">
                  <use xlink:href="#rim" fill="#404040">
                        <set attributeName="fill" to="#808080" begin="arrowDown.mouseover" end="arrowDown.mouseout"/>
                  </use>
                  <path fill="none" stroke="white" stroke-width="1.5" d="M0,-3.0v7 M-2.5,-0.5L0,-3.0L2.5,-0.5"/>
                </g>
                <g id="arrowLeft" xlink:href="#dirArrow" transform="rotate(270) translate(-36 17)" onmousedown="handlePan(-1,0)">
                  <use xlink:href="#rim" fill="#404040">
                        <set attributeName="fill" to="#808080" begin="arrowLeft.mouseover" end="arrowLeft.mouseout"/>
                  </use>
                  <path fill="none" stroke="white" stroke-width="1.5" d="M0,-3.0v7 M-2.5,-0.5L0,-3.0L2.5,-0.5"/>
                </g>
        </g>
        <svg viewBox="0 0 15 15" width="100%" height="30px" preserveAspectRatio="xMaxYMin meet">
         <g id="arrow_out" transform="scale(0.3 0.3)">
          <a xlink:href="KFPrediction_8h__incl_org.svg" target="_base">
           <rect id="button" ry="5" rx="5" y="6" x="6" height="38" width="38"
                fill="#f2f5e9" fill-opacity="0.5" stroke="#606060" stroke-width="1.0"/>
           <path id="arrow"
             d="M 11.500037,31.436501 C 11.940474,20.09759 22.043105,11.32322 32.158766,21.979434 L 37.068811,17.246167 C 37.068811,17.246167 37.088388,32 37.088388,32 L 22.160133,31.978069 C 22.160133,31.978069 26.997745,27.140456 26.997745,27.140456 C 18.528582,18.264221 13.291696,25.230495 11.500037,31.436501 z"
             style="fill:#404040;"/>
          </a>
         </g>
        </svg>
</svg>
