<?xml version="1.0" encoding="UTF-8" standalone="no"?>
<!DOCTYPE svg PUBLIC "-//W3C//DTD SVG 1.1//EN"
 "http://www.w3.org/Graphics/SVG/1.1/DTD/svg11.dtd">
<!-- Generated by graphviz version 2.40.1 (20161225.0304)
 -->
<!-- Title: /Users/Claudio/GitHub/bayes&#45;filters&#45;lib/src/BayesFilters/include/BayesFilters/LikelihoodModel.h Pages: 1 -->
<svg width="1169pt" height="387pt"
 viewBox="0.00 0.00 1168.67 387.00" xmlns="http://www.w3.org/2000/svg" xmlns:xlink="http://www.w3.org/1999/xlink">
<g id="graph0" class="graph" transform="scale(1 1) rotate(0) translate(4 383)">
<title>/Users/Claudio/GitHub/bayes&#45;filters&#45;lib/src/BayesFilters/include/BayesFilters/LikelihoodModel.h</title>
<polygon fill="#ffffff" stroke="transparent" points="-4,4 -4,-383 1164.6743,-383 1164.6743,4 -4,4"/>
<!-- Node17 -->
<g id="node1" class="node">
<title>Node17</title>
<polygon fill="#bfbfbf" stroke="#000000" points="216.4038,-330.5 216.4038,-378.5 382.4575,-378.5 382.4575,-330.5 216.4038,-330.5"/>
<text text-anchor="start" x="224.4038" y="-366.5" font-family="Helvetica,sans-Serif" font-size="10.00" fill="#000000">/Users/Claudio/GitHub</text>
<text text-anchor="start" x="224.4038" y="-356.5" font-family="Helvetica,sans-Serif" font-size="10.00" fill="#000000">/bayes&#45;filters&#45;lib/src</text>
<text text-anchor="start" x="224.4038" y="-346.5" font-family="Helvetica,sans-Serif" font-size="10.00" fill="#000000">/BayesFilters/include/BayesFilters</text>
<text text-anchor="middle" x="299.4307" y="-336.5" font-family="Helvetica,sans-Serif" font-size="10.00" fill="#000000">/LikelihoodModel.h</text>
</g>
<!-- Node18 -->
<g id="node2" class="node">
<title>Node18</title>
<g id="a_node2"><a xlink:href="GaussianLikelihood_8h.html" target="_top" xlink:title="/Users/Claudio/GitHub\l/bayes&#45;filters&#45;lib/src\l/BayesFilters/include/BayesFilters\l/GaussianLikelihood.h">
<polygon fill="#ffffff" stroke="#000000" points="61.4038,-245.5 61.4038,-293.5 227.4575,-293.5 227.4575,-245.5 61.4038,-245.5"/>
<text text-anchor="start" x="69.4038" y="-281.5" font-family="Helvetica,sans-Serif" font-size="10.00" fill="#000000">/Users/Claudio/GitHub</text>
<text text-anchor="start" x="69.4038" y="-271.5" font-family="Helvetica,sans-Serif" font-size="10.00" fill="#000000">/bayes&#45;filters&#45;lib/src</text>
<text text-anchor="start" x="69.4038" y="-261.5" font-family="Helvetica,sans-Serif" font-size="10.00" fill="#000000">/BayesFilters/include/BayesFilters</text>
<text text-anchor="middle" x="144.4307" y="-251.5" font-family="Helvetica,sans-Serif" font-size="10.00" fill="#000000">/GaussianLikelihood.h</text>
</a>
</g>
</g>
<!-- Node17&#45;&gt;Node18 -->
<g id="edge1" class="edge">
<title>Node17&#45;&gt;Node18</title>
<path fill="none" stroke="#191970" d="M246.594,-325.5251C227.6065,-315.1125 206.414,-303.4908 188.2744,-293.5433"/>
<polygon fill="#191970" stroke="#191970" points="244.9774,-328.6302 255.4285,-330.3698 248.3433,-322.4925 244.9774,-328.6302"/>
</g>
<!-- Node20 -->
<g id="node4" class="node">
<title>Node20</title>
<g id="a_node4"><a xlink:href="GPFCorrection_8h.html" target="_top" xlink:title="/Users/Claudio/GitHub\l/bayes&#45;filters&#45;lib/src\l/BayesFilters/include/BayesFilters\l/GPFCorrection.h">
<polygon fill="#ffffff" stroke="#000000" points="216.4038,-160.5 216.4038,-208.5 382.4575,-208.5 382.4575,-160.5 216.4038,-160.5"/>
<text text-anchor="start" x="224.4038" y="-196.5" font-family="Helvetica,sans-Serif" font-size="10.00" fill="#000000">/Users/Claudio/GitHub</text>
<text text-anchor="start" x="224.4038" y="-186.5" font-family="Helvetica,sans-Serif" font-size="10.00" fill="#000000">/bayes&#45;filters&#45;lib/src</text>
<text text-anchor="start" x="224.4038" y="-176.5" font-family="Helvetica,sans-Serif" font-size="10.00" fill="#000000">/BayesFilters/include/BayesFilters</text>
<text text-anchor="middle" x="299.4307" y="-166.5" font-family="Helvetica,sans-Serif" font-size="10.00" fill="#000000">/GPFCorrection.h</text>
</a>
</g>
</g>
<!-- Node17&#45;&gt;Node20 -->
<g id="edge3" class="edge">
<title>Node17&#45;&gt;Node20</title>
<path fill="none" stroke="#191970" d="M299.4307,-319.9921C299.4307,-286.8467 299.4307,-237.6344 299.4307,-208.537"/>
<polygon fill="#191970" stroke="#191970" points="295.9308,-320.1431 299.4307,-330.1431 302.9308,-320.1432 295.9308,-320.1431"/>
</g>
<!-- Node22 -->
<g id="node6" class="node">
<title>Node22</title>
<g id="a_node6"><a xlink:href="PFCorrection_8h.html" target="_top" xlink:title="/Users/Claudio/GitHub\l/bayes&#45;filters&#45;lib/src\l/BayesFilters/include/BayesFilters\l/PFCorrection.h">
<polygon fill="#ffffff" stroke="#000000" points="511.4038,-245.5 511.4038,-293.5 677.4575,-293.5 677.4575,-245.5 511.4038,-245.5"/>
<text text-anchor="start" x="519.4038" y="-281.5" font-family="Helvetica,sans-Serif" font-size="10.00" fill="#000000">/Users/Claudio/GitHub</text>
<text text-anchor="start" x="519.4038" y="-271.5" font-family="Helvetica,sans-Serif" font-size="10.00" fill="#000000">/bayes&#45;filters&#45;lib/src</text>
<text text-anchor="start" x="519.4038" y="-261.5" font-family="Helvetica,sans-Serif" font-size="10.00" fill="#000000">/BayesFilters/include/BayesFilters</text>
<text text-anchor="middle" x="594.4307" y="-251.5" font-family="Helvetica,sans-Serif" font-size="10.00" fill="#000000">/PFCorrection.h</text>
</a>
</g>
</g>
<!-- Node17&#45;&gt;Node22 -->
<g id="edge5" class="edge">
<title>Node17&#45;&gt;Node22</title>
<path fill="none" stroke="#191970" d="M392.8291,-327.5886C430.8323,-316.6385 474.3978,-304.0857 511.2843,-293.4574"/>
<polygon fill="#191970" stroke="#191970" points="391.4229,-324.3513 382.7829,-330.4832 393.3611,-331.0776 391.4229,-324.3513"/>
</g>
<!-- Node19 -->
<g id="node3" class="node">
<title>Node19</title>
<g id="a_node3"><a xlink:href="GaussianLikelihood_8cpp.html" target="_top" xlink:title="/Users/Claudio/GitHub\l/bayes&#45;filters&#45;lib/src\l/BayesFilters/src/GaussianLikelihood.cpp">
<polygon fill="#ffffff" stroke="#000000" points="0,-165.5 0,-203.5 198.8613,-203.5 198.8613,-165.5 0,-165.5"/>
<text text-anchor="start" x="8" y="-191.5" font-family="Helvetica,sans-Serif" font-size="10.00" fill="#000000">/Users/Claudio/GitHub</text>
<text text-anchor="start" x="8" y="-181.5" font-family="Helvetica,sans-Serif" font-size="10.00" fill="#000000">/bayes&#45;filters&#45;lib/src</text>
<text text-anchor="middle" x="99.4307" y="-171.5" font-family="Helvetica,sans-Serif" font-size="10.00" fill="#000000">/BayesFilters/src/GaussianLikelihood.cpp</text>
</a>
</g>
</g>
<!-- Node18&#45;&gt;Node19 -->
<g id="edge2" class="edge">
<title>Node18&#45;&gt;Node19</title>
<path fill="none" stroke="#191970" d="M126.8652,-236.3207C120.9847,-225.2132 114.6313,-213.2123 109.5208,-203.5591"/>
<polygon fill="#191970" stroke="#191970" points="123.8836,-238.1695 131.6558,-245.3698 130.0702,-234.8943 123.8836,-238.1695"/>
</g>
<!-- Node21 -->
<g id="node5" class="node">
<title>Node21</title>
<g id="a_node5"><a xlink:href="GPFCorrection_8cpp.html" target="_top" xlink:title="/Users/Claudio/GitHub\l/bayes&#45;filters&#45;lib/src\l/BayesFilters/src/GPFCorrection.cpp">
<polygon fill="#ffffff" stroke="#000000" points="135.2979,-80.5 135.2979,-118.5 313.5635,-118.5 313.5635,-80.5 135.2979,-80.5"/>
<text text-anchor="start" x="143.2979" y="-106.5" font-family="Helvetica,sans-Serif" font-size="10.00" fill="#000000">/Users/Claudio/GitHub</text>
<text text-anchor="start" x="143.2979" y="-96.5" font-family="Helvetica,sans-Serif" font-size="10.00" fill="#000000">/bayes&#45;filters&#45;lib/src</text>
<text text-anchor="middle" x="224.4307" y="-86.5" font-family="Helvetica,sans-Serif" font-size="10.00" fill="#000000">/BayesFilters/src/GPFCorrection.cpp</text>
</a>
</g>
</g>
<!-- Node20&#45;&gt;Node21 -->
<g id="edge4" class="edge">
<title>Node20&#45;&gt;Node21</title>
<path fill="none" stroke="#191970" d="M271.327,-152.6491C261.2045,-141.177 250.1057,-128.5984 241.2475,-118.5591"/>
<polygon fill="#191970" stroke="#191970" points="268.8986,-155.1871 278.1393,-160.3698 274.1475,-150.5557 268.8986,-155.1871"/>
</g>
<!-- Node22&#45;&gt;Node20 -->
<g id="edge8" class="edge">
<title>Node22&#45;&gt;Node20</title>
<path fill="none" stroke="#191970" d="M501.0323,-242.5886C463.0291,-231.6385 419.4636,-219.0857 382.577,-208.4574"/>
<polygon fill="#191970" stroke="#191970" points="500.5002,-246.0776 511.0784,-245.4832 502.4384,-239.3513 500.5002,-246.0776"/>
</g>
<!-- Node23 -->
<g id="node7" class="node">
<title>Node23</title>
<g id="a_node7"><a xlink:href="BootstrapCorrection_8h.html" target="_top" xlink:title="/Users/Claudio/GitHub\l/bayes&#45;filters&#45;lib/src\l/BayesFilters/include/BayesFilters\l/BootstrapCorrection.h">
<polygon fill="#ffffff" stroke="#000000" points="400.4038,-160.5 400.4038,-208.5 566.4575,-208.5 566.4575,-160.5 400.4038,-160.5"/>
<text text-anchor="start" x="408.4038" y="-196.5" font-family="Helvetica,sans-Serif" font-size="10.00" fill="#000000">/Users/Claudio/GitHub</text>
<text text-anchor="start" x="408.4038" y="-186.5" font-family="Helvetica,sans-Serif" font-size="10.00" fill="#000000">/bayes&#45;filters&#45;lib/src</text>
<text text-anchor="start" x="408.4038" y="-176.5" font-family="Helvetica,sans-Serif" font-size="10.00" fill="#000000">/BayesFilters/include/BayesFilters</text>
<text text-anchor="middle" x="483.4307" y="-166.5" font-family="Helvetica,sans-Serif" font-size="10.00" fill="#000000">/BootstrapCorrection.h</text>
</a>
</g>
</g>
<!-- Node22&#45;&gt;Node23 -->
<g id="edge6" class="edge">
<title>Node22&#45;&gt;Node23</title>
<path fill="none" stroke="#191970" d="M554.9589,-239.2738C541.856,-229.2401 527.4494,-218.208 515.0207,-208.6906"/>
<polygon fill="#191970" stroke="#191970" points="552.8519,-242.0688 562.9194,-245.3698 557.1078,-236.5111 552.8519,-242.0688"/>
</g>
<!-- Node25 -->
<g id="node9" class="node">
<title>Node25</title>
<g id="a_node9"><a xlink:href="ParticleFilter_8h.html" target="_top" xlink:title="/Users/Claudio/GitHub\l/bayes&#45;filters&#45;lib/src\l/BayesFilters/include/BayesFilters\l/ParticleFilter.h">
<polygon fill="#ffffff" stroke="#000000" points="622.4038,-160.5 622.4038,-208.5 788.4575,-208.5 788.4575,-160.5 622.4038,-160.5"/>
<text text-anchor="start" x="630.4038" y="-196.5" font-family="Helvetica,sans-Serif" font-size="10.00" fill="#000000">/Users/Claudio/GitHub</text>
<text text-anchor="start" x="630.4038" y="-186.5" font-family="Helvetica,sans-Serif" font-size="10.00" fill="#000000">/bayes&#45;filters&#45;lib/src</text>
<text text-anchor="start" x="630.4038" y="-176.5" font-family="Helvetica,sans-Serif" font-size="10.00" fill="#000000">/BayesFilters/include/BayesFilters</text>
<text text-anchor="middle" x="705.4307" y="-166.5" font-family="Helvetica,sans-Serif" font-size="10.00" fill="#000000">/ParticleFilter.h</text>
</a>
</g>
</g>
<!-- Node22&#45;&gt;Node25 -->
<g id="edge9" class="edge">
<title>Node22&#45;&gt;Node25</title>
<path fill="none" stroke="#191970" d="M633.9025,-239.2738C647.0053,-229.2401 661.4119,-218.208 673.8406,-208.6906"/>
<polygon fill="#191970" stroke="#191970" points="631.7535,-236.5111 625.9419,-245.3698 636.0094,-242.0688 631.7535,-236.5111"/>
</g>
<!-- Node26 -->
<g id="node10" class="node">
<title>Node26</title>
<g id="a_node10"><a xlink:href="SIS_8h.html" target="_top" xlink:title="/Users/Claudio/GitHub\l/bayes&#45;filters&#45;lib/src\l/BayesFilters/include/BayesFilters/SIS.h">
<polygon fill="#ffffff" stroke="#000000" points="549.7856,-80.5 549.7856,-118.5 743.0757,-118.5 743.0757,-80.5 549.7856,-80.5"/>
<text text-anchor="start" x="557.7856" y="-106.5" font-family="Helvetica,sans-Serif" font-size="10.00" fill="#000000">/Users/Claudio/GitHub</text>
<text text-anchor="start" x="557.7856" y="-96.5" font-family="Helvetica,sans-Serif" font-size="10.00" fill="#000000">/bayes&#45;filters&#45;lib/src</text>
<text text-anchor="middle" x="646.4307" y="-86.5" font-family="Helvetica,sans-Serif" font-size="10.00" fill="#000000">/BayesFilters/include/BayesFilters/SIS.h</text>
</a>
</g>
</g>
<!-- Node22&#45;&gt;Node26 -->
<g id="edge15" class="edge">
<title>Node22&#45;&gt;Node26</title>
<path fill="none" stroke="#191970" d="M597.4584,-235.2606C600.1053,-213.2966 604.9124,-184.4238 613.4307,-160 618.5133,-145.4269 626.853,-130.1785 633.8767,-118.6358"/>
<polygon fill="#191970" stroke="#191970" points="593.9534,-235.1124 596.3258,-245.4381 600.9104,-235.8866 593.9534,-235.1124"/>
</g>
<!-- Node29 -->
<g id="node13" class="node">
<title>Node29</title>
<g id="a_node13"><a xlink:href="PFCorrectionDecorator_8h.html" target="_top" xlink:title="/Users/Claudio/GitHub\l/bayes&#45;filters&#45;lib/src\l/BayesFilters/include/BayesFilters\l/PFCorrectionDecorator.h">
<polygon fill="#ffffff" stroke="#000000" points="806.4038,-160.5 806.4038,-208.5 972.4575,-208.5 972.4575,-160.5 806.4038,-160.5"/>
<text text-anchor="start" x="814.4038" y="-196.5" font-family="Helvetica,sans-Serif" font-size="10.00" fill="#000000">/Users/Claudio/GitHub</text>
<text text-anchor="start" x="814.4038" y="-186.5" font-family="Helvetica,sans-Serif" font-size="10.00" fill="#000000">/bayes&#45;filters&#45;lib/src</text>
<text text-anchor="start" x="814.4038" y="-176.5" font-family="Helvetica,sans-Serif" font-size="10.00" fill="#000000">/BayesFilters/include/BayesFilters</text>
<text text-anchor="middle" x="889.4307" y="-166.5" font-family="Helvetica,sans-Serif" font-size="10.00" fill="#000000">/PFCorrectionDecorator.h</text>
</a>
</g>
</g>
<!-- Node22&#45;&gt;Node29 -->
<g id="edge13" class="edge">
<title>Node22&#45;&gt;Node29</title>
<path fill="none" stroke="#191970" d="M687.8291,-242.5886C725.8323,-231.6385 769.3978,-219.0857 806.2843,-208.4574"/>
<polygon fill="#191970" stroke="#191970" points="686.4229,-239.3513 677.7829,-245.4832 688.3611,-246.0776 686.4229,-239.3513"/>
</g>
<!-- Node31 -->
<g id="node15" class="node">
<title>Node31</title>
<g id="a_node15"><a xlink:href="PFCorrection_8cpp.html" target="_top" xlink:title="/Users/Claudio/GitHub\l/bayes&#45;filters&#45;lib/src\l/BayesFilters/src/PFCorrection.cpp">
<polygon fill="#ffffff" stroke="#000000" points="990.187,-165.5 990.187,-203.5 1160.6743,-203.5 1160.6743,-165.5 990.187,-165.5"/>
<text text-anchor="start" x="998.187" y="-191.5" font-family="Helvetica,sans-Serif" font-size="10.00" fill="#000000">/Users/Claudio/GitHub</text>
<text text-anchor="start" x="998.187" y="-181.5" font-family="Helvetica,sans-Serif" font-size="10.00" fill="#000000">/bayes&#45;filters&#45;lib/src</text>
<text text-anchor="middle" x="1075.4307" y="-171.5" font-family="Helvetica,sans-Serif" font-size="10.00" fill="#000000">/BayesFilters/src/PFCorrection.cpp</text>
</a>
</g>
</g>
<!-- Node22&#45;&gt;Node31 -->
<g id="edge16" class="edge">
<title>Node22&#45;&gt;Node31</title>
<path fill="none" stroke="#191970" d="M687.8993,-257.5541C766.5762,-246.8623 881.8705,-229.7028 981.4307,-209 989.2736,-207.3691 997.4423,-205.5 1005.5458,-203.5371"/>
<polygon fill="#191970" stroke="#191970" points="686.9698,-254.1478 677.5282,-258.9548 687.9068,-261.0848 686.9698,-254.1478"/>
</g>
<!-- Node24 -->
<g id="node8" class="node">
<title>Node24</title>
<g id="a_node8"><a xlink:href="BootstrapCorrection_8cpp.html" target="_top" xlink:title="/Users/Claudio/GitHub\l/bayes&#45;filters&#45;lib/src\l/BayesFilters/src/BootstrapCorrection.cpp">
<polygon fill="#ffffff" stroke="#000000" points="331.1748,-80.5 331.1748,-118.5 531.6865,-118.5 531.6865,-80.5 331.1748,-80.5"/>
<text text-anchor="start" x="339.1748" y="-106.5" font-family="Helvetica,sans-Serif" font-size="10.00" fill="#000000">/Users/Claudio/GitHub</text>
<text text-anchor="start" x="339.1748" y="-96.5" font-family="Helvetica,sans-Serif" font-size="10.00" fill="#000000">/bayes&#45;filters&#45;lib/src</text>
<text text-anchor="middle" x="431.4307" y="-86.5" font-family="Helvetica,sans-Serif" font-size="10.00" fill="#000000">/BayesFilters/src/BootstrapCorrection.cpp</text>
</a>
</g>
</g>
<!-- Node23&#45;&gt;Node24 -->
<g id="edge7" class="edge">
<title>Node23&#45;&gt;Node24</title>
<path fill="none" stroke="#191970" d="M463.3364,-151.6537C456.4845,-140.4534 449.0549,-128.3088 443.0904,-118.5591"/>
<polygon fill="#191970" stroke="#191970" points="460.4644,-153.6659 468.6686,-160.3698 466.4357,-150.0129 460.4644,-153.6659"/>
</g>
<!-- Node25&#45;&gt;Node26 -->
<g id="edge10" class="edge">
<title>Node25&#45;&gt;Node26</title>
<path fill="none" stroke="#191970" d="M682.8622,-151.9861C675.0243,-140.6942 666.4944,-128.4053 659.6599,-118.5591"/>
<polygon fill="#191970" stroke="#191970" points="680.104,-154.1506 688.6814,-160.3698 685.8545,-150.159 680.104,-154.1506"/>
</g>
<!-- Node28 -->
<g id="node12" class="node">
<title>Node28</title>
<g id="a_node12"><a xlink:href="ParticleFilter_8cpp.html" target="_top" xlink:title="/Users/Claudio/GitHub\l/bayes&#45;filters&#45;lib/src\l/BayesFilters/src/ParticleFilter.cpp">
<polygon fill="#ffffff" stroke="#000000" points="761.1304,-80.5 761.1304,-118.5 927.731,-118.5 927.731,-80.5 761.1304,-80.5"/>
<text text-anchor="start" x="769.1304" y="-106.5" font-family="Helvetica,sans-Serif" font-size="10.00" fill="#000000">/Users/Claudio/GitHub</text>
<text text-anchor="start" x="769.1304" y="-96.5" font-family="Helvetica,sans-Serif" font-size="10.00" fill="#000000">/bayes&#45;filters&#45;lib/src</text>
<text text-anchor="middle" x="844.4307" y="-86.5" font-family="Helvetica,sans-Serif" font-size="10.00" fill="#000000">/BayesFilters/src/ParticleFilter.cpp</text>
</a>
</g>
</g>
<!-- Node25&#45;&gt;Node28 -->
<g id="edge12" class="edge">
<title>Node25&#45;&gt;Node28</title>
<path fill="none" stroke="#191970" d="M753.488,-155.1124C773.2881,-143.0044 795.6623,-129.3224 813.2634,-118.5591"/>
<polygon fill="#191970" stroke="#191970" points="751.596,-152.1668 744.8907,-160.3698 755.248,-158.1387 751.596,-152.1668"/>
</g>
<!-- Node27 -->
<g id="node11" class="node">
<title>Node27</title>
<g id="a_node11"><a xlink:href="SIS_8cpp.html" target="_top" xlink:title="/Users/Claudio/GitHub\l/bayes&#45;filters&#45;lib/src\l/BayesFilters/src/SIS.cpp">
<polygon fill="#ffffff" stroke="#000000" points="582.5811,-.5 582.5811,-38.5 710.2803,-38.5 710.2803,-.5 582.5811,-.5"/>
<text text-anchor="start" x="590.5811" y="-26.5" font-family="Helvetica,sans-Serif" font-size="10.00" fill="#000000">/Users/Claudio/GitHub</text>
<text text-anchor="start" x="590.5811" y="-16.5" font-family="Helvetica,sans-Serif" font-size="10.00" fill="#000000">/bayes&#45;filters&#45;lib/src</text>
<text text-anchor="middle" x="646.4307" y="-6.5" font-family="Helvetica,sans-Serif" font-size="10.00" fill="#000000">/BayesFilters/src/SIS.cpp</text>
</a>
</g>
</g>
<!-- Node26&#45;&gt;Node27 -->
<g id="edge11" class="edge">
<title>Node26&#45;&gt;Node27</title>
<path fill="none" stroke="#191970" d="M646.4307,-70.1156C646.4307,-59.6295 646.4307,-48.0942 646.4307,-38.6874"/>
<polygon fill="#191970" stroke="#191970" points="642.9308,-70.1342 646.4307,-80.1342 649.9308,-70.1343 642.9308,-70.1342"/>
</g>
<!-- Node30 -->
<g id="node14" class="node">
<title>Node30</title>
<g id="a_node14"><a xlink:href="PFCorrectionDecorator_8cpp.html" target="_top" xlink:title="/Users/Claudio/GitHub\l/bayes&#45;filters&#45;lib/src\l/BayesFilters/src/PFCorrection\lDecorator.cpp">
<polygon fill="#ffffff" stroke="#000000" points="945.6377,-75.5 945.6377,-123.5 1097.2236,-123.5 1097.2236,-75.5 945.6377,-75.5"/>
<text text-anchor="start" x="953.6377" y="-111.5" font-family="Helvetica,sans-Serif" font-size="10.00" fill="#000000">/Users/Claudio/GitHub</text>
<text text-anchor="start" x="953.6377" y="-101.5" font-family="Helvetica,sans-Serif" font-size="10.00" fill="#000000">/bayes&#45;filters&#45;lib/src</text>
<text text-anchor="start" x="953.6377" y="-91.5" font-family="Helvetica,sans-Serif" font-size="10.00" fill="#000000">/BayesFilters/src/PFCorrection</text>
<text text-anchor="middle" x="1021.4307" y="-81.5" font-family="Helvetica,sans-Serif" font-size="10.00" fill="#000000">Decorator.cpp</text>
</a>
</g>
</g>
<!-- Node29&#45;&gt;Node30 -->
<g id="edge14" class="edge">
<title>Node29&#45;&gt;Node30</title>
<path fill="none" stroke="#191970" d="M935.4898,-154.8407C951.3046,-144.657 968.8052,-133.3876 983.8641,-123.6906"/>
<polygon fill="#191970" stroke="#191970" points="933.4162,-152.013 926.9035,-160.3698 937.2061,-157.8984 933.4162,-152.013"/>
</g>
</g>
</svg>
