<?xml version="1.0" encoding="UTF-8" standalone="no"?>
<!DOCTYPE svg PUBLIC "-//W3C//DTD SVG 1.1//EN"
 "http://www.w3.org/Graphics/SVG/1.1/DTD/svg11.dtd">
<!-- Generated by graphviz version 2.40.1 (20161225.0304)
 -->
<!-- Title: /Users/Claudio/GitHub/bayes&#45;filters&#45;lib/src/BayesFilters/src/LinearStateModel.cpp Pages: 1 -->
<svg width="232pt" height="287pt"
 viewBox="0.00 0.00 231.66 287.00" xmlns="http://www.w3.org/2000/svg" xmlns:xlink="http://www.w3.org/1999/xlink">
<g id="graph0" class="graph" transform="scale(1 1) rotate(0) translate(4 283)">
<title>/Users/Claudio/GitHub/bayes&#45;filters&#45;lib/src/BayesFilters/src/LinearStateModel.cpp</title>
<polygon fill="#ffffff" stroke="transparent" points="-4,4 -4,-283 227.6584,-283 227.6584,4 -4,4"/>
<!-- Node0 -->
<g id="node1" class="node">
<title>Node0</title>
<polygon fill="#bfbfbf" stroke="#000000" points="33.6935,-240.5 33.6935,-278.5 223.6584,-278.5 223.6584,-240.5 33.6935,-240.5"/>
<text text-anchor="start" x="41.6935" y="-266.5" font-family="Helvetica,sans-Serif" font-size="10.00" fill="#000000">/Users/Claudio/GitHub</text>
<text text-anchor="start" x="41.6935" y="-256.5" font-family="Helvetica,sans-Serif" font-size="10.00" fill="#000000">/bayes&#45;filters&#45;lib/src</text>
<text text-anchor="middle" x="128.676" y="-246.5" font-family="Helvetica,sans-Serif" font-size="10.00" fill="#000000">/BayesFilters/src/LinearStateModel.cpp</text>
</g>
<!-- Node1 -->
<g id="node2" class="node">
<title>Node1</title>
<g id="a_node2"><a xlink:href="LinearStateModel_8h.html" target="_top" xlink:title="BayesFilters/LinearState\lModel.h">
<polygon fill="#ffffff" stroke="#000000" points="19.2057,-175.5 19.2057,-203.5 144.1462,-203.5 144.1462,-175.5 19.2057,-175.5"/>
<text text-anchor="start" x="27.2057" y="-191.5" font-family="Helvetica,sans-Serif" font-size="10.00" fill="#000000">BayesFilters/LinearState</text>
<text text-anchor="middle" x="81.676" y="-181.5" font-family="Helvetica,sans-Serif" font-size="10.00" fill="#000000">Model.h</text>
</a>
</g>
</g>
<!-- Node0&#45;&gt;Node1 -->
<g id="edge1" class="edge">
<title>Node0&#45;&gt;Node1</title>
<path fill="none" stroke="#191970" d="M115.833,-240.3722C110.0438,-231.75 103.1599,-221.4973 97.094,-212.463"/>
<polygon fill="#191970" stroke="#191970" points="99.8518,-210.2916 91.3716,-203.9404 94.0402,-214.1936 99.8518,-210.2916"/>
</g>
<!-- Node2 -->
<g id="node3" class="node">
<title>Node2</title>
<polygon fill="#ffffff" stroke="#bfbfbf" points="17.0456,-.5 17.0456,-18.5 90.3063,-18.5 90.3063,-.5 17.0456,-.5"/>
<text text-anchor="middle" x="53.676" y="-6.5" font-family="Helvetica,sans-Serif" font-size="10.00" fill="#000000">Eigen/Dense</text>
</g>
<!-- Node0&#45;&gt;Node2 -->
<g id="edge7" class="edge">
<title>Node0&#45;&gt;Node2</title>
<path fill="none" stroke="#191970" d="M142.116,-240.4357C167.4644,-201.9138 216.2944,-113.5001 175.676,-55 166.6017,-41.9309 130.6197,-29.4773 100.0649,-20.9137"/>
<polygon fill="#191970" stroke="#191970" points="100.9445,-17.5259 90.3762,-18.2742 99.1045,-24.2797 100.9445,-17.5259"/>
</g>
<!-- Node1&#45;&gt;Node2 -->
<g id="edge2" class="edge">
<title>Node1&#45;&gt;Node2</title>
<path fill="none" stroke="#191970" d="M46.9856,-175.3424C31.7122,-167.1543 15.3048,-155.2127 6.676,-139 -13.629,-100.849 18.1461,-52.0367 38.597,-26.6207"/>
<polygon fill="#191970" stroke="#191970" points="41.5227,-28.5782 45.2545,-18.6623 36.1536,-24.0867 41.5227,-28.5782"/>
</g>
<!-- Node3 -->
<g id="node4" class="node">
<title>Node3</title>
<g id="a_node4"><a xlink:href="AdditiveStateModel_8h.html" target="_top" xlink:title="BayesFilters/AdditiveState\lModel.h">
<polygon fill="#ffffff" stroke="#000000" points="15.3166,-110.5 15.3166,-138.5 148.0353,-138.5 148.0353,-110.5 15.3166,-110.5"/>
<text text-anchor="start" x="23.3166" y="-126.5" font-family="Helvetica,sans-Serif" font-size="10.00" fill="#000000">BayesFilters/AdditiveState</text>
<text text-anchor="middle" x="81.676" y="-116.5" font-family="Helvetica,sans-Serif" font-size="10.00" fill="#000000">Model.h</text>
</a>
</g>
</g>
<!-- Node1&#45;&gt;Node3 -->
<g id="edge3" class="edge">
<title>Node1&#45;&gt;Node3</title>
<path fill="none" stroke="#191970" d="M81.676,-175.396C81.676,-167.6448 81.676,-157.8122 81.676,-148.8601"/>
<polygon fill="#191970" stroke="#191970" points="85.1761,-148.5765 81.676,-138.5765 78.1761,-148.5765 85.1761,-148.5765"/>
</g>
<!-- Node3&#45;&gt;Node2 -->
<g id="edge4" class="edge">
<title>Node3&#45;&gt;Node2</title>
<path fill="none" stroke="#191970" d="M58.2057,-110.3181C46.0501,-101.5408 32.3795,-89.0718 25.676,-74 18.5817,-58.0497 28.1498,-39.7932 37.9789,-26.7838"/>
<polygon fill="#191970" stroke="#191970" points="40.9724,-28.6542 44.6238,-18.7084 35.5671,-24.2064 40.9724,-28.6542"/>
</g>
<!-- Node4 -->
<g id="node5" class="node">
<title>Node4</title>
<g id="a_node5"><a xlink:href="StateModel_8h.html" target="_top" xlink:title="BayesFilters/StateModel.h">
<polygon fill="#ffffff" stroke="#000000" points="34.3166,-55.5 34.3166,-73.5 167.0353,-73.5 167.0353,-55.5 34.3166,-55.5"/>
<text text-anchor="middle" x="100.676" y="-61.5" font-family="Helvetica,sans-Serif" font-size="10.00" fill="#000000">BayesFilters/StateModel.h</text>
</a>
</g>
</g>
<!-- Node3&#45;&gt;Node4 -->
<g id="edge5" class="edge">
<title>Node3&#45;&gt;Node4</title>
<path fill="none" stroke="#191970" d="M86.1787,-110.2808C88.7376,-102.2 91.9728,-91.9836 94.7375,-83.2531"/>
<polygon fill="#191970" stroke="#191970" points="98.117,-84.1743 97.7993,-73.5842 91.4436,-82.061 98.117,-84.1743"/>
</g>
<!-- Node4&#45;&gt;Node2 -->
<g id="edge6" class="edge">
<title>Node4&#45;&gt;Node2</title>
<path fill="none" stroke="#191970" d="M92.9149,-55.4179C86.2198,-47.5833 76.3706,-36.0575 68.2149,-26.5137"/>
<polygon fill="#191970" stroke="#191970" points="70.763,-24.108 61.6057,-18.7795 65.4414,-28.6556 70.763,-24.108"/>
</g>
</g>
</svg>
