<?xml version="1.0" encoding="UTF-8" standalone="no"?>
<!DOCTYPE svg PUBLIC "-//W3C//DTD SVG 1.1//EN"
 "http://www.w3.org/Graphics/SVG/1.1/DTD/svg11.dtd">
<!-- Generated by graphviz version 2.40.1 (20161225.0304)
 -->
<!-- Title: /Users/Claudio/GitHub/bayes&#45;filters&#45;lib/src/BayesFilters/include/BayesFilters/LinearStateModel.h Pages: 1 -->
<svg width="242pt" height="232pt"
 viewBox="0.00 0.00 242.39 232.00" xmlns="http://www.w3.org/2000/svg" xmlns:xlink="http://www.w3.org/1999/xlink">
<g id="graph0" class="graph" transform="scale(1 1) rotate(0) translate(4 228)">
<title>/Users/Claudio/GitHub/bayes&#45;filters&#45;lib/src/BayesFilters/include/BayesFilters/LinearStateModel.h</title>
<polygon fill="#ffffff" stroke="transparent" points="-4,4 -4,-228 238.3862,-228 238.3862,4 -4,4"/>
<!-- Node0 -->
<g id="node1" class="node">
<title>Node0</title>
<polygon fill="#bfbfbf" stroke="#000000" points="0,-175.5 0,-223.5 166.0537,-223.5 166.0537,-175.5 0,-175.5"/>
<text text-anchor="start" x="8" y="-211.5" font-family="Helvetica,sans-Serif" font-size="10.00" fill="#000000">/Users/Claudio/GitHub</text>
<text text-anchor="start" x="8" y="-201.5" font-family="Helvetica,sans-Serif" font-size="10.00" fill="#000000">/bayes&#45;filters&#45;lib/src</text>
<text text-anchor="start" x="8" y="-191.5" font-family="Helvetica,sans-Serif" font-size="10.00" fill="#000000">/BayesFilters/include/BayesFilters</text>
<text text-anchor="middle" x="83.0269" y="-181.5" font-family="Helvetica,sans-Serif" font-size="10.00" fill="#000000">/LinearStateModel.h</text>
</g>
<!-- Node1 -->
<g id="node2" class="node">
<title>Node1</title>
<polygon fill="#ffffff" stroke="#bfbfbf" points="37.3965,-.5 37.3965,-18.5 110.6572,-18.5 110.6572,-.5 37.3965,-.5"/>
<text text-anchor="middle" x="74.0269" y="-6.5" font-family="Helvetica,sans-Serif" font-size="10.00" fill="#000000">Eigen/Dense</text>
</g>
<!-- Node0&#45;&gt;Node1 -->
<g id="edge1" class="edge">
<title>Node0&#45;&gt;Node1</title>
<path fill="none" stroke="#191970" d="M68.913,-175.3343C63.4204,-164.5869 57.7894,-151.5464 55.0269,-139 46.4331,-99.9703 58.6151,-53.4462 67.0826,-28.1467"/>
<polygon fill="#191970" stroke="#191970" points="70.3934,-29.282 70.4127,-18.6872 63.7906,-26.9575 70.3934,-29.282"/>
</g>
<!-- Node2 -->
<g id="node3" class="node">
<title>Node2</title>
<g id="a_node3"><a xlink:href="AdditiveStateModel_8h.html" target="_top" xlink:title="BayesFilters/AdditiveState\lModel.h">
<polygon fill="#ffffff" stroke="#000000" points="63.6675,-110.5 63.6675,-138.5 196.3862,-138.5 196.3862,-110.5 63.6675,-110.5"/>
<text text-anchor="start" x="71.6675" y="-126.5" font-family="Helvetica,sans-Serif" font-size="10.00" fill="#000000">BayesFilters/AdditiveState</text>
<text text-anchor="middle" x="130.0269" y="-116.5" font-family="Helvetica,sans-Serif" font-size="10.00" fill="#000000">Model.h</text>
</a>
</g>
</g>
<!-- Node0&#45;&gt;Node2 -->
<g id="edge2" class="edge">
<title>Node0&#45;&gt;Node2</title>
<path fill="none" stroke="#191970" d="M98.1567,-175.3567C103.813,-166.3306 110.2135,-156.117 115.7869,-147.2233"/>
<polygon fill="#191970" stroke="#191970" points="118.8852,-148.8704 121.2296,-138.5382 112.9536,-145.1533 118.8852,-148.8704"/>
</g>
<!-- Node2&#45;&gt;Node1 -->
<g id="edge3" class="edge">
<title>Node2&#45;&gt;Node1</title>
<path fill="none" stroke="#191970" d="M117.5794,-110.3475C109.6138,-100.6733 99.5811,-87.2489 93.0269,-74 85.8287,-59.4494 80.8443,-41.6743 77.7926,-28.4714"/>
<polygon fill="#191970" stroke="#191970" points="81.2002,-27.6692 75.6776,-18.6276 74.3564,-29.1397 81.2002,-27.6692"/>
</g>
<!-- Node3 -->
<g id="node4" class="node">
<title>Node3</title>
<g id="a_node4"><a xlink:href="StateModel_8h.html" target="_top" xlink:title="BayesFilters/StateModel.h">
<polygon fill="#ffffff" stroke="#000000" points="101.6675,-55.5 101.6675,-73.5 234.3862,-73.5 234.3862,-55.5 101.6675,-55.5"/>
<text text-anchor="middle" x="168.0269" y="-61.5" font-family="Helvetica,sans-Serif" font-size="10.00" fill="#000000">BayesFilters/StateModel.h</text>
</a>
</g>
</g>
<!-- Node2&#45;&gt;Node3 -->
<g id="edge4" class="edge">
<title>Node2&#45;&gt;Node3</title>
<path fill="none" stroke="#191970" d="M139.0323,-110.2808C144.3752,-101.8448 151.192,-91.0813 156.8734,-82.1107"/>
<polygon fill="#191970" stroke="#191970" points="159.8798,-83.9051 162.2735,-73.5842 153.9661,-80.1597 159.8798,-83.9051"/>
</g>
<!-- Node3&#45;&gt;Node1 -->
<g id="edge5" class="edge">
<title>Node3&#45;&gt;Node1</title>
<path fill="none" stroke="#191970" d="M152.5047,-55.4179C137.8093,-46.8195 115.5157,-33.7754 98.4402,-23.7844"/>
<polygon fill="#191970" stroke="#191970" points="99.9708,-20.6249 89.5721,-18.5956 96.4357,-26.6667 99.9708,-20.6249"/>
</g>
</g>
</svg>
