<?xml version="1.0" encoding="UTF-8" standalone="no"?>
<!DOCTYPE svg PUBLIC "-//W3C//DTD SVG 1.1//EN"
 "http://www.w3.org/Graphics/SVG/1.1/DTD/svg11.dtd">
<!-- Generated by graphviz version 2.40.1 (20161225.0304)
 -->
<!-- Title: /Users/Claudio/GitHub/bayes&#45;filters&#45;lib/src/BayesFilters/include/BayesFilters/LinearModel.h Pages: 1 -->
<svg width="358pt" height="227pt"
 viewBox="0.00 0.00 358.33 227.00" xmlns="http://www.w3.org/2000/svg" xmlns:xlink="http://www.w3.org/1999/xlink">
<g id="graph0" class="graph" transform="scale(1 1) rotate(0) translate(4 223)">
<title>/Users/Claudio/GitHub/bayes&#45;filters&#45;lib/src/BayesFilters/include/BayesFilters/LinearModel.h</title>
<polygon fill="#ffffff" stroke="transparent" points="-4,4 -4,-223 354.3345,-223 354.3345,4 -4,4"/>
<!-- Node20 -->
<g id="node1" class="node">
<title>Node20</title>
<polygon fill="#bfbfbf" stroke="#000000" points="92,-170.5 92,-218.5 258.0537,-218.5 258.0537,-170.5 92,-170.5"/>
<text text-anchor="start" x="100" y="-206.5" font-family="Helvetica,sans-Serif" font-size="10.00" fill="#000000">/Users/Claudio/GitHub</text>
<text text-anchor="start" x="100" y="-196.5" font-family="Helvetica,sans-Serif" font-size="10.00" fill="#000000">/bayes&#45;filters&#45;lib/src</text>
<text text-anchor="start" x="100" y="-186.5" font-family="Helvetica,sans-Serif" font-size="10.00" fill="#000000">/BayesFilters/include/BayesFilters</text>
<text text-anchor="middle" x="175.0269" y="-176.5" font-family="Helvetica,sans-Serif" font-size="10.00" fill="#000000">/LinearModel.h</text>
</g>
<!-- Node21 -->
<g id="node2" class="node">
<title>Node21</title>
<g id="a_node2"><a xlink:href="SimulatedLinearSensor_8h.html" target="_top" xlink:title="/Users/Claudio/GitHub\l/bayes&#45;filters&#45;lib/src\l/BayesFilters/include/BayesFilters\l/SimulatedLinearSensor.h">
<polygon fill="#ffffff" stroke="#000000" points="0,-85.5 0,-133.5 166.0537,-133.5 166.0537,-85.5 0,-85.5"/>
<text text-anchor="start" x="8" y="-121.5" font-family="Helvetica,sans-Serif" font-size="10.00" fill="#000000">/Users/Claudio/GitHub</text>
<text text-anchor="start" x="8" y="-111.5" font-family="Helvetica,sans-Serif" font-size="10.00" fill="#000000">/bayes&#45;filters&#45;lib/src</text>
<text text-anchor="start" x="8" y="-101.5" font-family="Helvetica,sans-Serif" font-size="10.00" fill="#000000">/BayesFilters/include/BayesFilters</text>
<text text-anchor="middle" x="83.0269" y="-91.5" font-family="Helvetica,sans-Serif" font-size="10.00" fill="#000000">/SimulatedLinearSensor.h</text>
</a>
</g>
</g>
<!-- Node20&#45;&gt;Node21 -->
<g id="edge1" class="edge">
<title>Node20&#45;&gt;Node21</title>
<path fill="none" stroke="#191970" d="M141.3869,-163.4196C130.7769,-153.6169 119.2193,-142.9387 109.2096,-133.6906"/>
<polygon fill="#191970" stroke="#191970" points="139.1893,-166.1544 148.9094,-170.3698 143.9396,-161.0129 139.1893,-166.1544"/>
</g>
<!-- Node23 -->
<g id="node4" class="node">
<title>Node23</title>
<g id="a_node4"><a xlink:href="LinearModel_8cpp.html" target="_top" xlink:title="/Users/Claudio/GitHub\l/bayes&#45;filters&#45;lib/src\l/BayesFilters/src/LinearModel.cpp">
<polygon fill="#ffffff" stroke="#000000" points="183.7192,-90.5 183.7192,-128.5 350.3345,-128.5 350.3345,-90.5 183.7192,-90.5"/>
<text text-anchor="start" x="191.7192" y="-116.5" font-family="Helvetica,sans-Serif" font-size="10.00" fill="#000000">/Users/Claudio/GitHub</text>
<text text-anchor="start" x="191.7192" y="-106.5" font-family="Helvetica,sans-Serif" font-size="10.00" fill="#000000">/bayes&#45;filters&#45;lib/src</text>
<text text-anchor="middle" x="267.0269" y="-96.5" font-family="Helvetica,sans-Serif" font-size="10.00" fill="#000000">/BayesFilters/src/LinearModel.cpp</text>
</a>
</g>
</g>
<!-- Node20&#45;&gt;Node23 -->
<g id="edge3" class="edge">
<title>Node20&#45;&gt;Node23</title>
<path fill="none" stroke="#191970" d="M208.7857,-163.3097C221.393,-151.6617 235.3232,-138.7914 246.3982,-128.5591"/>
<polygon fill="#191970" stroke="#191970" points="206.1141,-161.0129 201.1443,-170.3698 210.8644,-166.1544 206.1141,-161.0129"/>
</g>
<!-- Node22 -->
<g id="node3" class="node">
<title>Node22</title>
<g id="a_node3"><a xlink:href="SimulatedLinearSensor_8cpp.html" target="_top" xlink:title="/Users/Claudio/GitHub\l/bayes&#45;filters&#45;lib/src\l/BayesFilters/src/SimulatedLinear\lSensor.cpp">
<polygon fill="#ffffff" stroke="#000000" points=".5542,-.5 .5542,-48.5 165.4995,-48.5 165.4995,-.5 .5542,-.5"/>
<text text-anchor="start" x="8.5542" y="-36.5" font-family="Helvetica,sans-Serif" font-size="10.00" fill="#000000">/Users/Claudio/GitHub</text>
<text text-anchor="start" x="8.5542" y="-26.5" font-family="Helvetica,sans-Serif" font-size="10.00" fill="#000000">/bayes&#45;filters&#45;lib/src</text>
<text text-anchor="start" x="8.5542" y="-16.5" font-family="Helvetica,sans-Serif" font-size="10.00" fill="#000000">/BayesFilters/src/SimulatedLinear</text>
<text text-anchor="middle" x="83.0269" y="-6.5" font-family="Helvetica,sans-Serif" font-size="10.00" fill="#000000">Sensor.cpp</text>
</a>
</g>
</g>
<!-- Node21&#45;&gt;Node22 -->
<g id="edge2" class="edge">
<title>Node21&#45;&gt;Node22</title>
<path fill="none" stroke="#191970" d="M83.0269,-75.2518C83.0269,-66.3524 83.0269,-56.951 83.0269,-48.6906"/>
<polygon fill="#191970" stroke="#191970" points="79.527,-75.3697 83.0269,-85.3698 86.527,-75.3698 79.527,-75.3697"/>
</g>
</g>
</svg>
