<?xml version="1.0" encoding="UTF-8" standalone="no"?>
<!DOCTYPE svg PUBLIC "-//W3C//DTD SVG 1.1//EN"
 "http://www.w3.org/Graphics/SVG/1.1/DTD/svg11.dtd">
<!-- Generated by graphviz version 2.40.1 (20161225.0304)
 -->
<!-- Title: /Users/Claudio/GitHub/bayes&#45;filters&#45;lib/src/BayesFilters/include/BayesFilters/LinearModel.h Pages: 1 -->
<svg width="556pt" height="417pt"
 viewBox="0.00 0.00 556.30 417.00" xmlns="http://www.w3.org/2000/svg" xmlns:xlink="http://www.w3.org/1999/xlink">
<g id="graph0" class="graph" transform="scale(1 1) rotate(0) translate(4 413)">
<title>/Users/Claudio/GitHub/bayes&#45;filters&#45;lib/src/BayesFilters/include/BayesFilters/LinearModel.h</title>
<polygon fill="#ffffff" stroke="transparent" points="-4,4 -4,-413 552.3003,-413 552.3003,4 -4,4"/>
<!-- Node0 -->
<g id="node1" class="node">
<title>Node0</title>
<polygon fill="#bfbfbf" stroke="#000000" points="220.6431,-360.5 220.6431,-408.5 386.6968,-408.5 386.6968,-360.5 220.6431,-360.5"/>
<text text-anchor="start" x="228.6431" y="-396.5" font-family="Helvetica,sans-Serif" font-size="10.00" fill="#000000">/Users/Claudio/GitHub</text>
<text text-anchor="start" x="228.6431" y="-386.5" font-family="Helvetica,sans-Serif" font-size="10.00" fill="#000000">/bayes&#45;filters&#45;lib/src</text>
<text text-anchor="start" x="228.6431" y="-376.5" font-family="Helvetica,sans-Serif" font-size="10.00" fill="#000000">/BayesFilters/include/BayesFilters</text>
<text text-anchor="middle" x="303.6699" y="-366.5" font-family="Helvetica,sans-Serif" font-size="10.00" fill="#000000">/LinearModel.h</text>
</g>
<!-- Node1 -->
<g id="node2" class="node">
<title>Node1</title>
<g id="a_node2"><a xlink:href="LinearMeasurementModel_8h.html" target="_top" xlink:title="BayesFilters/LinearMeasurement\lModel.h">
<polygon fill="#ffffff" stroke="#000000" points="222.3057,-295.5 222.3057,-323.5 385.0342,-323.5 385.0342,-295.5 222.3057,-295.5"/>
<text text-anchor="start" x="230.3057" y="-311.5" font-family="Helvetica,sans-Serif" font-size="10.00" fill="#000000">BayesFilters/LinearMeasurement</text>
<text text-anchor="middle" x="303.6699" y="-301.5" font-family="Helvetica,sans-Serif" font-size="10.00" fill="#000000">Model.h</text>
</a>
</g>
</g>
<!-- Node0&#45;&gt;Node1 -->
<g id="edge1" class="edge">
<title>Node0&#45;&gt;Node1</title>
<path fill="none" stroke="#191970" d="M303.6699,-360.3567C303.6699,-351.8057 303.6699,-342.1888 303.6699,-333.6382"/>
<polygon fill="#191970" stroke="#191970" points="307.17,-333.5381 303.6699,-323.5382 300.17,-333.5382 307.17,-333.5381"/>
</g>
<!-- Node12 -->
<g id="node13" class="node">
<title>Node12</title>
<polygon fill="#ffffff" stroke="#bfbfbf" points="0,-55.5 0,-73.5 49.3398,-73.5 49.3398,-55.5 0,-55.5"/>
<text text-anchor="middle" x="24.6699" y="-61.5" font-family="Helvetica,sans-Serif" font-size="10.00" fill="#000000">fstream</text>
</g>
<!-- Node0&#45;&gt;Node12 -->
<g id="edge21" class="edge">
<title>Node0&#45;&gt;Node12</title>
<path fill="none" stroke="#191970" d="M220.3386,-377.5244C138.1268,-365.5388 24.6699,-332.9711 24.6699,-244.5 24.6699,-244.5 24.6699,-244.5 24.6699,-179.5 24.6699,-145.853 24.6699,-106.6686 24.6699,-83.819"/>
<polygon fill="#191970" stroke="#191970" points="28.17,-83.742 24.6699,-73.742 21.17,-83.7421 28.17,-83.742"/>
</g>
<!-- Node14 -->
<g id="node15" class="node">
<title>Node14</title>
<polygon fill="#ffffff" stroke="#bfbfbf" points="200.4434,-55.5 200.4434,-73.5 240.8965,-73.5 240.8965,-55.5 200.4434,-55.5"/>
<text text-anchor="middle" x="220.6699" y="-61.5" font-family="Helvetica,sans-Serif" font-size="10.00" fill="#000000">string</text>
</g>
<!-- Node0&#45;&gt;Node14 -->
<g id="edge24" class="edge">
<title>Node0&#45;&gt;Node14</title>
<path fill="none" stroke="#191970" d="M254.4291,-360.3982C239.4276,-350.9138 224.1511,-338.7248 213.6699,-324 192.4774,-294.227 192.6699,-281.0453 192.6699,-244.5 192.6699,-244.5 192.6699,-244.5 192.6699,-179.5 192.6699,-144.712 204.9154,-105.6417 213.2101,-83.1672"/>
<polygon fill="#191970" stroke="#191970" points="216.582,-84.1492 216.8937,-73.5589 210.0459,-81.6433 216.582,-84.1492"/>
</g>
<!-- Node18 -->
<g id="node19" class="node">
<title>Node18</title>
<polygon fill="#ffffff" stroke="#bfbfbf" points="403.2661,-300.5 403.2661,-318.5 462.0737,-318.5 462.0737,-300.5 403.2661,-300.5"/>
<text text-anchor="middle" x="432.6699" y="-306.5" font-family="Helvetica,sans-Serif" font-size="10.00" fill="#000000">functional</text>
</g>
<!-- Node0&#45;&gt;Node18 -->
<g id="edge22" class="edge">
<title>Node0&#45;&gt;Node18</title>
<path fill="none" stroke="#191970" d="M345.1964,-360.3567C365.8287,-348.3612 390.0686,-334.2682 407.7925,-323.9636"/>
<polygon fill="#191970" stroke="#191970" points="410.0185,-326.718 416.9044,-318.666 406.5002,-320.6665 410.0185,-326.718"/>
</g>
<!-- Node19 -->
<g id="node20" class="node">
<title>Node19</title>
<polygon fill="#ffffff" stroke="#bfbfbf" points="479.7168,-300.5 479.7168,-318.5 529.623,-318.5 529.623,-300.5 479.7168,-300.5"/>
<text text-anchor="middle" x="504.6699" y="-306.5" font-family="Helvetica,sans-Serif" font-size="10.00" fill="#000000">random</text>
</g>
<!-- Node0&#45;&gt;Node19 -->
<g id="edge23" class="edge">
<title>Node0&#45;&gt;Node19</title>
<path fill="none" stroke="#191970" d="M372.6497,-360.481C402.8766,-349.7063 438.6804,-336.6046 470.6699,-324 471.8789,-323.5236 473.1094,-323.0319 474.3504,-322.5302"/>
<polygon fill="#191970" stroke="#191970" points="475.9885,-325.6401 483.8876,-318.5792 473.3094,-319.173 475.9885,-325.6401"/>
</g>
<!-- Node2 -->
<g id="node3" class="node">
<title>Node2</title>
<g id="a_node3"><a xlink:href="AdditiveMeasurementModel_8h.html" target="_top" xlink:title="BayesFilters/AdditiveMeasurement\lModel.h">
<polygon fill="#ffffff" stroke="#000000" points="220.4165,-230.5 220.4165,-258.5 390.9233,-258.5 390.9233,-230.5 220.4165,-230.5"/>
<text text-anchor="start" x="228.4165" y="-246.5" font-family="Helvetica,sans-Serif" font-size="10.00" fill="#000000">BayesFilters/AdditiveMeasurement</text>
<text text-anchor="middle" x="305.6699" y="-236.5" font-family="Helvetica,sans-Serif" font-size="10.00" fill="#000000">Model.h</text>
</a>
</g>
</g>
<!-- Node1&#45;&gt;Node2 -->
<g id="edge2" class="edge">
<title>Node1&#45;&gt;Node2</title>
<path fill="none" stroke="#191970" d="M304.1039,-295.396C304.3424,-287.6448 304.6449,-277.8122 304.9204,-268.8601"/>
<polygon fill="#191970" stroke="#191970" points="308.4275,-268.6795 305.2368,-258.5765 301.4308,-268.4641 308.4275,-268.6795"/>
</g>
<!-- Node17 -->
<g id="node18" class="node">
<title>Node17</title>
<polygon fill="#ffffff" stroke="#bfbfbf" points="475.0396,-110.5 475.0396,-128.5 548.3003,-128.5 548.3003,-110.5 475.0396,-110.5"/>
<text text-anchor="middle" x="511.6699" y="-116.5" font-family="Helvetica,sans-Serif" font-size="10.00" fill="#000000">Eigen/Dense</text>
</g>
<!-- Node1&#45;&gt;Node17 -->
<g id="edge20" class="edge">
<title>Node1&#45;&gt;Node17</title>
<path fill="none" stroke="#191970" d="M338.6289,-295.3329C357.8168,-286.5602 381.3588,-274.0909 399.6699,-259 444.0293,-222.4418 482.7878,-165.831 500.8585,-137.2701"/>
<polygon fill="#191970" stroke="#191970" points="503.8614,-139.069 506.1719,-128.7291 497.9177,-135.3713 503.8614,-139.069"/>
</g>
<!-- Node3 -->
<g id="node4" class="node">
<title>Node3</title>
<g id="a_node4"><a xlink:href="MeasurementModel_8h.html" target="_top" xlink:title="BayesFilters/Measurement\lModel.h">
<polygon fill="#ffffff" stroke="#000000" points="238.2046,-165.5 238.2046,-193.5 373.1353,-193.5 373.1353,-165.5 238.2046,-165.5"/>
<text text-anchor="start" x="246.2046" y="-181.5" font-family="Helvetica,sans-Serif" font-size="10.00" fill="#000000">BayesFilters/Measurement</text>
<text text-anchor="middle" x="305.6699" y="-171.5" font-family="Helvetica,sans-Serif" font-size="10.00" fill="#000000">Model.h</text>
</a>
</g>
</g>
<!-- Node2&#45;&gt;Node3 -->
<g id="edge3" class="edge">
<title>Node2&#45;&gt;Node3</title>
<path fill="none" stroke="#191970" d="M305.6699,-230.396C305.6699,-222.6448 305.6699,-212.8122 305.6699,-203.8601"/>
<polygon fill="#191970" stroke="#191970" points="309.17,-203.5765 305.6699,-193.5765 302.17,-203.5765 309.17,-203.5765"/>
</g>
<!-- Node4 -->
<g id="node5" class="node">
<title>Node4</title>
<g id="a_node5"><a xlink:href="Data_8h.html" target="_top" xlink:title="BayesFilters/Data.h">
<polygon fill="#ffffff" stroke="#000000" points="315.042,-110.5 315.042,-128.5 418.2979,-128.5 418.2979,-110.5 315.042,-110.5"/>
<text text-anchor="middle" x="366.6699" y="-116.5" font-family="Helvetica,sans-Serif" font-size="10.00" fill="#000000">BayesFilters/Data.h</text>
</a>
</g>
</g>
<!-- Node3&#45;&gt;Node4 -->
<g id="edge4" class="edge">
<title>Node3&#45;&gt;Node4</title>
<path fill="none" stroke="#191970" d="M320.1261,-165.2808C329.1541,-156.4008 340.804,-144.9419 350.1899,-135.7098"/>
<polygon fill="#191970" stroke="#191970" points="352.7594,-138.0919 357.4343,-128.5842 347.8507,-133.1014 352.7594,-138.0919"/>
</g>
<!-- Node7 -->
<g id="node8" class="node">
<title>Node7</title>
<polygon fill="#ffffff" stroke="#bfbfbf" points="440.6133,-.5 440.6133,-18.5 492.7266,-18.5 492.7266,-.5 440.6133,-.5"/>
<text text-anchor="middle" x="466.6699" y="-6.5" font-family="Helvetica,sans-Serif" font-size="10.00" fill="#000000">memory</text>
</g>
<!-- Node3&#45;&gt;Node7 -->
<g id="edge16" class="edge">
<title>Node3&#45;&gt;Node7</title>
<path fill="none" stroke="#191970" d="M367.44,-165.4012C388.969,-157.7724 411.7072,-146.2417 427.6699,-129 453.8872,-100.6821 462.4936,-54.4676 465.3094,-28.5922"/>
<polygon fill="#191970" stroke="#191970" points="468.8012,-28.84 466.2173,-18.565 461.8297,-28.2087 468.8012,-28.84"/>
</g>
<!-- Node11 -->
<g id="node12" class="node">
<title>Node11</title>
<g id="a_node12"><a xlink:href="Logger_8h.html" target="_top" xlink:title="BayesFilters/Logger.h">
<polygon fill="#ffffff" stroke="#000000" points="52.3081,-110.5 52.3081,-128.5 165.0317,-128.5 165.0317,-110.5 52.3081,-110.5"/>
<text text-anchor="middle" x="108.6699" y="-116.5" font-family="Helvetica,sans-Serif" font-size="10.00" fill="#000000">BayesFilters/Logger.h</text>
</a>
</g>
</g>
<!-- Node3&#45;&gt;Node11 -->
<g id="edge11" class="edge">
<title>Node3&#45;&gt;Node11</title>
<path fill="none" stroke="#191970" d="M259.4822,-165.4327C225.7205,-155.1499 180.4077,-141.3491 148.2898,-131.567"/>
<polygon fill="#191970" stroke="#191970" points="148.9428,-128.1072 138.3569,-128.5417 146.9033,-134.8035 148.9428,-128.1072"/>
</g>
<!-- Node3&#45;&gt;Node14 -->
<g id="edge17" class="edge">
<title>Node3&#45;&gt;Node14</title>
<path fill="none" stroke="#191970" d="M299.5225,-165.4382C292.8009,-150.8458 281.1696,-127.7218 267.6699,-110 259.4729,-99.2393 248.7291,-88.6422 239.5829,-80.3858"/>
<polygon fill="#191970" stroke="#191970" points="241.8865,-77.7508 232.0608,-73.7876 237.2704,-83.0131 241.8865,-77.7508"/>
</g>
<!-- Node16 -->
<g id="node17" class="node">
<title>Node16</title>
<polygon fill="#ffffff" stroke="#bfbfbf" points="220.2783,-110.5 220.2783,-128.5 259.0615,-128.5 259.0615,-110.5 220.2783,-110.5"/>
<text text-anchor="middle" x="239.6699" y="-116.5" font-family="Helvetica,sans-Serif" font-size="10.00" fill="#000000">utility</text>
</g>
<!-- Node3&#45;&gt;Node16 -->
<g id="edge18" class="edge">
<title>Node3&#45;&gt;Node16</title>
<path fill="none" stroke="#191970" d="M290.0288,-165.2808C280.1631,-156.312 267.4036,-144.7124 257.1968,-135.4335"/>
<polygon fill="#191970" stroke="#191970" points="259.4163,-132.7211 249.6625,-128.5842 254.7076,-137.9007 259.4163,-132.7211"/>
</g>
<!-- Node3&#45;&gt;Node17 -->
<g id="edge19" class="edge">
<title>Node3&#45;&gt;Node17</title>
<path fill="none" stroke="#191970" d="M353.9678,-165.4327C389.4247,-155.1054 437.0652,-141.2295 470.6754,-131.4402"/>
<polygon fill="#191970" stroke="#191970" points="472.0044,-134.6986 480.6267,-128.5417 470.0468,-127.9778 472.0044,-134.6986"/>
</g>
<!-- Node5 -->
<g id="node6" class="node">
<title>Node5</title>
<g id="a_node6"><a xlink:href="any_8h.html" target="_top" xlink:title="BayesFilters/any.h">
<polygon fill="#ffffff" stroke="#000000" points="288.9106,-55.5 288.9106,-73.5 386.4292,-73.5 386.4292,-55.5 288.9106,-55.5"/>
<text text-anchor="middle" x="337.6699" y="-61.5" font-family="Helvetica,sans-Serif" font-size="10.00" fill="#000000">BayesFilters/any.h</text>
</a>
</g>
</g>
<!-- Node4&#45;&gt;Node5 -->
<g id="edge5" class="edge">
<title>Node4&#45;&gt;Node5</title>
<path fill="none" stroke="#191970" d="M361.8812,-110.4179C357.9171,-102.8998 352.1609,-91.9829 347.2557,-82.6799"/>
<polygon fill="#191970" stroke="#191970" points="350.3229,-80.9927 342.5627,-73.7795 344.1309,-84.2576 350.3229,-80.9927"/>
</g>
<!-- Node6 -->
<g id="node7" class="node">
<title>Node6</title>
<polygon fill="#ffffff" stroke="#bfbfbf" points="139.106,-.5 139.106,-18.5 196.2339,-18.5 196.2339,-.5 139.106,-.5"/>
<text text-anchor="middle" x="167.6699" y="-6.5" font-family="Helvetica,sans-Serif" font-size="10.00" fill="#000000">algorithm</text>
</g>
<!-- Node5&#45;&gt;Node6 -->
<g id="edge6" class="edge">
<title>Node5&#45;&gt;Node6</title>
<path fill="none" stroke="#191970" d="M309.5979,-55.4179C281.0905,-46.1949 236.7724,-31.8567 205.2499,-21.6582"/>
<polygon fill="#191970" stroke="#191970" points="206.093,-18.2524 195.5011,-18.5042 203.9382,-24.9125 206.093,-18.2524"/>
</g>
<!-- Node5&#45;&gt;Node7 -->
<g id="edge7" class="edge">
<title>Node5&#45;&gt;Node7</title>
<path fill="none" stroke="#191970" d="M358.9716,-55.4179C379.9789,-46.4613 412.3008,-32.6806 436.0571,-22.552"/>
<polygon fill="#191970" stroke="#191970" points="437.5104,-25.7372 445.3365,-18.5956 434.765,-19.2981 437.5104,-25.7372"/>
</g>
<!-- Node8 -->
<g id="node9" class="node">
<title>Node8</title>
<polygon fill="#ffffff" stroke="#bfbfbf" points="214.2686,-.5 214.2686,-18.5 273.0713,-18.5 273.0713,-.5 214.2686,-.5"/>
<text text-anchor="middle" x="243.6699" y="-6.5" font-family="Helvetica,sans-Serif" font-size="10.00" fill="#000000">stdexcept</text>
</g>
<!-- Node5&#45;&gt;Node8 -->
<g id="edge8" class="edge">
<title>Node5&#45;&gt;Node8</title>
<path fill="none" stroke="#191970" d="M322.1477,-55.4179C307.4524,-46.8195 285.1588,-33.7754 268.0833,-23.7844"/>
<polygon fill="#191970" stroke="#191970" points="269.6139,-20.6249 259.2152,-18.5956 266.0787,-26.6667 269.6139,-20.6249"/>
</g>
<!-- Node9 -->
<g id="node10" class="node">
<title>Node9</title>
<polygon fill="#ffffff" stroke="#bfbfbf" points="291.1577,-.5 291.1577,-18.5 342.1821,-18.5 342.1821,-.5 291.1577,-.5"/>
<text text-anchor="middle" x="316.6699" y="-6.5" font-family="Helvetica,sans-Serif" font-size="10.00" fill="#000000">typeinfo</text>
</g>
<!-- Node5&#45;&gt;Node9 -->
<g id="edge9" class="edge">
<title>Node5&#45;&gt;Node9</title>
<path fill="none" stroke="#191970" d="M334.2022,-55.4179C331.3921,-48.0581 327.3383,-37.441 323.8365,-28.2695"/>
<polygon fill="#191970" stroke="#191970" points="327.0498,-26.8732 320.213,-18.7795 320.5103,-29.3701 327.0498,-26.8732"/>
</g>
<!-- Node10 -->
<g id="node11" class="node">
<title>Node10</title>
<polygon fill="#ffffff" stroke="#bfbfbf" points="360.6035,-.5 360.6035,-18.5 422.7363,-18.5 422.7363,-.5 360.6035,-.5"/>
<text text-anchor="middle" x="391.6699" y="-6.5" font-family="Helvetica,sans-Serif" font-size="10.00" fill="#000000">type_traits</text>
</g>
<!-- Node5&#45;&gt;Node10 -->
<g id="edge10" class="edge">
<title>Node5&#45;&gt;Node10</title>
<path fill="none" stroke="#191970" d="M346.5869,-55.4179C354.4345,-47.425 366.054,-35.5903 375.531,-25.9377"/>
<polygon fill="#191970" stroke="#191970" points="378.0507,-28.3672 382.5592,-18.7795 373.0558,-23.463 378.0507,-28.3672"/>
</g>
<!-- Node11&#45;&gt;Node12 -->
<g id="edge12" class="edge">
<title>Node11&#45;&gt;Node12</title>
<path fill="none" stroke="#191970" d="M94.799,-110.4179C81.9102,-101.9788 62.4806,-89.257 47.3386,-79.3426"/>
<polygon fill="#191970" stroke="#191970" points="48.8449,-76.1454 38.5614,-73.5956 45.0104,-82.0017 48.8449,-76.1454"/>
</g>
<!-- Node13 -->
<g id="node14" class="node">
<title>Node13</title>
<polygon fill="#ffffff" stroke="#bfbfbf" points="128.4976,-55.5 128.4976,-73.5 182.8423,-73.5 182.8423,-55.5 128.4976,-55.5"/>
<text text-anchor="middle" x="155.6699" y="-61.5" font-family="Helvetica,sans-Serif" font-size="10.00" fill="#000000">iostream</text>
</g>
<!-- Node11&#45;&gt;Node13 -->
<g id="edge13" class="edge">
<title>Node11&#45;&gt;Node13</title>
<path fill="none" stroke="#191970" d="M116.431,-110.4179C123.126,-102.5833 132.9753,-91.0575 141.131,-81.5137"/>
<polygon fill="#191970" stroke="#191970" points="143.9045,-83.6556 147.7402,-73.7795 138.5828,-79.108 143.9045,-83.6556"/>
</g>
<!-- Node11&#45;&gt;Node14 -->
<g id="edge14" class="edge">
<title>Node11&#45;&gt;Node14</title>
<path fill="none" stroke="#191970" d="M127.1644,-110.4179C145.0791,-101.6205 172.471,-88.1691 192.9843,-78.0956"/>
<polygon fill="#191970" stroke="#191970" points="194.7146,-81.1452 202.1479,-73.5956 191.629,-74.8619 194.7146,-81.1452"/>
</g>
<!-- Node15 -->
<g id="node16" class="node">
<title>Node15</title>
<polygon fill="#ffffff" stroke="#bfbfbf" points="67.0542,-55.5 67.0542,-73.5 110.2856,-73.5 110.2856,-55.5 67.0542,-55.5"/>
<text text-anchor="middle" x="88.6699" y="-61.5" font-family="Helvetica,sans-Serif" font-size="10.00" fill="#000000">vector</text>
</g>
<!-- Node11&#45;&gt;Node15 -->
<g id="edge15" class="edge">
<title>Node11&#45;&gt;Node15</title>
<path fill="none" stroke="#191970" d="M105.3673,-110.4179C102.691,-103.0581 98.8303,-92.441 95.4952,-83.2695"/>
<polygon fill="#191970" stroke="#191970" points="98.751,-81.9813 92.0443,-73.7795 92.1725,-84.3735 98.751,-81.9813"/>
</g>
</g>
</svg>
