<?xml version="1.0" encoding="UTF-8" standalone="no"?>
<!DOCTYPE svg PUBLIC "-//W3C//DTD SVG 1.1//EN"
 "http://www.w3.org/Graphics/SVG/1.1/DTD/svg11.dtd">
<!-- Generated by graphviz version 2.40.1 (20161225.0304)
 -->
<!-- Title: /Users/Claudio/GitHub/bayes&#45;filters&#45;lib/src/BayesFilters/include/BayesFilters/LinearMeasurementModel.h Pages: 1 -->
<!--zoomable 352 -->
<svg id="main" version="1.1" xmlns="http://www.w3.org/2000/svg" xmlns:xlink="http://www.w3.org/1999/xlink" xml:space="preserve" onload="init(evt)">
<style type="text/css"><![CDATA[
.edge:hover path { stroke: red; }
.edge:hover polygon { stroke: red; fill: red; }
]]></style>
<script type="text/javascript"><![CDATA[
var edges = document.getElementsByTagName('g');
if (edges && edges.length) {
  for (var i=0;i<edges.length;i++) {
    if (edges[i].id.substr(0,4)=='edge') {
      edges[i].setAttribute('class','edge');
    }
  }
}
]]></script>
        <defs>
                <circle id="rim" cx="0" cy="0" r="7"/>
                <circle id="rim2" cx="0" cy="0" r="3.5"/>
                <g id="zoomPlus">
                        <use xlink:href="#rim" fill="#404040">
                                <set attributeName="fill" to="#808080" begin="zoomplus.mouseover" end="zoomplus.mouseout"/>
                        </use>
                        <path d="M-4,0h8M0,-4v8" fill="none" stroke="white" stroke-width="1.5" pointer-events="none"/>
                </g>
                <g id="zoomMin">
                        <use xlink:href="#rim" fill="#404040">
                                <set attributeName="fill" to="#808080" begin="zoomminus.mouseover" end="zoomminus.mouseout"/>
                        </use>
                        <path d="M-4,0h8" fill="none" stroke="white" stroke-width="1.5" pointer-events="none"/>
                </g>
                <g id="dirArrow">
                        <path fill="none" stroke="white" stroke-width="1.5" d="M0,-3.0v7 M-2.5,-0.5L0,-3.0L2.5,-0.5"/>
                </g>
               <g id="resetDef">
                       <use xlink:href="#rim2" fill="#404040">
                               <set attributeName="fill" to="#808080" begin="reset.mouseover" end="reset.mouseout"/>
                       </use>
               </g>
        </defs>

<script type="text/javascript">
var viewWidth = 568;
var viewHeight = 352;
var sectionId = 'dynsection-0';
</script>
<script xlink:href="svgpan.js"/>
<svg id="graph" class="graph">
<g id="viewport">
<title>/Users/Claudio/GitHub/bayes&#45;filters&#45;lib/src/BayesFilters/include/BayesFilters/LinearMeasurementModel.h</title>
<polygon fill="#ffffff" stroke="transparent" points="-4,4 -4,-348 563.687,-348 563.687,4 -4,4"/>
<!-- Node0 -->
<g id="node1" class="node">
<title>Node0</title>
<polygon fill="#bfbfbf" stroke="#000000" points="379.0298,-295.5 379.0298,-343.5 545.0835,-343.5 545.0835,-295.5 379.0298,-295.5"/>
<text text-anchor="start" x="387.0298" y="-331.5" font-family="Helvetica,sans-Serif" font-size="10.00" fill="#000000">/Users/Claudio/GitHub</text>
<text text-anchor="start" x="387.0298" y="-321.5" font-family="Helvetica,sans-Serif" font-size="10.00" fill="#000000">/bayes&#45;filters&#45;lib/src</text>
<text text-anchor="start" x="387.0298" y="-311.5" font-family="Helvetica,sans-Serif" font-size="10.00" fill="#000000">/BayesFilters/include/BayesFilters</text>
<text text-anchor="middle" x="462.0566" y="-301.5" font-family="Helvetica,sans-Serif" font-size="10.00" fill="#000000">/LinearMeasurementModel.h</text>
</g>
<!-- Node1 -->
<g id="node2" class="node">
<title>Node1</title>
<g id="a_node2"><a xlink:href="AdditiveMeasurementModel_8h.html" target="_top" xlink:title="BayesFilters/AdditiveMeasurement\lModel.h">
<polygon fill="#ffffff" stroke="#000000" points="320.8032,-230.5 320.8032,-258.5 491.3101,-258.5 491.3101,-230.5 320.8032,-230.5"/>
<text text-anchor="start" x="328.8032" y="-246.5" font-family="Helvetica,sans-Serif" font-size="10.00" fill="#000000">BayesFilters/AdditiveMeasurement</text>
<text text-anchor="middle" x="406.0566" y="-236.5" font-family="Helvetica,sans-Serif" font-size="10.00" fill="#000000">Model.h</text>
</a>
</g>
</g>
<!-- Node0&#45;&gt;Node1 -->
<g id="edge1" class="edge">
<title>Node0&#45;&gt;Node1</title>
<path fill="none" stroke="#191970" d="M444.0296,-295.3567C437.1483,-286.1406 429.3425,-275.6864 422.6053,-266.6634"/>
<polygon fill="#191970" stroke="#191970" points="425.3259,-264.457 416.5385,-258.5382 419.7169,-268.645 425.3259,-264.457"/>
</g>
<!-- Node16 -->
<g id="node17" class="node">
<title>Node16</title>
<polygon fill="#ffffff" stroke="#bfbfbf" points="486.4263,-110.5 486.4263,-128.5 559.687,-128.5 559.687,-110.5 486.4263,-110.5"/>
<text text-anchor="middle" x="523.0566" y="-116.5" font-family="Helvetica,sans-Serif" font-size="10.00" fill="#000000">Eigen/Dense</text>
</g>
<!-- Node0&#45;&gt;Node16 -->
<g id="edge19" class="edge">
<title>Node0&#45;&gt;Node16</title>
<path fill="none" stroke="#191970" d="M480.3218,-295.3611C487.5276,-284.7235 495.2233,-271.759 500.0566,-259 515.5779,-218.0272 520.6364,-166.3703 522.2767,-138.8486"/>
<polygon fill="#191970" stroke="#191970" points="525.7837,-138.7962 522.7909,-128.6329 518.7925,-138.4442 525.7837,-138.7962"/>
</g>
<!-- Node2 -->
<g id="node3" class="node">
<title>Node2</title>
<g id="a_node3"><a xlink:href="MeasurementModel_8h.html" target="_top" xlink:title="BayesFilters/Measurement\lModel.h">
<polygon fill="#ffffff" stroke="#000000" points="334.5913,-165.5 334.5913,-193.5 469.522,-193.5 469.522,-165.5 334.5913,-165.5"/>
<text text-anchor="start" x="342.5913" y="-181.5" font-family="Helvetica,sans-Serif" font-size="10.00" fill="#000000">BayesFilters/Measurement</text>
<text text-anchor="middle" x="402.0566" y="-171.5" font-family="Helvetica,sans-Serif" font-size="10.00" fill="#000000">Model.h</text>
</a>
</g>
</g>
<!-- Node1&#45;&gt;Node2 -->
<g id="edge2" class="edge">
<title>Node1&#45;&gt;Node2</title>
<path fill="none" stroke="#191970" d="M405.1887,-230.396C404.7065,-222.5597 404.0933,-212.5958 403.5376,-203.5653"/>
<polygon fill="#191970" stroke="#191970" points="407.0306,-203.3426 402.9229,-193.5765 400.0438,-203.7726 407.0306,-203.3426"/>
</g>
<!-- Node3 -->
<g id="node4" class="node">
<title>Node3</title>
<g id="a_node4"><a xlink:href="Data_8h.html" target="_top" xlink:title="BayesFilters/Data.h">
<polygon fill="#ffffff" stroke="#000000" points="124.4287,-110.5 124.4287,-128.5 227.6846,-128.5 227.6846,-110.5 124.4287,-110.5"/>
<text text-anchor="middle" x="176.0566" y="-116.5" font-family="Helvetica,sans-Serif" font-size="10.00" fill="#000000">BayesFilters/Data.h</text>
</a>
</g>
</g>
<!-- Node2&#45;&gt;Node3 -->
<g id="edge3" class="edge">
<title>Node2&#45;&gt;Node3</title>
<path fill="none" stroke="#191970" d="M349.0697,-165.4327C309.835,-155.0164 257.0024,-140.99 220.0811,-131.1879"/>
<polygon fill="#191970" stroke="#191970" points="220.6771,-127.725 210.1138,-128.5417 218.8809,-134.4906 220.6771,-127.725"/>
</g>
<!-- Node6 -->
<g id="node7" class="node">
<title>Node6</title>
<polygon fill="#ffffff" stroke="#bfbfbf" points="0,-.5 0,-18.5 52.1133,-18.5 52.1133,-.5 0,-.5"/>
<text text-anchor="middle" x="26.0566" y="-6.5" font-family="Helvetica,sans-Serif" font-size="10.00" fill="#000000">memory</text>
</g>
<!-- Node2&#45;&gt;Node6 -->
<g id="edge15" class="edge">
<title>Node2&#45;&gt;Node6</title>
<path fill="none" stroke="#191970" d="M334.494,-173.4025C261.5291,-165.8153 150.9098,-151.101 115.0566,-129 75.2045,-104.434 47.2195,-54.8796 34.2396,-27.9446"/>
<polygon fill="#191970" stroke="#191970" points="37.2537,-26.1246 29.8712,-18.5253 30.9034,-29.0697 37.2537,-26.1246"/>
</g>
<!-- Node10 -->
<g id="node11" class="node">
<title>Node10</title>
<g id="a_node11"><a xlink:href="Logger_8h.html" target="_top" xlink:title="BayesFilters/Logger.h">
<polygon fill="#ffffff" stroke="#000000" points="261.6948,-110.5 261.6948,-128.5 374.4185,-128.5 374.4185,-110.5 261.6948,-110.5"/>
<text text-anchor="middle" x="318.0566" y="-116.5" font-family="Helvetica,sans-Serif" font-size="10.00" fill="#000000">BayesFilters/Logger.h</text>
</a>
</g>
</g>
<!-- Node2&#45;&gt;Node10 -->
<g id="edge10" class="edge">
<title>Node2&#45;&gt;Node10</title>
<path fill="none" stroke="#191970" d="M382.1498,-165.2808C369.2204,-156.0456 352.3861,-144.021 339.2148,-134.613"/>
<polygon fill="#191970" stroke="#191970" points="340.9462,-131.5485 330.7745,-128.5842 336.8775,-137.2447 340.9462,-131.5485"/>
</g>
<!-- Node13 -->
<g id="node14" class="node">
<title>Node13</title>
<polygon fill="#ffffff" stroke="#bfbfbf" points="424.8301,-55.5 424.8301,-73.5 465.2832,-73.5 465.2832,-55.5 424.8301,-55.5"/>
<text text-anchor="middle" x="445.0566" y="-61.5" font-family="Helvetica,sans-Serif" font-size="10.00" fill="#000000">string</text>
</g>
<!-- Node2&#45;&gt;Node13 -->
<g id="edge16" class="edge">
<title>Node2&#45;&gt;Node13</title>
<path fill="none" stroke="#191970" d="M404.967,-165.3629C408.1212,-151.1096 413.7052,-128.6149 421.0566,-110 424.782,-100.5669 429.925,-90.5492 434.4948,-82.3219"/>
<polygon fill="#191970" stroke="#191970" points="437.5413,-84.045 439.4768,-73.6285 431.4679,-80.5645 437.5413,-84.045"/>
</g>
<!-- Node15 -->
<g id="node16" class="node">
<title>Node15</title>
<polygon fill="#ffffff" stroke="#bfbfbf" points="429.665,-110.5 429.665,-128.5 468.4482,-128.5 468.4482,-110.5 429.665,-110.5"/>
<text text-anchor="middle" x="449.0566" y="-116.5" font-family="Helvetica,sans-Serif" font-size="10.00" fill="#000000">utility</text>
</g>
<!-- Node2&#45;&gt;Node15 -->
<g id="edge17" class="edge">
<title>Node2&#45;&gt;Node15</title>
<path fill="none" stroke="#191970" d="M413.195,-165.2808C419.9424,-156.6672 428.5904,-145.6271 435.7035,-136.5466"/>
<polygon fill="#191970" stroke="#191970" points="438.5293,-138.6148 441.9407,-128.5842 433.0187,-134.2982 438.5293,-138.6148"/>
</g>
<!-- Node2&#45;&gt;Node16 -->
<g id="edge18" class="edge">
<title>Node2&#45;&gt;Node16</title>
<path fill="none" stroke="#191970" d="M430.4258,-165.4327C450.1152,-155.6693 476.2007,-142.7344 495.672,-133.0792"/>
<polygon fill="#191970" stroke="#191970" points="497.2382,-136.2093 504.6423,-128.6311 494.1284,-129.9379 497.2382,-136.2093"/>
</g>
<!-- Node4 -->
<g id="node5" class="node">
<title>Node4</title>
<g id="a_node5"><a xlink:href="any_8h.html" target="_top" xlink:title="BayesFilters/any.h">
<polygon fill="#ffffff" stroke="#000000" points="108.2974,-55.5 108.2974,-73.5 205.8159,-73.5 205.8159,-55.5 108.2974,-55.5"/>
<text text-anchor="middle" x="157.0566" y="-61.5" font-family="Helvetica,sans-Serif" font-size="10.00" fill="#000000">BayesFilters/any.h</text>
</a>
</g>
</g>
<!-- Node3&#45;&gt;Node4 -->
<g id="edge4" class="edge">
<title>Node3&#45;&gt;Node4</title>
<path fill="none" stroke="#191970" d="M172.9192,-110.4179C170.3767,-103.0581 166.709,-92.441 163.5407,-83.2695"/>
<polygon fill="#191970" stroke="#191970" points="166.8357,-82.0885 160.2623,-73.7795 160.2194,-84.3742 166.8357,-82.0885"/>
</g>
<!-- Node5 -->
<g id="node6" class="node">
<title>Node5</title>
<polygon fill="#ffffff" stroke="#bfbfbf" points="70.4927,-.5 70.4927,-18.5 127.6206,-18.5 127.6206,-.5 70.4927,-.5"/>
<text text-anchor="middle" x="99.0566" y="-6.5" font-family="Helvetica,sans-Serif" font-size="10.00" fill="#000000">algorithm</text>
</g>
<!-- Node4&#45;&gt;Node5 -->
<g id="edge5" class="edge">
<title>Node4&#45;&gt;Node5</title>
<path fill="none" stroke="#191970" d="M147.4791,-55.4179C139.0503,-47.425 126.5701,-35.5903 116.391,-25.9377"/>
<polygon fill="#191970" stroke="#191970" points="118.5068,-23.1207 108.8422,-18.7795 113.6902,-28.2001 118.5068,-23.1207"/>
</g>
<!-- Node4&#45;&gt;Node6 -->
<g id="edge6" class="edge">
<title>Node4&#45;&gt;Node6</title>
<path fill="none" stroke="#191970" d="M135.4247,-55.4179C114.0917,-46.4613 81.2687,-32.6806 57.1441,-22.552"/>
<polygon fill="#191970" stroke="#191970" points="58.296,-19.2397 47.7208,-18.5956 55.5862,-25.6939 58.296,-19.2397"/>
</g>
<!-- Node7 -->
<g id="node8" class="node">
<title>Node7</title>
<polygon fill="#ffffff" stroke="#bfbfbf" points="145.6553,-.5 145.6553,-18.5 204.458,-18.5 204.458,-.5 145.6553,-.5"/>
<text text-anchor="middle" x="175.0566" y="-6.5" font-family="Helvetica,sans-Serif" font-size="10.00" fill="#000000">stdexcept</text>
</g>
<!-- Node4&#45;&gt;Node7 -->
<g id="edge7" class="edge">
<title>Node4&#45;&gt;Node7</title>
<path fill="none" stroke="#191970" d="M160.029,-55.4179C162.4117,-48.1372 165.8377,-37.669 168.8169,-28.5659"/>
<polygon fill="#191970" stroke="#191970" points="172.2357,-29.3721 172.0197,-18.7795 165.5829,-27.1948 172.2357,-29.3721"/>
</g>
<!-- Node8 -->
<g id="node9" class="node">
<title>Node8</title>
<polygon fill="#ffffff" stroke="#bfbfbf" points="222.5444,-.5 222.5444,-18.5 273.5688,-18.5 273.5688,-.5 222.5444,-.5"/>
<text text-anchor="middle" x="248.0566" y="-6.5" font-family="Helvetica,sans-Serif" font-size="10.00" fill="#000000">typeinfo</text>
</g>
<!-- Node4&#45;&gt;Node8 -->
<g id="edge8" class="edge">
<title>Node4&#45;&gt;Node8</title>
<path fill="none" stroke="#191970" d="M172.0834,-55.4179C186.3098,-46.8195 207.8919,-33.7754 224.4224,-23.7844"/>
<polygon fill="#191970" stroke="#191970" points="226.2596,-26.7637 233.0075,-18.5956 222.6388,-20.7729 226.2596,-26.7637"/>
</g>
<!-- Node9 -->
<g id="node10" class="node">
<title>Node9</title>
<polygon fill="#ffffff" stroke="#bfbfbf" points="291.9902,-.5 291.9902,-18.5 354.123,-18.5 354.123,-.5 291.9902,-.5"/>
<text text-anchor="middle" x="323.0566" y="-6.5" font-family="Helvetica,sans-Serif" font-size="10.00" fill="#000000">type_traits</text>
</g>
<!-- Node4&#45;&gt;Node9 -->
<g id="edge9" class="edge">
<title>Node4&#45;&gt;Node9</title>
<path fill="none" stroke="#191970" d="M184.4682,-55.4179C212.3048,-46.1949 255.5801,-31.8567 286.3609,-21.6582"/>
<polygon fill="#191970" stroke="#191970" points="287.4886,-24.9718 295.8803,-18.5042 285.2869,-18.327 287.4886,-24.9718"/>
</g>
<!-- Node11 -->
<g id="node12" class="node">
<title>Node11</title>
<polygon fill="#ffffff" stroke="#bfbfbf" points="223.3867,-55.5 223.3867,-73.5 272.7266,-73.5 272.7266,-55.5 223.3867,-55.5"/>
<text text-anchor="middle" x="248.0566" y="-61.5" font-family="Helvetica,sans-Serif" font-size="10.00" fill="#000000">fstream</text>
</g>
<!-- Node10&#45;&gt;Node11 -->
<g id="edge11" class="edge">
<title>Node10&#45;&gt;Node11</title>
<path fill="none" stroke="#191970" d="M306.4976,-110.4179C296.0226,-102.1876 280.3634,-89.8839 267.8903,-80.0836"/>
<polygon fill="#191970" stroke="#191970" points="269.8925,-77.2056 259.8669,-73.7795 265.5677,-82.7098 269.8925,-77.2056"/>
</g>
<!-- Node12 -->
<g id="node13" class="node">
<title>Node12</title>
<polygon fill="#ffffff" stroke="#bfbfbf" points="290.8843,-55.5 290.8843,-73.5 345.229,-73.5 345.229,-55.5 290.8843,-55.5"/>
<text text-anchor="middle" x="318.0566" y="-61.5" font-family="Helvetica,sans-Serif" font-size="10.00" fill="#000000">iostream</text>
</g>
<!-- Node10&#45;&gt;Node12 -->
<g id="edge12" class="edge">
<title>Node10&#45;&gt;Node12</title>
<path fill="none" stroke="#191970" d="M318.0566,-110.4179C318.0566,-103.2164 318.0566,-92.8962 318.0566,-83.8632"/>
<polygon fill="#191970" stroke="#191970" points="321.5567,-83.7794 318.0566,-73.7795 314.5567,-83.7795 321.5567,-83.7794"/>
</g>
<!-- Node10&#45;&gt;Node13 -->
<g id="edge13" class="edge">
<title>Node10&#45;&gt;Node13</title>
<path fill="none" stroke="#191970" d="M339.0281,-110.4179C359.7411,-101.4477 391.627,-87.6388 415.0248,-77.5059"/>
<polygon fill="#191970" stroke="#191970" points="416.6899,-80.599 424.4754,-73.4131 413.908,-74.1755 416.6899,-80.599"/>
</g>
<!-- Node14 -->
<g id="node15" class="node">
<title>Node14</title>
<polygon fill="#ffffff" stroke="#bfbfbf" points="363.4409,-55.5 363.4409,-73.5 406.6724,-73.5 406.6724,-55.5 363.4409,-55.5"/>
<text text-anchor="middle" x="385.0566" y="-61.5" font-family="Helvetica,sans-Serif" font-size="10.00" fill="#000000">vector</text>
</g>
<!-- Node10&#45;&gt;Node14 -->
<g id="edge14" class="edge">
<title>Node10&#45;&gt;Node14</title>
<path fill="none" stroke="#191970" d="M329.1203,-110.4179C339.0499,-102.2667 353.8467,-90.1201 365.7278,-80.3669"/>
<polygon fill="#191970" stroke="#191970" points="368.244,-82.8297 373.7526,-73.7795 363.8025,-77.4192 368.244,-82.8297"/>
</g>
</g>
</svg>
        <g id="navigator" transform="translate(0 0)" fill="#404254">
                <rect fill="#f2f5e9" fill-opacity="0.5" stroke="#606060" stroke-width=".5" x="0" y="0" width="60" height="60"/>
                <use id="zoomplus" xlink:href="#zoomPlus" x="17" y="9" onmousedown="handleZoom(evt,'in')"/>
                <use id="zoomminus" xlink:href="#zoomMin" x="42" y="9" onmousedown="handleZoom(evt,'out')"/>
                <use id="reset" xlink:href="#resetDef" x="30" y="36" onmousedown="handleReset()"/>
                <g id="arrowUp" xlink:href="#dirArrow" transform="translate(30 24)" onmousedown="handlePan(0,-1)">
                  <use xlink:href="#rim" fill="#404040">
                        <set attributeName="fill" to="#808080" begin="arrowUp.mouseover" end="arrowUp.mouseout"/>
                  </use>
                  <path fill="none" stroke="white" stroke-width="1.5" d="M0,-3.0v7 M-2.5,-0.5L0,-3.0L2.5,-0.5"/>
                </g>
                <g id="arrowRight" xlink:href="#dirArrow" transform="rotate(90) translate(36 -43)" onmousedown="handlePan(1,0)">
                  <use xlink:href="#rim" fill="#404040">
                        <set attributeName="fill" to="#808080" begin="arrowRight.mouseover" end="arrowRight.mouseout"/>
                  </use>
                  <path fill="none" stroke="white" stroke-width="1.5" d="M0,-3.0v7 M-2.5,-0.5L0,-3.0L2.5,-0.5"/>
                </g>
                <g id="arrowDown" xlink:href="#dirArrow" transform="rotate(180) translate(-30 -48)" onmousedown="handlePan(0,1)">
                  <use xlink:href="#rim" fill="#404040">
                        <set attributeName="fill" to="#808080" begin="arrowDown.mouseover" end="arrowDown.mouseout"/>
                  </use>
                  <path fill="none" stroke="white" stroke-width="1.5" d="M0,-3.0v7 M-2.5,-0.5L0,-3.0L2.5,-0.5"/>
                </g>
                <g id="arrowLeft" xlink:href="#dirArrow" transform="rotate(270) translate(-36 17)" onmousedown="handlePan(-1,0)">
                  <use xlink:href="#rim" fill="#404040">
                        <set attributeName="fill" to="#808080" begin="arrowLeft.mouseover" end="arrowLeft.mouseout"/>
                  </use>
                  <path fill="none" stroke="white" stroke-width="1.5" d="M0,-3.0v7 M-2.5,-0.5L0,-3.0L2.5,-0.5"/>
                </g>
        </g>
        <svg viewBox="0 0 15 15" width="100%" height="30px" preserveAspectRatio="xMaxYMin meet">
         <g id="arrow_out" transform="scale(0.3 0.3)">
          <a xlink:href="LinearMeasurementModel_8h__incl_org.svg" target="_base">
           <rect id="button" ry="5" rx="5" y="6" x="6" height="38" width="38"
                fill="#f2f5e9" fill-opacity="0.5" stroke="#606060" stroke-width="1.0"/>
           <path id="arrow"
             d="M 11.500037,31.436501 C 11.940474,20.09759 22.043105,11.32322 32.158766,21.979434 L 37.068811,17.246167 C 37.068811,17.246167 37.088388,32 37.088388,32 L 22.160133,31.978069 C 22.160133,31.978069 26.997745,27.140456 26.997745,27.140456 C 18.528582,18.264221 13.291696,25.230495 11.500037,31.436501 z"
             style="fill:#404040;"/>
          </a>
         </g>
        </svg>
</svg>
