<?xml version="1.0" encoding="UTF-8" standalone="no"?>
<!DOCTYPE svg PUBLIC "-//W3C//DTD SVG 1.1//EN"
 "http://www.w3.org/Graphics/SVG/1.1/DTD/svg11.dtd">
<!-- Generated by graphviz version 2.40.1 (20161225.0304)
 -->
<!-- Title: /Users/Claudio/GitHub/bayes&#45;filters&#45;lib/src/BayesFilters/src/LinearModel.cpp Pages: 1 -->
<svg width="728pt" height="462pt"
 viewBox="0.00 0.00 728.02 462.00" xmlns="http://www.w3.org/2000/svg" xmlns:xlink="http://www.w3.org/1999/xlink">
<g id="graph0" class="graph" transform="scale(1 1) rotate(0) translate(4 458)">
<title>/Users/Claudio/GitHub/bayes&#45;filters&#45;lib/src/BayesFilters/src/LinearModel.cpp</title>
<polygon fill="#ffffff" stroke="transparent" points="-4,4 -4,-458 724.0171,-458 724.0171,4 -4,4"/>
<!-- Node0 -->
<g id="node1" class="node">
<title>Node0</title>
<polygon fill="#bfbfbf" stroke="#000000" points="545.0938,-415.5 545.0938,-453.5 711.709,-453.5 711.709,-415.5 545.0938,-415.5"/>
<text text-anchor="start" x="553.0938" y="-441.5" font-family="Helvetica,sans-Serif" font-size="10.00" fill="#000000">/Users/Claudio/GitHub</text>
<text text-anchor="start" x="553.0938" y="-431.5" font-family="Helvetica,sans-Serif" font-size="10.00" fill="#000000">/bayes&#45;filters&#45;lib/src</text>
<text text-anchor="middle" x="628.4014" y="-421.5" font-family="Helvetica,sans-Serif" font-size="10.00" fill="#000000">/BayesFilters/src/LinearModel.cpp</text>
</g>
<!-- Node1 -->
<g id="node2" class="node">
<title>Node1</title>
<g id="a_node2"><a xlink:href="LinearModel_8h.html" target="_top" xlink:title="BayesFilters/LinearModel.h">
<polygon fill="#ffffff" stroke="#000000" points="346.8179,-360.5 346.8179,-378.5 483.9849,-378.5 483.9849,-360.5 346.8179,-360.5"/>
<text text-anchor="middle" x="415.4014" y="-366.5" font-family="Helvetica,sans-Serif" font-size="10.00" fill="#000000">BayesFilters/LinearModel.h</text>
</a>
</g>
</g>
<!-- Node0&#45;&gt;Node1 -->
<g id="edge1" class="edge">
<title>Node0&#45;&gt;Node1</title>
<path fill="none" stroke="#191970" d="M565.9335,-415.437C529.9344,-404.4514 485.7886,-390.9797 454.639,-381.4739"/>
<polygon fill="#191970" stroke="#191970" points="455.5951,-378.1064 445.0089,-378.5352 453.5519,-384.8016 455.5951,-378.1064"/>
</g>
<!-- Node14 -->
<g id="node15" class="node">
<title>Node14</title>
<polygon fill="#ffffff" stroke="#bfbfbf" points="604.229,-55.5 604.229,-73.5 658.5737,-73.5 658.5737,-55.5 604.229,-55.5"/>
<text text-anchor="middle" x="631.4014" y="-61.5" font-family="Helvetica,sans-Serif" font-size="10.00" fill="#000000">iostream</text>
</g>
<!-- Node0&#45;&gt;Node14 -->
<g id="edge27" class="edge">
<title>Node0&#45;&gt;Node14</title>
<path fill="none" stroke="#191970" d="M633.4482,-415.1669C639.373,-390.734 648.4014,-347.3011 648.4014,-309.5 648.4014,-309.5 648.4014,-309.5 648.4014,-179.5 648.4014,-145.4874 641.034,-106.4187 635.9994,-83.6909"/>
<polygon fill="#191970" stroke="#191970" points="639.3477,-82.6342 633.6941,-73.6739 632.526,-84.2042 639.3477,-82.6342"/>
</g>
<!-- Node17 -->
<g id="node18" class="node">
<title>Node17</title>
<polygon fill="#ffffff" stroke="#bfbfbf" points="582.0098,-110.5 582.0098,-128.5 620.793,-128.5 620.793,-110.5 582.0098,-110.5"/>
<text text-anchor="middle" x="601.4014" y="-116.5" font-family="Helvetica,sans-Serif" font-size="10.00" fill="#000000">utility</text>
</g>
<!-- Node0&#45;&gt;Node17 -->
<g id="edge28" class="edge">
<title>Node0&#45;&gt;Node17</title>
<path fill="none" stroke="#191970" d="M622.5975,-415.216C615.7839,-390.8337 605.4014,-347.453 605.4014,-309.5 605.4014,-309.5 605.4014,-309.5 605.4014,-244.5 605.4014,-207.012 603.5819,-163.2323 602.3972,-138.6997"/>
<polygon fill="#191970" stroke="#191970" points="605.887,-138.4063 601.8918,-128.5936 598.8957,-138.7559 605.887,-138.4063"/>
</g>
<!-- Node21 -->
<g id="node22" class="node">
<title>Node21</title>
<polygon fill="#ffffff" stroke="#bfbfbf" points="676.7856,-360.5 676.7856,-378.5 720.0171,-378.5 720.0171,-360.5 676.7856,-360.5"/>
<text text-anchor="middle" x="698.4014" y="-366.5" font-family="Helvetica,sans-Serif" font-size="10.00" fill="#000000">cmath</text>
</g>
<!-- Node0&#45;&gt;Node21 -->
<g id="edge26" class="edge">
<title>Node0&#45;&gt;Node21</title>
<path fill="none" stroke="#191970" d="M649.0251,-415.3494C659.2333,-405.8704 671.4163,-394.5576 681.1264,-385.541"/>
<polygon fill="#191970" stroke="#191970" points="683.6573,-387.9672 688.6037,-378.5978 678.8941,-382.8376 683.6573,-387.9672"/>
</g>
<!-- Node2 -->
<g id="node3" class="node">
<title>Node2</title>
<g id="a_node3"><a xlink:href="LinearMeasurementModel_8h.html" target="_top" xlink:title="BayesFilters/LinearMeasurement\lModel.h">
<polygon fill="#ffffff" stroke="#000000" points="194.0371,-295.5 194.0371,-323.5 356.7656,-323.5 356.7656,-295.5 194.0371,-295.5"/>
<text text-anchor="start" x="202.0371" y="-311.5" font-family="Helvetica,sans-Serif" font-size="10.00" fill="#000000">BayesFilters/LinearMeasurement</text>
<text text-anchor="middle" x="275.4014" y="-301.5" font-family="Helvetica,sans-Serif" font-size="10.00" fill="#000000">Model.h</text>
</a>
</g>
</g>
<!-- Node1&#45;&gt;Node2 -->
<g id="edge2" class="edge">
<title>Node1&#45;&gt;Node2</title>
<path fill="none" stroke="#191970" d="M394.1384,-360.3873C373.8578,-351.6956 342.7419,-338.3602 317.4506,-327.5211"/>
<polygon fill="#191970" stroke="#191970" points="318.6476,-324.2263 308.0774,-323.504 315.8901,-330.6603 318.6476,-324.2263"/>
</g>
<!-- Node13 -->
<g id="node14" class="node">
<title>Node13</title>
<polygon fill="#ffffff" stroke="#bfbfbf" points="519.7314,-55.5 519.7314,-73.5 569.0713,-73.5 569.0713,-55.5 519.7314,-55.5"/>
<text text-anchor="middle" x="544.4014" y="-61.5" font-family="Helvetica,sans-Serif" font-size="10.00" fill="#000000">fstream</text>
</g>
<!-- Node1&#45;&gt;Node13 -->
<g id="edge22" class="edge">
<title>Node1&#45;&gt;Node13</title>
<path fill="none" stroke="#191970" d="M440.2518,-360.3794C480.2331,-343.9138 554.4014,-305.1901 554.4014,-244.5 554.4014,-244.5 554.4014,-244.5 554.4014,-179.5 554.4014,-145.7261 550.0676,-106.5818 547.1061,-83.7745"/>
<polygon fill="#191970" stroke="#191970" points="550.5551,-83.1609 545.75,-73.7184 543.6179,-84.0964 550.5551,-83.1609"/>
</g>
<!-- Node15 -->
<g id="node16" class="node">
<title>Node15</title>
<polygon fill="#ffffff" stroke="#bfbfbf" points="366.1748,-55.5 366.1748,-73.5 406.6279,-73.5 406.6279,-55.5 366.1748,-55.5"/>
<text text-anchor="middle" x="386.4014" y="-61.5" font-family="Helvetica,sans-Serif" font-size="10.00" fill="#000000">string</text>
</g>
<!-- Node1&#45;&gt;Node15 -->
<g id="edge25" class="edge">
<title>Node1&#45;&gt;Node15</title>
<path fill="none" stroke="#191970" d="M411.7285,-360.2622C403.925,-339.7748 386.4014,-288.8327 386.4014,-244.5 386.4014,-244.5 386.4014,-244.5 386.4014,-179.5 386.4014,-145.853 386.4014,-106.6686 386.4014,-83.819"/>
<polygon fill="#191970" stroke="#191970" points="389.9015,-83.742 386.4014,-73.742 382.9015,-83.7421 389.9015,-83.742"/>
</g>
<!-- Node19 -->
<g id="node20" class="node">
<title>Node19</title>
<polygon fill="#ffffff" stroke="#bfbfbf" points="413.9976,-300.5 413.9976,-318.5 472.8052,-318.5 472.8052,-300.5 413.9976,-300.5"/>
<text text-anchor="middle" x="443.4014" y="-306.5" font-family="Helvetica,sans-Serif" font-size="10.00" fill="#000000">functional</text>
</g>
<!-- Node1&#45;&gt;Node19 -->
<g id="edge23" class="edge">
<title>Node1&#45;&gt;Node19</title>
<path fill="none" stroke="#191970" d="M419.654,-360.3873C423.6421,-351.8412 429.7254,-338.8057 434.7363,-328.0679"/>
<polygon fill="#191970" stroke="#191970" points="438.0515,-329.2404 439.1087,-318.6985 431.7082,-326.2802 438.0515,-329.2404"/>
</g>
<!-- Node20 -->
<g id="node21" class="node">
<title>Node20</title>
<polygon fill="#ffffff" stroke="#bfbfbf" points="126.4482,-300.5 126.4482,-318.5 176.3545,-318.5 176.3545,-300.5 126.4482,-300.5"/>
<text text-anchor="middle" x="151.4014" y="-306.5" font-family="Helvetica,sans-Serif" font-size="10.00" fill="#000000">random</text>
</g>
<!-- Node1&#45;&gt;Node20 -->
<g id="edge24" class="edge">
<title>Node1&#45;&gt;Node20</title>
<path fill="none" stroke="#191970" d="M351.0623,-360.4456C304.4474,-353.0022 240.2446,-340.9175 185.4014,-324 183.7572,-323.4928 182.0845,-322.9328 180.4072,-322.3366"/>
<polygon fill="#191970" stroke="#191970" points="181.507,-319.009 170.9185,-318.6421 178.9671,-325.5319 181.507,-319.009"/>
</g>
<!-- Node3 -->
<g id="node4" class="node">
<title>Node3</title>
<g id="a_node4"><a xlink:href="AdditiveMeasurementModel_8h.html" target="_top" xlink:title="BayesFilters/AdditiveMeasurement\lModel.h">
<polygon fill="#ffffff" stroke="#000000" points="188.1479,-230.5 188.1479,-258.5 358.6548,-258.5 358.6548,-230.5 188.1479,-230.5"/>
<text text-anchor="start" x="196.1479" y="-246.5" font-family="Helvetica,sans-Serif" font-size="10.00" fill="#000000">BayesFilters/AdditiveMeasurement</text>
<text text-anchor="middle" x="273.4014" y="-236.5" font-family="Helvetica,sans-Serif" font-size="10.00" fill="#000000">Model.h</text>
</a>
</g>
</g>
<!-- Node2&#45;&gt;Node3 -->
<g id="edge3" class="edge">
<title>Node2&#45;&gt;Node3</title>
<path fill="none" stroke="#191970" d="M274.9674,-295.396C274.7289,-287.6448 274.4264,-277.8122 274.1509,-268.8601"/>
<polygon fill="#191970" stroke="#191970" points="277.6405,-268.4641 273.8345,-258.5765 270.6438,-268.6795 277.6405,-268.4641"/>
</g>
<!-- Node18 -->
<g id="node19" class="node">
<title>Node18</title>
<polygon fill="#ffffff" stroke="#bfbfbf" points="87.771,-110.5 87.771,-128.5 161.0317,-128.5 161.0317,-110.5 87.771,-110.5"/>
<text text-anchor="middle" x="124.4014" y="-116.5" font-family="Helvetica,sans-Serif" font-size="10.00" fill="#000000">Eigen/Dense</text>
</g>
<!-- Node2&#45;&gt;Node18 -->
<g id="edge21" class="edge">
<title>Node2&#45;&gt;Node18</title>
<path fill="none" stroke="#191970" d="M233.7569,-295.3013C215.0645,-287.1567 193.9862,-275.2632 179.4014,-259 147.7925,-223.7536 133.337,-168.1856 127.6151,-138.9556"/>
<polygon fill="#191970" stroke="#191970" points="131.005,-138.0327 125.7785,-128.8167 124.1171,-139.2805 131.005,-138.0327"/>
</g>
<!-- Node4 -->
<g id="node5" class="node">
<title>Node4</title>
<g id="a_node5"><a xlink:href="MeasurementModel_8h.html" target="_top" xlink:title="BayesFilters/Measurement\lModel.h">
<polygon fill="#ffffff" stroke="#000000" points="223.936,-165.5 223.936,-193.5 358.8667,-193.5 358.8667,-165.5 223.936,-165.5"/>
<text text-anchor="start" x="231.936" y="-181.5" font-family="Helvetica,sans-Serif" font-size="10.00" fill="#000000">BayesFilters/Measurement</text>
<text text-anchor="middle" x="291.4014" y="-171.5" font-family="Helvetica,sans-Serif" font-size="10.00" fill="#000000">Model.h</text>
</a>
</g>
</g>
<!-- Node3&#45;&gt;Node4 -->
<g id="edge4" class="edge">
<title>Node3&#45;&gt;Node4</title>
<path fill="none" stroke="#191970" d="M277.3071,-230.396C279.5007,-222.4745 282.2964,-212.379 284.8186,-203.2712"/>
<polygon fill="#191970" stroke="#191970" points="288.2075,-204.1479 287.5033,-193.5765 281.4613,-202.2797 288.2075,-204.1479"/>
</g>
<!-- Node5 -->
<g id="node6" class="node">
<title>Node5</title>
<g id="a_node6"><a xlink:href="Data_8h.html" target="_top" xlink:title="BayesFilters/Data.h">
<polygon fill="#ffffff" stroke="#000000" points="178.7734,-110.5 178.7734,-128.5 282.0293,-128.5 282.0293,-110.5 178.7734,-110.5"/>
<text text-anchor="middle" x="230.4014" y="-116.5" font-family="Helvetica,sans-Serif" font-size="10.00" fill="#000000">BayesFilters/Data.h</text>
</a>
</g>
</g>
<!-- Node4&#45;&gt;Node5 -->
<g id="edge5" class="edge">
<title>Node4&#45;&gt;Node5</title>
<path fill="none" stroke="#191970" d="M276.9452,-165.2808C267.9171,-156.4008 256.2673,-144.9419 246.8814,-135.7098"/>
<polygon fill="#191970" stroke="#191970" points="249.2206,-133.1014 239.637,-128.5842 244.3119,-138.0919 249.2206,-133.1014"/>
</g>
<!-- Node8 -->
<g id="node9" class="node">
<title>Node8</title>
<polygon fill="#ffffff" stroke="#bfbfbf" points="302.3447,-.5 302.3447,-18.5 354.458,-18.5 354.458,-.5 302.3447,-.5"/>
<text text-anchor="middle" x="328.4014" y="-6.5" font-family="Helvetica,sans-Serif" font-size="10.00" fill="#000000">memory</text>
</g>
<!-- Node4&#45;&gt;Node8 -->
<g id="edge17" class="edge">
<title>Node4&#45;&gt;Node8</title>
<path fill="none" stroke="#191970" d="M294.4923,-165.2983C301.1086,-134.8994 316.6504,-63.4909 324.1737,-28.9244"/>
<polygon fill="#191970" stroke="#191970" points="327.6864,-29.2423 326.3932,-18.7266 320.8465,-27.7535 327.6864,-29.2423"/>
</g>
<!-- Node12 -->
<g id="node13" class="node">
<title>Node12</title>
<g id="a_node13"><a xlink:href="Logger_8h.html" target="_top" xlink:title="BayesFilters/Logger.h">
<polygon fill="#ffffff" stroke="#000000" points="414.0396,-110.5 414.0396,-128.5 526.7632,-128.5 526.7632,-110.5 414.0396,-110.5"/>
<text text-anchor="middle" x="470.4014" y="-116.5" font-family="Helvetica,sans-Serif" font-size="10.00" fill="#000000">BayesFilters/Logger.h</text>
</a>
</g>
</g>
<!-- Node4&#45;&gt;Node12 -->
<g id="edge12" class="edge">
<title>Node4&#45;&gt;Node12</title>
<path fill="none" stroke="#191970" d="M333.3689,-165.4327C363.7802,-155.2389 404.5061,-141.5878 433.6409,-131.822"/>
<polygon fill="#191970" stroke="#191970" points="435.0577,-135.0385 443.4269,-128.5417 432.833,-128.4014 435.0577,-135.0385"/>
</g>
<!-- Node4&#45;&gt;Node15 -->
<g id="edge18" class="edge">
<title>Node4&#45;&gt;Node15</title>
<path fill="none" stroke="#191970" d="M303.0502,-165.3987C320.5358,-144.232 353.5176,-104.3067 372.3253,-81.5394"/>
<polygon fill="#191970" stroke="#191970" points="375.1072,-83.6674 378.7777,-73.7286 369.7105,-79.2092 375.1072,-83.6674"/>
</g>
<!-- Node4&#45;&gt;Node17 -->
<g id="edge19" class="edge">
<title>Node4&#45;&gt;Node17</title>
<path fill="none" stroke="#191970" d="M359.0491,-166.4069C425.4388,-153.5573 523.5737,-134.5634 572.0722,-125.1766"/>
<polygon fill="#191970" stroke="#191970" points="572.7614,-128.6083 581.9141,-123.2717 571.4312,-121.7358 572.7614,-128.6083"/>
</g>
<!-- Node4&#45;&gt;Node18 -->
<g id="edge20" class="edge">
<title>Node4&#45;&gt;Node18</title>
<path fill="none" stroke="#191970" d="M252.2473,-165.4327C224.0845,-155.3143 186.4403,-141.7895 159.3021,-132.0392"/>
<polygon fill="#191970" stroke="#191970" points="160.4106,-128.7185 149.8162,-128.6311 158.0437,-135.3062 160.4106,-128.7185"/>
</g>
<!-- Node6 -->
<g id="node7" class="node">
<title>Node6</title>
<g id="a_node7"><a xlink:href="any_8h.html" target="_top" xlink:title="BayesFilters/any.h">
<polygon fill="#ffffff" stroke="#000000" points="163.6421,-55.5 163.6421,-73.5 261.1606,-73.5 261.1606,-55.5 163.6421,-55.5"/>
<text text-anchor="middle" x="212.4014" y="-61.5" font-family="Helvetica,sans-Serif" font-size="10.00" fill="#000000">BayesFilters/any.h</text>
</a>
</g>
</g>
<!-- Node5&#45;&gt;Node6 -->
<g id="edge6" class="edge">
<title>Node5&#45;&gt;Node6</title>
<path fill="none" stroke="#191970" d="M227.429,-110.4179C225.0463,-103.1372 221.6203,-92.669 218.6411,-83.5659"/>
<polygon fill="#191970" stroke="#191970" points="221.8751,-82.1948 215.4383,-73.7795 215.2223,-84.3721 221.8751,-82.1948"/>
</g>
<!-- Node7 -->
<g id="node8" class="node">
<title>Node7</title>
<polygon fill="#ffffff" stroke="#bfbfbf" points="226.8374,-.5 226.8374,-18.5 283.9653,-18.5 283.9653,-.5 226.8374,-.5"/>
<text text-anchor="middle" x="255.4014" y="-6.5" font-family="Helvetica,sans-Serif" font-size="10.00" fill="#000000">algorithm</text>
</g>
<!-- Node6&#45;&gt;Node7 -->
<g id="edge7" class="edge">
<title>Node6&#45;&gt;Node7</title>
<path fill="none" stroke="#191970" d="M219.5019,-55.4179C225.5653,-47.6624 234.4565,-36.29 241.8732,-26.8035"/>
<polygon fill="#191970" stroke="#191970" points="244.7446,-28.8133 248.1465,-18.7795 239.2299,-24.5018 244.7446,-28.8133"/>
</g>
<!-- Node6&#45;&gt;Node8 -->
<g id="edge8" class="edge">
<title>Node6&#45;&gt;Node8</title>
<path fill="none" stroke="#191970" d="M231.5564,-55.4179C250.1948,-46.5807 278.738,-33.0473 300.015,-22.9591"/>
<polygon fill="#191970" stroke="#191970" points="301.6816,-26.0424 309.2179,-18.5956 298.6826,-19.7174 301.6816,-26.0424"/>
</g>
<!-- Node9 -->
<g id="node10" class="node">
<title>Node9</title>
<polygon fill="#ffffff" stroke="#bfbfbf" points="0,-.5 0,-18.5 58.8027,-18.5 58.8027,-.5 0,-.5"/>
<text text-anchor="middle" x="29.4014" y="-6.5" font-family="Helvetica,sans-Serif" font-size="10.00" fill="#000000">stdexcept</text>
</g>
<!-- Node6&#45;&gt;Node9 -->
<g id="edge9" class="edge">
<title>Node6&#45;&gt;Node9</title>
<path fill="none" stroke="#191970" d="M182.1826,-55.4179C151.1372,-46.0873 102.6725,-31.5214 68.6728,-21.3029"/>
<polygon fill="#191970" stroke="#191970" points="69.642,-17.9396 59.0578,-18.4131 67.6272,-24.6434 69.642,-17.9396"/>
</g>
<!-- Node10 -->
<g id="node11" class="node">
<title>Node10</title>
<polygon fill="#ffffff" stroke="#bfbfbf" points="76.8892,-.5 76.8892,-18.5 127.9136,-18.5 127.9136,-.5 76.8892,-.5"/>
<text text-anchor="middle" x="102.4014" y="-6.5" font-family="Helvetica,sans-Serif" font-size="10.00" fill="#000000">typeinfo</text>
</g>
<!-- Node6&#45;&gt;Node10 -->
<g id="edge10" class="edge">
<title>Node6&#45;&gt;Node10</title>
<path fill="none" stroke="#191970" d="M194.2371,-55.4179C176.6424,-46.6205 149.7396,-33.1691 129.5926,-23.0956"/>
<polygon fill="#191970" stroke="#191970" points="131.1022,-19.9373 120.5926,-18.5956 127.9716,-26.1983 131.1022,-19.9373"/>
</g>
<!-- Node11 -->
<g id="node12" class="node">
<title>Node11</title>
<polygon fill="#ffffff" stroke="#bfbfbf" points="146.335,-.5 146.335,-18.5 208.4678,-18.5 208.4678,-.5 146.335,-.5"/>
<text text-anchor="middle" x="177.4014" y="-6.5" font-family="Helvetica,sans-Serif" font-size="10.00" fill="#000000">type_traits</text>
</g>
<!-- Node6&#45;&gt;Node11 -->
<g id="edge11" class="edge">
<title>Node6&#45;&gt;Node11</title>
<path fill="none" stroke="#191970" d="M206.6218,-55.4179C201.7872,-47.8207 194.744,-36.7527 188.7838,-27.3866"/>
<polygon fill="#191970" stroke="#191970" points="191.6281,-25.337 183.3065,-18.7795 185.7225,-29.0952 191.6281,-25.337"/>
</g>
<!-- Node12&#45;&gt;Node13 -->
<g id="edge13" class="edge">
<title>Node12&#45;&gt;Node13</title>
<path fill="none" stroke="#191970" d="M482.621,-110.4179C493.8683,-102.0584 510.7695,-89.4966 524.0528,-79.6239"/>
<polygon fill="#191970" stroke="#191970" points="526.2255,-82.37 532.1636,-73.5956 522.0498,-76.7518 526.2255,-82.37"/>
</g>
<!-- Node12&#45;&gt;Node14 -->
<g id="edge14" class="edge">
<title>Node12&#45;&gt;Node14</title>
<path fill="none" stroke="#191970" d="M496.9872,-110.4179C523.8685,-101.2348 565.5941,-86.9807 595.4226,-76.7909"/>
<polygon fill="#191970" stroke="#191970" points="596.712,-80.0491 605.0436,-73.5042 594.449,-73.4249 596.712,-80.0491"/>
</g>
<!-- Node12&#45;&gt;Node15 -->
<g id="edge15" class="edge">
<title>Node12&#45;&gt;Node15</title>
<path fill="none" stroke="#191970" d="M456.5305,-110.4179C443.6417,-101.9788 424.212,-89.257 409.07,-79.3426"/>
<polygon fill="#191970" stroke="#191970" points="410.5763,-76.1454 400.2929,-73.5956 406.7418,-82.0017 410.5763,-76.1454"/>
</g>
<!-- Node16 -->
<g id="node17" class="node">
<title>Node16</title>
<polygon fill="#ffffff" stroke="#bfbfbf" points="448.7856,-55.5 448.7856,-73.5 492.0171,-73.5 492.0171,-55.5 448.7856,-55.5"/>
<text text-anchor="middle" x="470.4014" y="-61.5" font-family="Helvetica,sans-Serif" font-size="10.00" fill="#000000">vector</text>
</g>
<!-- Node12&#45;&gt;Node16 -->
<g id="edge16" class="edge">
<title>Node12&#45;&gt;Node16</title>
<path fill="none" stroke="#191970" d="M470.4014,-110.4179C470.4014,-103.2164 470.4014,-92.8962 470.4014,-83.8632"/>
<polygon fill="#191970" stroke="#191970" points="473.9015,-83.7794 470.4014,-73.7795 466.9015,-83.7795 473.9015,-83.7794"/>
</g>
</g>
</svg>
