<?xml version="1.0" encoding="UTF-8" standalone="no"?>
<!DOCTYPE svg PUBLIC "-//W3C//DTD SVG 1.1//EN"
 "http://www.w3.org/Graphics/SVG/1.1/DTD/svg11.dtd">
<!-- Generated by graphviz version 2.40.1 (20161225.0304)
 -->
<!-- Title: /Users/Claudio/GitHub/bayes&#45;filters&#45;lib/src/BayesFilters/include/BayesFilters/LinearMeasurementModel.h Pages: 1 -->
<svg width="838pt" height="312pt"
 viewBox="0.00 0.00 838.05 312.00" xmlns="http://www.w3.org/2000/svg" xmlns:xlink="http://www.w3.org/1999/xlink">
<g id="graph0" class="graph" transform="scale(1 1) rotate(0) translate(4 308)">
<title>/Users/Claudio/GitHub/bayes&#45;filters&#45;lib/src/BayesFilters/include/BayesFilters/LinearMeasurementModel.h</title>
<polygon fill="#ffffff" stroke="transparent" points="-4,4 -4,-308 834.0513,-308 834.0513,4 -4,4"/>
<!-- Node17 -->
<g id="node1" class="node">
<title>Node17</title>
<polygon fill="#bfbfbf" stroke="#000000" points="372.2168,-255.5 372.2168,-303.5 538.2705,-303.5 538.2705,-255.5 372.2168,-255.5"/>
<text text-anchor="start" x="380.2168" y="-291.5" font-family="Helvetica,sans-Serif" font-size="10.00" fill="#000000">/Users/Claudio/GitHub</text>
<text text-anchor="start" x="380.2168" y="-281.5" font-family="Helvetica,sans-Serif" font-size="10.00" fill="#000000">/bayes&#45;filters&#45;lib/src</text>
<text text-anchor="start" x="380.2168" y="-271.5" font-family="Helvetica,sans-Serif" font-size="10.00" fill="#000000">/BayesFilters/include/BayesFilters</text>
<text text-anchor="middle" x="455.2437" y="-261.5" font-family="Helvetica,sans-Serif" font-size="10.00" fill="#000000">/LinearMeasurementModel.h</text>
</g>
<!-- Node18 -->
<g id="node2" class="node">
<title>Node18</title>
<g id="a_node2"><a xlink:href="KFCorrection_8h.html" target="_top" xlink:title="/Users/Claudio/GitHub\l/bayes&#45;filters&#45;lib/src\l/BayesFilters/include/BayesFilters\l/KFCorrection.h">
<polygon fill="#ffffff" stroke="#000000" points="95.2168,-170.5 95.2168,-218.5 261.2705,-218.5 261.2705,-170.5 95.2168,-170.5"/>
<text text-anchor="start" x="103.2168" y="-206.5" font-family="Helvetica,sans-Serif" font-size="10.00" fill="#000000">/Users/Claudio/GitHub</text>
<text text-anchor="start" x="103.2168" y="-196.5" font-family="Helvetica,sans-Serif" font-size="10.00" fill="#000000">/bayes&#45;filters&#45;lib/src</text>
<text text-anchor="start" x="103.2168" y="-186.5" font-family="Helvetica,sans-Serif" font-size="10.00" fill="#000000">/BayesFilters/include/BayesFilters</text>
<text text-anchor="middle" x="178.2437" y="-176.5" font-family="Helvetica,sans-Serif" font-size="10.00" fill="#000000">/KFCorrection.h</text>
</a>
</g>
</g>
<!-- Node17&#45;&gt;Node18 -->
<g id="edge1" class="edge">
<title>Node17&#45;&gt;Node18</title>
<path fill="none" stroke="#191970" d="M367.1308,-252.4618C331.7091,-241.5923 291.1962,-229.1605 256.7967,-218.6047"/>
<polygon fill="#191970" stroke="#191970" points="366.3905,-255.8956 376.9773,-255.4832 368.444,-249.2036 366.3905,-255.8956"/>
</g>
<!-- Node20 -->
<g id="node4" class="node">
<title>Node20</title>
<g id="a_node4"><a xlink:href="LinearModel_8h.html" target="_top" xlink:title="/Users/Claudio/GitHub\l/bayes&#45;filters&#45;lib/src\l/BayesFilters/include/BayesFilters\l/LinearModel.h">
<polygon fill="#ffffff" stroke="#000000" points="280.2168,-170.5 280.2168,-218.5 446.2705,-218.5 446.2705,-170.5 280.2168,-170.5"/>
<text text-anchor="start" x="288.2168" y="-206.5" font-family="Helvetica,sans-Serif" font-size="10.00" fill="#000000">/Users/Claudio/GitHub</text>
<text text-anchor="start" x="288.2168" y="-196.5" font-family="Helvetica,sans-Serif" font-size="10.00" fill="#000000">/bayes&#45;filters&#45;lib/src</text>
<text text-anchor="start" x="288.2168" y="-186.5" font-family="Helvetica,sans-Serif" font-size="10.00" fill="#000000">/BayesFilters/include/BayesFilters</text>
<text text-anchor="middle" x="363.2437" y="-176.5" font-family="Helvetica,sans-Serif" font-size="10.00" fill="#000000">/LinearModel.h</text>
</a>
</g>
</g>
<!-- Node17&#45;&gt;Node20 -->
<g id="edge3" class="edge">
<title>Node17&#45;&gt;Node20</title>
<path fill="none" stroke="#191970" d="M421.6037,-248.4196C410.9937,-238.6169 399.4361,-227.9387 389.4264,-218.6906"/>
<polygon fill="#191970" stroke="#191970" points="419.4061,-251.1544 429.1262,-255.3698 424.1564,-246.0129 419.4061,-251.1544"/>
</g>
<!-- Node24 -->
<g id="node8" class="node">
<title>Node24</title>
<g id="a_node8"><a xlink:href="LTIMeasurementModel_8h.html" target="_top" xlink:title="/Users/Claudio/GitHub\l/bayes&#45;filters&#45;lib/src\l/BayesFilters/include/BayesFilters\l/LTIMeasurementModel.h">
<polygon fill="#ffffff" stroke="#000000" points="464.2168,-170.5 464.2168,-218.5 630.2705,-218.5 630.2705,-170.5 464.2168,-170.5"/>
<text text-anchor="start" x="472.2168" y="-206.5" font-family="Helvetica,sans-Serif" font-size="10.00" fill="#000000">/Users/Claudio/GitHub</text>
<text text-anchor="start" x="472.2168" y="-196.5" font-family="Helvetica,sans-Serif" font-size="10.00" fill="#000000">/bayes&#45;filters&#45;lib/src</text>
<text text-anchor="start" x="472.2168" y="-186.5" font-family="Helvetica,sans-Serif" font-size="10.00" fill="#000000">/BayesFilters/include/BayesFilters</text>
<text text-anchor="middle" x="547.2437" y="-176.5" font-family="Helvetica,sans-Serif" font-size="10.00" fill="#000000">/LTIMeasurementModel.h</text>
</a>
</g>
</g>
<!-- Node17&#45;&gt;Node24 -->
<g id="edge7" class="edge">
<title>Node17&#45;&gt;Node24</title>
<path fill="none" stroke="#191970" d="M488.8836,-248.4196C499.4936,-238.6169 511.0512,-227.9387 521.0609,-218.6906"/>
<polygon fill="#191970" stroke="#191970" points="486.3309,-246.0129 481.3611,-255.3698 491.0812,-251.1544 486.3309,-246.0129"/>
</g>
<!-- Node26 -->
<g id="node10" class="node">
<title>Node26</title>
<g id="a_node10"><a xlink:href="LinearMeasurementModel_8cpp.html" target="_top" xlink:title="/Users/Claudio/GitHub\l/bayes&#45;filters&#45;lib/src\l/BayesFilters/src/LinearMeasurement\lModel.cpp">
<polygon fill="#ffffff" stroke="#000000" points="648.436,-170.5 648.436,-218.5 830.0513,-218.5 830.0513,-170.5 648.436,-170.5"/>
<text text-anchor="start" x="656.436" y="-206.5" font-family="Helvetica,sans-Serif" font-size="10.00" fill="#000000">/Users/Claudio/GitHub</text>
<text text-anchor="start" x="656.436" y="-196.5" font-family="Helvetica,sans-Serif" font-size="10.00" fill="#000000">/bayes&#45;filters&#45;lib/src</text>
<text text-anchor="start" x="656.436" y="-186.5" font-family="Helvetica,sans-Serif" font-size="10.00" fill="#000000">/BayesFilters/src/LinearMeasurement</text>
<text text-anchor="middle" x="739.2437" y="-176.5" font-family="Helvetica,sans-Serif" font-size="10.00" fill="#000000">Model.cpp</text>
</a>
</g>
</g>
<!-- Node17&#45;&gt;Node26 -->
<g id="edge9" class="edge">
<title>Node17&#45;&gt;Node26</title>
<path fill="none" stroke="#191970" d="M545.1178,-252.601C581.5449,-241.6986 623.286,-229.2056 658.7055,-218.6047"/>
<polygon fill="#191970" stroke="#191970" points="544.0644,-249.2628 535.4879,-255.4832 546.0716,-255.9689 544.0644,-249.2628"/>
</g>
<!-- Node19 -->
<g id="node3" class="node">
<title>Node19</title>
<g id="a_node3"><a xlink:href="KFCorrection_8cpp.html" target="_top" xlink:title="/Users/Claudio/GitHub\l/bayes&#45;filters&#45;lib/src\l/BayesFilters/src/KFCorrection.cpp">
<polygon fill="#ffffff" stroke="#000000" points="0,-90.5 0,-128.5 170.4873,-128.5 170.4873,-90.5 0,-90.5"/>
<text text-anchor="start" x="8" y="-116.5" font-family="Helvetica,sans-Serif" font-size="10.00" fill="#000000">/Users/Claudio/GitHub</text>
<text text-anchor="start" x="8" y="-106.5" font-family="Helvetica,sans-Serif" font-size="10.00" fill="#000000">/bayes&#45;filters&#45;lib/src</text>
<text text-anchor="middle" x="85.2437" y="-96.5" font-family="Helvetica,sans-Serif" font-size="10.00" fill="#000000">/BayesFilters/src/KFCorrection.cpp</text>
</a>
</g>
</g>
<!-- Node18&#45;&gt;Node19 -->
<g id="edge2" class="edge">
<title>Node18&#45;&gt;Node19</title>
<path fill="none" stroke="#191970" d="M144.1178,-163.3097C131.3736,-151.6617 117.2919,-138.7914 106.0966,-128.5591"/>
<polygon fill="#191970" stroke="#191970" points="142.0996,-166.2068 151.8423,-170.3698 146.8222,-161.0398 142.0996,-166.2068"/>
</g>
<!-- Node21 -->
<g id="node5" class="node">
<title>Node21</title>
<g id="a_node5"><a xlink:href="SimulatedLinearSensor_8h.html" target="_top" xlink:title="/Users/Claudio/GitHub\l/bayes&#45;filters&#45;lib/src\l/BayesFilters/include/BayesFilters\l/SimulatedLinearSensor.h">
<polygon fill="#ffffff" stroke="#000000" points="188.2168,-85.5 188.2168,-133.5 354.2705,-133.5 354.2705,-85.5 188.2168,-85.5"/>
<text text-anchor="start" x="196.2168" y="-121.5" font-family="Helvetica,sans-Serif" font-size="10.00" fill="#000000">/Users/Claudio/GitHub</text>
<text text-anchor="start" x="196.2168" y="-111.5" font-family="Helvetica,sans-Serif" font-size="10.00" fill="#000000">/bayes&#45;filters&#45;lib/src</text>
<text text-anchor="start" x="196.2168" y="-101.5" font-family="Helvetica,sans-Serif" font-size="10.00" fill="#000000">/BayesFilters/include/BayesFilters</text>
<text text-anchor="middle" x="271.2437" y="-91.5" font-family="Helvetica,sans-Serif" font-size="10.00" fill="#000000">/SimulatedLinearSensor.h</text>
</a>
</g>
</g>
<!-- Node20&#45;&gt;Node21 -->
<g id="edge4" class="edge">
<title>Node20&#45;&gt;Node21</title>
<path fill="none" stroke="#191970" d="M329.6037,-163.4196C318.9937,-153.6169 307.4361,-142.9387 297.4264,-133.6906"/>
<polygon fill="#191970" stroke="#191970" points="327.4061,-166.1544 337.1262,-170.3698 332.1564,-161.0129 327.4061,-166.1544"/>
</g>
<!-- Node23 -->
<g id="node7" class="node">
<title>Node23</title>
<g id="a_node7"><a xlink:href="LinearModel_8cpp.html" target="_top" xlink:title="/Users/Claudio/GitHub\l/bayes&#45;filters&#45;lib/src\l/BayesFilters/src/LinearModel.cpp">
<polygon fill="#ffffff" stroke="#000000" points="371.936,-90.5 371.936,-128.5 538.5513,-128.5 538.5513,-90.5 371.936,-90.5"/>
<text text-anchor="start" x="379.936" y="-116.5" font-family="Helvetica,sans-Serif" font-size="10.00" fill="#000000">/Users/Claudio/GitHub</text>
<text text-anchor="start" x="379.936" y="-106.5" font-family="Helvetica,sans-Serif" font-size="10.00" fill="#000000">/bayes&#45;filters&#45;lib/src</text>
<text text-anchor="middle" x="455.2437" y="-96.5" font-family="Helvetica,sans-Serif" font-size="10.00" fill="#000000">/BayesFilters/src/LinearModel.cpp</text>
</a>
</g>
</g>
<!-- Node20&#45;&gt;Node23 -->
<g id="edge6" class="edge">
<title>Node20&#45;&gt;Node23</title>
<path fill="none" stroke="#191970" d="M397.0025,-163.3097C409.6098,-151.6617 423.54,-138.7914 434.615,-128.5591"/>
<polygon fill="#191970" stroke="#191970" points="394.3309,-161.0129 389.3611,-170.3698 399.0812,-166.1544 394.3309,-161.0129"/>
</g>
<!-- Node22 -->
<g id="node6" class="node">
<title>Node22</title>
<g id="a_node6"><a xlink:href="SimulatedLinearSensor_8cpp.html" target="_top" xlink:title="/Users/Claudio/GitHub\l/bayes&#45;filters&#45;lib/src\l/BayesFilters/src/SimulatedLinear\lSensor.cpp">
<polygon fill="#ffffff" stroke="#000000" points="188.771,-.5 188.771,-48.5 353.7163,-48.5 353.7163,-.5 188.771,-.5"/>
<text text-anchor="start" x="196.771" y="-36.5" font-family="Helvetica,sans-Serif" font-size="10.00" fill="#000000">/Users/Claudio/GitHub</text>
<text text-anchor="start" x="196.771" y="-26.5" font-family="Helvetica,sans-Serif" font-size="10.00" fill="#000000">/bayes&#45;filters&#45;lib/src</text>
<text text-anchor="start" x="196.771" y="-16.5" font-family="Helvetica,sans-Serif" font-size="10.00" fill="#000000">/BayesFilters/src/SimulatedLinear</text>
<text text-anchor="middle" x="271.2437" y="-6.5" font-family="Helvetica,sans-Serif" font-size="10.00" fill="#000000">Sensor.cpp</text>
</a>
</g>
</g>
<!-- Node21&#45;&gt;Node22 -->
<g id="edge5" class="edge">
<title>Node21&#45;&gt;Node22</title>
<path fill="none" stroke="#191970" d="M271.2437,-75.2518C271.2437,-66.3524 271.2437,-56.951 271.2437,-48.6906"/>
<polygon fill="#191970" stroke="#191970" points="267.7438,-75.3697 271.2437,-85.3698 274.7438,-75.3698 267.7438,-75.3697"/>
</g>
<!-- Node25 -->
<g id="node9" class="node">
<title>Node25</title>
<g id="a_node9"><a xlink:href="LTIMeasurementModel_8cpp.html" target="_top" xlink:title="/Users/Claudio/GitHub\l/bayes&#45;filters&#45;lib/src\l/BayesFilters/src/LTIMeasurement\lModel.cpp">
<polygon fill="#ffffff" stroke="#000000" points="556.4795,-85.5 556.4795,-133.5 724.0078,-133.5 724.0078,-85.5 556.4795,-85.5"/>
<text text-anchor="start" x="564.4795" y="-121.5" font-family="Helvetica,sans-Serif" font-size="10.00" fill="#000000">/Users/Claudio/GitHub</text>
<text text-anchor="start" x="564.4795" y="-111.5" font-family="Helvetica,sans-Serif" font-size="10.00" fill="#000000">/bayes&#45;filters&#45;lib/src</text>
<text text-anchor="start" x="564.4795" y="-101.5" font-family="Helvetica,sans-Serif" font-size="10.00" fill="#000000">/BayesFilters/src/LTIMeasurement</text>
<text text-anchor="middle" x="640.2437" y="-91.5" font-family="Helvetica,sans-Serif" font-size="10.00" fill="#000000">Model.cpp</text>
</a>
</g>
</g>
<!-- Node24&#45;&gt;Node25 -->
<g id="edge8" class="edge">
<title>Node24&#45;&gt;Node25</title>
<path fill="none" stroke="#191970" d="M581.2493,-163.4196C591.9746,-153.6169 603.6578,-142.9387 613.7763,-133.6906"/>
<polygon fill="#191970" stroke="#191970" points="578.6651,-161.0398 573.645,-170.3698 583.3877,-166.2068 578.6651,-161.0398"/>
</g>
</g>
</svg>
