<?xml version="1.0" encoding="UTF-8" standalone="no"?>
<!DOCTYPE svg PUBLIC "-//W3C//DTD SVG 1.1//EN"
 "http://www.w3.org/Graphics/SVG/1.1/DTD/svg11.dtd">
<!-- Generated by graphviz version 2.40.1 (20161225.0304)
 -->
<!-- Title: /Users/Claudio/GitHub/bayes&#45;filters&#45;lib/src/BayesFilters/include/BayesFilters/LinearStateModel.h Pages: 1 -->
<svg width="757pt" height="217pt"
 viewBox="0.00 0.00 757.40 217.00" xmlns="http://www.w3.org/2000/svg" xmlns:xlink="http://www.w3.org/1999/xlink">
<g id="graph0" class="graph" transform="scale(1 1) rotate(0) translate(4 213)">
<title>/Users/Claudio/GitHub/bayes&#45;filters&#45;lib/src/BayesFilters/include/BayesFilters/LinearStateModel.h</title>
<polygon fill="#ffffff" stroke="transparent" points="-4,4 -4,-213 753.396,-213 753.396,4 -4,4"/>
<!-- Node4 -->
<g id="node1" class="node">
<title>Node4</title>
<polygon fill="#bfbfbf" stroke="#000000" points="283.3867,-160.5 283.3867,-208.5 449.4404,-208.5 449.4404,-160.5 283.3867,-160.5"/>
<text text-anchor="start" x="291.3867" y="-196.5" font-family="Helvetica,sans-Serif" font-size="10.00" fill="#000000">/Users/Claudio/GitHub</text>
<text text-anchor="start" x="291.3867" y="-186.5" font-family="Helvetica,sans-Serif" font-size="10.00" fill="#000000">/bayes&#45;filters&#45;lib/src</text>
<text text-anchor="start" x="291.3867" y="-176.5" font-family="Helvetica,sans-Serif" font-size="10.00" fill="#000000">/BayesFilters/include/BayesFilters</text>
<text text-anchor="middle" x="366.4136" y="-166.5" font-family="Helvetica,sans-Serif" font-size="10.00" fill="#000000">/LinearStateModel.h</text>
</g>
<!-- Node5 -->
<g id="node2" class="node">
<title>Node5</title>
<g id="a_node2"><a xlink:href="KFPrediction_8h.html" target="_top" xlink:title="/Users/Claudio/GitHub\l/bayes&#45;filters&#45;lib/src\l/BayesFilters/include/BayesFilters\l/KFPrediction.h">
<polygon fill="#ffffff" stroke="#000000" points="4.3867,-75.5 4.3867,-123.5 170.4404,-123.5 170.4404,-75.5 4.3867,-75.5"/>
<text text-anchor="start" x="12.3867" y="-111.5" font-family="Helvetica,sans-Serif" font-size="10.00" fill="#000000">/Users/Claudio/GitHub</text>
<text text-anchor="start" x="12.3867" y="-101.5" font-family="Helvetica,sans-Serif" font-size="10.00" fill="#000000">/bayes&#45;filters&#45;lib/src</text>
<text text-anchor="start" x="12.3867" y="-91.5" font-family="Helvetica,sans-Serif" font-size="10.00" fill="#000000">/BayesFilters/include/BayesFilters</text>
<text text-anchor="middle" x="87.4136" y="-81.5" font-family="Helvetica,sans-Serif" font-size="10.00" fill="#000000">/KFPrediction.h</text>
</a>
</g>
</g>
<!-- Node4&#45;&gt;Node5 -->
<g id="edge1" class="edge">
<title>Node4&#45;&gt;Node5</title>
<path fill="none" stroke="#191970" d="M277.6646,-157.4618C241.9871,-146.5923 201.1816,-134.1605 166.5338,-123.6047"/>
<polygon fill="#191970" stroke="#191970" points="276.9961,-160.9169 287.5821,-160.4832 279.0362,-154.2208 276.9961,-160.9169"/>
</g>
<!-- Node7 -->
<g id="node4" class="node">
<title>Node7</title>
<g id="a_node4"><a xlink:href="LTIStateModel_8h.html" target="_top" xlink:title="/Users/Claudio/GitHub\l/bayes&#45;filters&#45;lib/src\l/BayesFilters/include/BayesFilters\l/LTIStateModel.h">
<polygon fill="#ffffff" stroke="#000000" points="191.3867,-75.5 191.3867,-123.5 357.4404,-123.5 357.4404,-75.5 191.3867,-75.5"/>
<text text-anchor="start" x="199.3867" y="-111.5" font-family="Helvetica,sans-Serif" font-size="10.00" fill="#000000">/Users/Claudio/GitHub</text>
<text text-anchor="start" x="199.3867" y="-101.5" font-family="Helvetica,sans-Serif" font-size="10.00" fill="#000000">/bayes&#45;filters&#45;lib/src</text>
<text text-anchor="start" x="199.3867" y="-91.5" font-family="Helvetica,sans-Serif" font-size="10.00" fill="#000000">/BayesFilters/include/BayesFilters</text>
<text text-anchor="middle" x="274.4136" y="-81.5" font-family="Helvetica,sans-Serif" font-size="10.00" fill="#000000">/LTIStateModel.h</text>
</a>
</g>
</g>
<!-- Node4&#45;&gt;Node7 -->
<g id="edge3" class="edge">
<title>Node4&#45;&gt;Node7</title>
<path fill="none" stroke="#191970" d="M332.7736,-153.4196C322.1636,-143.6169 310.606,-132.9387 300.5963,-123.6906"/>
<polygon fill="#191970" stroke="#191970" points="330.576,-156.1544 340.2962,-160.3698 335.3263,-151.0129 330.576,-156.1544"/>
</g>
<!-- Node9 -->
<g id="node6" class="node">
<title>Node9</title>
<g id="a_node6"><a xlink:href="WhiteNoiseAcceleration_8h.html" target="_top" xlink:title="/Users/Claudio/GitHub\l/bayes&#45;filters&#45;lib/src\l/BayesFilters/include/BayesFilters\l/WhiteNoiseAcceleration.h">
<polygon fill="#ffffff" stroke="#000000" points="375.3867,-75.5 375.3867,-123.5 541.4404,-123.5 541.4404,-75.5 375.3867,-75.5"/>
<text text-anchor="start" x="383.3867" y="-111.5" font-family="Helvetica,sans-Serif" font-size="10.00" fill="#000000">/Users/Claudio/GitHub</text>
<text text-anchor="start" x="383.3867" y="-101.5" font-family="Helvetica,sans-Serif" font-size="10.00" fill="#000000">/bayes&#45;filters&#45;lib/src</text>
<text text-anchor="start" x="383.3867" y="-91.5" font-family="Helvetica,sans-Serif" font-size="10.00" fill="#000000">/BayesFilters/include/BayesFilters</text>
<text text-anchor="middle" x="458.4136" y="-81.5" font-family="Helvetica,sans-Serif" font-size="10.00" fill="#000000">/WhiteNoiseAcceleration.h</text>
</a>
</g>
</g>
<!-- Node4&#45;&gt;Node9 -->
<g id="edge5" class="edge">
<title>Node4&#45;&gt;Node9</title>
<path fill="none" stroke="#191970" d="M400.0536,-153.4196C410.6635,-143.6169 422.2211,-132.9387 432.2308,-123.6906"/>
<polygon fill="#191970" stroke="#191970" points="397.5008,-151.0129 392.531,-160.3698 402.2511,-156.1544 397.5008,-151.0129"/>
</g>
<!-- Node11 -->
<g id="node8" class="node">
<title>Node11</title>
<g id="a_node8"><a xlink:href="LinearStateModel_8cpp.html" target="_top" xlink:title="/Users/Claudio/GitHub\l/bayes&#45;filters&#45;lib/src\l/BayesFilters/src/LinearStateModel.cpp">
<polygon fill="#ffffff" stroke="#000000" points="559.4312,-80.5 559.4312,-118.5 749.396,-118.5 749.396,-80.5 559.4312,-80.5"/>
<text text-anchor="start" x="567.4312" y="-106.5" font-family="Helvetica,sans-Serif" font-size="10.00" fill="#000000">/Users/Claudio/GitHub</text>
<text text-anchor="start" x="567.4312" y="-96.5" font-family="Helvetica,sans-Serif" font-size="10.00" fill="#000000">/bayes&#45;filters&#45;lib/src</text>
<text text-anchor="middle" x="654.4136" y="-86.5" font-family="Helvetica,sans-Serif" font-size="10.00" fill="#000000">/BayesFilters/src/LinearStateModel.cpp</text>
</a>
</g>
</g>
<!-- Node4&#45;&gt;Node11 -->
<g id="edge7" class="edge">
<title>Node4&#45;&gt;Node11</title>
<path fill="none" stroke="#191970" d="M457.4031,-157.6454C500.3697,-144.9643 550.6544,-130.1234 589.6672,-118.6092"/>
<polygon fill="#191970" stroke="#191970" points="456.3882,-154.2956 447.788,-160.4832 458.3698,-161.0093 456.3882,-154.2956"/>
</g>
<!-- Node6 -->
<g id="node3" class="node">
<title>Node6</title>
<g id="a_node3"><a xlink:href="KFPrediction_8cpp.html" target="_top" xlink:title="/Users/Claudio/GitHub\l/bayes&#45;filters&#45;lib/src\l/BayesFilters/src/KFPrediction.cpp">
<polygon fill="#ffffff" stroke="#000000" points="0,-.5 0,-38.5 168.8271,-38.5 168.8271,-.5 0,-.5"/>
<text text-anchor="start" x="8" y="-26.5" font-family="Helvetica,sans-Serif" font-size="10.00" fill="#000000">/Users/Claudio/GitHub</text>
<text text-anchor="start" x="8" y="-16.5" font-family="Helvetica,sans-Serif" font-size="10.00" fill="#000000">/bayes&#45;filters&#45;lib/src</text>
<text text-anchor="middle" x="84.4136" y="-6.5" font-family="Helvetica,sans-Serif" font-size="10.00" fill="#000000">/BayesFilters/src/KFPrediction.cpp</text>
</a>
</g>
</g>
<!-- Node5&#45;&gt;Node6 -->
<g id="edge2" class="edge">
<title>Node5&#45;&gt;Node6</title>
<path fill="none" stroke="#191970" d="M86.1363,-65.4405C85.7928,-56.2795 85.4333,-46.6933 85.1321,-38.662"/>
<polygon fill="#191970" stroke="#191970" points="82.6411,-65.6356 86.5135,-75.4974 89.6362,-65.3732 82.6411,-65.6356"/>
</g>
<!-- Node8 -->
<g id="node5" class="node">
<title>Node8</title>
<g id="a_node5"><a xlink:href="LTIStateModel_8cpp.html" target="_top" xlink:title="/Users/Claudio/GitHub\l/bayes&#45;filters&#45;lib/src\l/BayesFilters/src/LTIStateModel.cpp">
<polygon fill="#ffffff" stroke="#000000" points="186.4746,-.5 186.4746,-38.5 362.3525,-38.5 362.3525,-.5 186.4746,-.5"/>
<text text-anchor="start" x="194.4746" y="-26.5" font-family="Helvetica,sans-Serif" font-size="10.00" fill="#000000">/Users/Claudio/GitHub</text>
<text text-anchor="start" x="194.4746" y="-16.5" font-family="Helvetica,sans-Serif" font-size="10.00" fill="#000000">/bayes&#45;filters&#45;lib/src</text>
<text text-anchor="middle" x="274.4136" y="-6.5" font-family="Helvetica,sans-Serif" font-size="10.00" fill="#000000">/BayesFilters/src/LTIStateModel.cpp</text>
</a>
</g>
</g>
<!-- Node7&#45;&gt;Node8 -->
<g id="edge4" class="edge">
<title>Node7&#45;&gt;Node8</title>
<path fill="none" stroke="#191970" d="M274.4136,-65.4405C274.4136,-56.2795 274.4136,-46.6933 274.4136,-38.662"/>
<polygon fill="#191970" stroke="#191970" points="270.9137,-65.4973 274.4136,-75.4974 277.9137,-65.4974 270.9137,-65.4973"/>
</g>
<!-- Node10 -->
<g id="node7" class="node">
<title>Node10</title>
<g id="a_node7"><a xlink:href="WhiteNoiseAcceleration_8cpp.html" target="_top" xlink:title="/Users/Claudio/GitHub\l/bayes&#45;filters&#45;lib/src\l/BayesFilters/src/WhiteNoiseAcceleration.cpp">
<polygon fill="#ffffff" stroke="#000000" points="380.5444,-.5 380.5444,-38.5 598.2827,-38.5 598.2827,-.5 380.5444,-.5"/>
<text text-anchor="start" x="388.5444" y="-26.5" font-family="Helvetica,sans-Serif" font-size="10.00" fill="#000000">/Users/Claudio/GitHub</text>
<text text-anchor="start" x="388.5444" y="-16.5" font-family="Helvetica,sans-Serif" font-size="10.00" fill="#000000">/bayes&#45;filters&#45;lib/src</text>
<text text-anchor="middle" x="489.4136" y="-6.5" font-family="Helvetica,sans-Serif" font-size="10.00" fill="#000000">/BayesFilters/src/WhiteNoiseAcceleration.cpp</text>
</a>
</g>
</g>
<!-- Node9&#45;&gt;Node10 -->
<g id="edge6" class="edge">
<title>Node9&#45;&gt;Node10</title>
<path fill="none" stroke="#191970" d="M471.3828,-66.0309C475.0015,-56.6925 478.8093,-46.866 481.9883,-38.662"/>
<polygon fill="#191970" stroke="#191970" points="468.0643,-64.9083 467.7146,-75.4974 474.5914,-67.4376 468.0643,-64.9083"/>
</g>
</g>
</svg>
