<?xml version="1.0" encoding="UTF-8" standalone="no"?>
<!DOCTYPE svg PUBLIC "-//W3C//DTD SVG 1.1//EN"
 "http://www.w3.org/Graphics/SVG/1.1/DTD/svg11.dtd">
<!-- Generated by graphviz version 2.40.1 (20161225.0304)
 -->
<!-- Title: /Users/Claudio/GitHub/bayes&#45;filters&#45;lib/src/BayesFilters/src/Logger.cpp Pages: 1 -->
<svg width="252pt" height="157pt"
 viewBox="0.00 0.00 251.70 157.00" xmlns="http://www.w3.org/2000/svg" xmlns:xlink="http://www.w3.org/1999/xlink">
<g id="graph0" class="graph" transform="scale(1 1) rotate(0) translate(4 153)">
<title>/Users/Claudio/GitHub/bayes&#45;filters&#45;lib/src/BayesFilters/src/Logger.cpp</title>
<polygon fill="#ffffff" stroke="transparent" points="-4,4 -4,-153 247.7017,-153 247.7017,4 -4,4"/>
<!-- Node0 -->
<g id="node1" class="node">
<title>Node0</title>
<polygon fill="#bfbfbf" stroke="#000000" points="0,-110.5 0,-148.5 142.1719,-148.5 142.1719,-110.5 0,-110.5"/>
<text text-anchor="start" x="8" y="-136.5" font-family="Helvetica,sans-Serif" font-size="10.00" fill="#000000">/Users/Claudio/GitHub</text>
<text text-anchor="start" x="8" y="-126.5" font-family="Helvetica,sans-Serif" font-size="10.00" fill="#000000">/bayes&#45;filters&#45;lib/src</text>
<text text-anchor="middle" x="71.0859" y="-116.5" font-family="Helvetica,sans-Serif" font-size="10.00" fill="#000000">/BayesFilters/src/Logger.cpp</text>
</g>
<!-- Node1 -->
<g id="node2" class="node">
<title>Node1</title>
<g id="a_node2"><a xlink:href="Logger_8h.html" target="_top" xlink:title="BayesFilters/Logger.h">
<polygon fill="#ffffff" stroke="#000000" points="56.7241,-55.5 56.7241,-73.5 169.4478,-73.5 169.4478,-55.5 56.7241,-55.5"/>
<text text-anchor="middle" x="113.0859" y="-61.5" font-family="Helvetica,sans-Serif" font-size="10.00" fill="#000000">BayesFilters/Logger.h</text>
</a>
</g>
</g>
<!-- Node0&#45;&gt;Node1 -->
<g id="edge1" class="edge">
<title>Node0&#45;&gt;Node1</title>
<path fill="none" stroke="#191970" d="M83.4602,-110.3494C89.2176,-101.4391 96.022,-90.9085 101.6568,-82.1879"/>
<polygon fill="#191970" stroke="#191970" points="104.7198,-83.8965 107.2073,-73.5978 98.8404,-80.0975 104.7198,-83.8965"/>
</g>
<!-- Node3 -->
<g id="node4" class="node">
<title>Node3</title>
<polygon fill="#ffffff" stroke="#bfbfbf" points="1.9136,-.5 1.9136,-18.5 56.2583,-18.5 56.2583,-.5 1.9136,-.5"/>
<text text-anchor="middle" x="29.0859" y="-6.5" font-family="Helvetica,sans-Serif" font-size="10.00" fill="#000000">iostream</text>
</g>
<!-- Node0&#45;&gt;Node3 -->
<g id="edge6" class="edge">
<title>Node0&#45;&gt;Node3</title>
<path fill="none" stroke="#191970" d="M62.5941,-110.4313C58.0152,-99.813 52.4297,-86.2926 48.0859,-74 42.7915,-59.0172 37.7554,-41.7311 34.1999,-28.8276"/>
<polygon fill="#191970" stroke="#191970" points="37.4738,-27.5258 31.4872,-18.7844 30.7159,-29.3511 37.4738,-27.5258"/>
</g>
<!-- Node2 -->
<g id="node3" class="node">
<title>Node2</title>
<polygon fill="#ffffff" stroke="#bfbfbf" points="74.416,-.5 74.416,-18.5 123.7559,-18.5 123.7559,-.5 74.416,-.5"/>
<text text-anchor="middle" x="99.0859" y="-6.5" font-family="Helvetica,sans-Serif" font-size="10.00" fill="#000000">fstream</text>
</g>
<!-- Node1&#45;&gt;Node2 -->
<g id="edge2" class="edge">
<title>Node1&#45;&gt;Node2</title>
<path fill="none" stroke="#191970" d="M110.7741,-55.4179C108.9209,-48.1372 106.2562,-37.669 103.9391,-28.5659"/>
<polygon fill="#191970" stroke="#191970" points="107.3067,-27.607 101.448,-18.7795 100.523,-29.3338 107.3067,-27.607"/>
</g>
<!-- Node1&#45;&gt;Node3 -->
<g id="edge3" class="edge">
<title>Node1&#45;&gt;Node3</title>
<path fill="none" stroke="#191970" d="M99.215,-55.4179C86.3262,-46.9788 66.8966,-34.257 51.7546,-24.3426"/>
<polygon fill="#191970" stroke="#191970" points="53.2609,-21.1454 42.9774,-18.5956 49.4264,-27.0017 53.2609,-21.1454"/>
</g>
<!-- Node4 -->
<g id="node5" class="node">
<title>Node4</title>
<polygon fill="#ffffff" stroke="#bfbfbf" points="141.8594,-.5 141.8594,-18.5 182.3125,-18.5 182.3125,-.5 141.8594,-.5"/>
<text text-anchor="middle" x="162.0859" y="-6.5" font-family="Helvetica,sans-Serif" font-size="10.00" fill="#000000">string</text>
</g>
<!-- Node1&#45;&gt;Node4 -->
<g id="edge4" class="edge">
<title>Node1&#45;&gt;Node4</title>
<path fill="none" stroke="#191970" d="M121.1773,-55.4179C128.1572,-47.5833 138.4256,-36.0575 146.9283,-26.5137"/>
<polygon fill="#191970" stroke="#191970" points="149.78,-28.5743 153.8188,-18.7795 144.5534,-23.9178 149.78,-28.5743"/>
</g>
<!-- Node5 -->
<g id="node6" class="node">
<title>Node5</title>
<polygon fill="#ffffff" stroke="#bfbfbf" points="200.4702,-.5 200.4702,-18.5 243.7017,-18.5 243.7017,-.5 200.4702,-.5"/>
<text text-anchor="middle" x="222.0859" y="-6.5" font-family="Helvetica,sans-Serif" font-size="10.00" fill="#000000">vector</text>
</g>
<!-- Node1&#45;&gt;Node5 -->
<g id="edge5" class="edge">
<title>Node1&#45;&gt;Node5</title>
<path fill="none" stroke="#191970" d="M131.0851,-55.4179C148.441,-46.6603 174.937,-33.2907 194.8705,-23.2326"/>
<polygon fill="#191970" stroke="#191970" points="196.7089,-26.2253 204.0601,-18.5956 193.5555,-19.9758 196.7089,-26.2253"/>
</g>
</g>
</svg>
