<?xml version="1.0" encoding="UTF-8" standalone="no"?>
<!DOCTYPE svg PUBLIC "-//W3C//DTD SVG 1.1//EN"
 "http://www.w3.org/Graphics/SVG/1.1/DTD/svg11.dtd">
<!-- Generated by graphviz version 2.40.1 (20161225.0304)
 -->
<!-- Title: /Users/Claudio/GitHub/bayes&#45;filters&#45;lib/src/BayesFilters/include/BayesFilters/Logger.h Pages: 1 -->
<svg width="249pt" height="112pt"
 viewBox="0.00 0.00 249.29 112.00" xmlns="http://www.w3.org/2000/svg" xmlns:xlink="http://www.w3.org/1999/xlink">
<g id="graph0" class="graph" transform="scale(1 1) rotate(0) translate(4 108)">
<title>/Users/Claudio/GitHub/bayes&#45;filters&#45;lib/src/BayesFilters/include/BayesFilters/Logger.h</title>
<polygon fill="#ffffff" stroke="transparent" points="-4,4 -4,-108 245.2856,-108 245.2856,4 -4,4"/>
<!-- Node0 -->
<g id="node1" class="node">
<title>Node0</title>
<polygon fill="#bfbfbf" stroke="#000000" points="43.6431,-55.5 43.6431,-103.5 209.6968,-103.5 209.6968,-55.5 43.6431,-55.5"/>
<text text-anchor="start" x="51.6431" y="-91.5" font-family="Helvetica,sans-Serif" font-size="10.00" fill="#000000">/Users/Claudio/GitHub</text>
<text text-anchor="start" x="51.6431" y="-81.5" font-family="Helvetica,sans-Serif" font-size="10.00" fill="#000000">/bayes&#45;filters&#45;lib/src</text>
<text text-anchor="start" x="51.6431" y="-71.5" font-family="Helvetica,sans-Serif" font-size="10.00" fill="#000000">/BayesFilters/include/BayesFilters</text>
<text text-anchor="middle" x="126.6699" y="-61.5" font-family="Helvetica,sans-Serif" font-size="10.00" fill="#000000">/Logger.h</text>
</g>
<!-- Node1 -->
<g id="node2" class="node">
<title>Node1</title>
<polygon fill="#ffffff" stroke="#bfbfbf" points="0,-.5 0,-18.5 49.3398,-18.5 49.3398,-.5 0,-.5"/>
<text text-anchor="middle" x="24.6699" y="-6.5" font-family="Helvetica,sans-Serif" font-size="10.00" fill="#000000">fstream</text>
</g>
<!-- Node0&#45;&gt;Node1 -->
<g id="edge1" class="edge">
<title>Node0&#45;&gt;Node1</title>
<path fill="none" stroke="#191970" d="M91.5673,-55.41C76.5843,-45.1275 59.5674,-33.4492 46.4459,-24.4443"/>
<polygon fill="#191970" stroke="#191970" points="48.2827,-21.4599 38.057,-18.6872 44.3217,-27.2315 48.2827,-21.4599"/>
</g>
<!-- Node2 -->
<g id="node3" class="node">
<title>Node2</title>
<polygon fill="#ffffff" stroke="#bfbfbf" points="67.4976,-.5 67.4976,-18.5 121.8423,-18.5 121.8423,-.5 67.4976,-.5"/>
<text text-anchor="middle" x="94.6699" y="-6.5" font-family="Helvetica,sans-Serif" font-size="10.00" fill="#000000">iostream</text>
</g>
<!-- Node0&#45;&gt;Node2 -->
<g id="edge2" class="edge">
<title>Node0&#45;&gt;Node2</title>
<path fill="none" stroke="#191970" d="M115.6573,-55.41C111.5444,-46.4128 106.9428,-36.347 103.099,-27.9385"/>
<polygon fill="#191970" stroke="#191970" points="106.2106,-26.3268 98.8698,-18.6872 99.8443,-29.2372 106.2106,-26.3268"/>
</g>
<!-- Node3 -->
<g id="node4" class="node">
<title>Node3</title>
<polygon fill="#ffffff" stroke="#bfbfbf" points="139.4434,-.5 139.4434,-18.5 179.8965,-18.5 179.8965,-.5 139.4434,-.5"/>
<text text-anchor="middle" x="159.6699" y="-6.5" font-family="Helvetica,sans-Serif" font-size="10.00" fill="#000000">string</text>
</g>
<!-- Node0&#45;&gt;Node3 -->
<g id="edge3" class="edge">
<title>Node0&#45;&gt;Node3</title>
<path fill="none" stroke="#191970" d="M138.0266,-55.41C142.2682,-46.4128 147.0135,-36.347 150.9775,-27.9385"/>
<polygon fill="#191970" stroke="#191970" points="154.2404,-29.225 155.3388,-18.6872 147.9087,-26.24 154.2404,-29.225"/>
</g>
<!-- Node4 -->
<g id="node5" class="node">
<title>Node4</title>
<polygon fill="#ffffff" stroke="#bfbfbf" points="198.0542,-.5 198.0542,-18.5 241.2856,-18.5 241.2856,-.5 198.0542,-.5"/>
<text text-anchor="middle" x="219.6699" y="-6.5" font-family="Helvetica,sans-Serif" font-size="10.00" fill="#000000">vector</text>
</g>
<!-- Node0&#45;&gt;Node4 -->
<g id="edge4" class="edge">
<title>Node0&#45;&gt;Node4</title>
<path fill="none" stroke="#191970" d="M158.6752,-55.41C172.2049,-45.2264 187.5535,-33.6737 199.4693,-24.7048"/>
<polygon fill="#191970" stroke="#191970" points="201.5791,-27.4974 207.464,-18.6872 197.3695,-21.9046 201.5791,-27.4974"/>
</g>
</g>
</svg>
