<?xml version="1.0" encoding="UTF-8" standalone="no"?>
<!DOCTYPE svg PUBLIC "-//W3C//DTD SVG 1.1//EN"
 "http://www.w3.org/Graphics/SVG/1.1/DTD/svg11.dtd">
<!-- Generated by graphviz version 2.40.1 (20161225.0304)
 -->
<!-- Title: /Users/Claudio/GitHub/bayes&#45;filters&#45;lib/src/BayesFilters/src/LTIStateModel.cpp Pages: 1 -->
<svg width="267pt" height="342pt"
 viewBox="0.00 0.00 267.42 342.00" xmlns="http://www.w3.org/2000/svg" xmlns:xlink="http://www.w3.org/1999/xlink">
<g id="graph0" class="graph" transform="scale(1 1) rotate(0) translate(4 338)">
<title>/Users/Claudio/GitHub/bayes&#45;filters&#45;lib/src/BayesFilters/src/LTIStateModel.cpp</title>
<polygon fill="#ffffff" stroke="transparent" points="-4,4 -4,-338 263.421,-338 263.421,4 -4,4"/>
<!-- Node0 -->
<g id="node1" class="node">
<title>Node0</title>
<polygon fill="#bfbfbf" stroke="#000000" points="83.5431,-295.5 83.5431,-333.5 259.421,-333.5 259.421,-295.5 83.5431,-295.5"/>
<text text-anchor="start" x="91.5431" y="-321.5" font-family="Helvetica,sans-Serif" font-size="10.00" fill="#000000">/Users/Claudio/GitHub</text>
<text text-anchor="start" x="91.5431" y="-311.5" font-family="Helvetica,sans-Serif" font-size="10.00" fill="#000000">/bayes&#45;filters&#45;lib/src</text>
<text text-anchor="middle" x="171.482" y="-301.5" font-family="Helvetica,sans-Serif" font-size="10.00" fill="#000000">/BayesFilters/src/LTIStateModel.cpp</text>
</g>
<!-- Node1 -->
<g id="node2" class="node">
<title>Node1</title>
<g id="a_node2"><a xlink:href="LTIStateModel_8h.html" target="_top" xlink:title="BayesFilters/LTIStateModel.h">
<polygon fill="#ffffff" stroke="#000000" points="11.2672,-240.5 11.2672,-258.5 157.6969,-258.5 157.6969,-240.5 11.2672,-240.5"/>
<text text-anchor="middle" x="84.482" y="-246.5" font-family="Helvetica,sans-Serif" font-size="10.00" fill="#000000">BayesFilters/LTIStateModel.h</text>
</a>
</g>
</g>
<!-- Node0&#45;&gt;Node1 -->
<g id="edge1" class="edge">
<title>Node0&#45;&gt;Node1</title>
<path fill="none" stroke="#191970" d="M145.8497,-295.3494C132.7818,-285.586 117.1099,-273.8772 104.8746,-264.7358"/>
<polygon fill="#191970" stroke="#191970" points="106.7651,-261.7793 96.6592,-258.5978 102.5754,-267.387 106.7651,-261.7793"/>
</g>
<!-- Node2 -->
<g id="node3" class="node">
<title>Node2</title>
<polygon fill="#ffffff" stroke="#bfbfbf" points="12.8517,-.5 12.8517,-18.5 86.1124,-18.5 86.1124,-.5 12.8517,-.5"/>
<text text-anchor="middle" x="49.482" y="-6.5" font-family="Helvetica,sans-Serif" font-size="10.00" fill="#000000">Eigen/Dense</text>
</g>
<!-- Node0&#45;&gt;Node2 -->
<g id="edge9" class="edge">
<title>Node0&#45;&gt;Node2</title>
<path fill="none" stroke="#191970" d="M189.1688,-295.3722C208.7188,-272.1649 237.482,-230.9737 237.482,-189.5 237.482,-189.5 237.482,-189.5 237.482,-124.5 237.482,-92.4776 241.169,-77.5994 218.482,-55 201.3067,-37.891 139.8814,-24.4327 96.0431,-16.7213"/>
<polygon fill="#191970" stroke="#191970" points="96.5958,-13.2651 86.1482,-15.0249 95.4129,-20.1644 96.5958,-13.2651"/>
</g>
<!-- Node1&#45;&gt;Node2 -->
<g id="edge2" class="edge">
<title>Node1&#45;&gt;Node2</title>
<path fill="none" stroke="#191970" d="M58.6033,-240.3954C42.4765,-233.2187 23.0355,-221.4692 13.482,-204 1.2546,-181.6413 -12.8859,-172.0931 23.482,-55 26.5078,-45.2579 31.8708,-35.3212 36.9431,-27.2293"/>
<polygon fill="#191970" stroke="#191970" points="39.9909,-28.9665 42.6067,-18.6996 34.1594,-25.0944 39.9909,-28.9665"/>
</g>
<!-- Node3 -->
<g id="node4" class="node">
<title>Node3</title>
<g id="a_node4"><a xlink:href="LinearStateModel_8h.html" target="_top" xlink:title="BayesFilters/LinearState\lModel.h">
<polygon fill="#ffffff" stroke="#000000" points="22.0118,-175.5 22.0118,-203.5 146.9523,-203.5 146.9523,-175.5 22.0118,-175.5"/>
<text text-anchor="start" x="30.0118" y="-191.5" font-family="Helvetica,sans-Serif" font-size="10.00" fill="#000000">BayesFilters/LinearState</text>
<text text-anchor="middle" x="84.482" y="-181.5" font-family="Helvetica,sans-Serif" font-size="10.00" fill="#000000">Model.h</text>
</a>
</g>
</g>
<!-- Node1&#45;&gt;Node3 -->
<g id="edge3" class="edge">
<title>Node1&#45;&gt;Node3</title>
<path fill="none" stroke="#191970" d="M84.482,-240.3873C84.482,-233.3369 84.482,-223.2311 84.482,-213.8806"/>
<polygon fill="#191970" stroke="#191970" points="87.9821,-213.8476 84.482,-203.8477 80.9821,-213.8477 87.9821,-213.8476"/>
</g>
<!-- Node3&#45;&gt;Node2 -->
<g id="edge4" class="edge">
<title>Node3&#45;&gt;Node2</title>
<path fill="none" stroke="#191970" d="M62.1091,-175.3456C50.3122,-166.4994 36.9716,-153.954 30.482,-139 14.4218,-101.9918 29.7757,-54.0307 40.6959,-28.108"/>
<polygon fill="#191970" stroke="#191970" points="43.9988,-29.2942 44.8633,-18.7347 37.6025,-26.4503 43.9988,-29.2942"/>
</g>
<!-- Node4 -->
<g id="node5" class="node">
<title>Node4</title>
<g id="a_node5"><a xlink:href="AdditiveStateModel_8h.html" target="_top" xlink:title="BayesFilters/AdditiveState\lModel.h">
<polygon fill="#ffffff" stroke="#000000" points="39.1227,-110.5 39.1227,-138.5 171.8414,-138.5 171.8414,-110.5 39.1227,-110.5"/>
<text text-anchor="start" x="47.1227" y="-126.5" font-family="Helvetica,sans-Serif" font-size="10.00" fill="#000000">BayesFilters/AdditiveState</text>
<text text-anchor="middle" x="105.482" y="-116.5" font-family="Helvetica,sans-Serif" font-size="10.00" fill="#000000">Model.h</text>
</a>
</g>
</g>
<!-- Node3&#45;&gt;Node4 -->
<g id="edge5" class="edge">
<title>Node3&#45;&gt;Node4</title>
<path fill="none" stroke="#191970" d="M89.0387,-175.396C91.598,-167.4745 94.8596,-157.379 97.8021,-148.2712"/>
<polygon fill="#191970" stroke="#191970" points="101.1904,-149.1682 100.9342,-138.5765 94.5294,-147.0162 101.1904,-149.1682"/>
</g>
<!-- Node4&#45;&gt;Node2 -->
<g id="edge6" class="edge">
<title>Node4&#45;&gt;Node2</title>
<path fill="none" stroke="#191970" d="M93.0346,-110.3475C85.069,-100.6733 75.0362,-87.2489 68.482,-74 61.2839,-59.4494 56.2995,-41.6743 53.2478,-28.4714"/>
<polygon fill="#191970" stroke="#191970" points="56.6554,-27.6692 51.1327,-18.6276 49.8116,-29.1397 56.6554,-27.6692"/>
</g>
<!-- Node5 -->
<g id="node6" class="node">
<title>Node5</title>
<g id="a_node6"><a xlink:href="StateModel_8h.html" target="_top" xlink:title="BayesFilters/StateModel.h">
<polygon fill="#ffffff" stroke="#000000" points="77.1227,-55.5 77.1227,-73.5 209.8414,-73.5 209.8414,-55.5 77.1227,-55.5"/>
<text text-anchor="middle" x="143.482" y="-61.5" font-family="Helvetica,sans-Serif" font-size="10.00" fill="#000000">BayesFilters/StateModel.h</text>
</a>
</g>
</g>
<!-- Node4&#45;&gt;Node5 -->
<g id="edge7" class="edge">
<title>Node4&#45;&gt;Node5</title>
<path fill="none" stroke="#191970" d="M114.4875,-110.2808C119.8304,-101.8448 126.6472,-91.0813 132.3286,-82.1107"/>
<polygon fill="#191970" stroke="#191970" points="135.335,-83.9051 137.7287,-73.5842 129.4213,-80.1597 135.335,-83.9051"/>
</g>
<!-- Node5&#45;&gt;Node2 -->
<g id="edge8" class="edge">
<title>Node5&#45;&gt;Node2</title>
<path fill="none" stroke="#191970" d="M127.9599,-55.4179C113.2645,-46.8195 90.9709,-33.7754 73.8954,-23.7844"/>
<polygon fill="#191970" stroke="#191970" points="75.426,-20.6249 65.0273,-18.5956 71.8909,-26.6667 75.426,-20.6249"/>
</g>
</g>
</svg>
