<?xml version="1.0" encoding="UTF-8" standalone="no"?>
<!DOCTYPE svg PUBLIC "-//W3C//DTD SVG 1.1//EN"
 "http://www.w3.org/Graphics/SVG/1.1/DTD/svg11.dtd">
<!-- Generated by graphviz version 2.40.1 (20161225.0304)
 -->
<!-- Title: /Users/Claudio/GitHub/bayes&#45;filters&#45;lib/src/BayesFilters/include/BayesFilters/LTIStateModel.h Pages: 1 -->
<svg width="282pt" height="297pt"
 viewBox="0.00 0.00 282.39 297.00" xmlns="http://www.w3.org/2000/svg" xmlns:xlink="http://www.w3.org/1999/xlink">
<g id="graph0" class="graph" transform="scale(1 1) rotate(0) translate(4 293)">
<title>/Users/Claudio/GitHub/bayes&#45;filters&#45;lib/src/BayesFilters/include/BayesFilters/LTIStateModel.h</title>
<polygon fill="#ffffff" stroke="transparent" points="-4,4 -4,-293 278.3862,-293 278.3862,4 -4,4"/>
<!-- Node0 -->
<g id="node1" class="node">
<title>Node0</title>
<polygon fill="#bfbfbf" stroke="#000000" points="0,-240.5 0,-288.5 166.0537,-288.5 166.0537,-240.5 0,-240.5"/>
<text text-anchor="start" x="8" y="-276.5" font-family="Helvetica,sans-Serif" font-size="10.00" fill="#000000">/Users/Claudio/GitHub</text>
<text text-anchor="start" x="8" y="-266.5" font-family="Helvetica,sans-Serif" font-size="10.00" fill="#000000">/bayes&#45;filters&#45;lib/src</text>
<text text-anchor="start" x="8" y="-256.5" font-family="Helvetica,sans-Serif" font-size="10.00" fill="#000000">/BayesFilters/include/BayesFilters</text>
<text text-anchor="middle" x="83.0269" y="-246.5" font-family="Helvetica,sans-Serif" font-size="10.00" fill="#000000">/LTIStateModel.h</text>
</g>
<!-- Node1 -->
<g id="node2" class="node">
<title>Node1</title>
<polygon fill="#ffffff" stroke="#bfbfbf" points="58.3965,-.5 58.3965,-18.5 131.6572,-18.5 131.6572,-.5 58.3965,-.5"/>
<text text-anchor="middle" x="95.0269" y="-6.5" font-family="Helvetica,sans-Serif" font-size="10.00" fill="#000000">Eigen/Dense</text>
</g>
<!-- Node0&#45;&gt;Node1 -->
<g id="edge1" class="edge">
<title>Node0&#45;&gt;Node1</title>
<path fill="none" stroke="#191970" d="M69.9139,-240.2218C64.8123,-229.4545 59.5846,-216.4295 57.0269,-204 43.7665,-139.5599 71.5172,-62.8689 86.411,-28.1818"/>
<polygon fill="#191970" stroke="#191970" points="89.7058,-29.3857 90.5608,-18.8254 83.3069,-26.5476 89.7058,-29.3857"/>
</g>
<!-- Node2 -->
<g id="node3" class="node">
<title>Node2</title>
<g id="a_node3"><a xlink:href="LinearStateModel_8h.html" target="_top" xlink:title="BayesFilters/LinearState\lModel.h">
<polygon fill="#ffffff" stroke="#000000" points="65.5566,-175.5 65.5566,-203.5 190.4971,-203.5 190.4971,-175.5 65.5566,-175.5"/>
<text text-anchor="start" x="73.5566" y="-191.5" font-family="Helvetica,sans-Serif" font-size="10.00" fill="#000000">BayesFilters/LinearState</text>
<text text-anchor="middle" x="128.0269" y="-181.5" font-family="Helvetica,sans-Serif" font-size="10.00" fill="#000000">Model.h</text>
</a>
</g>
</g>
<!-- Node0&#45;&gt;Node2 -->
<g id="edge2" class="edge">
<title>Node0&#45;&gt;Node2</title>
<path fill="none" stroke="#191970" d="M97.5128,-240.3567C102.9285,-231.3306 109.0567,-221.117 114.3928,-212.2233"/>
<polygon fill="#191970" stroke="#191970" points="117.4602,-213.9139 119.604,-203.5382 111.4577,-210.3124 117.4602,-213.9139"/>
</g>
<!-- Node2&#45;&gt;Node1 -->
<g id="edge3" class="edge">
<title>Node2&#45;&gt;Node1</title>
<path fill="none" stroke="#191970" d="M115.415,-175.1885C107.8858,-165.6564 99.032,-152.4506 95.0269,-139 83.737,-101.0845 87.9673,-54.1094 91.7161,-28.442"/>
<polygon fill="#191970" stroke="#191970" points="95.1757,-28.9721 93.2968,-18.5452 88.2633,-27.868 95.1757,-28.9721"/>
</g>
<!-- Node3 -->
<g id="node4" class="node">
<title>Node3</title>
<g id="a_node4"><a xlink:href="AdditiveStateModel_8h.html" target="_top" xlink:title="BayesFilters/AdditiveState\lModel.h">
<polygon fill="#ffffff" stroke="#000000" points="103.6675,-110.5 103.6675,-138.5 236.3862,-138.5 236.3862,-110.5 103.6675,-110.5"/>
<text text-anchor="start" x="111.6675" y="-126.5" font-family="Helvetica,sans-Serif" font-size="10.00" fill="#000000">BayesFilters/AdditiveState</text>
<text text-anchor="middle" x="170.0269" y="-116.5" font-family="Helvetica,sans-Serif" font-size="10.00" fill="#000000">Model.h</text>
</a>
</g>
</g>
<!-- Node2&#45;&gt;Node3 -->
<g id="edge4" class="edge">
<title>Node2&#45;&gt;Node3</title>
<path fill="none" stroke="#191970" d="M137.1402,-175.396C142.4789,-167.1338 149.3457,-156.5065 155.4227,-147.1017"/>
<polygon fill="#191970" stroke="#191970" points="158.4438,-148.8752 160.9313,-138.5765 152.5644,-145.0762 158.4438,-148.8752"/>
</g>
<!-- Node3&#45;&gt;Node1 -->
<g id="edge5" class="edge">
<title>Node3&#45;&gt;Node1</title>
<path fill="none" stroke="#191970" d="M158.9484,-110.1873C151.3835,-100.2226 141.2762,-86.5265 133.0269,-74 123.0015,-58.7766 112.5556,-40.8744 105.159,-27.7977"/>
<polygon fill="#191970" stroke="#191970" points="108.0949,-25.8772 100.1545,-18.8629 101.9876,-29.2979 108.0949,-25.8772"/>
</g>
<!-- Node4 -->
<g id="node5" class="node">
<title>Node4</title>
<g id="a_node5"><a xlink:href="StateModel_8h.html" target="_top" xlink:title="BayesFilters/StateModel.h">
<polygon fill="#ffffff" stroke="#000000" points="141.6675,-55.5 141.6675,-73.5 274.3862,-73.5 274.3862,-55.5 141.6675,-55.5"/>
<text text-anchor="middle" x="208.0269" y="-61.5" font-family="Helvetica,sans-Serif" font-size="10.00" fill="#000000">BayesFilters/StateModel.h</text>
</a>
</g>
</g>
<!-- Node3&#45;&gt;Node4 -->
<g id="edge6" class="edge">
<title>Node3&#45;&gt;Node4</title>
<path fill="none" stroke="#191970" d="M179.0323,-110.2808C184.3752,-101.8448 191.192,-91.0813 196.8734,-82.1107"/>
<polygon fill="#191970" stroke="#191970" points="199.8798,-83.9051 202.2735,-73.5842 193.9661,-80.1597 199.8798,-83.9051"/>
</g>
<!-- Node4&#45;&gt;Node1 -->
<g id="edge7" class="edge">
<title>Node4&#45;&gt;Node1</title>
<path fill="none" stroke="#191970" d="M189.3672,-55.4179C171.2926,-46.6205 143.6561,-33.1691 122.9596,-23.0956"/>
<polygon fill="#191970" stroke="#191970" points="124.2375,-19.825 113.7142,-18.5956 121.174,-26.1191 124.2375,-19.825"/>
</g>
</g>
</svg>
