<?xml version="1.0" encoding="UTF-8" standalone="no"?>
<!DOCTYPE svg PUBLIC "-//W3C//DTD SVG 1.1//EN"
 "http://www.w3.org/Graphics/SVG/1.1/DTD/svg11.dtd">
<!-- Generated by graphviz version 2.40.1 (20161225.0304)
 -->
<!-- Title: /Users/Claudio/GitHub/bayes&#45;filters&#45;lib/src/BayesFilters/src/MeasurementModel.cpp Pages: 1 -->
<svg width="545pt" height="277pt"
 viewBox="0.00 0.00 545.03 277.00" xmlns="http://www.w3.org/2000/svg" xmlns:xlink="http://www.w3.org/1999/xlink">
<g id="graph0" class="graph" transform="scale(1 1) rotate(0) translate(4 273)">
<title>/Users/Claudio/GitHub/bayes&#45;filters&#45;lib/src/BayesFilters/src/MeasurementModel.cpp</title>
<polygon fill="#ffffff" stroke="transparent" points="-4,4 -4,-273 541.0342,-273 541.0342,4 -4,4"/>
<!-- Node0 -->
<g id="node1" class="node">
<title>Node0</title>
<polygon fill="#bfbfbf" stroke="#000000" points="337.0791,-230.5 337.0791,-268.5 537.0342,-268.5 537.0342,-230.5 337.0791,-230.5"/>
<text text-anchor="start" x="345.0791" y="-256.5" font-family="Helvetica,sans-Serif" font-size="10.00" fill="#000000">/Users/Claudio/GitHub</text>
<text text-anchor="start" x="345.0791" y="-246.5" font-family="Helvetica,sans-Serif" font-size="10.00" fill="#000000">/bayes&#45;filters&#45;lib/src</text>
<text text-anchor="middle" x="437.0566" y="-236.5" font-family="Helvetica,sans-Serif" font-size="10.00" fill="#000000">/BayesFilters/src/MeasurementModel.cpp</text>
</g>
<!-- Node1 -->
<g id="node2" class="node">
<title>Node1</title>
<g id="a_node2"><a xlink:href="MeasurementModel_8h.html" target="_top" xlink:title="BayesFilters/Measurement\lModel.h">
<polygon fill="#ffffff" stroke="#000000" points="253.5913,-165.5 253.5913,-193.5 388.522,-193.5 388.522,-165.5 253.5913,-165.5"/>
<text text-anchor="start" x="261.5913" y="-181.5" font-family="Helvetica,sans-Serif" font-size="10.00" fill="#000000">BayesFilters/Measurement</text>
<text text-anchor="middle" x="321.0566" y="-171.5" font-family="Helvetica,sans-Serif" font-size="10.00" fill="#000000">Model.h</text>
</a>
</g>
</g>
<!-- Node0&#45;&gt;Node1 -->
<g id="edge1" class="edge">
<title>Node0&#45;&gt;Node1</title>
<path fill="none" stroke="#191970" d="M405.3591,-230.3722C389.1717,-220.6039 369.5163,-208.7429 353.2578,-198.9317"/>
<polygon fill="#191970" stroke="#191970" points="354.9886,-195.8883 344.6183,-193.7183 351.3719,-201.8816 354.9886,-195.8883"/>
</g>
<!-- Node11 -->
<g id="node12" class="node">
<title>Node11</title>
<polygon fill="#ffffff" stroke="#bfbfbf" points="475.8843,-55.5 475.8843,-73.5 530.229,-73.5 530.229,-55.5 475.8843,-55.5"/>
<text text-anchor="middle" x="503.0566" y="-61.5" font-family="Helvetica,sans-Serif" font-size="10.00" fill="#000000">iostream</text>
</g>
<!-- Node0&#45;&gt;Node11 -->
<g id="edge18" class="edge">
<title>Node0&#45;&gt;Node11</title>
<path fill="none" stroke="#191970" d="M460.1933,-230.1432C484.1957,-208.4042 520.2508,-170.6709 535.0566,-129 541.0302,-112.1875 530.3948,-94.0717 519.8142,-81.3325"/>
<polygon fill="#191970" stroke="#191970" points="522.3338,-78.9 513.0444,-73.8052 517.1291,-83.581 522.3338,-78.9"/>
</g>
<!-- Node2 -->
<g id="node3" class="node">
<title>Node2</title>
<g id="a_node3"><a xlink:href="Data_8h.html" target="_top" xlink:title="BayesFilters/Data.h">
<polygon fill="#ffffff" stroke="#000000" points="105.4287,-110.5 105.4287,-128.5 208.6846,-128.5 208.6846,-110.5 105.4287,-110.5"/>
<text text-anchor="middle" x="157.0566" y="-116.5" font-family="Helvetica,sans-Serif" font-size="10.00" fill="#000000">BayesFilters/Data.h</text>
</a>
</g>
</g>
<!-- Node1&#45;&gt;Node2 -->
<g id="edge2" class="edge">
<title>Node1&#45;&gt;Node2</title>
<path fill="none" stroke="#191970" d="M282.6059,-165.4327C255.0704,-155.3587 218.3052,-141.908 191.6817,-132.1677"/>
<polygon fill="#191970" stroke="#191970" points="192.6087,-128.78 182.0149,-128.6311 190.2035,-135.3539 192.6087,-128.78"/>
</g>
<!-- Node5 -->
<g id="node6" class="node">
<title>Node5</title>
<polygon fill="#ffffff" stroke="#bfbfbf" points="0,-.5 0,-18.5 52.1133,-18.5 52.1133,-.5 0,-.5"/>
<text text-anchor="middle" x="26.0566" y="-6.5" font-family="Helvetica,sans-Serif" font-size="10.00" fill="#000000">memory</text>
</g>
<!-- Node1&#45;&gt;Node5 -->
<g id="edge14" class="edge">
<title>Node1&#45;&gt;Node5</title>
<path fill="none" stroke="#191970" d="M253.3854,-170.369C196.5733,-161.6217 120.8287,-147.0937 96.0566,-129 61.2441,-103.5726 40.8584,-55.1445 31.7676,-28.407"/>
<polygon fill="#191970" stroke="#191970" points="35.0412,-27.1539 28.6451,-18.7076 28.3779,-29.299 35.0412,-27.1539"/>
</g>
<!-- Node9 -->
<g id="node10" class="node">
<title>Node9</title>
<g id="a_node10"><a xlink:href="Logger_8h.html" target="_top" xlink:title="BayesFilters/Logger.h">
<polygon fill="#ffffff" stroke="#000000" points="264.6948,-110.5 264.6948,-128.5 377.4185,-128.5 377.4185,-110.5 264.6948,-110.5"/>
<text text-anchor="middle" x="321.0566" y="-116.5" font-family="Helvetica,sans-Serif" font-size="10.00" fill="#000000">BayesFilters/Logger.h</text>
</a>
</g>
</g>
<!-- Node1&#45;&gt;Node9 -->
<g id="edge9" class="edge">
<title>Node1&#45;&gt;Node9</title>
<path fill="none" stroke="#191970" d="M321.0566,-165.2808C321.0566,-157.3776 321.0566,-147.4316 321.0566,-138.8308"/>
<polygon fill="#191970" stroke="#191970" points="324.5567,-138.5842 321.0566,-128.5842 317.5567,-138.5842 324.5567,-138.5842"/>
</g>
<!-- Node12 -->
<g id="node13" class="node">
<title>Node12</title>
<polygon fill="#ffffff" stroke="#bfbfbf" points="232.8301,-55.5 232.8301,-73.5 273.2832,-73.5 273.2832,-55.5 232.8301,-55.5"/>
<text text-anchor="middle" x="253.0566" y="-61.5" font-family="Helvetica,sans-Serif" font-size="10.00" fill="#000000">string</text>
</g>
<!-- Node1&#45;&gt;Node12 -->
<g id="edge15" class="edge">
<title>Node1&#45;&gt;Node12</title>
<path fill="none" stroke="#191970" d="M293.2053,-165.4063C279.4694,-156.8713 264.1481,-144.6038 256.0566,-129 248.8804,-115.1611 248.6153,-97.3244 249.8706,-83.9169"/>
<polygon fill="#191970" stroke="#191970" points="253.3569,-84.2467 251.1642,-73.8813 246.4144,-83.3517 253.3569,-84.2467"/>
</g>
<!-- Node14 -->
<g id="node15" class="node">
<title>Node14</title>
<polygon fill="#ffffff" stroke="#bfbfbf" points="395.665,-110.5 395.665,-128.5 434.4482,-128.5 434.4482,-110.5 395.665,-110.5"/>
<text text-anchor="middle" x="415.0566" y="-116.5" font-family="Helvetica,sans-Serif" font-size="10.00" fill="#000000">utility</text>
</g>
<!-- Node1&#45;&gt;Node14 -->
<g id="edge16" class="edge">
<title>Node1&#45;&gt;Node14</title>
<path fill="none" stroke="#191970" d="M343.3333,-165.2808C358.0802,-155.868 377.3665,-143.5575 392.2254,-134.0732"/>
<polygon fill="#191970" stroke="#191970" points="394.2786,-136.9148 400.8247,-128.5842 390.5124,-131.0144 394.2786,-136.9148"/>
</g>
<!-- Node15 -->
<g id="node16" class="node">
<title>Node15</title>
<polygon fill="#ffffff" stroke="#bfbfbf" points="452.4263,-110.5 452.4263,-128.5 525.687,-128.5 525.687,-110.5 452.4263,-110.5"/>
<text text-anchor="middle" x="489.0566" y="-116.5" font-family="Helvetica,sans-Serif" font-size="10.00" fill="#000000">Eigen/Dense</text>
</g>
<!-- Node1&#45;&gt;Node15 -->
<g id="edge17" class="edge">
<title>Node1&#45;&gt;Node15</title>
<path fill="none" stroke="#191970" d="M360.4452,-165.4327C388.7766,-155.3143 426.6462,-141.7895 453.9469,-132.0392"/>
<polygon fill="#191970" stroke="#191970" points="455.2494,-135.2906 463.4897,-128.6311 452.895,-128.6984 455.2494,-135.2906"/>
</g>
<!-- Node3 -->
<g id="node4" class="node">
<title>Node3</title>
<g id="a_node4"><a xlink:href="any_8h.html" target="_top" xlink:title="BayesFilters/any.h">
<polygon fill="#ffffff" stroke="#000000" points="110.2974,-55.5 110.2974,-73.5 207.8159,-73.5 207.8159,-55.5 110.2974,-55.5"/>
<text text-anchor="middle" x="159.0566" y="-61.5" font-family="Helvetica,sans-Serif" font-size="10.00" fill="#000000">BayesFilters/any.h</text>
</a>
</g>
</g>
<!-- Node2&#45;&gt;Node3 -->
<g id="edge3" class="edge">
<title>Node2&#45;&gt;Node3</title>
<path fill="none" stroke="#191970" d="M157.3869,-110.4179C157.6488,-103.2164 158.0241,-92.8962 158.3525,-83.8632"/>
<polygon fill="#191970" stroke="#191970" points="161.8534,-83.9001 158.7192,-73.7795 154.858,-83.6456 161.8534,-83.9001"/>
</g>
<!-- Node4 -->
<g id="node5" class="node">
<title>Node4</title>
<polygon fill="#ffffff" stroke="#bfbfbf" points="70.4927,-.5 70.4927,-18.5 127.6206,-18.5 127.6206,-.5 70.4927,-.5"/>
<text text-anchor="middle" x="99.0566" y="-6.5" font-family="Helvetica,sans-Serif" font-size="10.00" fill="#000000">algorithm</text>
</g>
<!-- Node3&#45;&gt;Node4 -->
<g id="edge4" class="edge">
<title>Node3&#45;&gt;Node4</title>
<path fill="none" stroke="#191970" d="M149.1489,-55.4179C140.343,-47.3458 127.2628,-35.3556 116.6767,-25.6517"/>
<polygon fill="#191970" stroke="#191970" points="118.9163,-22.9567 109.1797,-18.7795 114.1862,-28.1168 118.9163,-22.9567"/>
</g>
<!-- Node3&#45;&gt;Node5 -->
<g id="edge5" class="edge">
<title>Node3&#45;&gt;Node5</title>
<path fill="none" stroke="#191970" d="M137.0944,-55.4179C115.3395,-46.4215 81.8152,-32.5581 57.2927,-22.4172"/>
<polygon fill="#191970" stroke="#191970" points="58.6301,-19.1828 48.0515,-18.5956 55.955,-25.6515 58.6301,-19.1828"/>
</g>
<!-- Node6 -->
<g id="node7" class="node">
<title>Node6</title>
<polygon fill="#ffffff" stroke="#bfbfbf" points="145.6553,-.5 145.6553,-18.5 204.458,-18.5 204.458,-.5 145.6553,-.5"/>
<text text-anchor="middle" x="175.0566" y="-6.5" font-family="Helvetica,sans-Serif" font-size="10.00" fill="#000000">stdexcept</text>
</g>
<!-- Node3&#45;&gt;Node6 -->
<g id="edge6" class="edge">
<title>Node3&#45;&gt;Node6</title>
<path fill="none" stroke="#191970" d="M161.6987,-55.4179C163.8167,-48.1372 166.862,-37.669 169.5102,-28.5659"/>
<polygon fill="#191970" stroke="#191970" points="172.9245,-29.3591 172.3572,-18.7795 166.2031,-27.4037 172.9245,-29.3591"/>
</g>
<!-- Node7 -->
<g id="node8" class="node">
<title>Node7</title>
<polygon fill="#ffffff" stroke="#bfbfbf" points="222.5444,-.5 222.5444,-18.5 273.5688,-18.5 273.5688,-.5 222.5444,-.5"/>
<text text-anchor="middle" x="248.0566" y="-6.5" font-family="Helvetica,sans-Serif" font-size="10.00" fill="#000000">typeinfo</text>
</g>
<!-- Node3&#45;&gt;Node7 -->
<g id="edge7" class="edge">
<title>Node3&#45;&gt;Node7</title>
<path fill="none" stroke="#191970" d="M173.7532,-55.4179C187.538,-46.8992 208.3844,-34.0166 224.4915,-24.0627"/>
<polygon fill="#191970" stroke="#191970" points="226.6715,-26.83 233.3383,-18.5956 222.9916,-20.8753 226.6715,-26.83"/>
</g>
<!-- Node8 -->
<g id="node9" class="node">
<title>Node8</title>
<polygon fill="#ffffff" stroke="#bfbfbf" points="291.9902,-.5 291.9902,-18.5 354.123,-18.5 354.123,-.5 291.9902,-.5"/>
<text text-anchor="middle" x="323.0566" y="-6.5" font-family="Helvetica,sans-Serif" font-size="10.00" fill="#000000">type_traits</text>
</g>
<!-- Node3&#45;&gt;Node8 -->
<g id="edge8" class="edge">
<title>Node3&#45;&gt;Node8</title>
<path fill="none" stroke="#191970" d="M186.1379,-55.4179C213.5201,-46.2348 256.0232,-31.9807 286.4074,-21.7909"/>
<polygon fill="#191970" stroke="#191970" points="287.8396,-25.0023 296.2077,-18.5042 285.6138,-18.3655 287.8396,-25.0023"/>
</g>
<!-- Node10 -->
<g id="node11" class="node">
<title>Node10</title>
<polygon fill="#ffffff" stroke="#bfbfbf" points="294.3867,-55.5 294.3867,-73.5 343.7266,-73.5 343.7266,-55.5 294.3867,-55.5"/>
<text text-anchor="middle" x="319.0566" y="-61.5" font-family="Helvetica,sans-Serif" font-size="10.00" fill="#000000">fstream</text>
</g>
<!-- Node9&#45;&gt;Node10 -->
<g id="edge10" class="edge">
<title>Node9&#45;&gt;Node10</title>
<path fill="none" stroke="#191970" d="M320.7264,-110.4179C320.4645,-103.2164 320.0892,-92.8962 319.7608,-83.8632"/>
<polygon fill="#191970" stroke="#191970" points="323.2553,-83.6456 319.3941,-73.7795 316.2599,-83.9001 323.2553,-83.6456"/>
</g>
<!-- Node9&#45;&gt;Node11 -->
<g id="edge11" class="edge">
<title>Node9&#45;&gt;Node11</title>
<path fill="none" stroke="#191970" d="M351.1102,-110.4179C382.494,-100.9338 431.7766,-86.0407 465.6569,-75.8021"/>
<polygon fill="#191970" stroke="#191970" points="467.0801,-79.0284 475.6401,-72.7852 465.0551,-72.3277 467.0801,-79.0284"/>
</g>
<!-- Node9&#45;&gt;Node12 -->
<g id="edge12" class="edge">
<title>Node9&#45;&gt;Node12</title>
<path fill="none" stroke="#191970" d="M309.8278,-110.4179C299.6522,-102.1876 284.4404,-89.8839 272.3236,-80.0836"/>
<polygon fill="#191970" stroke="#191970" points="274.5056,-77.3469 264.5294,-73.7795 270.1035,-82.7895 274.5056,-77.3469"/>
</g>
<!-- Node13 -->
<g id="node14" class="node">
<title>Node13</title>
<polygon fill="#ffffff" stroke="#bfbfbf" points="361.4409,-55.5 361.4409,-73.5 404.6724,-73.5 404.6724,-55.5 361.4409,-55.5"/>
<text text-anchor="middle" x="383.0566" y="-61.5" font-family="Helvetica,sans-Serif" font-size="10.00" fill="#000000">vector</text>
</g>
<!-- Node9&#45;&gt;Node13 -->
<g id="edge13" class="edge">
<title>Node9&#45;&gt;Node13</title>
<path fill="none" stroke="#191970" d="M331.2947,-110.4179C340.394,-102.3458 353.9103,-90.3556 364.8493,-80.6517"/>
<polygon fill="#191970" stroke="#191970" points="367.4381,-83.0339 372.5962,-73.7795 362.7927,-77.7974 367.4381,-83.0339"/>
</g>
</g>
</svg>
