<?xml version="1.0" encoding="UTF-8" standalone="no"?>
<!DOCTYPE svg PUBLIC "-//W3C//DTD SVG 1.1//EN"
 "http://www.w3.org/Graphics/SVG/1.1/DTD/svg11.dtd">
<!-- Generated by graphviz version 2.40.1 (20161225.0304)
 -->
<!-- Title: /Users/Claudio/GitHub/bayes&#45;filters&#45;lib/src/BayesFilters/include/BayesFilters/MeasurementModelDecorator.h Pages: 1 -->
<!--zoomable 287 -->
<svg id="main" version="1.1" xmlns="http://www.w3.org/2000/svg" xmlns:xlink="http://www.w3.org/1999/xlink" xml:space="preserve" onload="init(evt)">
<style type="text/css"><![CDATA[
.edge:hover path { stroke: red; }
.edge:hover polygon { stroke: red; fill: red; }
]]></style>
<script type="text/javascript"><![CDATA[
var edges = document.getElementsByTagName('g');
if (edges && edges.length) {
  for (var i=0;i<edges.length;i++) {
    if (edges[i].id.substr(0,4)=='edge') {
      edges[i].setAttribute('class','edge');
    }
  }
}
]]></script>
        <defs>
                <circle id="rim" cx="0" cy="0" r="7"/>
                <circle id="rim2" cx="0" cy="0" r="3.5"/>
                <g id="zoomPlus">
                        <use xlink:href="#rim" fill="#404040">
                                <set attributeName="fill" to="#808080" begin="zoomplus.mouseover" end="zoomplus.mouseout"/>
                        </use>
                        <path d="M-4,0h8M0,-4v8" fill="none" stroke="white" stroke-width="1.5" pointer-events="none"/>
                </g>
                <g id="zoomMin">
                        <use xlink:href="#rim" fill="#404040">
                                <set attributeName="fill" to="#808080" begin="zoomminus.mouseover" end="zoomminus.mouseout"/>
                        </use>
                        <path d="M-4,0h8" fill="none" stroke="white" stroke-width="1.5" pointer-events="none"/>
                </g>
                <g id="dirArrow">
                        <path fill="none" stroke="white" stroke-width="1.5" d="M0,-3.0v7 M-2.5,-0.5L0,-3.0L2.5,-0.5"/>
                </g>
               <g id="resetDef">
                       <use xlink:href="#rim2" fill="#404040">
                               <set attributeName="fill" to="#808080" begin="reset.mouseover" end="reset.mouseout"/>
                       </use>
               </g>
        </defs>

<script type="text/javascript">
var viewWidth = 612;
var viewHeight = 287;
var sectionId = 'dynsection-0';
</script>
<script xlink:href="svgpan.js"/>
<svg id="graph" class="graph">
<g id="viewport">
<title>/Users/Claudio/GitHub/bayes&#45;filters&#45;lib/src/BayesFilters/include/BayesFilters/MeasurementModelDecorator.h</title>
<polygon fill="#ffffff" stroke="transparent" points="-4,4 -4,-283 607.5908,-283 607.5908,4 -4,4"/>
<!-- Node0 -->
<g id="node1" class="node">
<title>Node0</title>
<polygon fill="#bfbfbf" stroke="#000000" points="437.5371,-230.5 437.5371,-278.5 603.5908,-278.5 603.5908,-230.5 437.5371,-230.5"/>
<text text-anchor="start" x="445.5371" y="-266.5" font-family="Helvetica,sans-Serif" font-size="10.00" fill="#000000">/Users/Claudio/GitHub</text>
<text text-anchor="start" x="445.5371" y="-256.5" font-family="Helvetica,sans-Serif" font-size="10.00" fill="#000000">/bayes&#45;filters&#45;lib/src</text>
<text text-anchor="start" x="445.5371" y="-246.5" font-family="Helvetica,sans-Serif" font-size="10.00" fill="#000000">/BayesFilters/include/BayesFilters</text>
<text text-anchor="middle" x="520.564" y="-236.5" font-family="Helvetica,sans-Serif" font-size="10.00" fill="#000000">/MeasurementModelDecorator.h</text>
</g>
<!-- Node1 -->
<g id="node2" class="node">
<title>Node1</title>
<g id="a_node2"><a xlink:href="MeasurementModel_8h.html" target="_top" xlink:title="BayesFilters/Measurement\lModel.h">
<polygon fill="#ffffff" stroke="#000000" points="365.0986,-165.5 365.0986,-193.5 500.0293,-193.5 500.0293,-165.5 365.0986,-165.5"/>
<text text-anchor="start" x="373.0986" y="-181.5" font-family="Helvetica,sans-Serif" font-size="10.00" fill="#000000">BayesFilters/Measurement</text>
<text text-anchor="middle" x="432.564" y="-171.5" font-family="Helvetica,sans-Serif" font-size="10.00" fill="#000000">Model.h</text>
</a>
</g>
</g>
<!-- Node0&#45;&gt;Node1 -->
<g id="edge1" class="edge">
<title>Node0&#45;&gt;Node1</title>
<path fill="none" stroke="#191970" d="M492.2358,-230.3567C480.8649,-220.6655 467.8876,-209.6054 456.9457,-200.2799"/>
<polygon fill="#191970" stroke="#191970" points="458.9166,-197.3609 449.0354,-193.5382 454.376,-202.6885 458.9166,-197.3609"/>
</g>
<!-- Node5 -->
<g id="node6" class="node">
<title>Node5</title>
<polygon fill="#ffffff" stroke="#bfbfbf" points="545.5073,-.5 545.5073,-18.5 597.6206,-18.5 597.6206,-.5 545.5073,-.5"/>
<text text-anchor="middle" x="571.564" y="-6.5" font-family="Helvetica,sans-Serif" font-size="10.00" fill="#000000">memory</text>
</g>
<!-- Node0&#45;&gt;Node5 -->
<g id="edge18" class="edge">
<title>Node0&#45;&gt;Node5</title>
<path fill="none" stroke="#191970" d="M533.3828,-230.2753C550.3837,-196.4368 579.2174,-132.5723 587.564,-74 588.7553,-65.64 588.9849,-63.324 587.564,-55 585.9987,-45.8302 582.7788,-36.0505 579.6351,-27.917"/>
<polygon fill="#191970" stroke="#191970" points="582.8691,-26.5783 575.8243,-18.6649 576.3966,-29.2443 582.8691,-26.5783"/>
</g>
<!-- Node2 -->
<g id="node3" class="node">
<title>Node2</title>
<g id="a_node3"><a xlink:href="Data_8h.html" target="_top" xlink:title="BayesFilters/Data.h">
<polygon fill="#ffffff" stroke="#000000" points="106.936,-110.5 106.936,-128.5 210.1919,-128.5 210.1919,-110.5 106.936,-110.5"/>
<text text-anchor="middle" x="158.564" y="-116.5" font-family="Helvetica,sans-Serif" font-size="10.00" fill="#000000">BayesFilters/Data.h</text>
</a>
</g>
</g>
<!-- Node1&#45;&gt;Node2 -->
<g id="edge2" class="edge">
<title>Node1&#45;&gt;Node2</title>
<path fill="none" stroke="#191970" d="M368.3231,-165.4327C319.9423,-154.8383 254.5071,-140.5094 209.6603,-130.689"/>
<polygon fill="#191970" stroke="#191970" points="210.3718,-127.2619 199.8545,-128.5417 208.8743,-134.0999 210.3718,-127.2619"/>
</g>
<!-- Node1&#45;&gt;Node5 -->
<g id="edge14" class="edge">
<title>Node1&#45;&gt;Node5</title>
<path fill="none" stroke="#191970" d="M497.6504,-165.4539C518.1051,-157.9157 538.8944,-146.43 552.564,-129 575.3751,-99.9137 575.8044,-54.3548 573.843,-28.7099"/>
<polygon fill="#191970" stroke="#191970" points="577.3263,-28.3677 572.8799,-18.7511 570.3588,-29.0416 577.3263,-28.3677"/>
</g>
<!-- Node9 -->
<g id="node10" class="node">
<title>Node9</title>
<g id="a_node10"><a xlink:href="Logger_8h.html" target="_top" xlink:title="BayesFilters/Logger.h">
<polygon fill="#ffffff" stroke="#000000" points="245.2021,-110.5 245.2021,-128.5 357.9258,-128.5 357.9258,-110.5 245.2021,-110.5"/>
<text text-anchor="middle" x="301.564" y="-116.5" font-family="Helvetica,sans-Serif" font-size="10.00" fill="#000000">BayesFilters/Logger.h</text>
</a>
</g>
</g>
<!-- Node1&#45;&gt;Node9 -->
<g id="edge9" class="edge">
<title>Node1&#45;&gt;Node9</title>
<path fill="none" stroke="#191970" d="M401.8503,-165.4327C380.3399,-155.5806 351.7783,-142.4989 330.6387,-132.8167"/>
<polygon fill="#191970" stroke="#191970" points="332.0493,-129.6132 321.5001,-128.6311 329.1344,-135.9774 332.0493,-129.6132"/>
</g>
<!-- Node12 -->
<g id="node13" class="node">
<title>Node12</title>
<polygon fill="#ffffff" stroke="#bfbfbf" points="408.3374,-55.5 408.3374,-73.5 448.7905,-73.5 448.7905,-55.5 408.3374,-55.5"/>
<text text-anchor="middle" x="428.564" y="-61.5" font-family="Helvetica,sans-Serif" font-size="10.00" fill="#000000">string</text>
</g>
<!-- Node1&#45;&gt;Node12 -->
<g id="edge15" class="edge">
<title>Node1&#45;&gt;Node12</title>
<path fill="none" stroke="#191970" d="M422.1254,-165.3148C415.6673,-155.6268 407.9783,-142.1993 404.564,-129 400.4151,-112.9613 407.8011,-95.3749 415.4439,-82.6225"/>
<polygon fill="#191970" stroke="#191970" points="418.5947,-84.2002 421.1517,-73.9185 412.7411,-80.3616 418.5947,-84.2002"/>
</g>
<!-- Node14 -->
<g id="node15" class="node">
<title>Node14</title>
<polygon fill="#ffffff" stroke="#bfbfbf" points="413.1724,-110.5 413.1724,-128.5 451.9556,-128.5 451.9556,-110.5 413.1724,-110.5"/>
<text text-anchor="middle" x="432.564" y="-116.5" font-family="Helvetica,sans-Serif" font-size="10.00" fill="#000000">utility</text>
</g>
<!-- Node1&#45;&gt;Node14 -->
<g id="edge16" class="edge">
<title>Node1&#45;&gt;Node14</title>
<path fill="none" stroke="#191970" d="M432.564,-165.2808C432.564,-157.3776 432.564,-147.4316 432.564,-138.8308"/>
<polygon fill="#191970" stroke="#191970" points="436.0641,-138.5842 432.564,-128.5842 429.0641,-138.5842 436.0641,-138.5842"/>
</g>
<!-- Node15 -->
<g id="node16" class="node">
<title>Node15</title>
<polygon fill="#ffffff" stroke="#bfbfbf" points="469.9336,-110.5 469.9336,-128.5 543.1943,-128.5 543.1943,-110.5 469.9336,-110.5"/>
<text text-anchor="middle" x="506.564" y="-116.5" font-family="Helvetica,sans-Serif" font-size="10.00" fill="#000000">Eigen/Dense</text>
</g>
<!-- Node1&#45;&gt;Node15 -->
<g id="edge17" class="edge">
<title>Node1&#45;&gt;Node15</title>
<path fill="none" stroke="#191970" d="M450.1009,-165.2808C461.3816,-156.1344 476.0365,-144.252 487.589,-134.8851"/>
<polygon fill="#191970" stroke="#191970" points="489.7969,-137.6009 495.3601,-128.5842 485.3882,-132.1636 489.7969,-137.6009"/>
</g>
<!-- Node3 -->
<g id="node4" class="node">
<title>Node3</title>
<g id="a_node4"><a xlink:href="any_8h.html" target="_top" xlink:title="BayesFilters/any.h">
<polygon fill="#ffffff" stroke="#000000" points="91.8047,-55.5 91.8047,-73.5 189.3232,-73.5 189.3232,-55.5 91.8047,-55.5"/>
<text text-anchor="middle" x="140.564" y="-61.5" font-family="Helvetica,sans-Serif" font-size="10.00" fill="#000000">BayesFilters/any.h</text>
</a>
</g>
</g>
<!-- Node2&#45;&gt;Node3 -->
<g id="edge3" class="edge">
<title>Node2&#45;&gt;Node3</title>
<path fill="none" stroke="#191970" d="M155.5916,-110.4179C153.2089,-103.1372 149.7829,-92.669 146.8037,-83.5659"/>
<polygon fill="#191970" stroke="#191970" points="150.0377,-82.1948 143.6009,-73.7795 143.3849,-84.3721 150.0377,-82.1948"/>
</g>
<!-- Node4 -->
<g id="node5" class="node">
<title>Node4</title>
<polygon fill="#ffffff" stroke="#bfbfbf" points="0,-.5 0,-18.5 57.1279,-18.5 57.1279,-.5 0,-.5"/>
<text text-anchor="middle" x="28.564" y="-6.5" font-family="Helvetica,sans-Serif" font-size="10.00" fill="#000000">algorithm</text>
</g>
<!-- Node3&#45;&gt;Node4 -->
<g id="edge4" class="edge">
<title>Node3&#45;&gt;Node4</title>
<path fill="none" stroke="#191970" d="M122.0694,-55.4179C104.1548,-46.6205 76.7629,-33.1691 56.2496,-23.0956"/>
<polygon fill="#191970" stroke="#191970" points="57.6049,-19.8619 47.086,-18.5956 54.5193,-26.1452 57.6049,-19.8619"/>
</g>
<!-- Node3&#45;&gt;Node5 -->
<g id="edge5" class="edge">
<title>Node3&#45;&gt;Node5</title>
<path fill="none" stroke="#191970" d="M189.3596,-56.2221C192.1334,-55.7968 194.8829,-55.3863 197.564,-55 321.0846,-37.2018 468.2273,-20.6601 535.1722,-13.388"/>
<polygon fill="#191970" stroke="#191970" points="535.6465,-16.8572 545.212,-12.3017 534.8935,-9.8978 535.6465,-16.8572"/>
</g>
<!-- Node6 -->
<g id="node7" class="node">
<title>Node6</title>
<polygon fill="#ffffff" stroke="#bfbfbf" points="75.1626,-.5 75.1626,-18.5 133.9653,-18.5 133.9653,-.5 75.1626,-.5"/>
<text text-anchor="middle" x="104.564" y="-6.5" font-family="Helvetica,sans-Serif" font-size="10.00" fill="#000000">stdexcept</text>
</g>
<!-- Node3&#45;&gt;Node6 -->
<g id="edge6" class="edge">
<title>Node3&#45;&gt;Node6</title>
<path fill="none" stroke="#191970" d="M134.6193,-55.4179C129.6466,-47.8207 122.4021,-36.7527 116.2716,-27.3866"/>
<polygon fill="#191970" stroke="#191970" points="119.0429,-25.2297 110.6378,-18.7795 113.186,-29.0633 119.0429,-25.2297"/>
</g>
<!-- Node7 -->
<g id="node8" class="node">
<title>Node7</title>
<polygon fill="#ffffff" stroke="#bfbfbf" points="152.0518,-.5 152.0518,-18.5 203.0762,-18.5 203.0762,-.5 152.0518,-.5"/>
<text text-anchor="middle" x="177.564" y="-6.5" font-family="Helvetica,sans-Serif" font-size="10.00" fill="#000000">typeinfo</text>
</g>
<!-- Node3&#45;&gt;Node7 -->
<g id="edge7" class="edge">
<title>Node3&#45;&gt;Node7</title>
<path fill="none" stroke="#191970" d="M146.6738,-55.4179C151.8378,-47.7415 159.3857,-36.5217 165.7277,-27.0945"/>
<polygon fill="#191970" stroke="#191970" points="168.6436,-29.0303 171.3214,-18.7795 162.8356,-25.1231 168.6436,-29.0303"/>
</g>
<!-- Node8 -->
<g id="node9" class="node">
<title>Node8</title>
<polygon fill="#ffffff" stroke="#bfbfbf" points="221.4976,-.5 221.4976,-18.5 283.6304,-18.5 283.6304,-.5 221.4976,-.5"/>
<text text-anchor="middle" x="252.564" y="-6.5" font-family="Helvetica,sans-Serif" font-size="10.00" fill="#000000">type_traits</text>
</g>
<!-- Node3&#45;&gt;Node8 -->
<g id="edge8" class="edge">
<title>Node3&#45;&gt;Node8</title>
<path fill="none" stroke="#191970" d="M159.0585,-55.4179C176.9731,-46.6205 204.3651,-33.1691 224.8784,-23.0956"/>
<polygon fill="#191970" stroke="#191970" points="226.6086,-26.1452 234.042,-18.5956 223.5231,-19.8619 226.6086,-26.1452"/>
</g>
<!-- Node10 -->
<g id="node11" class="node">
<title>Node10</title>
<polygon fill="#ffffff" stroke="#bfbfbf" points="206.894,-55.5 206.894,-73.5 256.2339,-73.5 256.2339,-55.5 206.894,-55.5"/>
<text text-anchor="middle" x="231.564" y="-61.5" font-family="Helvetica,sans-Serif" font-size="10.00" fill="#000000">fstream</text>
</g>
<!-- Node9&#45;&gt;Node10 -->
<g id="edge10" class="edge">
<title>Node9&#45;&gt;Node10</title>
<path fill="none" stroke="#191970" d="M290.0049,-110.4179C279.53,-102.1876 263.8707,-89.8839 251.3976,-80.0836"/>
<polygon fill="#191970" stroke="#191970" points="253.3998,-77.2056 243.3742,-73.7795 249.075,-82.7098 253.3998,-77.2056"/>
</g>
<!-- Node11 -->
<g id="node12" class="node">
<title>Node11</title>
<polygon fill="#ffffff" stroke="#bfbfbf" points="274.3916,-55.5 274.3916,-73.5 328.7363,-73.5 328.7363,-55.5 274.3916,-55.5"/>
<text text-anchor="middle" x="301.564" y="-61.5" font-family="Helvetica,sans-Serif" font-size="10.00" fill="#000000">iostream</text>
</g>
<!-- Node9&#45;&gt;Node11 -->
<g id="edge11" class="edge">
<title>Node9&#45;&gt;Node11</title>
<path fill="none" stroke="#191970" d="M301.564,-110.4179C301.564,-103.2164 301.564,-92.8962 301.564,-83.8632"/>
<polygon fill="#191970" stroke="#191970" points="305.0641,-83.7794 301.564,-73.7795 298.0641,-83.7795 305.0641,-83.7794"/>
</g>
<!-- Node9&#45;&gt;Node12 -->
<g id="edge12" class="edge">
<title>Node9&#45;&gt;Node12</title>
<path fill="none" stroke="#191970" d="M322.5354,-110.4179C343.2484,-101.4477 375.1343,-87.6388 398.5321,-77.5059"/>
<polygon fill="#191970" stroke="#191970" points="400.1972,-80.599 407.9827,-73.4131 397.4153,-74.1755 400.1972,-80.599"/>
</g>
<!-- Node13 -->
<g id="node14" class="node">
<title>Node13</title>
<polygon fill="#ffffff" stroke="#bfbfbf" points="346.9482,-55.5 346.9482,-73.5 390.1797,-73.5 390.1797,-55.5 346.9482,-55.5"/>
<text text-anchor="middle" x="368.564" y="-61.5" font-family="Helvetica,sans-Serif" font-size="10.00" fill="#000000">vector</text>
</g>
<!-- Node9&#45;&gt;Node13 -->
<g id="edge13" class="edge">
<title>Node9&#45;&gt;Node13</title>
<path fill="none" stroke="#191970" d="M312.6277,-110.4179C322.5572,-102.2667 337.354,-90.1201 349.2351,-80.3669"/>
<polygon fill="#191970" stroke="#191970" points="351.7513,-82.8297 357.2599,-73.7795 347.3099,-77.4192 351.7513,-82.8297"/>
</g>
</g>
</svg>
        <g id="navigator" transform="translate(0 0)" fill="#404254">
                <rect fill="#f2f5e9" fill-opacity="0.5" stroke="#606060" stroke-width=".5" x="0" y="0" width="60" height="60"/>
                <use id="zoomplus" xlink:href="#zoomPlus" x="17" y="9" onmousedown="handleZoom(evt,'in')"/>
                <use id="zoomminus" xlink:href="#zoomMin" x="42" y="9" onmousedown="handleZoom(evt,'out')"/>
                <use id="reset" xlink:href="#resetDef" x="30" y="36" onmousedown="handleReset()"/>
                <g id="arrowUp" xlink:href="#dirArrow" transform="translate(30 24)" onmousedown="handlePan(0,-1)">
                  <use xlink:href="#rim" fill="#404040">
                        <set attributeName="fill" to="#808080" begin="arrowUp.mouseover" end="arrowUp.mouseout"/>
                  </use>
                  <path fill="none" stroke="white" stroke-width="1.5" d="M0,-3.0v7 M-2.5,-0.5L0,-3.0L2.5,-0.5"/>
                </g>
                <g id="arrowRight" xlink:href="#dirArrow" transform="rotate(90) translate(36 -43)" onmousedown="handlePan(1,0)">
                  <use xlink:href="#rim" fill="#404040">
                        <set attributeName="fill" to="#808080" begin="arrowRight.mouseover" end="arrowRight.mouseout"/>
                  </use>
                  <path fill="none" stroke="white" stroke-width="1.5" d="M0,-3.0v7 M-2.5,-0.5L0,-3.0L2.5,-0.5"/>
                </g>
                <g id="arrowDown" xlink:href="#dirArrow" transform="rotate(180) translate(-30 -48)" onmousedown="handlePan(0,1)">
                  <use xlink:href="#rim" fill="#404040">
                        <set attributeName="fill" to="#808080" begin="arrowDown.mouseover" end="arrowDown.mouseout"/>
                  </use>
                  <path fill="none" stroke="white" stroke-width="1.5" d="M0,-3.0v7 M-2.5,-0.5L0,-3.0L2.5,-0.5"/>
                </g>
                <g id="arrowLeft" xlink:href="#dirArrow" transform="rotate(270) translate(-36 17)" onmousedown="handlePan(-1,0)">
                  <use xlink:href="#rim" fill="#404040">
                        <set attributeName="fill" to="#808080" begin="arrowLeft.mouseover" end="arrowLeft.mouseout"/>
                  </use>
                  <path fill="none" stroke="white" stroke-width="1.5" d="M0,-3.0v7 M-2.5,-0.5L0,-3.0L2.5,-0.5"/>
                </g>
        </g>
        <svg viewBox="0 0 15 15" width="100%" height="30px" preserveAspectRatio="xMaxYMin meet">
         <g id="arrow_out" transform="scale(0.3 0.3)">
          <a xlink:href="MeasurementModelDecorator_8h__incl_org.svg" target="_base">
           <rect id="button" ry="5" rx="5" y="6" x="6" height="38" width="38"
                fill="#f2f5e9" fill-opacity="0.5" stroke="#606060" stroke-width="1.0"/>
           <path id="arrow"
             d="M 11.500037,31.436501 C 11.940474,20.09759 22.043105,11.32322 32.158766,21.979434 L 37.068811,17.246167 C 37.068811,17.246167 37.088388,32 37.088388,32 L 22.160133,31.978069 C 22.160133,31.978069 26.997745,27.140456 26.997745,27.140456 C 18.528582,18.264221 13.291696,25.230495 11.500037,31.436501 z"
             style="fill:#404040;"/>
          </a>
         </g>
        </svg>
</svg>
