<?xml version="1.0" encoding="UTF-8" standalone="no"?>
<!DOCTYPE svg PUBLIC "-//W3C//DTD SVG 1.1//EN"
 "http://www.w3.org/Graphics/SVG/1.1/DTD/svg11.dtd">
<!-- Generated by graphviz version 2.40.1 (20161225.0304)
 -->
<!-- Title: bfl::sigma_point::unscented_transform Pages: 1 -->
<svg width="649pt" height="252pt"
 viewBox="0.00 0.00 648.58 251.52" xmlns="http://www.w3.org/2000/svg" xmlns:xlink="http://www.w3.org/1999/xlink">
<g id="graph0" class="graph" transform="scale(1 1) rotate(0) translate(4 247.5157)">
<title>bfl::sigma_point::unscented_transform</title>
<polygon fill="#ffffff" stroke="transparent" points="-4,4 -4,-247.5157 644.5791,-247.5157 644.5791,4 -4,4"/>
<!-- Node35 -->
<g id="node1" class="node">
<title>Node35</title>
<polygon fill="#bfbfbf" stroke="#000000" points="0,-136.5673 0,-164.5673 137.7432,-164.5673 137.7432,-136.5673 0,-136.5673"/>
<text text-anchor="start" x="8" y="-152.5673" font-family="Helvetica,sans-Serif" font-size="10.00" fill="#000000">bfl::sigma_point::unscented</text>
<text text-anchor="middle" x="68.8716" y="-142.5673" font-family="Helvetica,sans-Serif" font-size="10.00" fill="#000000">_transform</text>
</g>
<!-- Node36 -->
<g id="node2" class="node">
<title>Node36</title>
<g id="a_node2"><a xlink:href="classbfl_1_1GaussianMixture.html#a65a60ef46d16ac33196a09963bbccdee" target="_top" xlink:title="bfl::GaussianMixture\l::covariance">
<polygon fill="#ffffff" stroke="#000000" points="526.2051,-213.5673 526.2051,-241.5673 633.3525,-241.5673 633.3525,-213.5673 526.2051,-213.5673"/>
<text text-anchor="start" x="534.2051" y="-229.5673" font-family="Helvetica,sans-Serif" font-size="10.00" fill="#000000">bfl::GaussianMixture</text>
<text text-anchor="middle" x="579.7788" y="-219.5673" font-family="Helvetica,sans-Serif" font-size="10.00" fill="#000000">::covariance</text>
</a>
</g>
</g>
<!-- Node35&#45;&gt;Node36 -->
<g id="edge1" class="edge">
<title>Node35&#45;&gt;Node36</title>
<path fill="none" stroke="#191970" d="M84.9205,-164.599C104.3919,-180.6339 138.9514,-206.0181 173.7432,-216.5673 290.3943,-251.9372 434.6364,-244.5572 516.0253,-236.0326"/>
<polygon fill="#191970" stroke="#191970" points="516.553,-239.496 526.1162,-234.9358 515.7965,-232.537 516.553,-239.496"/>
</g>
<!-- Node37 -->
<g id="node3" class="node">
<title>Node37</title>
<g id="a_node3"><a xlink:href="classbfl_1_1StateModel.html#a423c1fa86b9d60c8663dedc6cdcae276" target="_top" xlink:title="bfl::StateModel::getNoise\lCovarianceMatrix">
<polygon fill="#ffffff" stroke="#000000" points="185.6963,-178.5673 185.6963,-206.5673 313.4248,-206.5673 313.4248,-178.5673 185.6963,-178.5673"/>
<text text-anchor="start" x="193.6963" y="-194.5673" font-family="Helvetica,sans-Serif" font-size="10.00" fill="#000000">bfl::StateModel::getNoise</text>
<text text-anchor="middle" x="249.5605" y="-184.5673" font-family="Helvetica,sans-Serif" font-size="10.00" fill="#000000">CovarianceMatrix</text>
</a>
</g>
</g>
<!-- Node35&#45;&gt;Node37 -->
<g id="edge2" class="edge">
<title>Node35&#45;&gt;Node37</title>
<path fill="none" stroke="#191970" d="M129.2896,-164.6111C145.262,-168.3238 162.6414,-172.3635 179.0951,-176.1881"/>
<polygon fill="#191970" stroke="#191970" points="178.6667,-179.6817 189.1995,-178.5368 180.2516,-172.8635 178.6667,-179.6817"/>
</g>
<!-- Node38 -->
<g id="node4" class="node">
<title>Node38</title>
<g id="a_node4"><a xlink:href="classbfl_1_1StateModel.html#a6bf680b689389d959fc9ac46595e6dab" target="_top" xlink:title="Returns the linear and circular size of the output of the state equation. ">
<polygon fill="#ffffff" stroke="#000000" points="173.7432,-141.5673 173.7432,-159.5673 325.3779,-159.5673 325.3779,-141.5673 173.7432,-141.5673"/>
<text text-anchor="middle" x="249.5605" y="-147.5673" font-family="Helvetica,sans-Serif" font-size="10.00" fill="#000000">bfl::StateModel::getOutputSize</text>
</a>
</g>
</g>
<!-- Node35&#45;&gt;Node38 -->
<g id="edge3" class="edge">
<title>Node35&#45;&gt;Node38</title>
<path fill="none" stroke="#191970" d="M137.9558,-150.5673C146.3338,-150.5673 154.9704,-150.5673 163.5547,-150.5673"/>
<polygon fill="#191970" stroke="#191970" points="163.5893,-154.0674 173.5893,-150.5673 163.5892,-147.0674 163.5893,-154.0674"/>
</g>
<!-- Node39 -->
<g id="node5" class="node">
<title>Node39</title>
<g id="a_node5"><a xlink:href="classbfl_1_1StateModel.html#a39cd8c8c5adbd623884583b4a7a7415c" target="_top" xlink:title="bfl::StateModel::propagate">
<polygon fill="#ffffff" stroke="#000000" points="182.9106,-104.5673 182.9106,-122.5673 316.2104,-122.5673 316.2104,-104.5673 182.9106,-104.5673"/>
<text text-anchor="middle" x="249.5605" y="-110.5673" font-family="Helvetica,sans-Serif" font-size="10.00" fill="#000000">bfl::StateModel::propagate</text>
</a>
</g>
</g>
<!-- Node35&#45;&gt;Node39 -->
<g id="edge4" class="edge">
<title>Node35&#45;&gt;Node39</title>
<path fill="none" stroke="#191970" d="M137.44,-136.5264C156.6457,-132.5936 177.2477,-128.375 195.4852,-124.6404"/>
<polygon fill="#191970" stroke="#191970" points="196.2555,-128.0554 205.35,-122.6204 194.8511,-121.1977 196.2555,-128.0554"/>
</g>
<!-- Node40 -->
<g id="node6" class="node">
<title>Node40</title>
<g id="a_node6"><a xlink:href="namespacebfl_1_1sigma__point.html#afe170453152d4f96db4dad71bd9be9a3" target="_top" xlink:title="bfl::sigma_point::unscented\l_transform">
<polygon fill="#ffffff" stroke="#000000" points="180.689,-57.5673 180.689,-85.5673 318.4321,-85.5673 318.4321,-57.5673 180.689,-57.5673"/>
<text text-anchor="start" x="188.689" y="-73.5673" font-family="Helvetica,sans-Serif" font-size="10.00" fill="#000000">bfl::sigma_point::unscented</text>
<text text-anchor="middle" x="249.5605" y="-63.5673" font-family="Helvetica,sans-Serif" font-size="10.00" fill="#000000">_transform</text>
</a>
</g>
</g>
<!-- Node35&#45;&gt;Node40 -->
<g id="edge5" class="edge">
<title>Node35&#45;&gt;Node40</title>
<path fill="none" stroke="#191970" d="M91.9707,-136.5322C112.8047,-124.29 144.5653,-106.6464 173.7432,-94.5673 178.4674,-92.6116 183.4182,-90.7389 188.4301,-88.9663"/>
<polygon fill="#191970" stroke="#191970" points="189.755,-92.2128 198.1004,-85.6855 187.506,-85.5839 189.755,-92.2128"/>
</g>
<!-- Node41 -->
<g id="node7" class="node">
<title>Node41</title>
<g id="a_node7"><a xlink:href="namespacebfl_1_1any.html#a4ecb51ad57b3fa935cabdc0dcdcb4df1" target="_top" xlink:title="Performs type&#45;safe access to the contained object. ">
<polygon fill="#ffffff" stroke="#000000" points="375.2671,-113.5673 375.2671,-131.5673 469.0894,-131.5673 469.0894,-113.5673 375.2671,-113.5673"/>
<text text-anchor="middle" x="422.1782" y="-119.5673" font-family="Helvetica,sans-Serif" font-size="10.00" fill="#000000">bfl::any::any_cast</text>
</a>
</g>
</g>
<!-- Node40&#45;&gt;Node41 -->
<g id="edge6" class="edge">
<title>Node40&#45;&gt;Node41</title>
<path fill="none" stroke="#191970" d="M297.186,-85.6383C323.7917,-93.4989 356.5808,-103.1865 381.8995,-110.6669"/>
<polygon fill="#191970" stroke="#191970" points="380.9734,-114.0428 391.5553,-113.5198 382.9569,-107.3297 380.9734,-114.0428"/>
</g>
<!-- Node42 -->
<g id="node8" class="node">
<title>Node42</title>
<g id="a_node8"><a xlink:href="namespacebfl_1_1directional__statistics.html#ad8758aac208bc2baa75aad514a3f53e6" target="_top" xlink:title="bfl::directional_statistics\l::directional_mean">
<polygon fill="#ffffff" stroke="#000000" points="361.3779,-66.5673 361.3779,-94.5673 482.9785,-94.5673 482.9785,-66.5673 361.3779,-66.5673"/>
<text text-anchor="start" x="369.3779" y="-82.5673" font-family="Helvetica,sans-Serif" font-size="10.00" fill="#000000">bfl::directional_statistics</text>
<text text-anchor="middle" x="422.1782" y="-72.5673" font-family="Helvetica,sans-Serif" font-size="10.00" fill="#000000">::directional_mean</text>
</a>
</g>
</g>
<!-- Node40&#45;&gt;Node42 -->
<g id="edge7" class="edge">
<title>Node40&#45;&gt;Node42</title>
<path fill="none" stroke="#191970" d="M318.7761,-75.1761C329.4381,-75.732 340.4626,-76.3068 351.1631,-76.8647"/>
<polygon fill="#191970" stroke="#191970" points="351.132,-80.3677 361.3007,-77.3933 351.4966,-73.3772 351.132,-80.3677"/>
</g>
<!-- Node43 -->
<g id="node9" class="node">
<title>Node43</title>
<g id="a_node9"><a xlink:href="namespacebfl_1_1directional__statistics.html#a18bffca88c7ea5f4ea11d2ad910736fe" target="_top" xlink:title="bfl::directional_statistics\l::directional_sub">
<polygon fill="#ffffff" stroke="#000000" points="361.3779,-19.5673 361.3779,-47.5673 482.9785,-47.5673 482.9785,-19.5673 361.3779,-19.5673"/>
<text text-anchor="start" x="369.3779" y="-35.5673" font-family="Helvetica,sans-Serif" font-size="10.00" fill="#000000">bfl::directional_statistics</text>
<text text-anchor="middle" x="422.1782" y="-25.5673" font-family="Helvetica,sans-Serif" font-size="10.00" fill="#000000">::directional_sub</text>
</a>
</g>
</g>
<!-- Node40&#45;&gt;Node43 -->
<g id="edge8" class="edge">
<title>Node40&#45;&gt;Node43</title>
<path fill="none" stroke="#191970" d="M313.3466,-57.5255C325.6989,-54.8062 338.7131,-51.9413 351.277,-49.1755"/>
<polygon fill="#191970" stroke="#191970" points="352.2216,-52.5514 361.2353,-46.9833 350.7166,-45.7151 352.2216,-52.5514"/>
</g>
<!-- Node44 -->
<g id="node10" class="node">
<title>Node44</title>
<g id="a_node10"><a xlink:href="classbfl_1_1GaussianMixture.html#af4fd865a97ac27c72510cfbf9429bd97" target="_top" xlink:title="bfl::GaussianMixture\l::mean">
<polygon fill="#ffffff" stroke="#000000" points="526.2051,-40.5673 526.2051,-68.5673 633.3525,-68.5673 633.3525,-40.5673 526.2051,-40.5673"/>
<text text-anchor="start" x="534.2051" y="-56.5673" font-family="Helvetica,sans-Serif" font-size="10.00" fill="#000000">bfl::GaussianMixture</text>
<text text-anchor="middle" x="579.7788" y="-46.5673" font-family="Helvetica,sans-Serif" font-size="10.00" fill="#000000">::mean</text>
</a>
</g>
</g>
<!-- Node40&#45;&gt;Node44 -->
<g id="edge9" class="edge">
<title>Node40&#45;&gt;Node44</title>
<path fill="none" stroke="#191970" d="M268.0766,-57.3881C289.2793,-42.125 325.7048,-18.7954 361.3779,-9.5673 413.7003,3.9677 430.208,2.099 482.9785,-9.5673 505.8895,-14.6324 529.8155,-25.6943 548.1486,-35.5825"/>
<polygon fill="#191970" stroke="#191970" points="546.4883,-38.6639 556.9299,-40.4592 549.8869,-32.5442 546.4883,-38.6639"/>
</g>
<!-- Node45 -->
<g id="node11" class="node">
<title>Node45</title>
<g id="a_node11"><a xlink:href="namespacebfl_1_1sigma__point.html#ab919aca5fccc30ee2acd5cd966cd9dc9" target="_top" xlink:title="bfl::sigma_point::sigma\l_point">
<polygon fill="#ffffff" stroke="#000000" points="363.043,-150.5673 363.043,-178.5673 481.3135,-178.5673 481.3135,-150.5673 363.043,-150.5673"/>
<text text-anchor="start" x="371.043" y="-166.5673" font-family="Helvetica,sans-Serif" font-size="10.00" fill="#000000">bfl::sigma_point::sigma</text>
<text text-anchor="middle" x="422.1782" y="-156.5673" font-family="Helvetica,sans-Serif" font-size="10.00" fill="#000000">_point</text>
</a>
</g>
</g>
<!-- Node40&#45;&gt;Node45 -->
<g id="edge10" class="edge">
<title>Node40&#45;&gt;Node45</title>
<path fill="none" stroke="#191970" d="M309.1931,-85.6718C314.8983,-88.1796 320.4029,-91.1208 325.3779,-94.5673 347.0073,-109.5512 340.2635,-125.8662 361.3779,-141.5673 363.2543,-142.9626 365.2251,-144.2827 367.2629,-145.5306"/>
<polygon fill="#191970" stroke="#191970" points="366.0798,-148.8698 376.5407,-150.5492 369.4104,-142.7129 366.0798,-148.8698"/>
</g>
<!-- Node45&#45;&gt;Node36 -->
<g id="edge11" class="edge">
<title>Node45&#45;&gt;Node36</title>
<path fill="none" stroke="#191970" d="M457.5469,-178.7057C480.4608,-187.8655 510.4999,-199.8734 535.0646,-209.6931"/>
<polygon fill="#191970" stroke="#191970" points="533.9434,-213.0141 544.5282,-213.4761 536.5418,-206.5142 533.9434,-213.0141"/>
</g>
<!-- Node45&#45;&gt;Node44 -->
<g id="edge13" class="edge">
<title>Node45&#45;&gt;Node44</title>
<path fill="none" stroke="#191970" d="M465.3176,-150.5445C471.422,-147.9084 477.484,-144.9126 482.9785,-141.5673 512.8332,-123.3908 541.9519,-95.4155 560.3237,-76.1197"/>
<polygon fill="#191970" stroke="#191970" points="563.0021,-78.3799 567.2791,-68.6867 557.8909,-73.597 563.0021,-78.3799"/>
</g>
<!-- Node46 -->
<g id="node12" class="node">
<title>Node46</title>
<g id="a_node12"><a xlink:href="namespacebfl_1_1directional__statistics.html#af9984a4df2b3f6f0bc0c264783181123" target="_top" xlink:title="bfl::directional_statistics\l::directional_add">
<polygon fill="#ffffff" stroke="#000000" points="518.9785,-150.5673 518.9785,-178.5673 640.5791,-178.5673 640.5791,-150.5673 518.9785,-150.5673"/>
<text text-anchor="start" x="526.9785" y="-166.5673" font-family="Helvetica,sans-Serif" font-size="10.00" fill="#000000">bfl::directional_statistics</text>
<text text-anchor="middle" x="579.7788" y="-156.5673" font-family="Helvetica,sans-Serif" font-size="10.00" fill="#000000">::directional_add</text>
</a>
</g>
</g>
<!-- Node45&#45;&gt;Node46 -->
<g id="edge12" class="edge">
<title>Node45&#45;&gt;Node46</title>
<path fill="none" stroke="#191970" d="M481.7602,-164.5673C490.5635,-164.5673 499.7075,-164.5673 508.7154,-164.5673"/>
<polygon fill="#191970" stroke="#191970" points="508.8023,-168.0674 518.8023,-164.5673 508.8022,-161.0674 508.8023,-168.0674"/>
</g>
</g>
</svg>
