<?xml version="1.0" encoding="UTF-8" standalone="no"?>
<!DOCTYPE svg PUBLIC "-//W3C//DTD SVG 1.1//EN"
 "http://www.w3.org/Graphics/SVG/1.1/DTD/svg11.dtd">
<!-- Generated by graphviz version 2.40.1 (20161225.0304)
 -->
<!-- Title: bfl::sigma_point::unscented_transform Pages: 1 -->
<svg width="461pt" height="257pt"
 viewBox="0.00 0.00 460.94 257.00" xmlns="http://www.w3.org/2000/svg" xmlns:xlink="http://www.w3.org/1999/xlink">
<g id="graph0" class="graph" transform="scale(1 1) rotate(0) translate(4 253)">
<title>bfl::sigma_point::unscented_transform</title>
<polygon fill="#ffffff" stroke="transparent" points="-4,4 -4,-253 456.9443,-253 456.9443,4 -4,4"/>
<!-- Node4 -->
<g id="node1" class="node">
<title>Node4</title>
<polygon fill="#bfbfbf" stroke="#000000" points="0,-136.5 0,-164.5 137.7432,-164.5 137.7432,-136.5 0,-136.5"/>
<text text-anchor="start" x="8" y="-152.5" font-family="Helvetica,sans-Serif" font-size="10.00" fill="#000000">bfl::sigma_point::unscented</text>
<text text-anchor="middle" x="68.8716" y="-142.5" font-family="Helvetica,sans-Serif" font-size="10.00" fill="#000000">_transform</text>
</g>
<!-- Node5 -->
<g id="node2" class="node">
<title>Node5</title>
<g id="a_node2"><a xlink:href="namespacebfl_1_1any.html#a4ecb51ad57b3fa935cabdc0dcdcb4df1" target="_top" xlink:title="Performs type&#45;safe access to the contained object. ">
<polygon fill="#ffffff" stroke="#000000" points="187.6323,-230.5 187.6323,-248.5 281.4546,-248.5 281.4546,-230.5 187.6323,-230.5"/>
<text text-anchor="middle" x="234.5435" y="-236.5" font-family="Helvetica,sans-Serif" font-size="10.00" fill="#000000">bfl::any::any_cast</text>
</a>
</g>
</g>
<!-- Node4&#45;&gt;Node5 -->
<g id="edge1" class="edge">
<title>Node4&#45;&gt;Node5</title>
<path fill="none" stroke="#191970" d="M86.0468,-164.5887C106.032,-180.377 140.5454,-205.811 173.7432,-221.5 178.1163,-223.5667 182.7792,-225.4542 187.5038,-227.1631"/>
<polygon fill="#191970" stroke="#191970" points="186.6209,-230.5586 197.2148,-230.4204 188.847,-223.922 186.6209,-230.5586"/>
</g>
<!-- Node6 -->
<g id="node3" class="node">
<title>Node6</title>
<g id="a_node3"><a xlink:href="namespacebfl_1_1directional__statistics.html#ad8758aac208bc2baa75aad514a3f53e6" target="_top" xlink:title="bfl::directional_statistics\l::directional_mean">
<polygon fill="#ffffff" stroke="#000000" points="173.7432,-183.5 173.7432,-211.5 295.3438,-211.5 295.3438,-183.5 173.7432,-183.5"/>
<text text-anchor="start" x="181.7432" y="-199.5" font-family="Helvetica,sans-Serif" font-size="10.00" fill="#000000">bfl::directional_statistics</text>
<text text-anchor="middle" x="234.5435" y="-189.5" font-family="Helvetica,sans-Serif" font-size="10.00" fill="#000000">::directional_mean</text>
</a>
</g>
</g>
<!-- Node4&#45;&gt;Node6 -->
<g id="edge2" class="edge">
<title>Node4&#45;&gt;Node6</title>
<path fill="none" stroke="#191970" d="M118.5786,-164.6015C136.4336,-169.6669 156.7471,-175.4297 175.3299,-180.7015"/>
<polygon fill="#191970" stroke="#191970" points="174.5816,-184.1273 185.1572,-183.4894 176.4921,-177.393 174.5816,-184.1273"/>
</g>
<!-- Node7 -->
<g id="node4" class="node">
<title>Node7</title>
<g id="a_node4"><a xlink:href="namespacebfl_1_1directional__statistics.html#a18bffca88c7ea5f4ea11d2ad910736fe" target="_top" xlink:title="bfl::directional_statistics\l::directional_sub">
<polygon fill="#ffffff" stroke="#000000" points="173.7432,-136.5 173.7432,-164.5 295.3438,-164.5 295.3438,-136.5 173.7432,-136.5"/>
<text text-anchor="start" x="181.7432" y="-152.5" font-family="Helvetica,sans-Serif" font-size="10.00" fill="#000000">bfl::directional_statistics</text>
<text text-anchor="middle" x="234.5435" y="-142.5" font-family="Helvetica,sans-Serif" font-size="10.00" fill="#000000">::directional_sub</text>
</a>
</g>
</g>
<!-- Node4&#45;&gt;Node7 -->
<g id="edge3" class="edge">
<title>Node4&#45;&gt;Node7</title>
<path fill="none" stroke="#191970" d="M138.1714,-150.5C146.5555,-150.5 155.1297,-150.5 163.5378,-150.5"/>
<polygon fill="#191970" stroke="#191970" points="163.6877,-154.0001 173.6877,-150.5 163.6876,-147.0001 163.6877,-154.0001"/>
</g>
<!-- Node8 -->
<g id="node5" class="node">
<title>Node8</title>
<g id="a_node5"><a xlink:href="classbfl_1_1GaussianMixture.html#af4fd865a97ac27c72510cfbf9429bd97" target="_top" xlink:title="bfl::GaussianMixture\l::mean">
<polygon fill="#ffffff" stroke="#000000" points="338.5703,-94.5 338.5703,-122.5 445.7178,-122.5 445.7178,-94.5 338.5703,-94.5"/>
<text text-anchor="start" x="346.5703" y="-110.5" font-family="Helvetica,sans-Serif" font-size="10.00" fill="#000000">bfl::GaussianMixture</text>
<text text-anchor="middle" x="392.144" y="-100.5" font-family="Helvetica,sans-Serif" font-size="10.00" fill="#000000">::mean</text>
</a>
</g>
</g>
<!-- Node4&#45;&gt;Node8 -->
<g id="edge4" class="edge">
<title>Node4&#45;&gt;Node8</title>
<path fill="none" stroke="#191970" d="M126.5921,-136.4407C141.8508,-133.1091 158.357,-129.8464 173.7432,-127.5 225.4695,-119.6115 284.6251,-114.7162 328.3129,-111.8741"/>
<polygon fill="#191970" stroke="#191970" points="328.7508,-115.3535 338.5101,-111.2297 328.3092,-108.3675 328.7508,-115.3535"/>
</g>
<!-- Node9 -->
<g id="node6" class="node">
<title>Node9</title>
<g id="a_node6"><a xlink:href="namespacebfl_1_1sigma__point.html#ab919aca5fccc30ee2acd5cd966cd9dc9" target="_top" xlink:title="bfl::sigma_point::sigma\l_point">
<polygon fill="#ffffff" stroke="#000000" points="175.4082,-49.5 175.4082,-77.5 293.6787,-77.5 293.6787,-49.5 175.4082,-49.5"/>
<text text-anchor="start" x="183.4082" y="-65.5" font-family="Helvetica,sans-Serif" font-size="10.00" fill="#000000">bfl::sigma_point::sigma</text>
<text text-anchor="middle" x="234.5435" y="-55.5" font-family="Helvetica,sans-Serif" font-size="10.00" fill="#000000">_point</text>
</a>
</g>
</g>
<!-- Node4&#45;&gt;Node9 -->
<g id="edge5" class="edge">
<title>Node4&#45;&gt;Node9</title>
<path fill="none" stroke="#191970" d="M94.1515,-136.3962C115.3004,-124.685 146.3291,-107.7063 173.7432,-93.5 180.9444,-89.7682 188.6739,-85.8719 196.1257,-82.1699"/>
<polygon fill="#191970" stroke="#191970" points="197.9389,-85.1781 205.3553,-77.6118 194.8393,-78.9017 197.9389,-85.1781"/>
</g>
<!-- Node9&#45;&gt;Node8 -->
<g id="edge8" class="edge">
<title>Node9&#45;&gt;Node8</title>
<path fill="none" stroke="#191970" d="M283.9769,-77.6148C299.5262,-82.0546 316.8557,-87.0028 333.0077,-91.6147"/>
<polygon fill="#191970" stroke="#191970" points="332.3094,-95.0551 342.886,-94.4353 334.2313,-88.3241 332.3094,-95.0551"/>
</g>
<!-- Node10 -->
<g id="node7" class="node">
<title>Node10</title>
<g id="a_node7"><a xlink:href="classbfl_1_1GaussianMixture.html#a65a60ef46d16ac33196a09963bbccdee" target="_top" xlink:title="bfl::GaussianMixture\l::covariance">
<polygon fill="#ffffff" stroke="#000000" points="338.5703,-47.5 338.5703,-75.5 445.7178,-75.5 445.7178,-47.5 338.5703,-47.5"/>
<text text-anchor="start" x="346.5703" y="-63.5" font-family="Helvetica,sans-Serif" font-size="10.00" fill="#000000">bfl::GaussianMixture</text>
<text text-anchor="middle" x="392.144" y="-53.5" font-family="Helvetica,sans-Serif" font-size="10.00" fill="#000000">::covariance</text>
</a>
</g>
</g>
<!-- Node9&#45;&gt;Node10 -->
<g id="edge6" class="edge">
<title>Node9&#45;&gt;Node10</title>
<path fill="none" stroke="#191970" d="M294.1255,-62.7439C305.2707,-62.6025 316.9621,-62.4541 328.2319,-62.3111"/>
<polygon fill="#191970" stroke="#191970" points="328.4806,-65.8083 338.4354,-62.1816 328.3917,-58.8089 328.4806,-65.8083"/>
</g>
<!-- Node11 -->
<g id="node8" class="node">
<title>Node11</title>
<g id="a_node8"><a xlink:href="namespacebfl_1_1directional__statistics.html#af9984a4df2b3f6f0bc0c264783181123" target="_top" xlink:title="bfl::directional_statistics\l::directional_add">
<polygon fill="#ffffff" stroke="#000000" points="331.3438,-.5 331.3438,-28.5 452.9443,-28.5 452.9443,-.5 331.3438,-.5"/>
<text text-anchor="start" x="339.3438" y="-16.5" font-family="Helvetica,sans-Serif" font-size="10.00" fill="#000000">bfl::directional_statistics</text>
<text text-anchor="middle" x="392.144" y="-6.5" font-family="Helvetica,sans-Serif" font-size="10.00" fill="#000000">::directional_add</text>
</a>
</g>
</g>
<!-- Node9&#45;&gt;Node11 -->
<g id="edge7" class="edge">
<title>Node9&#45;&gt;Node11</title>
<path fill="none" stroke="#191970" d="M279.7055,-49.4586C297.6754,-43.8715 318.5186,-37.3911 337.342,-31.5386"/>
<polygon fill="#191970" stroke="#191970" points="338.4655,-34.8547 346.9754,-28.5435 336.3872,-28.1703 338.4655,-34.8547"/>
</g>
</g>
</svg>
