<?xml version="1.0" encoding="UTF-8" standalone="no"?>
<!DOCTYPE svg PUBLIC "-//W3C//DTD SVG 1.1//EN"
 "http://www.w3.org/Graphics/SVG/1.1/DTD/svg11.dtd">
<!-- Generated by graphviz version 2.40.1 (20161225.0304)
 -->
<!-- Title: bfl::sigma_point::unscented_transform Pages: 1 -->
<svg width="649pt" height="281pt"
 viewBox="0.00 0.00 648.58 280.66" xmlns="http://www.w3.org/2000/svg" xmlns:xlink="http://www.w3.org/1999/xlink">
<g id="graph0" class="graph" transform="scale(1 1) rotate(0) translate(4 276.6628)">
<title>bfl::sigma_point::unscented_transform</title>
<polygon fill="#ffffff" stroke="transparent" points="-4,4 -4,-276.6628 644.5791,-276.6628 644.5791,4 -4,4"/>
<!-- Node47 -->
<g id="node1" class="node">
<title>Node47</title>
<polygon fill="#bfbfbf" stroke="#000000" points="0,-146.442 0,-174.442 137.7432,-174.442 137.7432,-146.442 0,-146.442"/>
<text text-anchor="start" x="8" y="-162.442" font-family="Helvetica,sans-Serif" font-size="10.00" fill="#000000">bfl::sigma_point::unscented</text>
<text text-anchor="middle" x="68.8716" y="-152.442" font-family="Helvetica,sans-Serif" font-size="10.00" fill="#000000">_transform</text>
</g>
<!-- Node48 -->
<g id="node2" class="node">
<title>Node48</title>
<g id="a_node2"><a xlink:href="classbfl_1_1GaussianMixture.html#a65a60ef46d16ac33196a09963bbccdee" target="_top" xlink:title="bfl::GaussianMixture\l::covariance">
<polygon fill="#ffffff" stroke="#000000" points="526.2051,-224.442 526.2051,-252.442 633.3525,-252.442 633.3525,-224.442 526.2051,-224.442"/>
<text text-anchor="start" x="534.2051" y="-240.442" font-family="Helvetica,sans-Serif" font-size="10.00" fill="#000000">bfl::GaussianMixture</text>
<text text-anchor="middle" x="579.7788" y="-230.442" font-family="Helvetica,sans-Serif" font-size="10.00" fill="#000000">::covariance</text>
</a>
</g>
</g>
<!-- Node47&#45;&gt;Node48 -->
<g id="edge1" class="edge">
<title>Node47&#45;&gt;Node48</title>
<path fill="none" stroke="#191970" d="M80.2301,-174.7267C97.7189,-195.4366 133.4664,-232.9103 173.7432,-247.442 288.666,-288.9059 434.0324,-270.1172 515.9824,-253.644"/>
<polygon fill="#191970" stroke="#191970" points="516.8116,-257.0468 525.8988,-251.5994 515.398,-250.191 516.8116,-257.0468"/>
</g>
<!-- Node49 -->
<g id="node3" class="node">
<title>Node49</title>
<g id="a_node3"><a xlink:href="classbfl_1_1StateModel.html#a423c1fa86b9d60c8663dedc6cdcae276" target="_top" xlink:title="bfl::StateModel::getNoise\lCovarianceMatrix">
<polygon fill="#ffffff" stroke="#000000" points="185.6963,-209.442 185.6963,-237.442 313.4248,-237.442 313.4248,-209.442 185.6963,-209.442"/>
<text text-anchor="start" x="193.6963" y="-225.442" font-family="Helvetica,sans-Serif" font-size="10.00" fill="#000000">bfl::StateModel::getNoise</text>
<text text-anchor="middle" x="249.5605" y="-215.442" font-family="Helvetica,sans-Serif" font-size="10.00" fill="#000000">CovarianceMatrix</text>
</a>
</g>
</g>
<!-- Node47&#45;&gt;Node49 -->
<g id="edge2" class="edge">
<title>Node47&#45;&gt;Node49</title>
<path fill="none" stroke="#191970" d="M104.0839,-174.5772C124.3338,-182.5284 150.3266,-192.4353 173.7432,-200.442 179.4129,-202.3807 185.3485,-204.3255 191.2953,-206.2183"/>
<polygon fill="#191970" stroke="#191970" points="190.6797,-209.6932 201.2688,-209.3444 192.7734,-203.0136 190.6797,-209.6932"/>
</g>
<!-- Node50 -->
<g id="node4" class="node">
<title>Node50</title>
<g id="a_node4"><a xlink:href="classbfl_1_1StateModel.html#a6bf680b689389d959fc9ac46595e6dab" target="_top" xlink:title="Returns the linear and circular size of the output of the state equation. ">
<polygon fill="#ffffff" stroke="#000000" points="173.7432,-172.442 173.7432,-190.442 325.3779,-190.442 325.3779,-172.442 173.7432,-172.442"/>
<text text-anchor="middle" x="249.5605" y="-178.442" font-family="Helvetica,sans-Serif" font-size="10.00" fill="#000000">bfl::StateModel::getOutputSize</text>
</a>
</g>
</g>
<!-- Node47&#45;&gt;Node50 -->
<g id="edge3" class="edge">
<title>Node47&#45;&gt;Node50</title>
<path fill="none" stroke="#191970" d="M137.9558,-168.4711C146.3338,-169.4448 154.9704,-170.4486 163.5547,-171.4463"/>
<polygon fill="#191970" stroke="#191970" points="163.252,-174.9346 173.5893,-172.6125 164.0602,-167.9814 163.252,-174.9346"/>
</g>
<!-- Node51 -->
<g id="node5" class="node">
<title>Node51</title>
<g id="a_node5"><a xlink:href="classbfl_1_1ExogenousModel.html#a9f3ec7b8fa1a6c1bb4f5889ba85e6d91" target="_top" xlink:title="bfl::ExogenousModel\l::propagate">
<polygon fill="#ffffff" stroke="#000000" points="194.8638,-125.442 194.8638,-153.442 304.2573,-153.442 304.2573,-125.442 194.8638,-125.442"/>
<text text-anchor="start" x="202.8638" y="-141.442" font-family="Helvetica,sans-Serif" font-size="10.00" fill="#000000">bfl::ExogenousModel</text>
<text text-anchor="middle" x="249.5605" y="-131.442" font-family="Helvetica,sans-Serif" font-size="10.00" fill="#000000">::propagate</text>
</a>
</g>
</g>
<!-- Node47&#45;&gt;Node51 -->
<g id="edge4" class="edge">
<title>Node47&#45;&gt;Node51</title>
<path fill="none" stroke="#191970" d="M137.9558,-152.4129C153.2548,-150.6349 169.4162,-148.7565 184.5464,-146.9981"/>
<polygon fill="#191970" stroke="#191970" points="185.3041,-150.4337 194.8331,-145.8025 184.4959,-143.4805 185.3041,-150.4337"/>
</g>
<!-- Node52 -->
<g id="node6" class="node">
<title>Node52</title>
<g id="a_node6"><a xlink:href="classbfl_1_1StateModel.html#a39cd8c8c5adbd623884583b4a7a7415c" target="_top" xlink:title="bfl::StateModel::propagate">
<polygon fill="#ffffff" stroke="#000000" points="182.9106,-88.442 182.9106,-106.442 316.2104,-106.442 316.2104,-88.442 182.9106,-88.442"/>
<text text-anchor="middle" x="249.5605" y="-94.442" font-family="Helvetica,sans-Serif" font-size="10.00" fill="#000000">bfl::StateModel::propagate</text>
</a>
</g>
</g>
<!-- Node47&#45;&gt;Node52 -->
<g id="edge5" class="edge">
<title>Node47&#45;&gt;Node52</title>
<path fill="none" stroke="#191970" d="M99.1492,-146.2977C119.8485,-136.9874 148.0784,-124.9869 173.7432,-116.442 181.794,-113.7615 190.4354,-111.2569 198.8985,-109.0022"/>
<polygon fill="#191970" stroke="#191970" points="199.8955,-112.3597 208.7055,-106.4745 198.1484,-105.5812 199.8955,-112.3597"/>
</g>
<!-- Node53 -->
<g id="node7" class="node">
<title>Node53</title>
<g id="a_node7"><a xlink:href="namespacebfl_1_1sigma__point.html#afe170453152d4f96db4dad71bd9be9a3" target="_top" xlink:title="bfl::sigma_point::unscented\l_transform">
<polygon fill="#ffffff" stroke="#000000" points="180.689,-41.442 180.689,-69.442 318.4321,-69.442 318.4321,-41.442 180.689,-41.442"/>
<text text-anchor="start" x="188.689" y="-57.442" font-family="Helvetica,sans-Serif" font-size="10.00" fill="#000000">bfl::sigma_point::unscented</text>
<text text-anchor="middle" x="249.5605" y="-47.442" font-family="Helvetica,sans-Serif" font-size="10.00" fill="#000000">_transform</text>
</a>
</g>
</g>
<!-- Node47&#45;&gt;Node53 -->
<g id="edge6" class="edge">
<title>Node47&#45;&gt;Node53</title>
<path fill="none" stroke="#191970" d="M83.2735,-146.2979C102.4329,-128.1994 138.0558,-96.9793 173.7432,-78.442 177.2812,-76.6043 180.9899,-74.8878 184.7854,-73.2888"/>
<polygon fill="#191970" stroke="#191970" points="186.3088,-76.4513 194.3506,-69.5536 183.7625,-69.9308 186.3088,-76.4513"/>
</g>
<!-- Node54 -->
<g id="node8" class="node">
<title>Node54</title>
<g id="a_node8"><a xlink:href="namespacebfl_1_1any.html#a4ecb51ad57b3fa935cabdc0dcdcb4df1" target="_top" xlink:title="Performs type&#45;safe access to the contained object. ">
<polygon fill="#ffffff" stroke="#000000" points="375.2671,-112.442 375.2671,-130.442 469.0894,-130.442 469.0894,-112.442 375.2671,-112.442"/>
<text text-anchor="middle" x="422.1782" y="-118.442" font-family="Helvetica,sans-Serif" font-size="10.00" fill="#000000">bfl::any::any_cast</text>
</a>
</g>
</g>
<!-- Node53&#45;&gt;Node54 -->
<g id="edge7" class="edge">
<title>Node53&#45;&gt;Node54</title>
<path fill="none" stroke="#191970" d="M303.3857,-69.4772C310.9164,-72.0981 318.4445,-75.0863 325.3779,-78.442 342.9119,-86.9284 343.8156,-95.0145 361.3779,-103.442 365.7387,-105.5346 370.3936,-107.4391 375.1132,-109.1584"/>
<polygon fill="#191970" stroke="#191970" points="374.224,-112.5521 384.8181,-112.4285 376.4592,-105.9186 374.224,-112.5521"/>
</g>
<!-- Node55 -->
<g id="node9" class="node">
<title>Node55</title>
<g id="a_node9"><a xlink:href="namespacebfl_1_1directional__statistics.html#ad8758aac208bc2baa75aad514a3f53e6" target="_top" xlink:title="bfl::directional_statistics\l::directional_mean">
<polygon fill="#ffffff" stroke="#000000" points="361.3779,-65.442 361.3779,-93.442 482.9785,-93.442 482.9785,-65.442 361.3779,-65.442"/>
<text text-anchor="start" x="369.3779" y="-81.442" font-family="Helvetica,sans-Serif" font-size="10.00" fill="#000000">bfl::directional_statistics</text>
<text text-anchor="middle" x="422.1782" y="-71.442" font-family="Helvetica,sans-Serif" font-size="10.00" fill="#000000">::directional_mean</text>
</a>
</g>
</g>
<!-- Node53&#45;&gt;Node55 -->
<g id="edge8" class="edge">
<title>Node53&#45;&gt;Node55</title>
<path fill="none" stroke="#191970" d="M318.7761,-65.0655C329.4381,-66.5478 340.4626,-68.0806 351.1631,-69.5684"/>
<polygon fill="#191970" stroke="#191970" points="350.914,-73.0673 361.3007,-70.9779 351.878,-66.134 350.914,-73.0673"/>
</g>
<!-- Node56 -->
<g id="node10" class="node">
<title>Node56</title>
<g id="a_node10"><a xlink:href="namespacebfl_1_1directional__statistics.html#a18bffca88c7ea5f4ea11d2ad910736fe" target="_top" xlink:title="bfl::directional_statistics\l::directional_sub">
<polygon fill="#ffffff" stroke="#000000" points="361.3779,-18.442 361.3779,-46.442 482.9785,-46.442 482.9785,-18.442 361.3779,-18.442"/>
<text text-anchor="start" x="369.3779" y="-34.442" font-family="Helvetica,sans-Serif" font-size="10.00" fill="#000000">bfl::directional_statistics</text>
<text text-anchor="middle" x="422.1782" y="-24.442" font-family="Helvetica,sans-Serif" font-size="10.00" fill="#000000">::directional_sub</text>
</a>
</g>
</g>
<!-- Node53&#45;&gt;Node56 -->
<g id="edge9" class="edge">
<title>Node53&#45;&gt;Node56</title>
<path fill="none" stroke="#191970" d="M318.7761,-46.2196C329.4381,-44.7989 340.4626,-43.33 351.1631,-41.9042"/>
<polygon fill="#191970" stroke="#191970" points="351.8506,-45.3437 361.3007,-40.5535 350.926,-38.405 351.8506,-45.3437"/>
</g>
<!-- Node57 -->
<g id="node11" class="node">
<title>Node57</title>
<g id="a_node11"><a xlink:href="classbfl_1_1GaussianMixture.html#af4fd865a97ac27c72510cfbf9429bd97" target="_top" xlink:title="bfl::GaussianMixture\l::mean">
<polygon fill="#ffffff" stroke="#000000" points="526.2051,-39.442 526.2051,-67.442 633.3525,-67.442 633.3525,-39.442 526.2051,-39.442"/>
<text text-anchor="start" x="534.2051" y="-55.442" font-family="Helvetica,sans-Serif" font-size="10.00" fill="#000000">bfl::GaussianMixture</text>
<text text-anchor="middle" x="579.7788" y="-45.442" font-family="Helvetica,sans-Serif" font-size="10.00" fill="#000000">::mean</text>
</a>
</g>
</g>
<!-- Node53&#45;&gt;Node57 -->
<g id="edge10" class="edge">
<title>Node53&#45;&gt;Node57</title>
<path fill="none" stroke="#191970" d="M274.8312,-41.3796C296.9056,-29.9494 330.2077,-14.7266 361.3779,-8.442 414.3565,2.2396 430.208,3.2243 482.9785,-8.442 505.8895,-13.5071 529.8155,-24.569 548.1486,-34.4572"/>
<polygon fill="#191970" stroke="#191970" points="546.4883,-37.5386 556.9299,-39.3339 549.8869,-31.419 546.4883,-37.5386"/>
</g>
<!-- Node58 -->
<g id="node12" class="node">
<title>Node58</title>
<g id="a_node12"><a xlink:href="namespacebfl_1_1sigma__point.html#ab919aca5fccc30ee2acd5cd966cd9dc9" target="_top" xlink:title="bfl::sigma_point::sigma\l_point">
<polygon fill="#ffffff" stroke="#000000" points="363.043,-149.442 363.043,-177.442 481.3135,-177.442 481.3135,-149.442 363.043,-149.442"/>
<text text-anchor="start" x="371.043" y="-165.442" font-family="Helvetica,sans-Serif" font-size="10.00" fill="#000000">bfl::sigma_point::sigma</text>
<text text-anchor="middle" x="422.1782" y="-155.442" font-family="Helvetica,sans-Serif" font-size="10.00" fill="#000000">_point</text>
</a>
</g>
</g>
<!-- Node53&#45;&gt;Node58 -->
<g id="edge11" class="edge">
<title>Node53&#45;&gt;Node58</title>
<path fill="none" stroke="#191970" d="M310.8103,-69.4541C316.0061,-71.9724 320.9562,-74.9415 325.3779,-78.442 350.3608,-98.2199 337.0727,-119.8371 361.3779,-140.442 362.8952,-141.7283 364.4917,-142.9464 366.1494,-144.0998"/>
<polygon fill="#191970" stroke="#191970" points="364.4904,-147.1863 374.8637,-149.3416 368.0986,-141.1878 364.4904,-147.1863"/>
</g>
<!-- Node58&#45;&gt;Node48 -->
<g id="edge12" class="edge">
<title>Node58&#45;&gt;Node48</title>
<path fill="none" stroke="#191970" d="M451.8217,-177.5489C477.0264,-189.5435 513.4027,-206.8545 540.9324,-219.9555"/>
<polygon fill="#191970" stroke="#191970" points="539.7346,-223.2616 550.2683,-224.3984 542.7426,-216.9408 539.7346,-223.2616"/>
</g>
<!-- Node58&#45;&gt;Node57 -->
<g id="edge14" class="edge">
<title>Node58&#45;&gt;Node57</title>
<path fill="none" stroke="#191970" d="M465.3176,-149.4193C471.422,-146.7831 477.484,-143.7873 482.9785,-140.442 512.8332,-122.2655 541.9519,-94.2902 560.3237,-74.9944"/>
<polygon fill="#191970" stroke="#191970" points="563.0021,-77.2546 567.2791,-67.5614 557.8909,-72.4717 563.0021,-77.2546"/>
</g>
<!-- Node59 -->
<g id="node13" class="node">
<title>Node59</title>
<g id="a_node13"><a xlink:href="namespacebfl_1_1directional__statistics.html#af9984a4df2b3f6f0bc0c264783181123" target="_top" xlink:title="bfl::directional_statistics\l::directional_add">
<polygon fill="#ffffff" stroke="#000000" points="518.9785,-149.442 518.9785,-177.442 640.5791,-177.442 640.5791,-149.442 518.9785,-149.442"/>
<text text-anchor="start" x="526.9785" y="-165.442" font-family="Helvetica,sans-Serif" font-size="10.00" fill="#000000">bfl::directional_statistics</text>
<text text-anchor="middle" x="579.7788" y="-155.442" font-family="Helvetica,sans-Serif" font-size="10.00" fill="#000000">::directional_add</text>
</a>
</g>
</g>
<!-- Node58&#45;&gt;Node59 -->
<g id="edge13" class="edge">
<title>Node58&#45;&gt;Node59</title>
<path fill="none" stroke="#191970" d="M481.7602,-163.442C490.5635,-163.442 499.7075,-163.442 508.7154,-163.442"/>
<polygon fill="#191970" stroke="#191970" points="508.8023,-166.9421 518.8023,-163.442 508.8022,-159.9421 508.8023,-166.9421"/>
</g>
</g>
</svg>
