<?xml version="1.0" encoding="UTF-8" standalone="no"?>
<!DOCTYPE svg PUBLIC "-//W3C//DTD SVG 1.1//EN"
 "http://www.w3.org/Graphics/SVG/1.1/DTD/svg11.dtd">
<!-- Generated by graphviz version 2.40.1 (20161225.0304)
 -->
<!-- Title: bfl::sigma_point::unscented_transform Pages: 1 -->
<svg width="636pt" height="253pt"
 viewBox="0.00 0.00 635.77 253.09" xmlns="http://www.w3.org/2000/svg" xmlns:xlink="http://www.w3.org/1999/xlink">
<g id="graph0" class="graph" transform="scale(1 1) rotate(0) translate(4 249.0919)">
<title>bfl::sigma_point::unscented_transform</title>
<polygon fill="#ffffff" stroke="transparent" points="-4,4 -4,-249.0919 631.7715,-249.0919 631.7715,4 -4,4"/>
<!-- Node82 -->
<g id="node1" class="node">
<title>Node82</title>
<polygon fill="#bfbfbf" stroke="#000000" points="0,-135.6198 0,-163.6198 137.7432,-163.6198 137.7432,-135.6198 0,-135.6198"/>
<text text-anchor="start" x="8" y="-151.6198" font-family="Helvetica,sans-Serif" font-size="10.00" fill="#000000">bfl::sigma_point::unscented</text>
<text text-anchor="middle" x="68.8716" y="-141.6198" font-family="Helvetica,sans-Serif" font-size="10.00" fill="#000000">_transform</text>
</g>
<!-- Node83 -->
<g id="node2" class="node">
<title>Node83</title>
<g id="a_node2"><a xlink:href="classbfl_1_1GaussianMixture.html#a65a60ef46d16ac33196a09963bbccdee" target="_top" xlink:title="bfl::GaussianMixture\l::covariance">
<polygon fill="#ffffff" stroke="#000000" points="513.3975,-210.6198 513.3975,-238.6198 620.5449,-238.6198 620.5449,-210.6198 513.3975,-210.6198"/>
<text text-anchor="start" x="521.3975" y="-226.6198" font-family="Helvetica,sans-Serif" font-size="10.00" fill="#000000">bfl::GaussianMixture</text>
<text text-anchor="middle" x="566.9712" y="-216.6198" font-family="Helvetica,sans-Serif" font-size="10.00" fill="#000000">::covariance</text>
</a>
</g>
</g>
<!-- Node82&#45;&gt;Node83 -->
<g id="edge1" class="edge">
<title>Node82&#45;&gt;Node83</title>
<path fill="none" stroke="#191970" d="M83.6752,-163.8954C102.7126,-181.1722 137.6443,-209.3481 173.7432,-220.6198 285.3837,-255.4791 423.6955,-245.4757 502.9911,-235.0417"/>
<polygon fill="#191970" stroke="#191970" points="503.8705,-238.4544 513.3071,-233.6378 502.9264,-231.5183 503.8705,-238.4544"/>
</g>
<!-- Node84 -->
<g id="node3" class="node">
<title>Node84</title>
<g id="a_node3"><a xlink:href="classbfl_1_1MeasurementModel.html#af25f42076b69e0c6cab47d36d796536f" target="_top" xlink:title="bfl::MeasurementModel\l::getNoiseCovarianceMatrix">
<polygon fill="#ffffff" stroke="#000000" points="173.7432,-182.6198 173.7432,-210.6198 312.5703,-210.6198 312.5703,-182.6198 173.7432,-182.6198"/>
<text text-anchor="start" x="181.7432" y="-198.6198" font-family="Helvetica,sans-Serif" font-size="10.00" fill="#000000">bfl::MeasurementModel</text>
<text text-anchor="middle" x="243.1567" y="-188.6198" font-family="Helvetica,sans-Serif" font-size="10.00" fill="#000000">::getNoiseCovarianceMatrix</text>
</a>
</g>
</g>
<!-- Node82&#45;&gt;Node84 -->
<g id="edge2" class="edge">
<title>Node82&#45;&gt;Node84</title>
<path fill="none" stroke="#191970" d="M121.1629,-163.7214C140.1192,-168.8334 161.7099,-174.6558 181.4048,-179.967"/>
<polygon fill="#191970" stroke="#191970" points="180.6365,-183.3847 191.2029,-182.6093 182.4591,-176.6262 180.6365,-183.3847"/>
</g>
<!-- Node85 -->
<g id="node4" class="node">
<title>Node85</title>
<g id="a_node4"><a xlink:href="classbfl_1_1MeasurementModel.html#a6cca2022b576c9dbb61e73b83a10c6ee" target="_top" xlink:title="bfl::MeasurementModel\l::getOutputSize">
<polygon fill="#ffffff" stroke="#000000" points="182.9106,-135.6198 182.9106,-163.6198 303.4028,-163.6198 303.4028,-135.6198 182.9106,-135.6198"/>
<text text-anchor="start" x="190.9106" y="-151.6198" font-family="Helvetica,sans-Serif" font-size="10.00" fill="#000000">bfl::MeasurementModel</text>
<text text-anchor="middle" x="243.1567" y="-141.6198" font-family="Helvetica,sans-Serif" font-size="10.00" fill="#000000">::getOutputSize</text>
</a>
</g>
</g>
<!-- Node82&#45;&gt;Node85 -->
<g id="edge3" class="edge">
<title>Node82&#45;&gt;Node85</title>
<path fill="none" stroke="#191970" d="M137.7537,-149.6198C149.1179,-149.6198 160.9159,-149.6198 172.3269,-149.6198"/>
<polygon fill="#191970" stroke="#191970" points="172.6741,-153.1199 182.6741,-149.6198 172.6741,-146.1199 172.6741,-153.1199"/>
</g>
<!-- Node86 -->
<g id="node5" class="node">
<title>Node86</title>
<g id="a_node5"><a xlink:href="classbfl_1_1MeasurementModel.html#a8fc8798aa2db48f428d4ce59b33b5307" target="_top" xlink:title="bfl::MeasurementModel\l::predictedMeasure">
<polygon fill="#ffffff" stroke="#000000" points="182.9106,-88.6198 182.9106,-116.6198 303.4028,-116.6198 303.4028,-88.6198 182.9106,-88.6198"/>
<text text-anchor="start" x="190.9106" y="-104.6198" font-family="Helvetica,sans-Serif" font-size="10.00" fill="#000000">bfl::MeasurementModel</text>
<text text-anchor="middle" x="243.1567" y="-94.6198" font-family="Helvetica,sans-Serif" font-size="10.00" fill="#000000">::predictedMeasure</text>
</a>
</g>
</g>
<!-- Node82&#45;&gt;Node86 -->
<g id="edge4" class="edge">
<title>Node82&#45;&gt;Node86</title>
<path fill="none" stroke="#191970" d="M121.1629,-135.5183C140.1192,-130.4062 161.7099,-124.5838 181.4048,-119.2727"/>
<polygon fill="#191970" stroke="#191970" points="182.4591,-122.6134 191.2029,-116.6304 180.6365,-115.8549 182.4591,-122.6134"/>
</g>
<!-- Node87 -->
<g id="node6" class="node">
<title>Node87</title>
<g id="a_node6"><a xlink:href="namespacebfl_1_1sigma__point.html#afe170453152d4f96db4dad71bd9be9a3" target="_top" xlink:title="bfl::sigma_point::unscented\l_transform">
<polygon fill="#ffffff" stroke="#000000" points="174.2852,-41.6198 174.2852,-69.6198 312.0283,-69.6198 312.0283,-41.6198 174.2852,-41.6198"/>
<text text-anchor="start" x="182.2852" y="-57.6198" font-family="Helvetica,sans-Serif" font-size="10.00" fill="#000000">bfl::sigma_point::unscented</text>
<text text-anchor="middle" x="243.1567" y="-47.6198" font-family="Helvetica,sans-Serif" font-size="10.00" fill="#000000">_transform</text>
</a>
</g>
</g>
<!-- Node82&#45;&gt;Node87 -->
<g id="edge5" class="edge">
<title>Node82&#45;&gt;Node87</title>
<path fill="none" stroke="#191970" d="M86.5019,-135.4423C106.6244,-119.8099 140.999,-94.743 173.7432,-78.6198 177.523,-76.7586 181.4894,-74.9934 185.5305,-73.3307"/>
<polygon fill="#191970" stroke="#191970" points="186.9859,-76.5203 195.0425,-69.6397 184.4536,-69.9943 186.9859,-76.5203"/>
</g>
<!-- Node88 -->
<g id="node7" class="node">
<title>Node88</title>
<g id="a_node7"><a xlink:href="namespacebfl_1_1any.html#a4ecb51ad57b3fa935cabdc0dcdcb4df1" target="_top" xlink:title="Performs type&#45;safe access to the contained object. ">
<polygon fill="#ffffff" stroke="#000000" points="362.4595,-112.6198 362.4595,-130.6198 456.2817,-130.6198 456.2817,-112.6198 362.4595,-112.6198"/>
<text text-anchor="middle" x="409.3706" y="-118.6198" font-family="Helvetica,sans-Serif" font-size="10.00" fill="#000000">bfl::any::any_cast</text>
</a>
</g>
</g>
<!-- Node87&#45;&gt;Node88 -->
<g id="edge6" class="edge">
<title>Node87&#45;&gt;Node88</title>
<path fill="none" stroke="#191970" d="M291.6755,-69.7054C298.8188,-72.3472 305.9838,-75.328 312.5703,-78.6198 329.9949,-87.3284 331.008,-95.1923 348.5703,-103.6198 352.9311,-105.7124 357.586,-107.6169 362.3055,-109.3362"/>
<polygon fill="#191970" stroke="#191970" points="361.4164,-112.7299 372.0105,-112.6063 363.6516,-106.0964 361.4164,-112.7299"/>
</g>
<!-- Node89 -->
<g id="node8" class="node">
<title>Node89</title>
<g id="a_node8"><a xlink:href="namespacebfl_1_1directional__statistics.html#ad8758aac208bc2baa75aad514a3f53e6" target="_top" xlink:title="bfl::directional_statistics\l::directional_mean">
<polygon fill="#ffffff" stroke="#000000" points="348.5703,-65.6198 348.5703,-93.6198 470.1709,-93.6198 470.1709,-65.6198 348.5703,-65.6198"/>
<text text-anchor="start" x="356.5703" y="-81.6198" font-family="Helvetica,sans-Serif" font-size="10.00" fill="#000000">bfl::directional_statistics</text>
<text text-anchor="middle" x="409.3706" y="-71.6198" font-family="Helvetica,sans-Serif" font-size="10.00" fill="#000000">::directional_mean</text>
</a>
</g>
</g>
<!-- Node87&#45;&gt;Node89 -->
<g id="edge7" class="edge">
<title>Node87&#45;&gt;Node89</title>
<path fill="none" stroke="#191970" d="M312.2024,-65.5895C320.8569,-66.8391 329.721,-68.119 338.4044,-69.3728"/>
<polygon fill="#191970" stroke="#191970" points="338.094,-72.8642 348.4915,-70.8293 339.0944,-65.9361 338.094,-72.8642"/>
</g>
<!-- Node90 -->
<g id="node9" class="node">
<title>Node90</title>
<g id="a_node9"><a xlink:href="namespacebfl_1_1directional__statistics.html#a18bffca88c7ea5f4ea11d2ad910736fe" target="_top" xlink:title="bfl::directional_statistics\l::directional_sub">
<polygon fill="#ffffff" stroke="#000000" points="348.5703,-18.6198 348.5703,-46.6198 470.1709,-46.6198 470.1709,-18.6198 348.5703,-18.6198"/>
<text text-anchor="start" x="356.5703" y="-34.6198" font-family="Helvetica,sans-Serif" font-size="10.00" fill="#000000">bfl::directional_statistics</text>
<text text-anchor="middle" x="409.3706" y="-24.6198" font-family="Helvetica,sans-Serif" font-size="10.00" fill="#000000">::directional_sub</text>
</a>
</g>
</g>
<!-- Node87&#45;&gt;Node90 -->
<g id="edge8" class="edge">
<title>Node87&#45;&gt;Node90</title>
<path fill="none" stroke="#191970" d="M312.2024,-46.0656C320.8569,-44.868 329.721,-43.6414 338.4044,-42.4398"/>
<polygon fill="#191970" stroke="#191970" points="339.0657,-45.8818 348.4915,-41.044 338.1061,-38.9478 339.0657,-45.8818"/>
</g>
<!-- Node91 -->
<g id="node10" class="node">
<title>Node91</title>
<g id="a_node10"><a xlink:href="classbfl_1_1GaussianMixture.html#af4fd865a97ac27c72510cfbf9429bd97" target="_top" xlink:title="bfl::GaussianMixture\l::mean">
<polygon fill="#ffffff" stroke="#000000" points="513.3975,-39.6198 513.3975,-67.6198 620.5449,-67.6198 620.5449,-39.6198 513.3975,-39.6198"/>
<text text-anchor="start" x="521.3975" y="-55.6198" font-family="Helvetica,sans-Serif" font-size="10.00" fill="#000000">bfl::GaussianMixture</text>
<text text-anchor="middle" x="566.9712" y="-45.6198" font-family="Helvetica,sans-Serif" font-size="10.00" fill="#000000">::mean</text>
</a>
</g>
</g>
<!-- Node87&#45;&gt;Node91 -->
<g id="edge9" class="edge">
<title>Node87&#45;&gt;Node91</title>
<path fill="none" stroke="#191970" d="M266.8747,-41.5644C287.619,-30.1386 318.9763,-14.9184 348.5703,-8.6198 401.431,2.6307 417.4004,3.0465 470.1709,-8.6198 493.0819,-13.6849 517.0079,-24.7468 535.341,-34.635"/>
<polygon fill="#191970" stroke="#191970" points="533.6806,-37.7164 544.1223,-39.5117 537.0792,-31.5967 533.6806,-37.7164"/>
</g>
<!-- Node92 -->
<g id="node11" class="node">
<title>Node92</title>
<g id="a_node11"><a xlink:href="namespacebfl_1_1sigma__point.html#ab919aca5fccc30ee2acd5cd966cd9dc9" target="_top" xlink:title="bfl::sigma_point::sigma\l_point">
<polygon fill="#ffffff" stroke="#000000" points="350.2354,-149.6198 350.2354,-177.6198 468.5059,-177.6198 468.5059,-149.6198 350.2354,-149.6198"/>
<text text-anchor="start" x="358.2354" y="-165.6198" font-family="Helvetica,sans-Serif" font-size="10.00" fill="#000000">bfl::sigma_point::sigma</text>
<text text-anchor="middle" x="409.3706" y="-155.6198" font-family="Helvetica,sans-Serif" font-size="10.00" fill="#000000">_point</text>
</a>
</g>
</g>
<!-- Node87&#45;&gt;Node92 -->
<g id="edge10" class="edge">
<title>Node87&#45;&gt;Node92</title>
<path fill="none" stroke="#191970" d="M298.5541,-69.7416C303.5618,-72.2423 308.3336,-75.1773 312.5703,-78.6198 337.2997,-98.7137 324.2651,-120.0149 348.5703,-140.6198 350.0876,-141.9061 351.6841,-143.1242 353.3418,-144.2776"/>
<polygon fill="#191970" stroke="#191970" points="351.6828,-147.3641 362.0561,-149.5194 355.291,-141.3656 351.6828,-147.3641"/>
</g>
<!-- Node92&#45;&gt;Node83 -->
<g id="edge11" class="edge">
<title>Node92&#45;&gt;Node83</title>
<path fill="none" stroke="#191970" d="M445.9235,-177.7678C468.3011,-186.4291 497.1322,-197.5883 521.0433,-206.8432"/>
<polygon fill="#191970" stroke="#191970" points="520.0273,-210.203 530.6165,-210.5486 522.5541,-203.6749 520.0273,-210.203"/>
</g>
<!-- Node92&#45;&gt;Node91 -->
<g id="edge13" class="edge">
<title>Node92&#45;&gt;Node91</title>
<path fill="none" stroke="#191970" d="M452.51,-149.597C458.6144,-146.9609 464.6763,-143.9651 470.1709,-140.6198 500.0256,-122.4433 529.1443,-94.4679 547.5161,-75.1722"/>
<polygon fill="#191970" stroke="#191970" points="550.1945,-77.4324 554.4715,-67.7392 545.0832,-72.6495 550.1945,-77.4324"/>
</g>
<!-- Node93 -->
<g id="node12" class="node">
<title>Node93</title>
<g id="a_node12"><a xlink:href="namespacebfl_1_1directional__statistics.html#af9984a4df2b3f6f0bc0c264783181123" target="_top" xlink:title="bfl::directional_statistics\l::directional_add">
<polygon fill="#ffffff" stroke="#000000" points="506.1709,-149.6198 506.1709,-177.6198 627.7715,-177.6198 627.7715,-149.6198 506.1709,-149.6198"/>
<text text-anchor="start" x="514.1709" y="-165.6198" font-family="Helvetica,sans-Serif" font-size="10.00" fill="#000000">bfl::directional_statistics</text>
<text text-anchor="middle" x="566.9712" y="-155.6198" font-family="Helvetica,sans-Serif" font-size="10.00" fill="#000000">::directional_add</text>
</a>
</g>
</g>
<!-- Node92&#45;&gt;Node93 -->
<g id="edge12" class="edge">
<title>Node92&#45;&gt;Node93</title>
<path fill="none" stroke="#191970" d="M468.9526,-163.6198C477.7559,-163.6198 486.8999,-163.6198 495.9078,-163.6198"/>
<polygon fill="#191970" stroke="#191970" points="495.9947,-167.1199 505.9946,-163.6198 495.9946,-160.1199 495.9947,-167.1199"/>
</g>
</g>
</svg>
