<?xml version="1.0" encoding="UTF-8" standalone="no"?>
<!DOCTYPE svg PUBLIC "-//W3C//DTD SVG 1.1//EN"
 "http://www.w3.org/Graphics/SVG/1.1/DTD/svg11.dtd">
<!-- Generated by graphviz version 2.40.1 (20161225.0304)
 -->
<!-- Title: bfl::any::any_cast Pages: 1 -->
<svg width="395pt" height="37pt"
 viewBox="0.00 0.00 395.38 37.00" xmlns="http://www.w3.org/2000/svg" xmlns:xlink="http://www.w3.org/1999/xlink">
<g id="graph0" class="graph" transform="scale(1 1) rotate(0) translate(4 33)">
<title>bfl::any::any_cast</title>
<polygon fill="#ffffff" stroke="transparent" points="-4,4 -4,-33 391.3828,-33 391.3828,4 -4,4"/>
<!-- Node2 -->
<g id="node1" class="node">
<title>Node2</title>
<polygon fill="#bfbfbf" stroke="#000000" points="0,-5.5 0,-23.5 93.8223,-23.5 93.8223,-5.5 0,-5.5"/>
<text text-anchor="middle" x="46.9111" y="-11.5" font-family="Helvetica,sans-Serif" font-size="10.00" fill="#000000">bfl::any::any_cast</text>
</g>
<!-- Node3 -->
<g id="node2" class="node">
<title>Node3</title>
<g id="a_node2"><a xlink:href="classbfl_1_1any_1_1any.html#ad84c3b30ce2ed9d04fe28465b60f2500" target="_top" xlink:title="Queries the contained type. ">
<polygon fill="#ffffff" stroke="#000000" points="129.8223,-5.5 129.8223,-23.5 224.2012,-23.5 224.2012,-5.5 129.8223,-5.5"/>
<text text-anchor="middle" x="177.0117" y="-11.5" font-family="Helvetica,sans-Serif" font-size="10.00" fill="#000000">bfl::any::any::type</text>
</a>
</g>
</g>
<!-- Node2&#45;&gt;Node3 -->
<g id="edge1" class="edge">
<title>Node2&#45;&gt;Node3</title>
<path fill="none" stroke="#191970" d="M93.8804,-14.5C102.1597,-14.5 110.8634,-14.5 119.3944,-14.5"/>
<polygon fill="#191970" stroke="#191970" points="119.6744,-18.0001 129.6744,-14.5 119.6744,-11.0001 119.6744,-18.0001"/>
</g>
<!-- Node4 -->
<g id="node3" class="node">
<title>Node4</title>
<g id="a_node3"><a xlink:href="classbfl_1_1any_1_1any_1_1placeholder.html#a3bbcdbccbceacccd08befecaade4e510" target="_top" xlink:title="bfl::any::any::placeholder\l::type">
<polygon fill="#ffffff" stroke="#000000" points="260.2012,-.5 260.2012,-28.5 387.3828,-28.5 387.3828,-.5 260.2012,-.5"/>
<text text-anchor="start" x="268.2012" y="-16.5" font-family="Helvetica,sans-Serif" font-size="10.00" fill="#000000">bfl::any::any::placeholder</text>
<text text-anchor="middle" x="323.792" y="-6.5" font-family="Helvetica,sans-Serif" font-size="10.00" fill="#000000">::type</text>
</a>
</g>
</g>
<!-- Node3&#45;&gt;Node4 -->
<g id="edge2" class="edge">
<title>Node3&#45;&gt;Node4</title>
<path fill="none" stroke="#191970" d="M224.2619,-14.5C232.4539,-14.5 241.1457,-14.5 249.848,-14.5"/>
<polygon fill="#191970" stroke="#191970" points="250.0391,-18.0001 260.0391,-14.5 250.039,-11.0001 250.0391,-18.0001"/>
</g>
</g>
</svg>
