<?xml version="1.0" encoding="UTF-8" standalone="no"?>
<!DOCTYPE svg PUBLIC "-//W3C//DTD SVG 1.1//EN"
 "http://www.w3.org/Graphics/SVG/1.1/DTD/svg11.dtd">
<!-- Generated by graphviz version 2.40.1 (20161225.0304)
 -->
<!-- Title: bfl::any::swap Pages: 1 -->
<svg width="220pt" height="27pt"
 viewBox="0.00 0.00 219.96 27.00" xmlns="http://www.w3.org/2000/svg" xmlns:xlink="http://www.w3.org/1999/xlink">
<g id="graph0" class="graph" transform="scale(1 1) rotate(0) translate(4 23)">
<title>bfl::any::swap</title>
<polygon fill="#ffffff" stroke="transparent" points="-4,4 -4,-23 215.9648,-23 215.9648,4 -4,4"/>
<!-- Node7 -->
<g id="node1" class="node">
<title>Node7</title>
<polygon fill="#bfbfbf" stroke="#000000" points="0,-.5 0,-18.5 77.1426,-18.5 77.1426,-.5 0,-.5"/>
<text text-anchor="middle" x="38.5713" y="-6.5" font-family="Helvetica,sans-Serif" font-size="10.00" fill="#000000">bfl::any::swap</text>
</g>
<!-- Node8 -->
<g id="node2" class="node">
<title>Node8</title>
<g id="a_node2"><a xlink:href="classbfl_1_1any_1_1any.html#a0441e5816aa5ef4721f134868b7ca402" target="_top" xlink:title="Swaps the content of two any objects. ">
<polygon fill="#ffffff" stroke="#000000" points="113.1426,-.5 113.1426,-18.5 211.9648,-18.5 211.9648,-.5 113.1426,-.5"/>
<text text-anchor="middle" x="162.5537" y="-6.5" font-family="Helvetica,sans-Serif" font-size="10.00" fill="#000000">bfl::any::any::swap</text>
</a>
</g>
</g>
<!-- Node7&#45;&gt;Node8 -->
<g id="edge1" class="edge">
<title>Node7&#45;&gt;Node8</title>
<path fill="none" stroke="#191970" d="M77.4599,-3.1852C85.5246,-2.8674 94.1981,-2.7237 102.8135,-2.754"/>
<polygon fill="#191970" stroke="#191970" points="102.821,-6.2542 112.8606,-2.8695 102.9015,.7454 102.821,-6.2542"/>
</g>
<!-- Node8&#45;&gt;Node7 -->
<g id="edge2" class="edge">
<title>Node8&#45;&gt;Node7</title>
<path fill="none" stroke="#191970" d="M112.8606,-16.1305C104.5768,-16.2934 95.9878,-16.2897 87.7177,-16.1195"/>
<polygon fill="#191970" stroke="#191970" points="87.5595,-12.6134 77.4599,-15.8148 87.3516,-19.6103 87.5595,-12.6134"/>
</g>
</g>
</svg>
