<?xml version="1.0" encoding="UTF-8" standalone="no"?>
<!DOCTYPE svg PUBLIC "-//W3C//DTD SVG 1.1//EN"
 "http://www.w3.org/Graphics/SVG/1.1/DTD/svg11.dtd">
<!-- Generated by graphviz version 2.40.1 (20161225.0304)
 -->
<!-- Title: bfl::sigma_point::unscented_transform Pages: 1 -->
<svg width="649pt" height="294pt"
 viewBox="0.00 0.00 648.58 294.00" xmlns="http://www.w3.org/2000/svg" xmlns:xlink="http://www.w3.org/1999/xlink">
<g id="graph0" class="graph" transform="scale(1 1) rotate(0) translate(4 290)">
<title>bfl::sigma_point::unscented_transform</title>
<polygon fill="#ffffff" stroke="transparent" points="-4,4 -4,-290 644.5791,-290 644.5791,4 -4,4"/>
<!-- Node23 -->
<g id="node1" class="node">
<title>Node23</title>
<polygon fill="#bfbfbf" stroke="#000000" points="0,-204.5 0,-232.5 137.7432,-232.5 137.7432,-204.5 0,-204.5"/>
<text text-anchor="start" x="8" y="-220.5" font-family="Helvetica,sans-Serif" font-size="10.00" fill="#000000">bfl::sigma_point::unscented</text>
<text text-anchor="middle" x="68.8716" y="-210.5" font-family="Helvetica,sans-Serif" font-size="10.00" fill="#000000">_transform</text>
</g>
<!-- Node24 -->
<g id="node2" class="node">
<title>Node24</title>
<g id="a_node2"><a xlink:href="classbfl_1_1StateModel.html#a6bf680b689389d959fc9ac46595e6dab" target="_top" xlink:title="Returns the linear and circular size of the output of the state equation. ">
<polygon fill="#ffffff" stroke="#000000" points="173.7432,-267.5 173.7432,-285.5 325.3779,-285.5 325.3779,-267.5 173.7432,-267.5"/>
<text text-anchor="middle" x="249.5605" y="-273.5" font-family="Helvetica,sans-Serif" font-size="10.00" fill="#000000">bfl::StateModel::getOutputSize</text>
</a>
</g>
</g>
<!-- Node23&#45;&gt;Node24 -->
<g id="edge1" class="edge">
<title>Node23&#45;&gt;Node24</title>
<path fill="none" stroke="#191970" d="M102.4839,-232.6129C122.8677,-240.8458 149.533,-251.0443 173.7432,-258.5 181.2887,-260.8237 189.3341,-263.0234 197.2593,-265.0348"/>
<polygon fill="#191970" stroke="#191970" points="196.6404,-268.4869 207.187,-267.4772 198.3127,-261.6895 196.6404,-268.4869"/>
</g>
<!-- Node25 -->
<g id="node3" class="node">
<title>Node25</title>
<g id="a_node3"><a xlink:href="classbfl_1_1StateModel.html#a34037bc30bc07667b76b5a719a65ab82" target="_top" xlink:title="bfl::StateModel::motion">
<polygon fill="#ffffff" stroke="#000000" points="190.4229,-230.5 190.4229,-248.5 308.6982,-248.5 308.6982,-230.5 190.4229,-230.5"/>
<text text-anchor="middle" x="249.5605" y="-236.5" font-family="Helvetica,sans-Serif" font-size="10.00" fill="#000000">bfl::StateModel::motion</text>
</a>
</g>
</g>
<!-- Node23&#45;&gt;Node25 -->
<g id="edge2" class="edge">
<title>Node23&#45;&gt;Node25</title>
<path fill="none" stroke="#191970" d="M137.9558,-226.5291C151.825,-228.141 166.4029,-229.8353 180.2788,-231.4479"/>
<polygon fill="#191970" stroke="#191970" points="179.9011,-234.9275 190.2384,-232.6055 180.7093,-227.9743 179.9011,-234.9275"/>
</g>
<!-- Node26 -->
<g id="node4" class="node">
<title>Node26</title>
<g id="a_node4"><a xlink:href="classbfl_1_1ExogenousModel.html#a9f3ec7b8fa1a6c1bb4f5889ba85e6d91" target="_top" xlink:title="bfl::ExogenousModel\l::propagate">
<polygon fill="#ffffff" stroke="#000000" points="194.8638,-183.5 194.8638,-211.5 304.2573,-211.5 304.2573,-183.5 194.8638,-183.5"/>
<text text-anchor="start" x="202.8638" y="-199.5" font-family="Helvetica,sans-Serif" font-size="10.00" fill="#000000">bfl::ExogenousModel</text>
<text text-anchor="middle" x="249.5605" y="-189.5" font-family="Helvetica,sans-Serif" font-size="10.00" fill="#000000">::propagate</text>
</a>
</g>
</g>
<!-- Node23&#45;&gt;Node26 -->
<g id="edge3" class="edge">
<title>Node23&#45;&gt;Node26</title>
<path fill="none" stroke="#191970" d="M137.9558,-210.4709C153.2548,-208.6928 169.4162,-206.8145 184.5464,-205.0561"/>
<polygon fill="#191970" stroke="#191970" points="185.3041,-208.4917 194.8331,-203.8605 184.4959,-201.5385 185.3041,-208.4917"/>
</g>
<!-- Node27 -->
<g id="node5" class="node">
<title>Node27</title>
<g id="a_node5"><a xlink:href="namespacebfl_1_1sigma__point.html#afe170453152d4f96db4dad71bd9be9a3" target="_top" xlink:title="bfl::sigma_point::unscented\l_transform">
<polygon fill="#ffffff" stroke="#000000" points="180.689,-136.5 180.689,-164.5 318.4321,-164.5 318.4321,-136.5 180.689,-136.5"/>
<text text-anchor="start" x="188.689" y="-152.5" font-family="Helvetica,sans-Serif" font-size="10.00" fill="#000000">bfl::sigma_point::unscented</text>
<text text-anchor="middle" x="249.5605" y="-142.5" font-family="Helvetica,sans-Serif" font-size="10.00" fill="#000000">_transform</text>
</a>
</g>
</g>
<!-- Node23&#45;&gt;Node27 -->
<g id="edge4" class="edge">
<title>Node23&#45;&gt;Node27</title>
<path fill="none" stroke="#191970" d="M100.2406,-204.4607C120.9262,-195.4214 148.7217,-183.6878 173.7432,-174.5 180.0127,-172.1978 186.6201,-169.9087 193.2138,-167.71"/>
<polygon fill="#191970" stroke="#191970" points="194.4098,-171.0013 202.8234,-164.5622 192.2308,-164.349 194.4098,-171.0013"/>
</g>
<!-- Node28 -->
<g id="node6" class="node">
<title>Node28</title>
<g id="a_node6"><a xlink:href="namespacebfl_1_1any.html#a4ecb51ad57b3fa935cabdc0dcdcb4df1" target="_top" xlink:title="Performs type&#45;safe access to the contained object. ">
<polygon fill="#ffffff" stroke="#000000" points="375.2671,-230.5 375.2671,-248.5 469.0894,-248.5 469.0894,-230.5 375.2671,-230.5"/>
<text text-anchor="middle" x="422.1782" y="-236.5" font-family="Helvetica,sans-Serif" font-size="10.00" fill="#000000">bfl::any::any_cast</text>
</a>
</g>
</g>
<!-- Node27&#45;&gt;Node28 -->
<g id="edge5" class="edge">
<title>Node27&#45;&gt;Node28</title>
<path fill="none" stroke="#191970" d="M307.246,-164.5767C313.6446,-167.3365 319.8401,-170.6141 325.3779,-174.5 346.9167,-189.6138 339.6985,-206.5887 361.3779,-221.5 364.0536,-223.3404 366.92,-224.9956 369.8976,-226.4839"/>
<polygon fill="#191970" stroke="#191970" points="368.5175,-229.7003 379.0847,-230.4665 371.3017,-223.2778 368.5175,-229.7003"/>
</g>
<!-- Node29 -->
<g id="node7" class="node">
<title>Node29</title>
<g id="a_node7"><a xlink:href="namespacebfl_1_1directional__statistics.html#ad8758aac208bc2baa75aad514a3f53e6" target="_top" xlink:title="bfl::directional_statistics\l::directional_mean">
<polygon fill="#ffffff" stroke="#000000" points="361.3779,-183.5 361.3779,-211.5 482.9785,-211.5 482.9785,-183.5 361.3779,-183.5"/>
<text text-anchor="start" x="369.3779" y="-199.5" font-family="Helvetica,sans-Serif" font-size="10.00" fill="#000000">bfl::directional_statistics</text>
<text text-anchor="middle" x="422.1782" y="-189.5" font-family="Helvetica,sans-Serif" font-size="10.00" fill="#000000">::directional_mean</text>
</a>
</g>
</g>
<!-- Node27&#45;&gt;Node29 -->
<g id="edge6" class="edge">
<title>Node27&#45;&gt;Node29</title>
<path fill="none" stroke="#191970" d="M301.3515,-164.6015C320.1265,-169.7136 341.5106,-175.536 361.0171,-180.8472"/>
<polygon fill="#191970" stroke="#191970" points="360.1532,-184.2393 370.7214,-183.4894 361.9922,-177.4852 360.1532,-184.2393"/>
</g>
<!-- Node30 -->
<g id="node8" class="node">
<title>Node30</title>
<g id="a_node8"><a xlink:href="namespacebfl_1_1directional__statistics.html#a18bffca88c7ea5f4ea11d2ad910736fe" target="_top" xlink:title="bfl::directional_statistics\l::directional_sub">
<polygon fill="#ffffff" stroke="#000000" points="361.3779,-136.5 361.3779,-164.5 482.9785,-164.5 482.9785,-136.5 361.3779,-136.5"/>
<text text-anchor="start" x="369.3779" y="-152.5" font-family="Helvetica,sans-Serif" font-size="10.00" fill="#000000">bfl::directional_statistics</text>
<text text-anchor="middle" x="422.1782" y="-142.5" font-family="Helvetica,sans-Serif" font-size="10.00" fill="#000000">::directional_sub</text>
</a>
</g>
</g>
<!-- Node27&#45;&gt;Node30 -->
<g id="edge7" class="edge">
<title>Node27&#45;&gt;Node30</title>
<path fill="none" stroke="#191970" d="M318.7761,-150.5C329.4381,-150.5 340.4626,-150.5 351.1631,-150.5"/>
<polygon fill="#191970" stroke="#191970" points="351.3008,-154.0001 361.3007,-150.5 351.3007,-147.0001 351.3008,-154.0001"/>
</g>
<!-- Node31 -->
<g id="node9" class="node">
<title>Node31</title>
<g id="a_node9"><a xlink:href="classbfl_1_1GaussianMixture.html#af4fd865a97ac27c72510cfbf9429bd97" target="_top" xlink:title="bfl::GaussianMixture\l::mean">
<polygon fill="#ffffff" stroke="#000000" points="526.2051,-94.5 526.2051,-122.5 633.3525,-122.5 633.3525,-94.5 526.2051,-94.5"/>
<text text-anchor="start" x="534.2051" y="-110.5" font-family="Helvetica,sans-Serif" font-size="10.00" fill="#000000">bfl::GaussianMixture</text>
<text text-anchor="middle" x="579.7788" y="-100.5" font-family="Helvetica,sans-Serif" font-size="10.00" fill="#000000">::mean</text>
</a>
</g>
</g>
<!-- Node27&#45;&gt;Node31 -->
<g id="edge8" class="edge">
<title>Node27&#45;&gt;Node31</title>
<path fill="none" stroke="#191970" d="M311.1442,-136.4977C327.413,-133.1655 345.0022,-129.8883 361.3779,-127.5 413.1546,-119.9488 472.3065,-115.0285 515.98,-112.091"/>
<polygon fill="#191970" stroke="#191970" points="516.4241,-115.5695 526.1736,-111.4225 515.9659,-108.5845 516.4241,-115.5695"/>
</g>
<!-- Node32 -->
<g id="node10" class="node">
<title>Node32</title>
<g id="a_node10"><a xlink:href="namespacebfl_1_1sigma__point.html#ab919aca5fccc30ee2acd5cd966cd9dc9" target="_top" xlink:title="bfl::sigma_point::sigma\l_point">
<polygon fill="#ffffff" stroke="#000000" points="363.043,-49.5 363.043,-77.5 481.3135,-77.5 481.3135,-49.5 363.043,-49.5"/>
<text text-anchor="start" x="371.043" y="-65.5" font-family="Helvetica,sans-Serif" font-size="10.00" fill="#000000">bfl::sigma_point::sigma</text>
<text text-anchor="middle" x="422.1782" y="-55.5" font-family="Helvetica,sans-Serif" font-size="10.00" fill="#000000">_point</text>
</a>
</g>
</g>
<!-- Node27&#45;&gt;Node32 -->
<g id="edge9" class="edge">
<title>Node27&#45;&gt;Node32</title>
<path fill="none" stroke="#191970" d="M277.0811,-136.3449C299.6836,-124.7499 332.5521,-107.958 361.3779,-93.5 368.7832,-89.7858 376.7123,-85.8463 384.3175,-82.0861"/>
<polygon fill="#191970" stroke="#191970" points="385.9579,-85.1796 393.3765,-77.6156 382.8601,-78.9023 385.9579,-85.1796"/>
</g>
<!-- Node32&#45;&gt;Node31 -->
<g id="edge12" class="edge">
<title>Node32&#45;&gt;Node31</title>
<path fill="none" stroke="#191970" d="M471.6116,-77.6148C487.1609,-82.0546 504.4905,-87.0028 520.6425,-91.6147"/>
<polygon fill="#191970" stroke="#191970" points="519.9441,-95.0551 530.5208,-94.4353 521.8661,-88.3241 519.9441,-95.0551"/>
</g>
<!-- Node33 -->
<g id="node11" class="node">
<title>Node33</title>
<g id="a_node11"><a xlink:href="classbfl_1_1GaussianMixture.html#a65a60ef46d16ac33196a09963bbccdee" target="_top" xlink:title="bfl::GaussianMixture\l::covariance">
<polygon fill="#ffffff" stroke="#000000" points="526.2051,-47.5 526.2051,-75.5 633.3525,-75.5 633.3525,-47.5 526.2051,-47.5"/>
<text text-anchor="start" x="534.2051" y="-63.5" font-family="Helvetica,sans-Serif" font-size="10.00" fill="#000000">bfl::GaussianMixture</text>
<text text-anchor="middle" x="579.7788" y="-53.5" font-family="Helvetica,sans-Serif" font-size="10.00" fill="#000000">::covariance</text>
</a>
</g>
</g>
<!-- Node32&#45;&gt;Node33 -->
<g id="edge10" class="edge">
<title>Node32&#45;&gt;Node33</title>
<path fill="none" stroke="#191970" d="M481.7602,-62.7439C492.9054,-62.6025 504.5968,-62.4541 515.8666,-62.3111"/>
<polygon fill="#191970" stroke="#191970" points="516.1154,-65.8083 526.0701,-62.1816 516.0265,-58.8089 516.1154,-65.8083"/>
</g>
<!-- Node34 -->
<g id="node12" class="node">
<title>Node34</title>
<g id="a_node12"><a xlink:href="namespacebfl_1_1directional__statistics.html#af9984a4df2b3f6f0bc0c264783181123" target="_top" xlink:title="bfl::directional_statistics\l::directional_add">
<polygon fill="#ffffff" stroke="#000000" points="518.9785,-.5 518.9785,-28.5 640.5791,-28.5 640.5791,-.5 518.9785,-.5"/>
<text text-anchor="start" x="526.9785" y="-16.5" font-family="Helvetica,sans-Serif" font-size="10.00" fill="#000000">bfl::directional_statistics</text>
<text text-anchor="middle" x="579.7788" y="-6.5" font-family="Helvetica,sans-Serif" font-size="10.00" fill="#000000">::directional_add</text>
</a>
</g>
</g>
<!-- Node32&#45;&gt;Node34 -->
<g id="edge11" class="edge">
<title>Node32&#45;&gt;Node34</title>
<path fill="none" stroke="#191970" d="M467.3402,-49.4586C485.3102,-43.8715 506.1533,-37.3911 524.9768,-31.5386"/>
<polygon fill="#191970" stroke="#191970" points="526.1003,-34.8547 534.6102,-28.5435 524.0219,-28.1703 526.1003,-34.8547"/>
</g>
</g>
</svg>
