<?xml version="1.0" encoding="UTF-8" standalone="no"?>
<!DOCTYPE svg PUBLIC "-//W3C//DTD SVG 1.1//EN"
 "http://www.w3.org/Graphics/SVG/1.1/DTD/svg11.dtd">
<!-- Generated by graphviz version 2.40.1 (20161225.0304)
 -->
<!-- Title: bfl::sigma_point::unscented_transform Pages: 1 -->
<svg width="649pt" height="257pt"
 viewBox="0.00 0.00 648.58 257.00" xmlns="http://www.w3.org/2000/svg" xmlns:xlink="http://www.w3.org/1999/xlink">
<g id="graph0" class="graph" transform="scale(1 1) rotate(0) translate(4 253)">
<title>bfl::sigma_point::unscented_transform</title>
<polygon fill="#ffffff" stroke="transparent" points="-4,4 -4,-253 644.5791,-253 644.5791,4 -4,4"/>
<!-- Node12 -->
<g id="node1" class="node">
<title>Node12</title>
<polygon fill="#bfbfbf" stroke="#000000" points="0,-178.5 0,-206.5 137.7432,-206.5 137.7432,-178.5 0,-178.5"/>
<text text-anchor="start" x="8" y="-194.5" font-family="Helvetica,sans-Serif" font-size="10.00" fill="#000000">bfl::sigma_point::unscented</text>
<text text-anchor="middle" x="68.8716" y="-184.5" font-family="Helvetica,sans-Serif" font-size="10.00" fill="#000000">_transform</text>
</g>
<!-- Node13 -->
<g id="node2" class="node">
<title>Node13</title>
<g id="a_node2"><a xlink:href="classbfl_1_1StateModel.html#a6bf680b689389d959fc9ac46595e6dab" target="_top" xlink:title="Returns the linear and circular size of the output of the state equation. ">
<polygon fill="#ffffff" stroke="#000000" points="173.7432,-220.5 173.7432,-238.5 325.3779,-238.5 325.3779,-220.5 173.7432,-220.5"/>
<text text-anchor="middle" x="249.5605" y="-226.5" font-family="Helvetica,sans-Serif" font-size="10.00" fill="#000000">bfl::StateModel::getOutputSize</text>
</a>
</g>
</g>
<!-- Node12&#45;&gt;Node13 -->
<g id="edge1" class="edge">
<title>Node12&#45;&gt;Node13</title>
<path fill="none" stroke="#191970" d="M137.44,-206.5409C156.6457,-210.4737 177.2477,-214.6924 195.4852,-218.4269"/>
<polygon fill="#191970" stroke="#191970" points="194.8511,-221.8696 205.35,-220.4469 196.2555,-215.0119 194.8511,-221.8696"/>
</g>
<!-- Node14 -->
<g id="node3" class="node">
<title>Node14</title>
<g id="a_node3"><a xlink:href="classbfl_1_1StateModel.html#a34037bc30bc07667b76b5a719a65ab82" target="_top" xlink:title="bfl::StateModel::motion">
<polygon fill="#ffffff" stroke="#000000" points="190.4229,-183.5 190.4229,-201.5 308.6982,-201.5 308.6982,-183.5 190.4229,-183.5"/>
<text text-anchor="middle" x="249.5605" y="-189.5" font-family="Helvetica,sans-Serif" font-size="10.00" fill="#000000">bfl::StateModel::motion</text>
</a>
</g>
</g>
<!-- Node12&#45;&gt;Node14 -->
<g id="edge2" class="edge">
<title>Node12&#45;&gt;Node14</title>
<path fill="none" stroke="#191970" d="M137.9558,-192.5C151.6903,-192.5 166.1199,-192.5 179.8744,-192.5"/>
<polygon fill="#191970" stroke="#191970" points="180.2384,-196.0001 190.2384,-192.5 180.2383,-189.0001 180.2384,-196.0001"/>
</g>
<!-- Node15 -->
<g id="node4" class="node">
<title>Node15</title>
<g id="a_node4"><a xlink:href="namespacebfl_1_1sigma__point.html#afe170453152d4f96db4dad71bd9be9a3" target="_top" xlink:title="bfl::sigma_point::unscented\l_transform">
<polygon fill="#ffffff" stroke="#000000" points="180.689,-136.5 180.689,-164.5 318.4321,-164.5 318.4321,-136.5 180.689,-136.5"/>
<text text-anchor="start" x="188.689" y="-152.5" font-family="Helvetica,sans-Serif" font-size="10.00" fill="#000000">bfl::sigma_point::unscented</text>
<text text-anchor="middle" x="249.5605" y="-142.5" font-family="Helvetica,sans-Serif" font-size="10.00" fill="#000000">_transform</text>
</a>
</g>
</g>
<!-- Node12&#45;&gt;Node15 -->
<g id="edge3" class="edge">
<title>Node12&#45;&gt;Node15</title>
<path fill="none" stroke="#191970" d="M129.2896,-178.4562C145.262,-174.7435 162.6414,-170.7038 179.0951,-166.8792"/>
<polygon fill="#191970" stroke="#191970" points="180.2516,-170.2038 189.1995,-164.5306 178.6667,-163.3856 180.2516,-170.2038"/>
</g>
<!-- Node16 -->
<g id="node5" class="node">
<title>Node16</title>
<g id="a_node5"><a xlink:href="namespacebfl_1_1any.html#a4ecb51ad57b3fa935cabdc0dcdcb4df1" target="_top" xlink:title="Performs type&#45;safe access to the contained object. ">
<polygon fill="#ffffff" stroke="#000000" points="375.2671,-230.5 375.2671,-248.5 469.0894,-248.5 469.0894,-230.5 375.2671,-230.5"/>
<text text-anchor="middle" x="422.1782" y="-236.5" font-family="Helvetica,sans-Serif" font-size="10.00" fill="#000000">bfl::any::any_cast</text>
</a>
</g>
</g>
<!-- Node15&#45;&gt;Node16 -->
<g id="edge4" class="edge">
<title>Node15&#45;&gt;Node16</title>
<path fill="none" stroke="#191970" d="M307.246,-164.5767C313.6446,-167.3365 319.8401,-170.6141 325.3779,-174.5 346.9167,-189.6138 339.6985,-206.5887 361.3779,-221.5 364.0536,-223.3404 366.92,-224.9956 369.8976,-226.4839"/>
<polygon fill="#191970" stroke="#191970" points="368.5175,-229.7003 379.0847,-230.4665 371.3017,-223.2778 368.5175,-229.7003"/>
</g>
<!-- Node17 -->
<g id="node6" class="node">
<title>Node17</title>
<g id="a_node6"><a xlink:href="namespacebfl_1_1directional__statistics.html#ad8758aac208bc2baa75aad514a3f53e6" target="_top" xlink:title="bfl::directional_statistics\l::directional_mean">
<polygon fill="#ffffff" stroke="#000000" points="361.3779,-183.5 361.3779,-211.5 482.9785,-211.5 482.9785,-183.5 361.3779,-183.5"/>
<text text-anchor="start" x="369.3779" y="-199.5" font-family="Helvetica,sans-Serif" font-size="10.00" fill="#000000">bfl::directional_statistics</text>
<text text-anchor="middle" x="422.1782" y="-189.5" font-family="Helvetica,sans-Serif" font-size="10.00" fill="#000000">::directional_mean</text>
</a>
</g>
</g>
<!-- Node15&#45;&gt;Node17 -->
<g id="edge5" class="edge">
<title>Node15&#45;&gt;Node17</title>
<path fill="none" stroke="#191970" d="M301.3515,-164.6015C320.1265,-169.7136 341.5106,-175.536 361.0171,-180.8472"/>
<polygon fill="#191970" stroke="#191970" points="360.1532,-184.2393 370.7214,-183.4894 361.9922,-177.4852 360.1532,-184.2393"/>
</g>
<!-- Node18 -->
<g id="node7" class="node">
<title>Node18</title>
<g id="a_node7"><a xlink:href="namespacebfl_1_1directional__statistics.html#a18bffca88c7ea5f4ea11d2ad910736fe" target="_top" xlink:title="bfl::directional_statistics\l::directional_sub">
<polygon fill="#ffffff" stroke="#000000" points="361.3779,-136.5 361.3779,-164.5 482.9785,-164.5 482.9785,-136.5 361.3779,-136.5"/>
<text text-anchor="start" x="369.3779" y="-152.5" font-family="Helvetica,sans-Serif" font-size="10.00" fill="#000000">bfl::directional_statistics</text>
<text text-anchor="middle" x="422.1782" y="-142.5" font-family="Helvetica,sans-Serif" font-size="10.00" fill="#000000">::directional_sub</text>
</a>
</g>
</g>
<!-- Node15&#45;&gt;Node18 -->
<g id="edge6" class="edge">
<title>Node15&#45;&gt;Node18</title>
<path fill="none" stroke="#191970" d="M318.7761,-150.5C329.4381,-150.5 340.4626,-150.5 351.1631,-150.5"/>
<polygon fill="#191970" stroke="#191970" points="351.3008,-154.0001 361.3007,-150.5 351.3007,-147.0001 351.3008,-154.0001"/>
</g>
<!-- Node19 -->
<g id="node8" class="node">
<title>Node19</title>
<g id="a_node8"><a xlink:href="classbfl_1_1GaussianMixture.html#af4fd865a97ac27c72510cfbf9429bd97" target="_top" xlink:title="bfl::GaussianMixture\l::mean">
<polygon fill="#ffffff" stroke="#000000" points="526.2051,-94.5 526.2051,-122.5 633.3525,-122.5 633.3525,-94.5 526.2051,-94.5"/>
<text text-anchor="start" x="534.2051" y="-110.5" font-family="Helvetica,sans-Serif" font-size="10.00" fill="#000000">bfl::GaussianMixture</text>
<text text-anchor="middle" x="579.7788" y="-100.5" font-family="Helvetica,sans-Serif" font-size="10.00" fill="#000000">::mean</text>
</a>
</g>
</g>
<!-- Node15&#45;&gt;Node19 -->
<g id="edge7" class="edge">
<title>Node15&#45;&gt;Node19</title>
<path fill="none" stroke="#191970" d="M311.1442,-136.4977C327.413,-133.1655 345.0022,-129.8883 361.3779,-127.5 413.1546,-119.9488 472.3065,-115.0285 515.98,-112.091"/>
<polygon fill="#191970" stroke="#191970" points="516.4241,-115.5695 526.1736,-111.4225 515.9659,-108.5845 516.4241,-115.5695"/>
</g>
<!-- Node20 -->
<g id="node9" class="node">
<title>Node20</title>
<g id="a_node9"><a xlink:href="namespacebfl_1_1sigma__point.html#ab919aca5fccc30ee2acd5cd966cd9dc9" target="_top" xlink:title="bfl::sigma_point::sigma\l_point">
<polygon fill="#ffffff" stroke="#000000" points="363.043,-49.5 363.043,-77.5 481.3135,-77.5 481.3135,-49.5 363.043,-49.5"/>
<text text-anchor="start" x="371.043" y="-65.5" font-family="Helvetica,sans-Serif" font-size="10.00" fill="#000000">bfl::sigma_point::sigma</text>
<text text-anchor="middle" x="422.1782" y="-55.5" font-family="Helvetica,sans-Serif" font-size="10.00" fill="#000000">_point</text>
</a>
</g>
</g>
<!-- Node15&#45;&gt;Node20 -->
<g id="edge8" class="edge">
<title>Node15&#45;&gt;Node20</title>
<path fill="none" stroke="#191970" d="M277.0811,-136.3449C299.6836,-124.7499 332.5521,-107.958 361.3779,-93.5 368.7832,-89.7858 376.7123,-85.8463 384.3175,-82.0861"/>
<polygon fill="#191970" stroke="#191970" points="385.9579,-85.1796 393.3765,-77.6156 382.8601,-78.9023 385.9579,-85.1796"/>
</g>
<!-- Node20&#45;&gt;Node19 -->
<g id="edge11" class="edge">
<title>Node20&#45;&gt;Node19</title>
<path fill="none" stroke="#191970" d="M471.6116,-77.6148C487.1609,-82.0546 504.4905,-87.0028 520.6425,-91.6147"/>
<polygon fill="#191970" stroke="#191970" points="519.9441,-95.0551 530.5208,-94.4353 521.8661,-88.3241 519.9441,-95.0551"/>
</g>
<!-- Node21 -->
<g id="node10" class="node">
<title>Node21</title>
<g id="a_node10"><a xlink:href="classbfl_1_1GaussianMixture.html#a65a60ef46d16ac33196a09963bbccdee" target="_top" xlink:title="bfl::GaussianMixture\l::covariance">
<polygon fill="#ffffff" stroke="#000000" points="526.2051,-47.5 526.2051,-75.5 633.3525,-75.5 633.3525,-47.5 526.2051,-47.5"/>
<text text-anchor="start" x="534.2051" y="-63.5" font-family="Helvetica,sans-Serif" font-size="10.00" fill="#000000">bfl::GaussianMixture</text>
<text text-anchor="middle" x="579.7788" y="-53.5" font-family="Helvetica,sans-Serif" font-size="10.00" fill="#000000">::covariance</text>
</a>
</g>
</g>
<!-- Node20&#45;&gt;Node21 -->
<g id="edge9" class="edge">
<title>Node20&#45;&gt;Node21</title>
<path fill="none" stroke="#191970" d="M481.7602,-62.7439C492.9054,-62.6025 504.5968,-62.4541 515.8666,-62.3111"/>
<polygon fill="#191970" stroke="#191970" points="516.1154,-65.8083 526.0701,-62.1816 516.0265,-58.8089 516.1154,-65.8083"/>
</g>
<!-- Node22 -->
<g id="node11" class="node">
<title>Node22</title>
<g id="a_node11"><a xlink:href="namespacebfl_1_1directional__statistics.html#af9984a4df2b3f6f0bc0c264783181123" target="_top" xlink:title="bfl::directional_statistics\l::directional_add">
<polygon fill="#ffffff" stroke="#000000" points="518.9785,-.5 518.9785,-28.5 640.5791,-28.5 640.5791,-.5 518.9785,-.5"/>
<text text-anchor="start" x="526.9785" y="-16.5" font-family="Helvetica,sans-Serif" font-size="10.00" fill="#000000">bfl::directional_statistics</text>
<text text-anchor="middle" x="579.7788" y="-6.5" font-family="Helvetica,sans-Serif" font-size="10.00" fill="#000000">::directional_add</text>
</a>
</g>
</g>
<!-- Node20&#45;&gt;Node22 -->
<g id="edge10" class="edge">
<title>Node20&#45;&gt;Node22</title>
<path fill="none" stroke="#191970" d="M467.3402,-49.4586C485.3102,-43.8715 506.1533,-37.3911 524.9768,-31.5386"/>
<polygon fill="#191970" stroke="#191970" points="526.1003,-34.8547 534.6102,-28.5435 524.0219,-28.1703 526.1003,-34.8547"/>
</g>
</g>
</svg>
