<?xml version="1.0" encoding="UTF-8" standalone="no"?>
<!DOCTYPE svg PUBLIC "-//W3C//DTD SVG 1.1//EN"
 "http://www.w3.org/Graphics/SVG/1.1/DTD/svg11.dtd">
<!-- Generated by graphviz version 2.40.1 (20161225.0304)
 -->
<!-- Title: bfl::sigma_point::unscented_transform Pages: 1 -->
<svg width="635pt" height="267pt"
 viewBox="0.00 0.00 634.69 267.00" xmlns="http://www.w3.org/2000/svg" xmlns:xlink="http://www.w3.org/1999/xlink">
<g id="graph0" class="graph" transform="scale(1 1) rotate(0) translate(4 263)">
<title>bfl::sigma_point::unscented_transform</title>
<polygon fill="#ffffff" stroke="transparent" points="-4,4 -4,-263 630.6875,-263 630.6875,4 -4,4"/>
<!-- Node60 -->
<g id="node1" class="node">
<title>Node60</title>
<polygon fill="#bfbfbf" stroke="#000000" points="0,-183.5 0,-211.5 137.7432,-211.5 137.7432,-183.5 0,-183.5"/>
<text text-anchor="start" x="8" y="-199.5" font-family="Helvetica,sans-Serif" font-size="10.00" fill="#000000">bfl::sigma_point::unscented</text>
<text text-anchor="middle" x="68.8716" y="-189.5" font-family="Helvetica,sans-Serif" font-size="10.00" fill="#000000">_transform</text>
</g>
<!-- Node61 -->
<g id="node2" class="node">
<title>Node61</title>
<g id="a_node2"><a xlink:href="classbfl_1_1ExogenousModel.html#a68fef857e5d251be2865eb6fd7642f1a" target="_top" xlink:title="bfl::ExogenousModel\l::getOutputSize">
<polygon fill="#ffffff" stroke="#000000" points="187.918,-230.5 187.918,-258.5 297.3115,-258.5 297.3115,-230.5 187.918,-230.5"/>
<text text-anchor="start" x="195.918" y="-246.5" font-family="Helvetica,sans-Serif" font-size="10.00" fill="#000000">bfl::ExogenousModel</text>
<text text-anchor="middle" x="242.6147" y="-236.5" font-family="Helvetica,sans-Serif" font-size="10.00" fill="#000000">::getOutputSize</text>
</a>
</g>
</g>
<!-- Node60&#45;&gt;Node61 -->
<g id="edge1" class="edge">
<title>Node60&#45;&gt;Node61</title>
<path fill="none" stroke="#191970" d="M121.0003,-211.6015C139.8977,-216.7136 161.4212,-222.536 181.0548,-227.8472"/>
<polygon fill="#191970" stroke="#191970" points="180.2554,-231.2567 190.8224,-230.4894 182.0834,-224.4995 180.2554,-231.2567"/>
</g>
<!-- Node62 -->
<g id="node3" class="node">
<title>Node62</title>
<g id="a_node3"><a xlink:href="classbfl_1_1ExogenousModel.html#a9f3ec7b8fa1a6c1bb4f5889ba85e6d91" target="_top" xlink:title="bfl::ExogenousModel\l::propagate">
<polygon fill="#ffffff" stroke="#000000" points="187.918,-183.5 187.918,-211.5 297.3115,-211.5 297.3115,-183.5 187.918,-183.5"/>
<text text-anchor="start" x="195.918" y="-199.5" font-family="Helvetica,sans-Serif" font-size="10.00" fill="#000000">bfl::ExogenousModel</text>
<text text-anchor="middle" x="242.6147" y="-189.5" font-family="Helvetica,sans-Serif" font-size="10.00" fill="#000000">::propagate</text>
</a>
</g>
</g>
<!-- Node60&#45;&gt;Node62 -->
<g id="edge2" class="edge">
<title>Node60&#45;&gt;Node62</title>
<path fill="none" stroke="#191970" d="M138.0387,-197.5C151.106,-197.5 164.7314,-197.5 177.6634,-197.5"/>
<polygon fill="#191970" stroke="#191970" points="177.8621,-201.0001 187.8621,-197.5 177.8621,-194.0001 177.8621,-201.0001"/>
</g>
<!-- Node63 -->
<g id="node4" class="node">
<title>Node63</title>
<g id="a_node4"><a xlink:href="namespacebfl_1_1sigma__point.html#afe170453152d4f96db4dad71bd9be9a3" target="_top" xlink:title="bfl::sigma_point::unscented\l_transform">
<polygon fill="#ffffff" stroke="#000000" points="173.7432,-136.5 173.7432,-164.5 311.4863,-164.5 311.4863,-136.5 173.7432,-136.5"/>
<text text-anchor="start" x="181.7432" y="-152.5" font-family="Helvetica,sans-Serif" font-size="10.00" fill="#000000">bfl::sigma_point::unscented</text>
<text text-anchor="middle" x="242.6147" y="-142.5" font-family="Helvetica,sans-Serif" font-size="10.00" fill="#000000">_transform</text>
</a>
</g>
</g>
<!-- Node60&#45;&gt;Node63 -->
<g id="edge3" class="edge">
<title>Node60&#45;&gt;Node63</title>
<path fill="none" stroke="#191970" d="M121.0003,-183.3985C139.8977,-178.2864 161.4212,-172.464 181.0548,-167.1528"/>
<polygon fill="#191970" stroke="#191970" points="182.0834,-170.5005 190.8224,-164.5106 180.2554,-163.7433 182.0834,-170.5005"/>
</g>
<!-- Node64 -->
<g id="node5" class="node">
<title>Node64</title>
<g id="a_node5"><a xlink:href="namespacebfl_1_1any.html#a4ecb51ad57b3fa935cabdc0dcdcb4df1" target="_top" xlink:title="Performs type&#45;safe access to the contained object. ">
<polygon fill="#ffffff" stroke="#000000" points="361.3755,-230.5 361.3755,-248.5 455.1978,-248.5 455.1978,-230.5 361.3755,-230.5"/>
<text text-anchor="middle" x="408.2866" y="-236.5" font-family="Helvetica,sans-Serif" font-size="10.00" fill="#000000">bfl::any::any_cast</text>
</a>
</g>
</g>
<!-- Node63&#45;&gt;Node64 -->
<g id="edge4" class="edge">
<title>Node63&#45;&gt;Node64</title>
<path fill="none" stroke="#191970" d="M293.9529,-164.58C300.1423,-167.3594 306.1515,-170.641 311.4863,-174.5 332.8057,-189.9218 325.8069,-206.5887 347.4863,-221.5 350.162,-223.3404 353.0284,-224.9956 356.006,-226.4839"/>
<polygon fill="#191970" stroke="#191970" points="354.6259,-229.7003 365.1931,-230.4665 357.4101,-223.2778 354.6259,-229.7003"/>
</g>
<!-- Node65 -->
<g id="node6" class="node">
<title>Node65</title>
<g id="a_node6"><a xlink:href="namespacebfl_1_1directional__statistics.html#ad8758aac208bc2baa75aad514a3f53e6" target="_top" xlink:title="bfl::directional_statistics\l::directional_mean">
<polygon fill="#ffffff" stroke="#000000" points="347.4863,-183.5 347.4863,-211.5 469.0869,-211.5 469.0869,-183.5 347.4863,-183.5"/>
<text text-anchor="start" x="355.4863" y="-199.5" font-family="Helvetica,sans-Serif" font-size="10.00" fill="#000000">bfl::directional_statistics</text>
<text text-anchor="middle" x="408.2866" y="-189.5" font-family="Helvetica,sans-Serif" font-size="10.00" fill="#000000">::directional_mean</text>
</a>
</g>
</g>
<!-- Node63&#45;&gt;Node65 -->
<g id="edge5" class="edge">
<title>Node63&#45;&gt;Node65</title>
<path fill="none" stroke="#191970" d="M292.3218,-164.6015C310.1767,-169.6669 330.4903,-175.4297 349.0731,-180.7015"/>
<polygon fill="#191970" stroke="#191970" points="348.3247,-184.1273 358.9003,-183.4894 350.2352,-177.393 348.3247,-184.1273"/>
</g>
<!-- Node66 -->
<g id="node7" class="node">
<title>Node66</title>
<g id="a_node7"><a xlink:href="namespacebfl_1_1directional__statistics.html#a18bffca88c7ea5f4ea11d2ad910736fe" target="_top" xlink:title="bfl::directional_statistics\l::directional_sub">
<polygon fill="#ffffff" stroke="#000000" points="347.4863,-136.5 347.4863,-164.5 469.0869,-164.5 469.0869,-136.5 347.4863,-136.5"/>
<text text-anchor="start" x="355.4863" y="-152.5" font-family="Helvetica,sans-Serif" font-size="10.00" fill="#000000">bfl::directional_statistics</text>
<text text-anchor="middle" x="408.2866" y="-142.5" font-family="Helvetica,sans-Serif" font-size="10.00" fill="#000000">::directional_sub</text>
</a>
</g>
</g>
<!-- Node63&#45;&gt;Node66 -->
<g id="edge6" class="edge">
<title>Node63&#45;&gt;Node66</title>
<path fill="none" stroke="#191970" d="M311.9146,-150.5C320.2986,-150.5 328.8728,-150.5 337.281,-150.5"/>
<polygon fill="#191970" stroke="#191970" points="337.4309,-154.0001 347.4308,-150.5 337.4308,-147.0001 337.4309,-154.0001"/>
</g>
<!-- Node67 -->
<g id="node8" class="node">
<title>Node67</title>
<g id="a_node8"><a xlink:href="classbfl_1_1GaussianMixture.html#af4fd865a97ac27c72510cfbf9429bd97" target="_top" xlink:title="bfl::GaussianMixture\l::mean">
<polygon fill="#ffffff" stroke="#000000" points="512.3135,-94.5 512.3135,-122.5 619.4609,-122.5 619.4609,-94.5 512.3135,-94.5"/>
<text text-anchor="start" x="520.3135" y="-110.5" font-family="Helvetica,sans-Serif" font-size="10.00" fill="#000000">bfl::GaussianMixture</text>
<text text-anchor="middle" x="565.8872" y="-100.5" font-family="Helvetica,sans-Serif" font-size="10.00" fill="#000000">::mean</text>
</a>
</g>
</g>
<!-- Node63&#45;&gt;Node67 -->
<g id="edge7" class="edge">
<title>Node63&#45;&gt;Node67</title>
<path fill="none" stroke="#191970" d="M300.3353,-136.4407C315.594,-133.1091 332.1002,-129.8464 347.4863,-127.5 399.2126,-119.6115 458.3683,-114.7162 502.0561,-111.8741"/>
<polygon fill="#191970" stroke="#191970" points="502.4939,-115.3535 512.2532,-111.2297 502.0524,-108.3675 502.4939,-115.3535"/>
</g>
<!-- Node68 -->
<g id="node9" class="node">
<title>Node68</title>
<g id="a_node9"><a xlink:href="namespacebfl_1_1sigma__point.html#ab919aca5fccc30ee2acd5cd966cd9dc9" target="_top" xlink:title="bfl::sigma_point::sigma\l_point">
<polygon fill="#ffffff" stroke="#000000" points="349.1514,-49.5 349.1514,-77.5 467.4219,-77.5 467.4219,-49.5 349.1514,-49.5"/>
<text text-anchor="start" x="357.1514" y="-65.5" font-family="Helvetica,sans-Serif" font-size="10.00" fill="#000000">bfl::sigma_point::sigma</text>
<text text-anchor="middle" x="408.2866" y="-55.5" font-family="Helvetica,sans-Serif" font-size="10.00" fill="#000000">_point</text>
</a>
</g>
</g>
<!-- Node63&#45;&gt;Node68 -->
<g id="edge8" class="edge">
<title>Node63&#45;&gt;Node68</title>
<path fill="none" stroke="#191970" d="M267.8947,-136.3962C289.0436,-124.685 320.0723,-107.7063 347.4863,-93.5 354.6875,-89.7682 362.4171,-85.8719 369.8688,-82.1699"/>
<polygon fill="#191970" stroke="#191970" points="371.6821,-85.1781 379.0984,-77.6118 368.5824,-78.9017 371.6821,-85.1781"/>
</g>
<!-- Node68&#45;&gt;Node67 -->
<g id="edge11" class="edge">
<title>Node68&#45;&gt;Node67</title>
<path fill="none" stroke="#191970" d="M457.72,-77.6148C473.2693,-82.0546 490.5989,-87.0028 506.7509,-91.6147"/>
<polygon fill="#191970" stroke="#191970" points="506.0525,-95.0551 516.6292,-94.4353 507.9745,-88.3241 506.0525,-95.0551"/>
</g>
<!-- Node69 -->
<g id="node10" class="node">
<title>Node69</title>
<g id="a_node10"><a xlink:href="classbfl_1_1GaussianMixture.html#a65a60ef46d16ac33196a09963bbccdee" target="_top" xlink:title="bfl::GaussianMixture\l::covariance">
<polygon fill="#ffffff" stroke="#000000" points="512.3135,-47.5 512.3135,-75.5 619.4609,-75.5 619.4609,-47.5 512.3135,-47.5"/>
<text text-anchor="start" x="520.3135" y="-63.5" font-family="Helvetica,sans-Serif" font-size="10.00" fill="#000000">bfl::GaussianMixture</text>
<text text-anchor="middle" x="565.8872" y="-53.5" font-family="Helvetica,sans-Serif" font-size="10.00" fill="#000000">::covariance</text>
</a>
</g>
</g>
<!-- Node68&#45;&gt;Node69 -->
<g id="edge9" class="edge">
<title>Node68&#45;&gt;Node69</title>
<path fill="none" stroke="#191970" d="M467.8686,-62.7439C479.0138,-62.6025 490.7052,-62.4541 501.975,-62.3111"/>
<polygon fill="#191970" stroke="#191970" points="502.2238,-65.8083 512.1785,-62.1816 502.1349,-58.8089 502.2238,-65.8083"/>
</g>
<!-- Node70 -->
<g id="node11" class="node">
<title>Node70</title>
<g id="a_node11"><a xlink:href="namespacebfl_1_1directional__statistics.html#af9984a4df2b3f6f0bc0c264783181123" target="_top" xlink:title="bfl::directional_statistics\l::directional_add">
<polygon fill="#ffffff" stroke="#000000" points="505.0869,-.5 505.0869,-28.5 626.6875,-28.5 626.6875,-.5 505.0869,-.5"/>
<text text-anchor="start" x="513.0869" y="-16.5" font-family="Helvetica,sans-Serif" font-size="10.00" fill="#000000">bfl::directional_statistics</text>
<text text-anchor="middle" x="565.8872" y="-6.5" font-family="Helvetica,sans-Serif" font-size="10.00" fill="#000000">::directional_add</text>
</a>
</g>
</g>
<!-- Node68&#45;&gt;Node70 -->
<g id="edge10" class="edge">
<title>Node68&#45;&gt;Node70</title>
<path fill="none" stroke="#191970" d="M453.4486,-49.4586C471.4186,-43.8715 492.2617,-37.3911 511.0852,-31.5386"/>
<polygon fill="#191970" stroke="#191970" points="512.2087,-34.8547 520.7186,-28.5435 510.1303,-28.1703 512.2087,-34.8547"/>
</g>
</g>
</svg>
