<?xml version="1.0" encoding="UTF-8" standalone="no"?>
<!DOCTYPE svg PUBLIC "-//W3C//DTD SVG 1.1//EN"
 "http://www.w3.org/Graphics/SVG/1.1/DTD/svg11.dtd">
<!-- Generated by graphviz version 2.40.1 (20161225.0304)
 -->
<!-- Title: bfl::sigma_point::sigma_point Pages: 1 -->
<svg width="284pt" height="131pt"
 viewBox="0.00 0.00 283.87 131.00" xmlns="http://www.w3.org/2000/svg" xmlns:xlink="http://www.w3.org/1999/xlink">
<g id="graph0" class="graph" transform="scale(1 1) rotate(0) translate(4 127)">
<title>bfl::sigma_point::sigma_point</title>
<polygon fill="#ffffff" stroke="transparent" points="-4,4 -4,-127 279.8711,-127 279.8711,4 -4,4"/>
<!-- Node0 -->
<g id="node1" class="node">
<title>Node0</title>
<polygon fill="#bfbfbf" stroke="#000000" points="0,-47.5 0,-75.5 118.2705,-75.5 118.2705,-47.5 0,-47.5"/>
<text text-anchor="start" x="8" y="-63.5" font-family="Helvetica,sans-Serif" font-size="10.00" fill="#000000">bfl::sigma_point::sigma</text>
<text text-anchor="middle" x="59.1353" y="-53.5" font-family="Helvetica,sans-Serif" font-size="10.00" fill="#000000">_point</text>
</g>
<!-- Node1 -->
<g id="node2" class="node">
<title>Node1</title>
<g id="a_node2"><a xlink:href="classbfl_1_1GaussianMixture.html#a65a60ef46d16ac33196a09963bbccdee" target="_top" xlink:title="bfl::GaussianMixture\l::covariance">
<polygon fill="#ffffff" stroke="#000000" points="161.4971,-94.5 161.4971,-122.5 268.6445,-122.5 268.6445,-94.5 161.4971,-94.5"/>
<text text-anchor="start" x="169.4971" y="-110.5" font-family="Helvetica,sans-Serif" font-size="10.00" fill="#000000">bfl::GaussianMixture</text>
<text text-anchor="middle" x="215.0708" y="-100.5" font-family="Helvetica,sans-Serif" font-size="10.00" fill="#000000">::covariance</text>
</a>
</g>
</g>
<!-- Node0&#45;&gt;Node1 -->
<g id="edge1" class="edge">
<title>Node0&#45;&gt;Node1</title>
<path fill="none" stroke="#191970" d="M105.9211,-75.6015C122.4944,-80.5969 141.3183,-86.2705 158.6108,-91.4826"/>
<polygon fill="#191970" stroke="#191970" points="158.0023,-94.9546 168.5869,-94.4894 160.0224,-88.2525 158.0023,-94.9546"/>
</g>
<!-- Node2 -->
<g id="node3" class="node">
<title>Node2</title>
<g id="a_node3"><a xlink:href="namespacebfl_1_1directional__statistics.html#af9984a4df2b3f6f0bc0c264783181123" target="_top" xlink:title="bfl::directional_statistics\l::directional_add">
<polygon fill="#ffffff" stroke="#000000" points="154.2705,-47.5 154.2705,-75.5 275.8711,-75.5 275.8711,-47.5 154.2705,-47.5"/>
<text text-anchor="start" x="162.2705" y="-63.5" font-family="Helvetica,sans-Serif" font-size="10.00" fill="#000000">bfl::directional_statistics</text>
<text text-anchor="middle" x="215.0708" y="-53.5" font-family="Helvetica,sans-Serif" font-size="10.00" fill="#000000">::directional_add</text>
</a>
</g>
</g>
<!-- Node0&#45;&gt;Node2 -->
<g id="edge2" class="edge">
<title>Node0&#45;&gt;Node2</title>
<path fill="none" stroke="#191970" d="M118.5326,-61.5C126.7932,-61.5 135.3491,-61.5 143.7993,-61.5"/>
<polygon fill="#191970" stroke="#191970" points="144.0274,-65.0001 154.0274,-61.5 144.0273,-58.0001 144.0274,-65.0001"/>
</g>
<!-- Node3 -->
<g id="node4" class="node">
<title>Node3</title>
<g id="a_node4"><a xlink:href="classbfl_1_1GaussianMixture.html#af4fd865a97ac27c72510cfbf9429bd97" target="_top" xlink:title="bfl::GaussianMixture\l::mean">
<polygon fill="#ffffff" stroke="#000000" points="161.4971,-.5 161.4971,-28.5 268.6445,-28.5 268.6445,-.5 161.4971,-.5"/>
<text text-anchor="start" x="169.4971" y="-16.5" font-family="Helvetica,sans-Serif" font-size="10.00" fill="#000000">bfl::GaussianMixture</text>
<text text-anchor="middle" x="215.0708" y="-6.5" font-family="Helvetica,sans-Serif" font-size="10.00" fill="#000000">::mean</text>
</a>
</g>
</g>
<!-- Node0&#45;&gt;Node3 -->
<g id="edge3" class="edge">
<title>Node0&#45;&gt;Node3</title>
<path fill="none" stroke="#191970" d="M105.9211,-47.3985C122.4944,-42.4031 141.3183,-36.7295 158.6108,-31.5174"/>
<polygon fill="#191970" stroke="#191970" points="160.0224,-34.7475 168.5869,-28.5106 158.0023,-28.0454 160.0224,-34.7475"/>
</g>
</g>
</svg>
