<?xml version="1.0" encoding="UTF-8" standalone="no"?>
<!DOCTYPE svg PUBLIC "-//W3C//DTD SVG 1.1//EN"
 "http://www.w3.org/Graphics/SVG/1.1/DTD/svg11.dtd">
<!-- Generated by graphviz version 2.40.1 (20161225.0304)
 -->
<!-- Title: /Users/Claudio/GitHub/bayes&#45;filters&#45;lib/src/BayesFilters/src/ParticleFilter.cpp Pages: 1 -->
<svg width="1460pt" height="452pt"
 viewBox="0.00 0.00 1460.31 452.00" xmlns="http://www.w3.org/2000/svg" xmlns:xlink="http://www.w3.org/1999/xlink">
<g id="graph0" class="graph" transform="scale(1 1) rotate(0) translate(4 448)">
<title>/Users/Claudio/GitHub/bayes&#45;filters&#45;lib/src/BayesFilters/src/ParticleFilter.cpp</title>
<polygon fill="#ffffff" stroke="transparent" points="-4,4 -4,-448 1456.3052,-448 1456.3052,4 -4,4"/>
<!-- Node0 -->
<g id="node1" class="node">
<title>Node0</title>
<polygon fill="#bfbfbf" stroke="#000000" points="1003.0049,-405.5 1003.0049,-443.5 1169.6055,-443.5 1169.6055,-405.5 1003.0049,-405.5"/>
<text text-anchor="start" x="1011.0049" y="-431.5" font-family="Helvetica,sans-Serif" font-size="10.00" fill="#000000">/Users/Claudio/GitHub</text>
<text text-anchor="start" x="1011.0049" y="-421.5" font-family="Helvetica,sans-Serif" font-size="10.00" fill="#000000">/bayes&#45;filters&#45;lib/src</text>
<text text-anchor="middle" x="1086.3052" y="-411.5" font-family="Helvetica,sans-Serif" font-size="10.00" fill="#000000">/BayesFilters/src/ParticleFilter.cpp</text>
</g>
<!-- Node1 -->
<g id="node2" class="node">
<title>Node1</title>
<g id="a_node2"><a xlink:href="ParticleFilter_8h.html" target="_top" xlink:title="BayesFilters/ParticleFilter.h">
<polygon fill="#ffffff" stroke="#000000" points="1017.729,-350.5 1017.729,-368.5 1154.8813,-368.5 1154.8813,-350.5 1017.729,-350.5"/>
<text text-anchor="middle" x="1086.3052" y="-356.5" font-family="Helvetica,sans-Serif" font-size="10.00" fill="#000000">BayesFilters/ParticleFilter.h</text>
</a>
</g>
</g>
<!-- Node0&#45;&gt;Node1 -->
<g id="edge1" class="edge">
<title>Node0&#45;&gt;Node1</title>
<path fill="none" stroke="#191970" d="M1086.3052,-405.3494C1086.3052,-397.0079 1086.3052,-387.2463 1086.3052,-378.879"/>
<polygon fill="#191970" stroke="#191970" points="1089.8053,-378.5978 1086.3052,-368.5978 1082.8053,-378.5979 1089.8053,-378.5978"/>
</g>
<!-- Node2 -->
<g id="node3" class="node">
<title>Node2</title>
<g id="a_node3"><a xlink:href="FilteringAlgorithm_8h.html" target="_top" xlink:title="BayesFilters/FilteringAlgorithm.h">
<polygon fill="#ffffff" stroke="#000000" points="201.3374,-170.5 201.3374,-188.5 361.2729,-188.5 361.2729,-170.5 201.3374,-170.5"/>
<text text-anchor="middle" x="281.3052" y="-176.5" font-family="Helvetica,sans-Serif" font-size="10.00" fill="#000000">BayesFilters/FilteringAlgorithm.h</text>
</a>
</g>
</g>
<!-- Node1&#45;&gt;Node2 -->
<g id="edge2" class="edge">
<title>Node1&#45;&gt;Node2</title>
<path fill="none" stroke="#191970" d="M1017.496,-357.2338C932.0673,-353.2742 782.3447,-342.5655 657.3052,-314 523.8626,-283.5148 372.6035,-220.0503 310.3826,-192.6093"/>
<polygon fill="#191970" stroke="#191970" points="311.7376,-189.3815 301.1774,-188.5251 308.8986,-195.78 311.7376,-189.3815"/>
</g>
<!-- Node12 -->
<g id="node13" class="node">
<title>Node12</title>
<g id="a_node13"><a xlink:href="ParticleSetInitialization_8h.html" target="_top" xlink:title="BayesFilters/ParticleSet\lInitialization.h">
<polygon fill="#ffffff" stroke="#000000" points="1100.2314,-285.5 1100.2314,-313.5 1222.3789,-313.5 1222.3789,-285.5 1100.2314,-285.5"/>
<text text-anchor="start" x="1108.2314" y="-301.5" font-family="Helvetica,sans-Serif" font-size="10.00" fill="#000000">BayesFilters/ParticleSet</text>
<text text-anchor="middle" x="1161.3052" y="-291.5" font-family="Helvetica,sans-Serif" font-size="10.00" fill="#000000">Initialization.h</text>
</a>
</g>
</g>
<!-- Node1&#45;&gt;Node12 -->
<g id="edge13" class="edge">
<title>Node1&#45;&gt;Node12</title>
<path fill="none" stroke="#191970" d="M1097.6961,-350.3873C1107.7134,-342.3734 1122.6653,-330.4119 1135.5563,-320.0991"/>
<polygon fill="#191970" stroke="#191970" points="1138.0351,-322.5983 1143.6573,-313.6183 1133.6622,-317.1322 1138.0351,-322.5983"/>
</g>
<!-- Node16 -->
<g id="node17" class="node">
<title>Node16</title>
<g id="a_node17"><a xlink:href="PFCorrection_8h.html" target="_top" xlink:title="BayesFilters/PFCorrection.h">
<polygon fill="#ffffff" stroke="#000000" points="666.7856,-290.5 666.7856,-308.5 807.8247,-308.5 807.8247,-290.5 666.7856,-290.5"/>
<text text-anchor="middle" x="737.3052" y="-296.5" font-family="Helvetica,sans-Serif" font-size="10.00" fill="#000000">BayesFilters/PFCorrection.h</text>
</a>
</g>
</g>
<!-- Node1&#45;&gt;Node16 -->
<g id="edge20" class="edge">
<title>Node1&#45;&gt;Node16</title>
<path fill="none" stroke="#191970" d="M1033.6785,-350.4524C971.0094,-339.6784 866.4527,-321.703 799.7509,-310.2357"/>
<polygon fill="#191970" stroke="#191970" points="800.237,-306.768 789.7886,-308.5229 799.0509,-313.6668 800.237,-306.768"/>
</g>
<!-- Node22 -->
<g id="node23" class="node">
<title>Node22</title>
<polygon fill="#ffffff" stroke="#bfbfbf" points="787.2485,-.5 787.2485,-18.5 839.3618,-18.5 839.3618,-.5 787.2485,-.5"/>
<text text-anchor="middle" x="813.3052" y="-6.5" font-family="Helvetica,sans-Serif" font-size="10.00" fill="#000000">memory</text>
</g>
<!-- Node1&#45;&gt;Node22 -->
<g id="edge54" class="edge">
<title>Node1&#45;&gt;Node22</title>
<path fill="none" stroke="#191970" d="M1155.0221,-356.189C1235.5911,-351.1896 1363.2347,-339.4464 1403.3052,-314 1436.7604,-292.7546 1452.3052,-279.131 1452.3052,-239.5 1452.3052,-239.5 1452.3052,-239.5 1452.3052,-119.5 1452.3052,-38.2733 1360.415,-73.4233 1281.3052,-55 1199.1165,-35.8597 944.432,-17.9583 849.4792,-11.7789"/>
<polygon fill="#191970" stroke="#191970" points="849.6963,-8.2857 839.4915,-11.1339 849.2451,-15.2712 849.6963,-8.2857"/>
</g>
<!-- Node28 -->
<g id="node29" class="node">
<title>Node28</title>
<g id="a_node29"><a xlink:href="PFPrediction_8h.html" target="_top" xlink:title="BayesFilters/PFPrediction.h">
<polygon fill="#ffffff" stroke="#000000" points="942.6157,-290.5 942.6157,-308.5 1081.9946,-308.5 1081.9946,-290.5 942.6157,-290.5"/>
<text text-anchor="middle" x="1012.3052" y="-296.5" font-family="Helvetica,sans-Serif" font-size="10.00" fill="#000000">BayesFilters/PFPrediction.h</text>
</a>
</g>
</g>
<!-- Node1&#45;&gt;Node28 -->
<g id="edge41" class="edge">
<title>Node1&#45;&gt;Node28</title>
<path fill="none" stroke="#191970" d="M1075.0662,-350.3873C1063.5481,-341.0483 1045.4179,-326.3481 1031.5992,-315.1438"/>
<polygon fill="#191970" stroke="#191970" points="1033.6219,-312.2779 1023.65,-308.6985 1029.2132,-317.7152 1033.6219,-312.2779"/>
</g>
<!-- Node31 -->
<g id="node32" class="node">
<title>Node31</title>
<g id="a_node32"><a xlink:href="Resampling_8h.html" target="_top" xlink:title="BayesFilters/Resampling.h">
<polygon fill="#ffffff" stroke="#000000" points="1259.8374,-290.5 1259.8374,-308.5 1394.7729,-308.5 1394.7729,-290.5 1259.8374,-290.5"/>
<text text-anchor="middle" x="1327.3052" y="-296.5" font-family="Helvetica,sans-Serif" font-size="10.00" fill="#000000">BayesFilters/Resampling.h</text>
</a>
</g>
</g>
<!-- Node1&#45;&gt;Node31 -->
<g id="edge50" class="edge">
<title>Node1&#45;&gt;Node31</title>
<path fill="none" stroke="#191970" d="M1122.6462,-350.4524C1165.0334,-339.8996 1235.1701,-322.4382 1281.3137,-310.9502"/>
<polygon fill="#191970" stroke="#191970" points="1282.2048,-314.3352 1291.0631,-308.5229 1280.5137,-307.5426 1282.2048,-314.3352"/>
</g>
<!-- Node3 -->
<g id="node4" class="node">
<title>Node3</title>
<g id="a_node4"><a xlink:href="Logger_8h.html" target="_top" xlink:title="BayesFilters/Logger.h">
<polygon fill="#ffffff" stroke="#000000" points="342.9434,-110.5 342.9434,-128.5 455.667,-128.5 455.667,-110.5 342.9434,-110.5"/>
<text text-anchor="middle" x="399.3052" y="-116.5" font-family="Helvetica,sans-Serif" font-size="10.00" fill="#000000">BayesFilters/Logger.h</text>
</a>
</g>
</g>
<!-- Node2&#45;&gt;Node3 -->
<g id="edge3" class="edge">
<title>Node2&#45;&gt;Node3</title>
<path fill="none" stroke="#191970" d="M299.2268,-170.3873C318.746,-160.4623 350.1735,-144.4822 372.6014,-133.0782"/>
<polygon fill="#191970" stroke="#191970" points="374.274,-136.1542 381.6015,-128.5019 371.1012,-129.9145 374.274,-136.1542"/>
</g>
<!-- Node6 -->
<g id="node7" class="node">
<title>Node6</title>
<polygon fill="#ffffff" stroke="#bfbfbf" points="507.0786,-55.5 507.0786,-73.5 547.5317,-73.5 547.5317,-55.5 507.0786,-55.5"/>
<text text-anchor="middle" x="527.3052" y="-61.5" font-family="Helvetica,sans-Serif" font-size="10.00" fill="#000000">string</text>
</g>
<!-- Node2&#45;&gt;Node6 -->
<g id="edge10" class="edge">
<title>Node2&#45;&gt;Node6</title>
<path fill="none" stroke="#191970" d="M345.1281,-170.4175C381.8673,-163.167 427.8329,-150.5272 464.3052,-129 484.6224,-117.0081 502.8534,-96.7795 514.4123,-82.1695"/>
<polygon fill="#191970" stroke="#191970" points="517.4216,-83.9955 520.7062,-73.9226 511.857,-79.7486 517.4216,-83.9955"/>
</g>
<!-- Node8 -->
<g id="node9" class="node">
<title>Node8</title>
<polygon fill="#ffffff" stroke="#bfbfbf" points="0,-110.5 0,-128.5 96.6104,-128.5 96.6104,-110.5 0,-110.5"/>
<text text-anchor="middle" x="48.3052" y="-116.5" font-family="Helvetica,sans-Serif" font-size="10.00" fill="#000000">condition_variable</text>
</g>
<!-- Node2&#45;&gt;Node8 -->
<g id="edge8" class="edge">
<title>Node2&#45;&gt;Node8</title>
<path fill="none" stroke="#191970" d="M246.1704,-170.4524C205.2762,-159.9217 137.666,-142.5114 93.0509,-131.0225"/>
<polygon fill="#191970" stroke="#191970" points="93.9011,-127.6273 83.3442,-128.5229 92.1555,-134.4062 93.9011,-127.6273"/>
</g>
<!-- Node9 -->
<g id="node10" class="node">
<title>Node9</title>
<polygon fill="#ffffff" stroke="#bfbfbf" points="114.6895,-110.5 114.6895,-128.5 157.9209,-128.5 157.9209,-110.5 114.6895,-110.5"/>
<text text-anchor="middle" x="136.3052" y="-116.5" font-family="Helvetica,sans-Serif" font-size="10.00" fill="#000000">mutex</text>
</g>
<!-- Node2&#45;&gt;Node9 -->
<g id="edge9" class="edge">
<title>Node2&#45;&gt;Node9</title>
<path fill="none" stroke="#191970" d="M259.2828,-170.3873C234.8691,-160.2851 195.295,-143.9096 167.6534,-132.4717"/>
<polygon fill="#191970" stroke="#191970" points="168.6381,-129.0914 158.0597,-128.5019 165.9616,-135.5595 168.6381,-129.0914"/>
</g>
<!-- Node10 -->
<g id="node11" class="node">
<title>Node10</title>
<polygon fill="#ffffff" stroke="#bfbfbf" points="176.1279,-110.5 176.1279,-128.5 220.4824,-128.5 220.4824,-110.5 176.1279,-110.5"/>
<text text-anchor="middle" x="198.3052" y="-116.5" font-family="Helvetica,sans-Serif" font-size="10.00" fill="#000000">thread</text>
</g>
<!-- Node2&#45;&gt;Node10 -->
<g id="edge11" class="edge">
<title>Node2&#45;&gt;Node10</title>
<path fill="none" stroke="#191970" d="M268.6993,-170.3873C255.5826,-160.9054 234.821,-145.897 219.2377,-134.6319"/>
<polygon fill="#191970" stroke="#191970" points="220.9125,-131.5239 210.7578,-128.5019 216.8115,-137.1969 220.9125,-131.5239"/>
</g>
<!-- Node11 -->
<g id="node12" class="node">
<title>Node11</title>
<polygon fill="#ffffff" stroke="#bfbfbf" points="238.0024,-110.5 238.0024,-128.5 324.6079,-128.5 324.6079,-110.5 238.0024,-110.5"/>
<text text-anchor="middle" x="281.3052" y="-116.5" font-family="Helvetica,sans-Serif" font-size="10.00" fill="#000000">unordered_map</text>
</g>
<!-- Node2&#45;&gt;Node11 -->
<g id="edge12" class="edge">
<title>Node2&#45;&gt;Node11</title>
<path fill="none" stroke="#191970" d="M281.3052,-170.3873C281.3052,-162.0174 281.3052,-149.3414 281.3052,-138.735"/>
<polygon fill="#191970" stroke="#191970" points="284.8053,-138.6984 281.3052,-128.6985 277.8053,-138.6985 284.8053,-138.6984"/>
</g>
<!-- Node4 -->
<g id="node5" class="node">
<title>Node4</title>
<polygon fill="#ffffff" stroke="#bfbfbf" points="384.6353,-55.5 384.6353,-73.5 433.9751,-73.5 433.9751,-55.5 384.6353,-55.5"/>
<text text-anchor="middle" x="409.3052" y="-61.5" font-family="Helvetica,sans-Serif" font-size="10.00" fill="#000000">fstream</text>
</g>
<!-- Node3&#45;&gt;Node4 -->
<g id="edge4" class="edge">
<title>Node3&#45;&gt;Node4</title>
<path fill="none" stroke="#191970" d="M400.9565,-110.4179C402.2658,-103.2164 404.1422,-92.8962 405.7846,-83.8632"/>
<polygon fill="#191970" stroke="#191970" points="409.2726,-84.2443 407.618,-73.7795 402.3855,-82.992 409.2726,-84.2443"/>
</g>
<!-- Node5 -->
<g id="node6" class="node">
<title>Node5</title>
<polygon fill="#ffffff" stroke="#bfbfbf" points="312.1328,-55.5 312.1328,-73.5 366.4775,-73.5 366.4775,-55.5 312.1328,-55.5"/>
<text text-anchor="middle" x="339.3052" y="-61.5" font-family="Helvetica,sans-Serif" font-size="10.00" fill="#000000">iostream</text>
</g>
<!-- Node3&#45;&gt;Node5 -->
<g id="edge5" class="edge">
<title>Node3&#45;&gt;Node5</title>
<path fill="none" stroke="#191970" d="M389.3974,-110.4179C380.5916,-102.3458 367.5113,-90.3556 356.9252,-80.6517"/>
<polygon fill="#191970" stroke="#191970" points="359.1648,-77.9567 349.4282,-73.7795 354.4347,-83.1168 359.1648,-77.9567"/>
</g>
<!-- Node3&#45;&gt;Node6 -->
<g id="edge6" class="edge">
<title>Node3&#45;&gt;Node6</title>
<path fill="none" stroke="#191970" d="M420.4418,-110.4179C441.5358,-101.354 474.1273,-87.3499 497.7728,-77.1897"/>
<polygon fill="#191970" stroke="#191970" points="499.1775,-80.3956 506.9834,-73.232 496.4139,-73.9642 499.1775,-80.3956"/>
</g>
<!-- Node7 -->
<g id="node8" class="node">
<title>Node7</title>
<polygon fill="#ffffff" stroke="#bfbfbf" points="1228.6895,-55.5 1228.6895,-73.5 1271.9209,-73.5 1271.9209,-55.5 1228.6895,-55.5"/>
<text text-anchor="middle" x="1250.3052" y="-61.5" font-family="Helvetica,sans-Serif" font-size="10.00" fill="#000000">vector</text>
</g>
<!-- Node3&#45;&gt;Node7 -->
<g id="edge7" class="edge">
<title>Node3&#45;&gt;Node7</title>
<path fill="none" stroke="#191970" d="M455.6764,-113.9805C470.8111,-112.5861 487.175,-111.1576 502.3052,-110 779.5052,-88.7908 1115.1094,-71.2867 1218.4757,-66.0799"/>
<polygon fill="#191970" stroke="#191970" points="1218.7524,-69.5705 1228.5644,-65.5736 1218.4015,-62.5793 1218.7524,-69.5705"/>
</g>
<!-- Node13 -->
<g id="node14" class="node">
<title>Node13</title>
<g id="a_node14"><a xlink:href="ParticleSet_8h.html" target="_top" xlink:title="BayesFilters/ParticleSet.h">
<polygon fill="#ffffff" stroke="#000000" points="1178.0615,-230.5 1178.0615,-248.5 1308.5488,-248.5 1308.5488,-230.5 1178.0615,-230.5"/>
<text text-anchor="middle" x="1243.3052" y="-236.5" font-family="Helvetica,sans-Serif" font-size="10.00" fill="#000000">BayesFilters/ParticleSet.h</text>
</a>
</g>
</g>
<!-- Node12&#45;&gt;Node13 -->
<g id="edge14" class="edge">
<title>Node12&#45;&gt;Node13</title>
<path fill="none" stroke="#191970" d="M1180.738,-285.2808C1193.3596,-276.0456 1209.7931,-264.021 1222.6508,-254.613"/>
<polygon fill="#191970" stroke="#191970" points="1224.8866,-257.3139 1230.8901,-248.5842 1220.753,-251.6647 1224.8866,-257.3139"/>
</g>
<!-- Node15 -->
<g id="node16" class="node">
<title>Node15</title>
<polygon fill="#ffffff" stroke="#bfbfbf" points="944.6748,-110.5 944.6748,-128.5 1017.9355,-128.5 1017.9355,-110.5 944.6748,-110.5"/>
<text text-anchor="middle" x="981.3052" y="-116.5" font-family="Helvetica,sans-Serif" font-size="10.00" fill="#000000">Eigen/Dense</text>
</g>
<!-- Node12&#45;&gt;Node15 -->
<g id="edge19" class="edge">
<title>Node12&#45;&gt;Node15</title>
<path fill="none" stroke="#191970" d="M1161.5705,-285.195C1161.277,-258.0325 1156.6952,-198.6988 1124.3052,-165 1110.8146,-150.9643 1064.3399,-137.8096 1027.9902,-129.2907"/>
<polygon fill="#191970" stroke="#191970" points="1028.5708,-125.8332 1018.042,-127.014 1027.0092,-132.6568 1028.5708,-125.8332"/>
</g>
<!-- Node13&#45;&gt;Node7 -->
<g id="edge18" class="edge">
<title>Node13&#45;&gt;Node7</title>
<path fill="none" stroke="#191970" d="M1285.3505,-230.3416C1305.0052,-223.7266 1326.6101,-212.5685 1338.3052,-194 1364.9014,-151.7725 1308.0895,-103.5082 1273.825,-79.5844"/>
<polygon fill="#191970" stroke="#191970" points="1275.4964,-76.4891 1265.2549,-73.7756 1271.5689,-82.2835 1275.4964,-76.4891"/>
</g>
<!-- Node14 -->
<g id="node15" class="node">
<title>Node14</title>
<g id="a_node15"><a xlink:href="GaussianMixture_8h.html" target="_top" xlink:title="BayesFilters/GaussianMixture.h">
<polygon fill="#ffffff" stroke="#000000" points="1171.7241,-170.5 1171.7241,-188.5 1328.8862,-188.5 1328.8862,-170.5 1171.7241,-170.5"/>
<text text-anchor="middle" x="1250.3052" y="-176.5" font-family="Helvetica,sans-Serif" font-size="10.00" fill="#000000">BayesFilters/GaussianMixture.h</text>
</a>
</g>
</g>
<!-- Node13&#45;&gt;Node14 -->
<g id="edge15" class="edge">
<title>Node13&#45;&gt;Node14</title>
<path fill="none" stroke="#191970" d="M1244.3683,-230.3873C1245.3448,-222.0174 1246.8237,-209.3414 1248.0611,-198.735"/>
<polygon fill="#191970" stroke="#191970" points="1251.5495,-199.0367 1249.232,-188.6985 1244.5967,-198.2255 1251.5495,-199.0367"/>
</g>
<!-- Node14&#45;&gt;Node7 -->
<g id="edge16" class="edge">
<title>Node14&#45;&gt;Node7</title>
<path fill="none" stroke="#191970" d="M1250.3052,-170.4761C1250.3052,-151.9256 1250.3052,-109.142 1250.3052,-83.9748"/>
<polygon fill="#191970" stroke="#191970" points="1253.8053,-83.8013 1250.3052,-73.8014 1246.8053,-83.8014 1253.8053,-83.8013"/>
</g>
<!-- Node14&#45;&gt;Node15 -->
<g id="edge17" class="edge">
<title>Node14&#45;&gt;Node15</title>
<path fill="none" stroke="#191970" d="M1209.7419,-170.4524C1161.0317,-159.5877 1079.49,-141.4 1028.145,-129.9475"/>
<polygon fill="#191970" stroke="#191970" points="1028.8194,-126.512 1018.2972,-127.751 1027.2954,-133.3441 1028.8194,-126.512"/>
</g>
<!-- Node16&#45;&gt;Node13 -->
<g id="edge37" class="edge">
<title>Node16&#45;&gt;Node13</title>
<path fill="none" stroke="#191970" d="M807.9285,-291.1257C902.8159,-279.8742 1070.7495,-259.9611 1167.9814,-248.4317"/>
<polygon fill="#191970" stroke="#191970" points="1168.514,-251.8931 1178.0323,-247.2399 1167.6897,-244.9418 1168.514,-251.8931"/>
</g>
<!-- Node16&#45;&gt;Node15 -->
<g id="edge40" class="edge">
<title>Node16&#45;&gt;Node15</title>
<path fill="none" stroke="#191970" d="M748.0071,-290.1896C774.1813,-267.5976 843.8586,-208.5298 906.3052,-165 922.3958,-153.7837 941.2784,-142.3372 956.0715,-133.7308"/>
<polygon fill="#191970" stroke="#191970" points="958.2106,-136.5381 965.1317,-128.5163 954.7187,-130.4711 958.2106,-136.5381"/>
</g>
<!-- Node17 -->
<g id="node18" class="node">
<title>Node17</title>
<g id="a_node18"><a xlink:href="LikelihoodModel_8h.html" target="_top" xlink:title="BayesFilters/LikelihoodModel.h">
<polygon fill="#ffffff" stroke="#000000" points="555.1035,-230.5 555.1035,-248.5 709.5068,-248.5 709.5068,-230.5 555.1035,-230.5"/>
<text text-anchor="middle" x="632.3052" y="-236.5" font-family="Helvetica,sans-Serif" font-size="10.00" fill="#000000">BayesFilters/LikelihoodModel.h</text>
</a>
</g>
</g>
<!-- Node16&#45;&gt;Node17 -->
<g id="edge21" class="edge">
<title>Node16&#45;&gt;Node17</title>
<path fill="none" stroke="#191970" d="M721.3579,-290.3873C704.2218,-280.5952 676.7712,-264.9092 656.8731,-253.5388"/>
<polygon fill="#191970" stroke="#191970" points="658.4774,-250.4245 648.0585,-248.5019 655.0044,-256.5022 658.4774,-250.4245"/>
</g>
<!-- Node18 -->
<g id="node19" class="node">
<title>Node18</title>
<g id="a_node19"><a xlink:href="MeasurementModel_8h.html" target="_top" xlink:title="BayesFilters/Measurement\lModel.h">
<polygon fill="#ffffff" stroke="#000000" points="490.8398,-165.5 490.8398,-193.5 625.7705,-193.5 625.7705,-165.5 490.8398,-165.5"/>
<text text-anchor="start" x="498.8398" y="-181.5" font-family="Helvetica,sans-Serif" font-size="10.00" fill="#000000">BayesFilters/Measurement</text>
<text text-anchor="middle" x="558.3052" y="-171.5" font-family="Helvetica,sans-Serif" font-size="10.00" fill="#000000">Model.h</text>
</a>
</g>
</g>
<!-- Node16&#45;&gt;Node18 -->
<g id="edge36" class="edge">
<title>Node16&#45;&gt;Node18</title>
<path fill="none" stroke="#191970" d="M670.0275,-290.4883C621.3511,-282.4279 561.5544,-268.805 546.3052,-249 536.2906,-235.9935 540.0558,-217.5496 545.9148,-202.9303"/>
<polygon fill="#191970" stroke="#191970" points="549.2324,-204.088 550.1619,-193.534 542.8537,-201.2048 549.2324,-204.088"/>
</g>
<!-- Node16&#45;&gt;Node22 -->
<g id="edge38" class="edge">
<title>Node16&#45;&gt;Node22</title>
<path fill="none" stroke="#191970" d="M739.7478,-290.1796C750.4903,-249.1884 793.6532,-84.4879 808.3647,-28.3519"/>
<polygon fill="#191970" stroke="#191970" points="811.7601,-29.2017 810.9096,-18.6411 804.9888,-27.4271 811.7601,-29.2017"/>
</g>
<!-- Node26 -->
<g id="node27" class="node">
<title>Node26</title>
<polygon fill="#ffffff" stroke="#bfbfbf" points="510.9136,-110.5 510.9136,-128.5 549.6968,-128.5 549.6968,-110.5 510.9136,-110.5"/>
<text text-anchor="middle" x="530.3052" y="-116.5" font-family="Helvetica,sans-Serif" font-size="10.00" fill="#000000">utility</text>
</g>
<!-- Node16&#45;&gt;Node26 -->
<g id="edge39" class="edge">
<title>Node16&#45;&gt;Node26</title>
<path fill="none" stroke="#191970" d="M666.7744,-291.4236C626.5142,-284.5232 576.2642,-271.8982 536.3052,-249 497.7974,-226.9335 464.7743,-205.7731 482.3052,-165 487.4969,-152.9252 497.6427,-142.5515 507.2742,-134.772"/>
<polygon fill="#191970" stroke="#191970" points="509.5689,-137.426 515.4684,-128.6256 505.3686,-131.8262 509.5689,-137.426"/>
</g>
<!-- Node17&#45;&gt;Node18 -->
<g id="edge22" class="edge">
<title>Node17&#45;&gt;Node18</title>
<path fill="none" stroke="#191970" d="M621.0662,-230.3873C611.1824,-222.3734 596.4298,-210.4119 583.7107,-200.0991"/>
<polygon fill="#191970" stroke="#191970" points="585.6896,-197.1977 575.7177,-193.6183 581.281,-202.635 585.6896,-197.1977"/>
</g>
<!-- Node27 -->
<g id="node28" class="node">
<title>Node27</title>
<polygon fill="#ffffff" stroke="#bfbfbf" points="643.2905,-170.5 643.2905,-188.5 709.3198,-188.5 709.3198,-170.5 643.2905,-170.5"/>
<text text-anchor="middle" x="676.3052" y="-176.5" font-family="Helvetica,sans-Serif" font-size="10.00" fill="#000000">Eigen/Core</text>
</g>
<!-- Node17&#45;&gt;Node27 -->
<g id="edge35" class="edge">
<title>Node17&#45;&gt;Node27</title>
<path fill="none" stroke="#191970" d="M638.9878,-230.3873C645.4488,-221.5769 655.4088,-207.9951 663.4143,-197.0784"/>
<polygon fill="#191970" stroke="#191970" points="666.4684,-198.8323 669.5596,-188.6985 660.8235,-194.6927 666.4684,-198.8323"/>
</g>
<!-- Node18&#45;&gt;Node3 -->
<g id="edge30" class="edge">
<title>Node18&#45;&gt;Node3</title>
<path fill="none" stroke="#191970" d="M521.0267,-165.4327C494.3307,-155.3587 458.6864,-141.908 432.8746,-132.1677"/>
<polygon fill="#191970" stroke="#191970" points="434.0942,-128.8871 423.5025,-128.6311 431.6228,-135.4363 434.0942,-128.8871"/>
</g>
<!-- Node18&#45;&gt;Node6 -->
<g id="edge32" class="edge">
<title>Node18&#45;&gt;Node6</title>
<path fill="none" stroke="#191970" d="M560.7046,-165.2928C562.5708,-150.985 563.9926,-128.4488 558.3052,-110 555.1205,-99.6697 548.6996,-89.5868 542.5233,-81.5488"/>
<polygon fill="#191970" stroke="#191970" points="545.1365,-79.216 536.0822,-73.7143 539.7294,-83.6616 545.1365,-79.216"/>
</g>
<!-- Node18&#45;&gt;Node15 -->
<g id="edge34" class="edge">
<title>Node18&#45;&gt;Node15</title>
<path fill="none" stroke="#191970" d="M625.8143,-166.409C628.6806,-165.9199 631.5201,-165.4479 634.3052,-165 741.2133,-147.8073 867.4395,-132.5014 934.2759,-124.7875"/>
<polygon fill="#191970" stroke="#191970" points="934.9454,-128.2337 944.4808,-123.6155 934.1467,-121.2794 934.9454,-128.2337"/>
</g>
<!-- Node19 -->
<g id="node20" class="node">
<title>Node19</title>
<g id="a_node20"><a xlink:href="Data_8h.html" target="_top" xlink:title="BayesFilters/Data.h">
<polygon fill="#ffffff" stroke="#000000" points="605.6772,-110.5 605.6772,-128.5 708.9331,-128.5 708.9331,-110.5 605.6772,-110.5"/>
<text text-anchor="middle" x="657.3052" y="-116.5" font-family="Helvetica,sans-Serif" font-size="10.00" fill="#000000">BayesFilters/Data.h</text>
</a>
</g>
</g>
<!-- Node18&#45;&gt;Node19 -->
<g id="edge23" class="edge">
<title>Node18&#45;&gt;Node19</title>
<path fill="none" stroke="#191970" d="M581.5163,-165.4327C597.1864,-155.9356 617.8082,-143.4376 633.5842,-133.8763"/>
<polygon fill="#191970" stroke="#191970" points="635.501,-136.8073 642.2389,-128.6311 631.8729,-130.8209 635.501,-136.8073"/>
</g>
<!-- Node18&#45;&gt;Node22 -->
<g id="edge31" class="edge">
<title>Node18&#45;&gt;Node22</title>
<path fill="none" stroke="#191970" d="M614.6853,-165.4572C653.566,-155.0753 701.2046,-140.7602 718.3052,-129 757.6144,-101.9669 788.6124,-53.8684 803.5524,-27.6936"/>
<polygon fill="#191970" stroke="#191970" points="806.6821,-29.2669 808.4759,-18.825 800.562,-25.8692 806.6821,-29.2669"/>
</g>
<!-- Node18&#45;&gt;Node26 -->
<g id="edge33" class="edge">
<title>Node18&#45;&gt;Node26</title>
<path fill="none" stroke="#191970" d="M551.6696,-165.2808C547.8156,-157.0224 542.9208,-146.5335 538.789,-137.6796"/>
<polygon fill="#191970" stroke="#191970" points="541.945,-136.1659 534.5445,-128.5842 535.6017,-139.1261 541.945,-136.1659"/>
</g>
<!-- Node20 -->
<g id="node21" class="node">
<title>Node20</title>
<g id="a_node21"><a xlink:href="any_8h.html" target="_top" xlink:title="BayesFilters/any.h">
<polygon fill="#ffffff" stroke="#000000" points="609.5459,-55.5 609.5459,-73.5 707.0645,-73.5 707.0645,-55.5 609.5459,-55.5"/>
<text text-anchor="middle" x="658.3052" y="-61.5" font-family="Helvetica,sans-Serif" font-size="10.00" fill="#000000">BayesFilters/any.h</text>
</a>
</g>
</g>
<!-- Node19&#45;&gt;Node20 -->
<g id="edge24" class="edge">
<title>Node19&#45;&gt;Node20</title>
<path fill="none" stroke="#191970" d="M657.4703,-110.4179C657.6012,-103.2164 657.7889,-92.8962 657.9531,-83.8632"/>
<polygon fill="#191970" stroke="#191970" points="661.454,-83.8415 658.1365,-73.7795 654.4552,-83.7141 661.454,-83.8415"/>
</g>
<!-- Node21 -->
<g id="node22" class="node">
<title>Node21</title>
<polygon fill="#ffffff" stroke="#bfbfbf" points="709.7412,-.5 709.7412,-18.5 766.8691,-18.5 766.8691,-.5 709.7412,-.5"/>
<text text-anchor="middle" x="738.3052" y="-6.5" font-family="Helvetica,sans-Serif" font-size="10.00" fill="#000000">algorithm</text>
</g>
<!-- Node20&#45;&gt;Node21 -->
<g id="edge25" class="edge">
<title>Node20&#45;&gt;Node21</title>
<path fill="none" stroke="#191970" d="M671.5155,-55.4179C683.7906,-46.9788 702.295,-34.257 716.716,-24.3426"/>
<polygon fill="#191970" stroke="#191970" points="718.8176,-27.1451 725.0752,-18.5956 714.8519,-21.3768 718.8176,-27.1451"/>
</g>
<!-- Node20&#45;&gt;Node22 -->
<g id="edge26" class="edge">
<title>Node20&#45;&gt;Node22</title>
<path fill="none" stroke="#191970" d="M683.9003,-55.4179C709.6672,-46.2748 749.6013,-32.1046 778.292,-21.924"/>
<polygon fill="#191970" stroke="#191970" points="779.6758,-25.1469 787.9297,-18.5042 777.3349,-18.5499 779.6758,-25.1469"/>
</g>
<!-- Node23 -->
<g id="node24" class="node">
<title>Node23</title>
<polygon fill="#ffffff" stroke="#bfbfbf" points="482.9038,-.5 482.9038,-18.5 541.7065,-18.5 541.7065,-.5 482.9038,-.5"/>
<text text-anchor="middle" x="512.3052" y="-6.5" font-family="Helvetica,sans-Serif" font-size="10.00" fill="#000000">stdexcept</text>
</g>
<!-- Node20&#45;&gt;Node23 -->
<g id="edge27" class="edge">
<title>Node20&#45;&gt;Node23</title>
<path fill="none" stroke="#191970" d="M634.1962,-55.4179C610.1035,-46.3419 572.8615,-32.3123 545.882,-22.1488"/>
<polygon fill="#191970" stroke="#191970" points="547.0418,-18.8457 536.4499,-18.5956 544.5741,-25.3963 547.0418,-18.8457"/>
</g>
<!-- Node24 -->
<g id="node25" class="node">
<title>Node24</title>
<polygon fill="#ffffff" stroke="#bfbfbf" points="559.793,-.5 559.793,-18.5 610.8174,-18.5 610.8174,-.5 559.793,-.5"/>
<text text-anchor="middle" x="585.3052" y="-6.5" font-family="Helvetica,sans-Serif" font-size="10.00" fill="#000000">typeinfo</text>
</g>
<!-- Node20&#45;&gt;Node24 -->
<g id="edge28" class="edge">
<title>Node20&#45;&gt;Node24</title>
<path fill="none" stroke="#191970" d="M646.2507,-55.4179C635.2218,-47.1084 618.682,-34.6469 605.6145,-24.8015"/>
<polygon fill="#191970" stroke="#191970" points="607.7146,-22.0016 597.6215,-18.7795 603.5023,-27.5924 607.7146,-22.0016"/>
</g>
<!-- Node25 -->
<g id="node26" class="node">
<title>Node25</title>
<polygon fill="#ffffff" stroke="#bfbfbf" points="629.2388,-.5 629.2388,-18.5 691.3716,-18.5 691.3716,-.5 629.2388,-.5"/>
<text text-anchor="middle" x="660.3052" y="-6.5" font-family="Helvetica,sans-Serif" font-size="10.00" fill="#000000">type_traits</text>
</g>
<!-- Node20&#45;&gt;Node25 -->
<g id="edge29" class="edge">
<title>Node20&#45;&gt;Node25</title>
<path fill="none" stroke="#191970" d="M658.6354,-55.4179C658.8973,-48.2164 659.2726,-37.8962 659.6011,-28.8632"/>
<polygon fill="#191970" stroke="#191970" points="663.1019,-28.9001 659.9677,-18.7795 656.1066,-28.6456 663.1019,-28.9001"/>
</g>
<!-- Node28&#45;&gt;Node6 -->
<g id="edge49" class="edge">
<title>Node28&#45;&gt;Node6</title>
<path fill="none" stroke="#191970" d="M949.0898,-290.4252C914.0672,-283.2329 870.9424,-270.6483 837.3052,-249 768.9191,-204.9879 787.7082,-152.3904 718.3052,-110 691.5305,-93.6464 604.506,-77.2858 557.7212,-69.3837"/>
<polygon fill="#191970" stroke="#191970" points="558.2791,-65.9284 547.8402,-67.7396 557.1301,-72.8335 558.2791,-65.9284"/>
</g>
<!-- Node28&#45;&gt;Node13 -->
<g id="edge44" class="edge">
<title>Node28&#45;&gt;Node13</title>
<path fill="none" stroke="#191970" d="M1047.1383,-290.4524C1087.5963,-279.9439 1154.4299,-262.5845 1198.6645,-251.095"/>
<polygon fill="#191970" stroke="#191970" points="1199.768,-254.4246 1208.5669,-248.5229 1198.0081,-247.6494 1199.768,-254.4246"/>
</g>
<!-- Node28&#45;&gt;Node15 -->
<g id="edge47" class="edge">
<title>Node28&#45;&gt;Node15</title>
<path fill="none" stroke="#191970" d="M1016.8628,-290.1333C1023.0393,-275.9617 1032.0285,-248.7403 1020.3052,-230 1000.9081,-198.993 965.7022,-225.007 946.3052,-194 934.4302,-175.0173 950.2032,-151.3627 964.2284,-135.8664"/>
<polygon fill="#191970" stroke="#191970" points="966.8341,-138.2063 971.2476,-128.5744 961.7909,-133.3517 966.8341,-138.2063"/>
</g>
<!-- Node28&#45;&gt;Node22 -->
<g id="edge48" class="edge">
<title>Node28&#45;&gt;Node22</title>
<path fill="none" stroke="#191970" d="M949.1519,-290.491C921.5053,-283.4889 890.7714,-271.0579 870.3052,-249 848.5247,-225.5257 851.3052,-211.5224 851.3052,-179.5 851.3052,-179.5 851.3052,-179.5 851.3052,-119.5 851.3052,-85.4876 834.8737,-48.6418 823.6206,-27.3963"/>
<polygon fill="#191970" stroke="#191970" points="826.6388,-25.6213 818.7496,-18.5493 820.5068,-28.9975 826.6388,-25.6213"/>
</g>
<!-- Node29 -->
<g id="node30" class="node">
<title>Node29</title>
<g id="a_node30"><a xlink:href="ExogenousModel_8h.html" target="_top" xlink:title="BayesFilters/ExogenousModel.h">
<polygon fill="#ffffff" stroke="#000000" points="955.6011,-170.5 955.6011,-188.5 1115.0093,-188.5 1115.0093,-170.5 955.6011,-170.5"/>
<text text-anchor="middle" x="1035.3052" y="-176.5" font-family="Helvetica,sans-Serif" font-size="10.00" fill="#000000">BayesFilters/ExogenousModel.h</text>
</a>
</g>
</g>
<!-- Node28&#45;&gt;Node29 -->
<g id="edge42" class="edge">
<title>Node28&#45;&gt;Node29</title>
<path fill="none" stroke="#191970" d="M1023.1069,-290.3573C1033.1191,-281.1111 1047.3384,-265.8158 1053.3052,-249 1059.3423,-231.9859 1052.7856,-211.9761 1045.9535,-197.8072"/>
<polygon fill="#191970" stroke="#191970" points="1048.8776,-195.8498 1041.1062,-188.6487 1042.6907,-199.1244 1048.8776,-195.8498"/>
</g>
<!-- Node30 -->
<g id="node31" class="node">
<title>Node30</title>
<g id="a_node31"><a xlink:href="StateModel_8h.html" target="_top" xlink:title="BayesFilters/StateModel.h">
<polygon fill="#ffffff" stroke="#000000" points="878.9458,-230.5 878.9458,-248.5 1011.6646,-248.5 1011.6646,-230.5 878.9458,-230.5"/>
<text text-anchor="middle" x="945.3052" y="-236.5" font-family="Helvetica,sans-Serif" font-size="10.00" fill="#000000">BayesFilters/StateModel.h</text>
</a>
</g>
</g>
<!-- Node28&#45;&gt;Node30 -->
<g id="edge45" class="edge">
<title>Node28&#45;&gt;Node30</title>
<path fill="none" stroke="#191970" d="M1002.1293,-290.3873C991.7991,-281.1364 975.5948,-266.625 963.1292,-255.4618"/>
<polygon fill="#191970" stroke="#191970" points="965.3613,-252.7624 955.5768,-248.6985 960.6914,-257.977 965.3613,-252.7624"/>
</g>
<!-- Node29&#45;&gt;Node15 -->
<g id="edge43" class="edge">
<title>Node29&#45;&gt;Node15</title>
<path fill="none" stroke="#191970" d="M1027.1037,-170.3873C1019.0158,-161.4007 1006.4601,-147.4499 996.5392,-136.4267"/>
<polygon fill="#191970" stroke="#191970" points="998.875,-133.79 989.5838,-128.6985 993.6719,-138.4728 998.875,-133.79"/>
</g>
<!-- Node30&#45;&gt;Node15 -->
<g id="edge46" class="edge">
<title>Node30&#45;&gt;Node15</title>
<path fill="none" stroke="#191970" d="M935.804,-230.0886C922.5012,-215.7194 901.2355,-187.5984 913.3052,-165 920.8085,-150.9513 934.7838,-140.4805 948.1223,-133.1485"/>
<polygon fill="#191970" stroke="#191970" points="949.8272,-136.2084 957.1677,-128.5685 946.665,-129.9633 949.8272,-136.2084"/>
</g>
<!-- Node31&#45;&gt;Node13 -->
<g id="edge52" class="edge">
<title>Node31&#45;&gt;Node13</title>
<path fill="none" stroke="#191970" d="M1314.5474,-290.3873C1301.1486,-280.8168 1279.8675,-265.6159 1264.0491,-254.3171"/>
<polygon fill="#191970" stroke="#191970" points="1266.0795,-251.4662 1255.9078,-248.5019 1262.0108,-257.1624 1266.0795,-251.4662"/>
</g>
<!-- Node31&#45;&gt;Node15 -->
<g id="edge53" class="edge">
<title>Node31&#45;&gt;Node15</title>
<path fill="none" stroke="#191970" d="M1332.0504,-290.257C1343.6422,-266.2402 1370.2021,-201.2202 1338.3052,-165 1318.1265,-142.0863 1120.6326,-127.6374 1028.3628,-122.0855"/>
<polygon fill="#191970" stroke="#191970" points="1028.369,-118.5798 1018.1798,-121.4832 1027.9557,-125.5676 1028.369,-118.5798"/>
</g>
<!-- Node32 -->
<g id="node33" class="node">
<title>Node32</title>
<polygon fill="#ffffff" stroke="#bfbfbf" points="1374.3521,-230.5 1374.3521,-248.5 1424.2583,-248.5 1424.2583,-230.5 1374.3521,-230.5"/>
<text text-anchor="middle" x="1399.3052" y="-236.5" font-family="Helvetica,sans-Serif" font-size="10.00" fill="#000000">random</text>
</g>
<!-- Node31&#45;&gt;Node32 -->
<g id="edge51" class="edge">
<title>Node31&#45;&gt;Node32</title>
<path fill="none" stroke="#191970" d="M1338.2404,-290.3873C1349.4472,-281.0483 1367.0874,-266.3481 1380.5326,-255.1438"/>
<polygon fill="#191970" stroke="#191970" points="1382.8254,-257.7891 1388.267,-248.6985 1378.3441,-252.4116 1382.8254,-257.7891"/>
</g>
</g>
</svg>
