<?xml version="1.0" encoding="UTF-8" standalone="no"?>
<!DOCTYPE svg PUBLIC "-//W3C//DTD SVG 1.1//EN"
 "http://www.w3.org/Graphics/SVG/1.1/DTD/svg11.dtd">
<!-- Generated by graphviz version 2.40.1 (20161225.0304)
 -->
<!-- Title: /Users/Claudio/GitHub/bayes&#45;filters&#45;lib/src/BayesFilters/src/ParticleSet.cpp Pages: 1 -->
<svg width="221pt" height="212pt"
 viewBox="0.00 0.00 220.55 212.00" xmlns="http://www.w3.org/2000/svg" xmlns:xlink="http://www.w3.org/1999/xlink">
<g id="graph0" class="graph" transform="scale(1 1) rotate(0) translate(4 208)">
<title>/Users/Claudio/GitHub/bayes&#45;filters&#45;lib/src/BayesFilters/src/ParticleSet.cpp</title>
<polygon fill="#ffffff" stroke="transparent" points="-4,4 -4,-208 216.5488,-208 216.5488,4 -4,4"/>
<!-- Node0 -->
<g id="node1" class="node">
<title>Node0</title>
<polygon fill="#bfbfbf" stroke="#000000" points="0,-165.5 0,-203.5 159.9355,-203.5 159.9355,-165.5 0,-165.5"/>
<text text-anchor="start" x="8" y="-191.5" font-family="Helvetica,sans-Serif" font-size="10.00" fill="#000000">/Users/Claudio/GitHub</text>
<text text-anchor="start" x="8" y="-181.5" font-family="Helvetica,sans-Serif" font-size="10.00" fill="#000000">/bayes&#45;filters&#45;lib/src</text>
<text text-anchor="middle" x="79.9678" y="-171.5" font-family="Helvetica,sans-Serif" font-size="10.00" fill="#000000">/BayesFilters/src/ParticleSet.cpp</text>
</g>
<!-- Node1 -->
<g id="node2" class="node">
<title>Node1</title>
<g id="a_node2"><a xlink:href="ParticleSet_8h.html" target="_top" xlink:title="BayesFilters/ParticleSet.h">
<polygon fill="#ffffff" stroke="#000000" points="14.7241,-110.5 14.7241,-128.5 145.2114,-128.5 145.2114,-110.5 14.7241,-110.5"/>
<text text-anchor="middle" x="79.9678" y="-116.5" font-family="Helvetica,sans-Serif" font-size="10.00" fill="#000000">BayesFilters/ParticleSet.h</text>
</a>
</g>
</g>
<!-- Node0&#45;&gt;Node1 -->
<g id="edge1" class="edge">
<title>Node0&#45;&gt;Node1</title>
<path fill="none" stroke="#191970" d="M79.9678,-165.3494C79.9678,-157.0079 79.9678,-147.2463 79.9678,-138.879"/>
<polygon fill="#191970" stroke="#191970" points="83.4679,-138.5978 79.9678,-128.5978 76.4679,-138.5979 83.4679,-138.5978"/>
</g>
<!-- Node2 -->
<g id="node3" class="node">
<title>Node2</title>
<g id="a_node3"><a xlink:href="GaussianMixture_8h.html" target="_top" xlink:title="BayesFilters/GaussianMixture.h">
<polygon fill="#ffffff" stroke="#000000" points="55.3867,-55.5 55.3867,-73.5 212.5488,-73.5 212.5488,-55.5 55.3867,-55.5"/>
<text text-anchor="middle" x="133.9678" y="-61.5" font-family="Helvetica,sans-Serif" font-size="10.00" fill="#000000">BayesFilters/GaussianMixture.h</text>
</a>
</g>
</g>
<!-- Node1&#45;&gt;Node2 -->
<g id="edge2" class="edge">
<title>Node1&#45;&gt;Node2</title>
<path fill="none" stroke="#191970" d="M88.8848,-110.4179C96.7323,-102.425 108.3518,-90.5903 117.8289,-80.9377"/>
<polygon fill="#191970" stroke="#191970" points="120.3486,-83.3672 124.857,-73.7795 115.3536,-78.463 120.3486,-83.3672"/>
</g>
<!-- Node3 -->
<g id="node4" class="node">
<title>Node3</title>
<polygon fill="#ffffff" stroke="#bfbfbf" points="21.3521,-.5 21.3521,-18.5 64.5835,-18.5 64.5835,-.5 21.3521,-.5"/>
<text text-anchor="middle" x="42.9678" y="-6.5" font-family="Helvetica,sans-Serif" font-size="10.00" fill="#000000">vector</text>
</g>
<!-- Node1&#45;&gt;Node3 -->
<g id="edge5" class="edge">
<title>Node1&#45;&gt;Node3</title>
<path fill="none" stroke="#191970" d="M70.5162,-110.3948C62.3541,-101.8574 51.0909,-88.2959 45.9678,-74 40.7613,-59.4717 40.2871,-41.9155 40.9611,-28.7899"/>
<polygon fill="#191970" stroke="#191970" points="44.4688,-28.8256 41.7588,-18.5832 37.4901,-28.28 44.4688,-28.8256"/>
</g>
<!-- Node2&#45;&gt;Node3 -->
<g id="edge3" class="edge">
<title>Node2&#45;&gt;Node3</title>
<path fill="none" stroke="#191970" d="M118.941,-55.4179C104.7146,-46.8195 83.1325,-33.7754 66.602,-23.7844"/>
<polygon fill="#191970" stroke="#191970" points="68.3856,-20.7729 58.0169,-18.5956 64.7648,-26.7637 68.3856,-20.7729"/>
</g>
<!-- Node4 -->
<g id="node5" class="node">
<title>Node4</title>
<polygon fill="#ffffff" stroke="#bfbfbf" points="97.3374,-.5 97.3374,-18.5 170.5981,-18.5 170.5981,-.5 97.3374,-.5"/>
<text text-anchor="middle" x="133.9678" y="-6.5" font-family="Helvetica,sans-Serif" font-size="10.00" fill="#000000">Eigen/Dense</text>
</g>
<!-- Node2&#45;&gt;Node4 -->
<g id="edge4" class="edge">
<title>Node2&#45;&gt;Node4</title>
<path fill="none" stroke="#191970" d="M133.9678,-55.4179C133.9678,-48.2164 133.9678,-37.8962 133.9678,-28.8632"/>
<polygon fill="#191970" stroke="#191970" points="137.4679,-28.7794 133.9678,-18.7795 130.4679,-28.7795 137.4679,-28.7794"/>
</g>
</g>
</svg>
