<?xml version="1.0" encoding="UTF-8" standalone="no"?>
<!DOCTYPE svg PUBLIC "-//W3C//DTD SVG 1.1//EN"
 "http://www.w3.org/Graphics/SVG/1.1/DTD/svg11.dtd">
<!-- Generated by graphviz version 2.40.1 (20161225.0304)
 -->
<!-- Title: /Users/Claudio/GitHub/bayes&#45;filters&#45;lib/src/BayesFilters/include/BayesFilters/ParticleSet.h Pages: 1 -->
<svg width="224pt" height="167pt"
 viewBox="0.00 0.00 223.61 167.00" xmlns="http://www.w3.org/2000/svg" xmlns:xlink="http://www.w3.org/1999/xlink">
<g id="graph0" class="graph" transform="scale(1 1) rotate(0) translate(4 163)">
<title>/Users/Claudio/GitHub/bayes&#45;filters&#45;lib/src/BayesFilters/include/BayesFilters/ParticleSet.h</title>
<polygon fill="#ffffff" stroke="transparent" points="-4,4 -4,-163 219.6079,-163 219.6079,4 -4,4"/>
<!-- Node0 -->
<g id="node1" class="node">
<title>Node0</title>
<polygon fill="#bfbfbf" stroke="#000000" points="0,-110.5 0,-158.5 166.0537,-158.5 166.0537,-110.5 0,-110.5"/>
<text text-anchor="start" x="8" y="-146.5" font-family="Helvetica,sans-Serif" font-size="10.00" fill="#000000">/Users/Claudio/GitHub</text>
<text text-anchor="start" x="8" y="-136.5" font-family="Helvetica,sans-Serif" font-size="10.00" fill="#000000">/bayes&#45;filters&#45;lib/src</text>
<text text-anchor="start" x="8" y="-126.5" font-family="Helvetica,sans-Serif" font-size="10.00" fill="#000000">/BayesFilters/include/BayesFilters</text>
<text text-anchor="middle" x="83.0269" y="-116.5" font-family="Helvetica,sans-Serif" font-size="10.00" fill="#000000">/ParticleSet.h</text>
</g>
<!-- Node1 -->
<g id="node2" class="node">
<title>Node1</title>
<g id="a_node2"><a xlink:href="GaussianMixture_8h.html" target="_top" xlink:title="BayesFilters/GaussianMixture.h">
<polygon fill="#ffffff" stroke="#000000" points="58.4458,-55.5 58.4458,-73.5 215.6079,-73.5 215.6079,-55.5 58.4458,-55.5"/>
<text text-anchor="middle" x="137.0269" y="-61.5" font-family="Helvetica,sans-Serif" font-size="10.00" fill="#000000">BayesFilters/GaussianMixture.h</text>
</a>
</g>
</g>
<!-- Node0&#45;&gt;Node1 -->
<g id="edge1" class="edge">
<title>Node0&#45;&gt;Node1</title>
<path fill="none" stroke="#191970" d="M101.6106,-110.41C108.8563,-101.0174 117.0006,-90.46 123.6506,-81.8395"/>
<polygon fill="#191970" stroke="#191970" points="126.6027,-83.7429 129.9396,-73.6872 121.0602,-79.4673 126.6027,-83.7429"/>
</g>
<!-- Node2 -->
<g id="node3" class="node">
<title>Node2</title>
<polygon fill="#ffffff" stroke="#bfbfbf" points="24.4111,-.5 24.4111,-18.5 67.6426,-18.5 67.6426,-.5 24.4111,-.5"/>
<text text-anchor="middle" x="46.0269" y="-6.5" font-family="Helvetica,sans-Serif" font-size="10.00" fill="#000000">vector</text>
</g>
<!-- Node0&#45;&gt;Node2 -->
<g id="edge4" class="edge">
<title>Node0&#45;&gt;Node2</title>
<path fill="none" stroke="#191970" d="M66.029,-110.3425C59.4709,-99.7017 52.6798,-86.74 49.0269,-74 44.8209,-59.3314 44.2397,-42.0254 44.6176,-29.0344"/>
<polygon fill="#191970" stroke="#191970" points="48.1203,-29.0674 45.1295,-18.9034 41.1292,-28.714 48.1203,-29.0674"/>
</g>
<!-- Node1&#45;&gt;Node2 -->
<g id="edge2" class="edge">
<title>Node1&#45;&gt;Node2</title>
<path fill="none" stroke="#191970" d="M122.0001,-55.4179C107.7737,-46.8195 86.1916,-33.7754 69.6611,-23.7844"/>
<polygon fill="#191970" stroke="#191970" points="71.4447,-20.7729 61.076,-18.5956 67.8239,-26.7637 71.4447,-20.7729"/>
</g>
<!-- Node3 -->
<g id="node4" class="node">
<title>Node3</title>
<polygon fill="#ffffff" stroke="#bfbfbf" points="100.3965,-.5 100.3965,-18.5 173.6572,-18.5 173.6572,-.5 100.3965,-.5"/>
<text text-anchor="middle" x="137.0269" y="-6.5" font-family="Helvetica,sans-Serif" font-size="10.00" fill="#000000">Eigen/Dense</text>
</g>
<!-- Node1&#45;&gt;Node3 -->
<g id="edge3" class="edge">
<title>Node1&#45;&gt;Node3</title>
<path fill="none" stroke="#191970" d="M137.0269,-55.4179C137.0269,-48.2164 137.0269,-37.8962 137.0269,-28.8632"/>
<polygon fill="#191970" stroke="#191970" points="140.527,-28.7794 137.0269,-18.7795 133.527,-28.7795 140.527,-28.7794"/>
</g>
</g>
</svg>
