<?xml version="1.0" encoding="UTF-8" standalone="no"?>
<!DOCTYPE svg PUBLIC "-//W3C//DTD SVG 1.1//EN"
 "http://www.w3.org/Graphics/SVG/1.1/DTD/svg11.dtd">
<!-- Generated by graphviz version 2.40.1 (20161225.0304)
 -->
<!-- Title: /Users/Claudio/GitHub/bayes&#45;filters&#45;lib/src/BayesFilters/include/BayesFilters/ParticleSetInitialization.h Pages: 1 -->
<svg width="748pt" height="302pt"
 viewBox="0.00 0.00 747.99 302.00" xmlns="http://www.w3.org/2000/svg" xmlns:xlink="http://www.w3.org/1999/xlink">
<g id="graph0" class="graph" transform="scale(1 1) rotate(0) translate(4 298)">
<title>/Users/Claudio/GitHub/bayes&#45;filters&#45;lib/src/BayesFilters/include/BayesFilters/ParticleSetInitialization.h</title>
<polygon fill="#ffffff" stroke="transparent" points="-4,4 -4,-298 743.9873,-298 743.9873,4 -4,4"/>
<!-- Node5 -->
<g id="node1" class="node">
<title>Node5</title>
<polygon fill="#bfbfbf" stroke="#000000" points="241.2192,-245.5 241.2192,-293.5 407.2729,-293.5 407.2729,-245.5 241.2192,-245.5"/>
<text text-anchor="start" x="249.2192" y="-281.5" font-family="Helvetica,sans-Serif" font-size="10.00" fill="#000000">/Users/Claudio/GitHub</text>
<text text-anchor="start" x="249.2192" y="-271.5" font-family="Helvetica,sans-Serif" font-size="10.00" fill="#000000">/bayes&#45;filters&#45;lib/src</text>
<text text-anchor="start" x="249.2192" y="-261.5" font-family="Helvetica,sans-Serif" font-size="10.00" fill="#000000">/BayesFilters/include/BayesFilters</text>
<text text-anchor="middle" x="324.2461" y="-251.5" font-family="Helvetica,sans-Serif" font-size="10.00" fill="#000000">/ParticleSetInitialization.h</text>
</g>
<!-- Node6 -->
<g id="node2" class="node">
<title>Node6</title>
<g id="a_node2"><a xlink:href="InitSurveillanceAreaGrid_8h.html" target="_top" xlink:title="/Users/Claudio/GitHub\l/bayes&#45;filters&#45;lib/src\l/BayesFilters/include/BayesFilters\l/InitSurveillanceAreaGrid.h">
<polygon fill="#ffffff" stroke="#000000" points="52.2192,-160.5 52.2192,-208.5 218.2729,-208.5 218.2729,-160.5 52.2192,-160.5"/>
<text text-anchor="start" x="60.2192" y="-196.5" font-family="Helvetica,sans-Serif" font-size="10.00" fill="#000000">/Users/Claudio/GitHub</text>
<text text-anchor="start" x="60.2192" y="-186.5" font-family="Helvetica,sans-Serif" font-size="10.00" fill="#000000">/bayes&#45;filters&#45;lib/src</text>
<text text-anchor="start" x="60.2192" y="-176.5" font-family="Helvetica,sans-Serif" font-size="10.00" fill="#000000">/BayesFilters/include/BayesFilters</text>
<text text-anchor="middle" x="135.2461" y="-166.5" font-family="Helvetica,sans-Serif" font-size="10.00" fill="#000000">/InitSurveillanceAreaGrid.h</text>
</a>
</g>
</g>
<!-- Node5&#45;&gt;Node6 -->
<g id="edge1" class="edge">
<title>Node5&#45;&gt;Node6</title>
<path fill="none" stroke="#191970" d="M261.6351,-241.3416C238.072,-230.7444 211.5124,-218.7996 188.8437,-208.6047"/>
<polygon fill="#191970" stroke="#191970" points="260.2884,-244.5736 270.8441,-245.4832 263.1596,-238.1895 260.2884,-244.5736"/>
</g>
<!-- Node8 -->
<g id="node4" class="node">
<title>Node8</title>
<g id="a_node4"><a xlink:href="ParticleFilter_8h.html" target="_top" xlink:title="/Users/Claudio/GitHub\l/bayes&#45;filters&#45;lib/src\l/BayesFilters/include/BayesFilters\l/ParticleFilter.h">
<polygon fill="#ffffff" stroke="#000000" points="241.2192,-160.5 241.2192,-208.5 407.2729,-208.5 407.2729,-160.5 241.2192,-160.5"/>
<text text-anchor="start" x="249.2192" y="-196.5" font-family="Helvetica,sans-Serif" font-size="10.00" fill="#000000">/Users/Claudio/GitHub</text>
<text text-anchor="start" x="249.2192" y="-186.5" font-family="Helvetica,sans-Serif" font-size="10.00" fill="#000000">/bayes&#45;filters&#45;lib/src</text>
<text text-anchor="start" x="249.2192" y="-176.5" font-family="Helvetica,sans-Serif" font-size="10.00" fill="#000000">/BayesFilters/include/BayesFilters</text>
<text text-anchor="middle" x="324.2461" y="-166.5" font-family="Helvetica,sans-Serif" font-size="10.00" fill="#000000">/ParticleFilter.h</text>
</a>
</g>
</g>
<!-- Node5&#45;&gt;Node8 -->
<g id="edge3" class="edge">
<title>Node5&#45;&gt;Node8</title>
<path fill="none" stroke="#191970" d="M324.2461,-235.2518C324.2461,-226.3524 324.2461,-216.951 324.2461,-208.6906"/>
<polygon fill="#191970" stroke="#191970" points="320.7462,-235.3697 324.2461,-245.3698 327.7462,-235.3698 320.7462,-235.3697"/>
</g>
<!-- Node12 -->
<g id="node8" class="node">
<title>Node12</title>
<g id="a_node8"><a xlink:href="ResamplingWithPrior_8h.html" target="_top" xlink:title="/Users/Claudio/GitHub\l/bayes&#45;filters&#45;lib/src\l/BayesFilters/include/BayesFilters\l/ResamplingWithPrior.h">
<polygon fill="#ffffff" stroke="#000000" points="524.2192,-160.5 524.2192,-208.5 690.2729,-208.5 690.2729,-160.5 524.2192,-160.5"/>
<text text-anchor="start" x="532.2192" y="-196.5" font-family="Helvetica,sans-Serif" font-size="10.00" fill="#000000">/Users/Claudio/GitHub</text>
<text text-anchor="start" x="532.2192" y="-186.5" font-family="Helvetica,sans-Serif" font-size="10.00" fill="#000000">/bayes&#45;filters&#45;lib/src</text>
<text text-anchor="start" x="532.2192" y="-176.5" font-family="Helvetica,sans-Serif" font-size="10.00" fill="#000000">/BayesFilters/include/BayesFilters</text>
<text text-anchor="middle" x="607.2461" y="-166.5" font-family="Helvetica,sans-Serif" font-size="10.00" fill="#000000">/ResamplingWithPrior.h</text>
</a>
</g>
</g>
<!-- Node5&#45;&gt;Node12 -->
<g id="edge7" class="edge">
<title>Node5&#45;&gt;Node12</title>
<path fill="none" stroke="#191970" d="M413.8038,-242.601C450.1026,-231.6986 491.6968,-219.2056 526.9915,-208.6047"/>
<polygon fill="#191970" stroke="#191970" points="412.7783,-239.2545 404.2078,-245.4832 414.7919,-245.9587 412.7783,-239.2545"/>
</g>
<!-- Node7 -->
<g id="node3" class="node">
<title>Node7</title>
<g id="a_node3"><a xlink:href="InitSurveillanceAreaGrid_8cpp.html" target="_top" xlink:title="/Users/Claudio/GitHub\l/bayes&#45;filters&#45;lib/src\l/BayesFilters/src/InitSurveillance\lAreaGrid.cpp">
<polygon fill="#ffffff" stroke="#000000" points="0,-75.5 0,-123.5 160.4922,-123.5 160.4922,-75.5 0,-75.5"/>
<text text-anchor="start" x="8" y="-111.5" font-family="Helvetica,sans-Serif" font-size="10.00" fill="#000000">/Users/Claudio/GitHub</text>
<text text-anchor="start" x="8" y="-101.5" font-family="Helvetica,sans-Serif" font-size="10.00" fill="#000000">/bayes&#45;filters&#45;lib/src</text>
<text text-anchor="start" x="8" y="-91.5" font-family="Helvetica,sans-Serif" font-size="10.00" fill="#000000">/BayesFilters/src/InitSurveillance</text>
<text text-anchor="middle" x="80.2461" y="-81.5" font-family="Helvetica,sans-Serif" font-size="10.00" fill="#000000">AreaGrid.cpp</text>
</a>
</g>
</g>
<!-- Node6&#45;&gt;Node7 -->
<g id="edge2" class="edge">
<title>Node6&#45;&gt;Node7</title>
<path fill="none" stroke="#191970" d="M114.0213,-151.698C107.9905,-142.3777 101.5343,-132.4 95.8988,-123.6906"/>
<polygon fill="#191970" stroke="#191970" points="111.2614,-153.8755 119.6324,-160.3698 117.1384,-150.0727 111.2614,-153.8755"/>
</g>
<!-- Node9 -->
<g id="node5" class="node">
<title>Node9</title>
<g id="a_node5"><a xlink:href="SIS_8h.html" target="_top" xlink:title="/Users/Claudio/GitHub\l/bayes&#45;filters&#45;lib/src\l/BayesFilters/include/BayesFilters/SIS.h">
<polygon fill="#ffffff" stroke="#000000" points="178.6011,-80.5 178.6011,-118.5 371.8911,-118.5 371.8911,-80.5 178.6011,-80.5"/>
<text text-anchor="start" x="186.6011" y="-106.5" font-family="Helvetica,sans-Serif" font-size="10.00" fill="#000000">/Users/Claudio/GitHub</text>
<text text-anchor="start" x="186.6011" y="-96.5" font-family="Helvetica,sans-Serif" font-size="10.00" fill="#000000">/bayes&#45;filters&#45;lib/src</text>
<text text-anchor="middle" x="275.2461" y="-86.5" font-family="Helvetica,sans-Serif" font-size="10.00" fill="#000000">/BayesFilters/include/BayesFilters/SIS.h</text>
</a>
</g>
</g>
<!-- Node8&#45;&gt;Node9 -->
<g id="edge4" class="edge">
<title>Node8&#45;&gt;Node9</title>
<path fill="none" stroke="#191970" d="M305.3112,-151.6537C298.8545,-140.4534 291.8535,-128.3088 286.2331,-118.5591"/>
<polygon fill="#191970" stroke="#191970" points="302.3091,-153.4542 310.3357,-160.3698 308.3736,-149.9582 302.3091,-153.4542"/>
</g>
<!-- Node11 -->
<g id="node7" class="node">
<title>Node11</title>
<g id="a_node7"><a xlink:href="ParticleFilter_8cpp.html" target="_top" xlink:title="/Users/Claudio/GitHub\l/bayes&#45;filters&#45;lib/src\l/BayesFilters/src/ParticleFilter.cpp">
<polygon fill="#ffffff" stroke="#000000" points="389.9458,-80.5 389.9458,-118.5 556.5464,-118.5 556.5464,-80.5 389.9458,-80.5"/>
<text text-anchor="start" x="397.9458" y="-106.5" font-family="Helvetica,sans-Serif" font-size="10.00" fill="#000000">/Users/Claudio/GitHub</text>
<text text-anchor="start" x="397.9458" y="-96.5" font-family="Helvetica,sans-Serif" font-size="10.00" fill="#000000">/bayes&#45;filters&#45;lib/src</text>
<text text-anchor="middle" x="473.2461" y="-86.5" font-family="Helvetica,sans-Serif" font-size="10.00" fill="#000000">/BayesFilters/src/ParticleFilter.cpp</text>
</a>
</g>
</g>
<!-- Node8&#45;&gt;Node11 -->
<g id="edge6" class="edge">
<title>Node8&#45;&gt;Node11</title>
<path fill="none" stroke="#191970" d="M375.4754,-155.2752C396.7702,-143.1272 420.8846,-129.3706 439.8366,-118.5591"/>
<polygon fill="#191970" stroke="#191970" points="373.4967,-152.3745 366.545,-160.3698 376.9653,-158.4547 373.4967,-152.3745"/>
</g>
<!-- Node10 -->
<g id="node6" class="node">
<title>Node10</title>
<g id="a_node6"><a xlink:href="SIS_8cpp.html" target="_top" xlink:title="/Users/Claudio/GitHub\l/bayes&#45;filters&#45;lib/src\l/BayesFilters/src/SIS.cpp">
<polygon fill="#ffffff" stroke="#000000" points="211.3965,-.5 211.3965,-38.5 339.0957,-38.5 339.0957,-.5 211.3965,-.5"/>
<text text-anchor="start" x="219.3965" y="-26.5" font-family="Helvetica,sans-Serif" font-size="10.00" fill="#000000">/Users/Claudio/GitHub</text>
<text text-anchor="start" x="219.3965" y="-16.5" font-family="Helvetica,sans-Serif" font-size="10.00" fill="#000000">/bayes&#45;filters&#45;lib/src</text>
<text text-anchor="middle" x="275.2461" y="-6.5" font-family="Helvetica,sans-Serif" font-size="10.00" fill="#000000">/BayesFilters/src/SIS.cpp</text>
</a>
</g>
</g>
<!-- Node9&#45;&gt;Node10 -->
<g id="edge5" class="edge">
<title>Node9&#45;&gt;Node10</title>
<path fill="none" stroke="#191970" d="M275.2461,-70.1156C275.2461,-59.6295 275.2461,-48.0942 275.2461,-38.6874"/>
<polygon fill="#191970" stroke="#191970" points="271.7462,-70.1342 275.2461,-80.1342 278.7462,-70.1343 271.7462,-70.1342"/>
</g>
<!-- Node13 -->
<g id="node9" class="node">
<title>Node13</title>
<g id="a_node9"><a xlink:href="ResamplingWithPrior_8cpp.html" target="_top" xlink:title="/Users/Claudio/GitHub\l/bayes&#45;filters&#45;lib/src\l/BayesFilters/src/ResamplingWith\lPrior.cpp">
<polygon fill="#ffffff" stroke="#000000" points="574.5049,-75.5 574.5049,-123.5 739.9873,-123.5 739.9873,-75.5 574.5049,-75.5"/>
<text text-anchor="start" x="582.5049" y="-111.5" font-family="Helvetica,sans-Serif" font-size="10.00" fill="#000000">/Users/Claudio/GitHub</text>
<text text-anchor="start" x="582.5049" y="-101.5" font-family="Helvetica,sans-Serif" font-size="10.00" fill="#000000">/bayes&#45;filters&#45;lib/src</text>
<text text-anchor="start" x="582.5049" y="-91.5" font-family="Helvetica,sans-Serif" font-size="10.00" fill="#000000">/BayesFilters/src/ResamplingWith</text>
<text text-anchor="middle" x="657.2461" y="-81.5" font-family="Helvetica,sans-Serif" font-size="10.00" fill="#000000">Prior.cpp</text>
</a>
</g>
</g>
<!-- Node12&#45;&gt;Node13 -->
<g id="edge8" class="edge">
<title>Node12&#45;&gt;Node13</title>
<path fill="none" stroke="#191970" d="M626.5414,-151.698C632.0239,-142.3777 637.8932,-132.4 643.0164,-123.6906"/>
<polygon fill="#191970" stroke="#191970" points="623.4938,-149.9758 621.4403,-160.3698 629.5274,-153.525 623.4938,-149.9758"/>
</g>
</g>
</svg>
