<?xml version="1.0" encoding="UTF-8" standalone="no"?>
<!DOCTYPE svg PUBLIC "-//W3C//DTD SVG 1.1//EN"
 "http://www.w3.org/Graphics/SVG/1.1/DTD/svg11.dtd">
<!-- Generated by graphviz version 2.40.1 (20161225.0304)
 -->
<!-- Title: /Users/Claudio/GitHub/bayes&#45;filters&#45;lib/src/BayesFilters/include/BayesFilters/ParticleSetInitialization.h Pages: 1 -->
<svg width="236pt" height="222pt"
 viewBox="0.00 0.00 235.55 222.00" xmlns="http://www.w3.org/2000/svg" xmlns:xlink="http://www.w3.org/1999/xlink">
<g id="graph0" class="graph" transform="scale(1 1) rotate(0) translate(4 218)">
<title>/Users/Claudio/GitHub/bayes&#45;filters&#45;lib/src/BayesFilters/include/BayesFilters/ParticleSetInitialization.h</title>
<polygon fill="#ffffff" stroke="transparent" points="-4,4 -4,-218 231.5544,-218 231.5544,4 -4,4"/>
<!-- Node0 -->
<g id="node1" class="node">
<title>Node0</title>
<polygon fill="#bfbfbf" stroke="#000000" points="61.5006,-165.5 61.5006,-213.5 227.5544,-213.5 227.5544,-165.5 61.5006,-165.5"/>
<text text-anchor="start" x="69.5006" y="-201.5" font-family="Helvetica,sans-Serif" font-size="10.00" fill="#000000">/Users/Claudio/GitHub</text>
<text text-anchor="start" x="69.5006" y="-191.5" font-family="Helvetica,sans-Serif" font-size="10.00" fill="#000000">/bayes&#45;filters&#45;lib/src</text>
<text text-anchor="start" x="69.5006" y="-181.5" font-family="Helvetica,sans-Serif" font-size="10.00" fill="#000000">/BayesFilters/include/BayesFilters</text>
<text text-anchor="middle" x="144.5275" y="-171.5" font-family="Helvetica,sans-Serif" font-size="10.00" fill="#000000">/ParticleSetInitialization.h</text>
</g>
<!-- Node1 -->
<g id="node2" class="node">
<title>Node1</title>
<g id="a_node2"><a xlink:href="ParticleSet_8h.html" target="_top" xlink:title="BayesFilters/ParticleSet.h">
<polygon fill="#ffffff" stroke="#000000" points="26.2838,-110.5 26.2838,-128.5 156.7711,-128.5 156.7711,-110.5 26.2838,-110.5"/>
<text text-anchor="middle" x="91.5275" y="-116.5" font-family="Helvetica,sans-Serif" font-size="10.00" fill="#000000">BayesFilters/ParticleSet.h</text>
</a>
</g>
</g>
<!-- Node0&#45;&gt;Node1 -->
<g id="edge1" class="edge">
<title>Node0&#45;&gt;Node1</title>
<path fill="none" stroke="#191970" d="M126.2879,-165.41C119.1764,-156.0174 111.1829,-145.46 104.656,-136.8395"/>
<polygon fill="#191970" stroke="#191970" points="107.3104,-134.5471 98.4836,-128.6872 101.7296,-138.7726 107.3104,-134.5471"/>
</g>
<!-- Node4 -->
<g id="node5" class="node">
<title>Node4</title>
<polygon fill="#ffffff" stroke="#bfbfbf" points="99.8971,-.5 99.8971,-18.5 173.1579,-18.5 173.1579,-.5 99.8971,-.5"/>
<text text-anchor="middle" x="136.5275" y="-6.5" font-family="Helvetica,sans-Serif" font-size="10.00" fill="#000000">Eigen/Dense</text>
</g>
<!-- Node0&#45;&gt;Node4 -->
<g id="edge6" class="edge">
<title>Node0&#45;&gt;Node4</title>
<path fill="none" stroke="#191970" d="M159.9525,-165.1171C175.2198,-137.7215 194.3311,-92.2169 179.5275,-55 174.9141,-43.4018 165.7862,-33.0528 157.1227,-25.1664"/>
<polygon fill="#191970" stroke="#191970" points="159.3304,-22.4495 149.4399,-18.6509 154.8028,-27.7882 159.3304,-22.4495"/>
</g>
<!-- Node2 -->
<g id="node3" class="node">
<title>Node2</title>
<g id="a_node3"><a xlink:href="GaussianMixture_8h.html" target="_top" xlink:title="BayesFilters/GaussianMixture.h">
<polygon fill="#ffffff" stroke="#000000" points="12.9464,-55.5 12.9464,-73.5 170.1086,-73.5 170.1086,-55.5 12.9464,-55.5"/>
<text text-anchor="middle" x="91.5275" y="-61.5" font-family="Helvetica,sans-Serif" font-size="10.00" fill="#000000">BayesFilters/GaussianMixture.h</text>
</a>
</g>
</g>
<!-- Node1&#45;&gt;Node2 -->
<g id="edge2" class="edge">
<title>Node1&#45;&gt;Node2</title>
<path fill="none" stroke="#191970" d="M91.5275,-110.4179C91.5275,-103.2164 91.5275,-92.8962 91.5275,-83.8632"/>
<polygon fill="#191970" stroke="#191970" points="95.0276,-83.7794 91.5275,-73.7795 88.0276,-83.7795 95.0276,-83.7794"/>
</g>
<!-- Node3 -->
<g id="node4" class="node">
<title>Node3</title>
<polygon fill="#ffffff" stroke="#bfbfbf" points="23.9118,-.5 23.9118,-18.5 67.1432,-18.5 67.1432,-.5 23.9118,-.5"/>
<text text-anchor="middle" x="45.5275" y="-6.5" font-family="Helvetica,sans-Serif" font-size="10.00" fill="#000000">vector</text>
</g>
<!-- Node1&#45;&gt;Node3 -->
<g id="edge5" class="edge">
<title>Node1&#45;&gt;Node3</title>
<path fill="none" stroke="#191970" d="M54.7624,-110.3766C35.9489,-103.6426 14.706,-92.3642 3.5275,-74 -6.7904,-57.0498 8.9947,-38.0608 24.0711,-25.102"/>
<polygon fill="#191970" stroke="#191970" points="26.596,-27.5634 32.2037,-18.5742 22.2143,-22.1044 26.596,-27.5634"/>
</g>
<!-- Node2&#45;&gt;Node3 -->
<g id="edge3" class="edge">
<title>Node2&#45;&gt;Node3</title>
<path fill="none" stroke="#191970" d="M83.9315,-55.4179C77.379,-47.5833 67.7392,-36.0575 59.7571,-26.5137"/>
<polygon fill="#191970" stroke="#191970" points="62.3889,-24.2048 53.2885,-18.7795 57.0193,-28.6957 62.3889,-24.2048"/>
</g>
<!-- Node2&#45;&gt;Node4 -->
<g id="edge4" class="edge">
<title>Node2&#45;&gt;Node4</title>
<path fill="none" stroke="#191970" d="M98.9583,-55.4179C105.3037,-47.6624 114.6084,-36.29 122.3701,-26.8035"/>
<polygon fill="#191970" stroke="#191970" points="125.3117,-28.7354 128.9352,-18.7795 119.8939,-24.3027 125.3117,-28.7354"/>
</g>
</g>
</svg>
