<?xml version="1.0" encoding="UTF-8" standalone="no"?>
<!DOCTYPE svg PUBLIC "-//W3C//DTD SVG 1.1//EN"
 "http://www.w3.org/Graphics/SVG/1.1/DTD/svg11.dtd">
<!-- Generated by graphviz version 2.40.1 (20161225.0304)
 -->
<!-- Title: /Users/Claudio/GitHub/bayes&#45;filters&#45;lib/src/BayesFilters/include/BayesFilters/ParticleSet.h Pages: 1 -->
<svg width="2393pt" height="387pt"
 viewBox="0.00 0.00 2393.28 387.00" xmlns="http://www.w3.org/2000/svg" xmlns:xlink="http://www.w3.org/1999/xlink">
<g id="graph0" class="graph" transform="scale(1 1) rotate(0) translate(4 383)">
<title>/Users/Claudio/GitHub/bayes&#45;filters&#45;lib/src/BayesFilters/include/BayesFilters/ParticleSet.h</title>
<polygon fill="#ffffff" stroke="transparent" points="-4,4 -4,-383 2389.2827,-383 2389.2827,4 -4,4"/>
<!-- Node4 -->
<g id="node1" class="node">
<title>Node4</title>
<polygon fill="#bfbfbf" stroke="#000000" points="1207.229,-330.5 1207.229,-378.5 1373.2827,-378.5 1373.2827,-330.5 1207.229,-330.5"/>
<text text-anchor="start" x="1215.229" y="-366.5" font-family="Helvetica,sans-Serif" font-size="10.00" fill="#000000">/Users/Claudio/GitHub</text>
<text text-anchor="start" x="1215.229" y="-356.5" font-family="Helvetica,sans-Serif" font-size="10.00" fill="#000000">/bayes&#45;filters&#45;lib/src</text>
<text text-anchor="start" x="1215.229" y="-346.5" font-family="Helvetica,sans-Serif" font-size="10.00" fill="#000000">/BayesFilters/include/BayesFilters</text>
<text text-anchor="middle" x="1290.2559" y="-336.5" font-family="Helvetica,sans-Serif" font-size="10.00" fill="#000000">/ParticleSet.h</text>
</g>
<!-- Node5 -->
<g id="node2" class="node">
<title>Node5</title>
<g id="a_node2"><a xlink:href="BootstrapCorrection_8h.html" target="_top" xlink:title="/Users/Claudio/GitHub\l/bayes&#45;filters&#45;lib/src\l/BayesFilters/include/BayesFilters\l/BootstrapCorrection.h">
<polygon fill="#ffffff" stroke="#000000" points="39.229,-160.5 39.229,-208.5 205.2827,-208.5 205.2827,-160.5 39.229,-160.5"/>
<text text-anchor="start" x="47.229" y="-196.5" font-family="Helvetica,sans-Serif" font-size="10.00" fill="#000000">/Users/Claudio/GitHub</text>
<text text-anchor="start" x="47.229" y="-186.5" font-family="Helvetica,sans-Serif" font-size="10.00" fill="#000000">/bayes&#45;filters&#45;lib/src</text>
<text text-anchor="start" x="47.229" y="-176.5" font-family="Helvetica,sans-Serif" font-size="10.00" fill="#000000">/BayesFilters/include/BayesFilters</text>
<text text-anchor="middle" x="122.2559" y="-166.5" font-family="Helvetica,sans-Serif" font-size="10.00" fill="#000000">/BootstrapCorrection.h</text>
</a>
</g>
</g>
<!-- Node4&#45;&gt;Node5 -->
<g id="edge1" class="edge">
<title>Node4&#45;&gt;Node5</title>
<path fill="none" stroke="#191970" d="M1196.6235,-351.6566C1000.8064,-345.129 553.8717,-327.0337 405.2559,-294 319.888,-275.0248 226.2382,-234.6164 170.9419,-208.5496"/>
<polygon fill="#191970" stroke="#191970" points="1196.7801,-355.1636 1206.8903,-351.9959 1197.0114,-348.1674 1196.7801,-355.1636"/>
</g>
<!-- Node7 -->
<g id="node4" class="node">
<title>Node7</title>
<g id="a_node4"><a xlink:href="DrawParticles_8h.html" target="_top" xlink:title="/Users/Claudio/GitHub\l/bayes&#45;filters&#45;lib/src\l/BayesFilters/include/BayesFilters\l/DrawParticles.h">
<polygon fill="#ffffff" stroke="#000000" points="817.229,-160.5 817.229,-208.5 983.2827,-208.5 983.2827,-160.5 817.229,-160.5"/>
<text text-anchor="start" x="825.229" y="-196.5" font-family="Helvetica,sans-Serif" font-size="10.00" fill="#000000">/Users/Claudio/GitHub</text>
<text text-anchor="start" x="825.229" y="-186.5" font-family="Helvetica,sans-Serif" font-size="10.00" fill="#000000">/bayes&#45;filters&#45;lib/src</text>
<text text-anchor="start" x="825.229" y="-176.5" font-family="Helvetica,sans-Serif" font-size="10.00" fill="#000000">/BayesFilters/include/BayesFilters</text>
<text text-anchor="middle" x="900.2559" y="-166.5" font-family="Helvetica,sans-Serif" font-size="10.00" fill="#000000">/DrawParticles.h</text>
</a>
</g>
</g>
<!-- Node4&#45;&gt;Node7 -->
<g id="edge3" class="edge">
<title>Node4&#45;&gt;Node7</title>
<path fill="none" stroke="#191970" d="M1197.0255,-341.786C1124.4982,-330.6989 1030.7438,-313.3853 997.2559,-294 961.2092,-273.1336 931.5385,-234.0634 914.8681,-208.6766"/>
<polygon fill="#191970" stroke="#191970" points="1196.6995,-345.2764 1207.11,-343.3087 1197.7447,-338.3549 1196.6995,-345.2764"/>
</g>
<!-- Node9 -->
<g id="node6" class="node">
<title>Node9</title>
<g id="a_node6"><a xlink:href="GPFCorrection_8h.html" target="_top" xlink:title="/Users/Claudio/GitHub\l/bayes&#45;filters&#45;lib/src\l/BayesFilters/include/BayesFilters\l/GPFCorrection.h">
<polygon fill="#ffffff" stroke="#000000" points="223.229,-160.5 223.229,-208.5 389.2827,-208.5 389.2827,-160.5 223.229,-160.5"/>
<text text-anchor="start" x="231.229" y="-196.5" font-family="Helvetica,sans-Serif" font-size="10.00" fill="#000000">/Users/Claudio/GitHub</text>
<text text-anchor="start" x="231.229" y="-186.5" font-family="Helvetica,sans-Serif" font-size="10.00" fill="#000000">/bayes&#45;filters&#45;lib/src</text>
<text text-anchor="start" x="231.229" y="-176.5" font-family="Helvetica,sans-Serif" font-size="10.00" fill="#000000">/BayesFilters/include/BayesFilters</text>
<text text-anchor="middle" x="306.2559" y="-166.5" font-family="Helvetica,sans-Serif" font-size="10.00" fill="#000000">/GPFCorrection.h</text>
</a>
</g>
</g>
<!-- Node4&#45;&gt;Node9 -->
<g id="edge5" class="edge">
<title>Node4&#45;&gt;Node9</title>
<path fill="none" stroke="#191970" d="M1196.6542,-351.5736C1021.1407,-345.3483 649.1373,-328.4565 525.2559,-294 457.2723,-275.091 385.3717,-234.663 343.2192,-208.5742"/>
<polygon fill="#191970" stroke="#191970" points="1196.7891,-355.0803 1206.9056,-351.9329 1197.0344,-348.0846 1196.7891,-355.0803"/>
</g>
<!-- Node11 -->
<g id="node8" class="node">
<title>Node11</title>
<g id="a_node8"><a xlink:href="GPFPrediction_8h.html" target="_top" xlink:title="/Users/Claudio/GitHub\l/bayes&#45;filters&#45;lib/src\l/BayesFilters/include/BayesFilters\l/GPFPrediction.h">
<polygon fill="#ffffff" stroke="#000000" points="1263.229,-160.5 1263.229,-208.5 1429.2827,-208.5 1429.2827,-160.5 1263.229,-160.5"/>
<text text-anchor="start" x="1271.229" y="-196.5" font-family="Helvetica,sans-Serif" font-size="10.00" fill="#000000">/Users/Claudio/GitHub</text>
<text text-anchor="start" x="1271.229" y="-186.5" font-family="Helvetica,sans-Serif" font-size="10.00" fill="#000000">/bayes&#45;filters&#45;lib/src</text>
<text text-anchor="start" x="1271.229" y="-176.5" font-family="Helvetica,sans-Serif" font-size="10.00" fill="#000000">/BayesFilters/include/BayesFilters</text>
<text text-anchor="middle" x="1346.2559" y="-166.5" font-family="Helvetica,sans-Serif" font-size="10.00" fill="#000000">/GPFPrediction.h</text>
</a>
</g>
</g>
<!-- Node4&#45;&gt;Node11 -->
<g id="edge7" class="edge">
<title>Node4&#45;&gt;Node11</title>
<path fill="none" stroke="#191970" d="M1313.4347,-321.6245C1318.6651,-312.9658 1323.7117,-303.406 1327.2559,-294 1337.8688,-265.8337 1342.6026,-231.3336 1344.6815,-208.6782"/>
<polygon fill="#191970" stroke="#191970" points="1310.3509,-319.953 1307.9729,-330.2775 1316.2703,-323.6894 1310.3509,-319.953"/>
</g>
<!-- Node13 -->
<g id="node10" class="node">
<title>Node13</title>
<g id="a_node10"><a xlink:href="InitSurveillanceAreaGrid_8h.html" target="_top" xlink:title="/Users/Claudio/GitHub\l/bayes&#45;filters&#45;lib/src\l/BayesFilters/include/BayesFilters\l/InitSurveillanceAreaGrid.h">
<polygon fill="#ffffff" stroke="#000000" points="2219.229,-160.5 2219.229,-208.5 2385.2827,-208.5 2385.2827,-160.5 2219.229,-160.5"/>
<text text-anchor="start" x="2227.229" y="-196.5" font-family="Helvetica,sans-Serif" font-size="10.00" fill="#000000">/Users/Claudio/GitHub</text>
<text text-anchor="start" x="2227.229" y="-186.5" font-family="Helvetica,sans-Serif" font-size="10.00" fill="#000000">/bayes&#45;filters&#45;lib/src</text>
<text text-anchor="start" x="2227.229" y="-176.5" font-family="Helvetica,sans-Serif" font-size="10.00" fill="#000000">/BayesFilters/include/BayesFilters</text>
<text text-anchor="middle" x="2302.2559" y="-166.5" font-family="Helvetica,sans-Serif" font-size="10.00" fill="#000000">/InitSurveillanceAreaGrid.h</text>
</a>
</g>
</g>
<!-- Node4&#45;&gt;Node13 -->
<g id="edge9" class="edge">
<title>Node4&#45;&gt;Node13</title>
<path fill="none" stroke="#191970" d="M1383.5628,-350.6024C1562.1183,-342.5404 1939.1305,-322.3835 1991.2559,-294 2015.4594,-280.8206 2005.8152,-259.4928 2029.2559,-245 2099.0188,-201.8672 2130.3639,-227.5628 2210.2559,-209 2213.1539,-208.3267 2216.0992,-207.6269 2219.0708,-206.9077"/>
<polygon fill="#191970" stroke="#191970" points="1383.2255,-347.1139 1373.3923,-351.0582 1383.539,-354.1069 1383.2255,-347.1139"/>
</g>
<!-- Node15 -->
<g id="node12" class="node">
<title>Node15</title>
<g id="a_node12"><a xlink:href="ParticleSetInitialization_8h.html" target="_top" xlink:title="/Users/Claudio/GitHub\l/bayes&#45;filters&#45;lib/src\l/BayesFilters/include/BayesFilters\l/ParticleSetInitialization.h">
<polygon fill="#ffffff" stroke="#000000" points="1816.229,-245.5 1816.229,-293.5 1982.2827,-293.5 1982.2827,-245.5 1816.229,-245.5"/>
<text text-anchor="start" x="1824.229" y="-281.5" font-family="Helvetica,sans-Serif" font-size="10.00" fill="#000000">/Users/Claudio/GitHub</text>
<text text-anchor="start" x="1824.229" y="-271.5" font-family="Helvetica,sans-Serif" font-size="10.00" fill="#000000">/bayes&#45;filters&#45;lib/src</text>
<text text-anchor="start" x="1824.229" y="-261.5" font-family="Helvetica,sans-Serif" font-size="10.00" fill="#000000">/BayesFilters/include/BayesFilters</text>
<text text-anchor="middle" x="1899.2559" y="-251.5" font-family="Helvetica,sans-Serif" font-size="10.00" fill="#000000">/ParticleSetInitialization.h</text>
</a>
</g>
</g>
<!-- Node4&#45;&gt;Node15 -->
<g id="edge11" class="edge">
<title>Node4&#45;&gt;Node15</title>
<path fill="none" stroke="#191970" d="M1383.7365,-347.1234C1486.7976,-338.1398 1657.23,-320.7667 1802.2559,-294 1806.7822,-293.1646 1811.4109,-292.2396 1816.0722,-291.2525"/>
<polygon fill="#191970" stroke="#191970" points="1383.33,-343.6453 1373.6683,-347.9929 1383.9324,-350.6194 1383.33,-343.6453"/>
</g>
<!-- Node17 -->
<g id="node14" class="node">
<title>Node17</title>
<g id="a_node14"><a xlink:href="SIS_8h.html" target="_top" xlink:title="/Users/Claudio/GitHub\l/bayes&#45;filters&#45;lib/src\l/BayesFilters/include/BayesFilters/SIS.h">
<polygon fill="#ffffff" stroke="#000000" points="978.6108,-80.5 978.6108,-118.5 1171.9009,-118.5 1171.9009,-80.5 978.6108,-80.5"/>
<text text-anchor="start" x="986.6108" y="-106.5" font-family="Helvetica,sans-Serif" font-size="10.00" fill="#000000">/Users/Claudio/GitHub</text>
<text text-anchor="start" x="986.6108" y="-96.5" font-family="Helvetica,sans-Serif" font-size="10.00" fill="#000000">/bayes&#45;filters&#45;lib/src</text>
<text text-anchor="middle" x="1075.2559" y="-86.5" font-family="Helvetica,sans-Serif" font-size="10.00" fill="#000000">/BayesFilters/include/BayesFilters/SIS.h</text>
</a>
</g>
</g>
<!-- Node4&#45;&gt;Node17 -->
<g id="edge43" class="edge">
<title>Node4&#45;&gt;Node17</title>
<path fill="none" stroke="#191970" d="M1197.528,-327.3402C1142.5979,-305.4914 1078.8649,-268.4114 1053.2559,-209 1040.3611,-179.0851 1053.8653,-141.2758 1064.6732,-118.8167"/>
<polygon fill="#191970" stroke="#191970" points="1196.3743,-330.6465 1206.9639,-330.9806 1198.894,-324.1157 1196.3743,-330.6465"/>
</g>
<!-- Node20 -->
<g id="node17" class="node">
<title>Node20</title>
<g id="a_node17"><a xlink:href="ResamplingWithPrior_8h.html" target="_top" xlink:title="/Users/Claudio/GitHub\l/bayes&#45;filters&#45;lib/src\l/BayesFilters/include/BayesFilters\l/ResamplingWithPrior.h">
<polygon fill="#ffffff" stroke="#000000" points="2035.229,-160.5 2035.229,-208.5 2201.2827,-208.5 2201.2827,-160.5 2035.229,-160.5"/>
<text text-anchor="start" x="2043.229" y="-196.5" font-family="Helvetica,sans-Serif" font-size="10.00" fill="#000000">/Users/Claudio/GitHub</text>
<text text-anchor="start" x="2043.229" y="-186.5" font-family="Helvetica,sans-Serif" font-size="10.00" fill="#000000">/bayes&#45;filters&#45;lib/src</text>
<text text-anchor="start" x="2043.229" y="-176.5" font-family="Helvetica,sans-Serif" font-size="10.00" fill="#000000">/BayesFilters/include/BayesFilters</text>
<text text-anchor="middle" x="2118.2559" y="-166.5" font-family="Helvetica,sans-Serif" font-size="10.00" fill="#000000">/ResamplingWithPrior.h</text>
</a>
</g>
</g>
<!-- Node4&#45;&gt;Node20 -->
<g id="edge42" class="edge">
<title>Node4&#45;&gt;Node20</title>
<path fill="none" stroke="#191970" d="M1383.8382,-351.1155C1504.2148,-345.3348 1705.4081,-330.4216 1769.2559,-294 1793.194,-280.3446 1783.5764,-259.0993 1807.2559,-245 1892.0093,-194.5359 1929.8162,-229.7163 2026.2559,-209 2029.1647,-208.3751 2032.1193,-207.717 2035.0989,-207.0334"/>
<polygon fill="#191970" stroke="#191970" points="1383.3497,-347.6344 1373.5242,-351.5979 1383.6768,-354.6267 1383.3497,-347.6344"/>
</g>
<!-- Node22 -->
<g id="node19" class="node">
<title>Node22</title>
<g id="a_node19"><a xlink:href="PFCorrection_8h.html" target="_top" xlink:title="/Users/Claudio/GitHub\l/bayes&#45;filters&#45;lib/src\l/BayesFilters/include/BayesFilters\l/PFCorrection.h">
<polygon fill="#ffffff" stroke="#000000" points="593.229,-245.5 593.229,-293.5 759.2827,-293.5 759.2827,-245.5 593.229,-245.5"/>
<text text-anchor="start" x="601.229" y="-281.5" font-family="Helvetica,sans-Serif" font-size="10.00" fill="#000000">/Users/Claudio/GitHub</text>
<text text-anchor="start" x="601.229" y="-271.5" font-family="Helvetica,sans-Serif" font-size="10.00" fill="#000000">/bayes&#45;filters&#45;lib/src</text>
<text text-anchor="start" x="601.229" y="-261.5" font-family="Helvetica,sans-Serif" font-size="10.00" fill="#000000">/BayesFilters/include/BayesFilters</text>
<text text-anchor="middle" x="676.2559" y="-251.5" font-family="Helvetica,sans-Serif" font-size="10.00" fill="#000000">/PFCorrection.h</text>
</a>
</g>
</g>
<!-- Node4&#45;&gt;Node22 -->
<g id="edge19" class="edge">
<title>Node4&#45;&gt;Node22</title>
<path fill="none" stroke="#191970" d="M1196.9396,-341.5816C1077.8669,-325.0976 873.7023,-296.8338 759.6154,-281.04"/>
<polygon fill="#191970" stroke="#191970" points="1196.7443,-345.0879 1207.1298,-342.9923 1197.7043,-338.154 1196.7443,-345.0879"/>
</g>
<!-- Node23 -->
<g id="node20" class="node">
<title>Node23</title>
<g id="a_node20"><a xlink:href="PFCorrectionDecorator_8h.html" target="_top" xlink:title="/Users/Claudio/GitHub\l/bayes&#45;filters&#45;lib/src\l/BayesFilters/include/BayesFilters\l/PFCorrectionDecorator.h">
<polygon fill="#ffffff" stroke="#000000" points="407.229,-160.5 407.229,-208.5 573.2827,-208.5 573.2827,-160.5 407.229,-160.5"/>
<text text-anchor="start" x="415.229" y="-196.5" font-family="Helvetica,sans-Serif" font-size="10.00" fill="#000000">/Users/Claudio/GitHub</text>
<text text-anchor="start" x="415.229" y="-186.5" font-family="Helvetica,sans-Serif" font-size="10.00" fill="#000000">/bayes&#45;filters&#45;lib/src</text>
<text text-anchor="start" x="415.229" y="-176.5" font-family="Helvetica,sans-Serif" font-size="10.00" fill="#000000">/BayesFilters/include/BayesFilters</text>
<text text-anchor="middle" x="490.2559" y="-166.5" font-family="Helvetica,sans-Serif" font-size="10.00" fill="#000000">/PFCorrectionDecorator.h</text>
</a>
</g>
</g>
<!-- Node4&#45;&gt;Node23 -->
<g id="edge27" class="edge">
<title>Node4&#45;&gt;Node23</title>
<path fill="none" stroke="#191970" d="M1196.7449,-350.4218C1017.2704,-342.0225 637.4868,-321.2711 584.2559,-294 547.2406,-275.0365 518.7052,-234.6247 503.2162,-208.554"/>
<polygon fill="#191970" stroke="#191970" points="1196.8151,-353.9287 1206.9668,-350.8969 1197.1402,-346.9363 1196.8151,-353.9287"/>
</g>
<!-- Node26 -->
<g id="node23" class="node">
<title>Node26</title>
<g id="a_node23"><a xlink:href="PFPrediction_8h.html" target="_top" xlink:title="/Users/Claudio/GitHub\l/bayes&#45;filters&#45;lib/src\l/BayesFilters/include/BayesFilters\l/PFPrediction.h">
<polygon fill="#ffffff" stroke="#000000" points="1152.229,-245.5 1152.229,-293.5 1318.2827,-293.5 1318.2827,-245.5 1152.229,-245.5"/>
<text text-anchor="start" x="1160.229" y="-281.5" font-family="Helvetica,sans-Serif" font-size="10.00" fill="#000000">/Users/Claudio/GitHub</text>
<text text-anchor="start" x="1160.229" y="-271.5" font-family="Helvetica,sans-Serif" font-size="10.00" fill="#000000">/bayes&#45;filters&#45;lib/src</text>
<text text-anchor="start" x="1160.229" y="-261.5" font-family="Helvetica,sans-Serif" font-size="10.00" fill="#000000">/BayesFilters/include/BayesFilters</text>
<text text-anchor="middle" x="1235.2559" y="-251.5" font-family="Helvetica,sans-Serif" font-size="10.00" fill="#000000">/PFPrediction.h</text>
</a>
</g>
</g>
<!-- Node4&#45;&gt;Node26 -->
<g id="edge28" class="edge">
<title>Node4&#45;&gt;Node26</title>
<path fill="none" stroke="#191970" d="M1269.0311,-321.698C1263.0002,-312.3777 1256.5441,-302.4 1250.9086,-293.6906"/>
<polygon fill="#191970" stroke="#191970" points="1266.2711,-323.8755 1274.6422,-330.3698 1272.1481,-320.0727 1266.2711,-323.8755"/>
</g>
<!-- Node27 -->
<g id="node24" class="node">
<title>Node27</title>
<g id="a_node24"><a xlink:href="PFPredictionDecorator_8h.html" target="_top" xlink:title="/Users/Claudio/GitHub\l/bayes&#45;filters&#45;lib/src\l/BayesFilters/include/BayesFilters\l/PFPredictionDecorator.h">
<polygon fill="#ffffff" stroke="#000000" points="1631.229,-160.5 1631.229,-208.5 1797.2827,-208.5 1797.2827,-160.5 1631.229,-160.5"/>
<text text-anchor="start" x="1639.229" y="-196.5" font-family="Helvetica,sans-Serif" font-size="10.00" fill="#000000">/Users/Claudio/GitHub</text>
<text text-anchor="start" x="1639.229" y="-186.5" font-family="Helvetica,sans-Serif" font-size="10.00" fill="#000000">/bayes&#45;filters&#45;lib/src</text>
<text text-anchor="start" x="1639.229" y="-176.5" font-family="Helvetica,sans-Serif" font-size="10.00" fill="#000000">/BayesFilters/include/BayesFilters</text>
<text text-anchor="middle" x="1714.2559" y="-166.5" font-family="Helvetica,sans-Serif" font-size="10.00" fill="#000000">/PFPredictionDecorator.h</text>
</a>
</g>
</g>
<!-- Node4&#45;&gt;Node27 -->
<g id="edge36" class="edge">
<title>Node4&#45;&gt;Node27</title>
<path fill="none" stroke="#191970" d="M1360.2869,-326.4215C1442.2844,-293.5452 1576.7131,-239.6468 1654.1653,-208.5929"/>
<polygon fill="#191970" stroke="#191970" points="1358.5337,-323.3536 1350.5544,-330.3237 1361.1387,-329.8508 1358.5337,-323.3536"/>
</g>
<!-- Node30 -->
<g id="node27" class="node">
<title>Node30</title>
<g id="a_node27"><a xlink:href="Resampling_8h.html" target="_top" xlink:title="/Users/Claudio/GitHub\l/bayes&#45;filters&#45;lib/src\l/BayesFilters/include/BayesFilters\l/Resampling.h">
<polygon fill="#ffffff" stroke="#000000" points="1594.229,-245.5 1594.229,-293.5 1760.2827,-293.5 1760.2827,-245.5 1594.229,-245.5"/>
<text text-anchor="start" x="1602.229" y="-281.5" font-family="Helvetica,sans-Serif" font-size="10.00" fill="#000000">/Users/Claudio/GitHub</text>
<text text-anchor="start" x="1602.229" y="-271.5" font-family="Helvetica,sans-Serif" font-size="10.00" fill="#000000">/bayes&#45;filters&#45;lib/src</text>
<text text-anchor="start" x="1602.229" y="-261.5" font-family="Helvetica,sans-Serif" font-size="10.00" fill="#000000">/BayesFilters/include/BayesFilters</text>
<text text-anchor="middle" x="1677.2559" y="-251.5" font-family="Helvetica,sans-Serif" font-size="10.00" fill="#000000">/Resampling.h</text>
</a>
</g>
</g>
<!-- Node4&#45;&gt;Node30 -->
<g id="edge37" class="edge">
<title>Node4&#45;&gt;Node30</title>
<path fill="none" stroke="#191970" d="M1383.8569,-333.9416C1447.9325,-319.8682 1532.1459,-301.3717 1593.9087,-287.8062"/>
<polygon fill="#191970" stroke="#191970" points="1382.769,-330.5971 1373.7526,-336.1609 1384.2707,-337.4341 1382.769,-330.5971"/>
</g>
<!-- Node32 -->
<g id="node29" class="node">
<title>Node32</title>
<g id="a_node29"><a xlink:href="ParticleSet_8cpp.html" target="_top" xlink:title="/Users/Claudio/GitHub\l/bayes&#45;filters&#45;lib/src\l/BayesFilters/src/ParticleSet.cpp">
<polygon fill="#ffffff" stroke="#000000" points="2038.2881,-250.5 2038.2881,-288.5 2198.2236,-288.5 2198.2236,-250.5 2038.2881,-250.5"/>
<text text-anchor="start" x="2046.2881" y="-276.5" font-family="Helvetica,sans-Serif" font-size="10.00" fill="#000000">/Users/Claudio/GitHub</text>
<text text-anchor="start" x="2046.2881" y="-266.5" font-family="Helvetica,sans-Serif" font-size="10.00" fill="#000000">/bayes&#45;filters&#45;lib/src</text>
<text text-anchor="middle" x="2118.2559" y="-256.5" font-family="Helvetica,sans-Serif" font-size="10.00" fill="#000000">/BayesFilters/src/ParticleSet.cpp</text>
</a>
</g>
</g>
<!-- Node4&#45;&gt;Node32 -->
<g id="edge44" class="edge">
<title>Node4&#45;&gt;Node32</title>
<path fill="none" stroke="#191970" d="M1383.6612,-351.9618C1523.7394,-346.9941 1796.1423,-332.8291 2024.2559,-294 2032.9843,-292.5143 2042.086,-290.6075 2051.0409,-288.5149"/>
<polygon fill="#191970" stroke="#191970" points="1383.2689,-348.4732 1373.3962,-352.3177 1383.5115,-355.469 1383.2689,-348.4732"/>
</g>
<!-- Node6 -->
<g id="node3" class="node">
<title>Node6</title>
<g id="a_node3"><a xlink:href="BootstrapCorrection_8cpp.html" target="_top" xlink:title="/Users/Claudio/GitHub\l/bayes&#45;filters&#45;lib/src\l/BayesFilters/src/BootstrapCorrection.cpp">
<polygon fill="#ffffff" stroke="#000000" points="0,-80.5 0,-118.5 200.5117,-118.5 200.5117,-80.5 0,-80.5"/>
<text text-anchor="start" x="8" y="-106.5" font-family="Helvetica,sans-Serif" font-size="10.00" fill="#000000">/Users/Claudio/GitHub</text>
<text text-anchor="start" x="8" y="-96.5" font-family="Helvetica,sans-Serif" font-size="10.00" fill="#000000">/bayes&#45;filters&#45;lib/src</text>
<text text-anchor="middle" x="100.2559" y="-86.5" font-family="Helvetica,sans-Serif" font-size="10.00" fill="#000000">/BayesFilters/src/BootstrapCorrection.cpp</text>
</a>
</g>
</g>
<!-- Node5&#45;&gt;Node6 -->
<g id="edge2" class="edge">
<title>Node5&#45;&gt;Node6</title>
<path fill="none" stroke="#191970" d="M113.4955,-150.6532C110.6694,-139.7341 107.6373,-128.0192 105.1888,-118.5591"/>
<polygon fill="#191970" stroke="#191970" points="110.1163,-151.5658 116.0104,-160.3698 116.893,-149.8118 110.1163,-151.5658"/>
</g>
<!-- Node8 -->
<g id="node5" class="node">
<title>Node8</title>
<g id="a_node5"><a xlink:href="DrawParticles_8cpp.html" target="_top" xlink:title="/Users/Claudio/GitHub\l/bayes&#45;filters&#45;lib/src\l/BayesFilters/src/DrawParticles.cpp">
<polygon fill="#ffffff" stroke="#000000" points="787.6255,-80.5 787.6255,-118.5 960.8862,-118.5 960.8862,-80.5 787.6255,-80.5"/>
<text text-anchor="start" x="795.6255" y="-106.5" font-family="Helvetica,sans-Serif" font-size="10.00" fill="#000000">/Users/Claudio/GitHub</text>
<text text-anchor="start" x="795.6255" y="-96.5" font-family="Helvetica,sans-Serif" font-size="10.00" fill="#000000">/bayes&#45;filters&#45;lib/src</text>
<text text-anchor="middle" x="874.2559" y="-86.5" font-family="Helvetica,sans-Serif" font-size="10.00" fill="#000000">/BayesFilters/src/DrawParticles.cpp</text>
</a>
</g>
</g>
<!-- Node7&#45;&gt;Node8 -->
<g id="edge4" class="edge">
<title>Node7&#45;&gt;Node8</title>
<path fill="none" stroke="#191970" d="M889.9027,-150.6532C886.5628,-139.7341 882.9794,-128.0192 880.0857,-118.5591"/>
<polygon fill="#191970" stroke="#191970" points="886.6028,-151.8309 892.8748,-160.3698 893.2967,-149.7833 886.6028,-151.8309"/>
</g>
<!-- Node10 -->
<g id="node7" class="node">
<title>Node10</title>
<g id="a_node7"><a xlink:href="GPFCorrection_8cpp.html" target="_top" xlink:title="/Users/Claudio/GitHub\l/bayes&#45;filters&#45;lib/src\l/BayesFilters/src/GPFCorrection.cpp">
<polygon fill="#ffffff" stroke="#000000" points="218.123,-80.5 218.123,-118.5 396.3887,-118.5 396.3887,-80.5 218.123,-80.5"/>
<text text-anchor="start" x="226.123" y="-106.5" font-family="Helvetica,sans-Serif" font-size="10.00" fill="#000000">/Users/Claudio/GitHub</text>
<text text-anchor="start" x="226.123" y="-96.5" font-family="Helvetica,sans-Serif" font-size="10.00" fill="#000000">/bayes&#45;filters&#45;lib/src</text>
<text text-anchor="middle" x="307.2559" y="-86.5" font-family="Helvetica,sans-Serif" font-size="10.00" fill="#000000">/BayesFilters/src/GPFCorrection.cpp</text>
</a>
</g>
</g>
<!-- Node9&#45;&gt;Node10 -->
<g id="edge6" class="edge">
<title>Node9&#45;&gt;Node10</title>
<path fill="none" stroke="#191970" d="M306.658,-150.3187C306.7853,-139.4952 306.9215,-127.9227 307.0316,-118.5591"/>
<polygon fill="#191970" stroke="#191970" points="303.1577,-150.3293 306.5397,-160.3698 310.1572,-150.4117 303.1577,-150.3293"/>
</g>
<!-- Node12 -->
<g id="node9" class="node">
<title>Node12</title>
<g id="a_node9"><a xlink:href="GPFPrediction_8cpp.html" target="_top" xlink:title="/Users/Claudio/GitHub\l/bayes&#45;filters&#45;lib/src\l/BayesFilters/src/GPFPrediction.cpp">
<polygon fill="#ffffff" stroke="#000000" points="1254.9531,-80.5 1254.9531,-118.5 1431.5586,-118.5 1431.5586,-80.5 1254.9531,-80.5"/>
<text text-anchor="start" x="1262.9531" y="-106.5" font-family="Helvetica,sans-Serif" font-size="10.00" fill="#000000">/Users/Claudio/GitHub</text>
<text text-anchor="start" x="1262.9531" y="-96.5" font-family="Helvetica,sans-Serif" font-size="10.00" fill="#000000">/bayes&#45;filters&#45;lib/src</text>
<text text-anchor="middle" x="1343.2559" y="-86.5" font-family="Helvetica,sans-Serif" font-size="10.00" fill="#000000">/BayesFilters/src/GPFPrediction.cpp</text>
</a>
</g>
</g>
<!-- Node11&#45;&gt;Node12 -->
<g id="edge8" class="edge">
<title>Node11&#45;&gt;Node12</title>
<path fill="none" stroke="#191970" d="M1345.0495,-150.3187C1344.6675,-139.4952 1344.259,-127.9227 1343.9285,-118.5591"/>
<polygon fill="#191970" stroke="#191970" points="1341.5536,-150.4995 1345.4042,-160.3698 1348.5492,-150.2525 1341.5536,-150.4995"/>
</g>
<!-- Node14 -->
<g id="node11" class="node">
<title>Node14</title>
<g id="a_node11"><a xlink:href="InitSurveillanceAreaGrid_8cpp.html" target="_top" xlink:title="/Users/Claudio/GitHub\l/bayes&#45;filters&#45;lib/src\l/BayesFilters/src/InitSurveillance\lAreaGrid.cpp">
<polygon fill="#ffffff" stroke="#000000" points="2222.0098,-75.5 2222.0098,-123.5 2382.502,-123.5 2382.502,-75.5 2222.0098,-75.5"/>
<text text-anchor="start" x="2230.0098" y="-111.5" font-family="Helvetica,sans-Serif" font-size="10.00" fill="#000000">/Users/Claudio/GitHub</text>
<text text-anchor="start" x="2230.0098" y="-101.5" font-family="Helvetica,sans-Serif" font-size="10.00" fill="#000000">/bayes&#45;filters&#45;lib/src</text>
<text text-anchor="start" x="2230.0098" y="-91.5" font-family="Helvetica,sans-Serif" font-size="10.00" fill="#000000">/BayesFilters/src/InitSurveillance</text>
<text text-anchor="middle" x="2302.2559" y="-81.5" font-family="Helvetica,sans-Serif" font-size="10.00" fill="#000000">AreaGrid.cpp</text>
</a>
</g>
</g>
<!-- Node13&#45;&gt;Node14 -->
<g id="edge10" class="edge">
<title>Node13&#45;&gt;Node14</title>
<path fill="none" stroke="#191970" d="M2302.2559,-150.2518C2302.2559,-141.3524 2302.2559,-131.951 2302.2559,-123.6906"/>
<polygon fill="#191970" stroke="#191970" points="2298.756,-150.3697 2302.2559,-160.3698 2305.756,-150.3698 2298.756,-150.3697"/>
</g>
<!-- Node15&#45;&gt;Node13 -->
<g id="edge12" class="edge">
<title>Node15&#45;&gt;Node13</title>
<path fill="none" stroke="#191970" d="M1992.4314,-245.8136C1993.7136,-245.5375 1994.989,-245.2661 1996.2559,-245 2090.6437,-225.1745 2115.9974,-229.4321 2210.2559,-209 2213.1635,-208.3697 2216.1171,-207.7069 2219.0959,-207.0194"/>
<polygon fill="#191970" stroke="#191970" points="1991.499,-242.4352 1982.4922,-248.0144 1993.0124,-249.2696 1991.499,-242.4352"/>
</g>
<!-- Node16 -->
<g id="node13" class="node">
<title>Node16</title>
<g id="a_node13"><a xlink:href="ParticleFilter_8h.html" target="_top" xlink:title="/Users/Claudio/GitHub\l/bayes&#45;filters&#45;lib/src\l/BayesFilters/include/BayesFilters\l/ParticleFilter.h">
<polygon fill="#ffffff" stroke="#000000" points="1447.229,-160.5 1447.229,-208.5 1613.2827,-208.5 1613.2827,-160.5 1447.229,-160.5"/>
<text text-anchor="start" x="1455.229" y="-196.5" font-family="Helvetica,sans-Serif" font-size="10.00" fill="#000000">/Users/Claudio/GitHub</text>
<text text-anchor="start" x="1455.229" y="-186.5" font-family="Helvetica,sans-Serif" font-size="10.00" fill="#000000">/bayes&#45;filters&#45;lib/src</text>
<text text-anchor="start" x="1455.229" y="-176.5" font-family="Helvetica,sans-Serif" font-size="10.00" fill="#000000">/BayesFilters/include/BayesFilters</text>
<text text-anchor="middle" x="1530.2559" y="-166.5" font-family="Helvetica,sans-Serif" font-size="10.00" fill="#000000">/ParticleFilter.h</text>
</a>
</g>
</g>
<!-- Node15&#45;&gt;Node16 -->
<g id="edge13" class="edge">
<title>Node15&#45;&gt;Node16</title>
<path fill="none" stroke="#191970" d="M1806.1266,-250.257C1752.2663,-238.8541 1683.2814,-223.782 1622.2559,-209 1619.3643,-208.2996 1616.4245,-207.5765 1613.4576,-206.8375"/>
<polygon fill="#191970" stroke="#191970" points="1805.4947,-253.7007 1816.0022,-252.3426 1806.9412,-246.8517 1805.4947,-253.7007"/>
</g>
<!-- Node15&#45;&gt;Node20 -->
<g id="edge17" class="edge">
<title>Node15&#45;&gt;Node20</title>
<path fill="none" stroke="#191970" d="M1970.7197,-241.7629C1998.2906,-231.0619 2029.5352,-218.935 2056.1507,-208.6047"/>
<polygon fill="#191970" stroke="#191970" points="1969.1904,-238.602 1961.1343,-245.4832 1971.7232,-245.1277 1969.1904,-238.602"/>
</g>
<!-- Node16&#45;&gt;Node17 -->
<g id="edge14" class="edge">
<title>Node16&#45;&gt;Node17</title>
<path fill="none" stroke="#191970" d="M1437.2754,-159.8658C1341.819,-139.5449 1242.9953,-123.6169 1172.0295,-113.0689"/>
<polygon fill="#191970" stroke="#191970" points="1436.5851,-163.2973 1447.0971,-161.9749 1438.0549,-156.4533 1436.5851,-163.2973"/>
</g>
<!-- Node19 -->
<g id="node16" class="node">
<title>Node19</title>
<g id="a_node16"><a xlink:href="ParticleFilter_8cpp.html" target="_top" xlink:title="/Users/Claudio/GitHub\l/bayes&#45;filters&#45;lib/src\l/BayesFilters/src/ParticleFilter.cpp">
<polygon fill="#ffffff" stroke="#000000" points="1449.9556,-80.5 1449.9556,-118.5 1616.5562,-118.5 1616.5562,-80.5 1449.9556,-80.5"/>
<text text-anchor="start" x="1457.9556" y="-106.5" font-family="Helvetica,sans-Serif" font-size="10.00" fill="#000000">/Users/Claudio/GitHub</text>
<text text-anchor="start" x="1457.9556" y="-96.5" font-family="Helvetica,sans-Serif" font-size="10.00" fill="#000000">/bayes&#45;filters&#45;lib/src</text>
<text text-anchor="middle" x="1533.2559" y="-86.5" font-family="Helvetica,sans-Serif" font-size="10.00" fill="#000000">/BayesFilters/src/ParticleFilter.cpp</text>
</a>
</g>
</g>
<!-- Node16&#45;&gt;Node19 -->
<g id="edge16" class="edge">
<title>Node16&#45;&gt;Node19</title>
<path fill="none" stroke="#191970" d="M1531.4623,-150.3187C1531.8443,-139.4952 1532.2527,-127.9227 1532.5832,-118.5591"/>
<polygon fill="#191970" stroke="#191970" points="1527.9625,-150.2525 1531.1075,-160.3698 1534.9582,-150.4995 1527.9625,-150.2525"/>
</g>
<!-- Node18 -->
<g id="node15" class="node">
<title>Node18</title>
<g id="a_node15"><a xlink:href="SIS_8cpp.html" target="_top" xlink:title="/Users/Claudio/GitHub\l/bayes&#45;filters&#45;lib/src\l/BayesFilters/src/SIS.cpp">
<polygon fill="#ffffff" stroke="#000000" points="1011.4063,-.5 1011.4063,-38.5 1139.1055,-38.5 1139.1055,-.5 1011.4063,-.5"/>
<text text-anchor="start" x="1019.4063" y="-26.5" font-family="Helvetica,sans-Serif" font-size="10.00" fill="#000000">/Users/Claudio/GitHub</text>
<text text-anchor="start" x="1019.4063" y="-16.5" font-family="Helvetica,sans-Serif" font-size="10.00" fill="#000000">/bayes&#45;filters&#45;lib/src</text>
<text text-anchor="middle" x="1075.2559" y="-6.5" font-family="Helvetica,sans-Serif" font-size="10.00" fill="#000000">/BayesFilters/src/SIS.cpp</text>
</a>
</g>
</g>
<!-- Node17&#45;&gt;Node18 -->
<g id="edge15" class="edge">
<title>Node17&#45;&gt;Node18</title>
<path fill="none" stroke="#191970" d="M1075.2559,-70.1156C1075.2559,-59.6295 1075.2559,-48.0942 1075.2559,-38.6874"/>
<polygon fill="#191970" stroke="#191970" points="1071.756,-70.1342 1075.2559,-80.1342 1078.756,-70.1343 1071.756,-70.1342"/>
</g>
<!-- Node21 -->
<g id="node18" class="node">
<title>Node21</title>
<g id="a_node18"><a xlink:href="ResamplingWithPrior_8cpp.html" target="_top" xlink:title="/Users/Claudio/GitHub\l/bayes&#45;filters&#45;lib/src\l/BayesFilters/src/ResamplingWith\lPrior.cpp">
<polygon fill="#ffffff" stroke="#000000" points="2035.5146,-75.5 2035.5146,-123.5 2200.9971,-123.5 2200.9971,-75.5 2035.5146,-75.5"/>
<text text-anchor="start" x="2043.5146" y="-111.5" font-family="Helvetica,sans-Serif" font-size="10.00" fill="#000000">/Users/Claudio/GitHub</text>
<text text-anchor="start" x="2043.5146" y="-101.5" font-family="Helvetica,sans-Serif" font-size="10.00" fill="#000000">/bayes&#45;filters&#45;lib/src</text>
<text text-anchor="start" x="2043.5146" y="-91.5" font-family="Helvetica,sans-Serif" font-size="10.00" fill="#000000">/BayesFilters/src/ResamplingWith</text>
<text text-anchor="middle" x="2118.2559" y="-81.5" font-family="Helvetica,sans-Serif" font-size="10.00" fill="#000000">Prior.cpp</text>
</a>
</g>
</g>
<!-- Node20&#45;&gt;Node21 -->
<g id="edge18" class="edge">
<title>Node20&#45;&gt;Node21</title>
<path fill="none" stroke="#191970" d="M2118.2559,-150.2518C2118.2559,-141.3524 2118.2559,-131.951 2118.2559,-123.6906"/>
<polygon fill="#191970" stroke="#191970" points="2114.756,-150.3697 2118.2559,-160.3698 2121.756,-150.3698 2114.756,-150.3697"/>
</g>
<!-- Node22&#45;&gt;Node5 -->
<g id="edge20" class="edge">
<title>Node22&#45;&gt;Node5</title>
<path fill="none" stroke="#191970" d="M583.0818,-260.8937C489.3604,-251.3956 340.9733,-234.0592 214.2559,-209 211.3372,-208.4228 208.3741,-207.8057 205.3873,-207.157"/>
<polygon fill="#191970" stroke="#191970" points="582.8054,-264.3834 593.1052,-261.9007 583.5052,-257.4185 582.8054,-264.3834"/>
</g>
<!-- Node22&#45;&gt;Node9 -->
<g id="edge21" class="edge">
<title>Node22&#45;&gt;Node9</title>
<path fill="none" stroke="#191970" d="M583.0861,-250.3412C528.9866,-238.9378 459.6103,-223.8373 398.2559,-209 395.364,-208.3007 392.424,-207.5786 389.4569,-206.8403"/>
<polygon fill="#191970" stroke="#191970" points="582.4983,-253.794 593.0045,-252.4265 583.9386,-246.9438 582.4983,-253.794"/>
</g>
<!-- Node22&#45;&gt;Node16 -->
<g id="edge22" class="edge">
<title>Node22&#45;&gt;Node16</title>
<path fill="none" stroke="#191970" d="M769.6374,-264.2078C943.8523,-253.9825 1312.1741,-230.61 1438.2559,-209 1441.1883,-208.4974 1444.1632,-207.9443 1447.1601,-207.3504"/>
<polygon fill="#191970" stroke="#191970" points="769.2392,-260.725 759.4606,-264.8031 769.648,-267.713 769.2392,-260.725"/>
</g>
<!-- Node22&#45;&gt;Node17 -->
<g id="edge25" class="edge">
<title>Node22&#45;&gt;Node17</title>
<path fill="none" stroke="#191970" d="M729.2144,-239.8482C743.2582,-230.83 757.9298,-220.2892 770.2559,-209 790.5791,-190.3863 784.9785,-174.7537 808.2559,-160 870.5529,-120.5148 898.3414,-140.38 970.2559,-124 978.0127,-122.2332 986.0879,-120.3778 994.1621,-118.5119"/>
<polygon fill="#191970" stroke="#191970" points="727.1935,-236.9841 720.5778,-245.2596 730.9102,-242.9159 727.1935,-236.9841"/>
</g>
<!-- Node22&#45;&gt;Node23 -->
<g id="edge23" class="edge">
<title>Node22&#45;&gt;Node23</title>
<path fill="none" stroke="#191970" d="M614.0865,-241.0893C590.9886,-230.5338 565.0298,-218.6709 542.8683,-208.5433"/>
<polygon fill="#191970" stroke="#191970" points="612.9032,-244.3966 623.4532,-245.3698 615.8127,-238.0299 612.9032,-244.3966"/>
</g>
<!-- Node25 -->
<g id="node22" class="node">
<title>Node25</title>
<g id="a_node22"><a xlink:href="PFCorrection_8cpp.html" target="_top" xlink:title="/Users/Claudio/GitHub\l/bayes&#45;filters&#45;lib/src\l/BayesFilters/src/PFCorrection.cpp">
<polygon fill="#ffffff" stroke="#000000" points="591.0122,-165.5 591.0122,-203.5 761.4995,-203.5 761.4995,-165.5 591.0122,-165.5"/>
<text text-anchor="start" x="599.0122" y="-191.5" font-family="Helvetica,sans-Serif" font-size="10.00" fill="#000000">/Users/Claudio/GitHub</text>
<text text-anchor="start" x="599.0122" y="-181.5" font-family="Helvetica,sans-Serif" font-size="10.00" fill="#000000">/bayes&#45;filters&#45;lib/src</text>
<text text-anchor="middle" x="676.2559" y="-171.5" font-family="Helvetica,sans-Serif" font-size="10.00" fill="#000000">/BayesFilters/src/PFCorrection.cpp</text>
</a>
</g>
</g>
<!-- Node22&#45;&gt;Node25 -->
<g id="edge26" class="edge">
<title>Node22&#45;&gt;Node25</title>
<path fill="none" stroke="#191970" d="M676.2559,-235.3187C676.2559,-224.4952 676.2559,-212.9227 676.2559,-203.5591"/>
<polygon fill="#191970" stroke="#191970" points="672.756,-235.3697 676.2559,-245.3698 679.756,-235.3698 672.756,-235.3697"/>
</g>
<!-- Node24 -->
<g id="node21" class="node">
<title>Node24</title>
<g id="a_node21"><a xlink:href="PFCorrectionDecorator_8cpp.html" target="_top" xlink:title="/Users/Claudio/GitHub\l/bayes&#45;filters&#45;lib/src\l/BayesFilters/src/PFCorrection\lDecorator.cpp">
<polygon fill="#ffffff" stroke="#000000" points="414.4629,-75.5 414.4629,-123.5 566.0488,-123.5 566.0488,-75.5 414.4629,-75.5"/>
<text text-anchor="start" x="422.4629" y="-111.5" font-family="Helvetica,sans-Serif" font-size="10.00" fill="#000000">/Users/Claudio/GitHub</text>
<text text-anchor="start" x="422.4629" y="-101.5" font-family="Helvetica,sans-Serif" font-size="10.00" fill="#000000">/bayes&#45;filters&#45;lib/src</text>
<text text-anchor="start" x="422.4629" y="-91.5" font-family="Helvetica,sans-Serif" font-size="10.00" fill="#000000">/BayesFilters/src/PFCorrection</text>
<text text-anchor="middle" x="490.2559" y="-81.5" font-family="Helvetica,sans-Serif" font-size="10.00" fill="#000000">Decorator.cpp</text>
</a>
</g>
</g>
<!-- Node23&#45;&gt;Node24 -->
<g id="edge24" class="edge">
<title>Node23&#45;&gt;Node24</title>
<path fill="none" stroke="#191970" d="M490.2559,-150.2518C490.2559,-141.3524 490.2559,-131.951 490.2559,-123.6906"/>
<polygon fill="#191970" stroke="#191970" points="486.756,-150.3697 490.2559,-160.3698 493.756,-150.3698 486.756,-150.3697"/>
</g>
<!-- Node26&#45;&gt;Node7 -->
<g id="edge29" class="edge">
<title>Node26&#45;&gt;Node7</title>
<path fill="none" stroke="#191970" d="M1142.2089,-245.8911C1092.4008,-233.2532 1031.5654,-217.8174 983.3569,-205.5853"/>
<polygon fill="#191970" stroke="#191970" points="1141.4628,-249.3126 1152.0164,-248.3796 1143.1844,-242.5276 1141.4628,-249.3126"/>
</g>
<!-- Node26&#45;&gt;Node11 -->
<g id="edge30" class="edge">
<title>Node26&#45;&gt;Node11</title>
<path fill="none" stroke="#191970" d="M1274.7277,-239.2738C1287.8305,-229.2401 1302.2371,-218.208 1314.6658,-208.6906"/>
<polygon fill="#191970" stroke="#191970" points="1272.5787,-236.5111 1266.7671,-245.3698 1276.8346,-242.0688 1272.5787,-236.5111"/>
</g>
<!-- Node26&#45;&gt;Node16 -->
<g id="edge31" class="edge">
<title>Node26&#45;&gt;Node16</title>
<path fill="none" stroke="#191970" d="M1328.6542,-242.5886C1366.6575,-231.6385 1410.223,-219.0857 1447.1095,-208.4574"/>
<polygon fill="#191970" stroke="#191970" points="1327.2481,-239.3513 1318.6081,-245.4832 1329.1863,-246.0776 1327.2481,-239.3513"/>
</g>
<!-- Node26&#45;&gt;Node17 -->
<g id="edge34" class="edge">
<title>Node26&#45;&gt;Node17</title>
<path fill="none" stroke="#191970" d="M1142.2139,-245.9765C1109.2122,-235.605 1077.8446,-222.6723 1068.2559,-209 1049.5521,-182.3308 1058.9587,-142.433 1067.2672,-118.8786"/>
<polygon fill="#191970" stroke="#191970" points="1141.4291,-249.3964 1152.0154,-248.9713 1143.4746,-242.7019 1141.4291,-249.3964"/>
</g>
<!-- Node26&#45;&gt;Node27 -->
<g id="edge32" class="edge">
<title>Node26&#45;&gt;Node27</title>
<path fill="none" stroke="#191970" d="M1328.7532,-257.6909C1407.4473,-247.0816 1522.7509,-229.9665 1622.2559,-209 1625.1671,-208.3866 1628.1238,-207.7383 1631.1052,-207.0631"/>
<polygon fill="#191970" stroke="#191970" points="1327.8265,-254.2837 1318.3797,-259.0803 1328.7559,-261.2217 1327.8265,-254.2837"/>
</g>
<!-- Node29 -->
<g id="node26" class="node">
<title>Node29</title>
<g id="a_node26"><a xlink:href="PFPrediction_8cpp.html" target="_top" xlink:title="/Users/Claudio/GitHub\l/bayes&#45;filters&#45;lib/src\l/BayesFilters/src/PFPrediction.cpp">
<polygon fill="#ffffff" stroke="#000000" points="1076.8423,-165.5 1076.8423,-203.5 1245.6694,-203.5 1245.6694,-165.5 1076.8423,-165.5"/>
<text text-anchor="start" x="1084.8423" y="-191.5" font-family="Helvetica,sans-Serif" font-size="10.00" fill="#000000">/Users/Claudio/GitHub</text>
<text text-anchor="start" x="1084.8423" y="-181.5" font-family="Helvetica,sans-Serif" font-size="10.00" fill="#000000">/bayes&#45;filters&#45;lib/src</text>
<text text-anchor="middle" x="1161.2559" y="-171.5" font-family="Helvetica,sans-Serif" font-size="10.00" fill="#000000">/BayesFilters/src/PFPrediction.cpp</text>
</a>
</g>
</g>
<!-- Node26&#45;&gt;Node29 -->
<g id="edge35" class="edge">
<title>Node26&#45;&gt;Node29</title>
<path fill="none" stroke="#191970" d="M1207.5269,-237.6491C1197.5394,-226.177 1186.5886,-213.5984 1177.8485,-203.5591"/>
<polygon fill="#191970" stroke="#191970" points="1205.0424,-240.1257 1214.2484,-245.3698 1210.3219,-235.5293 1205.0424,-240.1257"/>
</g>
<!-- Node28 -->
<g id="node25" class="node">
<title>Node28</title>
<g id="a_node25"><a xlink:href="PFPredictionDecorator_8cpp.html" target="_top" xlink:title="/Users/Claudio/GitHub\l/bayes&#45;filters&#45;lib/src\l/BayesFilters/src/PFPrediction\lDecorator.cpp">
<polygon fill="#ffffff" stroke="#000000" points="1639.293,-75.5 1639.293,-123.5 1789.2188,-123.5 1789.2188,-75.5 1639.293,-75.5"/>
<text text-anchor="start" x="1647.293" y="-111.5" font-family="Helvetica,sans-Serif" font-size="10.00" fill="#000000">/Users/Claudio/GitHub</text>
<text text-anchor="start" x="1647.293" y="-101.5" font-family="Helvetica,sans-Serif" font-size="10.00" fill="#000000">/bayes&#45;filters&#45;lib/src</text>
<text text-anchor="start" x="1647.293" y="-91.5" font-family="Helvetica,sans-Serif" font-size="10.00" fill="#000000">/BayesFilters/src/PFPrediction</text>
<text text-anchor="middle" x="1714.2559" y="-81.5" font-family="Helvetica,sans-Serif" font-size="10.00" fill="#000000">Decorator.cpp</text>
</a>
</g>
</g>
<!-- Node27&#45;&gt;Node28 -->
<g id="edge33" class="edge">
<title>Node27&#45;&gt;Node28</title>
<path fill="none" stroke="#191970" d="M1714.2559,-150.2518C1714.2559,-141.3524 1714.2559,-131.951 1714.2559,-123.6906"/>
<polygon fill="#191970" stroke="#191970" points="1710.756,-150.3697 1714.2559,-160.3698 1717.756,-150.3698 1710.756,-150.3697"/>
</g>
<!-- Node30&#45;&gt;Node16 -->
<g id="edge38" class="edge">
<title>Node30&#45;&gt;Node16</title>
<path fill="none" stroke="#191970" d="M1626.4118,-240.1004C1608.5936,-229.7973 1588.8065,-218.3558 1571.8367,-208.5433"/>
<polygon fill="#191970" stroke="#191970" points="1625.1158,-243.3939 1635.5248,-245.3698 1628.6198,-237.3341 1625.1158,-243.3939"/>
</g>
<!-- Node30&#45;&gt;Node17 -->
<g id="edge40" class="edge">
<title>Node30&#45;&gt;Node17</title>
<path fill="none" stroke="#191970" d="M1769.518,-242.3188C1784.1016,-233.9565 1797.301,-223.0905 1806.2559,-209 1817.9368,-190.6199 1821.1529,-175.8855 1806.2559,-160 1763.6049,-114.5192 1308.2745,-130.4264 1246.2559,-124 1222.242,-121.5117 1196.4219,-118.1657 1172.3062,-114.7475"/>
<polygon fill="#191970" stroke="#191970" points="1767.4838,-239.4355 1760.2844,-247.2084 1770.7597,-245.6216 1767.4838,-239.4355"/>
</g>
<!-- Node30&#45;&gt;Node20 -->
<g id="edge39" class="edge">
<title>Node30&#45;&gt;Node20</title>
<path fill="none" stroke="#191970" d="M1770.4223,-245.7692C1771.7074,-245.507 1772.9858,-245.2504 1774.2559,-245 1885.2564,-223.1167 1915.3983,-231.5967 2026.2559,-209 2029.1711,-208.4058 2032.1312,-207.774 2035.1155,-207.1128"/>
<polygon fill="#191970" stroke="#191970" points="1769.5217,-242.3822 1760.4648,-247.8798 1770.9732,-249.2301 1769.5217,-242.3822"/>
</g>
<!-- Node31 -->
<g id="node28" class="node">
<title>Node31</title>
<g id="a_node28"><a xlink:href="Resampling_8cpp.html" target="_top" xlink:title="/Users/Claudio/GitHub\l/bayes&#45;filters&#45;lib/src\l/BayesFilters/src/Resampling.cpp">
<polygon fill="#ffffff" stroke="#000000" points="1853.064,-165.5 1853.064,-203.5 2017.4478,-203.5 2017.4478,-165.5 1853.064,-165.5"/>
<text text-anchor="start" x="1861.064" y="-191.5" font-family="Helvetica,sans-Serif" font-size="10.00" fill="#000000">/Users/Claudio/GitHub</text>
<text text-anchor="start" x="1861.064" y="-181.5" font-family="Helvetica,sans-Serif" font-size="10.00" fill="#000000">/bayes&#45;filters&#45;lib/src</text>
<text text-anchor="middle" x="1935.2559" y="-171.5" font-family="Helvetica,sans-Serif" font-size="10.00" fill="#000000">/BayesFilters/src/Resampling.cpp</text>
</a>
</g>
</g>
<!-- Node30&#45;&gt;Node31 -->
<g id="edge41" class="edge">
<title>Node30&#45;&gt;Node31</title>
<path fill="none" stroke="#191970" d="M1759.7391,-242.3253C1798.0146,-229.7151 1842.5986,-215.0266 1877.2539,-203.6092"/>
<polygon fill="#191970" stroke="#191970" points="1758.5564,-239.0298 1750.1538,-245.4832 1760.7468,-245.6783 1758.5564,-239.0298"/>
</g>
</g>
</svg>
