<?xml version="1.0" encoding="UTF-8" standalone="no"?>
<!DOCTYPE svg PUBLIC "-//W3C//DTD SVG 1.1//EN"
 "http://www.w3.org/Graphics/SVG/1.1/DTD/svg11.dtd">
<!-- Generated by graphviz version 2.40.1 (20161225.0304)
 -->
<!-- Title: /Users/Claudio/GitHub/bayes&#45;filters&#45;lib/src/BayesFilters/include/BayesFilters/PFCorrectionDecorator.h Pages: 1 -->
<!--zoomable 397 -->
<svg id="main" version="1.1" xmlns="http://www.w3.org/2000/svg" xmlns:xlink="http://www.w3.org/1999/xlink" xml:space="preserve" onload="init(evt)">
<style type="text/css"><![CDATA[
.edge:hover path { stroke: red; }
.edge:hover polygon { stroke: red; fill: red; }
]]></style>
<script type="text/javascript"><![CDATA[
var edges = document.getElementsByTagName('g');
if (edges && edges.length) {
  for (var i=0;i<edges.length;i++) {
    if (edges[i].id.substr(0,4)=='edge') {
      edges[i].setAttribute('class','edge');
    }
  }
}
]]></script>
        <defs>
                <circle id="rim" cx="0" cy="0" r="7"/>
                <circle id="rim2" cx="0" cy="0" r="3.5"/>
                <g id="zoomPlus">
                        <use xlink:href="#rim" fill="#404040">
                                <set attributeName="fill" to="#808080" begin="zoomplus.mouseover" end="zoomplus.mouseout"/>
                        </use>
                        <path d="M-4,0h8M0,-4v8" fill="none" stroke="white" stroke-width="1.5" pointer-events="none"/>
                </g>
                <g id="zoomMin">
                        <use xlink:href="#rim" fill="#404040">
                                <set attributeName="fill" to="#808080" begin="zoomminus.mouseover" end="zoomminus.mouseout"/>
                        </use>
                        <path d="M-4,0h8" fill="none" stroke="white" stroke-width="1.5" pointer-events="none"/>
                </g>
                <g id="dirArrow">
                        <path fill="none" stroke="white" stroke-width="1.5" d="M0,-3.0v7 M-2.5,-0.5L0,-3.0L2.5,-0.5"/>
                </g>
               <g id="resetDef">
                       <use xlink:href="#rim2" fill="#404040">
                               <set attributeName="fill" to="#808080" begin="reset.mouseover" end="reset.mouseout"/>
                       </use>
               </g>
        </defs>

<script type="text/javascript">
var viewWidth = 640;
var viewHeight = 397;
var sectionId = 'dynsection-0';
</script>
<script xlink:href="svgpan.js"/>
<svg id="graph" class="graph">
<g id="viewport">
<title>/Users/Claudio/GitHub/bayes&#45;filters&#45;lib/src/BayesFilters/include/BayesFilters/PFCorrectionDecorator.h</title>
<polygon fill="#ffffff" stroke="transparent" points="-4,4 -4,-393 636.2887,-393 636.2887,4 -4,4"/>
<!-- Node0 -->
<g id="node1" class="node">
<title>Node0</title>
<polygon fill="#bfbfbf" stroke="#000000" points="209.2618,-340.5 209.2618,-388.5 375.3155,-388.5 375.3155,-340.5 209.2618,-340.5"/>
<text text-anchor="start" x="217.2618" y="-376.5" font-family="Helvetica,sans-Serif" font-size="10.00" fill="#000000">/Users/Claudio/GitHub</text>
<text text-anchor="start" x="217.2618" y="-366.5" font-family="Helvetica,sans-Serif" font-size="10.00" fill="#000000">/bayes&#45;filters&#45;lib/src</text>
<text text-anchor="start" x="217.2618" y="-356.5" font-family="Helvetica,sans-Serif" font-size="10.00" fill="#000000">/BayesFilters/include/BayesFilters</text>
<text text-anchor="middle" x="292.2887" y="-346.5" font-family="Helvetica,sans-Serif" font-size="10.00" fill="#000000">/PFCorrectionDecorator.h</text>
</g>
<!-- Node1 -->
<g id="node2" class="node">
<title>Node1</title>
<g id="a_node2"><a xlink:href="ParticleSet_8h.html" target="_top" xlink:title="BayesFilters/ParticleSet.h">
<polygon fill="#ffffff" stroke="#000000" points="37.045,-230.5 37.045,-248.5 167.5323,-248.5 167.5323,-230.5 37.045,-230.5"/>
<text text-anchor="middle" x="102.2887" y="-236.5" font-family="Helvetica,sans-Serif" font-size="10.00" fill="#000000">BayesFilters/ParticleSet.h</text>
</a>
</g>
</g>
<!-- Node0&#45;&gt;Node1 -->
<g id="edge1" class="edge">
<title>Node0&#45;&gt;Node1</title>
<path fill="none" stroke="#191970" d="M255.6548,-340.3987C216.9848,-314.958 157.2493,-275.6583 124.9262,-254.3931"/>
<polygon fill="#191970" stroke="#191970" points="126.4799,-251.2258 116.2021,-248.6536 122.6326,-257.0737 126.4799,-251.2258"/>
</g>
<!-- Node5 -->
<g id="node6" class="node">
<title>Node5</title>
<g id="a_node6"><a xlink:href="PFCorrection_8h.html" target="_top" xlink:title="BayesFilters/PFCorrection.h">
<polygon fill="#ffffff" stroke="#000000" points="221.7692,-285.5 221.7692,-303.5 362.8082,-303.5 362.8082,-285.5 221.7692,-285.5"/>
<text text-anchor="middle" x="292.2887" y="-291.5" font-family="Helvetica,sans-Serif" font-size="10.00" fill="#000000">BayesFilters/PFCorrection.h</text>
</a>
</g>
</g>
<!-- Node0&#45;&gt;Node5 -->
<g id="edge6" class="edge">
<title>Node0&#45;&gt;Node5</title>
<path fill="none" stroke="#191970" d="M292.2887,-340.41C292.2887,-331.7094 292.2887,-322.0095 292.2887,-313.7754"/>
<polygon fill="#191970" stroke="#191970" points="295.7888,-313.6872 292.2887,-303.6872 288.7888,-313.6873 295.7888,-313.6872"/>
</g>
<!-- Node11 -->
<g id="node12" class="node">
<title>Node11</title>
<polygon fill="#ffffff" stroke="#bfbfbf" points="549.232,-.5 549.232,-18.5 601.3453,-18.5 601.3453,-.5 549.232,-.5"/>
<text text-anchor="middle" x="575.2887" y="-6.5" font-family="Helvetica,sans-Serif" font-size="10.00" fill="#000000">memory</text>
</g>
<!-- Node0&#45;&gt;Node11 -->
<g id="edge31" class="edge">
<title>Node0&#45;&gt;Node11</title>
<path fill="none" stroke="#191970" d="M375.462,-350.9198C476.1186,-332.0796 632.2887,-294.0576 632.2887,-239.5 632.2887,-239.5 632.2887,-239.5 632.2887,-119.5 632.2887,-83.1769 607.4845,-46.9084 590.6011,-26.4288"/>
<polygon fill="#191970" stroke="#191970" points="593.1112,-23.9791 583.9458,-18.6644 587.7964,-28.5348 593.1112,-23.9791"/>
</g>
<!-- Node2 -->
<g id="node3" class="node">
<title>Node2</title>
<g id="a_node3"><a xlink:href="GaussianMixture_8h.html" target="_top" xlink:title="BayesFilters/GaussianMixture.h">
<polygon fill="#ffffff" stroke="#000000" points="16.7076,-170.5 16.7076,-188.5 173.8697,-188.5 173.8697,-170.5 16.7076,-170.5"/>
<text text-anchor="middle" x="95.2887" y="-176.5" font-family="Helvetica,sans-Serif" font-size="10.00" fill="#000000">BayesFilters/GaussianMixture.h</text>
</a>
</g>
</g>
<!-- Node1&#45;&gt;Node2 -->
<g id="edge2" class="edge">
<title>Node1&#45;&gt;Node2</title>
<path fill="none" stroke="#191970" d="M101.2255,-230.3873C100.2491,-222.0174 98.7702,-209.3414 97.5328,-198.735"/>
<polygon fill="#191970" stroke="#191970" points="100.9972,-198.2255 96.3618,-188.6985 94.0443,-199.0367 100.9972,-198.2255"/>
</g>
<!-- Node3 -->
<g id="node4" class="node">
<title>Node3</title>
<polygon fill="#ffffff" stroke="#bfbfbf" points="58.673,-55.5 58.673,-73.5 101.9044,-73.5 101.9044,-55.5 58.673,-55.5"/>
<text text-anchor="middle" x="80.2887" y="-61.5" font-family="Helvetica,sans-Serif" font-size="10.00" fill="#000000">vector</text>
</g>
<!-- Node1&#45;&gt;Node3 -->
<g id="edge5" class="edge">
<title>Node1&#45;&gt;Node3</title>
<path fill="none" stroke="#191970" d="M60.2433,-230.3416C40.5887,-223.7266 18.9837,-212.5685 7.2887,-194 -17.8738,-154.0489 30.2059,-105.0648 59.6978,-80.3599"/>
<polygon fill="#191970" stroke="#191970" points="62.2399,-82.8045 67.7997,-73.7856 57.8291,-77.3688 62.2399,-82.8045"/>
</g>
<!-- Node2&#45;&gt;Node3 -->
<g id="edge3" class="edge">
<title>Node2&#45;&gt;Node3</title>
<path fill="none" stroke="#191970" d="M94.1117,-170.4761C91.692,-151.9256 86.1116,-109.142 82.8289,-83.9748"/>
<polygon fill="#191970" stroke="#191970" points="86.266,-83.2647 81.5019,-73.8014 79.3248,-84.1701 86.266,-83.2647"/>
</g>
<!-- Node4 -->
<g id="node5" class="node">
<title>Node4</title>
<polygon fill="#ffffff" stroke="#bfbfbf" points="108.6583,-110.5 108.6583,-128.5 181.9191,-128.5 181.9191,-110.5 108.6583,-110.5"/>
<text text-anchor="middle" x="145.2887" y="-116.5" font-family="Helvetica,sans-Serif" font-size="10.00" fill="#000000">Eigen/Dense</text>
</g>
<!-- Node2&#45;&gt;Node4 -->
<g id="edge4" class="edge">
<title>Node2&#45;&gt;Node4</title>
<path fill="none" stroke="#191970" d="M102.8826,-170.3873C110.3714,-161.4007 121.9971,-147.4499 131.1831,-136.4267"/>
<polygon fill="#191970" stroke="#191970" points="133.9102,-138.6214 137.6233,-128.6985 128.5326,-134.14 133.9102,-138.6214"/>
</g>
<!-- Node5&#45;&gt;Node1 -->
<g id="edge27" class="edge">
<title>Node5&#45;&gt;Node1</title>
<path fill="none" stroke="#191970" d="M260.9141,-285.4179C228.777,-276.115 178.6619,-261.608 143.3779,-251.3943"/>
<polygon fill="#191970" stroke="#191970" points="143.973,-247.9229 133.3941,-248.5042 142.0266,-254.6468 143.973,-247.9229"/>
</g>
<!-- Node5&#45;&gt;Node4 -->
<g id="edge30" class="edge">
<title>Node5&#45;&gt;Node4</title>
<path fill="none" stroke="#191970" d="M282.6164,-285.4265C273.2463,-276.4759 258.8037,-262.2494 247.2887,-249 216.5007,-213.5746 212.5611,-201.6877 183.2887,-165 175.6823,-155.4668 166.9756,-145.0101 159.817,-136.5275"/>
<polygon fill="#191970" stroke="#191970" points="162.4098,-134.1733 153.2726,-128.8102 157.071,-138.7008 162.4098,-134.1733"/>
</g>
<!-- Node6 -->
<g id="node7" class="node">
<title>Node6</title>
<g id="a_node7"><a xlink:href="LikelihoodModel_8h.html" target="_top" xlink:title="BayesFilters/LikelihoodModel.h">
<polygon fill="#ffffff" stroke="#000000" points="268.087,-230.5 268.087,-248.5 422.4903,-248.5 422.4903,-230.5 268.087,-230.5"/>
<text text-anchor="middle" x="345.2887" y="-236.5" font-family="Helvetica,sans-Serif" font-size="10.00" fill="#000000">BayesFilters/LikelihoodModel.h</text>
</a>
</g>
</g>
<!-- Node5&#45;&gt;Node6 -->
<g id="edge7" class="edge">
<title>Node5&#45;&gt;Node6</title>
<path fill="none" stroke="#191970" d="M301.0406,-285.4179C308.6665,-277.5041 319.9216,-265.8243 329.1718,-256.2251"/>
<polygon fill="#191970" stroke="#191970" points="331.928,-258.4089 336.3467,-248.7795 326.8874,-253.5516 331.928,-258.4089"/>
</g>
<!-- Node7 -->
<g id="node8" class="node">
<title>Node7</title>
<g id="a_node8"><a xlink:href="MeasurementModel_8h.html" target="_top" xlink:title="BayesFilters/Measurement\lModel.h">
<polygon fill="#ffffff" stroke="#000000" points="366.8234,-165.5 366.8234,-193.5 501.754,-193.5 501.754,-165.5 366.8234,-165.5"/>
<text text-anchor="start" x="374.8234" y="-181.5" font-family="Helvetica,sans-Serif" font-size="10.00" fill="#000000">BayesFilters/Measurement</text>
<text text-anchor="middle" x="434.2887" y="-171.5" font-family="Helvetica,sans-Serif" font-size="10.00" fill="#000000">Model.h</text>
</a>
</g>
</g>
<!-- Node5&#45;&gt;Node7 -->
<g id="edge26" class="edge">
<title>Node5&#45;&gt;Node7</title>
<path fill="none" stroke="#191970" d="M337.7699,-285.4439C373.7324,-277.2743 419.7435,-264.225 431.2887,-249 440.8836,-236.3469 441.4138,-218.3575 439.6596,-203.8512"/>
<polygon fill="#191970" stroke="#191970" points="443.0491,-202.8895 437.9853,-193.5832 436.1404,-204.0162 443.0491,-202.8895"/>
</g>
<!-- Node5&#45;&gt;Node11 -->
<g id="edge28" class="edge">
<title>Node5&#45;&gt;Node11</title>
<path fill="none" stroke="#191970" d="M345.9322,-285.4377C432.715,-269.239 594.2887,-232.0267 594.2887,-179.5 594.2887,-179.5 594.2887,-179.5 594.2887,-119.5 594.2887,-87.1536 586.2123,-50.2272 580.5907,-28.4426"/>
<polygon fill="#191970" stroke="#191970" points="583.9041,-27.2856 577.9306,-18.5353 577.1436,-29.1009 583.9041,-27.2856"/>
</g>
<!-- Node19 -->
<g id="node20" class="node">
<title>Node19</title>
<polygon fill="#ffffff" stroke="#bfbfbf" points="199.8971,-110.5 199.8971,-128.5 238.6803,-128.5 238.6803,-110.5 199.8971,-110.5"/>
<text text-anchor="middle" x="219.2887" y="-116.5" font-family="Helvetica,sans-Serif" font-size="10.00" fill="#000000">utility</text>
</g>
<!-- Node5&#45;&gt;Node19 -->
<g id="edge29" class="edge">
<title>Node5&#45;&gt;Node19</title>
<path fill="none" stroke="#191970" d="M284.2321,-285.3289C276.8603,-276.5337 266.095,-262.6164 259.2887,-249 240.776,-211.9643 228.8148,-164.6596 223.145,-138.7"/>
<polygon fill="#191970" stroke="#191970" points="226.5213,-137.747 221.0404,-128.6801 219.6707,-139.186 226.5213,-137.747"/>
</g>
<!-- Node6&#45;&gt;Node7 -->
<g id="edge8" class="edge">
<title>Node6&#45;&gt;Node7</title>
<path fill="none" stroke="#191970" d="M358.8059,-230.3873C371.0327,-222.1445 389.4547,-209.7252 405.0384,-199.2193"/>
<polygon fill="#191970" stroke="#191970" points="407.0113,-202.1104 413.3466,-193.6183 403.0983,-196.3061 407.0113,-202.1104"/>
</g>
<!-- Node20 -->
<g id="node21" class="node">
<title>Node20</title>
<polygon fill="#ffffff" stroke="#bfbfbf" points="283.274,-170.5 283.274,-188.5 349.3033,-188.5 349.3033,-170.5 283.274,-170.5"/>
<text text-anchor="middle" x="316.2887" y="-176.5" font-family="Helvetica,sans-Serif" font-size="10.00" fill="#000000">Eigen/Core</text>
</g>
<!-- Node6&#45;&gt;Node20 -->
<g id="edge25" class="edge">
<title>Node6&#45;&gt;Node20</title>
<path fill="none" stroke="#191970" d="M340.8842,-230.3873C336.711,-221.7531 330.323,-208.5365 325.103,-197.7366"/>
<polygon fill="#191970" stroke="#191970" points="328.2376,-196.1789 320.7346,-188.6985 321.9351,-199.2251 328.2376,-196.1789"/>
</g>
<!-- Node7&#45;&gt;Node4 -->
<g id="edge24" class="edge">
<title>Node7&#45;&gt;Node4</title>
<path fill="none" stroke="#191970" d="M366.531,-165.4327C312.9075,-154.2997 239.4206,-139.043 192.142,-129.2273"/>
<polygon fill="#191970" stroke="#191970" points="192.679,-125.7642 182.1762,-127.1583 191.256,-132.6181 192.679,-125.7642"/>
</g>
<!-- Node8 -->
<g id="node9" class="node">
<title>Node8</title>
<g id="a_node9"><a xlink:href="Data_8h.html" target="_top" xlink:title="BayesFilters/Data.h">
<polygon fill="#ffffff" stroke="#000000" points="256.6608,-110.5 256.6608,-128.5 359.9166,-128.5 359.9166,-110.5 256.6608,-110.5"/>
<text text-anchor="middle" x="308.2887" y="-116.5" font-family="Helvetica,sans-Serif" font-size="10.00" fill="#000000">BayesFilters/Data.h</text>
</a>
</g>
</g>
<!-- Node7&#45;&gt;Node8 -->
<g id="edge9" class="edge">
<title>Node7&#45;&gt;Node8</title>
<path fill="none" stroke="#191970" d="M404.7473,-165.4327C384.1511,-155.625 356.8338,-142.6167 336.5289,-132.9477"/>
<polygon fill="#191970" stroke="#191970" points="337.9973,-129.7704 327.4639,-128.6311 334.9877,-136.0905 337.9973,-129.7704"/>
</g>
<!-- Node7&#45;&gt;Node11 -->
<g id="edge21" class="edge">
<title>Node7&#45;&gt;Node11</title>
<path fill="none" stroke="#191970" d="M466.0758,-165.2924C482.6542,-156.6552 502.3292,-144.3279 516.2887,-129 543.7019,-98.8995 561.3047,-53.7206 569.6321,-28.4124"/>
<polygon fill="#191970" stroke="#191970" points="573.0581,-29.1851 572.7214,-18.5956 566.3809,-27.0838 573.0581,-29.1851"/>
</g>
<!-- Node15 -->
<g id="node16" class="node">
<title>Node15</title>
<g id="a_node16"><a xlink:href="Logger_8h.html" target="_top" xlink:title="BayesFilters/Logger.h">
<polygon fill="#ffffff" stroke="#000000" points="377.9269,-110.5 377.9269,-128.5 490.6505,-128.5 490.6505,-110.5 377.9269,-110.5"/>
<text text-anchor="middle" x="434.2887" y="-116.5" font-family="Helvetica,sans-Serif" font-size="10.00" fill="#000000">BayesFilters/Logger.h</text>
</a>
</g>
</g>
<!-- Node7&#45;&gt;Node15 -->
<g id="edge16" class="edge">
<title>Node7&#45;&gt;Node15</title>
<path fill="none" stroke="#191970" d="M434.2887,-165.2808C434.2887,-157.3776 434.2887,-147.4316 434.2887,-138.8308"/>
<polygon fill="#191970" stroke="#191970" points="437.7888,-138.5842 434.2887,-128.5842 430.7888,-138.5842 437.7888,-138.5842"/>
</g>
<!-- Node18 -->
<g id="node19" class="node">
<title>Node18</title>
<polygon fill="#ffffff" stroke="#bfbfbf" points="488.0621,-55.5 488.0621,-73.5 528.5152,-73.5 528.5152,-55.5 488.0621,-55.5"/>
<text text-anchor="middle" x="508.2887" y="-61.5" font-family="Helvetica,sans-Serif" font-size="10.00" fill="#000000">string</text>
</g>
<!-- Node7&#45;&gt;Node18 -->
<g id="edge22" class="edge">
<title>Node7&#45;&gt;Node18</title>
<path fill="none" stroke="#191970" d="M461.2343,-165.3007C474.8879,-156.6658 490.4155,-144.3382 499.2887,-129 507.2504,-115.2374 509.1808,-97.1321 509.3037,-83.6079"/>
<polygon fill="#191970" stroke="#191970" points="512.8009,-83.4389 509.0746,-73.521 505.8027,-83.598 512.8009,-83.4389"/>
</g>
<!-- Node7&#45;&gt;Node19 -->
<g id="edge23" class="edge">
<title>Node7&#45;&gt;Node19</title>
<path fill="none" stroke="#191970" d="M378.7949,-165.4978C343.7856,-156.4385 297.4334,-144.0335 248.6139,-129.2836"/>
<polygon fill="#191970" stroke="#191970" points="249.4056,-125.866 238.8198,-126.3026 247.3673,-132.5627 249.4056,-125.866"/>
</g>
<!-- Node9 -->
<g id="node10" class="node">
<title>Node9</title>
<g id="a_node10"><a xlink:href="any_8h.html" target="_top" xlink:title="BayesFilters/any.h">
<polygon fill="#ffffff" stroke="#000000" points="233.5294,-55.5 233.5294,-73.5 331.048,-73.5 331.048,-55.5 233.5294,-55.5"/>
<text text-anchor="middle" x="282.2887" y="-61.5" font-family="Helvetica,sans-Serif" font-size="10.00" fill="#000000">BayesFilters/any.h</text>
</a>
</g>
</g>
<!-- Node8&#45;&gt;Node9 -->
<g id="edge10" class="edge">
<title>Node8&#45;&gt;Node9</title>
<path fill="none" stroke="#191970" d="M303.9953,-110.4179C300.4787,-102.9789 295.3891,-92.2123 291.0219,-82.9742"/>
<polygon fill="#191970" stroke="#191970" points="294.1134,-81.3243 286.6753,-73.7795 287.7849,-84.316 294.1134,-81.3243"/>
</g>
<!-- Node10 -->
<g id="node11" class="node">
<title>Node10</title>
<polygon fill="#ffffff" stroke="#bfbfbf" points="369.7247,-.5 369.7247,-18.5 426.8527,-18.5 426.8527,-.5 369.7247,-.5"/>
<text text-anchor="middle" x="398.2887" y="-6.5" font-family="Helvetica,sans-Serif" font-size="10.00" fill="#000000">algorithm</text>
</g>
<!-- Node9&#45;&gt;Node10 -->
<g id="edge11" class="edge">
<title>Node9&#45;&gt;Node10</title>
<path fill="none" stroke="#191970" d="M301.4437,-55.4179C320.0821,-46.5807 348.6253,-33.0473 369.9023,-22.9591"/>
<polygon fill="#191970" stroke="#191970" points="371.5689,-26.0424 379.1052,-18.5956 368.5699,-19.7174 371.5689,-26.0424"/>
</g>
<!-- Node9&#45;&gt;Node11 -->
<g id="edge12" class="edge">
<title>Node9&#45;&gt;Node11</title>
<path fill="none" stroke="#191970" d="M330.3436,-55.4795C388.9419,-44.4798 486.6504,-26.1386 539.206,-16.2732"/>
<polygon fill="#191970" stroke="#191970" points="539.9075,-19.7027 549.0901,-14.4178 538.616,-12.8229 539.9075,-19.7027"/>
</g>
<!-- Node12 -->
<g id="node13" class="node">
<title>Node12</title>
<polygon fill="#ffffff" stroke="#bfbfbf" points="142.8873,-.5 142.8873,-18.5 201.6901,-18.5 201.6901,-.5 142.8873,-.5"/>
<text text-anchor="middle" x="172.2887" y="-6.5" font-family="Helvetica,sans-Serif" font-size="10.00" fill="#000000">stdexcept</text>
</g>
<!-- Node9&#45;&gt;Node12 -->
<g id="edge13" class="edge">
<title>Node9&#45;&gt;Node12</title>
<path fill="none" stroke="#191970" d="M264.1244,-55.4179C246.5297,-46.6205 219.6269,-33.1691 199.4799,-23.0956"/>
<polygon fill="#191970" stroke="#191970" points="200.9895,-19.9373 190.4799,-18.5956 197.859,-26.1983 200.9895,-19.9373"/>
</g>
<!-- Node13 -->
<g id="node14" class="node">
<title>Node13</title>
<polygon fill="#ffffff" stroke="#bfbfbf" points="219.7765,-.5 219.7765,-18.5 270.8009,-18.5 270.8009,-.5 219.7765,-.5"/>
<text text-anchor="middle" x="245.2887" y="-6.5" font-family="Helvetica,sans-Serif" font-size="10.00" fill="#000000">typeinfo</text>
</g>
<!-- Node9&#45;&gt;Node13 -->
<g id="edge14" class="edge">
<title>Node9&#45;&gt;Node13</title>
<path fill="none" stroke="#191970" d="M276.1789,-55.4179C271.0148,-47.7415 263.4669,-36.5217 257.125,-27.0945"/>
<polygon fill="#191970" stroke="#191970" points="260.0171,-25.1231 251.5312,-18.7795 254.209,-29.0303 260.0171,-25.1231"/>
</g>
<!-- Node14 -->
<g id="node15" class="node">
<title>Node14</title>
<polygon fill="#ffffff" stroke="#bfbfbf" points="289.2223,-.5 289.2223,-18.5 351.3551,-18.5 351.3551,-.5 289.2223,-.5"/>
<text text-anchor="middle" x="320.2887" y="-6.5" font-family="Helvetica,sans-Serif" font-size="10.00" fill="#000000">type_traits</text>
</g>
<!-- Node9&#45;&gt;Node14 -->
<g id="edge15" class="edge">
<title>Node9&#45;&gt;Node14</title>
<path fill="none" stroke="#191970" d="M288.5636,-55.4179C293.8673,-47.7415 301.6191,-36.5217 308.1325,-27.0945"/>
<polygon fill="#191970" stroke="#191970" points="311.0726,-28.9963 313.8774,-18.7795 305.3135,-25.0173 311.0726,-28.9963"/>
</g>
<!-- Node15&#45;&gt;Node3 -->
<g id="edge20" class="edge">
<title>Node15&#45;&gt;Node3</title>
<path fill="none" stroke="#191970" d="M377.8049,-110.7243C302.6732,-99.0513 172.3704,-78.8065 112.3029,-69.474"/>
<polygon fill="#191970" stroke="#191970" points="112.6888,-65.992 102.27,-67.9152 111.6141,-72.909 112.6888,-65.992"/>
</g>
<!-- Node16 -->
<g id="node17" class="node">
<title>Node16</title>
<polygon fill="#ffffff" stroke="#bfbfbf" points="348.6188,-55.5 348.6188,-73.5 397.9586,-73.5 397.9586,-55.5 348.6188,-55.5"/>
<text text-anchor="middle" x="373.2887" y="-61.5" font-family="Helvetica,sans-Serif" font-size="10.00" fill="#000000">fstream</text>
</g>
<!-- Node15&#45;&gt;Node16 -->
<g id="edge17" class="edge">
<title>Node15&#45;&gt;Node16</title>
<path fill="none" stroke="#191970" d="M424.2158,-110.4179C415.2632,-102.3458 401.9649,-90.3556 391.2024,-80.6517"/>
<polygon fill="#191970" stroke="#191970" points="393.3511,-77.8764 383.5804,-73.7795 388.6636,-83.0753 393.3511,-77.8764"/>
</g>
<!-- Node17 -->
<g id="node18" class="node">
<title>Node17</title>
<polygon fill="#ffffff" stroke="#bfbfbf" points="416.1163,-55.5 416.1163,-73.5 470.4611,-73.5 470.4611,-55.5 416.1163,-55.5"/>
<text text-anchor="middle" x="443.2887" y="-61.5" font-family="Helvetica,sans-Serif" font-size="10.00" fill="#000000">iostream</text>
</g>
<!-- Node15&#45;&gt;Node17 -->
<g id="edge18" class="edge">
<title>Node15&#45;&gt;Node17</title>
<path fill="none" stroke="#191970" d="M435.7749,-110.4179C436.9533,-103.2164 438.642,-92.8962 440.1202,-83.8632"/>
<polygon fill="#191970" stroke="#191970" points="443.6093,-84.2134 441.7702,-73.7795 436.7012,-83.083 443.6093,-84.2134"/>
</g>
<!-- Node15&#45;&gt;Node18 -->
<g id="edge19" class="edge">
<title>Node15&#45;&gt;Node18</title>
<path fill="none" stroke="#191970" d="M446.5083,-110.4179C457.7556,-102.0584 474.6569,-89.4966 487.9402,-79.6239"/>
<polygon fill="#191970" stroke="#191970" points="490.1128,-82.37 496.0509,-73.5956 485.9371,-76.7518 490.1128,-82.37"/>
</g>
</g>
</svg>
        <g id="navigator" transform="translate(0 0)" fill="#404254">
                <rect fill="#f2f5e9" fill-opacity="0.5" stroke="#606060" stroke-width=".5" x="0" y="0" width="60" height="60"/>
                <use id="zoomplus" xlink:href="#zoomPlus" x="17" y="9" onmousedown="handleZoom(evt,'in')"/>
                <use id="zoomminus" xlink:href="#zoomMin" x="42" y="9" onmousedown="handleZoom(evt,'out')"/>
                <use id="reset" xlink:href="#resetDef" x="30" y="36" onmousedown="handleReset()"/>
                <g id="arrowUp" xlink:href="#dirArrow" transform="translate(30 24)" onmousedown="handlePan(0,-1)">
                  <use xlink:href="#rim" fill="#404040">
                        <set attributeName="fill" to="#808080" begin="arrowUp.mouseover" end="arrowUp.mouseout"/>
                  </use>
                  <path fill="none" stroke="white" stroke-width="1.5" d="M0,-3.0v7 M-2.5,-0.5L0,-3.0L2.5,-0.5"/>
                </g>
                <g id="arrowRight" xlink:href="#dirArrow" transform="rotate(90) translate(36 -43)" onmousedown="handlePan(1,0)">
                  <use xlink:href="#rim" fill="#404040">
                        <set attributeName="fill" to="#808080" begin="arrowRight.mouseover" end="arrowRight.mouseout"/>
                  </use>
                  <path fill="none" stroke="white" stroke-width="1.5" d="M0,-3.0v7 M-2.5,-0.5L0,-3.0L2.5,-0.5"/>
                </g>
                <g id="arrowDown" xlink:href="#dirArrow" transform="rotate(180) translate(-30 -48)" onmousedown="handlePan(0,1)">
                  <use xlink:href="#rim" fill="#404040">
                        <set attributeName="fill" to="#808080" begin="arrowDown.mouseover" end="arrowDown.mouseout"/>
                  </use>
                  <path fill="none" stroke="white" stroke-width="1.5" d="M0,-3.0v7 M-2.5,-0.5L0,-3.0L2.5,-0.5"/>
                </g>
                <g id="arrowLeft" xlink:href="#dirArrow" transform="rotate(270) translate(-36 17)" onmousedown="handlePan(-1,0)">
                  <use xlink:href="#rim" fill="#404040">
                        <set attributeName="fill" to="#808080" begin="arrowLeft.mouseover" end="arrowLeft.mouseout"/>
                  </use>
                  <path fill="none" stroke="white" stroke-width="1.5" d="M0,-3.0v7 M-2.5,-0.5L0,-3.0L2.5,-0.5"/>
                </g>
        </g>
        <svg viewBox="0 0 15 15" width="100%" height="30px" preserveAspectRatio="xMaxYMin meet">
         <g id="arrow_out" transform="scale(0.3 0.3)">
          <a xlink:href="PFCorrectionDecorator_8h__incl_org.svg" target="_base">
           <rect id="button" ry="5" rx="5" y="6" x="6" height="38" width="38"
                fill="#f2f5e9" fill-opacity="0.5" stroke="#606060" stroke-width="1.0"/>
           <path id="arrow"
             d="M 11.500037,31.436501 C 11.940474,20.09759 22.043105,11.32322 32.158766,21.979434 L 37.068811,17.246167 C 37.068811,17.246167 37.088388,32 37.088388,32 L 22.160133,31.978069 C 22.160133,31.978069 26.997745,27.140456 26.997745,27.140456 C 18.528582,18.264221 13.291696,25.230495 11.500037,31.436501 z"
             style="fill:#404040;"/>
          </a>
         </g>
        </svg>
</svg>
