<?xml version="1.0" encoding="UTF-8" standalone="no"?>
<!DOCTYPE svg PUBLIC "-//W3C//DTD SVG 1.1//EN"
 "http://www.w3.org/Graphics/SVG/1.1/DTD/svg11.dtd">
<!-- Generated by graphviz version 2.40.1 (20161225.0304)
 -->
<!-- Title: /Users/Claudio/GitHub/bayes&#45;filters&#45;lib/src/BayesFilters/include/BayesFilters/PFCorrection.h Pages: 1 -->
<svg width="1061pt" height="302pt"
 viewBox="0.00 0.00 1061.50 302.00" xmlns="http://www.w3.org/2000/svg" xmlns:xlink="http://www.w3.org/1999/xlink">
<g id="graph0" class="graph" transform="scale(1 1) rotate(0) translate(4 298)">
<title>/Users/Claudio/GitHub/bayes&#45;filters&#45;lib/src/BayesFilters/include/BayesFilters/PFCorrection.h</title>
<polygon fill="#ffffff" stroke="transparent" points="-4,4 -4,-298 1057.4995,-298 1057.4995,4 -4,4"/>
<!-- Node20 -->
<g id="node1" class="node">
<title>Node20</title>
<polygon fill="#bfbfbf" stroke="#000000" points="459.229,-245.5 459.229,-293.5 625.2827,-293.5 625.2827,-245.5 459.229,-245.5"/>
<text text-anchor="start" x="467.229" y="-281.5" font-family="Helvetica,sans-Serif" font-size="10.00" fill="#000000">/Users/Claudio/GitHub</text>
<text text-anchor="start" x="467.229" y="-271.5" font-family="Helvetica,sans-Serif" font-size="10.00" fill="#000000">/bayes&#45;filters&#45;lib/src</text>
<text text-anchor="start" x="467.229" y="-261.5" font-family="Helvetica,sans-Serif" font-size="10.00" fill="#000000">/BayesFilters/include/BayesFilters</text>
<text text-anchor="middle" x="542.2559" y="-251.5" font-family="Helvetica,sans-Serif" font-size="10.00" fill="#000000">/PFCorrection.h</text>
</g>
<!-- Node21 -->
<g id="node2" class="node">
<title>Node21</title>
<g id="a_node2"><a xlink:href="BootstrapCorrection_8h.html" target="_top" xlink:title="/Users/Claudio/GitHub\l/bayes&#45;filters&#45;lib/src\l/BayesFilters/include/BayesFilters\l/BootstrapCorrection.h">
<polygon fill="#ffffff" stroke="#000000" points="52.229,-160.5 52.229,-208.5 218.2827,-208.5 218.2827,-160.5 52.229,-160.5"/>
<text text-anchor="start" x="60.229" y="-196.5" font-family="Helvetica,sans-Serif" font-size="10.00" fill="#000000">/Users/Claudio/GitHub</text>
<text text-anchor="start" x="60.229" y="-186.5" font-family="Helvetica,sans-Serif" font-size="10.00" fill="#000000">/bayes&#45;filters&#45;lib/src</text>
<text text-anchor="start" x="60.229" y="-176.5" font-family="Helvetica,sans-Serif" font-size="10.00" fill="#000000">/BayesFilters/include/BayesFilters</text>
<text text-anchor="middle" x="135.2559" y="-166.5" font-family="Helvetica,sans-Serif" font-size="10.00" fill="#000000">/BootstrapCorrection.h</text>
</a>
</g>
</g>
<!-- Node20&#45;&gt;Node21 -->
<g id="edge1" class="edge">
<title>Node20&#45;&gt;Node21</title>
<path fill="none" stroke="#191970" d="M449.3055,-251.928C389.0229,-240.3034 308.8495,-224.4148 238.2559,-209 231.7911,-207.5884 225.1077,-206.0892 218.3949,-204.5552"/>
<polygon fill="#191970" stroke="#191970" points="448.7021,-255.376 459.1833,-253.829 450.025,-248.5022 448.7021,-255.376"/>
</g>
<!-- Node23 -->
<g id="node4" class="node">
<title>Node23</title>
<g id="a_node4"><a xlink:href="GPFCorrection_8h.html" target="_top" xlink:title="/Users/Claudio/GitHub\l/bayes&#45;filters&#45;lib/src\l/BayesFilters/include/BayesFilters\l/GPFCorrection.h">
<polygon fill="#ffffff" stroke="#000000" points="247.229,-160.5 247.229,-208.5 413.2827,-208.5 413.2827,-160.5 247.229,-160.5"/>
<text text-anchor="start" x="255.229" y="-196.5" font-family="Helvetica,sans-Serif" font-size="10.00" fill="#000000">/Users/Claudio/GitHub</text>
<text text-anchor="start" x="255.229" y="-186.5" font-family="Helvetica,sans-Serif" font-size="10.00" fill="#000000">/bayes&#45;filters&#45;lib/src</text>
<text text-anchor="start" x="255.229" y="-176.5" font-family="Helvetica,sans-Serif" font-size="10.00" fill="#000000">/BayesFilters/include/BayesFilters</text>
<text text-anchor="middle" x="330.2559" y="-166.5" font-family="Helvetica,sans-Serif" font-size="10.00" fill="#000000">/GPFCorrection.h</text>
</a>
</g>
</g>
<!-- Node20&#45;&gt;Node23 -->
<g id="edge3" class="edge">
<title>Node20&#45;&gt;Node23</title>
<path fill="none" stroke="#191970" d="M472.7264,-241.6226C446.1226,-230.956 416.0282,-218.8899 390.3759,-208.6047"/>
<polygon fill="#191970" stroke="#191970" points="471.771,-245.0103 482.3552,-245.4832 474.376,-238.5131 471.771,-245.0103"/>
</g>
<!-- Node25 -->
<g id="node6" class="node">
<title>Node25</title>
<g id="a_node6"><a xlink:href="ParticleFilter_8h.html" target="_top" xlink:title="/Users/Claudio/GitHub\l/bayes&#45;filters&#45;lib/src\l/BayesFilters/include/BayesFilters\l/ParticleFilter.h">
<polygon fill="#ffffff" stroke="#000000" points="515.229,-160.5 515.229,-208.5 681.2827,-208.5 681.2827,-160.5 515.229,-160.5"/>
<text text-anchor="start" x="523.229" y="-196.5" font-family="Helvetica,sans-Serif" font-size="10.00" fill="#000000">/Users/Claudio/GitHub</text>
<text text-anchor="start" x="523.229" y="-186.5" font-family="Helvetica,sans-Serif" font-size="10.00" fill="#000000">/bayes&#45;filters&#45;lib/src</text>
<text text-anchor="start" x="523.229" y="-176.5" font-family="Helvetica,sans-Serif" font-size="10.00" fill="#000000">/BayesFilters/include/BayesFilters</text>
<text text-anchor="middle" x="598.2559" y="-166.5" font-family="Helvetica,sans-Serif" font-size="10.00" fill="#000000">/ParticleFilter.h</text>
</a>
</g>
</g>
<!-- Node20&#45;&gt;Node25 -->
<g id="edge5" class="edge">
<title>Node20&#45;&gt;Node25</title>
<path fill="none" stroke="#191970" d="M563.6768,-236.9861C569.8714,-227.5835 576.5214,-217.4897 582.3185,-208.6906"/>
<polygon fill="#191970" stroke="#191970" points="560.7323,-235.0936 558.1534,-245.3698 566.5778,-238.9447 560.7323,-235.0936"/>
</g>
<!-- Node26 -->
<g id="node7" class="node">
<title>Node26</title>
<g id="a_node7"><a xlink:href="SIS_8h.html" target="_top" xlink:title="/Users/Claudio/GitHub\l/bayes&#45;filters&#45;lib/src\l/BayesFilters/include/BayesFilters/SIS.h">
<polygon fill="#ffffff" stroke="#000000" points="414.6108,-80.5 414.6108,-118.5 607.9009,-118.5 607.9009,-80.5 414.6108,-80.5"/>
<text text-anchor="start" x="422.6108" y="-106.5" font-family="Helvetica,sans-Serif" font-size="10.00" fill="#000000">/Users/Claudio/GitHub</text>
<text text-anchor="start" x="422.6108" y="-96.5" font-family="Helvetica,sans-Serif" font-size="10.00" fill="#000000">/bayes&#45;filters&#45;lib/src</text>
<text text-anchor="middle" x="511.2559" y="-86.5" font-family="Helvetica,sans-Serif" font-size="10.00" fill="#000000">/BayesFilters/include/BayesFilters/SIS.h</text>
</a>
</g>
</g>
<!-- Node20&#45;&gt;Node26 -->
<g id="edge11" class="edge">
<title>Node20&#45;&gt;Node26</title>
<path fill="none" stroke="#191970" d="M518.4488,-236.6874C513.4377,-228.0836 508.8778,-218.5337 506.2559,-209 497.8286,-178.3572 502.524,-141.0957 506.8074,-118.891"/>
<polygon fill="#191970" stroke="#191970" points="515.527,-238.6169 523.772,-245.2706 521.4758,-234.9275 515.527,-238.6169"/>
</g>
<!-- Node29 -->
<g id="node10" class="node">
<title>Node29</title>
<g id="a_node10"><a xlink:href="PFCorrectionDecorator_8h.html" target="_top" xlink:title="/Users/Claudio/GitHub\l/bayes&#45;filters&#45;lib/src\l/BayesFilters/include/BayesFilters\l/PFCorrectionDecorator.h">
<polygon fill="#ffffff" stroke="#000000" points="699.229,-160.5 699.229,-208.5 865.2827,-208.5 865.2827,-160.5 699.229,-160.5"/>
<text text-anchor="start" x="707.229" y="-196.5" font-family="Helvetica,sans-Serif" font-size="10.00" fill="#000000">/Users/Claudio/GitHub</text>
<text text-anchor="start" x="707.229" y="-186.5" font-family="Helvetica,sans-Serif" font-size="10.00" fill="#000000">/bayes&#45;filters&#45;lib/src</text>
<text text-anchor="start" x="707.229" y="-176.5" font-family="Helvetica,sans-Serif" font-size="10.00" fill="#000000">/BayesFilters/include/BayesFilters</text>
<text text-anchor="middle" x="782.2559" y="-166.5" font-family="Helvetica,sans-Serif" font-size="10.00" fill="#000000">/PFCorrectionDecorator.h</text>
</a>
</g>
</g>
<!-- Node20&#45;&gt;Node29 -->
<g id="edge9" class="edge">
<title>Node20&#45;&gt;Node29</title>
<path fill="none" stroke="#191970" d="M619.7816,-242.043C650.1886,-231.2738 684.773,-219.0252 714.1955,-208.6047"/>
<polygon fill="#191970" stroke="#191970" points="618.3257,-238.8455 610.0679,-245.4832 620.6627,-245.4439 618.3257,-238.8455"/>
</g>
<!-- Node31 -->
<g id="node12" class="node">
<title>Node31</title>
<g id="a_node12"><a xlink:href="PFCorrection_8cpp.html" target="_top" xlink:title="/Users/Claudio/GitHub\l/bayes&#45;filters&#45;lib/src\l/BayesFilters/src/PFCorrection.cpp">
<polygon fill="#ffffff" stroke="#000000" points="883.0122,-165.5 883.0122,-203.5 1053.4995,-203.5 1053.4995,-165.5 883.0122,-165.5"/>
<text text-anchor="start" x="891.0122" y="-191.5" font-family="Helvetica,sans-Serif" font-size="10.00" fill="#000000">/Users/Claudio/GitHub</text>
<text text-anchor="start" x="891.0122" y="-181.5" font-family="Helvetica,sans-Serif" font-size="10.00" fill="#000000">/bayes&#45;filters&#45;lib/src</text>
<text text-anchor="middle" x="968.2559" y="-171.5" font-family="Helvetica,sans-Serif" font-size="10.00" fill="#000000">/BayesFilters/src/PFCorrection.cpp</text>
</a>
</g>
</g>
<!-- Node20&#45;&gt;Node31 -->
<g id="edge12" class="edge">
<title>Node20&#45;&gt;Node31</title>
<path fill="none" stroke="#191970" d="M635.5625,-254.4137C702.3045,-243.1562 794.1326,-226.716 874.2559,-209 881.8306,-207.3251 889.7183,-205.4611 897.5617,-203.53"/>
<polygon fill="#191970" stroke="#191970" points="634.7694,-250.9978 625.4873,-256.1059 635.9289,-257.9011 634.7694,-250.9978"/>
</g>
<!-- Node22 -->
<g id="node3" class="node">
<title>Node22</title>
<g id="a_node3"><a xlink:href="BootstrapCorrection_8cpp.html" target="_top" xlink:title="/Users/Claudio/GitHub\l/bayes&#45;filters&#45;lib/src\l/BayesFilters/src/BootstrapCorrection.cpp">
<polygon fill="#ffffff" stroke="#000000" points="0,-80.5 0,-118.5 200.5117,-118.5 200.5117,-80.5 0,-80.5"/>
<text text-anchor="start" x="8" y="-106.5" font-family="Helvetica,sans-Serif" font-size="10.00" fill="#000000">/Users/Claudio/GitHub</text>
<text text-anchor="start" x="8" y="-96.5" font-family="Helvetica,sans-Serif" font-size="10.00" fill="#000000">/bayes&#45;filters&#45;lib/src</text>
<text text-anchor="middle" x="100.2559" y="-86.5" font-family="Helvetica,sans-Serif" font-size="10.00" fill="#000000">/BayesFilters/src/BootstrapCorrection.cpp</text>
</a>
</g>
</g>
<!-- Node21&#45;&gt;Node22 -->
<g id="edge2" class="edge">
<title>Node21&#45;&gt;Node22</title>
<path fill="none" stroke="#191970" d="M121.4565,-150.9872C116.9214,-139.9734 112.0388,-128.1157 108.1037,-118.5591"/>
<polygon fill="#191970" stroke="#191970" points="118.2759,-152.4556 125.3199,-160.3698 124.7487,-149.7903 118.2759,-152.4556"/>
</g>
<!-- Node24 -->
<g id="node5" class="node">
<title>Node24</title>
<g id="a_node5"><a xlink:href="GPFCorrection_8cpp.html" target="_top" xlink:title="/Users/Claudio/GitHub\l/bayes&#45;filters&#45;lib/src\l/BayesFilters/src/GPFCorrection.cpp">
<polygon fill="#ffffff" stroke="#000000" points="218.123,-80.5 218.123,-118.5 396.3887,-118.5 396.3887,-80.5 218.123,-80.5"/>
<text text-anchor="start" x="226.123" y="-106.5" font-family="Helvetica,sans-Serif" font-size="10.00" fill="#000000">/Users/Claudio/GitHub</text>
<text text-anchor="start" x="226.123" y="-96.5" font-family="Helvetica,sans-Serif" font-size="10.00" fill="#000000">/bayes&#45;filters&#45;lib/src</text>
<text text-anchor="middle" x="307.2559" y="-86.5" font-family="Helvetica,sans-Serif" font-size="10.00" fill="#000000">/BayesFilters/src/GPFCorrection.cpp</text>
</a>
</g>
</g>
<!-- Node23&#45;&gt;Node24 -->
<g id="edge4" class="edge">
<title>Node23&#45;&gt;Node24</title>
<path fill="none" stroke="#191970" d="M321.0973,-150.6532C318.1427,-139.7341 314.9728,-128.0192 312.413,-118.5591"/>
<polygon fill="#191970" stroke="#191970" points="317.736,-151.6311 323.7265,-160.3698 324.493,-149.8027 317.736,-151.6311"/>
</g>
<!-- Node25&#45;&gt;Node26 -->
<g id="edge6" class="edge">
<title>Node25&#45;&gt;Node26</title>
<path fill="none" stroke="#191970" d="M566.3317,-153.3097C554.4096,-141.6617 541.2365,-128.7914 530.7634,-118.5591"/>
<polygon fill="#191970" stroke="#191970" points="563.9591,-155.8849 573.5579,-160.3698 568.851,-150.8779 563.9591,-155.8849"/>
</g>
<!-- Node28 -->
<g id="node9" class="node">
<title>Node28</title>
<g id="a_node9"><a xlink:href="ParticleFilter_8cpp.html" target="_top" xlink:title="/Users/Claudio/GitHub\l/bayes&#45;filters&#45;lib/src\l/BayesFilters/src/ParticleFilter.cpp">
<polygon fill="#ffffff" stroke="#000000" points="625.9556,-80.5 625.9556,-118.5 792.5562,-118.5 792.5562,-80.5 625.9556,-80.5"/>
<text text-anchor="start" x="633.9556" y="-106.5" font-family="Helvetica,sans-Serif" font-size="10.00" fill="#000000">/Users/Claudio/GitHub</text>
<text text-anchor="start" x="633.9556" y="-96.5" font-family="Helvetica,sans-Serif" font-size="10.00" fill="#000000">/bayes&#45;filters&#45;lib/src</text>
<text text-anchor="middle" x="709.2559" y="-86.5" font-family="Helvetica,sans-Serif" font-size="10.00" fill="#000000">/BayesFilters/src/ParticleFilter.cpp</text>
</a>
</g>
</g>
<!-- Node25&#45;&gt;Node28 -->
<g id="edge8" class="edge">
<title>Node25&#45;&gt;Node28</title>
<path fill="none" stroke="#191970" d="M638.1274,-153.9677C653.5621,-142.1484 670.7526,-128.9845 684.3669,-118.5591"/>
<polygon fill="#191970" stroke="#191970" points="635.5787,-151.5111 629.7671,-160.3698 639.8346,-157.0688 635.5787,-151.5111"/>
</g>
<!-- Node27 -->
<g id="node8" class="node">
<title>Node27</title>
<g id="a_node8"><a xlink:href="SIS_8cpp.html" target="_top" xlink:title="/Users/Claudio/GitHub\l/bayes&#45;filters&#45;lib/src\l/BayesFilters/src/SIS.cpp">
<polygon fill="#ffffff" stroke="#000000" points="447.4063,-.5 447.4063,-38.5 575.1055,-38.5 575.1055,-.5 447.4063,-.5"/>
<text text-anchor="start" x="455.4063" y="-26.5" font-family="Helvetica,sans-Serif" font-size="10.00" fill="#000000">/Users/Claudio/GitHub</text>
<text text-anchor="start" x="455.4063" y="-16.5" font-family="Helvetica,sans-Serif" font-size="10.00" fill="#000000">/bayes&#45;filters&#45;lib/src</text>
<text text-anchor="middle" x="511.2559" y="-6.5" font-family="Helvetica,sans-Serif" font-size="10.00" fill="#000000">/BayesFilters/src/SIS.cpp</text>
</a>
</g>
</g>
<!-- Node26&#45;&gt;Node27 -->
<g id="edge7" class="edge">
<title>Node26&#45;&gt;Node27</title>
<path fill="none" stroke="#191970" d="M511.2559,-70.1156C511.2559,-59.6295 511.2559,-48.0942 511.2559,-38.6874"/>
<polygon fill="#191970" stroke="#191970" points="507.756,-70.1342 511.2559,-80.1342 514.756,-70.1343 507.756,-70.1342"/>
</g>
<!-- Node30 -->
<g id="node11" class="node">
<title>Node30</title>
<g id="a_node11"><a xlink:href="PFCorrectionDecorator_8cpp.html" target="_top" xlink:title="/Users/Claudio/GitHub\l/bayes&#45;filters&#45;lib/src\l/BayesFilters/src/PFCorrection\lDecorator.cpp">
<polygon fill="#ffffff" stroke="#000000" points="810.4629,-75.5 810.4629,-123.5 962.0488,-123.5 962.0488,-75.5 810.4629,-75.5"/>
<text text-anchor="start" x="818.4629" y="-111.5" font-family="Helvetica,sans-Serif" font-size="10.00" fill="#000000">/Users/Claudio/GitHub</text>
<text text-anchor="start" x="818.4629" y="-101.5" font-family="Helvetica,sans-Serif" font-size="10.00" fill="#000000">/bayes&#45;filters&#45;lib/src</text>
<text text-anchor="start" x="818.4629" y="-91.5" font-family="Helvetica,sans-Serif" font-size="10.00" fill="#000000">/BayesFilters/src/PFCorrection</text>
<text text-anchor="middle" x="886.2559" y="-81.5" font-family="Helvetica,sans-Serif" font-size="10.00" fill="#000000">Decorator.cpp</text>
</a>
</g>
</g>
<!-- Node29&#45;&gt;Node30 -->
<g id="edge10" class="edge">
<title>Node29&#45;&gt;Node30</title>
<path fill="none" stroke="#191970" d="M819.5862,-153.9896C831.7695,-144.0321 845.1229,-133.1183 856.658,-123.6906"/>
<polygon fill="#191970" stroke="#191970" points="817.3079,-151.3314 811.7799,-160.3698 821.7377,-156.7514 817.3079,-151.3314"/>
</g>
</g>
</svg>
