<?xml version="1.0" encoding="UTF-8" standalone="no"?>
<!DOCTYPE svg PUBLIC "-//W3C//DTD SVG 1.1//EN"
 "http://www.w3.org/Graphics/SVG/1.1/DTD/svg11.dtd">
<!-- Generated by graphviz version 2.40.1 (20161225.0304)
 -->
<!-- Title: /Users/Claudio/GitHub/bayes&#45;filters&#45;lib/src/BayesFilters/include/BayesFilters/PFCorrection.h Pages: 1 -->
<svg width="643pt" height="342pt"
 viewBox="0.00 0.00 642.94 342.00" xmlns="http://www.w3.org/2000/svg" xmlns:xlink="http://www.w3.org/1999/xlink">
<g id="graph0" class="graph" transform="scale(1 1) rotate(0) translate(4 338)">
<title>/Users/Claudio/GitHub/bayes&#45;filters&#45;lib/src/BayesFilters/include/BayesFilters/PFCorrection.h</title>
<polygon fill="#ffffff" stroke="transparent" points="-4,4 -4,-338 638.9406,-338 638.9406,4 -4,4"/>
<!-- Node0 -->
<g id="node1" class="node">
<title>Node0</title>
<polygon fill="#bfbfbf" stroke="#000000" points="258.9731,-285.5 258.9731,-333.5 425.0269,-333.5 425.0269,-285.5 258.9731,-285.5"/>
<text text-anchor="start" x="266.9731" y="-321.5" font-family="Helvetica,sans-Serif" font-size="10.00" fill="#000000">/Users/Claudio/GitHub</text>
<text text-anchor="start" x="266.9731" y="-311.5" font-family="Helvetica,sans-Serif" font-size="10.00" fill="#000000">/bayes&#45;filters&#45;lib/src</text>
<text text-anchor="start" x="266.9731" y="-301.5" font-family="Helvetica,sans-Serif" font-size="10.00" fill="#000000">/BayesFilters/include/BayesFilters</text>
<text text-anchor="middle" x="342" y="-291.5" font-family="Helvetica,sans-Serif" font-size="10.00" fill="#000000">/PFCorrection.h</text>
</g>
<!-- Node1 -->
<g id="node2" class="node">
<title>Node1</title>
<g id="a_node2"><a xlink:href="LikelihoodModel_8h.html" target="_top" xlink:title="BayesFilters/LikelihoodModel.h">
<polygon fill="#ffffff" stroke="#000000" points="212.7983,-230.5 212.7983,-248.5 367.2017,-248.5 367.2017,-230.5 212.7983,-230.5"/>
<text text-anchor="middle" x="290" y="-236.5" font-family="Helvetica,sans-Serif" font-size="10.00" fill="#000000">BayesFilters/LikelihoodModel.h</text>
</a>
</g>
</g>
<!-- Node0&#45;&gt;Node1 -->
<g id="edge1" class="edge">
<title>Node0&#45;&gt;Node1</title>
<path fill="none" stroke="#191970" d="M324.1045,-285.41C317.1272,-276.0174 309.2846,-265.46 302.8808,-256.8395"/>
<polygon fill="#191970" stroke="#191970" points="305.5977,-254.6276 296.8248,-248.6872 299.9785,-258.8018 305.5977,-254.6276"/>
</g>
<!-- Node2 -->
<g id="node3" class="node">
<title>Node2</title>
<g id="a_node3"><a xlink:href="MeasurementModel_8h.html" target="_top" xlink:title="BayesFilters/Measurement\lModel.h">
<polygon fill="#ffffff" stroke="#000000" points="148.5347,-165.5 148.5347,-193.5 283.4653,-193.5 283.4653,-165.5 148.5347,-165.5"/>
<text text-anchor="start" x="156.5347" y="-181.5" font-family="Helvetica,sans-Serif" font-size="10.00" fill="#000000">BayesFilters/Measurement</text>
<text text-anchor="middle" x="216" y="-171.5" font-family="Helvetica,sans-Serif" font-size="10.00" fill="#000000">Model.h</text>
</a>
</g>
</g>
<!-- Node0&#45;&gt;Node2 -->
<g id="edge20" class="edge">
<title>Node0&#45;&gt;Node2</title>
<path fill="none" stroke="#191970" d="M258.7002,-290.7343C237.2958,-281.7403 216.736,-268.4897 204,-249 195.1292,-235.4251 198.6483,-217.2951 204.1121,-202.9562"/>
<polygon fill="#191970" stroke="#191970" points="207.3412,-204.3067 208.077,-193.7374 200.9107,-201.541 207.3412,-204.3067"/>
</g>
<!-- Node6 -->
<g id="node7" class="node">
<title>Node6</title>
<polygon fill="#ffffff" stroke="#bfbfbf" points="11.9434,-.5 11.9434,-18.5 64.0566,-18.5 64.0566,-.5 11.9434,-.5"/>
<text text-anchor="middle" x="38" y="-6.5" font-family="Helvetica,sans-Serif" font-size="10.00" fill="#000000">memory</text>
</g>
<!-- Node0&#45;&gt;Node6 -->
<g id="edge26" class="edge">
<title>Node0&#45;&gt;Node6</title>
<path fill="none" stroke="#191970" d="M258.7747,-294.9537C157.5418,-274.8436 0,-234.6829 0,-179.5 0,-179.5 0,-179.5 0,-119.5 0,-85.4876 16.4315,-48.6418 27.6845,-27.3963"/>
<polygon fill="#191970" stroke="#191970" points="30.7984,-28.9975 32.5555,-18.5493 24.6664,-25.6213 30.7984,-28.9975"/>
</g>
<!-- Node15 -->
<g id="node16" class="node">
<title>Node15</title>
<polygon fill="#ffffff" stroke="#bfbfbf" points="375.6084,-110.5 375.6084,-128.5 414.3916,-128.5 414.3916,-110.5 375.6084,-110.5"/>
<text text-anchor="middle" x="395" y="-116.5" font-family="Helvetica,sans-Serif" font-size="10.00" fill="#000000">utility</text>
</g>
<!-- Node0&#45;&gt;Node15 -->
<g id="edge27" class="edge">
<title>Node0&#45;&gt;Node15</title>
<path fill="none" stroke="#191970" d="M358.21,-285.441C364.7153,-274.7125 371.681,-261.6572 376,-249 388.8547,-211.3279 393.0135,-164.5769 394.3582,-138.8105"/>
<polygon fill="#191970" stroke="#191970" points="397.8662,-138.6977 394.7992,-128.5565 390.8727,-138.3969 397.8662,-138.6977"/>
</g>
<!-- Node16 -->
<g id="node17" class="node">
<title>Node16</title>
<polygon fill="#ffffff" stroke="#bfbfbf" points="432.3696,-110.5 432.3696,-128.5 505.6304,-128.5 505.6304,-110.5 432.3696,-110.5"/>
<text text-anchor="middle" x="469" y="-116.5" font-family="Helvetica,sans-Serif" font-size="10.00" fill="#000000">Eigen/Dense</text>
</g>
<!-- Node0&#45;&gt;Node16 -->
<g id="edge28" class="edge">
<title>Node0&#45;&gt;Node16</title>
<path fill="none" stroke="#191970" d="M364.0761,-285.2413C373.4377,-274.4775 384.1952,-261.4498 393,-249 419.8424,-211.0453 446.1668,-163.1296 459.6697,-137.5477"/>
<polygon fill="#191970" stroke="#191970" points="462.8077,-139.0998 464.3405,-128.6164 456.6048,-135.8559 462.8077,-139.0998"/>
</g>
<!-- Node18 -->
<g id="node19" class="node">
<title>Node18</title>
<g id="a_node19"><a xlink:href="ParticleSet_8h.html" target="_top" xlink:title="BayesFilters/ParticleSet.h">
<polygon fill="#ffffff" stroke="#000000" points="474.7563,-230.5 474.7563,-248.5 605.2437,-248.5 605.2437,-230.5 474.7563,-230.5"/>
<text text-anchor="middle" x="540" y="-236.5" font-family="Helvetica,sans-Serif" font-size="10.00" fill="#000000">BayesFilters/ParticleSet.h</text>
</a>
</g>
</g>
<!-- Node0&#45;&gt;Node18 -->
<g id="edge21" class="edge">
<title>Node0&#45;&gt;Node18</title>
<path fill="none" stroke="#191970" d="M410.1404,-285.41C442.0801,-274.1181 478.7814,-261.1429 505.0007,-251.8735"/>
<polygon fill="#191970" stroke="#191970" points="506.243,-255.1467 514.5045,-248.5136 503.9097,-248.5469 506.243,-255.1467"/>
</g>
<!-- Node1&#45;&gt;Node2 -->
<g id="edge2" class="edge">
<title>Node1&#45;&gt;Node2</title>
<path fill="none" stroke="#191970" d="M278.761,-230.3873C268.8772,-222.3734 254.1247,-210.4119 241.4056,-200.0991"/>
<polygon fill="#191970" stroke="#191970" points="243.3844,-197.1977 233.4125,-193.6183 238.9758,-202.635 243.3844,-197.1977"/>
</g>
<!-- Node17 -->
<g id="node18" class="node">
<title>Node17</title>
<polygon fill="#ffffff" stroke="#bfbfbf" points="300.9854,-170.5 300.9854,-188.5 367.0146,-188.5 367.0146,-170.5 300.9854,-170.5"/>
<text text-anchor="middle" x="334" y="-176.5" font-family="Helvetica,sans-Serif" font-size="10.00" fill="#000000">Eigen/Core</text>
</g>
<!-- Node1&#45;&gt;Node17 -->
<g id="edge19" class="edge">
<title>Node1&#45;&gt;Node17</title>
<path fill="none" stroke="#191970" d="M296.6827,-230.3873C303.1436,-221.5769 313.1036,-207.9951 321.1092,-197.0784"/>
<polygon fill="#191970" stroke="#191970" points="324.1632,-198.8323 327.2545,-188.6985 318.5184,-194.6927 324.1632,-198.8323"/>
</g>
<!-- Node3 -->
<g id="node4" class="node">
<title>Node3</title>
<g id="a_node4"><a xlink:href="Data_8h.html" target="_top" xlink:title="BayesFilters/Data.h">
<polygon fill="#ffffff" stroke="#000000" points="254.3721,-110.5 254.3721,-128.5 357.6279,-128.5 357.6279,-110.5 254.3721,-110.5"/>
<text text-anchor="middle" x="306" y="-116.5" font-family="Helvetica,sans-Serif" font-size="10.00" fill="#000000">BayesFilters/Data.h</text>
</a>
</g>
</g>
<!-- Node2&#45;&gt;Node3 -->
<g id="edge3" class="edge">
<title>Node2&#45;&gt;Node3</title>
<path fill="none" stroke="#191970" d="M237.3287,-165.2808C251.3149,-155.9568 269.5657,-143.7895 283.7365,-134.3423"/>
<polygon fill="#191970" stroke="#191970" points="285.9947,-137.0434 292.3737,-128.5842 282.1117,-131.2191 285.9947,-137.0434"/>
</g>
<!-- Node2&#45;&gt;Node6 -->
<g id="edge15" class="edge">
<title>Node2&#45;&gt;Node6</title>
<path fill="none" stroke="#191970" d="M148.2258,-167.5174C123.1307,-160.0939 96.1564,-148.1509 77,-129 49.7082,-101.7161 41.5117,-55.1072 39.0523,-28.8889"/>
<polygon fill="#191970" stroke="#191970" points="42.5279,-28.4298 38.294,-18.7177 35.5472,-28.9502 42.5279,-28.4298"/>
</g>
<!-- Node10 -->
<g id="node11" class="node">
<title>Node10</title>
<g id="a_node11"><a xlink:href="Logger_8h.html" target="_top" xlink:title="BayesFilters/Logger.h">
<polygon fill="#ffffff" stroke="#000000" points="85.6382,-110.5 85.6382,-128.5 198.3618,-128.5 198.3618,-110.5 85.6382,-110.5"/>
<text text-anchor="middle" x="142" y="-116.5" font-family="Helvetica,sans-Serif" font-size="10.00" fill="#000000">BayesFilters/Logger.h</text>
</a>
</g>
</g>
<!-- Node2&#45;&gt;Node10 -->
<g id="edge10" class="edge">
<title>Node2&#45;&gt;Node10</title>
<path fill="none" stroke="#191970" d="M198.463,-165.2808C187.1824,-156.1344 172.5275,-144.252 160.975,-134.8851"/>
<polygon fill="#191970" stroke="#191970" points="163.1757,-132.1636 153.2038,-128.5842 158.7671,-137.6009 163.1757,-132.1636"/>
</g>
<!-- Node13 -->
<g id="node14" class="node">
<title>Node13</title>
<polygon fill="#ffffff" stroke="#bfbfbf" points="205.7734,-55.5 205.7734,-73.5 246.2266,-73.5 246.2266,-55.5 205.7734,-55.5"/>
<text text-anchor="middle" x="226" y="-61.5" font-family="Helvetica,sans-Serif" font-size="10.00" fill="#000000">string</text>
</g>
<!-- Node2&#45;&gt;Node13 -->
<g id="edge16" class="edge">
<title>Node2&#45;&gt;Node13</title>
<path fill="none" stroke="#191970" d="M217.2262,-165.3987C219.01,-144.8847 222.326,-106.7512 224.331,-83.6935"/>
<polygon fill="#191970" stroke="#191970" points="227.818,-83.9943 225.1975,-73.7286 220.8443,-83.3878 227.818,-83.9943"/>
</g>
<!-- Node2&#45;&gt;Node15 -->
<g id="edge17" class="edge">
<title>Node2&#45;&gt;Node15</title>
<path fill="none" stroke="#191970" d="M258.3236,-165.4001C286.4155,-156.0291 324.3551,-143.3496 365.7008,-129.4293"/>
<polygon fill="#191970" stroke="#191970" points="367.0621,-132.6641 375.4216,-126.1548 364.8275,-126.0303 367.0621,-132.6641"/>
</g>
<!-- Node2&#45;&gt;Node16 -->
<g id="edge18" class="edge">
<title>Node2&#45;&gt;Node16</title>
<path fill="none" stroke="#191970" d="M275.3173,-165.4327C320.2483,-154.7771 381.109,-140.3437 422.5358,-130.5192"/>
<polygon fill="#191970" stroke="#191970" points="423.4444,-133.9009 432.3669,-128.1877 421.8291,-127.0898 423.4444,-133.9009"/>
</g>
<!-- Node4 -->
<g id="node5" class="node">
<title>Node4</title>
<g id="a_node5"><a xlink:href="any_8h.html" target="_top" xlink:title="BayesFilters/any.h">
<polygon fill="#ffffff" stroke="#000000" points="264.2407,-55.5 264.2407,-73.5 361.7593,-73.5 361.7593,-55.5 264.2407,-55.5"/>
<text text-anchor="middle" x="313" y="-61.5" font-family="Helvetica,sans-Serif" font-size="10.00" fill="#000000">BayesFilters/any.h</text>
</a>
</g>
</g>
<!-- Node3&#45;&gt;Node4 -->
<g id="edge4" class="edge">
<title>Node3&#45;&gt;Node4</title>
<path fill="none" stroke="#191970" d="M307.1559,-110.4179C308.0725,-103.2164 309.3859,-92.8962 310.5356,-83.8632"/>
<polygon fill="#191970" stroke="#191970" points="314.0283,-84.1414 311.819,-73.7795 307.0844,-83.2575 314.0283,-84.1414"/>
</g>
<!-- Node5 -->
<g id="node6" class="node">
<title>Node5</title>
<polygon fill="#ffffff" stroke="#bfbfbf" points="171.436,-.5 171.436,-18.5 228.564,-18.5 228.564,-.5 171.436,-.5"/>
<text text-anchor="middle" x="200" y="-6.5" font-family="Helvetica,sans-Serif" font-size="10.00" fill="#000000">algorithm</text>
</g>
<!-- Node4&#45;&gt;Node5 -->
<g id="edge5" class="edge">
<title>Node4&#45;&gt;Node5</title>
<path fill="none" stroke="#191970" d="M294.3403,-55.4179C276.2658,-46.6205 248.6292,-33.1691 227.9328,-23.0956"/>
<polygon fill="#191970" stroke="#191970" points="229.2106,-19.825 218.6874,-18.5956 226.1471,-26.1191 229.2106,-19.825"/>
</g>
<!-- Node4&#45;&gt;Node6 -->
<g id="edge6" class="edge">
<title>Node4&#45;&gt;Node6</title>
<path fill="none" stroke="#191970" d="M267.8973,-55.4795C213.8393,-44.6679 124.3185,-26.7637 74.4332,-16.7866"/>
<polygon fill="#191970" stroke="#191970" points="74.9091,-13.3126 64.4169,-14.7834 73.5363,-20.1766 74.9091,-13.3126"/>
</g>
<!-- Node7 -->
<g id="node8" class="node">
<title>Node7</title>
<polygon fill="#ffffff" stroke="#bfbfbf" points="246.5986,-.5 246.5986,-18.5 305.4014,-18.5 305.4014,-.5 246.5986,-.5"/>
<text text-anchor="middle" x="276" y="-6.5" font-family="Helvetica,sans-Serif" font-size="10.00" fill="#000000">stdexcept</text>
</g>
<!-- Node4&#45;&gt;Node7 -->
<g id="edge7" class="edge">
<title>Node4&#45;&gt;Node7</title>
<path fill="none" stroke="#191970" d="M306.8902,-55.4179C301.7261,-47.7415 294.1782,-36.5217 287.8363,-27.0945"/>
<polygon fill="#191970" stroke="#191970" points="290.7284,-25.1231 282.2425,-18.7795 284.9203,-29.0303 290.7284,-25.1231"/>
</g>
<!-- Node8 -->
<g id="node9" class="node">
<title>Node8</title>
<polygon fill="#ffffff" stroke="#bfbfbf" points="323.4878,-.5 323.4878,-18.5 374.5122,-18.5 374.5122,-.5 323.4878,-.5"/>
<text text-anchor="middle" x="349" y="-6.5" font-family="Helvetica,sans-Serif" font-size="10.00" fill="#000000">typeinfo</text>
</g>
<!-- Node4&#45;&gt;Node8 -->
<g id="edge8" class="edge">
<title>Node4&#45;&gt;Node8</title>
<path fill="none" stroke="#191970" d="M318.9447,-55.4179C323.9174,-47.8207 331.1619,-36.7527 337.2924,-27.3866"/>
<polygon fill="#191970" stroke="#191970" points="340.378,-29.0633 342.9262,-18.7795 334.5211,-25.2297 340.378,-29.0633"/>
</g>
<!-- Node9 -->
<g id="node10" class="node">
<title>Node9</title>
<polygon fill="#ffffff" stroke="#bfbfbf" points="392.9336,-.5 392.9336,-18.5 455.0664,-18.5 455.0664,-.5 392.9336,-.5"/>
<text text-anchor="middle" x="424" y="-6.5" font-family="Helvetica,sans-Serif" font-size="10.00" fill="#000000">type_traits</text>
</g>
<!-- Node4&#45;&gt;Node9 -->
<g id="edge9" class="edge">
<title>Node4&#45;&gt;Node9</title>
<path fill="none" stroke="#191970" d="M331.3294,-55.4179C349.0841,-46.6205 376.2314,-33.1691 396.5616,-23.0956"/>
<polygon fill="#191970" stroke="#191970" points="398.237,-26.1716 405.6434,-18.5956 395.1291,-19.8994 398.237,-26.1716"/>
</g>
<!-- Node11 -->
<g id="node12" class="node">
<title>Node11</title>
<polygon fill="#ffffff" stroke="#bfbfbf" points="66.3301,-55.5 66.3301,-73.5 115.6699,-73.5 115.6699,-55.5 66.3301,-55.5"/>
<text text-anchor="middle" x="91" y="-61.5" font-family="Helvetica,sans-Serif" font-size="10.00" fill="#000000">fstream</text>
</g>
<!-- Node10&#45;&gt;Node11 -->
<g id="edge11" class="edge">
<title>Node10&#45;&gt;Node11</title>
<path fill="none" stroke="#191970" d="M133.5784,-110.4179C126.2402,-102.5041 115.4098,-90.8243 106.5087,-81.2251"/>
<polygon fill="#191970" stroke="#191970" points="108.9705,-78.7324 99.6046,-73.7795 103.8376,-83.492 108.9705,-78.7324"/>
</g>
<!-- Node12 -->
<g id="node13" class="node">
<title>Node12</title>
<polygon fill="#ffffff" stroke="#bfbfbf" points="133.8276,-55.5 133.8276,-73.5 188.1724,-73.5 188.1724,-55.5 133.8276,-55.5"/>
<text text-anchor="middle" x="161" y="-61.5" font-family="Helvetica,sans-Serif" font-size="10.00" fill="#000000">iostream</text>
</g>
<!-- Node10&#45;&gt;Node12 -->
<g id="edge12" class="edge">
<title>Node10&#45;&gt;Node12</title>
<path fill="none" stroke="#191970" d="M145.1375,-110.4179C147.6799,-103.0581 151.3476,-92.441 154.516,-83.2695"/>
<polygon fill="#191970" stroke="#191970" points="157.8373,-84.3742 157.7944,-73.7795 151.2209,-82.0885 157.8373,-84.3742"/>
</g>
<!-- Node10&#45;&gt;Node13 -->
<g id="edge13" class="edge">
<title>Node10&#45;&gt;Node13</title>
<path fill="none" stroke="#191970" d="M155.8709,-110.4179C168.7597,-101.9788 188.1894,-89.257 203.3314,-79.3426"/>
<polygon fill="#191970" stroke="#191970" points="205.6596,-82.0017 212.1085,-73.5956 201.825,-76.1454 205.6596,-82.0017"/>
</g>
<!-- Node14 -->
<g id="node15" class="node">
<title>Node14</title>
<polygon fill="#ffffff" stroke="#bfbfbf" points="518.3843,-55.5 518.3843,-73.5 561.6157,-73.5 561.6157,-55.5 518.3843,-55.5"/>
<text text-anchor="middle" x="540" y="-61.5" font-family="Helvetica,sans-Serif" font-size="10.00" fill="#000000">vector</text>
</g>
<!-- Node10&#45;&gt;Node14 -->
<g id="edge14" class="edge">
<title>Node10&#45;&gt;Node14</title>
<path fill="none" stroke="#191970" d="M198.601,-111.6783C283.5492,-99.9392 441.197,-78.1537 508.3657,-68.8716"/>
<polygon fill="#191970" stroke="#191970" points="508.9173,-72.3287 518.3441,-67.4927 507.959,-65.3946 508.9173,-72.3287"/>
</g>
<!-- Node18&#45;&gt;Node14 -->
<g id="edge25" class="edge">
<title>Node18&#45;&gt;Node14</title>
<path fill="none" stroke="#191970" d="M576.7651,-230.3766C595.5786,-223.6426 616.8215,-212.3642 628,-194 653.9486,-151.3715 597.418,-103.2814 563.3644,-79.4882"/>
<polygon fill="#191970" stroke="#191970" points="565.0892,-76.429 554.8484,-73.7129 561.1602,-82.2224 565.0892,-76.429"/>
</g>
<!-- Node19 -->
<g id="node20" class="node">
<title>Node19</title>
<g id="a_node20"><a xlink:href="GaussianMixture_8h.html" target="_top" xlink:title="BayesFilters/GaussianMixture.h">
<polygon fill="#ffffff" stroke="#000000" points="461.4189,-170.5 461.4189,-188.5 618.5811,-188.5 618.5811,-170.5 461.4189,-170.5"/>
<text text-anchor="middle" x="540" y="-176.5" font-family="Helvetica,sans-Serif" font-size="10.00" fill="#000000">BayesFilters/GaussianMixture.h</text>
</a>
</g>
</g>
<!-- Node18&#45;&gt;Node19 -->
<g id="edge22" class="edge">
<title>Node18&#45;&gt;Node19</title>
<path fill="none" stroke="#191970" d="M540,-230.3873C540,-222.0174 540,-209.3414 540,-198.735"/>
<polygon fill="#191970" stroke="#191970" points="543.5001,-198.6984 540,-188.6985 536.5001,-198.6985 543.5001,-198.6984"/>
</g>
<!-- Node19&#45;&gt;Node14 -->
<g id="edge23" class="edge">
<title>Node19&#45;&gt;Node14</title>
<path fill="none" stroke="#191970" d="M540,-170.4761C540,-151.9256 540,-109.142 540,-83.9748"/>
<polygon fill="#191970" stroke="#191970" points="543.5001,-83.8013 540,-73.8014 536.5001,-83.8014 543.5001,-83.8013"/>
</g>
<!-- Node19&#45;&gt;Node16 -->
<g id="edge24" class="edge">
<title>Node19&#45;&gt;Node16</title>
<path fill="none" stroke="#191970" d="M529.2166,-170.3873C518.2697,-161.1364 501.0979,-146.625 487.8882,-135.4618"/>
<polygon fill="#191970" stroke="#191970" points="489.7819,-132.4798 479.8849,-128.6985 485.2637,-137.8264 489.7819,-132.4798"/>
</g>
</g>
</svg>
