<?xml version="1.0" encoding="UTF-8" standalone="no"?>
<!DOCTYPE svg PUBLIC "-//W3C//DTD SVG 1.1//EN"
 "http://www.w3.org/Graphics/SVG/1.1/DTD/svg11.dtd">
<!-- Generated by graphviz version 2.40.1 (20161225.0304)
 -->
<!-- Title: /Users/Claudio/GitHub/bayes&#45;filters&#45;lib/src/BayesFilters/src/PFCorrection.cpp Pages: 1 -->
<!--zoomable 387 -->
<svg id="main" version="1.1" xmlns="http://www.w3.org/2000/svg" xmlns:xlink="http://www.w3.org/1999/xlink" xml:space="preserve" onload="init(evt)">
<style type="text/css"><![CDATA[
.edge:hover path { stroke: red; }
.edge:hover polygon { stroke: red; fill: red; }
]]></style>
<script type="text/javascript"><![CDATA[
var edges = document.getElementsByTagName('g');
if (edges && edges.length) {
  for (var i=0;i<edges.length;i++) {
    if (edges[i].id.substr(0,4)=='edge') {
      edges[i].setAttribute('class','edge');
    }
  }
}
]]></script>
        <defs>
                <circle id="rim" cx="0" cy="0" r="7"/>
                <circle id="rim2" cx="0" cy="0" r="3.5"/>
                <g id="zoomPlus">
                        <use xlink:href="#rim" fill="#404040">
                                <set attributeName="fill" to="#808080" begin="zoomplus.mouseover" end="zoomplus.mouseout"/>
                        </use>
                        <path d="M-4,0h8M0,-4v8" fill="none" stroke="white" stroke-width="1.5" pointer-events="none"/>
                </g>
                <g id="zoomMin">
                        <use xlink:href="#rim" fill="#404040">
                                <set attributeName="fill" to="#808080" begin="zoomminus.mouseover" end="zoomminus.mouseout"/>
                        </use>
                        <path d="M-4,0h8" fill="none" stroke="white" stroke-width="1.5" pointer-events="none"/>
                </g>
                <g id="dirArrow">
                        <path fill="none" stroke="white" stroke-width="1.5" d="M0,-3.0v7 M-2.5,-0.5L0,-3.0L2.5,-0.5"/>
                </g>
               <g id="resetDef">
                       <use xlink:href="#rim2" fill="#404040">
                               <set attributeName="fill" to="#808080" begin="reset.mouseover" end="reset.mouseout"/>
                       </use>
               </g>
        </defs>

<script type="text/javascript">
var viewWidth = 643;
var viewHeight = 387;
var sectionId = 'dynsection-0';
</script>
<script xlink:href="svgpan.js"/>
<svg id="graph" class="graph">
<g id="viewport">
<title>/Users/Claudio/GitHub/bayes&#45;filters&#45;lib/src/BayesFilters/src/PFCorrection.cpp</title>
<polygon fill="#ffffff" stroke="transparent" points="-4,4 -4,-383 638.9406,-383 638.9406,4 -4,4"/>
<!-- Node0 -->
<g id="node1" class="node">
<title>Node0</title>
<polygon fill="#bfbfbf" stroke="#000000" points="256.7563,-340.5 256.7563,-378.5 427.2437,-378.5 427.2437,-340.5 256.7563,-340.5"/>
<text text-anchor="start" x="264.7563" y="-366.5" font-family="Helvetica,sans-Serif" font-size="10.00" fill="#000000">/Users/Claudio/GitHub</text>
<text text-anchor="start" x="264.7563" y="-356.5" font-family="Helvetica,sans-Serif" font-size="10.00" fill="#000000">/bayes&#45;filters&#45;lib/src</text>
<text text-anchor="middle" x="342" y="-346.5" font-family="Helvetica,sans-Serif" font-size="10.00" fill="#000000">/BayesFilters/src/PFCorrection.cpp</text>
</g>
<!-- Node1 -->
<g id="node2" class="node">
<title>Node1</title>
<g id="a_node2"><a xlink:href="PFCorrection_8h.html" target="_top" xlink:title="BayesFilters/PFCorrection.h">
<polygon fill="#ffffff" stroke="#000000" points="271.4805,-285.5 271.4805,-303.5 412.5195,-303.5 412.5195,-285.5 271.4805,-285.5"/>
<text text-anchor="middle" x="342" y="-291.5" font-family="Helvetica,sans-Serif" font-size="10.00" fill="#000000">BayesFilters/PFCorrection.h</text>
</a>
</g>
</g>
<!-- Node0&#45;&gt;Node1 -->
<g id="edge1" class="edge">
<title>Node0&#45;&gt;Node1</title>
<path fill="none" stroke="#191970" d="M342,-340.3494C342,-332.0079 342,-322.2463 342,-313.879"/>
<polygon fill="#191970" stroke="#191970" points="345.5001,-313.5978 342,-303.5978 338.5001,-313.5979 345.5001,-313.5978"/>
</g>
<!-- Node2 -->
<g id="node3" class="node">
<title>Node2</title>
<g id="a_node3"><a xlink:href="LikelihoodModel_8h.html" target="_top" xlink:title="BayesFilters/LikelihoodModel.h">
<polygon fill="#ffffff" stroke="#000000" points="212.7983,-230.5 212.7983,-248.5 367.2017,-248.5 367.2017,-230.5 212.7983,-230.5"/>
<text text-anchor="middle" x="290" y="-236.5" font-family="Helvetica,sans-Serif" font-size="10.00" fill="#000000">BayesFilters/LikelihoodModel.h</text>
</a>
</g>
</g>
<!-- Node1&#45;&gt;Node2 -->
<g id="edge2" class="edge">
<title>Node1&#45;&gt;Node2</title>
<path fill="none" stroke="#191970" d="M333.4133,-285.4179C325.9312,-277.5041 314.8884,-265.8243 305.8128,-256.2251"/>
<polygon fill="#191970" stroke="#191970" points="308.1867,-253.6414 298.7733,-248.7795 303.1002,-258.4505 308.1867,-253.6414"/>
</g>
<!-- Node3 -->
<g id="node4" class="node">
<title>Node3</title>
<g id="a_node4"><a xlink:href="MeasurementModel_8h.html" target="_top" xlink:title="BayesFilters/Measurement\lModel.h">
<polygon fill="#ffffff" stroke="#000000" points="148.5347,-165.5 148.5347,-193.5 283.4653,-193.5 283.4653,-165.5 148.5347,-165.5"/>
<text text-anchor="start" x="156.5347" y="-181.5" font-family="Helvetica,sans-Serif" font-size="10.00" fill="#000000">BayesFilters/Measurement</text>
<text text-anchor="middle" x="216" y="-171.5" font-family="Helvetica,sans-Serif" font-size="10.00" fill="#000000">Model.h</text>
</a>
</g>
</g>
<!-- Node1&#45;&gt;Node3 -->
<g id="edge21" class="edge">
<title>Node1&#45;&gt;Node3</title>
<path fill="none" stroke="#191970" d="M296.3169,-285.4428C260.5607,-277.317 215.0879,-264.3308 204,-249 194.4384,-235.7795 198.0817,-217.4922 203.7739,-202.9946"/>
<polygon fill="#191970" stroke="#191970" points="207.0535,-204.2326 207.9049,-193.672 200.6537,-201.3967 207.0535,-204.2326"/>
</g>
<!-- Node7 -->
<g id="node8" class="node">
<title>Node7</title>
<polygon fill="#ffffff" stroke="#bfbfbf" points="11.9434,-.5 11.9434,-18.5 64.0566,-18.5 64.0566,-.5 11.9434,-.5"/>
<text text-anchor="middle" x="38" y="-6.5" font-family="Helvetica,sans-Serif" font-size="10.00" fill="#000000">memory</text>
</g>
<!-- Node1&#45;&gt;Node7 -->
<g id="edge27" class="edge">
<title>Node1&#45;&gt;Node7</title>
<path fill="none" stroke="#191970" d="M272.379,-285.4557C172.3832,-270.4865 0,-236.4258 0,-179.5 0,-179.5 0,-179.5 0,-119.5 0,-85.4876 16.4315,-48.6418 27.6845,-27.3963"/>
<polygon fill="#191970" stroke="#191970" points="30.7984,-28.9975 32.5555,-18.5493 24.6664,-25.6213 30.7984,-28.9975"/>
</g>
<!-- Node16 -->
<g id="node17" class="node">
<title>Node16</title>
<polygon fill="#ffffff" stroke="#bfbfbf" points="375.6084,-110.5 375.6084,-128.5 414.3916,-128.5 414.3916,-110.5 375.6084,-110.5"/>
<text text-anchor="middle" x="395" y="-116.5" font-family="Helvetica,sans-Serif" font-size="10.00" fill="#000000">utility</text>
</g>
<!-- Node1&#45;&gt;Node16 -->
<g id="edge28" class="edge">
<title>Node1&#45;&gt;Node16</title>
<path fill="none" stroke="#191970" d="M351.117,-285.2655C359.0538,-276.641 370.1743,-263.0243 376,-249 391.3386,-212.0749 394.5678,-164.7287 395.0876,-138.7324"/>
<polygon fill="#191970" stroke="#191970" points="398.5877,-138.7257 395.1709,-128.697 391.588,-138.6676 398.5877,-138.7257"/>
</g>
<!-- Node17 -->
<g id="node18" class="node">
<title>Node17</title>
<polygon fill="#ffffff" stroke="#bfbfbf" points="432.3696,-110.5 432.3696,-128.5 505.6304,-128.5 505.6304,-110.5 432.3696,-110.5"/>
<text text-anchor="middle" x="469" y="-116.5" font-family="Helvetica,sans-Serif" font-size="10.00" fill="#000000">Eigen/Dense</text>
</g>
<!-- Node1&#45;&gt;Node17 -->
<g id="edge29" class="edge">
<title>Node1&#45;&gt;Node17</title>
<path fill="none" stroke="#191970" d="M354.3211,-285.3175C365.3145,-276.7281 381.4175,-263.1335 393,-249 422.6119,-212.8661 448.0091,-163.86 460.581,-137.7117"/>
<polygon fill="#191970" stroke="#191970" points="463.7831,-139.1274 464.8894,-128.5905 457.4536,-136.1377 463.7831,-139.1274"/>
</g>
<!-- Node19 -->
<g id="node20" class="node">
<title>Node19</title>
<g id="a_node20"><a xlink:href="ParticleSet_8h.html" target="_top" xlink:title="BayesFilters/ParticleSet.h">
<polygon fill="#ffffff" stroke="#000000" points="474.7563,-230.5 474.7563,-248.5 605.2437,-248.5 605.2437,-230.5 474.7563,-230.5"/>
<text text-anchor="middle" x="540" y="-236.5" font-family="Helvetica,sans-Serif" font-size="10.00" fill="#000000">BayesFilters/ParticleSet.h</text>
</a>
</g>
</g>
<!-- Node1&#45;&gt;Node19 -->
<g id="edge22" class="edge">
<title>Node1&#45;&gt;Node19</title>
<path fill="none" stroke="#191970" d="M374.6957,-285.4179C408.3296,-276.0751 460.8597,-261.4834 497.6533,-251.263"/>
<polygon fill="#191970" stroke="#191970" points="498.8864,-254.553 507.5848,-248.5042 497.0129,-247.8084 498.8864,-254.553"/>
</g>
<!-- Node2&#45;&gt;Node3 -->
<g id="edge3" class="edge">
<title>Node2&#45;&gt;Node3</title>
<path fill="none" stroke="#191970" d="M278.761,-230.3873C268.8772,-222.3734 254.1247,-210.4119 241.4056,-200.0991"/>
<polygon fill="#191970" stroke="#191970" points="243.3844,-197.1977 233.4125,-193.6183 238.9758,-202.635 243.3844,-197.1977"/>
</g>
<!-- Node18 -->
<g id="node19" class="node">
<title>Node18</title>
<polygon fill="#ffffff" stroke="#bfbfbf" points="300.9854,-170.5 300.9854,-188.5 367.0146,-188.5 367.0146,-170.5 300.9854,-170.5"/>
<text text-anchor="middle" x="334" y="-176.5" font-family="Helvetica,sans-Serif" font-size="10.00" fill="#000000">Eigen/Core</text>
</g>
<!-- Node2&#45;&gt;Node18 -->
<g id="edge20" class="edge">
<title>Node2&#45;&gt;Node18</title>
<path fill="none" stroke="#191970" d="M296.6827,-230.3873C303.1436,-221.5769 313.1036,-207.9951 321.1092,-197.0784"/>
<polygon fill="#191970" stroke="#191970" points="324.1632,-198.8323 327.2545,-188.6985 318.5184,-194.6927 324.1632,-198.8323"/>
</g>
<!-- Node4 -->
<g id="node5" class="node">
<title>Node4</title>
<g id="a_node5"><a xlink:href="Data_8h.html" target="_top" xlink:title="BayesFilters/Data.h">
<polygon fill="#ffffff" stroke="#000000" points="254.3721,-110.5 254.3721,-128.5 357.6279,-128.5 357.6279,-110.5 254.3721,-110.5"/>
<text text-anchor="middle" x="306" y="-116.5" font-family="Helvetica,sans-Serif" font-size="10.00" fill="#000000">BayesFilters/Data.h</text>
</a>
</g>
</g>
<!-- Node3&#45;&gt;Node4 -->
<g id="edge4" class="edge">
<title>Node3&#45;&gt;Node4</title>
<path fill="none" stroke="#191970" d="M237.3287,-165.2808C251.3149,-155.9568 269.5657,-143.7895 283.7365,-134.3423"/>
<polygon fill="#191970" stroke="#191970" points="285.9947,-137.0434 292.3737,-128.5842 282.1117,-131.2191 285.9947,-137.0434"/>
</g>
<!-- Node3&#45;&gt;Node7 -->
<g id="edge16" class="edge">
<title>Node3&#45;&gt;Node7</title>
<path fill="none" stroke="#191970" d="M148.2258,-167.5174C123.1307,-160.0939 96.1564,-148.1509 77,-129 49.7082,-101.7161 41.5117,-55.1072 39.0523,-28.8889"/>
<polygon fill="#191970" stroke="#191970" points="42.5279,-28.4298 38.294,-18.7177 35.5472,-28.9502 42.5279,-28.4298"/>
</g>
<!-- Node11 -->
<g id="node12" class="node">
<title>Node11</title>
<g id="a_node12"><a xlink:href="Logger_8h.html" target="_top" xlink:title="BayesFilters/Logger.h">
<polygon fill="#ffffff" stroke="#000000" points="85.6382,-110.5 85.6382,-128.5 198.3618,-128.5 198.3618,-110.5 85.6382,-110.5"/>
<text text-anchor="middle" x="142" y="-116.5" font-family="Helvetica,sans-Serif" font-size="10.00" fill="#000000">BayesFilters/Logger.h</text>
</a>
</g>
</g>
<!-- Node3&#45;&gt;Node11 -->
<g id="edge11" class="edge">
<title>Node3&#45;&gt;Node11</title>
<path fill="none" stroke="#191970" d="M198.463,-165.2808C187.1824,-156.1344 172.5275,-144.252 160.975,-134.8851"/>
<polygon fill="#191970" stroke="#191970" points="163.1757,-132.1636 153.2038,-128.5842 158.7671,-137.6009 163.1757,-132.1636"/>
</g>
<!-- Node14 -->
<g id="node15" class="node">
<title>Node14</title>
<polygon fill="#ffffff" stroke="#bfbfbf" points="205.7734,-55.5 205.7734,-73.5 246.2266,-73.5 246.2266,-55.5 205.7734,-55.5"/>
<text text-anchor="middle" x="226" y="-61.5" font-family="Helvetica,sans-Serif" font-size="10.00" fill="#000000">string</text>
</g>
<!-- Node3&#45;&gt;Node14 -->
<g id="edge17" class="edge">
<title>Node3&#45;&gt;Node14</title>
<path fill="none" stroke="#191970" d="M217.2262,-165.3987C219.01,-144.8847 222.326,-106.7512 224.331,-83.6935"/>
<polygon fill="#191970" stroke="#191970" points="227.818,-83.9943 225.1975,-73.7286 220.8443,-83.3878 227.818,-83.9943"/>
</g>
<!-- Node3&#45;&gt;Node16 -->
<g id="edge18" class="edge">
<title>Node3&#45;&gt;Node16</title>
<path fill="none" stroke="#191970" d="M258.3236,-165.4001C286.4155,-156.0291 324.3551,-143.3496 365.7008,-129.4293"/>
<polygon fill="#191970" stroke="#191970" points="367.0621,-132.6641 375.4216,-126.1548 364.8275,-126.0303 367.0621,-132.6641"/>
</g>
<!-- Node3&#45;&gt;Node17 -->
<g id="edge19" class="edge">
<title>Node3&#45;&gt;Node17</title>
<path fill="none" stroke="#191970" d="M275.3173,-165.4327C320.2483,-154.7771 381.109,-140.3437 422.5358,-130.5192"/>
<polygon fill="#191970" stroke="#191970" points="423.4444,-133.9009 432.3669,-128.1877 421.8291,-127.0898 423.4444,-133.9009"/>
</g>
<!-- Node5 -->
<g id="node6" class="node">
<title>Node5</title>
<g id="a_node6"><a xlink:href="any_8h.html" target="_top" xlink:title="BayesFilters/any.h">
<polygon fill="#ffffff" stroke="#000000" points="264.2407,-55.5 264.2407,-73.5 361.7593,-73.5 361.7593,-55.5 264.2407,-55.5"/>
<text text-anchor="middle" x="313" y="-61.5" font-family="Helvetica,sans-Serif" font-size="10.00" fill="#000000">BayesFilters/any.h</text>
</a>
</g>
</g>
<!-- Node4&#45;&gt;Node5 -->
<g id="edge5" class="edge">
<title>Node4&#45;&gt;Node5</title>
<path fill="none" stroke="#191970" d="M307.1559,-110.4179C308.0725,-103.2164 309.3859,-92.8962 310.5356,-83.8632"/>
<polygon fill="#191970" stroke="#191970" points="314.0283,-84.1414 311.819,-73.7795 307.0844,-83.2575 314.0283,-84.1414"/>
</g>
<!-- Node6 -->
<g id="node7" class="node">
<title>Node6</title>
<polygon fill="#ffffff" stroke="#bfbfbf" points="171.436,-.5 171.436,-18.5 228.564,-18.5 228.564,-.5 171.436,-.5"/>
<text text-anchor="middle" x="200" y="-6.5" font-family="Helvetica,sans-Serif" font-size="10.00" fill="#000000">algorithm</text>
</g>
<!-- Node5&#45;&gt;Node6 -->
<g id="edge6" class="edge">
<title>Node5&#45;&gt;Node6</title>
<path fill="none" stroke="#191970" d="M294.3403,-55.4179C276.2658,-46.6205 248.6292,-33.1691 227.9328,-23.0956"/>
<polygon fill="#191970" stroke="#191970" points="229.2106,-19.825 218.6874,-18.5956 226.1471,-26.1191 229.2106,-19.825"/>
</g>
<!-- Node5&#45;&gt;Node7 -->
<g id="edge7" class="edge">
<title>Node5&#45;&gt;Node7</title>
<path fill="none" stroke="#191970" d="M267.8973,-55.4795C213.8393,-44.6679 124.3185,-26.7637 74.4332,-16.7866"/>
<polygon fill="#191970" stroke="#191970" points="74.9091,-13.3126 64.4169,-14.7834 73.5363,-20.1766 74.9091,-13.3126"/>
</g>
<!-- Node8 -->
<g id="node9" class="node">
<title>Node8</title>
<polygon fill="#ffffff" stroke="#bfbfbf" points="246.5986,-.5 246.5986,-18.5 305.4014,-18.5 305.4014,-.5 246.5986,-.5"/>
<text text-anchor="middle" x="276" y="-6.5" font-family="Helvetica,sans-Serif" font-size="10.00" fill="#000000">stdexcept</text>
</g>
<!-- Node5&#45;&gt;Node8 -->
<g id="edge8" class="edge">
<title>Node5&#45;&gt;Node8</title>
<path fill="none" stroke="#191970" d="M306.8902,-55.4179C301.7261,-47.7415 294.1782,-36.5217 287.8363,-27.0945"/>
<polygon fill="#191970" stroke="#191970" points="290.7284,-25.1231 282.2425,-18.7795 284.9203,-29.0303 290.7284,-25.1231"/>
</g>
<!-- Node9 -->
<g id="node10" class="node">
<title>Node9</title>
<polygon fill="#ffffff" stroke="#bfbfbf" points="323.4878,-.5 323.4878,-18.5 374.5122,-18.5 374.5122,-.5 323.4878,-.5"/>
<text text-anchor="middle" x="349" y="-6.5" font-family="Helvetica,sans-Serif" font-size="10.00" fill="#000000">typeinfo</text>
</g>
<!-- Node5&#45;&gt;Node9 -->
<g id="edge9" class="edge">
<title>Node5&#45;&gt;Node9</title>
<path fill="none" stroke="#191970" d="M318.9447,-55.4179C323.9174,-47.8207 331.1619,-36.7527 337.2924,-27.3866"/>
<polygon fill="#191970" stroke="#191970" points="340.378,-29.0633 342.9262,-18.7795 334.5211,-25.2297 340.378,-29.0633"/>
</g>
<!-- Node10 -->
<g id="node11" class="node">
<title>Node10</title>
<polygon fill="#ffffff" stroke="#bfbfbf" points="392.9336,-.5 392.9336,-18.5 455.0664,-18.5 455.0664,-.5 392.9336,-.5"/>
<text text-anchor="middle" x="424" y="-6.5" font-family="Helvetica,sans-Serif" font-size="10.00" fill="#000000">type_traits</text>
</g>
<!-- Node5&#45;&gt;Node10 -->
<g id="edge10" class="edge">
<title>Node5&#45;&gt;Node10</title>
<path fill="none" stroke="#191970" d="M331.3294,-55.4179C349.0841,-46.6205 376.2314,-33.1691 396.5616,-23.0956"/>
<polygon fill="#191970" stroke="#191970" points="398.237,-26.1716 405.6434,-18.5956 395.1291,-19.8994 398.237,-26.1716"/>
</g>
<!-- Node12 -->
<g id="node13" class="node">
<title>Node12</title>
<polygon fill="#ffffff" stroke="#bfbfbf" points="66.3301,-55.5 66.3301,-73.5 115.6699,-73.5 115.6699,-55.5 66.3301,-55.5"/>
<text text-anchor="middle" x="91" y="-61.5" font-family="Helvetica,sans-Serif" font-size="10.00" fill="#000000">fstream</text>
</g>
<!-- Node11&#45;&gt;Node12 -->
<g id="edge12" class="edge">
<title>Node11&#45;&gt;Node12</title>
<path fill="none" stroke="#191970" d="M133.5784,-110.4179C126.2402,-102.5041 115.4098,-90.8243 106.5087,-81.2251"/>
<polygon fill="#191970" stroke="#191970" points="108.9705,-78.7324 99.6046,-73.7795 103.8376,-83.492 108.9705,-78.7324"/>
</g>
<!-- Node13 -->
<g id="node14" class="node">
<title>Node13</title>
<polygon fill="#ffffff" stroke="#bfbfbf" points="133.8276,-55.5 133.8276,-73.5 188.1724,-73.5 188.1724,-55.5 133.8276,-55.5"/>
<text text-anchor="middle" x="161" y="-61.5" font-family="Helvetica,sans-Serif" font-size="10.00" fill="#000000">iostream</text>
</g>
<!-- Node11&#45;&gt;Node13 -->
<g id="edge13" class="edge">
<title>Node11&#45;&gt;Node13</title>
<path fill="none" stroke="#191970" d="M145.1375,-110.4179C147.6799,-103.0581 151.3476,-92.441 154.516,-83.2695"/>
<polygon fill="#191970" stroke="#191970" points="157.8373,-84.3742 157.7944,-73.7795 151.2209,-82.0885 157.8373,-84.3742"/>
</g>
<!-- Node11&#45;&gt;Node14 -->
<g id="edge14" class="edge">
<title>Node11&#45;&gt;Node14</title>
<path fill="none" stroke="#191970" d="M155.8709,-110.4179C168.7597,-101.9788 188.1894,-89.257 203.3314,-79.3426"/>
<polygon fill="#191970" stroke="#191970" points="205.6596,-82.0017 212.1085,-73.5956 201.825,-76.1454 205.6596,-82.0017"/>
</g>
<!-- Node15 -->
<g id="node16" class="node">
<title>Node15</title>
<polygon fill="#ffffff" stroke="#bfbfbf" points="518.3843,-55.5 518.3843,-73.5 561.6157,-73.5 561.6157,-55.5 518.3843,-55.5"/>
<text text-anchor="middle" x="540" y="-61.5" font-family="Helvetica,sans-Serif" font-size="10.00" fill="#000000">vector</text>
</g>
<!-- Node11&#45;&gt;Node15 -->
<g id="edge15" class="edge">
<title>Node11&#45;&gt;Node15</title>
<path fill="none" stroke="#191970" d="M198.601,-111.6783C283.5492,-99.9392 441.197,-78.1537 508.3657,-68.8716"/>
<polygon fill="#191970" stroke="#191970" points="508.9173,-72.3287 518.3441,-67.4927 507.959,-65.3946 508.9173,-72.3287"/>
</g>
<!-- Node19&#45;&gt;Node15 -->
<g id="edge26" class="edge">
<title>Node19&#45;&gt;Node15</title>
<path fill="none" stroke="#191970" d="M576.7651,-230.3766C595.5786,-223.6426 616.8215,-212.3642 628,-194 653.9486,-151.3715 597.418,-103.2814 563.3644,-79.4882"/>
<polygon fill="#191970" stroke="#191970" points="565.0892,-76.429 554.8484,-73.7129 561.1602,-82.2224 565.0892,-76.429"/>
</g>
<!-- Node20 -->
<g id="node21" class="node">
<title>Node20</title>
<g id="a_node21"><a xlink:href="GaussianMixture_8h.html" target="_top" xlink:title="BayesFilters/GaussianMixture.h">
<polygon fill="#ffffff" stroke="#000000" points="461.4189,-170.5 461.4189,-188.5 618.5811,-188.5 618.5811,-170.5 461.4189,-170.5"/>
<text text-anchor="middle" x="540" y="-176.5" font-family="Helvetica,sans-Serif" font-size="10.00" fill="#000000">BayesFilters/GaussianMixture.h</text>
</a>
</g>
</g>
<!-- Node19&#45;&gt;Node20 -->
<g id="edge23" class="edge">
<title>Node19&#45;&gt;Node20</title>
<path fill="none" stroke="#191970" d="M540,-230.3873C540,-222.0174 540,-209.3414 540,-198.735"/>
<polygon fill="#191970" stroke="#191970" points="543.5001,-198.6984 540,-188.6985 536.5001,-198.6985 543.5001,-198.6984"/>
</g>
<!-- Node20&#45;&gt;Node15 -->
<g id="edge24" class="edge">
<title>Node20&#45;&gt;Node15</title>
<path fill="none" stroke="#191970" d="M540,-170.4761C540,-151.9256 540,-109.142 540,-83.9748"/>
<polygon fill="#191970" stroke="#191970" points="543.5001,-83.8013 540,-73.8014 536.5001,-83.8014 543.5001,-83.8013"/>
</g>
<!-- Node20&#45;&gt;Node17 -->
<g id="edge25" class="edge">
<title>Node20&#45;&gt;Node17</title>
<path fill="none" stroke="#191970" d="M529.2166,-170.3873C518.2697,-161.1364 501.0979,-146.625 487.8882,-135.4618"/>
<polygon fill="#191970" stroke="#191970" points="489.7819,-132.4798 479.8849,-128.6985 485.2637,-137.8264 489.7819,-132.4798"/>
</g>
</g>
</svg>
        <g id="navigator" transform="translate(0 0)" fill="#404254">
                <rect fill="#f2f5e9" fill-opacity="0.5" stroke="#606060" stroke-width=".5" x="0" y="0" width="60" height="60"/>
                <use id="zoomplus" xlink:href="#zoomPlus" x="17" y="9" onmousedown="handleZoom(evt,'in')"/>
                <use id="zoomminus" xlink:href="#zoomMin" x="42" y="9" onmousedown="handleZoom(evt,'out')"/>
                <use id="reset" xlink:href="#resetDef" x="30" y="36" onmousedown="handleReset()"/>
                <g id="arrowUp" xlink:href="#dirArrow" transform="translate(30 24)" onmousedown="handlePan(0,-1)">
                  <use xlink:href="#rim" fill="#404040">
                        <set attributeName="fill" to="#808080" begin="arrowUp.mouseover" end="arrowUp.mouseout"/>
                  </use>
                  <path fill="none" stroke="white" stroke-width="1.5" d="M0,-3.0v7 M-2.5,-0.5L0,-3.0L2.5,-0.5"/>
                </g>
                <g id="arrowRight" xlink:href="#dirArrow" transform="rotate(90) translate(36 -43)" onmousedown="handlePan(1,0)">
                  <use xlink:href="#rim" fill="#404040">
                        <set attributeName="fill" to="#808080" begin="arrowRight.mouseover" end="arrowRight.mouseout"/>
                  </use>
                  <path fill="none" stroke="white" stroke-width="1.5" d="M0,-3.0v7 M-2.5,-0.5L0,-3.0L2.5,-0.5"/>
                </g>
                <g id="arrowDown" xlink:href="#dirArrow" transform="rotate(180) translate(-30 -48)" onmousedown="handlePan(0,1)">
                  <use xlink:href="#rim" fill="#404040">
                        <set attributeName="fill" to="#808080" begin="arrowDown.mouseover" end="arrowDown.mouseout"/>
                  </use>
                  <path fill="none" stroke="white" stroke-width="1.5" d="M0,-3.0v7 M-2.5,-0.5L0,-3.0L2.5,-0.5"/>
                </g>
                <g id="arrowLeft" xlink:href="#dirArrow" transform="rotate(270) translate(-36 17)" onmousedown="handlePan(-1,0)">
                  <use xlink:href="#rim" fill="#404040">
                        <set attributeName="fill" to="#808080" begin="arrowLeft.mouseover" end="arrowLeft.mouseout"/>
                  </use>
                  <path fill="none" stroke="white" stroke-width="1.5" d="M0,-3.0v7 M-2.5,-0.5L0,-3.0L2.5,-0.5"/>
                </g>
        </g>
        <svg viewBox="0 0 15 15" width="100%" height="30px" preserveAspectRatio="xMaxYMin meet">
         <g id="arrow_out" transform="scale(0.3 0.3)">
          <a xlink:href="PFCorrection_8cpp__incl_org.svg" target="_base">
           <rect id="button" ry="5" rx="5" y="6" x="6" height="38" width="38"
                fill="#f2f5e9" fill-opacity="0.5" stroke="#606060" stroke-width="1.0"/>
           <path id="arrow"
             d="M 11.500037,31.436501 C 11.940474,20.09759 22.043105,11.32322 32.158766,21.979434 L 37.068811,17.246167 C 37.068811,17.246167 37.088388,32 37.088388,32 L 22.160133,31.978069 C 22.160133,31.978069 26.997745,27.140456 26.997745,27.140456 C 18.528582,18.264221 13.291696,25.230495 11.500037,31.436501 z"
             style="fill:#404040;"/>
          </a>
         </g>
        </svg>
</svg>
