<?xml version="1.0" encoding="UTF-8" standalone="no"?>
<!DOCTYPE svg PUBLIC "-//W3C//DTD SVG 1.1//EN"
 "http://www.w3.org/Graphics/SVG/1.1/DTD/svg11.dtd">
<!-- Generated by graphviz version 2.40.1 (20161225.0304)
 -->
<!-- Title: /Users/Claudio/GitHub/bayes&#45;filters&#45;lib/src/BayesFilters/include/BayesFilters/PFPrediction.h Pages: 1 -->
<!--zoomable 222 -->
<svg id="main" version="1.1" xmlns="http://www.w3.org/2000/svg" xmlns:xlink="http://www.w3.org/1999/xlink" xml:space="preserve" onload="init(evt)">
<style type="text/css"><![CDATA[
.edge:hover path { stroke: red; }
.edge:hover polygon { stroke: red; fill: red; }
]]></style>
<script type="text/javascript"><![CDATA[
var edges = document.getElementsByTagName('g');
if (edges && edges.length) {
  for (var i=0;i<edges.length;i++) {
    if (edges[i].id.substr(0,4)=='edge') {
      edges[i].setAttribute('class','edge');
    }
  }
}
]]></script>
        <defs>
                <circle id="rim" cx="0" cy="0" r="7"/>
                <circle id="rim2" cx="0" cy="0" r="3.5"/>
                <g id="zoomPlus">
                        <use xlink:href="#rim" fill="#404040">
                                <set attributeName="fill" to="#808080" begin="zoomplus.mouseover" end="zoomplus.mouseout"/>
                        </use>
                        <path d="M-4,0h8M0,-4v8" fill="none" stroke="white" stroke-width="1.5" pointer-events="none"/>
                </g>
                <g id="zoomMin">
                        <use xlink:href="#rim" fill="#404040">
                                <set attributeName="fill" to="#808080" begin="zoomminus.mouseover" end="zoomminus.mouseout"/>
                        </use>
                        <path d="M-4,0h8" fill="none" stroke="white" stroke-width="1.5" pointer-events="none"/>
                </g>
                <g id="dirArrow">
                        <path fill="none" stroke="white" stroke-width="1.5" d="M0,-3.0v7 M-2.5,-0.5L0,-3.0L2.5,-0.5"/>
                </g>
               <g id="resetDef">
                       <use xlink:href="#rim2" fill="#404040">
                               <set attributeName="fill" to="#808080" begin="reset.mouseover" end="reset.mouseout"/>
                       </use>
               </g>
        </defs>

<script type="text/javascript">
var viewWidth = 576;
var viewHeight = 222;
var sectionId = 'dynsection-0';
</script>
<script xlink:href="svgpan.js"/>
<svg id="graph" class="graph">
<g id="viewport">
<title>/Users/Claudio/GitHub/bayes&#45;filters&#45;lib/src/BayesFilters/include/BayesFilters/PFPrediction.h</title>
<polygon fill="#ffffff" stroke="transparent" points="-4,4 -4,-218 571.9307,-218 571.9307,4 -4,4"/>
<!-- Node0 -->
<g id="node1" class="node">
<title>Node0</title>
<polygon fill="#bfbfbf" stroke="#000000" points="244.6772,-165.5 244.6772,-213.5 410.731,-213.5 410.731,-165.5 244.6772,-165.5"/>
<text text-anchor="start" x="252.6772" y="-201.5" font-family="Helvetica,sans-Serif" font-size="10.00" fill="#000000">/Users/Claudio/GitHub</text>
<text text-anchor="start" x="252.6772" y="-191.5" font-family="Helvetica,sans-Serif" font-size="10.00" fill="#000000">/bayes&#45;filters&#45;lib/src</text>
<text text-anchor="start" x="252.6772" y="-181.5" font-family="Helvetica,sans-Serif" font-size="10.00" fill="#000000">/BayesFilters/include/BayesFilters</text>
<text text-anchor="middle" x="327.7041" y="-171.5" font-family="Helvetica,sans-Serif" font-size="10.00" fill="#000000">/PFPrediction.h</text>
</g>
<!-- Node1 -->
<g id="node2" class="node">
<title>Node1</title>
<g id="a_node2"><a xlink:href="ExogenousModel_8h.html" target="_top" xlink:title="BayesFilters/ExogenousModel.h">
<polygon fill="#ffffff" stroke="#000000" points="0,-55.5 0,-73.5 159.4082,-73.5 159.4082,-55.5 0,-55.5"/>
<text text-anchor="middle" x="79.7041" y="-61.5" font-family="Helvetica,sans-Serif" font-size="10.00" fill="#000000">BayesFilters/ExogenousModel.h</text>
</a>
</g>
</g>
<!-- Node0&#45;&gt;Node1 -->
<g id="edge1" class="edge">
<title>Node0&#45;&gt;Node1</title>
<path fill="none" stroke="#191970" d="M256.4385,-165.3616C229.8737,-155.371 199.8395,-142.8685 173.7041,-129 146.51,-114.5697 117.6591,-93.8629 99.2045,-79.8343"/>
<polygon fill="#191970" stroke="#191970" points="101.0912,-76.8696 91.0329,-73.5407 96.8199,-82.4155 101.0912,-76.8696"/>
</g>
<!-- Node2 -->
<g id="node3" class="node">
<title>Node2</title>
<polygon fill="#ffffff" stroke="#bfbfbf" points="198.0737,-.5 198.0737,-18.5 271.3345,-18.5 271.3345,-.5 198.0737,-.5"/>
<text text-anchor="middle" x="234.7041" y="-6.5" font-family="Helvetica,sans-Serif" font-size="10.00" fill="#000000">Eigen/Dense</text>
</g>
<!-- Node0&#45;&gt;Node2 -->
<g id="edge10" class="edge">
<title>Node0&#45;&gt;Node2</title>
<path fill="none" stroke="#191970" d="M289.1207,-165.4427C260.3945,-145.0664 223.3841,-112.981 206.7041,-74 199.8366,-57.9508 209.3782,-39.7058 219.1396,-26.726"/>
<polygon fill="#191970" stroke="#191970" points="222.1064,-28.6273 225.7337,-18.6727 216.6903,-24.1926 222.1064,-28.6273"/>
</g>
<!-- Node3 -->
<g id="node4" class="node">
<title>Node3</title>
<g id="a_node4"><a xlink:href="ParticleSet_8h.html" target="_top" xlink:title="BayesFilters/ParticleSet.h">
<polygon fill="#ffffff" stroke="#000000" points="309.4604,-110.5 309.4604,-128.5 439.9478,-128.5 439.9478,-110.5 309.4604,-110.5"/>
<text text-anchor="middle" x="374.7041" y="-116.5" font-family="Helvetica,sans-Serif" font-size="10.00" fill="#000000">BayesFilters/ParticleSet.h</text>
</a>
</g>
</g>
<!-- Node0&#45;&gt;Node3 -->
<g id="edge3" class="edge">
<title>Node0&#45;&gt;Node3</title>
<path fill="none" stroke="#191970" d="M343.8788,-165.41C350.1189,-156.1162 357.1247,-145.6821 362.8786,-137.1124"/>
<polygon fill="#191970" stroke="#191970" points="365.8669,-138.9405 368.5355,-128.6872 360.0554,-135.0384 365.8669,-138.9405"/>
</g>
<!-- Node6 -->
<g id="node7" class="node">
<title>Node6</title>
<g id="a_node7"><a xlink:href="StateModel_8h.html" target="_top" xlink:title="BayesFilters/StateModel.h">
<polygon fill="#ffffff" stroke="#000000" points="215.3447,-55.5 215.3447,-73.5 348.0635,-73.5 348.0635,-55.5 215.3447,-55.5"/>
<text text-anchor="middle" x="281.7041" y="-61.5" font-family="Helvetica,sans-Serif" font-size="10.00" fill="#000000">BayesFilters/StateModel.h</text>
</a>
</g>
</g>
<!-- Node0&#45;&gt;Node6 -->
<g id="edge8" class="edge">
<title>Node0&#45;&gt;Node6</title>
<path fill="none" stroke="#191970" d="M316.0493,-165.3728C310.9862,-154.4122 305.1988,-141.1953 300.7041,-129 295.1532,-113.9391 290.084,-96.4495 286.5803,-83.4851"/>
<polygon fill="#191970" stroke="#191970" points="289.9637,-82.5887 284.0293,-73.8119 283.1951,-84.3738 289.9637,-82.5887"/>
</g>
<!-- Node7 -->
<g id="node8" class="node">
<title>Node7</title>
<polygon fill="#ffffff" stroke="#bfbfbf" points="457.6475,-110.5 457.6475,-128.5 509.7607,-128.5 509.7607,-110.5 457.6475,-110.5"/>
<text text-anchor="middle" x="483.7041" y="-116.5" font-family="Helvetica,sans-Serif" font-size="10.00" fill="#000000">memory</text>
</g>
<!-- Node0&#45;&gt;Node7 -->
<g id="edge11" class="edge">
<title>Node0&#45;&gt;Node7</title>
<path fill="none" stroke="#191970" d="M381.3905,-165.41C405.89,-154.4166 433.9453,-141.8277 454.4738,-132.6162"/>
<polygon fill="#191970" stroke="#191970" points="455.9261,-135.8008 463.6168,-128.5136 453.0603,-129.4143 455.9261,-135.8008"/>
</g>
<!-- Node8 -->
<g id="node9" class="node">
<title>Node8</title>
<polygon fill="#ffffff" stroke="#bfbfbf" points="527.4775,-110.5 527.4775,-128.5 567.9307,-128.5 567.9307,-110.5 527.4775,-110.5"/>
<text text-anchor="middle" x="547.7041" y="-116.5" font-family="Helvetica,sans-Serif" font-size="10.00" fill="#000000">string</text>
</g>
<!-- Node0&#45;&gt;Node8 -->
<g id="edge12" class="edge">
<title>Node0&#45;&gt;Node8</title>
<path fill="none" stroke="#191970" d="M404.4324,-165.3849C436.8721,-155.1442 475.2826,-142.9601 517.7312,-129.295"/>
<polygon fill="#191970" stroke="#191970" points="518.9864,-132.5678 527.4309,-126.1693 516.8393,-125.9052 518.9864,-132.5678"/>
</g>
<!-- Node1&#45;&gt;Node2 -->
<g id="edge2" class="edge">
<title>Node1&#45;&gt;Node2</title>
<path fill="none" stroke="#191970" d="M105.2992,-55.4179C131.0662,-46.2748 171.0002,-32.1046 199.6909,-21.924"/>
<polygon fill="#191970" stroke="#191970" points="201.0748,-25.1469 209.3286,-18.5042 198.7339,-18.5499 201.0748,-25.1469"/>
</g>
<!-- Node4 -->
<g id="node5" class="node">
<title>Node4</title>
<g id="a_node5"><a xlink:href="GaussianMixture_8h.html" target="_top" xlink:title="BayesFilters/GaussianMixture.h">
<polygon fill="#ffffff" stroke="#000000" points="366.123,-55.5 366.123,-73.5 523.2852,-73.5 523.2852,-55.5 366.123,-55.5"/>
<text text-anchor="middle" x="444.7041" y="-61.5" font-family="Helvetica,sans-Serif" font-size="10.00" fill="#000000">BayesFilters/GaussianMixture.h</text>
</a>
</g>
</g>
<!-- Node3&#45;&gt;Node4 -->
<g id="edge4" class="edge">
<title>Node3&#45;&gt;Node4</title>
<path fill="none" stroke="#191970" d="M386.2632,-110.4179C396.7381,-102.1876 412.3973,-89.8839 424.8705,-80.0836"/>
<polygon fill="#191970" stroke="#191970" points="427.1931,-82.7098 432.8939,-73.7795 422.8683,-77.2056 427.1931,-82.7098"/>
</g>
<!-- Node5 -->
<g id="node6" class="node">
<title>Node5</title>
<polygon fill="#ffffff" stroke="#bfbfbf" points="476.0884,-.5 476.0884,-18.5 519.3198,-18.5 519.3198,-.5 476.0884,-.5"/>
<text text-anchor="middle" x="497.7041" y="-6.5" font-family="Helvetica,sans-Serif" font-size="10.00" fill="#000000">vector</text>
</g>
<!-- Node3&#45;&gt;Node5 -->
<g id="edge7" class="edge">
<title>Node3&#45;&gt;Node5</title>
<path fill="none" stroke="#191970" d="M431.8717,-110.4227C471.8973,-102.7649 520.3445,-90.4211 532.7041,-74 544.2108,-58.7121 530.1699,-39.1624 516.597,-25.6132"/>
<polygon fill="#191970" stroke="#191970" points="518.9666,-23.0373 509.2698,-18.7684 514.1881,-28.1525 518.9666,-23.0373"/>
</g>
<!-- Node4&#45;&gt;Node2 -->
<g id="edge6" class="edge">
<title>Node4&#45;&gt;Node2</title>
<path fill="none" stroke="#191970" d="M410.0269,-55.4179C374.2021,-46.0352 318.1642,-31.3586 279.1179,-21.1322"/>
<polygon fill="#191970" stroke="#191970" points="279.6443,-17.6521 269.0838,-18.5042 277.8708,-24.4237 279.6443,-17.6521"/>
</g>
<!-- Node4&#45;&gt;Node5 -->
<g id="edge5" class="edge">
<title>Node4&#45;&gt;Node5</title>
<path fill="none" stroke="#191970" d="M453.456,-55.4179C461.0819,-47.5041 472.337,-35.8243 481.5872,-26.2251"/>
<polygon fill="#191970" stroke="#191970" points="484.3434,-28.4089 488.7621,-18.7795 479.3028,-23.5516 484.3434,-28.4089"/>
</g>
<!-- Node6&#45;&gt;Node2 -->
<g id="edge9" class="edge">
<title>Node6&#45;&gt;Node2</title>
<path fill="none" stroke="#191970" d="M273.943,-55.4179C267.248,-47.5833 257.3987,-36.0575 249.2431,-26.5137"/>
<polygon fill="#191970" stroke="#191970" points="251.7912,-24.108 242.6338,-18.7795 246.4696,-28.6556 251.7912,-24.108"/>
</g>
</g>
</svg>
        <g id="navigator" transform="translate(0 0)" fill="#404254">
                <rect fill="#f2f5e9" fill-opacity="0.5" stroke="#606060" stroke-width=".5" x="0" y="0" width="60" height="60"/>
                <use id="zoomplus" xlink:href="#zoomPlus" x="17" y="9" onmousedown="handleZoom(evt,'in')"/>
                <use id="zoomminus" xlink:href="#zoomMin" x="42" y="9" onmousedown="handleZoom(evt,'out')"/>
                <use id="reset" xlink:href="#resetDef" x="30" y="36" onmousedown="handleReset()"/>
                <g id="arrowUp" xlink:href="#dirArrow" transform="translate(30 24)" onmousedown="handlePan(0,-1)">
                  <use xlink:href="#rim" fill="#404040">
                        <set attributeName="fill" to="#808080" begin="arrowUp.mouseover" end="arrowUp.mouseout"/>
                  </use>
                  <path fill="none" stroke="white" stroke-width="1.5" d="M0,-3.0v7 M-2.5,-0.5L0,-3.0L2.5,-0.5"/>
                </g>
                <g id="arrowRight" xlink:href="#dirArrow" transform="rotate(90) translate(36 -43)" onmousedown="handlePan(1,0)">
                  <use xlink:href="#rim" fill="#404040">
                        <set attributeName="fill" to="#808080" begin="arrowRight.mouseover" end="arrowRight.mouseout"/>
                  </use>
                  <path fill="none" stroke="white" stroke-width="1.5" d="M0,-3.0v7 M-2.5,-0.5L0,-3.0L2.5,-0.5"/>
                </g>
                <g id="arrowDown" xlink:href="#dirArrow" transform="rotate(180) translate(-30 -48)" onmousedown="handlePan(0,1)">
                  <use xlink:href="#rim" fill="#404040">
                        <set attributeName="fill" to="#808080" begin="arrowDown.mouseover" end="arrowDown.mouseout"/>
                  </use>
                  <path fill="none" stroke="white" stroke-width="1.5" d="M0,-3.0v7 M-2.5,-0.5L0,-3.0L2.5,-0.5"/>
                </g>
                <g id="arrowLeft" xlink:href="#dirArrow" transform="rotate(270) translate(-36 17)" onmousedown="handlePan(-1,0)">
                  <use xlink:href="#rim" fill="#404040">
                        <set attributeName="fill" to="#808080" begin="arrowLeft.mouseover" end="arrowLeft.mouseout"/>
                  </use>
                  <path fill="none" stroke="white" stroke-width="1.5" d="M0,-3.0v7 M-2.5,-0.5L0,-3.0L2.5,-0.5"/>
                </g>
        </g>
        <svg viewBox="0 0 15 15" width="100%" height="30px" preserveAspectRatio="xMaxYMin meet">
         <g id="arrow_out" transform="scale(0.3 0.3)">
          <a xlink:href="PFPrediction_8h__incl_org.svg" target="_base">
           <rect id="button" ry="5" rx="5" y="6" x="6" height="38" width="38"
                fill="#f2f5e9" fill-opacity="0.5" stroke="#606060" stroke-width="1.0"/>
           <path id="arrow"
             d="M 11.500037,31.436501 C 11.940474,20.09759 22.043105,11.32322 32.158766,21.979434 L 37.068811,17.246167 C 37.068811,17.246167 37.088388,32 37.088388,32 L 22.160133,31.978069 C 22.160133,31.978069 26.997745,27.140456 26.997745,27.140456 C 18.528582,18.264221 13.291696,25.230495 11.500037,31.436501 z"
             style="fill:#404040;"/>
          </a>
         </g>
        </svg>
</svg>
