<?xml version="1.0" encoding="UTF-8" standalone="no"?>
<!DOCTYPE svg PUBLIC "-//W3C//DTD SVG 1.1//EN"
 "http://www.w3.org/Graphics/SVG/1.1/DTD/svg11.dtd">
<!-- Generated by graphviz version 2.40.1 (20161225.0304)
 -->
<!-- Title: /Users/Claudio/GitHub/bayes&#45;filters&#45;lib/src/BayesFilters/include/BayesFilters/PFPrediction.h Pages: 1 -->
<svg width="1032pt" height="302pt"
 viewBox="0.00 0.00 1032.04 302.00" xmlns="http://www.w3.org/2000/svg" xmlns:xlink="http://www.w3.org/1999/xlink">
<g id="graph0" class="graph" transform="scale(1 1) rotate(0) translate(4 298)">
<title>/Users/Claudio/GitHub/bayes&#45;filters&#45;lib/src/BayesFilters/include/BayesFilters/PFPrediction.h</title>
<polygon fill="#ffffff" stroke="transparent" points="-4,4 -4,-298 1028.0439,-298 1028.0439,4 -4,4"/>
<!-- Node9 -->
<g id="node1" class="node">
<title>Node9</title>
<polygon fill="#bfbfbf" stroke="#000000" points="431.6035,-245.5 431.6035,-293.5 597.6572,-293.5 597.6572,-245.5 431.6035,-245.5"/>
<text text-anchor="start" x="439.6035" y="-281.5" font-family="Helvetica,sans-Serif" font-size="10.00" fill="#000000">/Users/Claudio/GitHub</text>
<text text-anchor="start" x="439.6035" y="-271.5" font-family="Helvetica,sans-Serif" font-size="10.00" fill="#000000">/bayes&#45;filters&#45;lib/src</text>
<text text-anchor="start" x="439.6035" y="-261.5" font-family="Helvetica,sans-Serif" font-size="10.00" fill="#000000">/BayesFilters/include/BayesFilters</text>
<text text-anchor="middle" x="514.6304" y="-251.5" font-family="Helvetica,sans-Serif" font-size="10.00" fill="#000000">/PFPrediction.h</text>
</g>
<!-- Node10 -->
<g id="node2" class="node">
<title>Node10</title>
<g id="a_node2"><a xlink:href="DrawParticles_8h.html" target="_top" xlink:title="/Users/Claudio/GitHub\l/bayes&#45;filters&#45;lib/src\l/BayesFilters/include/BayesFilters\l/DrawParticles.h">
<polygon fill="#ffffff" stroke="#000000" points="31.6035,-160.5 31.6035,-208.5 197.6572,-208.5 197.6572,-160.5 31.6035,-160.5"/>
<text text-anchor="start" x="39.6035" y="-196.5" font-family="Helvetica,sans-Serif" font-size="10.00" fill="#000000">/Users/Claudio/GitHub</text>
<text text-anchor="start" x="39.6035" y="-186.5" font-family="Helvetica,sans-Serif" font-size="10.00" fill="#000000">/bayes&#45;filters&#45;lib/src</text>
<text text-anchor="start" x="39.6035" y="-176.5" font-family="Helvetica,sans-Serif" font-size="10.00" fill="#000000">/BayesFilters/include/BayesFilters</text>
<text text-anchor="middle" x="114.6304" y="-166.5" font-family="Helvetica,sans-Serif" font-size="10.00" fill="#000000">/DrawParticles.h</text>
</a>
</g>
</g>
<!-- Node9&#45;&gt;Node10 -->
<g id="edge1" class="edge">
<title>Node9&#45;&gt;Node10</title>
<path fill="none" stroke="#191970" d="M421.593,-252.3191C361.2754,-240.8518 281.0957,-224.9914 210.6304,-209 206.4368,-208.0483 202.1467,-207.0488 197.8191,-206.02"/>
<polygon fill="#191970" stroke="#191970" points="421,-255.7689 431.4769,-254.1927 422.3037,-248.8914 421,-255.7689"/>
</g>
<!-- Node12 -->
<g id="node4" class="node">
<title>Node12</title>
<g id="a_node4"><a xlink:href="GPFPrediction_8h.html" target="_top" xlink:title="/Users/Claudio/GitHub\l/bayes&#45;filters&#45;lib/src\l/BayesFilters/include/BayesFilters\l/GPFPrediction.h">
<polygon fill="#ffffff" stroke="#000000" points="219.6035,-160.5 219.6035,-208.5 385.6572,-208.5 385.6572,-160.5 219.6035,-160.5"/>
<text text-anchor="start" x="227.6035" y="-196.5" font-family="Helvetica,sans-Serif" font-size="10.00" fill="#000000">/Users/Claudio/GitHub</text>
<text text-anchor="start" x="227.6035" y="-186.5" font-family="Helvetica,sans-Serif" font-size="10.00" fill="#000000">/bayes&#45;filters&#45;lib/src</text>
<text text-anchor="start" x="227.6035" y="-176.5" font-family="Helvetica,sans-Serif" font-size="10.00" fill="#000000">/BayesFilters/include/BayesFilters</text>
<text text-anchor="middle" x="302.6304" y="-166.5" font-family="Helvetica,sans-Serif" font-size="10.00" fill="#000000">/GPFPrediction.h</text>
</a>
</g>
</g>
<!-- Node9&#45;&gt;Node12 -->
<g id="edge3" class="edge">
<title>Node9&#45;&gt;Node12</title>
<path fill="none" stroke="#191970" d="M445.1009,-241.6226C418.4971,-230.956 388.4027,-218.8899 362.7504,-208.6047"/>
<polygon fill="#191970" stroke="#191970" points="444.1455,-245.0103 454.7297,-245.4832 446.7505,-238.5131 444.1455,-245.0103"/>
</g>
<!-- Node14 -->
<g id="node6" class="node">
<title>Node14</title>
<g id="a_node6"><a xlink:href="ParticleFilter_8h.html" target="_top" xlink:title="/Users/Claudio/GitHub\l/bayes&#45;filters&#45;lib/src\l/BayesFilters/include/BayesFilters\l/ParticleFilter.h">
<polygon fill="#ffffff" stroke="#000000" points="487.6035,-160.5 487.6035,-208.5 653.6572,-208.5 653.6572,-160.5 487.6035,-160.5"/>
<text text-anchor="start" x="495.6035" y="-196.5" font-family="Helvetica,sans-Serif" font-size="10.00" fill="#000000">/Users/Claudio/GitHub</text>
<text text-anchor="start" x="495.6035" y="-186.5" font-family="Helvetica,sans-Serif" font-size="10.00" fill="#000000">/bayes&#45;filters&#45;lib/src</text>
<text text-anchor="start" x="495.6035" y="-176.5" font-family="Helvetica,sans-Serif" font-size="10.00" fill="#000000">/BayesFilters/include/BayesFilters</text>
<text text-anchor="middle" x="570.6304" y="-166.5" font-family="Helvetica,sans-Serif" font-size="10.00" fill="#000000">/ParticleFilter.h</text>
</a>
</g>
</g>
<!-- Node9&#45;&gt;Node14 -->
<g id="edge5" class="edge">
<title>Node9&#45;&gt;Node14</title>
<path fill="none" stroke="#191970" d="M536.0513,-236.9861C542.2459,-227.5835 548.8959,-217.4897 554.6931,-208.6906"/>
<polygon fill="#191970" stroke="#191970" points="533.1068,-235.0936 530.5279,-245.3698 538.9523,-238.9447 533.1068,-235.0936"/>
</g>
<!-- Node15 -->
<g id="node7" class="node">
<title>Node15</title>
<g id="a_node7"><a xlink:href="SIS_8h.html" target="_top" xlink:title="/Users/Claudio/GitHub\l/bayes&#45;filters&#45;lib/src\l/BayesFilters/include/BayesFilters/SIS.h">
<polygon fill="#ffffff" stroke="#000000" points="385.9854,-80.5 385.9854,-118.5 579.2754,-118.5 579.2754,-80.5 385.9854,-80.5"/>
<text text-anchor="start" x="393.9854" y="-106.5" font-family="Helvetica,sans-Serif" font-size="10.00" fill="#000000">/Users/Claudio/GitHub</text>
<text text-anchor="start" x="393.9854" y="-96.5" font-family="Helvetica,sans-Serif" font-size="10.00" fill="#000000">/bayes&#45;filters&#45;lib/src</text>
<text text-anchor="middle" x="482.6304" y="-86.5" font-family="Helvetica,sans-Serif" font-size="10.00" fill="#000000">/BayesFilters/include/BayesFilters/SIS.h</text>
</a>
</g>
</g>
<!-- Node9&#45;&gt;Node15 -->
<g id="edge11" class="edge">
<title>Node9&#45;&gt;Node15</title>
<path fill="none" stroke="#191970" d="M490.8233,-236.6874C485.8122,-228.0836 481.2523,-218.5337 478.6304,-209 470.2062,-178.3687 474.4752,-141.1037 478.4616,-118.8951"/>
<polygon fill="#191970" stroke="#191970" points="487.9015,-238.6169 496.1465,-245.2706 493.8503,-234.9275 487.9015,-238.6169"/>
</g>
<!-- Node18 -->
<g id="node10" class="node">
<title>Node18</title>
<g id="a_node10"><a xlink:href="PFPredictionDecorator_8h.html" target="_top" xlink:title="/Users/Claudio/GitHub\l/bayes&#45;filters&#45;lib/src\l/BayesFilters/include/BayesFilters\l/PFPredictionDecorator.h">
<polygon fill="#ffffff" stroke="#000000" points="671.6035,-160.5 671.6035,-208.5 837.6572,-208.5 837.6572,-160.5 671.6035,-160.5"/>
<text text-anchor="start" x="679.6035" y="-196.5" font-family="Helvetica,sans-Serif" font-size="10.00" fill="#000000">/Users/Claudio/GitHub</text>
<text text-anchor="start" x="679.6035" y="-186.5" font-family="Helvetica,sans-Serif" font-size="10.00" fill="#000000">/bayes&#45;filters&#45;lib/src</text>
<text text-anchor="start" x="679.6035" y="-176.5" font-family="Helvetica,sans-Serif" font-size="10.00" fill="#000000">/BayesFilters/include/BayesFilters</text>
<text text-anchor="middle" x="754.6304" y="-166.5" font-family="Helvetica,sans-Serif" font-size="10.00" fill="#000000">/PFPredictionDecorator.h</text>
</a>
</g>
</g>
<!-- Node9&#45;&gt;Node18 -->
<g id="edge9" class="edge">
<title>Node9&#45;&gt;Node18</title>
<path fill="none" stroke="#191970" d="M592.1562,-242.043C622.5631,-231.2738 657.1475,-219.0252 686.57,-208.6047"/>
<polygon fill="#191970" stroke="#191970" points="590.7002,-238.8455 582.4424,-245.4832 593.0372,-245.4439 590.7002,-238.8455"/>
</g>
<!-- Node20 -->
<g id="node12" class="node">
<title>Node20</title>
<g id="a_node12"><a xlink:href="PFPrediction_8cpp.html" target="_top" xlink:title="/Users/Claudio/GitHub\l/bayes&#45;filters&#45;lib/src\l/BayesFilters/src/PFPrediction.cpp">
<polygon fill="#ffffff" stroke="#000000" points="855.2168,-165.5 855.2168,-203.5 1024.0439,-203.5 1024.0439,-165.5 855.2168,-165.5"/>
<text text-anchor="start" x="863.2168" y="-191.5" font-family="Helvetica,sans-Serif" font-size="10.00" fill="#000000">/Users/Claudio/GitHub</text>
<text text-anchor="start" x="863.2168" y="-181.5" font-family="Helvetica,sans-Serif" font-size="10.00" fill="#000000">/bayes&#45;filters&#45;lib/src</text>
<text text-anchor="middle" x="939.6304" y="-171.5" font-family="Helvetica,sans-Serif" font-size="10.00" fill="#000000">/BayesFilters/src/PFPrediction.cpp</text>
</a>
</g>
</g>
<!-- Node9&#45;&gt;Node20 -->
<g id="edge12" class="edge">
<title>Node9&#45;&gt;Node20</title>
<path fill="none" stroke="#191970" d="M607.9514,-254.4784C674.7001,-243.2514 766.5304,-226.8211 846.6304,-209 854.1275,-207.332 861.9332,-205.4724 869.6943,-203.5439"/>
<polygon fill="#191970" stroke="#191970" points="607.1596,-251.0621 597.875,-256.1657 608.3158,-257.966 607.1596,-251.0621"/>
</g>
<!-- Node11 -->
<g id="node3" class="node">
<title>Node11</title>
<g id="a_node3"><a xlink:href="DrawParticles_8cpp.html" target="_top" xlink:title="/Users/Claudio/GitHub\l/bayes&#45;filters&#45;lib/src\l/BayesFilters/src/DrawParticles.cpp">
<polygon fill="#ffffff" stroke="#000000" points="0,-80.5 0,-118.5 173.2607,-118.5 173.2607,-80.5 0,-80.5"/>
<text text-anchor="start" x="8" y="-106.5" font-family="Helvetica,sans-Serif" font-size="10.00" fill="#000000">/Users/Claudio/GitHub</text>
<text text-anchor="start" x="8" y="-96.5" font-family="Helvetica,sans-Serif" font-size="10.00" fill="#000000">/bayes&#45;filters&#45;lib/src</text>
<text text-anchor="middle" x="86.6304" y="-86.5" font-family="Helvetica,sans-Serif" font-size="10.00" fill="#000000">/BayesFilters/src/DrawParticles.cpp</text>
</a>
</g>
</g>
<!-- Node10&#45;&gt;Node11 -->
<g id="edge2" class="edge">
<title>Node10&#45;&gt;Node11</title>
<path fill="none" stroke="#191970" d="M103.4808,-150.6532C99.884,-139.7341 96.0249,-128.0192 92.9087,-118.5591"/>
<polygon fill="#191970" stroke="#191970" points="100.2285,-151.9669 106.6816,-160.3698 106.8771,-149.7767 100.2285,-151.9669"/>
</g>
<!-- Node13 -->
<g id="node5" class="node">
<title>Node13</title>
<g id="a_node5"><a xlink:href="GPFPrediction_8cpp.html" target="_top" xlink:title="/Users/Claudio/GitHub\l/bayes&#45;filters&#45;lib/src\l/BayesFilters/src/GPFPrediction.cpp">
<polygon fill="#ffffff" stroke="#000000" points="191.3276,-80.5 191.3276,-118.5 367.9331,-118.5 367.9331,-80.5 191.3276,-80.5"/>
<text text-anchor="start" x="199.3276" y="-106.5" font-family="Helvetica,sans-Serif" font-size="10.00" fill="#000000">/Users/Claudio/GitHub</text>
<text text-anchor="start" x="199.3276" y="-96.5" font-family="Helvetica,sans-Serif" font-size="10.00" fill="#000000">/bayes&#45;filters&#45;lib/src</text>
<text text-anchor="middle" x="279.6304" y="-86.5" font-family="Helvetica,sans-Serif" font-size="10.00" fill="#000000">/BayesFilters/src/GPFPrediction.cpp</text>
</a>
</g>
</g>
<!-- Node12&#45;&gt;Node13 -->
<g id="edge4" class="edge">
<title>Node12&#45;&gt;Node13</title>
<path fill="none" stroke="#191970" d="M293.4718,-150.6532C290.5172,-139.7341 287.3473,-128.0192 284.7875,-118.5591"/>
<polygon fill="#191970" stroke="#191970" points="290.1105,-151.6311 296.101,-160.3698 296.8675,-149.8027 290.1105,-151.6311"/>
</g>
<!-- Node14&#45;&gt;Node15 -->
<g id="edge6" class="edge">
<title>Node14&#45;&gt;Node15</title>
<path fill="none" stroke="#191970" d="M538.3393,-153.3097C526.2802,-141.6617 512.9556,-128.7914 502.3622,-118.5591"/>
<polygon fill="#191970" stroke="#191970" points="536.0243,-155.9398 545.6485,-160.3698 540.8875,-150.9049 536.0243,-155.9398"/>
</g>
<!-- Node17 -->
<g id="node9" class="node">
<title>Node17</title>
<g id="a_node9"><a xlink:href="ParticleFilter_8cpp.html" target="_top" xlink:title="/Users/Claudio/GitHub\l/bayes&#45;filters&#45;lib/src\l/BayesFilters/src/ParticleFilter.cpp">
<polygon fill="#ffffff" stroke="#000000" points="597.3301,-80.5 597.3301,-118.5 763.9307,-118.5 763.9307,-80.5 597.3301,-80.5"/>
<text text-anchor="start" x="605.3301" y="-106.5" font-family="Helvetica,sans-Serif" font-size="10.00" fill="#000000">/Users/Claudio/GitHub</text>
<text text-anchor="start" x="605.3301" y="-96.5" font-family="Helvetica,sans-Serif" font-size="10.00" fill="#000000">/bayes&#45;filters&#45;lib/src</text>
<text text-anchor="middle" x="680.6304" y="-86.5" font-family="Helvetica,sans-Serif" font-size="10.00" fill="#000000">/BayesFilters/src/ParticleFilter.cpp</text>
</a>
</g>
</g>
<!-- Node14&#45;&gt;Node17 -->
<g id="edge8" class="edge">
<title>Node14&#45;&gt;Node17</title>
<path fill="none" stroke="#191970" d="M610.1427,-153.9677C625.4384,-142.1484 642.474,-128.9845 655.9656,-118.5591"/>
<polygon fill="#191970" stroke="#191970" points="607.6305,-151.4858 601.8577,-160.3698 611.9107,-157.0248 607.6305,-151.4858"/>
</g>
<!-- Node16 -->
<g id="node8" class="node">
<title>Node16</title>
<g id="a_node8"><a xlink:href="SIS_8cpp.html" target="_top" xlink:title="/Users/Claudio/GitHub\l/bayes&#45;filters&#45;lib/src\l/BayesFilters/src/SIS.cpp">
<polygon fill="#ffffff" stroke="#000000" points="418.7808,-.5 418.7808,-38.5 546.48,-38.5 546.48,-.5 418.7808,-.5"/>
<text text-anchor="start" x="426.7808" y="-26.5" font-family="Helvetica,sans-Serif" font-size="10.00" fill="#000000">/Users/Claudio/GitHub</text>
<text text-anchor="start" x="426.7808" y="-16.5" font-family="Helvetica,sans-Serif" font-size="10.00" fill="#000000">/bayes&#45;filters&#45;lib/src</text>
<text text-anchor="middle" x="482.6304" y="-6.5" font-family="Helvetica,sans-Serif" font-size="10.00" fill="#000000">/BayesFilters/src/SIS.cpp</text>
</a>
</g>
</g>
<!-- Node15&#45;&gt;Node16 -->
<g id="edge7" class="edge">
<title>Node15&#45;&gt;Node16</title>
<path fill="none" stroke="#191970" d="M482.6304,-70.1156C482.6304,-59.6295 482.6304,-48.0942 482.6304,-38.6874"/>
<polygon fill="#191970" stroke="#191970" points="479.1305,-70.1342 482.6304,-80.1342 486.1305,-70.1343 479.1305,-70.1342"/>
</g>
<!-- Node19 -->
<g id="node11" class="node">
<title>Node19</title>
<g id="a_node11"><a xlink:href="PFPredictionDecorator_8cpp.html" target="_top" xlink:title="/Users/Claudio/GitHub\l/bayes&#45;filters&#45;lib/src\l/BayesFilters/src/PFPrediction\lDecorator.cpp">
<polygon fill="#ffffff" stroke="#000000" points="781.6675,-75.5 781.6675,-123.5 931.5933,-123.5 931.5933,-75.5 781.6675,-75.5"/>
<text text-anchor="start" x="789.6675" y="-111.5" font-family="Helvetica,sans-Serif" font-size="10.00" fill="#000000">/Users/Claudio/GitHub</text>
<text text-anchor="start" x="789.6675" y="-101.5" font-family="Helvetica,sans-Serif" font-size="10.00" fill="#000000">/bayes&#45;filters&#45;lib/src</text>
<text text-anchor="start" x="789.6675" y="-91.5" font-family="Helvetica,sans-Serif" font-size="10.00" fill="#000000">/BayesFilters/src/PFPrediction</text>
<text text-anchor="middle" x="856.6304" y="-81.5" font-family="Helvetica,sans-Serif" font-size="10.00" fill="#000000">Decorator.cpp</text>
</a>
</g>
</g>
<!-- Node18&#45;&gt;Node19 -->
<g id="edge10" class="edge">
<title>Node18&#45;&gt;Node19</title>
<path fill="none" stroke="#191970" d="M791.5846,-153.7048C803.4412,-143.8244 816.3962,-133.0285 827.6017,-123.6906"/>
<polygon fill="#191970" stroke="#191970" points="789.0282,-151.2791 783.5866,-160.3698 793.5095,-156.6567 789.0282,-151.2791"/>
</g>
</g>
</svg>
