<?xml version="1.0" encoding="UTF-8" standalone="no"?>
<!DOCTYPE svg PUBLIC "-//W3C//DTD SVG 1.1//EN"
 "http://www.w3.org/Graphics/SVG/1.1/DTD/svg11.dtd">
<!-- Generated by graphviz version 2.40.1 (20161225.0304)
 -->
<!-- Title: /Users/Claudio/GitHub/bayes&#45;filters&#45;lib/src/BayesFilters/src/PFPrediction.cpp Pages: 1 -->
<!--zoomable 267 -->
<svg id="main" version="1.1" xmlns="http://www.w3.org/2000/svg" xmlns:xlink="http://www.w3.org/1999/xlink" xml:space="preserve" onload="init(evt)">
<style type="text/css"><![CDATA[
.edge:hover path { stroke: red; }
.edge:hover polygon { stroke: red; fill: red; }
]]></style>
<script type="text/javascript"><![CDATA[
var edges = document.getElementsByTagName('g');
if (edges && edges.length) {
  for (var i=0;i<edges.length;i++) {
    if (edges[i].id.substr(0,4)=='edge') {
      edges[i].setAttribute('class','edge');
    }
  }
}
]]></script>
        <defs>
                <circle id="rim" cx="0" cy="0" r="7"/>
                <circle id="rim2" cx="0" cy="0" r="3.5"/>
                <g id="zoomPlus">
                        <use xlink:href="#rim" fill="#404040">
                                <set attributeName="fill" to="#808080" begin="zoomplus.mouseover" end="zoomplus.mouseout"/>
                        </use>
                        <path d="M-4,0h8M0,-4v8" fill="none" stroke="white" stroke-width="1.5" pointer-events="none"/>
                </g>
                <g id="zoomMin">
                        <use xlink:href="#rim" fill="#404040">
                                <set attributeName="fill" to="#808080" begin="zoomminus.mouseover" end="zoomminus.mouseout"/>
                        </use>
                        <path d="M-4,0h8" fill="none" stroke="white" stroke-width="1.5" pointer-events="none"/>
                </g>
                <g id="dirArrow">
                        <path fill="none" stroke="white" stroke-width="1.5" d="M0,-3.0v7 M-2.5,-0.5L0,-3.0L2.5,-0.5"/>
                </g>
               <g id="resetDef">
                       <use xlink:href="#rim2" fill="#404040">
                               <set attributeName="fill" to="#808080" begin="reset.mouseover" end="reset.mouseout"/>
                       </use>
               </g>
        </defs>

<script type="text/javascript">
var viewWidth = 576;
var viewHeight = 267;
var sectionId = 'dynsection-0';
</script>
<script xlink:href="svgpan.js"/>
<svg id="graph" class="graph">
<g id="viewport">
<title>/Users/Claudio/GitHub/bayes&#45;filters&#45;lib/src/BayesFilters/src/PFPrediction.cpp</title>
<polygon fill="#ffffff" stroke="transparent" points="-4,4 -4,-263 571.9307,-263 571.9307,4 -4,4"/>
<!-- Node0 -->
<g id="node1" class="node">
<title>Node0</title>
<polygon fill="#bfbfbf" stroke="#000000" points="360.2905,-220.5 360.2905,-258.5 529.1177,-258.5 529.1177,-220.5 360.2905,-220.5"/>
<text text-anchor="start" x="368.2905" y="-246.5" font-family="Helvetica,sans-Serif" font-size="10.00" fill="#000000">/Users/Claudio/GitHub</text>
<text text-anchor="start" x="368.2905" y="-236.5" font-family="Helvetica,sans-Serif" font-size="10.00" fill="#000000">/bayes&#45;filters&#45;lib/src</text>
<text text-anchor="middle" x="444.7041" y="-226.5" font-family="Helvetica,sans-Serif" font-size="10.00" fill="#000000">/BayesFilters/src/PFPrediction.cpp</text>
</g>
<!-- Node1 -->
<g id="node2" class="node">
<title>Node1</title>
<g id="a_node2"><a xlink:href="PFPrediction_8h.html" target="_top" xlink:title="BayesFilters/PFPrediction.h">
<polygon fill="#ffffff" stroke="#000000" points="258.0146,-165.5 258.0146,-183.5 397.3936,-183.5 397.3936,-165.5 258.0146,-165.5"/>
<text text-anchor="middle" x="327.7041" y="-171.5" font-family="Helvetica,sans-Serif" font-size="10.00" fill="#000000">BayesFilters/PFPrediction.h</text>
</a>
</g>
</g>
<!-- Node0&#45;&gt;Node1 -->
<g id="edge1" class="edge">
<title>Node0&#45;&gt;Node1</title>
<path fill="none" stroke="#191970" d="M410.2331,-220.3494C391.9764,-210.2069 369.9408,-197.9648 353.233,-188.6827"/>
<polygon fill="#191970" stroke="#191970" points="354.5216,-185.3948 344.0802,-183.5978 351.122,-191.5139 354.5216,-185.3948"/>
</g>
<!-- Node10 -->
<g id="node11" class="node">
<title>Node10</title>
<polygon fill="#ffffff" stroke="#bfbfbf" points="415.3003,-165.5 415.3003,-183.5 474.1079,-183.5 474.1079,-165.5 415.3003,-165.5"/>
<text text-anchor="middle" x="444.7041" y="-171.5" font-family="Helvetica,sans-Serif" font-size="10.00" fill="#000000">exception</text>
</g>
<!-- Node0&#45;&gt;Node10 -->
<g id="edge14" class="edge">
<title>Node0&#45;&gt;Node10</title>
<path fill="none" stroke="#191970" d="M444.7041,-220.3494C444.7041,-212.0079 444.7041,-202.2463 444.7041,-193.879"/>
<polygon fill="#191970" stroke="#191970" points="448.2042,-193.5978 444.7041,-183.5978 441.2042,-193.5979 448.2042,-193.5978"/>
</g>
<!-- Node11 -->
<g id="node12" class="node">
<title>Node11</title>
<polygon fill="#ffffff" stroke="#bfbfbf" points="492.5317,-165.5 492.5317,-183.5 546.8765,-183.5 546.8765,-165.5 492.5317,-165.5"/>
<text text-anchor="middle" x="519.7041" y="-171.5" font-family="Helvetica,sans-Serif" font-size="10.00" fill="#000000">iostream</text>
</g>
<!-- Node0&#45;&gt;Node11 -->
<g id="edge15" class="edge">
<title>Node0&#45;&gt;Node11</title>
<path fill="none" stroke="#191970" d="M466.8009,-220.3494C477.8476,-210.7756 491.0528,-199.3311 501.5065,-190.2712"/>
<polygon fill="#191970" stroke="#191970" points="503.9419,-192.7921 509.2066,-183.5978 499.3574,-187.5023 503.9419,-192.7921"/>
</g>
<!-- Node2 -->
<g id="node3" class="node">
<title>Node2</title>
<g id="a_node3"><a xlink:href="ExogenousModel_8h.html" target="_top" xlink:title="BayesFilters/ExogenousModel.h">
<polygon fill="#ffffff" stroke="#000000" points="0,-55.5 0,-73.5 159.4082,-73.5 159.4082,-55.5 0,-55.5"/>
<text text-anchor="middle" x="79.7041" y="-61.5" font-family="Helvetica,sans-Serif" font-size="10.00" fill="#000000">BayesFilters/ExogenousModel.h</text>
</a>
</g>
</g>
<!-- Node1&#45;&gt;Node2 -->
<g id="edge2" class="edge">
<title>Node1&#45;&gt;Node2</title>
<path fill="none" stroke="#191970" d="M283.8808,-165.4333C252.3088,-157.9839 209.196,-145.8971 173.7041,-129 145.7543,-115.6935 116.8692,-94.5703 98.6246,-80.1488"/>
<polygon fill="#191970" stroke="#191970" points="100.559,-77.213 90.5737,-73.6712 96.1709,-82.6669 100.559,-77.213"/>
</g>
<!-- Node3 -->
<g id="node4" class="node">
<title>Node3</title>
<polygon fill="#ffffff" stroke="#bfbfbf" points="198.0737,-.5 198.0737,-18.5 271.3345,-18.5 271.3345,-.5 198.0737,-.5"/>
<text text-anchor="middle" x="234.7041" y="-6.5" font-family="Helvetica,sans-Serif" font-size="10.00" fill="#000000">Eigen/Dense</text>
</g>
<!-- Node1&#45;&gt;Node3 -->
<g id="edge11" class="edge">
<title>Node1&#45;&gt;Node3</title>
<path fill="none" stroke="#191970" d="M308.5115,-165.4403C280.0698,-150.8063 227.8214,-118.991 206.7041,-74 199.2155,-58.0454 209.0791,-39.5719 219.1046,-26.495"/>
<polygon fill="#191970" stroke="#191970" points="221.8327,-28.6884 225.5355,-18.7617 216.4505,-24.2127 221.8327,-28.6884"/>
</g>
<!-- Node4 -->
<g id="node5" class="node">
<title>Node4</title>
<g id="a_node5"><a xlink:href="ParticleSet_8h.html" target="_top" xlink:title="BayesFilters/ParticleSet.h">
<polygon fill="#ffffff" stroke="#000000" points="309.4604,-110.5 309.4604,-128.5 439.9478,-128.5 439.9478,-110.5 309.4604,-110.5"/>
<text text-anchor="middle" x="374.7041" y="-116.5" font-family="Helvetica,sans-Serif" font-size="10.00" fill="#000000">BayesFilters/ParticleSet.h</text>
</a>
</g>
</g>
<!-- Node1&#45;&gt;Node4 -->
<g id="edge4" class="edge">
<title>Node1&#45;&gt;Node4</title>
<path fill="none" stroke="#191970" d="M335.4652,-165.4179C342.1602,-157.5833 352.0095,-146.0575 360.1651,-136.5137"/>
<polygon fill="#191970" stroke="#191970" points="362.9386,-138.6556 366.7744,-128.7795 357.617,-134.108 362.9386,-138.6556"/>
</g>
<!-- Node7 -->
<g id="node8" class="node">
<title>Node7</title>
<g id="a_node8"><a xlink:href="StateModel_8h.html" target="_top" xlink:title="BayesFilters/StateModel.h">
<polygon fill="#ffffff" stroke="#000000" points="215.3447,-55.5 215.3447,-73.5 348.0635,-73.5 348.0635,-55.5 215.3447,-55.5"/>
<text text-anchor="middle" x="281.7041" y="-61.5" font-family="Helvetica,sans-Serif" font-size="10.00" fill="#000000">BayesFilters/StateModel.h</text>
</a>
</g>
</g>
<!-- Node1&#45;&gt;Node7 -->
<g id="edge9" class="edge">
<title>Node1&#45;&gt;Node7</title>
<path fill="none" stroke="#191970" d="M321.4125,-165.4506C315.4284,-156.5179 306.5026,-142.3042 300.7041,-129 294.2181,-114.1183 289.1721,-96.3718 285.9156,-83.2642"/>
<polygon fill="#191970" stroke="#191970" points="289.3163,-82.4356 283.6087,-73.5096 282.5042,-84.0467 289.3163,-82.4356"/>
</g>
<!-- Node8 -->
<g id="node9" class="node">
<title>Node8</title>
<polygon fill="#ffffff" stroke="#bfbfbf" points="457.6475,-110.5 457.6475,-128.5 509.7607,-128.5 509.7607,-110.5 457.6475,-110.5"/>
<text text-anchor="middle" x="483.7041" y="-116.5" font-family="Helvetica,sans-Serif" font-size="10.00" fill="#000000">memory</text>
</g>
<!-- Node1&#45;&gt;Node8 -->
<g id="edge12" class="edge">
<title>Node1&#45;&gt;Node8</title>
<path fill="none" stroke="#191970" d="M353.4643,-165.4179C379.3975,-156.2748 419.5893,-142.1046 448.465,-131.924"/>
<polygon fill="#191970" stroke="#191970" points="449.8976,-135.1302 458.1649,-128.5042 447.5701,-128.5285 449.8976,-135.1302"/>
</g>
<!-- Node9 -->
<g id="node10" class="node">
<title>Node9</title>
<polygon fill="#ffffff" stroke="#bfbfbf" points="527.4775,-110.5 527.4775,-128.5 567.9307,-128.5 567.9307,-110.5 527.4775,-110.5"/>
<text text-anchor="middle" x="547.7041" y="-116.5" font-family="Helvetica,sans-Serif" font-size="10.00" fill="#000000">string</text>
</g>
<!-- Node1&#45;&gt;Node9 -->
<g id="edge13" class="edge">
<title>Node1&#45;&gt;Node9</title>
<path fill="none" stroke="#191970" d="M370.0683,-165.4635C406.8195,-157.3887 461.6198,-144.7854 517.4727,-129.1937"/>
<polygon fill="#191970" stroke="#191970" points="518.4988,-132.5409 527.1734,-126.458 516.5988,-125.8037 518.4988,-132.5409"/>
</g>
<!-- Node2&#45;&gt;Node3 -->
<g id="edge3" class="edge">
<title>Node2&#45;&gt;Node3</title>
<path fill="none" stroke="#191970" d="M105.2992,-55.4179C131.0662,-46.2748 171.0002,-32.1046 199.6909,-21.924"/>
<polygon fill="#191970" stroke="#191970" points="201.0748,-25.1469 209.3286,-18.5042 198.7339,-18.5499 201.0748,-25.1469"/>
</g>
<!-- Node5 -->
<g id="node6" class="node">
<title>Node5</title>
<g id="a_node6"><a xlink:href="GaussianMixture_8h.html" target="_top" xlink:title="BayesFilters/GaussianMixture.h">
<polygon fill="#ffffff" stroke="#000000" points="366.123,-55.5 366.123,-73.5 523.2852,-73.5 523.2852,-55.5 366.123,-55.5"/>
<text text-anchor="middle" x="444.7041" y="-61.5" font-family="Helvetica,sans-Serif" font-size="10.00" fill="#000000">BayesFilters/GaussianMixture.h</text>
</a>
</g>
</g>
<!-- Node4&#45;&gt;Node5 -->
<g id="edge5" class="edge">
<title>Node4&#45;&gt;Node5</title>
<path fill="none" stroke="#191970" d="M386.2632,-110.4179C396.7381,-102.1876 412.3973,-89.8839 424.8705,-80.0836"/>
<polygon fill="#191970" stroke="#191970" points="427.1931,-82.7098 432.8939,-73.7795 422.8683,-77.2056 427.1931,-82.7098"/>
</g>
<!-- Node6 -->
<g id="node7" class="node">
<title>Node6</title>
<polygon fill="#ffffff" stroke="#bfbfbf" points="476.0884,-.5 476.0884,-18.5 519.3198,-18.5 519.3198,-.5 476.0884,-.5"/>
<text text-anchor="middle" x="497.7041" y="-6.5" font-family="Helvetica,sans-Serif" font-size="10.00" fill="#000000">vector</text>
</g>
<!-- Node4&#45;&gt;Node6 -->
<g id="edge8" class="edge">
<title>Node4&#45;&gt;Node6</title>
<path fill="none" stroke="#191970" d="M431.8717,-110.4227C471.8973,-102.7649 520.3445,-90.4211 532.7041,-74 544.2108,-58.7121 530.1699,-39.1624 516.597,-25.6132"/>
<polygon fill="#191970" stroke="#191970" points="518.9666,-23.0373 509.2698,-18.7684 514.1881,-28.1525 518.9666,-23.0373"/>
</g>
<!-- Node5&#45;&gt;Node3 -->
<g id="edge7" class="edge">
<title>Node5&#45;&gt;Node3</title>
<path fill="none" stroke="#191970" d="M410.0269,-55.4179C374.2021,-46.0352 318.1642,-31.3586 279.1179,-21.1322"/>
<polygon fill="#191970" stroke="#191970" points="279.6443,-17.6521 269.0838,-18.5042 277.8708,-24.4237 279.6443,-17.6521"/>
</g>
<!-- Node5&#45;&gt;Node6 -->
<g id="edge6" class="edge">
<title>Node5&#45;&gt;Node6</title>
<path fill="none" stroke="#191970" d="M453.456,-55.4179C461.0819,-47.5041 472.337,-35.8243 481.5872,-26.2251"/>
<polygon fill="#191970" stroke="#191970" points="484.3434,-28.4089 488.7621,-18.7795 479.3028,-23.5516 484.3434,-28.4089"/>
</g>
<!-- Node7&#45;&gt;Node3 -->
<g id="edge10" class="edge">
<title>Node7&#45;&gt;Node3</title>
<path fill="none" stroke="#191970" d="M273.943,-55.4179C267.248,-47.5833 257.3987,-36.0575 249.2431,-26.5137"/>
<polygon fill="#191970" stroke="#191970" points="251.7912,-24.108 242.6338,-18.7795 246.4696,-28.6556 251.7912,-24.108"/>
</g>
</g>
</svg>
        <g id="navigator" transform="translate(0 0)" fill="#404254">
                <rect fill="#f2f5e9" fill-opacity="0.5" stroke="#606060" stroke-width=".5" x="0" y="0" width="60" height="60"/>
                <use id="zoomplus" xlink:href="#zoomPlus" x="17" y="9" onmousedown="handleZoom(evt,'in')"/>
                <use id="zoomminus" xlink:href="#zoomMin" x="42" y="9" onmousedown="handleZoom(evt,'out')"/>
                <use id="reset" xlink:href="#resetDef" x="30" y="36" onmousedown="handleReset()"/>
                <g id="arrowUp" xlink:href="#dirArrow" transform="translate(30 24)" onmousedown="handlePan(0,-1)">
                  <use xlink:href="#rim" fill="#404040">
                        <set attributeName="fill" to="#808080" begin="arrowUp.mouseover" end="arrowUp.mouseout"/>
                  </use>
                  <path fill="none" stroke="white" stroke-width="1.5" d="M0,-3.0v7 M-2.5,-0.5L0,-3.0L2.5,-0.5"/>
                </g>
                <g id="arrowRight" xlink:href="#dirArrow" transform="rotate(90) translate(36 -43)" onmousedown="handlePan(1,0)">
                  <use xlink:href="#rim" fill="#404040">
                        <set attributeName="fill" to="#808080" begin="arrowRight.mouseover" end="arrowRight.mouseout"/>
                  </use>
                  <path fill="none" stroke="white" stroke-width="1.5" d="M0,-3.0v7 M-2.5,-0.5L0,-3.0L2.5,-0.5"/>
                </g>
                <g id="arrowDown" xlink:href="#dirArrow" transform="rotate(180) translate(-30 -48)" onmousedown="handlePan(0,1)">
                  <use xlink:href="#rim" fill="#404040">
                        <set attributeName="fill" to="#808080" begin="arrowDown.mouseover" end="arrowDown.mouseout"/>
                  </use>
                  <path fill="none" stroke="white" stroke-width="1.5" d="M0,-3.0v7 M-2.5,-0.5L0,-3.0L2.5,-0.5"/>
                </g>
                <g id="arrowLeft" xlink:href="#dirArrow" transform="rotate(270) translate(-36 17)" onmousedown="handlePan(-1,0)">
                  <use xlink:href="#rim" fill="#404040">
                        <set attributeName="fill" to="#808080" begin="arrowLeft.mouseover" end="arrowLeft.mouseout"/>
                  </use>
                  <path fill="none" stroke="white" stroke-width="1.5" d="M0,-3.0v7 M-2.5,-0.5L0,-3.0L2.5,-0.5"/>
                </g>
        </g>
        <svg viewBox="0 0 15 15" width="100%" height="30px" preserveAspectRatio="xMaxYMin meet">
         <g id="arrow_out" transform="scale(0.3 0.3)">
          <a xlink:href="PFPrediction_8cpp__incl_org.svg" target="_base">
           <rect id="button" ry="5" rx="5" y="6" x="6" height="38" width="38"
                fill="#f2f5e9" fill-opacity="0.5" stroke="#606060" stroke-width="1.0"/>
           <path id="arrow"
             d="M 11.500037,31.436501 C 11.940474,20.09759 22.043105,11.32322 32.158766,21.979434 L 37.068811,17.246167 C 37.068811,17.246167 37.088388,32 37.088388,32 L 22.160133,31.978069 C 22.160133,31.978069 26.997745,27.140456 26.997745,27.140456 C 18.528582,18.264221 13.291696,25.230495 11.500037,31.436501 z"
             style="fill:#404040;"/>
          </a>
         </g>
        </svg>
</svg>
