<?xml version="1.0" encoding="UTF-8" standalone="no"?>
<!DOCTYPE svg PUBLIC "-//W3C//DTD SVG 1.1//EN"
 "http://www.w3.org/Graphics/SVG/1.1/DTD/svg11.dtd">
<!-- Generated by graphviz version 2.40.1 (20161225.0304)
 -->
<!-- Title: /Users/Claudio/GitHub/bayes&#45;filters&#45;lib/src/BayesFilters/include/BayesFilters/PFPredictionDecorator.h Pages: 1 -->
<!--zoomable 277 -->
<svg id="main" version="1.1" xmlns="http://www.w3.org/2000/svg" xmlns:xlink="http://www.w3.org/1999/xlink" xml:space="preserve" onload="init(evt)">
<style type="text/css"><![CDATA[
.edge:hover path { stroke: red; }
.edge:hover polygon { stroke: red; fill: red; }
]]></style>
<script type="text/javascript"><![CDATA[
var edges = document.getElementsByTagName('g');
if (edges && edges.length) {
  for (var i=0;i<edges.length;i++) {
    if (edges[i].id.substr(0,4)=='edge') {
      edges[i].setAttribute('class','edge');
    }
  }
}
]]></script>
        <defs>
                <circle id="rim" cx="0" cy="0" r="7"/>
                <circle id="rim2" cx="0" cy="0" r="3.5"/>
                <g id="zoomPlus">
                        <use xlink:href="#rim" fill="#404040">
                                <set attributeName="fill" to="#808080" begin="zoomplus.mouseover" end="zoomplus.mouseout"/>
                        </use>
                        <path d="M-4,0h8M0,-4v8" fill="none" stroke="white" stroke-width="1.5" pointer-events="none"/>
                </g>
                <g id="zoomMin">
                        <use xlink:href="#rim" fill="#404040">
                                <set attributeName="fill" to="#808080" begin="zoomminus.mouseover" end="zoomminus.mouseout"/>
                        </use>
                        <path d="M-4,0h8" fill="none" stroke="white" stroke-width="1.5" pointer-events="none"/>
                </g>
                <g id="dirArrow">
                        <path fill="none" stroke="white" stroke-width="1.5" d="M0,-3.0v7 M-2.5,-0.5L0,-3.0L2.5,-0.5"/>
                </g>
               <g id="resetDef">
                       <use xlink:href="#rim2" fill="#404040">
                               <set attributeName="fill" to="#808080" begin="reset.mouseover" end="reset.mouseout"/>
                       </use>
               </g>
        </defs>

<script type="text/javascript">
var viewWidth = 545;
var viewHeight = 277;
var sectionId = 'dynsection-0';
</script>
<script xlink:href="svgpan.js"/>
<svg id="graph" class="graph">
<g id="viewport">
<title>/Users/Claudio/GitHub/bayes&#45;filters&#45;lib/src/BayesFilters/include/BayesFilters/PFPredictionDecorator.h</title>
<polygon fill="#ffffff" stroke="transparent" points="-4,4 -4,-273 540.914,-273 540.914,4 -4,4"/>
<!-- Node0 -->
<g id="node1" class="node">
<title>Node0</title>
<polygon fill="#bfbfbf" stroke="#000000" points="166.5277,-220.5 166.5277,-268.5 332.5814,-268.5 332.5814,-220.5 166.5277,-220.5"/>
<text text-anchor="start" x="174.5277" y="-256.5" font-family="Helvetica,sans-Serif" font-size="10.00" fill="#000000">/Users/Claudio/GitHub</text>
<text text-anchor="start" x="174.5277" y="-246.5" font-family="Helvetica,sans-Serif" font-size="10.00" fill="#000000">/bayes&#45;filters&#45;lib/src</text>
<text text-anchor="start" x="174.5277" y="-236.5" font-family="Helvetica,sans-Serif" font-size="10.00" fill="#000000">/BayesFilters/include/BayesFilters</text>
<text text-anchor="middle" x="249.5546" y="-226.5" font-family="Helvetica,sans-Serif" font-size="10.00" fill="#000000">/PFPredictionDecorator.h</text>
</g>
<!-- Node1 -->
<g id="node2" class="node">
<title>Node1</title>
<g id="a_node2"><a xlink:href="ParticleSet_8h.html" target="_top" xlink:title="BayesFilters/ParticleSet.h">
<polygon fill="#ffffff" stroke="#000000" points="33.3109,-110.5 33.3109,-128.5 163.7982,-128.5 163.7982,-110.5 33.3109,-110.5"/>
<text text-anchor="middle" x="98.5546" y="-116.5" font-family="Helvetica,sans-Serif" font-size="10.00" fill="#000000">BayesFilters/ParticleSet.h</text>
</a>
</g>
</g>
<!-- Node0&#45;&gt;Node1 -->
<g id="edge1" class="edge">
<title>Node0&#45;&gt;Node1</title>
<path fill="none" stroke="#191970" d="M216.8276,-220.3268C202.435,-209.4695 185.4518,-196.3461 170.5546,-184 151.3278,-168.0657 130.1274,-148.8641 115.7432,-135.5766"/>
<polygon fill="#191970" stroke="#191970" points="117.8378,-132.7453 108.1281,-128.5059 113.0748,-137.8751 117.8378,-132.7453"/>
</g>
<!-- Node5 -->
<g id="node6" class="node">
<title>Node5</title>
<g id="a_node6"><a xlink:href="PFPrediction_8h.html" target="_top" xlink:title="BayesFilters/PFPrediction.h">
<polygon fill="#ffffff" stroke="#000000" points="179.8651,-165.5 179.8651,-183.5 319.244,-183.5 319.244,-165.5 179.8651,-165.5"/>
<text text-anchor="middle" x="249.5546" y="-171.5" font-family="Helvetica,sans-Serif" font-size="10.00" fill="#000000">BayesFilters/PFPrediction.h</text>
</a>
</g>
</g>
<!-- Node0&#45;&gt;Node5 -->
<g id="edge6" class="edge">
<title>Node0&#45;&gt;Node5</title>
<path fill="none" stroke="#191970" d="M249.5546,-220.41C249.5546,-211.7094 249.5546,-202.0095 249.5546,-193.7754"/>
<polygon fill="#191970" stroke="#191970" points="253.0547,-193.6872 249.5546,-183.6872 246.0547,-193.6873 253.0547,-193.6872"/>
</g>
<!-- Node8 -->
<g id="node9" class="node">
<title>Node8</title>
<polygon fill="#ffffff" stroke="#bfbfbf" points="360.498,-110.5 360.498,-128.5 412.6112,-128.5 412.6112,-110.5 360.498,-110.5"/>
<text text-anchor="middle" x="386.5546" y="-116.5" font-family="Helvetica,sans-Serif" font-size="10.00" fill="#000000">memory</text>
</g>
<!-- Node0&#45;&gt;Node8 -->
<g id="edge15" class="edge">
<title>Node0&#45;&gt;Node8</title>
<path fill="none" stroke="#191970" d="M283.7139,-220.4957C298.0501,-209.8808 314.5986,-196.897 328.5546,-184 344.7039,-169.0761 361.2999,-150.1931 372.5791,-136.7224"/>
<polygon fill="#191970" stroke="#191970" points="375.496,-138.687 379.1654,-128.7479 370.0987,-134.2294 375.496,-138.687"/>
</g>
<!-- Node2 -->
<g id="node3" class="node">
<title>Node2</title>
<g id="a_node3"><a xlink:href="GaussianMixture_8h.html" target="_top" xlink:title="BayesFilters/GaussianMixture.h">
<polygon fill="#ffffff" stroke="#000000" points="12.9735,-55.5 12.9735,-73.5 170.1356,-73.5 170.1356,-55.5 12.9735,-55.5"/>
<text text-anchor="middle" x="91.5546" y="-61.5" font-family="Helvetica,sans-Serif" font-size="10.00" fill="#000000">BayesFilters/GaussianMixture.h</text>
</a>
</g>
</g>
<!-- Node1&#45;&gt;Node2 -->
<g id="edge2" class="edge">
<title>Node1&#45;&gt;Node2</title>
<path fill="none" stroke="#191970" d="M97.3987,-110.4179C96.4821,-103.2164 95.1687,-92.8962 94.019,-83.8632"/>
<polygon fill="#191970" stroke="#191970" points="97.4702,-83.2575 92.7356,-73.7795 90.5263,-84.1414 97.4702,-83.2575"/>
</g>
<!-- Node3 -->
<g id="node4" class="node">
<title>Node3</title>
<polygon fill="#ffffff" stroke="#bfbfbf" points="16.9389,-.5 16.9389,-18.5 60.1703,-18.5 60.1703,-.5 16.9389,-.5"/>
<text text-anchor="middle" x="38.5546" y="-6.5" font-family="Helvetica,sans-Serif" font-size="10.00" fill="#000000">vector</text>
</g>
<!-- Node1&#45;&gt;Node3 -->
<g id="edge5" class="edge">
<title>Node1&#45;&gt;Node3</title>
<path fill="none" stroke="#191970" d="M56.5092,-110.3416C36.8546,-103.7266 15.2496,-92.5685 3.5546,-74 -6.4349,-58.1395 6.6178,-39.2057 19.527,-25.9696"/>
<polygon fill="#191970" stroke="#191970" points="22.1166,-28.3364 26.9359,-18.9011 17.2846,-23.2717 22.1166,-28.3364"/>
</g>
<!-- Node2&#45;&gt;Node3 -->
<g id="edge3" class="edge">
<title>Node2&#45;&gt;Node3</title>
<path fill="none" stroke="#191970" d="M82.8027,-55.4179C75.1767,-47.5041 63.9217,-35.8243 54.6715,-26.2251"/>
<polygon fill="#191970" stroke="#191970" points="56.9559,-23.5516 47.4966,-18.7795 51.9153,-28.4089 56.9559,-23.5516"/>
</g>
<!-- Node4 -->
<g id="node5" class="node">
<title>Node4</title>
<polygon fill="#ffffff" stroke="#bfbfbf" points="215.9242,-.5 215.9242,-18.5 289.185,-18.5 289.185,-.5 215.9242,-.5"/>
<text text-anchor="middle" x="252.5546" y="-6.5" font-family="Helvetica,sans-Serif" font-size="10.00" fill="#000000">Eigen/Dense</text>
</g>
<!-- Node2&#45;&gt;Node4 -->
<g id="edge4" class="edge">
<title>Node2&#45;&gt;Node4</title>
<path fill="none" stroke="#191970" d="M118.1405,-55.4179C145.0217,-46.2348 186.7473,-31.9807 216.5758,-21.7909"/>
<polygon fill="#191970" stroke="#191970" points="217.8652,-25.0491 226.1968,-18.5042 215.6023,-18.4249 217.8652,-25.0491"/>
</g>
<!-- Node5&#45;&gt;Node1 -->
<g id="edge9" class="edge">
<title>Node5&#45;&gt;Node1</title>
<path fill="none" stroke="#191970" d="M224.62,-165.4179C199.6276,-156.3147 160.954,-142.2283 133.031,-132.0576"/>
<polygon fill="#191970" stroke="#191970" points="133.8692,-128.6381 123.2752,-128.5042 131.4735,-135.2153 133.8692,-128.6381"/>
</g>
<!-- Node5&#45;&gt;Node4 -->
<g id="edge12" class="edge">
<title>Node5&#45;&gt;Node4</title>
<path fill="none" stroke="#191970" d="M243.4549,-165.3833C230.7624,-145.2285 203.792,-95.4638 217.5546,-55 221.1749,-44.3559 228.4012,-34.2572 235.3524,-26.2901"/>
<polygon fill="#191970" stroke="#191970" points="238.0591,-28.52 242.3339,-18.8258 232.9468,-23.7383 238.0591,-28.52"/>
</g>
<!-- Node6 -->
<g id="node7" class="node">
<title>Node6</title>
<g id="a_node7"><a xlink:href="ExogenousModel_8h.html" target="_top" xlink:title="BayesFilters/ExogenousModel.h">
<polygon fill="#ffffff" stroke="#000000" points="226.8505,-55.5 226.8505,-73.5 386.2587,-73.5 386.2587,-55.5 226.8505,-55.5"/>
<text text-anchor="middle" x="306.5546" y="-61.5" font-family="Helvetica,sans-Serif" font-size="10.00" fill="#000000">BayesFilters/ExogenousModel.h</text>
</a>
</g>
</g>
<!-- Node5&#45;&gt;Node6 -->
<g id="edge7" class="edge">
<title>Node5&#45;&gt;Node6</title>
<path fill="none" stroke="#191970" d="M249.396,-165.1806C249.5479,-152.113 251.2194,-127.9361 260.5546,-110 266.5104,-98.5569 276.38,-88.2239 285.4533,-80.3079"/>
<polygon fill="#191970" stroke="#191970" points="287.9233,-82.8083 293.427,-73.7551 283.4789,-77.4002 287.9233,-82.8083"/>
</g>
<!-- Node7 -->
<g id="node8" class="node">
<title>Node7</title>
<g id="a_node8"><a xlink:href="StateModel_8h.html" target="_top" xlink:title="BayesFilters/StateModel.h">
<polygon fill="#ffffff" stroke="#000000" points="404.1952,-55.5 404.1952,-73.5 536.914,-73.5 536.914,-55.5 404.1952,-55.5"/>
<text text-anchor="middle" x="470.5546" y="-61.5" font-family="Helvetica,sans-Serif" font-size="10.00" fill="#000000">BayesFilters/StateModel.h</text>
</a>
</g>
</g>
<!-- Node5&#45;&gt;Node7 -->
<g id="edge10" class="edge">
<title>Node5&#45;&gt;Node7</title>
<path fill="none" stroke="#191970" d="M253.1933,-165.4635C259.3398,-151.3795 273.138,-124.3266 293.5546,-110 312.2282,-96.8965 365.7709,-84.1575 409.1178,-75.508"/>
<polygon fill="#191970" stroke="#191970" points="409.9004,-78.9213 419.0404,-73.563 408.5538,-72.0521 409.9004,-78.9213"/>
</g>
<!-- Node5&#45;&gt;Node8 -->
<g id="edge13" class="edge">
<title>Node5&#45;&gt;Node8</title>
<path fill="none" stroke="#191970" d="M272.1774,-165.4179C294.5866,-156.4215 329.1191,-142.5581 354.3791,-132.4172"/>
<polygon fill="#191970" stroke="#191970" points="355.9221,-135.5693 363.8982,-128.5956 353.3142,-129.0732 355.9221,-135.5693"/>
</g>
<!-- Node9 -->
<g id="node10" class="node">
<title>Node9</title>
<polygon fill="#ffffff" stroke="#bfbfbf" points="302.328,-110.5 302.328,-128.5 342.7812,-128.5 342.7812,-110.5 302.328,-110.5"/>
<text text-anchor="middle" x="322.5546" y="-116.5" font-family="Helvetica,sans-Serif" font-size="10.00" fill="#000000">string</text>
</g>
<!-- Node5&#45;&gt;Node9 -->
<g id="edge14" class="edge">
<title>Node5&#45;&gt;Node9</title>
<path fill="none" stroke="#191970" d="M261.6091,-165.4179C272.6379,-157.1084 289.1778,-144.6469 302.2453,-134.8015"/>
<polygon fill="#191970" stroke="#191970" points="304.3575,-137.5924 310.2382,-128.7795 300.1452,-132.0016 304.3575,-137.5924"/>
</g>
<!-- Node6&#45;&gt;Node4 -->
<g id="edge8" class="edge">
<title>Node6&#45;&gt;Node4</title>
<path fill="none" stroke="#191970" d="M297.6376,-55.4179C289.79,-47.425 278.1706,-35.5903 268.6935,-25.9377"/>
<polygon fill="#191970" stroke="#191970" points="271.1687,-23.463 261.6653,-18.7795 266.1738,-28.3672 271.1687,-23.463"/>
</g>
<!-- Node7&#45;&gt;Node4 -->
<g id="edge11" class="edge">
<title>Node7&#45;&gt;Node4</title>
<path fill="none" stroke="#191970" d="M434.5563,-55.4179C397.2086,-45.9953 338.6987,-31.2336 298.1439,-21.0019"/>
<polygon fill="#191970" stroke="#191970" points="298.7964,-17.5569 288.244,-18.5042 297.084,-24.3442 298.7964,-17.5569"/>
</g>
</g>
</svg>
        <g id="navigator" transform="translate(0 0)" fill="#404254">
                <rect fill="#f2f5e9" fill-opacity="0.5" stroke="#606060" stroke-width=".5" x="0" y="0" width="60" height="60"/>
                <use id="zoomplus" xlink:href="#zoomPlus" x="17" y="9" onmousedown="handleZoom(evt,'in')"/>
                <use id="zoomminus" xlink:href="#zoomMin" x="42" y="9" onmousedown="handleZoom(evt,'out')"/>
                <use id="reset" xlink:href="#resetDef" x="30" y="36" onmousedown="handleReset()"/>
                <g id="arrowUp" xlink:href="#dirArrow" transform="translate(30 24)" onmousedown="handlePan(0,-1)">
                  <use xlink:href="#rim" fill="#404040">
                        <set attributeName="fill" to="#808080" begin="arrowUp.mouseover" end="arrowUp.mouseout"/>
                  </use>
                  <path fill="none" stroke="white" stroke-width="1.5" d="M0,-3.0v7 M-2.5,-0.5L0,-3.0L2.5,-0.5"/>
                </g>
                <g id="arrowRight" xlink:href="#dirArrow" transform="rotate(90) translate(36 -43)" onmousedown="handlePan(1,0)">
                  <use xlink:href="#rim" fill="#404040">
                        <set attributeName="fill" to="#808080" begin="arrowRight.mouseover" end="arrowRight.mouseout"/>
                  </use>
                  <path fill="none" stroke="white" stroke-width="1.5" d="M0,-3.0v7 M-2.5,-0.5L0,-3.0L2.5,-0.5"/>
                </g>
                <g id="arrowDown" xlink:href="#dirArrow" transform="rotate(180) translate(-30 -48)" onmousedown="handlePan(0,1)">
                  <use xlink:href="#rim" fill="#404040">
                        <set attributeName="fill" to="#808080" begin="arrowDown.mouseover" end="arrowDown.mouseout"/>
                  </use>
                  <path fill="none" stroke="white" stroke-width="1.5" d="M0,-3.0v7 M-2.5,-0.5L0,-3.0L2.5,-0.5"/>
                </g>
                <g id="arrowLeft" xlink:href="#dirArrow" transform="rotate(270) translate(-36 17)" onmousedown="handlePan(-1,0)">
                  <use xlink:href="#rim" fill="#404040">
                        <set attributeName="fill" to="#808080" begin="arrowLeft.mouseover" end="arrowLeft.mouseout"/>
                  </use>
                  <path fill="none" stroke="white" stroke-width="1.5" d="M0,-3.0v7 M-2.5,-0.5L0,-3.0L2.5,-0.5"/>
                </g>
        </g>
        <svg viewBox="0 0 15 15" width="100%" height="30px" preserveAspectRatio="xMaxYMin meet">
         <g id="arrow_out" transform="scale(0.3 0.3)">
          <a xlink:href="PFPredictionDecorator_8h__incl_org.svg" target="_base">
           <rect id="button" ry="5" rx="5" y="6" x="6" height="38" width="38"
                fill="#f2f5e9" fill-opacity="0.5" stroke="#606060" stroke-width="1.0"/>
           <path id="arrow"
             d="M 11.500037,31.436501 C 11.940474,20.09759 22.043105,11.32322 32.158766,21.979434 L 37.068811,17.246167 C 37.068811,17.246167 37.088388,32 37.088388,32 L 22.160133,31.978069 C 22.160133,31.978069 26.997745,27.140456 26.997745,27.140456 C 18.528582,18.264221 13.291696,25.230495 11.500037,31.436501 z"
             style="fill:#404040;"/>
          </a>
         </g>
        </svg>
</svg>
