<?xml version="1.0" encoding="UTF-8" standalone="no"?>
<!DOCTYPE svg PUBLIC "-//W3C//DTD SVG 1.1//EN"
 "http://www.w3.org/Graphics/SVG/1.1/DTD/svg11.dtd">
<!-- Generated by graphviz version 2.40.1 (20161225.0304)
 -->
<!-- Title: /Users/Claudio/GitHub/bayes&#45;filters&#45;lib/src/BayesFilters/include/BayesFilters/Resampling.h Pages: 1 -->
<!--zoomable 302 -->
<svg id="main" version="1.1" xmlns="http://www.w3.org/2000/svg" xmlns:xlink="http://www.w3.org/1999/xlink" xml:space="preserve" onload="init(evt)">
<style type="text/css"><![CDATA[
.edge:hover path { stroke: red; }
.edge:hover polygon { stroke: red; fill: red; }
]]></style>
<script type="text/javascript"><![CDATA[
var edges = document.getElementsByTagName('g');
if (edges && edges.length) {
  for (var i=0;i<edges.length;i++) {
    if (edges[i].id.substr(0,4)=='edge') {
      edges[i].setAttribute('class','edge');
    }
  }
}
]]></script>
        <defs>
                <circle id="rim" cx="0" cy="0" r="7"/>
                <circle id="rim2" cx="0" cy="0" r="3.5"/>
                <g id="zoomPlus">
                        <use xlink:href="#rim" fill="#404040">
                                <set attributeName="fill" to="#808080" begin="zoomplus.mouseover" end="zoomplus.mouseout"/>
                        </use>
                        <path d="M-4,0h8M0,-4v8" fill="none" stroke="white" stroke-width="1.5" pointer-events="none"/>
                </g>
                <g id="zoomMin">
                        <use xlink:href="#rim" fill="#404040">
                                <set attributeName="fill" to="#808080" begin="zoomminus.mouseover" end="zoomminus.mouseout"/>
                        </use>
                        <path d="M-4,0h8" fill="none" stroke="white" stroke-width="1.5" pointer-events="none"/>
                </g>
                <g id="dirArrow">
                        <path fill="none" stroke="white" stroke-width="1.5" d="M0,-3.0v7 M-2.5,-0.5L0,-3.0L2.5,-0.5"/>
                </g>
               <g id="resetDef">
                       <use xlink:href="#rim2" fill="#404040">
                               <set attributeName="fill" to="#808080" begin="reset.mouseover" end="reset.mouseout"/>
                       </use>
               </g>
        </defs>

<script type="text/javascript">
var viewWidth = 730;
var viewHeight = 302;
var sectionId = 'dynsection-1';
</script>
<script xlink:href="svgpan.js"/>
<svg id="graph" class="graph">
<g id="viewport">
<title>/Users/Claudio/GitHub/bayes&#45;filters&#45;lib/src/BayesFilters/include/BayesFilters/Resampling.h</title>
<polygon fill="#ffffff" stroke="transparent" points="-4,4 -4,-298 725.8369,-298 725.8369,4 -4,4"/>
<!-- Node6 -->
<g id="node1" class="node">
<title>Node6</title>
<polygon fill="#bfbfbf" stroke="#000000" points="281.6182,-245.5 281.6182,-293.5 447.6719,-293.5 447.6719,-245.5 281.6182,-245.5"/>
<text text-anchor="start" x="289.6182" y="-281.5" font-family="Helvetica,sans-Serif" font-size="10.00" fill="#000000">/Users/Claudio/GitHub</text>
<text text-anchor="start" x="289.6182" y="-271.5" font-family="Helvetica,sans-Serif" font-size="10.00" fill="#000000">/bayes&#45;filters&#45;lib/src</text>
<text text-anchor="start" x="289.6182" y="-261.5" font-family="Helvetica,sans-Serif" font-size="10.00" fill="#000000">/BayesFilters/include/BayesFilters</text>
<text text-anchor="middle" x="364.645" y="-251.5" font-family="Helvetica,sans-Serif" font-size="10.00" fill="#000000">/Resampling.h</text>
</g>
<!-- Node7 -->
<g id="node2" class="node">
<title>Node7</title>
<g id="a_node2"><a xlink:href="ParticleFilter_8h.html" target="_top" xlink:title="/Users/Claudio/GitHub\l/bayes&#45;filters&#45;lib/src\l/BayesFilters/include/BayesFilters\l/ParticleFilter.h">
<polygon fill="#ffffff" stroke="#000000" points="189.6182,-160.5 189.6182,-208.5 355.6719,-208.5 355.6719,-160.5 189.6182,-160.5"/>
<text text-anchor="start" x="197.6182" y="-196.5" font-family="Helvetica,sans-Serif" font-size="10.00" fill="#000000">/Users/Claudio/GitHub</text>
<text text-anchor="start" x="197.6182" y="-186.5" font-family="Helvetica,sans-Serif" font-size="10.00" fill="#000000">/bayes&#45;filters&#45;lib/src</text>
<text text-anchor="start" x="197.6182" y="-176.5" font-family="Helvetica,sans-Serif" font-size="10.00" fill="#000000">/BayesFilters/include/BayesFilters</text>
<text text-anchor="middle" x="272.645" y="-166.5" font-family="Helvetica,sans-Serif" font-size="10.00" fill="#000000">/ParticleFilter.h</text>
</a>
</g>
</g>
<!-- Node6&#45;&gt;Node7 -->
<g id="edge1" class="edge">
<title>Node6&#45;&gt;Node7</title>
<path fill="none" stroke="#191970" d="M331.005,-238.4196C320.395,-228.6169 308.8375,-217.9387 298.8277,-208.6906"/>
<polygon fill="#191970" stroke="#191970" points="328.8074,-241.1544 338.5276,-245.3698 333.5578,-236.0129 328.8074,-241.1544"/>
</g>
<!-- Node8 -->
<g id="node3" class="node">
<title>Node8</title>
<g id="a_node3"><a xlink:href="SIS_8h.html" target="_top" xlink:title="/Users/Claudio/GitHub\l/bayes&#45;filters&#45;lib/src\l/BayesFilters/include/BayesFilters/SIS.h">
<polygon fill="#ffffff" stroke="#000000" points="0,-80.5 0,-118.5 193.29,-118.5 193.29,-80.5 0,-80.5"/>
<text text-anchor="start" x="8" y="-106.5" font-family="Helvetica,sans-Serif" font-size="10.00" fill="#000000">/Users/Claudio/GitHub</text>
<text text-anchor="start" x="8" y="-96.5" font-family="Helvetica,sans-Serif" font-size="10.00" fill="#000000">/bayes&#45;filters&#45;lib/src</text>
<text text-anchor="middle" x="96.645" y="-86.5" font-family="Helvetica,sans-Serif" font-size="10.00" fill="#000000">/BayesFilters/include/BayesFilters/SIS.h</text>
</a>
</g>
</g>
<!-- Node6&#45;&gt;Node8 -->
<g id="edge7" class="edge">
<title>Node6&#45;&gt;Node8</title>
<path fill="none" stroke="#191970" d="M271.5175,-250.5736C240.7211,-241.3775 207.4961,-228.0498 180.645,-209 146.6431,-184.877 120.0566,-142.9599 106.5133,-118.5818"/>
<polygon fill="#191970" stroke="#191970" points="270.8423,-254.0211 281.4199,-253.4162 272.7738,-247.2928 270.8423,-254.0211"/>
</g>
<!-- Node11 -->
<g id="node6" class="node">
<title>Node11</title>
<g id="a_node6"><a xlink:href="ResamplingWithPrior_8h.html" target="_top" xlink:title="/Users/Claudio/GitHub\l/bayes&#45;filters&#45;lib/src\l/BayesFilters/include/BayesFilters\l/ResamplingWithPrior.h">
<polygon fill="#ffffff" stroke="#000000" points="373.6182,-160.5 373.6182,-208.5 539.6719,-208.5 539.6719,-160.5 373.6182,-160.5"/>
<text text-anchor="start" x="381.6182" y="-196.5" font-family="Helvetica,sans-Serif" font-size="10.00" fill="#000000">/Users/Claudio/GitHub</text>
<text text-anchor="start" x="381.6182" y="-186.5" font-family="Helvetica,sans-Serif" font-size="10.00" fill="#000000">/bayes&#45;filters&#45;lib/src</text>
<text text-anchor="start" x="381.6182" y="-176.5" font-family="Helvetica,sans-Serif" font-size="10.00" fill="#000000">/BayesFilters/include/BayesFilters</text>
<text text-anchor="middle" x="456.645" y="-166.5" font-family="Helvetica,sans-Serif" font-size="10.00" fill="#000000">/ResamplingWithPrior.h</text>
</a>
</g>
</g>
<!-- Node6&#45;&gt;Node11 -->
<g id="edge5" class="edge">
<title>Node6&#45;&gt;Node11</title>
<path fill="none" stroke="#191970" d="M398.285,-238.4196C408.895,-228.6169 420.4526,-217.9387 430.4623,-208.6906"/>
<polygon fill="#191970" stroke="#191970" points="395.7323,-236.0129 390.7624,-245.3698 400.4826,-241.1544 395.7323,-236.0129"/>
</g>
<!-- Node13 -->
<g id="node8" class="node">
<title>Node13</title>
<g id="a_node8"><a xlink:href="Resampling_8cpp.html" target="_top" xlink:title="/Users/Claudio/GitHub\l/bayes&#45;filters&#45;lib/src\l/BayesFilters/src/Resampling.cpp">
<polygon fill="#ffffff" stroke="#000000" points="557.4531,-165.5 557.4531,-203.5 721.8369,-203.5 721.8369,-165.5 557.4531,-165.5"/>
<text text-anchor="start" x="565.4531" y="-191.5" font-family="Helvetica,sans-Serif" font-size="10.00" fill="#000000">/Users/Claudio/GitHub</text>
<text text-anchor="start" x="565.4531" y="-181.5" font-family="Helvetica,sans-Serif" font-size="10.00" fill="#000000">/bayes&#45;filters&#45;lib/src</text>
<text text-anchor="middle" x="639.645" y="-171.5" font-family="Helvetica,sans-Serif" font-size="10.00" fill="#000000">/BayesFilters/src/Resampling.cpp</text>
</a>
</g>
</g>
<!-- Node6&#45;&gt;Node13 -->
<g id="edge8" class="edge">
<title>Node6&#45;&gt;Node13</title>
<path fill="none" stroke="#191970" d="M452.0449,-242.4855C492.9578,-229.8397 540.726,-215.075 577.8212,-203.6092"/>
<polygon fill="#191970" stroke="#191970" points="450.8667,-239.1862 442.3463,-245.4832 452.9339,-245.874 450.8667,-239.1862"/>
</g>
<!-- Node7&#45;&gt;Node8 -->
<g id="edge2" class="edge">
<title>Node7&#45;&gt;Node8</title>
<path fill="none" stroke="#191970" d="M213.4768,-155.9245C187.9983,-143.6195 158.8945,-129.5637 136.1086,-118.5591"/>
<polygon fill="#191970" stroke="#191970" points="212.1543,-159.1725 222.6813,-160.3698 215.1986,-152.8691 212.1543,-159.1725"/>
</g>
<!-- Node10 -->
<g id="node5" class="node">
<title>Node10</title>
<g id="a_node5"><a xlink:href="ParticleFilter_8cpp.html" target="_top" xlink:title="/Users/Claudio/GitHub\l/bayes&#45;filters&#45;lib/src\l/BayesFilters/src/ParticleFilter.cpp">
<polygon fill="#ffffff" stroke="#000000" points="211.3447,-80.5 211.3447,-118.5 377.9453,-118.5 377.9453,-80.5 211.3447,-80.5"/>
<text text-anchor="start" x="219.3447" y="-106.5" font-family="Helvetica,sans-Serif" font-size="10.00" fill="#000000">/Users/Claudio/GitHub</text>
<text text-anchor="start" x="219.3447" y="-96.5" font-family="Helvetica,sans-Serif" font-size="10.00" fill="#000000">/bayes&#45;filters&#45;lib/src</text>
<text text-anchor="middle" x="294.645" y="-86.5" font-family="Helvetica,sans-Serif" font-size="10.00" fill="#000000">/BayesFilters/src/ParticleFilter.cpp</text>
</a>
</g>
</g>
<!-- Node7&#45;&gt;Node10 -->
<g id="edge4" class="edge">
<title>Node7&#45;&gt;Node10</title>
<path fill="none" stroke="#191970" d="M281.4054,-150.6532C284.2315,-139.7341 287.2636,-128.0192 289.7121,-118.5591"/>
<polygon fill="#191970" stroke="#191970" points="278.0079,-149.8118 278.8905,-160.3698 284.7846,-151.5658 278.0079,-149.8118"/>
</g>
<!-- Node9 -->
<g id="node4" class="node">
<title>Node9</title>
<g id="a_node4"><a xlink:href="SIS_8cpp.html" target="_top" xlink:title="/Users/Claudio/GitHub\l/bayes&#45;filters&#45;lib/src\l/BayesFilters/src/SIS.cpp">
<polygon fill="#ffffff" stroke="#000000" points="32.7954,-.5 32.7954,-38.5 160.4946,-38.5 160.4946,-.5 32.7954,-.5"/>
<text text-anchor="start" x="40.7954" y="-26.5" font-family="Helvetica,sans-Serif" font-size="10.00" fill="#000000">/Users/Claudio/GitHub</text>
<text text-anchor="start" x="40.7954" y="-16.5" font-family="Helvetica,sans-Serif" font-size="10.00" fill="#000000">/bayes&#45;filters&#45;lib/src</text>
<text text-anchor="middle" x="96.645" y="-6.5" font-family="Helvetica,sans-Serif" font-size="10.00" fill="#000000">/BayesFilters/src/SIS.cpp</text>
</a>
</g>
</g>
<!-- Node8&#45;&gt;Node9 -->
<g id="edge3" class="edge">
<title>Node8&#45;&gt;Node9</title>
<path fill="none" stroke="#191970" d="M96.645,-70.1156C96.645,-59.6295 96.645,-48.0942 96.645,-38.6874"/>
<polygon fill="#191970" stroke="#191970" points="93.1451,-70.1342 96.645,-80.1342 100.1451,-70.1343 93.1451,-70.1342"/>
</g>
<!-- Node12 -->
<g id="node7" class="node">
<title>Node12</title>
<g id="a_node7"><a xlink:href="ResamplingWithPrior_8cpp.html" target="_top" xlink:title="/Users/Claudio/GitHub\l/bayes&#45;filters&#45;lib/src\l/BayesFilters/src/ResamplingWith\lPrior.cpp">
<polygon fill="#ffffff" stroke="#000000" points="395.9038,-75.5 395.9038,-123.5 561.3862,-123.5 561.3862,-75.5 395.9038,-75.5"/>
<text text-anchor="start" x="403.9038" y="-111.5" font-family="Helvetica,sans-Serif" font-size="10.00" fill="#000000">/Users/Claudio/GitHub</text>
<text text-anchor="start" x="403.9038" y="-101.5" font-family="Helvetica,sans-Serif" font-size="10.00" fill="#000000">/bayes&#45;filters&#45;lib/src</text>
<text text-anchor="start" x="403.9038" y="-91.5" font-family="Helvetica,sans-Serif" font-size="10.00" fill="#000000">/BayesFilters/src/ResamplingWith</text>
<text text-anchor="middle" x="478.645" y="-81.5" font-family="Helvetica,sans-Serif" font-size="10.00" fill="#000000">Prior.cpp</text>
</a>
</g>
</g>
<!-- Node11&#45;&gt;Node12 -->
<g id="edge6" class="edge">
<title>Node11&#45;&gt;Node12</title>
<path fill="none" stroke="#191970" d="M465.4342,-150.5418C467.7597,-141.5569 470.2227,-132.0408 472.3839,-123.6906"/>
<polygon fill="#191970" stroke="#191970" points="462.0079,-149.8118 462.8905,-160.3698 468.7846,-151.5658 462.0079,-149.8118"/>
</g>
</g>
</svg>
        <g id="navigator" transform="translate(0 0)" fill="#404254">
                <rect fill="#f2f5e9" fill-opacity="0.5" stroke="#606060" stroke-width=".5" x="0" y="0" width="60" height="60"/>
                <use id="zoomplus" xlink:href="#zoomPlus" x="17" y="9" onmousedown="handleZoom(evt,'in')"/>
                <use id="zoomminus" xlink:href="#zoomMin" x="42" y="9" onmousedown="handleZoom(evt,'out')"/>
                <use id="reset" xlink:href="#resetDef" x="30" y="36" onmousedown="handleReset()"/>
                <g id="arrowUp" xlink:href="#dirArrow" transform="translate(30 24)" onmousedown="handlePan(0,-1)">
                  <use xlink:href="#rim" fill="#404040">
                        <set attributeName="fill" to="#808080" begin="arrowUp.mouseover" end="arrowUp.mouseout"/>
                  </use>
                  <path fill="none" stroke="white" stroke-width="1.5" d="M0,-3.0v7 M-2.5,-0.5L0,-3.0L2.5,-0.5"/>
                </g>
                <g id="arrowRight" xlink:href="#dirArrow" transform="rotate(90) translate(36 -43)" onmousedown="handlePan(1,0)">
                  <use xlink:href="#rim" fill="#404040">
                        <set attributeName="fill" to="#808080" begin="arrowRight.mouseover" end="arrowRight.mouseout"/>
                  </use>
                  <path fill="none" stroke="white" stroke-width="1.5" d="M0,-3.0v7 M-2.5,-0.5L0,-3.0L2.5,-0.5"/>
                </g>
                <g id="arrowDown" xlink:href="#dirArrow" transform="rotate(180) translate(-30 -48)" onmousedown="handlePan(0,1)">
                  <use xlink:href="#rim" fill="#404040">
                        <set attributeName="fill" to="#808080" begin="arrowDown.mouseover" end="arrowDown.mouseout"/>
                  </use>
                  <path fill="none" stroke="white" stroke-width="1.5" d="M0,-3.0v7 M-2.5,-0.5L0,-3.0L2.5,-0.5"/>
                </g>
                <g id="arrowLeft" xlink:href="#dirArrow" transform="rotate(270) translate(-36 17)" onmousedown="handlePan(-1,0)">
                  <use xlink:href="#rim" fill="#404040">
                        <set attributeName="fill" to="#808080" begin="arrowLeft.mouseover" end="arrowLeft.mouseout"/>
                  </use>
                  <path fill="none" stroke="white" stroke-width="1.5" d="M0,-3.0v7 M-2.5,-0.5L0,-3.0L2.5,-0.5"/>
                </g>
        </g>
        <svg viewBox="0 0 15 15" width="100%" height="30px" preserveAspectRatio="xMaxYMin meet">
         <g id="arrow_out" transform="scale(0.3 0.3)">
          <a xlink:href="Resampling_8h__dep__incl_org.svg" target="_base">
           <rect id="button" ry="5" rx="5" y="6" x="6" height="38" width="38"
                fill="#f2f5e9" fill-opacity="0.5" stroke="#606060" stroke-width="1.0"/>
           <path id="arrow"
             d="M 11.500037,31.436501 C 11.940474,20.09759 22.043105,11.32322 32.158766,21.979434 L 37.068811,17.246167 C 37.068811,17.246167 37.088388,32 37.088388,32 L 22.160133,31.978069 C 22.160133,31.978069 26.997745,27.140456 26.997745,27.140456 C 18.528582,18.264221 13.291696,25.230495 11.500037,31.436501 z"
             style="fill:#404040;"/>
          </a>
         </g>
        </svg>
</svg>
