<?xml version="1.0" encoding="UTF-8" standalone="no"?>
<!DOCTYPE svg PUBLIC "-//W3C//DTD SVG 1.1//EN"
 "http://www.w3.org/Graphics/SVG/1.1/DTD/svg11.dtd">
<!-- Generated by graphviz version 2.40.1 (20161225.0304)
 -->
<!-- Title: /Users/Claudio/GitHub/bayes&#45;filters&#45;lib/src/BayesFilters/include/BayesFilters/ResamplingWithPrior.h Pages: 1 -->
<svg width="515pt" height="287pt"
 viewBox="0.00 0.00 514.67 287.00" xmlns="http://www.w3.org/2000/svg" xmlns:xlink="http://www.w3.org/1999/xlink">
<g id="graph0" class="graph" transform="scale(1 1) rotate(0) translate(4 283)">
<title>/Users/Claudio/GitHub/bayes&#45;filters&#45;lib/src/BayesFilters/include/BayesFilters/ResamplingWithPrior.h</title>
<polygon fill="#ffffff" stroke="transparent" points="-4,4 -4,-283 510.6724,-283 510.6724,4 -4,4"/>
<!-- Node0 -->
<g id="node1" class="node">
<title>Node0</title>
<polygon fill="#bfbfbf" stroke="#000000" points="145.5889,-230.5 145.5889,-278.5 311.6426,-278.5 311.6426,-230.5 145.5889,-230.5"/>
<text text-anchor="start" x="153.5889" y="-266.5" font-family="Helvetica,sans-Serif" font-size="10.00" fill="#000000">/Users/Claudio/GitHub</text>
<text text-anchor="start" x="153.5889" y="-256.5" font-family="Helvetica,sans-Serif" font-size="10.00" fill="#000000">/bayes&#45;filters&#45;lib/src</text>
<text text-anchor="start" x="153.5889" y="-246.5" font-family="Helvetica,sans-Serif" font-size="10.00" fill="#000000">/BayesFilters/include/BayesFilters</text>
<text text-anchor="middle" x="228.6157" y="-236.5" font-family="Helvetica,sans-Serif" font-size="10.00" fill="#000000">/ResamplingWithPrior.h</text>
</g>
<!-- Node1 -->
<g id="node2" class="node">
<title>Node1</title>
<g id="a_node2"><a xlink:href="ParticleSet_8h.html" target="_top" xlink:title="BayesFilters/ParticleSet.h">
<polygon fill="#ffffff" stroke="#000000" points="63.3721,-110.5 63.3721,-128.5 193.8594,-128.5 193.8594,-110.5 63.3721,-110.5"/>
<text text-anchor="middle" x="128.6157" y="-116.5" font-family="Helvetica,sans-Serif" font-size="10.00" fill="#000000">BayesFilters/ParticleSet.h</text>
</a>
</g>
</g>
<!-- Node0&#45;&gt;Node1 -->
<g id="edge1" class="edge">
<title>Node0&#45;&gt;Node1</title>
<path fill="none" stroke="#191970" d="M155.3352,-230.4668C139.184,-221.6107 124.0847,-209.745 114.6157,-194 104.3783,-176.9772 111.0796,-154.1294 118.3044,-138.2431"/>
<polygon fill="#191970" stroke="#191970" points="121.6141,-139.4496 122.9548,-128.9399 115.3529,-136.3196 121.6141,-139.4496"/>
</g>
<!-- Node3 -->
<g id="node4" class="node">
<title>Node3</title>
<polygon fill="#ffffff" stroke="#bfbfbf" points="0,-.5 0,-18.5 43.2314,-18.5 43.2314,-.5 0,-.5"/>
<text text-anchor="middle" x="21.6157" y="-6.5" font-family="Helvetica,sans-Serif" font-size="10.00" fill="#000000">vector</text>
</g>
<!-- Node0&#45;&gt;Node3 -->
<g id="edge14" class="edge">
<title>Node0&#45;&gt;Node3</title>
<path fill="none" stroke="#191970" d="M166.2763,-230.448C145.7743,-220.8712 123.6382,-208.6133 105.6157,-194 56.018,-153.7843 43.9014,-135.469 26.6157,-74 22.4769,-59.282 21.3259,-41.9791 21.1554,-29.0018"/>
<polygon fill="#191970" stroke="#191970" points="24.6559,-28.9027 21.2076,-18.8847 17.656,-28.8665 24.6559,-28.9027"/>
</g>
<!-- Node4 -->
<g id="node5" class="node">
<title>Node4</title>
<polygon fill="#ffffff" stroke="#bfbfbf" points="217.9854,-.5 217.9854,-18.5 291.2461,-18.5 291.2461,-.5 217.9854,-.5"/>
<text text-anchor="middle" x="254.6157" y="-6.5" font-family="Helvetica,sans-Serif" font-size="10.00" fill="#000000">Eigen/Dense</text>
</g>
<!-- Node0&#45;&gt;Node4 -->
<g id="edge15" class="edge">
<title>Node0&#45;&gt;Node4</title>
<path fill="none" stroke="#191970" d="M241.7287,-230.2218C246.8302,-219.4545 252.058,-206.4295 254.6157,-194 266.7964,-134.8063 261.0228,-62.6495 257.1433,-28.7894"/>
<polygon fill="#191970" stroke="#191970" points="260.6158,-28.3503 255.929,-18.8485 253.6674,-29.1992 260.6158,-28.3503"/>
</g>
<!-- Node5 -->
<g id="node6" class="node">
<title>Node5</title>
<g id="a_node6"><a xlink:href="ParticleSetInitialization_8h.html" target="_top" xlink:title="BayesFilters/ParticleSet\lInitialization.h">
<polygon fill="#ffffff" stroke="#000000" points="123.542,-165.5 123.542,-193.5 245.6895,-193.5 245.6895,-165.5 123.542,-165.5"/>
<text text-anchor="start" x="131.542" y="-181.5" font-family="Helvetica,sans-Serif" font-size="10.00" fill="#000000">BayesFilters/ParticleSet</text>
<text text-anchor="middle" x="184.6157" y="-171.5" font-family="Helvetica,sans-Serif" font-size="10.00" fill="#000000">Initialization.h</text>
</a>
</g>
</g>
<!-- Node0&#45;&gt;Node5 -->
<g id="edge6" class="edge">
<title>Node0&#45;&gt;Node5</title>
<path fill="none" stroke="#191970" d="M214.4517,-230.3567C209.1563,-221.3306 203.1644,-211.117 197.9468,-202.2233"/>
<polygon fill="#191970" stroke="#191970" points="200.9305,-200.3924 192.8515,-193.5382 194.8928,-203.9345 200.9305,-200.3924"/>
</g>
<!-- Node6 -->
<g id="node7" class="node">
<title>Node6</title>
<g id="a_node7"><a xlink:href="Resampling_8h.html" target="_top" xlink:title="BayesFilters/Resampling.h">
<polygon fill="#ffffff" stroke="#000000" points="301.1479,-170.5 301.1479,-188.5 436.0835,-188.5 436.0835,-170.5 301.1479,-170.5"/>
<text text-anchor="middle" x="368.6157" y="-176.5" font-family="Helvetica,sans-Serif" font-size="10.00" fill="#000000">BayesFilters/Resampling.h</text>
</a>
</g>
</g>
<!-- Node0&#45;&gt;Node6 -->
<g id="edge9" class="edge">
<title>Node0&#45;&gt;Node6</title>
<path fill="none" stroke="#191970" d="M273.6832,-230.3567C296.4895,-218.139 323.3574,-203.7455 342.6782,-193.3951"/>
<polygon fill="#191970" stroke="#191970" points="344.3439,-196.4734 351.5059,-188.666 341.0383,-190.3031 344.3439,-196.4734"/>
</g>
<!-- Node8 -->
<g id="node9" class="node">
<title>Node8</title>
<polygon fill="#ffffff" stroke="#bfbfbf" points="454.5591,-170.5 454.5591,-188.5 506.6724,-188.5 506.6724,-170.5 454.5591,-170.5"/>
<text text-anchor="middle" x="480.6157" y="-176.5" font-family="Helvetica,sans-Serif" font-size="10.00" fill="#000000">memory</text>
</g>
<!-- Node0&#45;&gt;Node8 -->
<g id="edge13" class="edge">
<title>Node0&#45;&gt;Node8</title>
<path fill="none" stroke="#191970" d="M311.8369,-233.4801C352.2394,-222.6954 401.2969,-208.7409 444.6157,-194 446.2383,-193.4479 447.8939,-192.8623 449.5599,-192.2553"/>
<polygon fill="#191970" stroke="#191970" points="450.9635,-195.4659 459.0582,-188.6302 448.4675,-188.9261 450.9635,-195.4659"/>
</g>
<!-- Node2 -->
<g id="node3" class="node">
<title>Node2</title>
<g id="a_node3"><a xlink:href="GaussianMixture_8h.html" target="_top" xlink:title="BayesFilters/GaussianMixture.h">
<polygon fill="#ffffff" stroke="#000000" points="50.0347,-55.5 50.0347,-73.5 207.1968,-73.5 207.1968,-55.5 50.0347,-55.5"/>
<text text-anchor="middle" x="128.6157" y="-61.5" font-family="Helvetica,sans-Serif" font-size="10.00" fill="#000000">BayesFilters/GaussianMixture.h</text>
</a>
</g>
</g>
<!-- Node1&#45;&gt;Node2 -->
<g id="edge2" class="edge">
<title>Node1&#45;&gt;Node2</title>
<path fill="none" stroke="#191970" d="M128.6157,-110.4179C128.6157,-103.2164 128.6157,-92.8962 128.6157,-83.8632"/>
<polygon fill="#191970" stroke="#191970" points="132.1158,-83.7794 128.6157,-73.7795 125.1158,-83.7795 132.1158,-83.7794"/>
</g>
<!-- Node1&#45;&gt;Node3 -->
<g id="edge5" class="edge">
<title>Node1&#45;&gt;Node3</title>
<path fill="none" stroke="#191970" d="M97.703,-110.4586C78.7097,-103.4074 55.2866,-91.7742 40.6157,-74 30.0613,-61.213 25.3698,-42.7607 23.2844,-28.8655"/>
<polygon fill="#191970" stroke="#191970" points="26.7557,-28.4153 22.1085,-18.894 19.8038,-29.2352 26.7557,-28.4153"/>
</g>
<!-- Node2&#45;&gt;Node3 -->
<g id="edge3" class="edge">
<title>Node2&#45;&gt;Node3</title>
<path fill="none" stroke="#191970" d="M110.9468,-55.4179C93.9094,-46.6603 67.8995,-33.2907 48.3318,-23.2326"/>
<polygon fill="#191970" stroke="#191970" points="49.8048,-20.0544 39.3108,-18.5956 46.6046,-26.2801 49.8048,-20.0544"/>
</g>
<!-- Node2&#45;&gt;Node4 -->
<g id="edge4" class="edge">
<title>Node2&#45;&gt;Node4</title>
<path fill="none" stroke="#191970" d="M149.4221,-55.4179C169.8496,-46.5011 201.2306,-32.803 224.4049,-22.6873"/>
<polygon fill="#191970" stroke="#191970" points="226.0138,-25.804 233.7785,-18.5956 223.2133,-19.3885 226.0138,-25.804"/>
</g>
<!-- Node5&#45;&gt;Node1 -->
<g id="edge7" class="edge">
<title>Node5&#45;&gt;Node1</title>
<path fill="none" stroke="#191970" d="M171.3445,-165.2808C163.1393,-156.4896 152.5751,-145.1708 144.004,-135.9875"/>
<polygon fill="#191970" stroke="#191970" points="146.4762,-133.5066 137.0943,-128.5842 141.3588,-138.2829 146.4762,-133.5066"/>
</g>
<!-- Node5&#45;&gt;Node4 -->
<g id="edge8" class="edge">
<title>Node5&#45;&gt;Node4</title>
<path fill="none" stroke="#191970" d="M190.4635,-165.2983C203.0895,-134.635 232.8968,-62.2459 246.9853,-28.031"/>
<polygon fill="#191970" stroke="#191970" points="250.2453,-29.3061 250.8165,-18.7266 243.7726,-26.6408 250.2453,-29.3061"/>
</g>
<!-- Node6&#45;&gt;Node1 -->
<g id="edge11" class="edge">
<title>Node6&#45;&gt;Node1</title>
<path fill="none" stroke="#191970" d="M332.4254,-170.4524C290.2142,-159.8996 220.3685,-142.4382 174.4164,-130.9502"/>
<polygon fill="#191970" stroke="#191970" points="175.2578,-127.5529 164.7075,-128.5229 173.56,-134.3439 175.2578,-127.5529"/>
</g>
<!-- Node6&#45;&gt;Node4 -->
<g id="edge12" class="edge">
<title>Node6&#45;&gt;Node4</title>
<path fill="none" stroke="#191970" d="M362.2745,-170.242C355.3886,-160.1517 344.1034,-143.5064 334.6157,-129 313.2896,-96.3929 309.5081,-87.2296 287.6157,-55 281.2537,-45.6339 273.8795,-35.4109 267.7177,-27.0319"/>
<polygon fill="#191970" stroke="#191970" points="270.3778,-24.7429 261.6125,-18.7913 264.7532,-28.91 270.3778,-24.7429"/>
</g>
<!-- Node7 -->
<g id="node8" class="node">
<title>Node7</title>
<polygon fill="#ffffff" stroke="#bfbfbf" points="343.6626,-110.5 343.6626,-128.5 393.5688,-128.5 393.5688,-110.5 343.6626,-110.5"/>
<text text-anchor="middle" x="368.6157" y="-116.5" font-family="Helvetica,sans-Serif" font-size="10.00" fill="#000000">random</text>
</g>
<!-- Node6&#45;&gt;Node7 -->
<g id="edge10" class="edge">
<title>Node6&#45;&gt;Node7</title>
<path fill="none" stroke="#191970" d="M368.6157,-170.3873C368.6157,-162.0174 368.6157,-149.3414 368.6157,-138.735"/>
<polygon fill="#191970" stroke="#191970" points="372.1158,-138.6984 368.6157,-128.6985 365.1158,-138.6985 372.1158,-138.6984"/>
</g>
</g>
</svg>
