<?xml version="1.0" encoding="UTF-8" standalone="no"?>
<!DOCTYPE svg PUBLIC "-//W3C//DTD SVG 1.1//EN"
 "http://www.w3.org/Graphics/SVG/1.1/DTD/svg11.dtd">
<!-- Generated by graphviz version 2.40.1 (20161225.0304)
 -->
<!-- Title: /Users/Claudio/GitHub/bayes&#45;filters&#45;lib/src/BayesFilters/src/ResamplingWithPrior.cpp Pages: 1 -->
<svg width="669pt" height="352pt"
 viewBox="0.00 0.00 668.78 352.00" xmlns="http://www.w3.org/2000/svg" xmlns:xlink="http://www.w3.org/1999/xlink">
<g id="graph0" class="graph" transform="scale(1 1) rotate(0) translate(4 348)">
<title>/Users/Claudio/GitHub/bayes&#45;filters&#45;lib/src/BayesFilters/src/ResamplingWithPrior.cpp</title>
<polygon fill="#ffffff" stroke="transparent" points="-4,4 -4,-348 664.7832,-348 664.7832,4 -4,4"/>
<!-- Node0 -->
<g id="node1" class="node">
<title>Node0</title>
<polygon fill="#bfbfbf" stroke="#000000" points="383.2588,-295.5 383.2588,-343.5 548.7412,-343.5 548.7412,-295.5 383.2588,-295.5"/>
<text text-anchor="start" x="391.2588" y="-331.5" font-family="Helvetica,sans-Serif" font-size="10.00" fill="#000000">/Users/Claudio/GitHub</text>
<text text-anchor="start" x="391.2588" y="-321.5" font-family="Helvetica,sans-Serif" font-size="10.00" fill="#000000">/bayes&#45;filters&#45;lib/src</text>
<text text-anchor="start" x="391.2588" y="-311.5" font-family="Helvetica,sans-Serif" font-size="10.00" fill="#000000">/BayesFilters/src/ResamplingWith</text>
<text text-anchor="middle" x="466" y="-301.5" font-family="Helvetica,sans-Serif" font-size="10.00" fill="#000000">Prior.cpp</text>
</g>
<!-- Node1 -->
<g id="node2" class="node">
<title>Node1</title>
<g id="a_node2"><a xlink:href="ResamplingWithPrior_8h.html" target="_top" xlink:title="BayesFilters/ResamplingWith\lPrior.h">
<polygon fill="#ffffff" stroke="#000000" points="247.7021,-230.5 247.7021,-258.5 394.2979,-258.5 394.2979,-230.5 247.7021,-230.5"/>
<text text-anchor="start" x="255.7021" y="-246.5" font-family="Helvetica,sans-Serif" font-size="10.00" fill="#000000">BayesFilters/ResamplingWith</text>
<text text-anchor="middle" x="321" y="-236.5" font-family="Helvetica,sans-Serif" font-size="10.00" fill="#000000">Prior.h</text>
</a>
</g>
</g>
<!-- Node0&#45;&gt;Node1 -->
<g id="edge1" class="edge">
<title>Node0&#45;&gt;Node1</title>
<path fill="none" stroke="#191970" d="M419.3229,-295.3567C399.209,-284.9529 376.0448,-272.9715 357.2542,-263.2522"/>
<polygon fill="#191970" stroke="#191970" points="358.6307,-260.0237 348.1405,-258.5382 355.4147,-266.2412 358.6307,-260.0237"/>
</g>
<!-- Node4 -->
<g id="node5" class="node">
<title>Node4</title>
<polygon fill="#ffffff" stroke="#bfbfbf" points="35.3843,-.5 35.3843,-18.5 78.6157,-18.5 78.6157,-.5 35.3843,-.5"/>
<text text-anchor="middle" x="57" y="-6.5" font-family="Helvetica,sans-Serif" font-size="10.00" fill="#000000">vector</text>
</g>
<!-- Node0&#45;&gt;Node4 -->
<g id="edge22" class="edge">
<title>Node0&#45;&gt;Node4</title>
<path fill="none" stroke="#191970" d="M383.2255,-311.7444C249.3157,-296.8815 0,-258.5897 0,-179.5 0,-179.5 0,-179.5 0,-119.5 0,-83.1769 24.8042,-46.9084 41.6876,-26.4288"/>
<polygon fill="#191970" stroke="#191970" points="44.4923,-28.5348 48.3429,-18.6644 39.1775,-23.9791 44.4923,-28.5348"/>
</g>
<!-- Node10 -->
<g id="node11" class="node">
<title>Node10</title>
<g id="a_node11"><a xlink:href="utils_8h.html" target="_top" xlink:title="BayesFilters/utils.h">
<polygon fill="#ffffff" stroke="#000000" points="416.042,-235.5 416.042,-253.5 515.958,-253.5 515.958,-235.5 416.042,-235.5"/>
<text text-anchor="middle" x="466" y="-241.5" font-family="Helvetica,sans-Serif" font-size="10.00" fill="#000000">BayesFilters/utils.h</text>
</a>
</g>
</g>
<!-- Node0&#45;&gt;Node10 -->
<g id="edge17" class="edge">
<title>Node0&#45;&gt;Node10</title>
<path fill="none" stroke="#191970" d="M466,-295.3567C466,-285.1383 466,-273.3979 466,-263.7737"/>
<polygon fill="#191970" stroke="#191970" points="469.5001,-263.6659 466,-253.666 462.5001,-263.666 469.5001,-263.6659"/>
</g>
<!-- Node11 -->
<g id="node12" class="node">
<title>Node11</title>
<polygon fill="#ffffff" stroke="#bfbfbf" points="534.436,-235.5 534.436,-253.5 591.564,-253.5 591.564,-235.5 534.436,-235.5"/>
<text text-anchor="middle" x="563" y="-241.5" font-family="Helvetica,sans-Serif" font-size="10.00" fill="#000000">algorithm</text>
</g>
<!-- Node0&#45;&gt;Node11 -->
<g id="edge20" class="edge">
<title>Node0&#45;&gt;Node11</title>
<path fill="none" stroke="#191970" d="M497.2253,-295.3567C512.3086,-283.6944 529.956,-270.0495 543.1719,-259.831"/>
<polygon fill="#191970" stroke="#191970" points="545.3751,-262.5517 551.1453,-253.666 541.0934,-257.0139 545.3751,-262.5517"/>
</g>
<!-- Node12 -->
<g id="node13" class="node">
<title>Node12</title>
<polygon fill="#ffffff" stroke="#bfbfbf" points="609.2168,-235.5 609.2168,-253.5 660.7832,-253.5 660.7832,-235.5 609.2168,-235.5"/>
<text text-anchor="middle" x="635" y="-241.5" font-family="Helvetica,sans-Serif" font-size="10.00" fill="#000000">numeric</text>
</g>
<!-- Node0&#45;&gt;Node12 -->
<g id="edge21" class="edge">
<title>Node0&#45;&gt;Node12</title>
<path fill="none" stroke="#191970" d="M520.4029,-295.3567C548.4339,-282.9169 581.5478,-268.2214 604.9528,-257.8346"/>
<polygon fill="#191970" stroke="#191970" points="606.6254,-260.9215 614.346,-253.666 603.7859,-254.5233 606.6254,-260.9215"/>
</g>
<!-- Node2 -->
<g id="node3" class="node">
<title>Node2</title>
<g id="a_node3"><a xlink:href="ParticleSet_8h.html" target="_top" xlink:title="BayesFilters/ParticleSet.h">
<polygon fill="#ffffff" stroke="#000000" points="108.7563,-110.5 108.7563,-128.5 239.2437,-128.5 239.2437,-110.5 108.7563,-110.5"/>
<text text-anchor="middle" x="174" y="-116.5" font-family="Helvetica,sans-Serif" font-size="10.00" fill="#000000">BayesFilters/ParticleSet.h</text>
</a>
</g>
</g>
<!-- Node1&#45;&gt;Node2 -->
<g id="edge2" class="edge">
<title>Node1&#45;&gt;Node2</title>
<path fill="none" stroke="#191970" d="M247.5082,-237.1257C191.7811,-229.8377 121.8289,-216.4544 104,-194 95.9853,-183.906 97.8523,-176.3283 104,-165 111.6956,-150.8194 125.9333,-140.3683 139.569,-133.0844"/>
<polygon fill="#191970" stroke="#191970" points="141.3906,-136.0893 148.8251,-128.5408 138.306,-129.8055 141.3906,-136.0893"/>
</g>
<!-- Node1&#45;&gt;Node4 -->
<g id="edge15" class="edge">
<title>Node1&#45;&gt;Node4</title>
<path fill="none" stroke="#191970" d="M247.4321,-236.7153C189.853,-229.0959 116.107,-215.4629 95,-194 50.5285,-148.7788 51.6289,-66.1875 54.7761,-28.7999"/>
<polygon fill="#191970" stroke="#191970" points="58.2698,-29.0352 55.7703,-18.7394 51.3037,-28.3467 58.2698,-29.0352"/>
</g>
<!-- Node5 -->
<g id="node6" class="node">
<title>Node5</title>
<polygon fill="#ffffff" stroke="#bfbfbf" points="341.3696,-.5 341.3696,-18.5 414.6304,-18.5 414.6304,-.5 341.3696,-.5"/>
<text text-anchor="middle" x="378" y="-6.5" font-family="Helvetica,sans-Serif" font-size="10.00" fill="#000000">Eigen/Dense</text>
</g>
<!-- Node1&#45;&gt;Node5 -->
<g id="edge16" class="edge">
<title>Node1&#45;&gt;Node5</title>
<path fill="none" stroke="#191970" d="M356.1402,-230.4506C371.6144,-222.2871 388.2418,-210.335 397,-194 426.2332,-139.477 400.8866,-62.8753 386.4181,-28.0437"/>
<polygon fill="#191970" stroke="#191970" points="389.5344,-26.432 382.3496,-18.6455 383.1105,-29.213 389.5344,-26.432"/>
</g>
<!-- Node6 -->
<g id="node7" class="node">
<title>Node6</title>
<g id="a_node7"><a xlink:href="ParticleSetInitialization_8h.html" target="_top" xlink:title="BayesFilters/ParticleSet\lInitialization.h">
<polygon fill="#ffffff" stroke="#000000" points="112.9263,-165.5 112.9263,-193.5 235.0737,-193.5 235.0737,-165.5 112.9263,-165.5"/>
<text text-anchor="start" x="120.9263" y="-181.5" font-family="Helvetica,sans-Serif" font-size="10.00" fill="#000000">BayesFilters/ParticleSet</text>
<text text-anchor="middle" x="174" y="-171.5" font-family="Helvetica,sans-Serif" font-size="10.00" fill="#000000">Initialization.h</text>
</a>
</g>
</g>
<!-- Node1&#45;&gt;Node6 -->
<g id="edge7" class="edge">
<title>Node1&#45;&gt;Node6</title>
<path fill="none" stroke="#191970" d="M289.1032,-230.396C267.4322,-220.8135 238.5664,-208.0498 215.1635,-197.7016"/>
<polygon fill="#191970" stroke="#191970" points="216.3958,-194.4196 205.8346,-193.5765 213.5649,-200.8217 216.3958,-194.4196"/>
</g>
<!-- Node7 -->
<g id="node8" class="node">
<title>Node7</title>
<g id="a_node8"><a xlink:href="Resampling_8h.html" target="_top" xlink:title="BayesFilters/Resampling.h">
<polygon fill="#ffffff" stroke="#000000" points="253.5322,-170.5 253.5322,-188.5 388.4678,-188.5 388.4678,-170.5 253.5322,-170.5"/>
<text text-anchor="middle" x="321" y="-176.5" font-family="Helvetica,sans-Serif" font-size="10.00" fill="#000000">BayesFilters/Resampling.h</text>
</a>
</g>
</g>
<!-- Node1&#45;&gt;Node7 -->
<g id="edge10" class="edge">
<title>Node1&#45;&gt;Node7</title>
<path fill="none" stroke="#191970" d="M321,-230.396C321,-221.1723 321,-209.0011 321,-198.8738"/>
<polygon fill="#191970" stroke="#191970" points="324.5001,-198.5743 321,-188.5743 317.5001,-198.5743 324.5001,-198.5743"/>
</g>
<!-- Node9 -->
<g id="node10" class="node">
<title>Node9</title>
<polygon fill="#ffffff" stroke="#bfbfbf" points="443.9434,-170.5 443.9434,-188.5 496.0566,-188.5 496.0566,-170.5 443.9434,-170.5"/>
<text text-anchor="middle" x="470" y="-176.5" font-family="Helvetica,sans-Serif" font-size="10.00" fill="#000000">memory</text>
</g>
<!-- Node1&#45;&gt;Node9 -->
<g id="edge14" class="edge">
<title>Node1&#45;&gt;Node9</title>
<path fill="none" stroke="#191970" d="M353.3308,-230.396C379.0212,-219.1888 414.6869,-203.6299 439.8027,-192.6733"/>
<polygon fill="#191970" stroke="#191970" points="441.4326,-195.7809 449.1989,-188.5743 438.6336,-189.3648 441.4326,-195.7809"/>
</g>
<!-- Node3 -->
<g id="node4" class="node">
<title>Node3</title>
<g id="a_node4"><a xlink:href="GaussianMixture_8h.html" target="_top" xlink:title="BayesFilters/GaussianMixture.h">
<polygon fill="#ffffff" stroke="#000000" points="104.4189,-55.5 104.4189,-73.5 261.5811,-73.5 261.5811,-55.5 104.4189,-55.5"/>
<text text-anchor="middle" x="183" y="-61.5" font-family="Helvetica,sans-Serif" font-size="10.00" fill="#000000">BayesFilters/GaussianMixture.h</text>
</a>
</g>
</g>
<!-- Node2&#45;&gt;Node3 -->
<g id="edge3" class="edge">
<title>Node2&#45;&gt;Node3</title>
<path fill="none" stroke="#191970" d="M175.4862,-110.4179C176.6646,-103.2164 178.3534,-92.8962 179.8315,-83.8632"/>
<polygon fill="#191970" stroke="#191970" points="183.3206,-84.2134 181.4815,-73.7795 176.4125,-83.083 183.3206,-84.2134"/>
</g>
<!-- Node2&#45;&gt;Node4 -->
<g id="edge6" class="edge">
<title>Node2&#45;&gt;Node4</title>
<path fill="none" stroke="#191970" d="M151.5206,-110.3631C134.4863,-102.6003 111.3077,-90.1478 95,-74 81.7531,-60.883 71.4211,-42.2159 64.8962,-28.3361"/>
<polygon fill="#191970" stroke="#191970" points="67.9275,-26.5392 60.6635,-18.8266 61.5324,-29.3857 67.9275,-26.5392"/>
</g>
<!-- Node3&#45;&gt;Node4 -->
<g id="edge4" class="edge">
<title>Node3&#45;&gt;Node4</title>
<path fill="none" stroke="#191970" d="M162.1937,-55.4179C141.7661,-46.5011 110.3852,-32.803 87.2108,-22.6873"/>
<polygon fill="#191970" stroke="#191970" points="88.4024,-19.3885 77.8372,-18.5956 85.6019,-25.804 88.4024,-19.3885"/>
</g>
<!-- Node3&#45;&gt;Node5 -->
<g id="edge5" class="edge">
<title>Node3&#45;&gt;Node5</title>
<path fill="none" stroke="#191970" d="M215.2003,-55.4179C248.3246,-46.0751 300.0588,-31.4834 336.2949,-21.263"/>
<polygon fill="#191970" stroke="#191970" points="337.4016,-24.5875 346.076,-18.5042 335.5013,-17.8503 337.4016,-24.5875"/>
</g>
<!-- Node6&#45;&gt;Node2 -->
<g id="edge8" class="edge">
<title>Node6&#45;&gt;Node2</title>
<path fill="none" stroke="#191970" d="M174,-165.2808C174,-157.3776 174,-147.4316 174,-138.8308"/>
<polygon fill="#191970" stroke="#191970" points="177.5001,-138.5842 174,-128.5842 170.5001,-138.5842 177.5001,-138.5842"/>
</g>
<!-- Node6&#45;&gt;Node5 -->
<g id="edge9" class="edge">
<title>Node6&#45;&gt;Node5</title>
<path fill="none" stroke="#191970" d="M196.2865,-165.4982C211.2926,-155.7816 231.3123,-142.2505 248,-129 291.1397,-94.7459 337.7666,-49.704 361.7317,-25.8942"/>
<polygon fill="#191970" stroke="#191970" points="364.352,-28.2238 368.9524,-18.6798 359.4044,-23.2718 364.352,-28.2238"/>
</g>
<!-- Node7&#45;&gt;Node2 -->
<g id="edge12" class="edge">
<title>Node7&#45;&gt;Node2</title>
<path fill="none" stroke="#191970" d="M298.6739,-170.3873C273.8148,-160.2407 233.4513,-143.7658 205.4126,-132.3215"/>
<polygon fill="#191970" stroke="#191970" points="206.6357,-129.0404 196.0546,-128.5019 203.9904,-135.5214 206.6357,-129.0404"/>
</g>
<!-- Node7&#45;&gt;Node5 -->
<g id="edge13" class="edge">
<title>Node7&#45;&gt;Node5</title>
<path fill="none" stroke="#191970" d="M330.1299,-170.3391C339.0122,-160.8468 352.1412,-145.1603 359,-129 373.1703,-95.6125 376.8691,-52.904 377.7755,-28.6343"/>
<polygon fill="#191970" stroke="#191970" points="381.2753,-28.6855 378.0266,-18.6011 374.2775,-28.5103 381.2753,-28.6855"/>
</g>
<!-- Node8 -->
<g id="node9" class="node">
<title>Node8</title>
<polygon fill="#ffffff" stroke="#bfbfbf" points="300.0469,-110.5 300.0469,-128.5 349.9531,-128.5 349.9531,-110.5 300.0469,-110.5"/>
<text text-anchor="middle" x="325" y="-116.5" font-family="Helvetica,sans-Serif" font-size="10.00" fill="#000000">random</text>
</g>
<!-- Node7&#45;&gt;Node8 -->
<g id="edge11" class="edge">
<title>Node7&#45;&gt;Node8</title>
<path fill="none" stroke="#191970" d="M321.6075,-170.3873C322.1655,-162.0174 323.0106,-149.3414 323.7177,-138.735"/>
<polygon fill="#191970" stroke="#191970" points="327.2137,-138.9092 324.3868,-128.6985 320.2292,-138.4435 327.2137,-138.9092"/>
</g>
<!-- Node10&#45;&gt;Node5 -->
<g id="edge18" class="edge">
<title>Node10&#45;&gt;Node5</title>
<path fill="none" stroke="#191970" d="M476.2854,-235.2469C485.817,-225.9189 499.3483,-210.5648 505,-194 509.162,-181.8016 509.3278,-177.1406 505,-165 483.497,-104.6779 427.4451,-50.847 397.51,-25.26"/>
<polygon fill="#191970" stroke="#191970" points="399.7233,-22.5483 389.8097,-18.8102 395.2284,-27.9145 399.7233,-22.5483"/>
</g>
<!-- Node10&#45;&gt;Node9 -->
<g id="edge19" class="edge">
<title>Node10&#45;&gt;Node9</title>
<path fill="none" stroke="#191970" d="M466.5562,-235.462C467.1347,-226.061 468.0584,-211.0518 468.8035,-198.943"/>
<polygon fill="#191970" stroke="#191970" points="472.3017,-199.0783 469.4226,-188.8821 465.3149,-198.6482 472.3017,-199.0783"/>
</g>
</g>
</svg>
