<?xml version="1.0" encoding="UTF-8" standalone="no"?>
<!DOCTYPE svg PUBLIC "-//W3C//DTD SVG 1.1//EN"
 "http://www.w3.org/Graphics/SVG/1.1/DTD/svg11.dtd">
<!-- Generated by graphviz version 2.40.1 (20161225.0304)
 -->
<!-- Title: /Users/Claudio/GitHub/bayes&#45;filters&#45;lib/src/BayesFilters/src/Resampling.cpp Pages: 1 -->
<svg width="275pt" height="267pt"
 viewBox="0.00 0.00 275.15 267.00" xmlns="http://www.w3.org/2000/svg" xmlns:xlink="http://www.w3.org/1999/xlink">
<g id="graph0" class="graph" transform="scale(1 1) rotate(0) translate(4 263)">
<title>/Users/Claudio/GitHub/bayes&#45;filters&#45;lib/src/BayesFilters/src/Resampling.cpp</title>
<polygon fill="#ffffff" stroke="transparent" points="-4,4 -4,-263 271.145,-263 271.145,4 -4,4"/>
<!-- Node0 -->
<g id="node1" class="node">
<title>Node0</title>
<polygon fill="#bfbfbf" stroke="#000000" points="102.7612,-220.5 102.7612,-258.5 267.145,-258.5 267.145,-220.5 102.7612,-220.5"/>
<text text-anchor="start" x="110.7612" y="-246.5" font-family="Helvetica,sans-Serif" font-size="10.00" fill="#000000">/Users/Claudio/GitHub</text>
<text text-anchor="start" x="110.7612" y="-236.5" font-family="Helvetica,sans-Serif" font-size="10.00" fill="#000000">/bayes&#45;filters&#45;lib/src</text>
<text text-anchor="middle" x="184.9531" y="-226.5" font-family="Helvetica,sans-Serif" font-size="10.00" fill="#000000">/BayesFilters/src/Resampling.cpp</text>
</g>
<!-- Node1 -->
<g id="node2" class="node">
<title>Node1</title>
<g id="a_node2"><a xlink:href="Resampling_8h.html" target="_top" xlink:title="BayesFilters/Resampling.h">
<polygon fill="#ffffff" stroke="#000000" points="65.4854,-165.5 65.4854,-183.5 200.4209,-183.5 200.4209,-165.5 65.4854,-165.5"/>
<text text-anchor="middle" x="132.9531" y="-171.5" font-family="Helvetica,sans-Serif" font-size="10.00" fill="#000000">BayesFilters/Resampling.h</text>
</a>
</g>
</g>
<!-- Node0&#45;&gt;Node1 -->
<g id="edge1" class="edge">
<title>Node0&#45;&gt;Node1</title>
<path fill="none" stroke="#191970" d="M169.6327,-220.3494C162.3528,-211.2495 153.7209,-200.4597 146.6601,-191.6338"/>
<polygon fill="#191970" stroke="#191970" points="149.2114,-189.2201 140.2314,-183.5978 143.7453,-193.593 149.2114,-189.2201"/>
</g>
<!-- Node7 -->
<g id="node8" class="node">
<title>Node7</title>
<polygon fill="#ffffff" stroke="#bfbfbf" points="218.5615,-165.5 218.5615,-183.5 257.3447,-183.5 257.3447,-165.5 218.5615,-165.5"/>
<text text-anchor="middle" x="237.9531" y="-171.5" font-family="Helvetica,sans-Serif" font-size="10.00" fill="#000000">utility</text>
</g>
<!-- Node0&#45;&gt;Node7 -->
<g id="edge9" class="edge">
<title>Node0&#45;&gt;Node7</title>
<path fill="none" stroke="#191970" d="M200.5682,-220.3494C208.0654,-211.1548 216.9694,-200.2347 224.2069,-191.3586"/>
<polygon fill="#191970" stroke="#191970" points="226.928,-193.5599 230.5349,-183.5978 221.5029,-189.1363 226.928,-193.5599"/>
</g>
<!-- Node2 -->
<g id="node3" class="node">
<title>Node2</title>
<polygon fill="#ffffff" stroke="#bfbfbf" points="0,-110.5 0,-128.5 49.9063,-128.5 49.9063,-110.5 0,-110.5"/>
<text text-anchor="middle" x="24.9531" y="-116.5" font-family="Helvetica,sans-Serif" font-size="10.00" fill="#000000">random</text>
</g>
<!-- Node1&#45;&gt;Node2 -->
<g id="edge2" class="edge">
<title>Node1&#45;&gt;Node2</title>
<path fill="none" stroke="#191970" d="M115.1191,-165.4179C97.9225,-156.6603 71.6695,-143.2907 51.9189,-133.2326"/>
<polygon fill="#191970" stroke="#191970" points="53.313,-130.0148 42.8136,-128.5956 50.1363,-136.2526 53.313,-130.0148"/>
</g>
<!-- Node3 -->
<g id="node4" class="node">
<title>Node3</title>
<g id="a_node4"><a xlink:href="ParticleSet_8h.html" target="_top" xlink:title="BayesFilters/ParticleSet.h">
<polygon fill="#ffffff" stroke="#000000" points="67.7095,-110.5 67.7095,-128.5 198.1968,-128.5 198.1968,-110.5 67.7095,-110.5"/>
<text text-anchor="middle" x="132.9531" y="-116.5" font-family="Helvetica,sans-Serif" font-size="10.00" fill="#000000">BayesFilters/ParticleSet.h</text>
</a>
</g>
</g>
<!-- Node1&#45;&gt;Node3 -->
<g id="edge3" class="edge">
<title>Node1&#45;&gt;Node3</title>
<path fill="none" stroke="#191970" d="M132.9531,-165.4179C132.9531,-158.2164 132.9531,-147.8962 132.9531,-138.8632"/>
<polygon fill="#191970" stroke="#191970" points="136.4532,-138.7794 132.9531,-128.7795 129.4532,-138.7795 136.4532,-138.7794"/>
</g>
<!-- Node6 -->
<g id="node7" class="node">
<title>Node6</title>
<polygon fill="#ffffff" stroke="#bfbfbf" points="141.3228,-.5 141.3228,-18.5 214.5835,-18.5 214.5835,-.5 141.3228,-.5"/>
<text text-anchor="middle" x="177.9531" y="-6.5" font-family="Helvetica,sans-Serif" font-size="10.00" fill="#000000">Eigen/Dense</text>
</g>
<!-- Node1&#45;&gt;Node6 -->
<g id="edge8" class="edge">
<title>Node1&#45;&gt;Node6</title>
<path fill="none" stroke="#191970" d="M157.0571,-165.415C173.481,-158.0195 194.4392,-146.006 206.9531,-129 226.7916,-102.0402 233.3245,-86.1022 220.9531,-55 216.3398,-43.4018 207.2118,-33.0528 198.5484,-25.1664"/>
<polygon fill="#191970" stroke="#191970" points="200.756,-22.4495 190.8655,-18.6509 196.2284,-27.7882 200.756,-22.4495"/>
</g>
<!-- Node4 -->
<g id="node5" class="node">
<title>Node4</title>
<g id="a_node5"><a xlink:href="GaussianMixture_8h.html" target="_top" xlink:title="BayesFilters/GaussianMixture.h">
<polygon fill="#ffffff" stroke="#000000" points="54.3721,-55.5 54.3721,-73.5 211.5342,-73.5 211.5342,-55.5 54.3721,-55.5"/>
<text text-anchor="middle" x="132.9531" y="-61.5" font-family="Helvetica,sans-Serif" font-size="10.00" fill="#000000">BayesFilters/GaussianMixture.h</text>
</a>
</g>
</g>
<!-- Node3&#45;&gt;Node4 -->
<g id="edge4" class="edge">
<title>Node3&#45;&gt;Node4</title>
<path fill="none" stroke="#191970" d="M132.9531,-110.4179C132.9531,-103.2164 132.9531,-92.8962 132.9531,-83.8632"/>
<polygon fill="#191970" stroke="#191970" points="136.4532,-83.7794 132.9531,-73.7795 129.4532,-83.7795 136.4532,-83.7794"/>
</g>
<!-- Node5 -->
<g id="node6" class="node">
<title>Node5</title>
<polygon fill="#ffffff" stroke="#bfbfbf" points="65.3374,-.5 65.3374,-18.5 108.5688,-18.5 108.5688,-.5 65.3374,-.5"/>
<text text-anchor="middle" x="86.9531" y="-6.5" font-family="Helvetica,sans-Serif" font-size="10.00" fill="#000000">vector</text>
</g>
<!-- Node3&#45;&gt;Node5 -->
<g id="edge7" class="edge">
<title>Node3&#45;&gt;Node5</title>
<path fill="none" stroke="#191970" d="M96.188,-110.3766C77.3745,-103.6426 56.1317,-92.3642 44.9531,-74 34.6353,-57.0498 50.4203,-38.0608 65.4967,-25.102"/>
<polygon fill="#191970" stroke="#191970" points="68.0216,-27.5634 73.6293,-18.5742 63.6399,-22.1044 68.0216,-27.5634"/>
</g>
<!-- Node4&#45;&gt;Node5 -->
<g id="edge5" class="edge">
<title>Node4&#45;&gt;Node5</title>
<path fill="none" stroke="#191970" d="M125.3572,-55.4179C118.8046,-47.5833 109.1649,-36.0575 101.1828,-26.5137"/>
<polygon fill="#191970" stroke="#191970" points="103.8145,-24.2048 94.7141,-18.7795 98.4449,-28.6957 103.8145,-24.2048"/>
</g>
<!-- Node4&#45;&gt;Node6 -->
<g id="edge6" class="edge">
<title>Node4&#45;&gt;Node6</title>
<path fill="none" stroke="#191970" d="M140.384,-55.4179C146.7293,-47.6624 156.034,-36.29 163.7957,-26.8035"/>
<polygon fill="#191970" stroke="#191970" points="166.7373,-28.7354 170.3608,-18.7795 161.3196,-24.3027 166.7373,-28.7354"/>
</g>
</g>
</svg>
