<?xml version="1.0" encoding="UTF-8" standalone="no"?>
<!DOCTYPE svg PUBLIC "-//W3C//DTD SVG 1.1//EN"
 "http://www.w3.org/Graphics/SVG/1.1/DTD/svg11.dtd">
<!-- Generated by graphviz version 2.40.1 (20161225.0304)
 -->
<!-- Title: /Users/Claudio/GitHub/bayes&#45;filters&#45;lib/src/BayesFilters/src/sigma_point.cpp Pages: 1 -->
<svg width="1001pt" height="417pt"
 viewBox="0.00 0.00 1001.40 417.00" xmlns="http://www.w3.org/2000/svg" xmlns:xlink="http://www.w3.org/1999/xlink">
<g id="graph0" class="graph" transform="scale(1 1) rotate(0) translate(4 413)">
<title>/Users/Claudio/GitHub/bayes&#45;filters&#45;lib/src/BayesFilters/src/sigma_point.cpp</title>
<polygon fill="#ffffff" stroke="transparent" points="-4,4 -4,-413 997.4032,-413 997.4032,4 -4,4"/>
<!-- Node0 -->
<g id="node1" class="node">
<title>Node0</title>
<polygon fill="#bfbfbf" stroke="#000000" points="353.162,-360.5 353.162,-408.5 472.5165,-408.5 472.5165,-360.5 353.162,-360.5"/>
<text text-anchor="start" x="361.162" y="-396.5" font-family="Helvetica,sans-Serif" font-size="10.00" fill="#000000">/Users/Claudio/GitHub</text>
<text text-anchor="start" x="361.162" y="-386.5" font-family="Helvetica,sans-Serif" font-size="10.00" fill="#000000">/bayes&#45;filters&#45;lib/src</text>
<text text-anchor="start" x="361.162" y="-376.5" font-family="Helvetica,sans-Serif" font-size="10.00" fill="#000000">/BayesFilters/src/sigma</text>
<text text-anchor="middle" x="412.8393" y="-366.5" font-family="Helvetica,sans-Serif" font-size="10.00" fill="#000000">_point.cpp</text>
</g>
<!-- Node1 -->
<g id="node2" class="node">
<title>Node1</title>
<g id="a_node2"><a xlink:href="sigma__point_8h.html" target="_top" xlink:title="BayesFilters/sigma\l_point.h">
<polygon fill="#ffffff" stroke="#000000" points="362.6054,-295.5 362.6054,-323.5 463.0732,-323.5 463.0732,-295.5 362.6054,-295.5"/>
<text text-anchor="start" x="370.6054" y="-311.5" font-family="Helvetica,sans-Serif" font-size="10.00" fill="#000000">BayesFilters/sigma</text>
<text text-anchor="middle" x="412.8393" y="-301.5" font-family="Helvetica,sans-Serif" font-size="10.00" fill="#000000">_point.h</text>
</a>
</g>
</g>
<!-- Node0&#45;&gt;Node1 -->
<g id="edge1" class="edge">
<title>Node0&#45;&gt;Node1</title>
<path fill="none" stroke="#191970" d="M412.8393,-360.3567C412.8393,-351.8057 412.8393,-342.1888 412.8393,-333.6382"/>
<polygon fill="#191970" stroke="#191970" points="416.3394,-333.5381 412.8393,-323.5382 409.3394,-333.5382 416.3394,-333.5381"/>
</g>
<!-- Node23 -->
<g id="node24" class="node">
<title>Node23</title>
<g id="a_node24"><a xlink:href="directional__statistics_8h.html" target="_top" xlink:title="BayesFilters/directional\l_statistics.h">
<polygon fill="#ffffff" stroke="#000000" points="88.1523,-295.5 88.1523,-323.5 207.5263,-323.5 207.5263,-295.5 88.1523,-295.5"/>
<text text-anchor="start" x="96.1523" y="-311.5" font-family="Helvetica,sans-Serif" font-size="10.00" fill="#000000">BayesFilters/directional</text>
<text text-anchor="middle" x="147.8393" y="-301.5" font-family="Helvetica,sans-Serif" font-size="10.00" fill="#000000">_statistics.h</text>
</a>
</g>
</g>
<!-- Node0&#45;&gt;Node23 -->
<g id="edge34" class="edge">
<title>Node0&#45;&gt;Node23</title>
<path fill="none" stroke="#191970" d="M353.0377,-367.575C309.5595,-355.2699 250.9556,-338.6839 207.5082,-326.3874"/>
<polygon fill="#191970" stroke="#191970" points="208.2207,-322.9517 197.6455,-323.5961 206.3144,-329.6871 208.2207,-322.9517"/>
</g>
<!-- Node24 -->
<g id="node25" class="node">
<title>Node24</title>
<polygon fill="#ffffff" stroke="#bfbfbf" points="481.3813,-300.5 481.3813,-318.5 546.2973,-318.5 546.2973,-300.5 481.3813,-300.5"/>
<text text-anchor="middle" x="513.8393" y="-306.5" font-family="Helvetica,sans-Serif" font-size="10.00" fill="#000000">Eigen/SVD</text>
</g>
<!-- Node0&#45;&gt;Node24 -->
<g id="edge36" class="edge">
<title>Node0&#45;&gt;Node24</title>
<path fill="none" stroke="#191970" d="M445.3523,-360.3567C461.0575,-348.6944 479.4326,-335.0495 493.1936,-324.831"/>
<polygon fill="#191970" stroke="#191970" points="495.5538,-327.4378 501.4957,-318.666 491.3806,-321.8178 495.5538,-327.4378"/>
</g>
<!-- Node2 -->
<g id="node3" class="node">
<title>Node2</title>
<g id="a_node3"><a xlink:href="AdditiveStateModel_8h.html" target="_top" xlink:title="BayesFilters/AdditiveState\lModel.h">
<polygon fill="#ffffff" stroke="#000000" points="233.4799,-230.5 233.4799,-258.5 366.1986,-258.5 366.1986,-230.5 233.4799,-230.5"/>
<text text-anchor="start" x="241.4799" y="-246.5" font-family="Helvetica,sans-Serif" font-size="10.00" fill="#000000">BayesFilters/AdditiveState</text>
<text text-anchor="middle" x="299.8393" y="-236.5" font-family="Helvetica,sans-Serif" font-size="10.00" fill="#000000">Model.h</text>
</a>
</g>
</g>
<!-- Node1&#45;&gt;Node2 -->
<g id="edge2" class="edge">
<title>Node1&#45;&gt;Node2</title>
<path fill="none" stroke="#191970" d="M388.32,-295.396C372.1795,-286.1117 350.8473,-273.8409 333.1729,-263.6742"/>
<polygon fill="#191970" stroke="#191970" points="334.7242,-260.5288 324.3107,-258.5765 331.2338,-266.5966 334.7242,-260.5288"/>
</g>
<!-- Node3 -->
<g id="node4" class="node">
<title>Node3</title>
<polygon fill="#ffffff" stroke="#bfbfbf" points="207.2089,-110.5 207.2089,-128.5 280.4696,-128.5 280.4696,-110.5 207.2089,-110.5"/>
<text text-anchor="middle" x="243.8393" y="-116.5" font-family="Helvetica,sans-Serif" font-size="10.00" fill="#000000">Eigen/Dense</text>
</g>
<!-- Node1&#45;&gt;Node3 -->
<g id="edge33" class="edge">
<title>Node1&#45;&gt;Node3</title>
<path fill="none" stroke="#191970" d="M362.1493,-302.8604C312.3573,-295.1756 241.4972,-280.723 224.8393,-259 197.4313,-223.2582 219.3255,-166.6913 233.7457,-137.7991"/>
<polygon fill="#191970" stroke="#191970" points="236.912,-139.2971 238.4416,-128.8132 230.708,-136.0549 236.912,-139.2971"/>
</g>
<!-- Node4 -->
<g id="node5" class="node">
<title>Node4</title>
<g id="a_node5"><a xlink:href="StateModel_8h.html" target="_top" xlink:title="BayesFilters/StateModel.h">
<polygon fill="#ffffff" stroke="#000000" points="271.4799,-170.5 271.4799,-188.5 404.1986,-188.5 404.1986,-170.5 271.4799,-170.5"/>
<text text-anchor="middle" x="337.8393" y="-176.5" font-family="Helvetica,sans-Serif" font-size="10.00" fill="#000000">BayesFilters/StateModel.h</text>
</a>
</g>
</g>
<!-- Node1&#45;&gt;Node4 -->
<g id="edge31" class="edge">
<title>Node1&#45;&gt;Node4</title>
<path fill="none" stroke="#191970" d="M407.0096,-295.3043C400.1293,-279.0754 387.9543,-251.9239 374.8393,-230 367.9188,-218.4313 359.0189,-206.2184 351.6822,-196.7011"/>
<polygon fill="#191970" stroke="#191970" points="354.4158,-194.5151 345.4854,-188.8143 348.9116,-198.8399 354.4158,-194.5151"/>
</g>
<!-- Node5 -->
<g id="node6" class="node">
<title>Node5</title>
<g id="a_node6"><a xlink:href="Data_8h.html" target="_top" xlink:title="BayesFilters/Data.h">
<polygon fill="#ffffff" stroke="#000000" points="721.2113,-110.5 721.2113,-128.5 824.4672,-128.5 824.4672,-110.5 721.2113,-110.5"/>
<text text-anchor="middle" x="772.8393" y="-116.5" font-family="Helvetica,sans-Serif" font-size="10.00" fill="#000000">BayesFilters/Data.h</text>
</a>
</g>
</g>
<!-- Node1&#45;&gt;Node5 -->
<g id="edge6" class="edge">
<title>Node1&#45;&gt;Node5</title>
<path fill="none" stroke="#191970" d="M463.1682,-296.9132C466.4329,-296.228 469.6776,-295.5828 472.8393,-295 534.7512,-283.5887 709.1469,-303.3385 753.8393,-259 785.8427,-227.2499 781.594,-168.8401 776.7177,-138.6652"/>
<polygon fill="#191970" stroke="#191970" points="780.1203,-137.8125 774.8924,-128.5973 773.2326,-139.0613 780.1203,-137.8125"/>
</g>
<!-- Node12 -->
<g id="node13" class="node">
<title>Node12</title>
<g id="a_node13"><a xlink:href="ExogenousModel_8h.html" target="_top" xlink:title="BayesFilters/ExogenousModel.h">
<polygon fill="#ffffff" stroke="#000000" points="422.1352,-170.5 422.1352,-188.5 581.5434,-188.5 581.5434,-170.5 422.1352,-170.5"/>
<text text-anchor="middle" x="501.8393" y="-176.5" font-family="Helvetica,sans-Serif" font-size="10.00" fill="#000000">BayesFilters/ExogenousModel.h</text>
</a>
</g>
</g>
<!-- Node1&#45;&gt;Node12 -->
<g id="edge13" class="edge">
<title>Node1&#45;&gt;Node12</title>
<path fill="none" stroke="#191970" d="M419.1799,-295.3967C426.8299,-279.0167 440.5799,-251.4966 455.8393,-230 464.5274,-217.7606 475.8681,-205.2802 485.1151,-195.7885"/>
<polygon fill="#191970" stroke="#191970" points="487.7086,-198.1443 492.2859,-188.5893 482.749,-193.2043 487.7086,-198.1443"/>
</g>
<!-- Node13 -->
<g id="node14" class="node">
<title>Node13</title>
<g id="a_node14"><a xlink:href="GaussianMixture_8h.html" target="_top" xlink:title="BayesFilters/GaussianMixture.h">
<polygon fill="#ffffff" stroke="#000000" points="20.2582,-170.5 20.2582,-188.5 177.4203,-188.5 177.4203,-170.5 20.2582,-170.5"/>
<text text-anchor="middle" x="98.8393" y="-176.5" font-family="Helvetica,sans-Serif" font-size="10.00" fill="#000000">BayesFilters/GaussianMixture.h</text>
</a>
</g>
</g>
<!-- Node1&#45;&gt;Node13 -->
<g id="edge15" class="edge">
<title>Node1&#45;&gt;Node13</title>
<path fill="none" stroke="#191970" d="M362.2329,-304.9195C315.8597,-299.1398 246.3387,-286.4083 191.8393,-259 160.408,-243.1929 130.7179,-214.5605 113.6735,-196.3159"/>
<polygon fill="#191970" stroke="#191970" points="116.0959,-193.7779 106.7713,-188.7477 110.9237,-198.4949 116.0959,-193.7779"/>
</g>
<!-- Node15 -->
<g id="node16" class="node">
<title>Node15</title>
<g id="a_node16"><a xlink:href="AdditiveMeasurementModel_8h.html" target="_top" xlink:title="BayesFilters/AdditiveMeasurement\lModel.h">
<polygon fill="#ffffff" stroke="#000000" points="497.5859,-230.5 497.5859,-258.5 668.0927,-258.5 668.0927,-230.5 497.5859,-230.5"/>
<text text-anchor="start" x="505.5859" y="-246.5" font-family="Helvetica,sans-Serif" font-size="10.00" fill="#000000">BayesFilters/AdditiveMeasurement</text>
<text text-anchor="middle" x="582.8393" y="-236.5" font-family="Helvetica,sans-Serif" font-size="10.00" fill="#000000">Model.h</text>
</a>
</g>
</g>
<!-- Node1&#45;&gt;Node15 -->
<g id="edge18" class="edge">
<title>Node1&#45;&gt;Node15</title>
<path fill="none" stroke="#191970" d="M449.7267,-295.396C475.234,-285.6432 509.3602,-272.5949 536.6726,-262.152"/>
<polygon fill="#191970" stroke="#191970" points="537.9333,-265.4171 546.0238,-258.5765 535.4333,-258.8788 537.9333,-265.4171"/>
</g>
<!-- Node16 -->
<g id="node17" class="node">
<title>Node16</title>
<g id="a_node17"><a xlink:href="MeasurementModel_8h.html" target="_top" xlink:title="BayesFilters/Measurement\lModel.h">
<polygon fill="#ffffff" stroke="#000000" points="599.3739,-165.5 599.3739,-193.5 734.3046,-193.5 734.3046,-165.5 599.3739,-165.5"/>
<text text-anchor="start" x="607.3739" y="-181.5" font-family="Helvetica,sans-Serif" font-size="10.00" fill="#000000">BayesFilters/Measurement</text>
<text text-anchor="middle" x="666.8393" y="-171.5" font-family="Helvetica,sans-Serif" font-size="10.00" fill="#000000">Model.h</text>
</a>
</g>
</g>
<!-- Node1&#45;&gt;Node16 -->
<g id="edge30" class="edge">
<title>Node1&#45;&gt;Node16</title>
<path fill="none" stroke="#191970" d="M424.7751,-295.3235C442.1743,-274.9661 474.0371,-238.9166 488.8393,-230 506.9892,-219.0667 553.7029,-205.991 594.721,-195.8844"/>
<polygon fill="#191970" stroke="#191970" points="595.5705,-199.2799 604.4587,-193.5136 593.9146,-192.4786 595.5705,-199.2799"/>
</g>
<!-- Node22 -->
<g id="node23" class="node">
<title>Node22</title>
<polygon fill="#ffffff" stroke="#bfbfbf" points="686.4355,-235.5 686.4355,-253.5 745.2431,-253.5 745.2431,-235.5 686.4355,-235.5"/>
<text text-anchor="middle" x="715.8393" y="-241.5" font-family="Helvetica,sans-Serif" font-size="10.00" fill="#000000">functional</text>
</g>
<!-- Node1&#45;&gt;Node22 -->
<g id="edge32" class="edge">
<title>Node1&#45;&gt;Node22</title>
<path fill="none" stroke="#191970" d="M463.2024,-297.0875C466.4588,-296.3596 469.6922,-295.6573 472.8393,-295 562.9622,-276.1773 587.9931,-283.1413 676.8393,-259 679.1331,-258.3767 681.4817,-257.6741 683.8329,-256.9228"/>
<polygon fill="#191970" stroke="#191970" points="685.0627,-260.2011 693.3808,-253.6391 682.7861,-253.5817 685.0627,-260.2011"/>
</g>
<!-- Node2&#45;&gt;Node3 -->
<g id="edge3" class="edge">
<title>Node2&#45;&gt;Node3</title>
<path fill="none" stroke="#191970" d="M287.2305,-230.4255C279.1969,-220.7842 269.1489,-207.3672 262.8393,-194 254.4031,-176.1276 249.3697,-154.0078 246.6249,-138.5323"/>
<polygon fill="#191970" stroke="#191970" points="250.069,-137.9053 245.0148,-128.5937 243.1591,-139.0248 250.069,-137.9053"/>
</g>
<!-- Node2&#45;&gt;Node4 -->
<g id="edge4" class="edge">
<title>Node2&#45;&gt;Node4</title>
<path fill="none" stroke="#191970" d="M308.0847,-230.396C313.7669,-220.6764 321.3625,-207.6839 327.4571,-197.2589"/>
<polygon fill="#191970" stroke="#191970" points="330.5088,-198.9737 332.5343,-188.5743 324.4657,-195.4408 330.5088,-198.9737"/>
</g>
<!-- Node4&#45;&gt;Node3 -->
<g id="edge5" class="edge">
<title>Node4&#45;&gt;Node3</title>
<path fill="none" stroke="#191970" d="M323.5627,-170.3873C308.43,-160.7281 284.3125,-145.334 266.5625,-134.0042"/>
<polygon fill="#191970" stroke="#191970" points="268.2546,-130.932 257.9422,-128.5019 264.4883,-136.8325 268.2546,-130.932"/>
</g>
<!-- Node6 -->
<g id="node7" class="node">
<title>Node6</title>
<g id="a_node7"><a xlink:href="any_8h.html" target="_top" xlink:title="BayesFilters/any.h">
<polygon fill="#ffffff" stroke="#000000" points="750.08,-55.5 750.08,-73.5 847.5985,-73.5 847.5985,-55.5 750.08,-55.5"/>
<text text-anchor="middle" x="798.8393" y="-61.5" font-family="Helvetica,sans-Serif" font-size="10.00" fill="#000000">BayesFilters/any.h</text>
</a>
</g>
</g>
<!-- Node5&#45;&gt;Node6 -->
<g id="edge7" class="edge">
<title>Node5&#45;&gt;Node6</title>
<path fill="none" stroke="#191970" d="M777.1326,-110.4179C780.6492,-102.9789 785.7389,-92.2123 790.106,-82.9742"/>
<polygon fill="#191970" stroke="#191970" points="793.343,-84.316 794.4526,-73.7795 787.0145,-81.3243 793.343,-84.316"/>
</g>
<!-- Node7 -->
<g id="node8" class="node">
<title>Node7</title>
<polygon fill="#ffffff" stroke="#bfbfbf" points="936.2753,-.5 936.2753,-18.5 993.4032,-18.5 993.4032,-.5 936.2753,-.5"/>
<text text-anchor="middle" x="964.8393" y="-6.5" font-family="Helvetica,sans-Serif" font-size="10.00" fill="#000000">algorithm</text>
</g>
<!-- Node6&#45;&gt;Node7 -->
<g id="edge8" class="edge">
<title>Node6&#45;&gt;Node7</title>
<path fill="none" stroke="#191970" d="M826.2508,-55.4179C854.0874,-46.1949 897.3627,-31.8567 928.1436,-21.6582"/>
<polygon fill="#191970" stroke="#191970" points="929.2712,-24.9718 937.6629,-18.5042 927.0696,-18.327 929.2712,-24.9718"/>
</g>
<!-- Node8 -->
<g id="node9" class="node">
<title>Node8</title>
<polygon fill="#ffffff" stroke="#bfbfbf" points="639.7826,-.5 639.7826,-18.5 691.8959,-18.5 691.8959,-.5 639.7826,-.5"/>
<text text-anchor="middle" x="665.8393" y="-6.5" font-family="Helvetica,sans-Serif" font-size="10.00" fill="#000000">memory</text>
</g>
<!-- Node6&#45;&gt;Node8 -->
<g id="edge9" class="edge">
<title>Node6&#45;&gt;Node8</title>
<path fill="none" stroke="#191970" d="M776.877,-55.4179C755.1221,-46.4215 721.5978,-32.5581 697.0753,-22.4172"/>
<polygon fill="#191970" stroke="#191970" points="698.4127,-19.1828 687.8341,-18.5956 695.7376,-25.6515 698.4127,-19.1828"/>
</g>
<!-- Node9 -->
<g id="node10" class="node">
<title>Node9</title>
<polygon fill="#ffffff" stroke="#bfbfbf" points="709.4379,-.5 709.4379,-18.5 768.2406,-18.5 768.2406,-.5 709.4379,-.5"/>
<text text-anchor="middle" x="738.8393" y="-6.5" font-family="Helvetica,sans-Serif" font-size="10.00" fill="#000000">stdexcept</text>
</g>
<!-- Node6&#45;&gt;Node9 -->
<g id="edge10" class="edge">
<title>Node6&#45;&gt;Node9</title>
<path fill="none" stroke="#191970" d="M788.9315,-55.4179C780.1256,-47.3458 767.0454,-35.3556 756.4593,-25.6517"/>
<polygon fill="#191970" stroke="#191970" points="758.6989,-22.9567 748.9623,-18.7795 753.9688,-28.1168 758.6989,-22.9567"/>
</g>
<!-- Node10 -->
<g id="node11" class="node">
<title>Node10</title>
<polygon fill="#ffffff" stroke="#bfbfbf" points="786.3271,-.5 786.3271,-18.5 837.3515,-18.5 837.3515,-.5 786.3271,-.5"/>
<text text-anchor="middle" x="811.8393" y="-6.5" font-family="Helvetica,sans-Serif" font-size="10.00" fill="#000000">typeinfo</text>
</g>
<!-- Node6&#45;&gt;Node10 -->
<g id="edge11" class="edge">
<title>Node6&#45;&gt;Node10</title>
<path fill="none" stroke="#191970" d="M800.986,-55.4179C802.7068,-48.1372 805.1811,-37.669 807.3328,-28.5659"/>
<polygon fill="#191970" stroke="#191970" points="810.7518,-29.3164 809.6459,-18.7795 803.9395,-27.7062 810.7518,-29.3164"/>
</g>
<!-- Node11 -->
<g id="node12" class="node">
<title>Node11</title>
<polygon fill="#ffffff" stroke="#bfbfbf" points="855.7729,-.5 855.7729,-18.5 917.9057,-18.5 917.9057,-.5 855.7729,-.5"/>
<text text-anchor="middle" x="886.8393" y="-6.5" font-family="Helvetica,sans-Serif" font-size="10.00" fill="#000000">type_traits</text>
</g>
<!-- Node6&#45;&gt;Node11 -->
<g id="edge12" class="edge">
<title>Node6&#45;&gt;Node11</title>
<path fill="none" stroke="#191970" d="M813.3707,-55.4179C827.0006,-46.8992 847.6128,-34.0166 863.5389,-24.0627"/>
<polygon fill="#191970" stroke="#191970" points="865.6613,-26.8637 872.2863,-18.5956 861.9513,-20.9277 865.6613,-26.8637"/>
</g>
<!-- Node12&#45;&gt;Node3 -->
<g id="edge14" class="edge">
<title>Node12&#45;&gt;Node3</title>
<path fill="none" stroke="#191970" d="M462.9347,-170.4524C416.7088,-159.7022 339.6543,-141.7826 290.3304,-130.3119"/>
<polygon fill="#191970" stroke="#191970" points="291.0831,-126.8936 280.5502,-128.0374 289.4974,-133.7117 291.0831,-126.8936"/>
</g>
<!-- Node13&#45;&gt;Node3 -->
<g id="edge17" class="edge">
<title>Node13&#45;&gt;Node3</title>
<path fill="none" stroke="#191970" d="M120.8616,-170.3873C145.2754,-160.2851 184.8494,-143.9096 212.491,-132.4717"/>
<polygon fill="#191970" stroke="#191970" points="214.1828,-135.5595 222.0847,-128.5019 211.5063,-129.0914 214.1828,-135.5595"/>
</g>
<!-- Node14 -->
<g id="node15" class="node">
<title>Node14</title>
<polygon fill="#ffffff" stroke="#bfbfbf" points="268.2235,-55.5 268.2235,-73.5 311.455,-73.5 311.455,-55.5 268.2235,-55.5"/>
<text text-anchor="middle" x="289.8393" y="-61.5" font-family="Helvetica,sans-Serif" font-size="10.00" fill="#000000">vector</text>
</g>
<!-- Node13&#45;&gt;Node14 -->
<g id="edge16" class="edge">
<title>Node13&#45;&gt;Node14</title>
<path fill="none" stroke="#191970" d="M110.6348,-170.3259C128.8008,-156.4059 164.9732,-129.5086 197.8393,-110 217.9713,-98.05 241.6719,-86.3813 259.9751,-77.8528"/>
<polygon fill="#191970" stroke="#191970" points="261.648,-80.9359 269.2686,-73.5754 258.7212,-74.577 261.648,-80.9359"/>
</g>
<!-- Node15&#45;&gt;Node16 -->
<g id="edge19" class="edge">
<title>Node15&#45;&gt;Node16</title>
<path fill="none" stroke="#191970" d="M601.066,-230.396C612.6239,-221.4524 627.7632,-209.7375 640.6032,-199.8018"/>
<polygon fill="#191970" stroke="#191970" points="642.8813,-202.4644 648.6481,-193.5765 638.5974,-196.9283 642.8813,-202.4644"/>
</g>
<!-- Node16&#45;&gt;Node3 -->
<g id="edge29" class="edge">
<title>Node16&#45;&gt;Node3</title>
<path fill="none" stroke="#191970" d="M599.3302,-166.409C596.4638,-165.9199 593.6243,-165.4479 590.8393,-165 483.9312,-147.8073 357.7049,-132.5014 290.8685,-124.7875"/>
<polygon fill="#191970" stroke="#191970" points="290.9977,-121.2794 280.6637,-123.6155 290.199,-128.2337 290.9977,-121.2794"/>
</g>
<!-- Node16&#45;&gt;Node5 -->
<g id="edge20" class="edge">
<title>Node16&#45;&gt;Node5</title>
<path fill="none" stroke="#191970" d="M691.6916,-165.4327C708.6265,-155.8468 730.9628,-143.2037 747.9133,-133.609"/>
<polygon fill="#191970" stroke="#191970" points="749.7293,-136.603 756.7077,-128.6311 746.281,-130.5112 749.7293,-136.603"/>
</g>
<!-- Node16&#45;&gt;Node8 -->
<g id="edge26" class="edge">
<title>Node16&#45;&gt;Node8</title>
<path fill="none" stroke="#191970" d="M666.7557,-165.2983C666.5769,-134.8994 666.1569,-63.4909 665.9535,-28.9244"/>
<polygon fill="#191970" stroke="#191970" points="669.4524,-28.7058 665.8935,-18.7266 662.4525,-28.7471 669.4524,-28.7058"/>
</g>
<!-- Node17 -->
<g id="node18" class="node">
<title>Node17</title>
<g id="a_node18"><a xlink:href="Logger_8h.html" target="_top" xlink:title="BayesFilters/Logger.h">
<polygon fill="#ffffff" stroke="#000000" points="501.4775,-110.5 501.4775,-128.5 614.2011,-128.5 614.2011,-110.5 501.4775,-110.5"/>
<text text-anchor="middle" x="557.8393" y="-116.5" font-family="Helvetica,sans-Serif" font-size="10.00" fill="#000000">BayesFilters/Logger.h</text>
</a>
</g>
</g>
<!-- Node16&#45;&gt;Node17 -->
<g id="edge21" class="edge">
<title>Node16&#45;&gt;Node17</title>
<path fill="none" stroke="#191970" d="M641.2836,-165.4327C623.8694,-155.8468 600.901,-143.2037 583.4707,-133.609"/>
<polygon fill="#191970" stroke="#191970" points="584.8756,-130.3872 574.4274,-128.6311 581.5,-136.5195 584.8756,-130.3872"/>
</g>
<!-- Node20 -->
<g id="node21" class="node">
<title>Node20</title>
<polygon fill="#ffffff" stroke="#bfbfbf" points="607.6127,-55.5 607.6127,-73.5 648.0658,-73.5 648.0658,-55.5 607.6127,-55.5"/>
<text text-anchor="middle" x="627.8393" y="-61.5" font-family="Helvetica,sans-Serif" font-size="10.00" fill="#000000">string</text>
</g>
<!-- Node16&#45;&gt;Node20 -->
<g id="edge27" class="edge">
<title>Node16&#45;&gt;Node20</title>
<path fill="none" stroke="#191970" d="M662.0571,-165.3987C655.0685,-144.7914 642.0502,-106.4041 634.2421,-83.38"/>
<polygon fill="#191970" stroke="#191970" points="637.4953,-82.0748 630.969,-73.7286 630.8661,-84.323 637.4953,-82.0748"/>
</g>
<!-- Node21 -->
<g id="node22" class="node">
<title>Node21</title>
<polygon fill="#ffffff" stroke="#bfbfbf" points="444.4477,-110.5 444.4477,-128.5 483.2309,-128.5 483.2309,-110.5 444.4477,-110.5"/>
<text text-anchor="middle" x="463.8393" y="-116.5" font-family="Helvetica,sans-Serif" font-size="10.00" fill="#000000">utility</text>
</g>
<!-- Node16&#45;&gt;Node21 -->
<g id="edge28" class="edge">
<title>Node16&#45;&gt;Node21</title>
<path fill="none" stroke="#191970" d="M616.8276,-165.4739C584.2256,-156.2187 540.537,-143.6079 493.281,-129.0629"/>
<polygon fill="#191970" stroke="#191970" points="494.0534,-125.6383 483.4658,-126.0297 491.9865,-132.3263 494.0534,-125.6383"/>
</g>
<!-- Node17&#45;&gt;Node14 -->
<g id="edge25" class="edge">
<title>Node17&#45;&gt;Node14</title>
<path fill="none" stroke="#191970" d="M513.8846,-110.4795C459.9045,-99.4014 369.6399,-80.877 321.8226,-71.0637"/>
<polygon fill="#191970" stroke="#191970" points="322.2352,-67.5756 311.7357,-68.9937 320.8279,-74.4326 322.2352,-67.5756"/>
</g>
<!-- Node18 -->
<g id="node19" class="node">
<title>Node18</title>
<polygon fill="#ffffff" stroke="#bfbfbf" points="465.1693,-55.5 465.1693,-73.5 514.5092,-73.5 514.5092,-55.5 465.1693,-55.5"/>
<text text-anchor="middle" x="489.8393" y="-61.5" font-family="Helvetica,sans-Serif" font-size="10.00" fill="#000000">fstream</text>
</g>
<!-- Node17&#45;&gt;Node18 -->
<g id="edge22" class="edge">
<title>Node17&#45;&gt;Node18</title>
<path fill="none" stroke="#191970" d="M546.6105,-110.4179C536.4348,-102.1876 521.223,-89.8839 509.1062,-80.0836"/>
<polygon fill="#191970" stroke="#191970" points="511.2882,-77.3469 501.3121,-73.7795 506.8861,-82.7895 511.2882,-77.3469"/>
</g>
<!-- Node19 -->
<g id="node20" class="node">
<title>Node19</title>
<polygon fill="#ffffff" stroke="#bfbfbf" points="532.6669,-55.5 532.6669,-73.5 587.0116,-73.5 587.0116,-55.5 532.6669,-55.5"/>
<text text-anchor="middle" x="559.8393" y="-61.5" font-family="Helvetica,sans-Serif" font-size="10.00" fill="#000000">iostream</text>
</g>
<!-- Node17&#45;&gt;Node19 -->
<g id="edge23" class="edge">
<title>Node17&#45;&gt;Node19</title>
<path fill="none" stroke="#191970" d="M558.1695,-110.4179C558.4314,-103.2164 558.8067,-92.8962 559.1352,-83.8632"/>
<polygon fill="#191970" stroke="#191970" points="562.636,-83.9001 559.5018,-73.7795 555.6407,-83.6456 562.636,-83.9001"/>
</g>
<!-- Node17&#45;&gt;Node20 -->
<g id="edge24" class="edge">
<title>Node17&#45;&gt;Node20</title>
<path fill="none" stroke="#191970" d="M569.3983,-110.4179C579.8733,-102.1876 595.5325,-89.8839 608.0057,-80.0836"/>
<polygon fill="#191970" stroke="#191970" points="610.3282,-82.7098 616.0291,-73.7795 606.0035,-77.2056 610.3282,-82.7098"/>
</g>
<!-- Node23&#45;&gt;Node3 -->
<g id="edge35" class="edge">
<title>Node23&#45;&gt;Node3</title>
<path fill="none" stroke="#191970" d="M116.0636,-295.3511C63.7702,-270.1598 -30.6981,-215.4333 10.8393,-165 33.9369,-136.9557 135.7266,-125.9588 196.8674,-121.8297"/>
<polygon fill="#191970" stroke="#191970" points="197.2905,-125.3099 207.0473,-121.1801 196.8447,-118.3241 197.2905,-125.3099"/>
</g>
</g>
</svg>
