<?xml version="1.0" encoding="UTF-8" standalone="no"?>
<!DOCTYPE svg PUBLIC "-//W3C//DTD SVG 1.1//EN"
 "http://www.w3.org/Graphics/SVG/1.1/DTD/svg11.dtd">
<!-- Generated by graphviz version 2.40.1 (20161225.0304)
 -->
<!-- Title: /Users/Claudio/GitHub/bayes&#45;filters&#45;lib/src/BayesFilters/include/BayesFilters/sigma_point.h Pages: 1 -->
<!--zoomable 352 -->
<svg id="main" version="1.1" xmlns="http://www.w3.org/2000/svg" xmlns:xlink="http://www.w3.org/1999/xlink" xml:space="preserve" onload="init(evt)">
<style type="text/css"><![CDATA[
.edge:hover path { stroke: red; }
.edge:hover polygon { stroke: red; fill: red; }
]]></style>
<script type="text/javascript"><![CDATA[
var edges = document.getElementsByTagName('g');
if (edges && edges.length) {
  for (var i=0;i<edges.length;i++) {
    if (edges[i].id.substr(0,4)=='edge') {
      edges[i].setAttribute('class','edge');
    }
  }
}
]]></script>
        <defs>
                <circle id="rim" cx="0" cy="0" r="7"/>
                <circle id="rim2" cx="0" cy="0" r="3.5"/>
                <g id="zoomPlus">
                        <use xlink:href="#rim" fill="#404040">
                                <set attributeName="fill" to="#808080" begin="zoomplus.mouseover" end="zoomplus.mouseout"/>
                        </use>
                        <path d="M-4,0h8M0,-4v8" fill="none" stroke="white" stroke-width="1.5" pointer-events="none"/>
                </g>
                <g id="zoomMin">
                        <use xlink:href="#rim" fill="#404040">
                                <set attributeName="fill" to="#808080" begin="zoomminus.mouseover" end="zoomminus.mouseout"/>
                        </use>
                        <path d="M-4,0h8" fill="none" stroke="white" stroke-width="1.5" pointer-events="none"/>
                </g>
                <g id="dirArrow">
                        <path fill="none" stroke="white" stroke-width="1.5" d="M0,-3.0v7 M-2.5,-0.5L0,-3.0L2.5,-0.5"/>
                </g>
               <g id="resetDef">
                       <use xlink:href="#rim2" fill="#404040">
                               <set attributeName="fill" to="#808080" begin="reset.mouseover" end="reset.mouseout"/>
                       </use>
               </g>
        </defs>

<script type="text/javascript">
var viewWidth = 987;
var viewHeight = 352;
var sectionId = 'dynsection-0';
</script>
<script xlink:href="svgpan.js"/>
<svg id="graph" class="graph">
<g id="viewport">
<title>/Users/Claudio/GitHub/bayes&#45;filters&#45;lib/src/BayesFilters/include/BayesFilters/sigma_point.h</title>
<polygon fill="#ffffff" stroke="transparent" points="-4,4 -4,-348 983.2681,-348 983.2681,4 -4,4"/>
<!-- Node0 -->
<g id="node1" class="node">
<title>Node0</title>
<polygon fill="#bfbfbf" stroke="#000000" points="352.6772,-295.5 352.6772,-343.5 518.731,-343.5 518.731,-295.5 352.6772,-295.5"/>
<text text-anchor="start" x="360.6772" y="-331.5" font-family="Helvetica,sans-Serif" font-size="10.00" fill="#000000">/Users/Claudio/GitHub</text>
<text text-anchor="start" x="360.6772" y="-321.5" font-family="Helvetica,sans-Serif" font-size="10.00" fill="#000000">/bayes&#45;filters&#45;lib/src</text>
<text text-anchor="start" x="360.6772" y="-311.5" font-family="Helvetica,sans-Serif" font-size="10.00" fill="#000000">/BayesFilters/include/BayesFilters</text>
<text text-anchor="middle" x="435.7041" y="-301.5" font-family="Helvetica,sans-Serif" font-size="10.00" fill="#000000">/sigma_point.h</text>
</g>
<!-- Node1 -->
<g id="node2" class="node">
<title>Node1</title>
<g id="a_node2"><a xlink:href="AdditiveStateModel_8h.html" target="_top" xlink:title="BayesFilters/AdditiveState\lModel.h">
<polygon fill="#ffffff" stroke="#000000" points="237.3447,-230.5 237.3447,-258.5 370.0635,-258.5 370.0635,-230.5 237.3447,-230.5"/>
<text text-anchor="start" x="245.3447" y="-246.5" font-family="Helvetica,sans-Serif" font-size="10.00" fill="#000000">BayesFilters/AdditiveState</text>
<text text-anchor="middle" x="303.7041" y="-236.5" font-family="Helvetica,sans-Serif" font-size="10.00" fill="#000000">Model.h</text>
</a>
</g>
</g>
<!-- Node0&#45;&gt;Node1 -->
<g id="edge1" class="edge">
<title>Node0&#45;&gt;Node1</title>
<path fill="none" stroke="#191970" d="M393.2119,-295.3567C375.1521,-285.0955 354.3911,-273.2994 337.4131,-263.6529"/>
<polygon fill="#191970" stroke="#191970" points="338.8349,-260.4352 328.4113,-258.5382 335.3768,-266.5214 338.8349,-260.4352"/>
</g>
<!-- Node2 -->
<g id="node3" class="node">
<title>Node2</title>
<polygon fill="#ffffff" stroke="#bfbfbf" points="236.0737,-110.5 236.0737,-128.5 309.3345,-128.5 309.3345,-110.5 236.0737,-110.5"/>
<text text-anchor="middle" x="272.7041" y="-116.5" font-family="Helvetica,sans-Serif" font-size="10.00" fill="#000000">Eigen/Dense</text>
</g>
<!-- Node0&#45;&gt;Node2 -->
<g id="edge32" class="edge">
<title>Node0&#45;&gt;Node2</title>
<path fill="none" stroke="#191970" d="M352.5173,-305.6249C301.864,-295.2897 244.0305,-279.447 228.7041,-259 218.3822,-245.2294 228.1158,-187.8926 237.7041,-165 242.1046,-154.4935 249.5526,-144.2989 256.4495,-136.232"/>
<polygon fill="#191970" stroke="#191970" points="259.175,-138.4363 263.2866,-128.6717 253.9832,-133.741 259.175,-138.4363"/>
</g>
<!-- Node3 -->
<g id="node4" class="node">
<title>Node3</title>
<g id="a_node4"><a xlink:href="StateModel_8h.html" target="_top" xlink:title="BayesFilters/StateModel.h">
<polygon fill="#ffffff" stroke="#000000" points="253.3447,-170.5 253.3447,-188.5 386.0635,-188.5 386.0635,-170.5 253.3447,-170.5"/>
<text text-anchor="middle" x="319.7041" y="-176.5" font-family="Helvetica,sans-Serif" font-size="10.00" fill="#000000">BayesFilters/StateModel.h</text>
</a>
</g>
</g>
<!-- Node0&#45;&gt;Node3 -->
<g id="edge30" class="edge">
<title>Node0&#45;&gt;Node3</title>
<path fill="none" stroke="#191970" d="M422.943,-295.3764C412.397,-276.5637 396.3371,-250.3092 378.7041,-230 367.3234,-216.892 352.4667,-204.1954 340.509,-194.8119"/>
<polygon fill="#191970" stroke="#191970" points="342.4729,-191.9075 332.4055,-188.6064 338.217,-197.4651 342.4729,-191.9075"/>
</g>
<!-- Node4 -->
<g id="node5" class="node">
<title>Node4</title>
<g id="a_node5"><a xlink:href="Data_8h.html" target="_top" xlink:title="BayesFilters/Data.h">
<polygon fill="#ffffff" stroke="#000000" points="713.0762,-110.5 713.0762,-128.5 816.332,-128.5 816.332,-110.5 713.0762,-110.5"/>
<text text-anchor="middle" x="764.7041" y="-116.5" font-family="Helvetica,sans-Serif" font-size="10.00" fill="#000000">BayesFilters/Data.h</text>
</a>
</g>
</g>
<!-- Node0&#45;&gt;Node4 -->
<g id="edge5" class="edge">
<title>Node0&#45;&gt;Node4</title>
<path fill="none" stroke="#191970" d="M518.9909,-308.5677C563.6749,-299.9904 618.3137,-284.9711 661.7041,-259 709.9977,-230.0941 742.6875,-169.0073 756.8076,-138.1598"/>
<polygon fill="#191970" stroke="#191970" points="760.1858,-139.1738 761.0228,-128.6121 753.7821,-136.3467 760.1858,-139.1738"/>
</g>
<!-- Node11 -->
<g id="node12" class="node">
<title>Node11</title>
<g id="a_node12"><a xlink:href="ExogenousModel_8h.html" target="_top" xlink:title="BayesFilters/ExogenousModel.h">
<polygon fill="#ffffff" stroke="#000000" points="0,-170.5 0,-188.5 159.4082,-188.5 159.4082,-170.5 0,-170.5"/>
<text text-anchor="middle" x="79.7041" y="-176.5" font-family="Helvetica,sans-Serif" font-size="10.00" fill="#000000">BayesFilters/ExogenousModel.h</text>
</a>
</g>
</g>
<!-- Node0&#45;&gt;Node11 -->
<g id="edge12" class="edge">
<title>Node0&#45;&gt;Node11</title>
<path fill="none" stroke="#191970" d="M352.609,-310.5591C299.3113,-302.3984 229.8407,-287.1266 173.7041,-259 142.0533,-243.1417 112.0092,-214.5244 94.7422,-196.2968"/>
<polygon fill="#191970" stroke="#191970" points="97.108,-193.7001 87.7479,-188.7362 91.9695,-198.4537 97.108,-193.7001"/>
</g>
<!-- Node12 -->
<g id="node13" class="node">
<title>Node12</title>
<g id="a_node13"><a xlink:href="GaussianMixture_8h.html" target="_top" xlink:title="BayesFilters/GaussianMixture.h">
<polygon fill="#ffffff" stroke="#000000" points="404.123,-170.5 404.123,-188.5 561.2852,-188.5 561.2852,-170.5 404.123,-170.5"/>
<text text-anchor="middle" x="482.7041" y="-176.5" font-family="Helvetica,sans-Serif" font-size="10.00" fill="#000000">BayesFilters/GaussianMixture.h</text>
</a>
</g>
</g>
<!-- Node0&#45;&gt;Node12 -->
<g id="edge14" class="edge">
<title>Node0&#45;&gt;Node12</title>
<path fill="none" stroke="#191970" d="M438.8332,-295.3999C441.6845,-277.0658 446.6951,-251.4257 454.7041,-230 458.9244,-218.7097 465.3569,-206.8852 470.9926,-197.5187"/>
<polygon fill="#191970" stroke="#191970" points="474.1254,-199.1095 476.4511,-188.7731 468.1871,-195.4032 474.1254,-199.1095"/>
</g>
<!-- Node14 -->
<g id="node15" class="node">
<title>Node14</title>
<g id="a_node15"><a xlink:href="AdditiveMeasurementModel_8h.html" target="_top" xlink:title="BayesFilters/AdditiveMeasurement\lModel.h">
<polygon fill="#ffffff" stroke="#000000" points="463.4507,-230.5 463.4507,-258.5 633.9575,-258.5 633.9575,-230.5 463.4507,-230.5"/>
<text text-anchor="start" x="471.4507" y="-246.5" font-family="Helvetica,sans-Serif" font-size="10.00" fill="#000000">BayesFilters/AdditiveMeasurement</text>
<text text-anchor="middle" x="548.7041" y="-236.5" font-family="Helvetica,sans-Serif" font-size="10.00" fill="#000000">Model.h</text>
</a>
</g>
</g>
<!-- Node0&#45;&gt;Node14 -->
<g id="edge17" class="edge">
<title>Node0&#45;&gt;Node14</title>
<path fill="none" stroke="#191970" d="M472.08,-295.3567C487.254,-285.2855 504.6555,-273.7358 519.0364,-264.191"/>
<polygon fill="#191970" stroke="#191970" points="521.1569,-266.9843 527.5533,-258.5382 517.2859,-261.152 521.1569,-266.9843"/>
</g>
<!-- Node15 -->
<g id="node16" class="node">
<title>Node15</title>
<g id="a_node16"><a xlink:href="MeasurementModel_8h.html" target="_top" xlink:title="BayesFilters/Measurement\lModel.h">
<polygon fill="#ffffff" stroke="#000000" points="579.2388,-165.5 579.2388,-193.5 714.1694,-193.5 714.1694,-165.5 579.2388,-165.5"/>
<text text-anchor="start" x="587.2388" y="-181.5" font-family="Helvetica,sans-Serif" font-size="10.00" fill="#000000">BayesFilters/Measurement</text>
<text text-anchor="middle" x="646.7041" y="-171.5" font-family="Helvetica,sans-Serif" font-size="10.00" fill="#000000">Model.h</text>
</a>
</g>
</g>
<!-- Node0&#45;&gt;Node15 -->
<g id="edge29" class="edge">
<title>Node0&#45;&gt;Node15</title>
<path fill="none" stroke="#191970" d="M518.8357,-305.3115C569.2805,-294.8659 626.8976,-279.0186 642.7041,-259 654.9024,-243.551 654.7648,-220.6822 652.2423,-203.4329"/>
<polygon fill="#191970" stroke="#191970" points="655.6762,-202.7531 650.4525,-193.5356 648.788,-203.9988 655.6762,-202.7531"/>
</g>
<!-- Node21 -->
<g id="node22" class="node">
<title>Node21</title>
<polygon fill="#ffffff" stroke="#bfbfbf" points="769.3003,-235.5 769.3003,-253.5 828.1079,-253.5 828.1079,-235.5 769.3003,-235.5"/>
<text text-anchor="middle" x="798.7041" y="-241.5" font-family="Helvetica,sans-Serif" font-size="10.00" fill="#000000">functional</text>
</g>
<!-- Node0&#45;&gt;Node21 -->
<g id="edge31" class="edge">
<title>Node0&#45;&gt;Node21</title>
<path fill="none" stroke="#191970" d="M518.949,-307.0058C583.9487,-296.4719 676.2575,-279.7985 755.7041,-259 758.4907,-258.2705 761.3584,-257.4536 764.2273,-256.5891"/>
<polygon fill="#191970" stroke="#191970" points="765.3992,-259.8893 773.8693,-253.5248 763.2789,-253.2181 765.3992,-259.8893"/>
</g>
<!-- Node1&#45;&gt;Node2 -->
<g id="edge2" class="edge">
<title>Node1&#45;&gt;Node2</title>
<path fill="none" stroke="#191970" d="M278.7036,-230.3889C265.9837,-221.7081 251.7518,-209.3092 244.7041,-194 235.9133,-174.9045 247.4606,-152.1931 258.277,-136.908"/>
<polygon fill="#191970" stroke="#191970" points="261.1369,-138.9293 264.4018,-128.85 255.564,-134.6934 261.1369,-138.9293"/>
</g>
<!-- Node1&#45;&gt;Node3 -->
<g id="edge3" class="edge">
<title>Node1&#45;&gt;Node3</title>
<path fill="none" stroke="#191970" d="M307.1759,-230.396C309.4707,-221.0732 312.5068,-208.739 315.0154,-198.5479"/>
<polygon fill="#191970" stroke="#191970" points="318.4787,-199.1211 317.4704,-188.5743 311.6816,-197.4479 318.4787,-199.1211"/>
</g>
<!-- Node3&#45;&gt;Node2 -->
<g id="edge4" class="edge">
<title>Node3&#45;&gt;Node2</title>
<path fill="none" stroke="#191970" d="M312.5658,-170.3873C305.5953,-161.4888 294.8121,-147.723 286.2179,-136.7517"/>
<polygon fill="#191970" stroke="#191970" points="288.8315,-134.4124 279.9096,-128.6985 283.3209,-138.7291 288.8315,-134.4124"/>
</g>
<!-- Node5 -->
<g id="node6" class="node">
<title>Node5</title>
<g id="a_node6"><a xlink:href="any_8h.html" target="_top" xlink:title="BayesFilters/any.h">
<polygon fill="#ffffff" stroke="#000000" points="731.9448,-55.5 731.9448,-73.5 829.4634,-73.5 829.4634,-55.5 731.9448,-55.5"/>
<text text-anchor="middle" x="780.7041" y="-61.5" font-family="Helvetica,sans-Serif" font-size="10.00" fill="#000000">BayesFilters/any.h</text>
</a>
</g>
</g>
<!-- Node4&#45;&gt;Node5 -->
<g id="edge6" class="edge">
<title>Node4&#45;&gt;Node5</title>
<path fill="none" stroke="#191970" d="M767.3462,-110.4179C769.4642,-103.1372 772.5095,-92.669 775.1577,-83.5659"/>
<polygon fill="#191970" stroke="#191970" points="778.5719,-84.3591 778.0046,-73.7795 771.8506,-82.4037 778.5719,-84.3591"/>
</g>
<!-- Node6 -->
<g id="node7" class="node">
<title>Node6</title>
<polygon fill="#ffffff" stroke="#bfbfbf" points="922.1401,-.5 922.1401,-18.5 979.2681,-18.5 979.2681,-.5 922.1401,-.5"/>
<text text-anchor="middle" x="950.7041" y="-6.5" font-family="Helvetica,sans-Serif" font-size="10.00" fill="#000000">algorithm</text>
</g>
<!-- Node5&#45;&gt;Node6 -->
<g id="edge7" class="edge">
<title>Node5&#45;&gt;Node6</title>
<path fill="none" stroke="#191970" d="M808.7761,-55.4179C837.2835,-46.1949 881.6016,-31.8567 913.1242,-21.6582"/>
<polygon fill="#191970" stroke="#191970" points="914.4359,-24.9125 922.8729,-18.5042 912.2811,-18.2524 914.4359,-24.9125"/>
</g>
<!-- Node7 -->
<g id="node8" class="node">
<title>Node7</title>
<polygon fill="#ffffff" stroke="#bfbfbf" points="625.6475,-.5 625.6475,-18.5 677.7607,-18.5 677.7607,-.5 625.6475,-.5"/>
<text text-anchor="middle" x="651.7041" y="-6.5" font-family="Helvetica,sans-Serif" font-size="10.00" fill="#000000">memory</text>
</g>
<!-- Node5&#45;&gt;Node7 -->
<g id="edge8" class="edge">
<title>Node5&#45;&gt;Node7</title>
<path fill="none" stroke="#191970" d="M759.4024,-55.4179C738.3951,-46.4613 706.0733,-32.6806 682.317,-22.552"/>
<polygon fill="#191970" stroke="#191970" points="683.609,-19.2981 673.0375,-18.5956 680.8636,-25.7372 683.609,-19.2981"/>
</g>
<!-- Node8 -->
<g id="node9" class="node">
<title>Node8</title>
<polygon fill="#ffffff" stroke="#bfbfbf" points="695.3027,-.5 695.3027,-18.5 754.1055,-18.5 754.1055,-.5 695.3027,-.5"/>
<text text-anchor="middle" x="724.7041" y="-6.5" font-family="Helvetica,sans-Serif" font-size="10.00" fill="#000000">stdexcept</text>
</g>
<!-- Node5&#45;&gt;Node8 -->
<g id="edge9" class="edge">
<title>Node5&#45;&gt;Node8</title>
<path fill="none" stroke="#191970" d="M771.4568,-55.4179C763.3186,-47.425 751.2688,-35.5903 741.4407,-25.9377"/>
<polygon fill="#191970" stroke="#191970" points="743.7393,-23.2895 734.1523,-18.7795 738.8343,-28.2836 743.7393,-23.2895"/>
</g>
<!-- Node9 -->
<g id="node10" class="node">
<title>Node9</title>
<polygon fill="#ffffff" stroke="#bfbfbf" points="772.1919,-.5 772.1919,-18.5 823.2163,-18.5 823.2163,-.5 772.1919,-.5"/>
<text text-anchor="middle" x="797.7041" y="-6.5" font-family="Helvetica,sans-Serif" font-size="10.00" fill="#000000">typeinfo</text>
</g>
<!-- Node5&#45;&gt;Node9 -->
<g id="edge10" class="edge">
<title>Node5&#45;&gt;Node9</title>
<path fill="none" stroke="#191970" d="M783.5113,-55.4179C785.7617,-48.1372 788.9973,-37.669 791.811,-28.5659"/>
<polygon fill="#191970" stroke="#191970" points="795.2267,-29.3671 794.8359,-18.7795 788.5389,-27.2999 795.2267,-29.3671"/>
</g>
<!-- Node10 -->
<g id="node11" class="node">
<title>Node10</title>
<polygon fill="#ffffff" stroke="#bfbfbf" points="841.6377,-.5 841.6377,-18.5 903.7705,-18.5 903.7705,-.5 841.6377,-.5"/>
<text text-anchor="middle" x="872.7041" y="-6.5" font-family="Helvetica,sans-Serif" font-size="10.00" fill="#000000">type_traits</text>
</g>
<!-- Node5&#45;&gt;Node10 -->
<g id="edge11" class="edge">
<title>Node5&#45;&gt;Node10</title>
<path fill="none" stroke="#191970" d="M795.896,-55.4179C810.2787,-46.8195 832.098,-33.7754 848.8102,-23.7844"/>
<polygon fill="#191970" stroke="#191970" points="850.7024,-26.731 857.4896,-18.5956 847.1105,-20.7228 850.7024,-26.731"/>
</g>
<!-- Node11&#45;&gt;Node2 -->
<g id="edge13" class="edge">
<title>Node11&#45;&gt;Node2</title>
<path fill="none" stroke="#191970" d="M109.0166,-170.3873C142.3673,-160.0192 196.9729,-143.0434 233.8495,-131.5791"/>
<polygon fill="#191970" stroke="#191970" points="235.2379,-134.8128 243.7481,-128.5019 233.1598,-128.1284 235.2379,-134.8128"/>
</g>
<!-- Node12&#45;&gt;Node2 -->
<g id="edge16" class="edge">
<title>Node12&#45;&gt;Node2</title>
<path fill="none" stroke="#191970" d="M450.8096,-170.3873C414.2112,-159.9306 354.0886,-142.7527 313.9565,-131.2864"/>
<polygon fill="#191970" stroke="#191970" points="314.7875,-127.8838 304.2107,-128.5019 312.8644,-134.6145 314.7875,-127.8838"/>
</g>
<!-- Node13 -->
<g id="node14" class="node">
<title>Node13</title>
<polygon fill="#ffffff" stroke="#bfbfbf" points="406.0884,-55.5 406.0884,-73.5 449.3198,-73.5 449.3198,-55.5 406.0884,-55.5"/>
<text text-anchor="middle" x="427.7041" y="-61.5" font-family="Helvetica,sans-Serif" font-size="10.00" fill="#000000">vector</text>
</g>
<!-- Node12&#45;&gt;Node13 -->
<g id="edge15" class="edge">
<title>Node12&#45;&gt;Node13</title>
<path fill="none" stroke="#191970" d="M472.7376,-170.4647C463.0171,-161.07 448.5797,-145.458 440.7041,-129 433.9158,-114.8142 430.669,-97.2321 429.1179,-84.0094"/>
<polygon fill="#191970" stroke="#191970" points="432.5697,-83.3331 428.1448,-73.7065 425.6007,-83.9913 432.5697,-83.3331"/>
</g>
<!-- Node14&#45;&gt;Node15 -->
<g id="edge18" class="edge">
<title>Node14&#45;&gt;Node15</title>
<path fill="none" stroke="#191970" d="M569.9686,-230.396C583.7097,-221.282 601.7897,-209.2902 616.9483,-199.236"/>
<polygon fill="#191970" stroke="#191970" points="619.0821,-202.0207 625.4811,-193.5765 615.2129,-196.1872 619.0821,-202.0207"/>
</g>
<!-- Node15&#45;&gt;Node2 -->
<g id="edge28" class="edge">
<title>Node15&#45;&gt;Node2</title>
<path fill="none" stroke="#191970" d="M579.1826,-166.4833C576.3197,-165.9738 573.4842,-165.4773 570.7041,-165 482.1438,-149.7963 378.3332,-134.5201 319.5623,-126.1073"/>
<polygon fill="#191970" stroke="#191970" points="319.8707,-122.6159 309.4764,-124.6676 318.8815,-129.5457 319.8707,-122.6159"/>
</g>
<!-- Node15&#45;&gt;Node4 -->
<g id="edge19" class="edge">
<title>Node15&#45;&gt;Node4</title>
<path fill="none" stroke="#191970" d="M674.3699,-165.4327C693.4838,-155.7137 718.7787,-142.8519 737.7391,-133.211"/>
<polygon fill="#191970" stroke="#191970" points="739.4189,-136.2834 746.7463,-128.6311 736.2461,-130.0437 739.4189,-136.2834"/>
</g>
<!-- Node15&#45;&gt;Node7 -->
<g id="edge25" class="edge">
<title>Node15&#45;&gt;Node7</title>
<path fill="none" stroke="#191970" d="M650.5289,-165.3223C656.2825,-142.228 666.0523,-95.0408 661.7041,-55 660.7556,-46.2659 658.8116,-36.7519 656.8877,-28.6922"/>
<polygon fill="#191970" stroke="#191970" points="660.2316,-27.6402 654.372,-18.8132 653.4481,-29.3677 660.2316,-27.6402"/>
</g>
<!-- Node16 -->
<g id="node17" class="node">
<title>Node16</title>
<g id="a_node17"><a xlink:href="Logger_8h.html" target="_top" xlink:title="BayesFilters/Logger.h">
<polygon fill="#ffffff" stroke="#000000" points="506.3423,-110.5 506.3423,-128.5 619.0659,-128.5 619.0659,-110.5 506.3423,-110.5"/>
<text text-anchor="middle" x="562.7041" y="-116.5" font-family="Helvetica,sans-Serif" font-size="10.00" fill="#000000">BayesFilters/Logger.h</text>
</a>
</g>
</g>
<!-- Node15&#45;&gt;Node16 -->
<g id="edge20" class="edge">
<title>Node15&#45;&gt;Node16</title>
<path fill="none" stroke="#191970" d="M626.7973,-165.2808C613.8679,-156.0456 597.0335,-144.021 583.8623,-134.613"/>
<polygon fill="#191970" stroke="#191970" points="585.5937,-131.5485 575.422,-128.5842 581.525,-137.2447 585.5937,-131.5485"/>
</g>
<!-- Node19 -->
<g id="node20" class="node">
<title>Node19</title>
<polygon fill="#ffffff" stroke="#bfbfbf" points="612.4775,-55.5 612.4775,-73.5 652.9307,-73.5 652.9307,-55.5 612.4775,-55.5"/>
<text text-anchor="middle" x="632.7041" y="-61.5" font-family="Helvetica,sans-Serif" font-size="10.00" fill="#000000">string</text>
</g>
<!-- Node15&#45;&gt;Node19 -->
<g id="edge26" class="edge">
<title>Node15&#45;&gt;Node19</title>
<path fill="none" stroke="#191970" d="M644.9874,-165.3987C642.4901,-144.8847 637.8477,-106.7512 635.0407,-83.6935"/>
<polygon fill="#191970" stroke="#191970" points="638.5105,-83.2324 633.8276,-73.7286 631.5618,-84.0783 638.5105,-83.2324"/>
</g>
<!-- Node20 -->
<g id="node21" class="node">
<title>Node20</title>
<polygon fill="#ffffff" stroke="#bfbfbf" points="449.3125,-110.5 449.3125,-128.5 488.0957,-128.5 488.0957,-110.5 449.3125,-110.5"/>
<text text-anchor="middle" x="468.7041" y="-116.5" font-family="Helvetica,sans-Serif" font-size="10.00" fill="#000000">utility</text>
</g>
<!-- Node15&#45;&gt;Node20 -->
<g id="edge27" class="edge">
<title>Node15&#45;&gt;Node20</title>
<path fill="none" stroke="#191970" d="M604.971,-165.4327C572.064,-154.3404 527.012,-139.1543 497.8815,-129.3351"/>
<polygon fill="#191970" stroke="#191970" points="498.8819,-125.9788 488.2877,-126.1012 496.6459,-132.6121 498.8819,-125.9788"/>
</g>
<!-- Node16&#45;&gt;Node13 -->
<g id="edge24" class="edge">
<title>Node16&#45;&gt;Node13</title>
<path fill="none" stroke="#191970" d="M540.4116,-110.4179C518.1973,-101.3676 483.8932,-87.3919 458.9637,-77.2354"/>
<polygon fill="#191970" stroke="#191970" points="460.1633,-73.9448 449.5818,-73.4131 457.5222,-80.4275 460.1633,-73.9448"/>
</g>
<!-- Node17 -->
<g id="node18" class="node">
<title>Node17</title>
<polygon fill="#ffffff" stroke="#bfbfbf" points="470.0342,-55.5 470.0342,-73.5 519.374,-73.5 519.374,-55.5 470.0342,-55.5"/>
<text text-anchor="middle" x="494.7041" y="-61.5" font-family="Helvetica,sans-Serif" font-size="10.00" fill="#000000">fstream</text>
</g>
<!-- Node16&#45;&gt;Node17 -->
<g id="edge21" class="edge">
<title>Node16&#45;&gt;Node17</title>
<path fill="none" stroke="#191970" d="M551.4753,-110.4179C541.2996,-102.1876 526.0878,-89.8839 513.971,-80.0836"/>
<polygon fill="#191970" stroke="#191970" points="516.1531,-77.3469 506.1769,-73.7795 511.751,-82.7895 516.1531,-77.3469"/>
</g>
<!-- Node18 -->
<g id="node19" class="node">
<title>Node18</title>
<polygon fill="#ffffff" stroke="#bfbfbf" points="537.5317,-55.5 537.5317,-73.5 591.8765,-73.5 591.8765,-55.5 537.5317,-55.5"/>
<text text-anchor="middle" x="564.7041" y="-61.5" font-family="Helvetica,sans-Serif" font-size="10.00" fill="#000000">iostream</text>
</g>
<!-- Node16&#45;&gt;Node18 -->
<g id="edge22" class="edge">
<title>Node16&#45;&gt;Node18</title>
<path fill="none" stroke="#191970" d="M563.0344,-110.4179C563.2962,-103.2164 563.6715,-92.8962 564,-83.8632"/>
<polygon fill="#191970" stroke="#191970" points="567.5009,-83.9001 564.3667,-73.7795 560.5055,-83.6456 567.5009,-83.9001"/>
</g>
<!-- Node16&#45;&gt;Node19 -->
<g id="edge23" class="edge">
<title>Node16&#45;&gt;Node19</title>
<path fill="none" stroke="#191970" d="M574.2632,-110.4179C584.7381,-102.1876 600.3973,-89.8839 612.8705,-80.0836"/>
<polygon fill="#191970" stroke="#191970" points="615.1931,-82.7098 620.8939,-73.7795 610.8683,-77.2056 615.1931,-82.7098"/>
</g>
</g>
</svg>
        <g id="navigator" transform="translate(0 0)" fill="#404254">
                <rect fill="#f2f5e9" fill-opacity="0.5" stroke="#606060" stroke-width=".5" x="0" y="0" width="60" height="60"/>
                <use id="zoomplus" xlink:href="#zoomPlus" x="17" y="9" onmousedown="handleZoom(evt,'in')"/>
                <use id="zoomminus" xlink:href="#zoomMin" x="42" y="9" onmousedown="handleZoom(evt,'out')"/>
                <use id="reset" xlink:href="#resetDef" x="30" y="36" onmousedown="handleReset()"/>
                <g id="arrowUp" xlink:href="#dirArrow" transform="translate(30 24)" onmousedown="handlePan(0,-1)">
                  <use xlink:href="#rim" fill="#404040">
                        <set attributeName="fill" to="#808080" begin="arrowUp.mouseover" end="arrowUp.mouseout"/>
                  </use>
                  <path fill="none" stroke="white" stroke-width="1.5" d="M0,-3.0v7 M-2.5,-0.5L0,-3.0L2.5,-0.5"/>
                </g>
                <g id="arrowRight" xlink:href="#dirArrow" transform="rotate(90) translate(36 -43)" onmousedown="handlePan(1,0)">
                  <use xlink:href="#rim" fill="#404040">
                        <set attributeName="fill" to="#808080" begin="arrowRight.mouseover" end="arrowRight.mouseout"/>
                  </use>
                  <path fill="none" stroke="white" stroke-width="1.5" d="M0,-3.0v7 M-2.5,-0.5L0,-3.0L2.5,-0.5"/>
                </g>
                <g id="arrowDown" xlink:href="#dirArrow" transform="rotate(180) translate(-30 -48)" onmousedown="handlePan(0,1)">
                  <use xlink:href="#rim" fill="#404040">
                        <set attributeName="fill" to="#808080" begin="arrowDown.mouseover" end="arrowDown.mouseout"/>
                  </use>
                  <path fill="none" stroke="white" stroke-width="1.5" d="M0,-3.0v7 M-2.5,-0.5L0,-3.0L2.5,-0.5"/>
                </g>
                <g id="arrowLeft" xlink:href="#dirArrow" transform="rotate(270) translate(-36 17)" onmousedown="handlePan(-1,0)">
                  <use xlink:href="#rim" fill="#404040">
                        <set attributeName="fill" to="#808080" begin="arrowLeft.mouseover" end="arrowLeft.mouseout"/>
                  </use>
                  <path fill="none" stroke="white" stroke-width="1.5" d="M0,-3.0v7 M-2.5,-0.5L0,-3.0L2.5,-0.5"/>
                </g>
        </g>
        <svg viewBox="0 0 15 15" width="100%" height="30px" preserveAspectRatio="xMaxYMin meet">
         <g id="arrow_out" transform="scale(0.3 0.3)">
          <a xlink:href="sigma__point_8h__incl_org.svg" target="_base">
           <rect id="button" ry="5" rx="5" y="6" x="6" height="38" width="38"
                fill="#f2f5e9" fill-opacity="0.5" stroke="#606060" stroke-width="1.0"/>
           <path id="arrow"
             d="M 11.500037,31.436501 C 11.940474,20.09759 22.043105,11.32322 32.158766,21.979434 L 37.068811,17.246167 C 37.068811,17.246167 37.088388,32 37.088388,32 L 22.160133,31.978069 C 22.160133,31.978069 26.997745,27.140456 26.997745,27.140456 C 18.528582,18.264221 13.291696,25.230495 11.500037,31.436501 z"
             style="fill:#404040;"/>
          </a>
         </g>
        </svg>
</svg>
