<?xml version="1.0" encoding="UTF-8" standalone="no"?>
<!DOCTYPE svg PUBLIC "-//W3C//DTD SVG 1.1//EN"
 "http://www.w3.org/Graphics/SVG/1.1/DTD/svg11.dtd">
<!-- Generated by graphviz version 2.40.1 (20161225.0304)
 -->
<!-- Title: /Users/Claudio/GitHub/bayes&#45;filters&#45;lib/src/BayesFilters/include/BayesFilters/sigma_point.h Pages: 1 -->
<svg width="704pt" height="217pt"
 viewBox="0.00 0.00 703.87 217.00" xmlns="http://www.w3.org/2000/svg" xmlns:xlink="http://www.w3.org/1999/xlink">
<g id="graph0" class="graph" transform="scale(1 1) rotate(0) translate(4 213)">
<title>/Users/Claudio/GitHub/bayes&#45;filters&#45;lib/src/BayesFilters/include/BayesFilters/sigma_point.h</title>
<polygon fill="#ffffff" stroke="transparent" points="-4,4 -4,-213 699.8667,-213 699.8667,4 -4,4"/>
<!-- Node22 -->
<g id="node1" class="node">
<title>Node22</title>
<polygon fill="#bfbfbf" stroke="#000000" points="300.1626,-160.5 300.1626,-208.5 466.2163,-208.5 466.2163,-160.5 300.1626,-160.5"/>
<text text-anchor="start" x="308.1626" y="-196.5" font-family="Helvetica,sans-Serif" font-size="10.00" fill="#000000">/Users/Claudio/GitHub</text>
<text text-anchor="start" x="308.1626" y="-186.5" font-family="Helvetica,sans-Serif" font-size="10.00" fill="#000000">/bayes&#45;filters&#45;lib/src</text>
<text text-anchor="start" x="308.1626" y="-176.5" font-family="Helvetica,sans-Serif" font-size="10.00" fill="#000000">/BayesFilters/include/BayesFilters</text>
<text text-anchor="middle" x="383.1895" y="-166.5" font-family="Helvetica,sans-Serif" font-size="10.00" fill="#000000">/sigma_point.h</text>
</g>
<!-- Node23 -->
<g id="node2" class="node">
<title>Node23</title>
<g id="a_node2"><a xlink:href="SUKFCorrection_8h.html" target="_top" xlink:title="/Users/Claudio/GitHub\l/bayes&#45;filters&#45;lib/src\l/BayesFilters/include/BayesFilters\l/SUKFCorrection.h">
<polygon fill="#ffffff" stroke="#000000" points="17.1626,-75.5 17.1626,-123.5 183.2163,-123.5 183.2163,-75.5 17.1626,-75.5"/>
<text text-anchor="start" x="25.1626" y="-111.5" font-family="Helvetica,sans-Serif" font-size="10.00" fill="#000000">/Users/Claudio/GitHub</text>
<text text-anchor="start" x="25.1626" y="-101.5" font-family="Helvetica,sans-Serif" font-size="10.00" fill="#000000">/bayes&#45;filters&#45;lib/src</text>
<text text-anchor="start" x="25.1626" y="-91.5" font-family="Helvetica,sans-Serif" font-size="10.00" fill="#000000">/BayesFilters/include/BayesFilters</text>
<text text-anchor="middle" x="100.1895" y="-81.5" font-family="Helvetica,sans-Serif" font-size="10.00" fill="#000000">/SUKFCorrection.h</text>
</a>
</g>
</g>
<!-- Node22&#45;&gt;Node23 -->
<g id="edge1" class="edge">
<title>Node22&#45;&gt;Node23</title>
<path fill="none" stroke="#191970" d="M293.6317,-157.601C257.3329,-146.6986 215.7388,-134.2056 180.444,-123.6047"/>
<polygon fill="#191970" stroke="#191970" points="292.6436,-160.9587 303.2278,-160.4832 294.6573,-154.2545 292.6436,-160.9587"/>
</g>
<!-- Node25 -->
<g id="node4" class="node">
<title>Node25</title>
<g id="a_node4"><a xlink:href="UKFCorrection_8h.html" target="_top" xlink:title="/Users/Claudio/GitHub\l/bayes&#45;filters&#45;lib/src\l/BayesFilters/include/BayesFilters\l/UKFCorrection.h">
<polygon fill="#ffffff" stroke="#000000" points="208.1626,-75.5 208.1626,-123.5 374.2163,-123.5 374.2163,-75.5 208.1626,-75.5"/>
<text text-anchor="start" x="216.1626" y="-111.5" font-family="Helvetica,sans-Serif" font-size="10.00" fill="#000000">/Users/Claudio/GitHub</text>
<text text-anchor="start" x="216.1626" y="-101.5" font-family="Helvetica,sans-Serif" font-size="10.00" fill="#000000">/bayes&#45;filters&#45;lib/src</text>
<text text-anchor="start" x="216.1626" y="-91.5" font-family="Helvetica,sans-Serif" font-size="10.00" fill="#000000">/BayesFilters/include/BayesFilters</text>
<text text-anchor="middle" x="291.1895" y="-81.5" font-family="Helvetica,sans-Serif" font-size="10.00" fill="#000000">/UKFCorrection.h</text>
</a>
</g>
</g>
<!-- Node22&#45;&gt;Node25 -->
<g id="edge3" class="edge">
<title>Node22&#45;&gt;Node25</title>
<path fill="none" stroke="#191970" d="M349.5495,-153.4196C338.9395,-143.6169 327.3819,-132.9387 317.3722,-123.6906"/>
<polygon fill="#191970" stroke="#191970" points="347.3519,-156.1544 357.072,-160.3698 352.1022,-151.0129 347.3519,-156.1544"/>
</g>
<!-- Node27 -->
<g id="node6" class="node">
<title>Node27</title>
<g id="a_node6"><a xlink:href="UKFPrediction_8h.html" target="_top" xlink:title="/Users/Claudio/GitHub\l/bayes&#45;filters&#45;lib/src\l/BayesFilters/include/BayesFilters\l/UKFPrediction.h">
<polygon fill="#ffffff" stroke="#000000" points="392.1626,-75.5 392.1626,-123.5 558.2163,-123.5 558.2163,-75.5 392.1626,-75.5"/>
<text text-anchor="start" x="400.1626" y="-111.5" font-family="Helvetica,sans-Serif" font-size="10.00" fill="#000000">/Users/Claudio/GitHub</text>
<text text-anchor="start" x="400.1626" y="-101.5" font-family="Helvetica,sans-Serif" font-size="10.00" fill="#000000">/bayes&#45;filters&#45;lib/src</text>
<text text-anchor="start" x="400.1626" y="-91.5" font-family="Helvetica,sans-Serif" font-size="10.00" fill="#000000">/BayesFilters/include/BayesFilters</text>
<text text-anchor="middle" x="475.1895" y="-81.5" font-family="Helvetica,sans-Serif" font-size="10.00" fill="#000000">/UKFPrediction.h</text>
</a>
</g>
</g>
<!-- Node22&#45;&gt;Node27 -->
<g id="edge5" class="edge">
<title>Node22&#45;&gt;Node27</title>
<path fill="none" stroke="#191970" d="M416.8294,-153.4196C427.4394,-143.6169 438.997,-132.9387 449.0067,-123.6906"/>
<polygon fill="#191970" stroke="#191970" points="414.2767,-151.0129 409.3069,-160.3698 419.027,-156.1544 414.2767,-151.0129"/>
</g>
<!-- Node29 -->
<g id="node8" class="node">
<title>Node29</title>
<g id="a_node8"><a xlink:href="sigma__point_8cpp.html" target="_top" xlink:title="/Users/Claudio/GitHub\l/bayes&#45;filters&#45;lib/src\l/BayesFilters/src/sigma\l_point.cpp">
<polygon fill="#ffffff" stroke="#000000" points="576.5122,-75.5 576.5122,-123.5 695.8667,-123.5 695.8667,-75.5 576.5122,-75.5"/>
<text text-anchor="start" x="584.5122" y="-111.5" font-family="Helvetica,sans-Serif" font-size="10.00" fill="#000000">/Users/Claudio/GitHub</text>
<text text-anchor="start" x="584.5122" y="-101.5" font-family="Helvetica,sans-Serif" font-size="10.00" fill="#000000">/bayes&#45;filters&#45;lib/src</text>
<text text-anchor="start" x="584.5122" y="-91.5" font-family="Helvetica,sans-Serif" font-size="10.00" fill="#000000">/BayesFilters/src/sigma</text>
<text text-anchor="middle" x="636.1895" y="-81.5" font-family="Helvetica,sans-Serif" font-size="10.00" fill="#000000">_point.cpp</text>
</a>
</g>
</g>
<!-- Node22&#45;&gt;Node29 -->
<g id="edge7" class="edge">
<title>Node22&#45;&gt;Node29</title>
<path fill="none" stroke="#191970" d="M467.2267,-157.3285C498.6462,-147.0488 534.6051,-135.1401 567.1895,-124 570.1965,-122.9719 573.2743,-121.911 576.3804,-120.8334"/>
<polygon fill="#191970" stroke="#191970" points="466.0489,-154.0312 457.6304,-160.4638 468.2229,-160.685 466.0489,-154.0312"/>
</g>
<!-- Node24 -->
<g id="node3" class="node">
<title>Node24</title>
<g id="a_node3"><a xlink:href="SUKFCorrection_8cpp.html" target="_top" xlink:title="/Users/Claudio/GitHub\l/bayes&#45;filters&#45;lib/src\l/BayesFilters/src/SUKFCorrection.cpp">
<polygon fill="#ffffff" stroke="#000000" points="0,-.5 0,-38.5 184.3789,-38.5 184.3789,-.5 0,-.5"/>
<text text-anchor="start" x="8" y="-26.5" font-family="Helvetica,sans-Serif" font-size="10.00" fill="#000000">/Users/Claudio/GitHub</text>
<text text-anchor="start" x="8" y="-16.5" font-family="Helvetica,sans-Serif" font-size="10.00" fill="#000000">/bayes&#45;filters&#45;lib/src</text>
<text text-anchor="middle" x="92.1895" y="-6.5" font-family="Helvetica,sans-Serif" font-size="10.00" fill="#000000">/BayesFilters/src/SUKFCorrection.cpp</text>
</a>
</g>
</g>
<!-- Node23&#45;&gt;Node24 -->
<g id="edge2" class="edge">
<title>Node23&#45;&gt;Node24</title>
<path fill="none" stroke="#191970" d="M96.7835,-65.4405C95.8674,-56.2795 94.9088,-46.6933 94.1057,-38.662"/>
<polygon fill="#191970" stroke="#191970" points="93.3114,-65.8953 97.7892,-75.4974 100.2767,-65.1987 93.3114,-65.8953"/>
</g>
<!-- Node26 -->
<g id="node5" class="node">
<title>Node26</title>
<g id="a_node5"><a xlink:href="UKFCorrection_8cpp.html" target="_top" xlink:title="/Users/Claudio/GitHub\l/bayes&#45;filters&#45;lib/src\l/BayesFilters/src/UKFCorrection.cpp">
<polygon fill="#ffffff" stroke="#000000" points="202.335,-.5 202.335,-38.5 380.0439,-38.5 380.0439,-.5 202.335,-.5"/>
<text text-anchor="start" x="210.335" y="-26.5" font-family="Helvetica,sans-Serif" font-size="10.00" fill="#000000">/Users/Claudio/GitHub</text>
<text text-anchor="start" x="210.335" y="-16.5" font-family="Helvetica,sans-Serif" font-size="10.00" fill="#000000">/bayes&#45;filters&#45;lib/src</text>
<text text-anchor="middle" x="291.1895" y="-6.5" font-family="Helvetica,sans-Serif" font-size="10.00" fill="#000000">/BayesFilters/src/UKFCorrection.cpp</text>
</a>
</g>
</g>
<!-- Node25&#45;&gt;Node26 -->
<g id="edge4" class="edge">
<title>Node25&#45;&gt;Node26</title>
<path fill="none" stroke="#191970" d="M291.1895,-65.4405C291.1895,-56.2795 291.1895,-46.6933 291.1895,-38.662"/>
<polygon fill="#191970" stroke="#191970" points="287.6896,-65.4973 291.1895,-75.4974 294.6896,-65.4974 287.6896,-65.4973"/>
</g>
<!-- Node28 -->
<g id="node7" class="node">
<title>Node28</title>
<g id="a_node7"><a xlink:href="UKFPrediction_8cpp.html" target="_top" xlink:title="/Users/Claudio/GitHub\l/bayes&#45;filters&#45;lib/src\l/BayesFilters/src/UKFPrediction.cpp">
<polygon fill="#ffffff" stroke="#000000" points="398.165,-.5 398.165,-38.5 574.2139,-38.5 574.2139,-.5 398.165,-.5"/>
<text text-anchor="start" x="406.165" y="-26.5" font-family="Helvetica,sans-Serif" font-size="10.00" fill="#000000">/Users/Claudio/GitHub</text>
<text text-anchor="start" x="406.165" y="-16.5" font-family="Helvetica,sans-Serif" font-size="10.00" fill="#000000">/bayes&#45;filters&#45;lib/src</text>
<text text-anchor="middle" x="486.1895" y="-6.5" font-family="Helvetica,sans-Serif" font-size="10.00" fill="#000000">/BayesFilters/src/UKFPrediction.cpp</text>
</a>
</g>
</g>
<!-- Node27&#45;&gt;Node28 -->
<g id="edge6" class="edge">
<title>Node27&#45;&gt;Node28</title>
<path fill="none" stroke="#191970" d="M479.8726,-65.4405C481.1323,-56.2795 482.4504,-46.6933 483.5547,-38.662"/>
<polygon fill="#191970" stroke="#191970" points="476.3847,-65.1138 478.4898,-75.4974 483.3195,-66.0674 476.3847,-65.1138"/>
</g>
</g>
</svg>
