<?xml version="1.0" encoding="UTF-8" standalone="no"?>
<!DOCTYPE svg PUBLIC "-//W3C//DTD SVG 1.1//EN"
 "http://www.w3.org/Graphics/SVG/1.1/DTD/svg11.dtd">
<!-- Generated by graphviz version 2.40.1 (20161225.0304)
 -->
<!-- Title: /Users/Claudio/GitHub/bayes&#45;filters&#45;lib/src/BayesFilters/src/SimulatedStateModel.cpp Pages: 1 -->
<!--zoomable 342 -->
<svg id="main" version="1.1" xmlns="http://www.w3.org/2000/svg" xmlns:xlink="http://www.w3.org/1999/xlink" xml:space="preserve" onload="init(evt)">
<style type="text/css"><![CDATA[
.edge:hover path { stroke: red; }
.edge:hover polygon { stroke: red; fill: red; }
]]></style>
<script type="text/javascript"><![CDATA[
var edges = document.getElementsByTagName('g');
if (edges && edges.length) {
  for (var i=0;i<edges.length;i++) {
    if (edges[i].id.substr(0,4)=='edge') {
      edges[i].setAttribute('class','edge');
    }
  }
}
]]></script>
        <defs>
                <circle id="rim" cx="0" cy="0" r="7"/>
                <circle id="rim2" cx="0" cy="0" r="3.5"/>
                <g id="zoomPlus">
                        <use xlink:href="#rim" fill="#404040">
                                <set attributeName="fill" to="#808080" begin="zoomplus.mouseover" end="zoomplus.mouseout"/>
                        </use>
                        <path d="M-4,0h8M0,-4v8" fill="none" stroke="white" stroke-width="1.5" pointer-events="none"/>
                </g>
                <g id="zoomMin">
                        <use xlink:href="#rim" fill="#404040">
                                <set attributeName="fill" to="#808080" begin="zoomminus.mouseover" end="zoomminus.mouseout"/>
                        </use>
                        <path d="M-4,0h8" fill="none" stroke="white" stroke-width="1.5" pointer-events="none"/>
                </g>
                <g id="dirArrow">
                        <path fill="none" stroke="white" stroke-width="1.5" d="M0,-3.0v7 M-2.5,-0.5L0,-3.0L2.5,-0.5"/>
                </g>
               <g id="resetDef">
                       <use xlink:href="#rim2" fill="#404040">
                               <set attributeName="fill" to="#808080" begin="reset.mouseover" end="reset.mouseout"/>
                       </use>
               </g>
        </defs>

<script type="text/javascript">
var viewWidth = 535;
var viewHeight = 342;
var sectionId = 'dynsection-0';
</script>
<script xlink:href="svgpan.js"/>
<svg id="graph" class="graph">
<g id="viewport">
<title>/Users/Claudio/GitHub/bayes&#45;filters&#45;lib/src/BayesFilters/src/SimulatedStateModel.cpp</title>
<polygon fill="#ffffff" stroke="transparent" points="-4,4 -4,-338 531.2725,-338 531.2725,4 -4,4"/>
<!-- Node0 -->
<g id="node1" class="node">
<title>Node0</title>
<polygon fill="#bfbfbf" stroke="#000000" points="271.8516,-285.5 271.8516,-333.5 432.3487,-333.5 432.3487,-285.5 271.8516,-285.5"/>
<text text-anchor="start" x="279.8516" y="-321.5" font-family="Helvetica,sans-Serif" font-size="10.00" fill="#000000">/Users/Claudio/GitHub</text>
<text text-anchor="start" x="279.8516" y="-311.5" font-family="Helvetica,sans-Serif" font-size="10.00" fill="#000000">/bayes&#45;filters&#45;lib/src</text>
<text text-anchor="start" x="279.8516" y="-301.5" font-family="Helvetica,sans-Serif" font-size="10.00" fill="#000000">/BayesFilters/src/SimulatedState</text>
<text text-anchor="middle" x="352.1002" y="-291.5" font-family="Helvetica,sans-Serif" font-size="10.00" fill="#000000">Model.cpp</text>
</g>
<!-- Node1 -->
<g id="node2" class="node">
<title>Node1</title>
<g id="a_node2"><a xlink:href="SimulatedStateModel_8h.html" target="_top" xlink:title="BayesFilters/SimulatedState\lModel.h">
<polygon fill="#ffffff" stroke="#000000" points="197.295,-220.5 197.295,-248.5 338.9053,-248.5 338.9053,-220.5 197.295,-220.5"/>
<text text-anchor="start" x="205.295" y="-236.5" font-family="Helvetica,sans-Serif" font-size="10.00" fill="#000000">BayesFilters/SimulatedState</text>
<text text-anchor="middle" x="268.1002" y="-226.5" font-family="Helvetica,sans-Serif" font-size="10.00" fill="#000000">Model.h</text>
</a>
</g>
</g>
<!-- Node0&#45;&gt;Node1 -->
<g id="edge1" class="edge">
<title>Node0&#45;&gt;Node1</title>
<path fill="none" stroke="#191970" d="M325.0597,-285.3567C314.2056,-275.6655 301.8182,-264.6054 291.3736,-255.2799"/>
<polygon fill="#191970" stroke="#191970" points="293.6134,-252.5876 283.8229,-248.5382 288.9513,-257.8092 293.6134,-252.5876"/>
</g>
<!-- Node14 -->
<g id="node15" class="node">
<title>Node14</title>
<polygon fill="#ffffff" stroke="#bfbfbf" points="472.9278,-110.5 472.9278,-128.5 527.2725,-128.5 527.2725,-110.5 472.9278,-110.5"/>
<text text-anchor="middle" x="500.1002" y="-116.5" font-family="Helvetica,sans-Serif" font-size="10.00" fill="#000000">iostream</text>
</g>
<!-- Node0&#45;&gt;Node14 -->
<g id="edge22" class="edge">
<title>Node0&#45;&gt;Node14</title>
<path fill="none" stroke="#191970" d="M374.1538,-285.2404C396.2754,-260.4891 430.8754,-220.6208 458.1002,-184 469.3911,-168.8122 481.0435,-150.6883 489.2019,-137.5253"/>
<polygon fill="#191970" stroke="#191970" points="492.2282,-139.2852 494.4697,-128.9302 486.26,-135.6273 492.2282,-139.2852"/>
</g>
<!-- Node2 -->
<g id="node3" class="node">
<title>Node2</title>
<g id="a_node3"><a xlink:href="Agent_8h.html" target="_top" xlink:title="BayesFilters/Agent.h">
<polygon fill="#ffffff" stroke="#000000" points="172.9673,-165.5 172.9673,-183.5 281.233,-183.5 281.233,-165.5 172.9673,-165.5"/>
<text text-anchor="middle" x="227.1002" y="-171.5" font-family="Helvetica,sans-Serif" font-size="10.00" fill="#000000">BayesFilters/Agent.h</text>
</a>
</g>
</g>
<!-- Node1&#45;&gt;Node2 -->
<g id="edge2" class="edge">
<title>Node1&#45;&gt;Node2</title>
<path fill="none" stroke="#191970" d="M258.3837,-220.2808C252.6191,-211.8448 245.2641,-201.0813 239.1342,-192.1107"/>
<polygon fill="#191970" stroke="#191970" points="241.8394,-189.866 233.3077,-183.5842 236.0599,-193.8153 241.8394,-189.866"/>
</g>
<!-- Node6 -->
<g id="node7" class="node">
<title>Node6</title>
<polygon fill="#ffffff" stroke="#bfbfbf" points="44.0435,-.5 44.0435,-18.5 96.1568,-18.5 96.1568,-.5 44.0435,-.5"/>
<text text-anchor="middle" x="70.1002" y="-6.5" font-family="Helvetica,sans-Serif" font-size="10.00" fill="#000000">memory</text>
</g>
<!-- Node1&#45;&gt;Node6 -->
<g id="edge20" class="edge">
<title>Node1&#45;&gt;Node6</title>
<path fill="none" stroke="#191970" d="M197.0459,-230.2242C130.1413,-224.5387 36.8838,-211.7594 14.1002,-184 -25.1828,-136.1379 27.6215,-60.2023 55.2063,-26.5349"/>
<polygon fill="#191970" stroke="#191970" points="58.1481,-28.4752 61.9135,-18.572 52.7942,-23.9656 58.1481,-28.4752"/>
</g>
<!-- Node12 -->
<g id="node13" class="node">
<title>Node12</title>
<g id="a_node13"><a xlink:href="Logger_8h.html" target="_top" xlink:title="BayesFilters/Logger.h">
<polygon fill="#ffffff" stroke="#000000" points="336.7383,-165.5 336.7383,-183.5 449.462,-183.5 449.462,-165.5 336.7383,-165.5"/>
<text text-anchor="middle" x="393.1002" y="-171.5" font-family="Helvetica,sans-Serif" font-size="10.00" fill="#000000">BayesFilters/Logger.h</text>
</a>
</g>
</g>
<!-- Node1&#45;&gt;Node12 -->
<g id="edge13" class="edge">
<title>Node1&#45;&gt;Node12</title>
<path fill="none" stroke="#191970" d="M297.4071,-220.4327C317.7474,-210.6693 344.6952,-197.7344 364.8102,-188.0792"/>
<polygon fill="#191970" stroke="#191970" points="366.5765,-191.1138 374.0771,-183.6311 363.5473,-184.8031 366.5765,-191.1138"/>
</g>
<!-- Node13 -->
<g id="node14" class="node">
<title>Node13</title>
<polygon fill="#ffffff" stroke="#bfbfbf" points="344.4302,-110.5 344.4302,-128.5 393.7701,-128.5 393.7701,-110.5 344.4302,-110.5"/>
<text text-anchor="middle" x="369.1002" y="-116.5" font-family="Helvetica,sans-Serif" font-size="10.00" fill="#000000">fstream</text>
</g>
<!-- Node1&#45;&gt;Node13 -->
<g id="edge21" class="edge">
<title>Node1&#45;&gt;Node13</title>
<path fill="none" stroke="#191970" d="M280.1938,-220.3141C292.2497,-206.2145 311.3347,-184.0078 328.1002,-165 336.6285,-155.3309 346.2757,-144.6141 354.0688,-136.0111"/>
<polygon fill="#191970" stroke="#191970" points="356.7449,-138.2703 360.8753,-128.5137 351.5621,-133.5651 356.7449,-138.2703"/>
</g>
<!-- Node16 -->
<g id="node17" class="node">
<title>Node16</title>
<g id="a_node17"><a xlink:href="StateModel_8h.html" target="_top" xlink:title="BayesFilters/StateModel.h">
<polygon fill="#ffffff" stroke="#000000" points="22.7408,-165.5 22.7408,-183.5 155.4595,-183.5 155.4595,-165.5 22.7408,-165.5"/>
<text text-anchor="middle" x="89.1002" y="-171.5" font-family="Helvetica,sans-Serif" font-size="10.00" fill="#000000">BayesFilters/StateModel.h</text>
</a>
</g>
</g>
<!-- Node1&#45;&gt;Node16 -->
<g id="edge18" class="edge">
<title>Node1&#45;&gt;Node16</title>
<path fill="none" stroke="#191970" d="M226.1326,-220.4327C195.7213,-210.2389 154.9954,-196.5878 125.8607,-186.822"/>
<polygon fill="#191970" stroke="#191970" points="126.6686,-183.4014 116.0746,-183.5417 124.4438,-190.0385 126.6686,-183.4014"/>
</g>
<!-- Node3 -->
<g id="node4" class="node">
<title>Node3</title>
<g id="a_node4"><a xlink:href="Data_8h.html" target="_top" xlink:title="BayesFilters/Data.h">
<polygon fill="#ffffff" stroke="#000000" points="164.4722,-110.5 164.4722,-128.5 267.7281,-128.5 267.7281,-110.5 164.4722,-110.5"/>
<text text-anchor="middle" x="216.1002" y="-116.5" font-family="Helvetica,sans-Serif" font-size="10.00" fill="#000000">BayesFilters/Data.h</text>
</a>
</g>
</g>
<!-- Node2&#45;&gt;Node3 -->
<g id="edge3" class="edge">
<title>Node2&#45;&gt;Node3</title>
<path fill="none" stroke="#191970" d="M225.2837,-165.4179C223.8434,-158.2164 221.7794,-147.8962 219.9728,-138.8632"/>
<polygon fill="#191970" stroke="#191970" points="223.3493,-137.8988 217.9561,-128.7795 216.4853,-139.2717 223.3493,-137.8988"/>
</g>
<!-- Node2&#45;&gt;Node6 -->
<g id="edge10" class="edge">
<title>Node2&#45;&gt;Node6</title>
<path fill="none" stroke="#191970" d="M208.5744,-165.4007C193.1578,-157.2493 171.2069,-144.2491 155.1002,-129 122.2939,-97.9406 94.1284,-52.5247 79.9319,-27.5771"/>
<polygon fill="#191970" stroke="#191970" points="82.9671,-25.8336 75.0387,-18.8057 76.854,-29.2439 82.9671,-25.8336"/>
</g>
<!-- Node10 -->
<g id="node11" class="node">
<title>Node10</title>
<polygon fill="#ffffff" stroke="#bfbfbf" points="285.8736,-110.5 285.8736,-128.5 326.3267,-128.5 326.3267,-110.5 285.8736,-110.5"/>
<text text-anchor="middle" x="306.1002" y="-116.5" font-family="Helvetica,sans-Serif" font-size="10.00" fill="#000000">string</text>
</g>
<!-- Node2&#45;&gt;Node10 -->
<g id="edge11" class="edge">
<title>Node2&#45;&gt;Node10</title>
<path fill="none" stroke="#191970" d="M240.1454,-165.4179C252.267,-156.9788 270.5401,-144.257 284.7808,-134.3426"/>
<polygon fill="#191970" stroke="#191970" points="286.8284,-137.1818 293.0355,-128.5956 282.8288,-131.4369 286.8284,-137.1818"/>
</g>
<!-- Node11 -->
<g id="node12" class="node">
<title>Node11</title>
<polygon fill="#ffffff" stroke="#bfbfbf" points="34.4698,-110.5 34.4698,-128.5 107.7305,-128.5 107.7305,-110.5 34.4698,-110.5"/>
<text text-anchor="middle" x="71.1002" y="-116.5" font-family="Helvetica,sans-Serif" font-size="10.00" fill="#000000">Eigen/Dense</text>
</g>
<!-- Node2&#45;&gt;Node11 -->
<g id="edge12" class="edge">
<title>Node2&#45;&gt;Node11</title>
<path fill="none" stroke="#191970" d="M201.3399,-165.4179C175.4067,-156.2748 135.215,-142.1046 106.3392,-131.924"/>
<polygon fill="#191970" stroke="#191970" points="107.2342,-128.5285 96.6394,-128.5042 104.9066,-135.1302 107.2342,-128.5285"/>
</g>
<!-- Node4 -->
<g id="node5" class="node">
<title>Node4</title>
<g id="a_node5"><a xlink:href="any_8h.html" target="_top" xlink:title="BayesFilters/any.h">
<polygon fill="#ffffff" stroke="#000000" points="167.3409,-55.5 167.3409,-73.5 264.8594,-73.5 264.8594,-55.5 167.3409,-55.5"/>
<text text-anchor="middle" x="216.1002" y="-61.5" font-family="Helvetica,sans-Serif" font-size="10.00" fill="#000000">BayesFilters/any.h</text>
</a>
</g>
</g>
<!-- Node3&#45;&gt;Node4 -->
<g id="edge4" class="edge">
<title>Node3&#45;&gt;Node4</title>
<path fill="none" stroke="#191970" d="M216.1002,-110.4179C216.1002,-103.2164 216.1002,-92.8962 216.1002,-83.8632"/>
<polygon fill="#191970" stroke="#191970" points="219.6003,-83.7794 216.1002,-73.7795 212.6003,-83.7795 219.6003,-83.7794"/>
</g>
<!-- Node5 -->
<g id="node6" class="node">
<title>Node5</title>
<polygon fill="#ffffff" stroke="#bfbfbf" points="340.5362,-.5 340.5362,-18.5 397.6641,-18.5 397.6641,-.5 340.5362,-.5"/>
<text text-anchor="middle" x="369.1002" y="-6.5" font-family="Helvetica,sans-Serif" font-size="10.00" fill="#000000">algorithm</text>
</g>
<!-- Node4&#45;&gt;Node5 -->
<g id="edge5" class="edge">
<title>Node4&#45;&gt;Node5</title>
<path fill="none" stroke="#191970" d="M241.365,-55.4179C266.7995,-46.2748 306.2183,-32.1046 334.5388,-21.924"/>
<polygon fill="#191970" stroke="#191970" points="335.8257,-25.1808 344.0521,-18.5042 333.4576,-18.5935 335.8257,-25.1808"/>
</g>
<!-- Node4&#45;&gt;Node6 -->
<g id="edge6" class="edge">
<title>Node4&#45;&gt;Node6</title>
<path fill="none" stroke="#191970" d="M191.9912,-55.4179C167.8985,-46.3419 130.6565,-32.3123 103.677,-22.1488"/>
<polygon fill="#191970" stroke="#191970" points="104.8368,-18.8457 94.2449,-18.5956 102.3691,-25.3963 104.8368,-18.8457"/>
</g>
<!-- Node7 -->
<g id="node8" class="node">
<title>Node7</title>
<polygon fill="#ffffff" stroke="#bfbfbf" points="113.6988,-.5 113.6988,-18.5 172.5015,-18.5 172.5015,-.5 113.6988,-.5"/>
<text text-anchor="middle" x="143.1002" y="-6.5" font-family="Helvetica,sans-Serif" font-size="10.00" fill="#000000">stdexcept</text>
</g>
<!-- Node4&#45;&gt;Node7 -->
<g id="edge7" class="edge">
<title>Node4&#45;&gt;Node7</title>
<path fill="none" stroke="#191970" d="M204.0457,-55.4179C193.0168,-47.1084 176.477,-34.6469 163.4095,-24.8015"/>
<polygon fill="#191970" stroke="#191970" points="165.5095,-22.0016 155.4165,-18.7795 161.2973,-27.5924 165.5095,-22.0016"/>
</g>
<!-- Node8 -->
<g id="node9" class="node">
<title>Node8</title>
<polygon fill="#ffffff" stroke="#bfbfbf" points="190.588,-.5 190.588,-18.5 241.6124,-18.5 241.6124,-.5 190.588,-.5"/>
<text text-anchor="middle" x="216.1002" y="-6.5" font-family="Helvetica,sans-Serif" font-size="10.00" fill="#000000">typeinfo</text>
</g>
<!-- Node4&#45;&gt;Node8 -->
<g id="edge8" class="edge">
<title>Node4&#45;&gt;Node8</title>
<path fill="none" stroke="#191970" d="M216.1002,-55.4179C216.1002,-48.2164 216.1002,-37.8962 216.1002,-28.8632"/>
<polygon fill="#191970" stroke="#191970" points="219.6003,-28.7794 216.1002,-18.7795 212.6003,-28.7795 219.6003,-28.7794"/>
</g>
<!-- Node9 -->
<g id="node10" class="node">
<title>Node9</title>
<polygon fill="#ffffff" stroke="#bfbfbf" points="260.0338,-.5 260.0338,-18.5 322.1666,-18.5 322.1666,-.5 260.0338,-.5"/>
<text text-anchor="middle" x="291.1002" y="-6.5" font-family="Helvetica,sans-Serif" font-size="10.00" fill="#000000">type_traits</text>
</g>
<!-- Node4&#45;&gt;Node9 -->
<g id="edge9" class="edge">
<title>Node4&#45;&gt;Node9</title>
<path fill="none" stroke="#191970" d="M228.4849,-55.4179C239.8842,-47.0584 257.0139,-34.4966 270.4767,-24.6239"/>
<polygon fill="#191970" stroke="#191970" points="272.7028,-27.3317 278.697,-18.5956 268.5632,-21.6869 272.7028,-27.3317"/>
</g>
<!-- Node12&#45;&gt;Node10 -->
<g id="edge16" class="edge">
<title>Node12&#45;&gt;Node10</title>
<path fill="none" stroke="#191970" d="M378.7339,-165.4179C365.2588,-156.8992 344.8809,-144.0166 329.1357,-134.0627"/>
<polygon fill="#191970" stroke="#191970" points="330.8106,-130.9808 320.4878,-128.5956 327.0701,-136.8977 330.8106,-130.9808"/>
</g>
<!-- Node12&#45;&gt;Node13 -->
<g id="edge14" class="edge">
<title>Node12&#45;&gt;Node13</title>
<path fill="none" stroke="#191970" d="M389.137,-165.4179C385.891,-157.9789 381.1928,-147.2123 377.1616,-137.9742"/>
<polygon fill="#191970" stroke="#191970" points="380.3568,-136.545 373.1494,-128.7795 373.941,-139.3447 380.3568,-136.545"/>
</g>
<!-- Node12&#45;&gt;Node14 -->
<g id="edge15" class="edge">
<title>Node12&#45;&gt;Node14</title>
<path fill="none" stroke="#191970" d="M410.769,-165.4179C427.8065,-156.6603 453.8164,-143.2907 473.3841,-133.2326"/>
<polygon fill="#191970" stroke="#191970" points="475.1113,-136.2801 482.405,-128.5956 471.9111,-130.0544 475.1113,-136.2801"/>
</g>
<!-- Node15 -->
<g id="node16" class="node">
<title>Node15</title>
<polygon fill="#ffffff" stroke="#bfbfbf" points="411.4844,-110.5 411.4844,-128.5 454.7159,-128.5 454.7159,-110.5 411.4844,-110.5"/>
<text text-anchor="middle" x="433.1002" y="-116.5" font-family="Helvetica,sans-Serif" font-size="10.00" fill="#000000">vector</text>
</g>
<!-- Node12&#45;&gt;Node15 -->
<g id="edge17" class="edge">
<title>Node12&#45;&gt;Node15</title>
<path fill="none" stroke="#191970" d="M399.7053,-165.4179C405.2881,-157.7415 413.448,-146.5217 420.3042,-137.0945"/>
<polygon fill="#191970" stroke="#191970" points="423.3003,-138.9255 426.3515,-128.7795 417.6391,-134.8082 423.3003,-138.9255"/>
</g>
<!-- Node16&#45;&gt;Node11 -->
<g id="edge19" class="edge">
<title>Node16&#45;&gt;Node11</title>
<path fill="none" stroke="#191970" d="M86.1278,-165.4179C83.7451,-158.1372 80.3191,-147.669 77.3399,-138.5659"/>
<polygon fill="#191970" stroke="#191970" points="80.5739,-137.1948 74.1371,-128.7795 73.9211,-139.3721 80.5739,-137.1948"/>
</g>
</g>
</svg>
        <g id="navigator" transform="translate(0 0)" fill="#404254">
                <rect fill="#f2f5e9" fill-opacity="0.5" stroke="#606060" stroke-width=".5" x="0" y="0" width="60" height="60"/>
                <use id="zoomplus" xlink:href="#zoomPlus" x="17" y="9" onmousedown="handleZoom(evt,'in')"/>
                <use id="zoomminus" xlink:href="#zoomMin" x="42" y="9" onmousedown="handleZoom(evt,'out')"/>
                <use id="reset" xlink:href="#resetDef" x="30" y="36" onmousedown="handleReset()"/>
                <g id="arrowUp" xlink:href="#dirArrow" transform="translate(30 24)" onmousedown="handlePan(0,-1)">
                  <use xlink:href="#rim" fill="#404040">
                        <set attributeName="fill" to="#808080" begin="arrowUp.mouseover" end="arrowUp.mouseout"/>
                  </use>
                  <path fill="none" stroke="white" stroke-width="1.5" d="M0,-3.0v7 M-2.5,-0.5L0,-3.0L2.5,-0.5"/>
                </g>
                <g id="arrowRight" xlink:href="#dirArrow" transform="rotate(90) translate(36 -43)" onmousedown="handlePan(1,0)">
                  <use xlink:href="#rim" fill="#404040">
                        <set attributeName="fill" to="#808080" begin="arrowRight.mouseover" end="arrowRight.mouseout"/>
                  </use>
                  <path fill="none" stroke="white" stroke-width="1.5" d="M0,-3.0v7 M-2.5,-0.5L0,-3.0L2.5,-0.5"/>
                </g>
                <g id="arrowDown" xlink:href="#dirArrow" transform="rotate(180) translate(-30 -48)" onmousedown="handlePan(0,1)">
                  <use xlink:href="#rim" fill="#404040">
                        <set attributeName="fill" to="#808080" begin="arrowDown.mouseover" end="arrowDown.mouseout"/>
                  </use>
                  <path fill="none" stroke="white" stroke-width="1.5" d="M0,-3.0v7 M-2.5,-0.5L0,-3.0L2.5,-0.5"/>
                </g>
                <g id="arrowLeft" xlink:href="#dirArrow" transform="rotate(270) translate(-36 17)" onmousedown="handlePan(-1,0)">
                  <use xlink:href="#rim" fill="#404040">
                        <set attributeName="fill" to="#808080" begin="arrowLeft.mouseover" end="arrowLeft.mouseout"/>
                  </use>
                  <path fill="none" stroke="white" stroke-width="1.5" d="M0,-3.0v7 M-2.5,-0.5L0,-3.0L2.5,-0.5"/>
                </g>
        </g>
        <svg viewBox="0 0 15 15" width="100%" height="30px" preserveAspectRatio="xMaxYMin meet">
         <g id="arrow_out" transform="scale(0.3 0.3)">
          <a xlink:href="SimulatedStateModel_8cpp__incl_org.svg" target="_base">
           <rect id="button" ry="5" rx="5" y="6" x="6" height="38" width="38"
                fill="#f2f5e9" fill-opacity="0.5" stroke="#606060" stroke-width="1.0"/>
           <path id="arrow"
             d="M 11.500037,31.436501 C 11.940474,20.09759 22.043105,11.32322 32.158766,21.979434 L 37.068811,17.246167 C 37.068811,17.246167 37.088388,32 37.088388,32 L 22.160133,31.978069 C 22.160133,31.978069 26.997745,27.140456 26.997745,27.140456 C 18.528582,18.264221 13.291696,25.230495 11.500037,31.436501 z"
             style="fill:#404040;"/>
          </a>
         </g>
        </svg>
</svg>
