<?xml version="1.0" encoding="UTF-8" standalone="no"?>
<!DOCTYPE svg PUBLIC "-//W3C//DTD SVG 1.1//EN"
 "http://www.w3.org/Graphics/SVG/1.1/DTD/svg11.dtd">
<!-- Generated by graphviz version 2.40.1 (20161225.0304)
 -->
<!-- Title: /Users/Claudio/GitHub/bayes&#45;filters&#45;lib/src/BayesFilters/include/BayesFilters/SimulatedStateModel.h Pages: 1 -->
<svg width="545pt" height="277pt"
 viewBox="0.00 0.00 545.28 277.00" xmlns="http://www.w3.org/2000/svg" xmlns:xlink="http://www.w3.org/1999/xlink">
<g id="graph0" class="graph" transform="scale(1 1) rotate(0) translate(4 273)">
<title>/Users/Claudio/GitHub/bayes&#45;filters&#45;lib/src/BayesFilters/include/BayesFilters/SimulatedStateModel.h</title>
<polygon fill="#ffffff" stroke="transparent" points="-4,4 -4,-273 541.2764,-273 541.2764,4 -4,4"/>
<!-- Node0 -->
<g id="node1" class="node">
<title>Node0</title>
<polygon fill="#bfbfbf" stroke="#000000" points="142.6338,-220.5 142.6338,-268.5 308.6875,-268.5 308.6875,-220.5 142.6338,-220.5"/>
<text text-anchor="start" x="150.6338" y="-256.5" font-family="Helvetica,sans-Serif" font-size="10.00" fill="#000000">/Users/Claudio/GitHub</text>
<text text-anchor="start" x="150.6338" y="-246.5" font-family="Helvetica,sans-Serif" font-size="10.00" fill="#000000">/bayes&#45;filters&#45;lib/src</text>
<text text-anchor="start" x="150.6338" y="-236.5" font-family="Helvetica,sans-Serif" font-size="10.00" fill="#000000">/BayesFilters/include/BayesFilters</text>
<text text-anchor="middle" x="225.6606" y="-226.5" font-family="Helvetica,sans-Serif" font-size="10.00" fill="#000000">/SimulatedStateModel.h</text>
</g>
<!-- Node1 -->
<g id="node2" class="node">
<title>Node1</title>
<g id="a_node2"><a xlink:href="Agent_8h.html" target="_top" xlink:title="BayesFilters/Agent.h">
<polygon fill="#ffffff" stroke="#000000" points="171.5278,-165.5 171.5278,-183.5 279.7935,-183.5 279.7935,-165.5 171.5278,-165.5"/>
<text text-anchor="middle" x="225.6606" y="-171.5" font-family="Helvetica,sans-Serif" font-size="10.00" fill="#000000">BayesFilters/Agent.h</text>
</a>
</g>
</g>
<!-- Node0&#45;&gt;Node1 -->
<g id="edge1" class="edge">
<title>Node0&#45;&gt;Node1</title>
<path fill="none" stroke="#191970" d="M225.6606,-220.41C225.6606,-211.7094 225.6606,-202.0095 225.6606,-193.7754"/>
<polygon fill="#191970" stroke="#191970" points="229.1607,-193.6872 225.6606,-183.6872 222.1607,-193.6873 229.1607,-193.6872"/>
</g>
<!-- Node5 -->
<g id="node6" class="node">
<title>Node5</title>
<polygon fill="#ffffff" stroke="#bfbfbf" points="54.604,-.5 54.604,-18.5 106.7173,-18.5 106.7173,-.5 54.604,-.5"/>
<text text-anchor="middle" x="80.6606" y="-6.5" font-family="Helvetica,sans-Serif" font-size="10.00" fill="#000000">memory</text>
</g>
<!-- Node0&#45;&gt;Node5 -->
<g id="edge19" class="edge">
<title>Node0&#45;&gt;Node5</title>
<path fill="none" stroke="#191970" d="M142.3778,-231.3878C89.7364,-221.2063 28.7082,-205.2404 12.6606,-184 -25.4644,-133.538 33.6063,-59.0155 64.1799,-26.1297"/>
<polygon fill="#191970" stroke="#191970" points="66.8919,-28.3574 71.2623,-18.706 61.8271,-23.5254 66.8919,-28.3574"/>
</g>
<!-- Node11 -->
<g id="node12" class="node">
<title>Node11</title>
<g id="a_node12"><a xlink:href="Logger_8h.html" target="_top" xlink:title="BayesFilters/Logger.h">
<polygon fill="#ffffff" stroke="#000000" points="335.2988,-165.5 335.2988,-183.5 448.0225,-183.5 448.0225,-165.5 335.2988,-165.5"/>
<text text-anchor="middle" x="391.6606" y="-171.5" font-family="Helvetica,sans-Serif" font-size="10.00" fill="#000000">BayesFilters/Logger.h</text>
</a>
</g>
</g>
<!-- Node0&#45;&gt;Node11 -->
<g id="edge12" class="edge">
<title>Node0&#45;&gt;Node11</title>
<path fill="none" stroke="#191970" d="M282.7884,-220.41C308.9764,-209.3669 338.9824,-196.7137 360.8526,-187.4913"/>
<polygon fill="#191970" stroke="#191970" points="362.4313,-190.6241 370.2856,-183.5136 359.7114,-184.1742 362.4313,-190.6241"/>
</g>
<!-- Node12 -->
<g id="node13" class="node">
<title>Node12</title>
<polygon fill="#ffffff" stroke="#bfbfbf" points="353.9907,-110.5 353.9907,-128.5 403.3306,-128.5 403.3306,-110.5 353.9907,-110.5"/>
<text text-anchor="middle" x="378.6606" y="-116.5" font-family="Helvetica,sans-Serif" font-size="10.00" fill="#000000">fstream</text>
</g>
<!-- Node0&#45;&gt;Node12 -->
<g id="edge20" class="edge">
<title>Node0&#45;&gt;Node12</title>
<path fill="none" stroke="#191970" d="M255.1606,-220.3987C285.8992,-195.2855 333.167,-156.668 359.4152,-135.2234"/>
<polygon fill="#191970" stroke="#191970" points="361.927,-137.6909 367.4567,-128.6536 357.4982,-132.27 361.927,-137.6909"/>
</g>
<!-- Node15 -->
<g id="node16" class="node">
<title>Node15</title>
<g id="a_node16"><a xlink:href="StateModel_8h.html" target="_top" xlink:title="BayesFilters/StateModel.h">
<polygon fill="#ffffff" stroke="#000000" points="21.3013,-165.5 21.3013,-183.5 154.02,-183.5 154.02,-165.5 21.3013,-165.5"/>
<text text-anchor="middle" x="87.6606" y="-171.5" font-family="Helvetica,sans-Serif" font-size="10.00" fill="#000000">BayesFilters/StateModel.h</text>
</a>
</g>
</g>
<!-- Node0&#45;&gt;Node15 -->
<g id="edge17" class="edge">
<title>Node0&#45;&gt;Node15</title>
<path fill="none" stroke="#191970" d="M178.1689,-220.41C156.9865,-209.6653 132.7994,-197.3965 114.7609,-188.2465"/>
<polygon fill="#191970" stroke="#191970" points="115.9318,-184.916 105.4302,-183.5136 112.7652,-191.1588 115.9318,-184.916"/>
</g>
<!-- Node2 -->
<g id="node3" class="node">
<title>Node2</title>
<g id="a_node3"><a xlink:href="Data_8h.html" target="_top" xlink:title="BayesFilters/Data.h">
<polygon fill="#ffffff" stroke="#000000" points="174.0327,-110.5 174.0327,-128.5 277.2886,-128.5 277.2886,-110.5 174.0327,-110.5"/>
<text text-anchor="middle" x="225.6606" y="-116.5" font-family="Helvetica,sans-Serif" font-size="10.00" fill="#000000">BayesFilters/Data.h</text>
</a>
</g>
</g>
<!-- Node1&#45;&gt;Node2 -->
<g id="edge2" class="edge">
<title>Node1&#45;&gt;Node2</title>
<path fill="none" stroke="#191970" d="M225.6606,-165.4179C225.6606,-158.2164 225.6606,-147.8962 225.6606,-138.8632"/>
<polygon fill="#191970" stroke="#191970" points="229.1607,-138.7794 225.6606,-128.7795 222.1607,-138.7795 229.1607,-138.7794"/>
</g>
<!-- Node1&#45;&gt;Node5 -->
<g id="edge9" class="edge">
<title>Node1&#45;&gt;Node5</title>
<path fill="none" stroke="#191970" d="M210.8256,-165.369C197.788,-156.9151 178.7514,-143.4935 164.6606,-129 133.432,-96.8786 105.3023,-52.1828 90.8658,-27.5638"/>
<polygon fill="#191970" stroke="#191970" points="93.7339,-25.531 85.7063,-18.6167 87.6699,-29.028 93.7339,-25.531"/>
</g>
<!-- Node9 -->
<g id="node10" class="node">
<title>Node9</title>
<polygon fill="#ffffff" stroke="#bfbfbf" points="295.4341,-110.5 295.4341,-128.5 335.8872,-128.5 335.8872,-110.5 295.4341,-110.5"/>
<text text-anchor="middle" x="315.6606" y="-116.5" font-family="Helvetica,sans-Serif" font-size="10.00" fill="#000000">string</text>
</g>
<!-- Node1&#45;&gt;Node9 -->
<g id="edge10" class="edge">
<title>Node1&#45;&gt;Node9</title>
<path fill="none" stroke="#191970" d="M240.5223,-165.4179C254.462,-156.8992 275.5426,-144.0166 291.8307,-134.0627"/>
<polygon fill="#191970" stroke="#191970" points="294.0692,-136.7967 300.7769,-128.5956 290.419,-130.8237 294.0692,-136.7967"/>
</g>
<!-- Node10 -->
<g id="node11" class="node">
<title>Node10</title>
<polygon fill="#ffffff" stroke="#bfbfbf" points="44.0303,-110.5 44.0303,-128.5 117.291,-128.5 117.291,-110.5 44.0303,-110.5"/>
<text text-anchor="middle" x="80.6606" y="-116.5" font-family="Helvetica,sans-Serif" font-size="10.00" fill="#000000">Eigen/Dense</text>
</g>
<!-- Node1&#45;&gt;Node10 -->
<g id="edge11" class="edge">
<title>Node1&#45;&gt;Node10</title>
<path fill="none" stroke="#191970" d="M201.7168,-165.4179C177.7892,-156.3419 140.8022,-142.3123 114.0075,-132.1488"/>
<polygon fill="#191970" stroke="#191970" points="115.2313,-128.8697 104.64,-128.5956 112.7487,-135.4147 115.2313,-128.8697"/>
</g>
<!-- Node3 -->
<g id="node4" class="node">
<title>Node3</title>
<g id="a_node4"><a xlink:href="any_8h.html" target="_top" xlink:title="BayesFilters/any.h">
<polygon fill="#ffffff" stroke="#000000" points="176.9014,-55.5 176.9014,-73.5 274.4199,-73.5 274.4199,-55.5 176.9014,-55.5"/>
<text text-anchor="middle" x="225.6606" y="-61.5" font-family="Helvetica,sans-Serif" font-size="10.00" fill="#000000">BayesFilters/any.h</text>
</a>
</g>
</g>
<!-- Node2&#45;&gt;Node3 -->
<g id="edge3" class="edge">
<title>Node2&#45;&gt;Node3</title>
<path fill="none" stroke="#191970" d="M225.6606,-110.4179C225.6606,-103.2164 225.6606,-92.8962 225.6606,-83.8632"/>
<polygon fill="#191970" stroke="#191970" points="229.1607,-83.7794 225.6606,-73.7795 222.1607,-83.7795 229.1607,-83.7794"/>
</g>
<!-- Node4 -->
<g id="node5" class="node">
<title>Node4</title>
<polygon fill="#ffffff" stroke="#bfbfbf" points="275.0967,-.5 275.0967,-18.5 332.2246,-18.5 332.2246,-.5 275.0967,-.5"/>
<text text-anchor="middle" x="303.6606" y="-6.5" font-family="Helvetica,sans-Serif" font-size="10.00" fill="#000000">algorithm</text>
</g>
<!-- Node3&#45;&gt;Node4 -->
<g id="edge4" class="edge">
<title>Node3&#45;&gt;Node4</title>
<path fill="none" stroke="#191970" d="M238.5408,-55.4179C250.396,-47.0584 268.2109,-34.4966 282.2122,-24.6239"/>
<polygon fill="#191970" stroke="#191970" points="284.6058,-27.2188 290.7614,-18.5956 280.5718,-21.498 284.6058,-27.2188"/>
</g>
<!-- Node3&#45;&gt;Node5 -->
<g id="edge5" class="edge">
<title>Node3&#45;&gt;Node5</title>
<path fill="none" stroke="#191970" d="M201.7168,-55.4179C177.7892,-46.3419 140.8022,-32.3123 114.0075,-22.1488"/>
<polygon fill="#191970" stroke="#191970" points="115.2313,-18.8697 104.64,-18.5956 112.7487,-25.4147 115.2313,-18.8697"/>
</g>
<!-- Node6 -->
<g id="node7" class="node">
<title>Node6</title>
<polygon fill="#ffffff" stroke="#bfbfbf" points="350.2593,-.5 350.2593,-18.5 409.062,-18.5 409.062,-.5 350.2593,-.5"/>
<text text-anchor="middle" x="379.6606" y="-6.5" font-family="Helvetica,sans-Serif" font-size="10.00" fill="#000000">stdexcept</text>
</g>
<!-- Node3&#45;&gt;Node6 -->
<g id="edge6" class="edge">
<title>Node3&#45;&gt;Node6</title>
<path fill="none" stroke="#191970" d="M251.0906,-55.4179C276.6913,-46.2748 316.3678,-32.1046 344.8733,-21.924"/>
<polygon fill="#191970" stroke="#191970" points="346.2086,-25.1637 354.4489,-18.5042 343.8542,-18.5715 346.2086,-25.1637"/>
</g>
<!-- Node7 -->
<g id="node8" class="node">
<title>Node7</title>
<polygon fill="#ffffff" stroke="#bfbfbf" points="125.1484,-.5 125.1484,-18.5 176.1728,-18.5 176.1728,-.5 125.1484,-.5"/>
<text text-anchor="middle" x="150.6606" y="-6.5" font-family="Helvetica,sans-Serif" font-size="10.00" fill="#000000">typeinfo</text>
</g>
<!-- Node3&#45;&gt;Node7 -->
<g id="edge7" class="edge">
<title>Node3&#45;&gt;Node7</title>
<path fill="none" stroke="#191970" d="M213.2759,-55.4179C201.8766,-47.0584 184.7469,-34.4966 171.2841,-24.6239"/>
<polygon fill="#191970" stroke="#191970" points="173.1976,-21.6869 163.0638,-18.5956 169.058,-27.3317 173.1976,-21.6869"/>
</g>
<!-- Node8 -->
<g id="node9" class="node">
<title>Node8</title>
<polygon fill="#ffffff" stroke="#bfbfbf" points="194.5942,-.5 194.5942,-18.5 256.727,-18.5 256.727,-.5 194.5942,-.5"/>
<text text-anchor="middle" x="225.6606" y="-6.5" font-family="Helvetica,sans-Serif" font-size="10.00" fill="#000000">type_traits</text>
</g>
<!-- Node3&#45;&gt;Node8 -->
<g id="edge8" class="edge">
<title>Node3&#45;&gt;Node8</title>
<path fill="none" stroke="#191970" d="M225.6606,-55.4179C225.6606,-48.2164 225.6606,-37.8962 225.6606,-28.8632"/>
<polygon fill="#191970" stroke="#191970" points="229.1607,-28.7794 225.6606,-18.7795 222.1607,-28.7795 229.1607,-28.7794"/>
</g>
<!-- Node11&#45;&gt;Node9 -->
<g id="edge15" class="edge">
<title>Node11&#45;&gt;Node9</title>
<path fill="none" stroke="#191970" d="M379.1108,-165.4179C367.5595,-157.0584 350.2014,-144.4966 336.5591,-134.6239"/>
<polygon fill="#191970" stroke="#191970" points="338.3823,-131.6229 328.2291,-128.5956 334.2784,-137.2938 338.3823,-131.6229"/>
</g>
<!-- Node11&#45;&gt;Node12 -->
<g id="edge13" class="edge">
<title>Node11&#45;&gt;Node12</title>
<path fill="none" stroke="#191970" d="M389.514,-165.4179C387.7931,-158.1372 385.3188,-147.669 383.1671,-138.5659"/>
<polygon fill="#191970" stroke="#191970" points="386.5604,-137.7062 380.854,-128.7795 379.7482,-139.3164 386.5604,-137.7062"/>
</g>
<!-- Node13 -->
<g id="node14" class="node">
<title>Node13</title>
<polygon fill="#ffffff" stroke="#bfbfbf" points="421.4883,-110.5 421.4883,-128.5 475.833,-128.5 475.833,-110.5 421.4883,-110.5"/>
<text text-anchor="middle" x="448.6606" y="-116.5" font-family="Helvetica,sans-Serif" font-size="10.00" fill="#000000">iostream</text>
</g>
<!-- Node11&#45;&gt;Node13 -->
<g id="edge14" class="edge">
<title>Node11&#45;&gt;Node13</title>
<path fill="none" stroke="#191970" d="M401.073,-165.4179C409.3566,-157.425 421.6216,-145.5903 431.6252,-135.9377"/>
<polygon fill="#191970" stroke="#191970" points="434.2778,-138.2419 439.0437,-128.7795 429.4172,-133.2045 434.2778,-138.2419"/>
</g>
<!-- Node14 -->
<g id="node15" class="node">
<title>Node14</title>
<polygon fill="#ffffff" stroke="#bfbfbf" points="494.0449,-110.5 494.0449,-128.5 537.2764,-128.5 537.2764,-110.5 494.0449,-110.5"/>
<text text-anchor="middle" x="515.6606" y="-116.5" font-family="Helvetica,sans-Serif" font-size="10.00" fill="#000000">vector</text>
</g>
<!-- Node11&#45;&gt;Node14 -->
<g id="edge16" class="edge">
<title>Node11&#45;&gt;Node14</title>
<path fill="none" stroke="#191970" d="M412.1367,-165.4179C432.24,-156.5011 463.1229,-142.803 485.9294,-132.6873"/>
<polygon fill="#191970" stroke="#191970" points="487.4321,-135.8496 495.1541,-128.5956 484.5939,-129.4508 487.4321,-135.8496"/>
</g>
<!-- Node15&#45;&gt;Node10 -->
<g id="edge18" class="edge">
<title>Node15&#45;&gt;Node10</title>
<path fill="none" stroke="#191970" d="M86.5047,-165.4179C85.5882,-158.2164 84.2747,-147.8962 83.125,-138.8632"/>
<polygon fill="#191970" stroke="#191970" points="86.5763,-138.2575 81.8417,-128.7795 79.6323,-139.1414 86.5763,-138.2575"/>
</g>
</g>
</svg>
