<?xml version="1.0" encoding="UTF-8" standalone="no"?>
<!DOCTYPE svg PUBLIC "-//W3C//DTD SVG 1.1//EN"
 "http://www.w3.org/Graphics/SVG/1.1/DTD/svg11.dtd">
<!-- Generated by graphviz version 2.40.1 (20161225.0304)
 -->
<!-- Title: /Users/Claudio/GitHub/bayes&#45;filters&#45;lib/src/BayesFilters/src/SimulatedLinearSensor.cpp Pages: 1 -->
<svg width="834pt" height="537pt"
 viewBox="0.00 0.00 833.51 537.00" xmlns="http://www.w3.org/2000/svg" xmlns:xlink="http://www.w3.org/1999/xlink">
<g id="graph0" class="graph" transform="scale(1 1) rotate(0) translate(4 533)">
<title>/Users/Claudio/GitHub/bayes&#45;filters&#45;lib/src/BayesFilters/src/SimulatedLinearSensor.cpp</title>
<polygon fill="#ffffff" stroke="transparent" points="-4,4 -4,-533 829.5122,-533 829.5122,4 -4,4"/>
<!-- Node0 -->
<g id="node1" class="node">
<title>Node0</title>
<polygon fill="#bfbfbf" stroke="#000000" points="566.0396,-480.5 566.0396,-528.5 730.9849,-528.5 730.9849,-480.5 566.0396,-480.5"/>
<text text-anchor="start" x="574.0396" y="-516.5" font-family="Helvetica,sans-Serif" font-size="10.00" fill="#000000">/Users/Claudio/GitHub</text>
<text text-anchor="start" x="574.0396" y="-506.5" font-family="Helvetica,sans-Serif" font-size="10.00" fill="#000000">/bayes&#45;filters&#45;lib/src</text>
<text text-anchor="start" x="574.0396" y="-496.5" font-family="Helvetica,sans-Serif" font-size="10.00" fill="#000000">/BayesFilters/src/SimulatedLinear</text>
<text text-anchor="middle" x="648.5122" y="-486.5" font-family="Helvetica,sans-Serif" font-size="10.00" fill="#000000">Sensor.cpp</text>
</g>
<!-- Node1 -->
<g id="node2" class="node">
<title>Node1</title>
<g id="a_node2"><a xlink:href="SimulatedLinearSensor_8h.html" target="_top" xlink:title="BayesFilters/SimulatedLinear\lSensor.h">
<polygon fill="#ffffff" stroke="#000000" points="575.4829,-415.5 575.4829,-443.5 721.5415,-443.5 721.5415,-415.5 575.4829,-415.5"/>
<text text-anchor="start" x="583.4829" y="-431.5" font-family="Helvetica,sans-Serif" font-size="10.00" fill="#000000">BayesFilters/SimulatedLinear</text>
<text text-anchor="middle" x="648.5122" y="-421.5" font-family="Helvetica,sans-Serif" font-size="10.00" fill="#000000">Sensor.h</text>
</a>
</g>
</g>
<!-- Node0&#45;&gt;Node1 -->
<g id="edge1" class="edge">
<title>Node0&#45;&gt;Node1</title>
<path fill="none" stroke="#191970" d="M648.5122,-480.3567C648.5122,-471.8057 648.5122,-462.1888 648.5122,-453.6382"/>
<polygon fill="#191970" stroke="#191970" points="652.0123,-453.5381 648.5122,-443.5382 645.0123,-453.5382 652.0123,-453.5381"/>
</g>
<!-- Node2 -->
<g id="node3" class="node">
<title>Node2</title>
<g id="a_node3"><a xlink:href="LinearModel_8h.html" target="_top" xlink:title="BayesFilters/LinearModel.h">
<polygon fill="#ffffff" stroke="#000000" points="336.9287,-360.5 336.9287,-378.5 474.0957,-378.5 474.0957,-360.5 336.9287,-360.5"/>
<text text-anchor="middle" x="405.5122" y="-366.5" font-family="Helvetica,sans-Serif" font-size="10.00" fill="#000000">BayesFilters/LinearModel.h</text>
</a>
</g>
</g>
<!-- Node1&#45;&gt;Node2 -->
<g id="edge2" class="edge">
<title>Node1&#45;&gt;Node2</title>
<path fill="none" stroke="#191970" d="M591.5395,-415.4327C549.0831,-404.9496 491.8179,-390.8101 452.0869,-380.9999"/>
<polygon fill="#191970" stroke="#191970" points="452.6787,-377.541 442.1312,-378.5417 451.0006,-384.3369 452.6787,-377.541"/>
</g>
<!-- Node9 -->
<g id="node10" class="node">
<title>Node9</title>
<polygon fill="#ffffff" stroke="#bfbfbf" points="517.4556,-.5 517.4556,-18.5 569.5688,-18.5 569.5688,-.5 517.4556,-.5"/>
<text text-anchor="middle" x="543.5122" y="-6.5" font-family="Helvetica,sans-Serif" font-size="10.00" fill="#000000">memory</text>
</g>
<!-- Node1&#45;&gt;Node9 -->
<g id="edge38" class="edge">
<title>Node1&#45;&gt;Node9</title>
<path fill="none" stroke="#191970" d="M708.4363,-415.3853C759.7854,-399.3074 825.5122,-367.4159 825.5122,-309.5 825.5122,-309.5 825.5122,-309.5 825.5122,-119.5 825.5122,-85.2915 811.9283,-74.046 783.5122,-55 750.6951,-33.0042 638.524,-18.9247 579.8868,-12.8894"/>
<polygon fill="#191970" stroke="#191970" points="580.2324,-9.4066 569.9326,-11.8893 579.5326,-16.3715 580.2324,-9.4066"/>
</g>
<!-- Node22 -->
<g id="node23" class="node">
<title>Node22</title>
<g id="a_node23"><a xlink:href="SimulatedStateModel_8h.html" target="_top" xlink:title="BayesFilters/SimulatedState\lModel.h">
<polygon fill="#ffffff" stroke="#000000" points="577.707,-230.5 577.707,-258.5 719.3174,-258.5 719.3174,-230.5 577.707,-230.5"/>
<text text-anchor="start" x="585.707" y="-246.5" font-family="Helvetica,sans-Serif" font-size="10.00" fill="#000000">BayesFilters/SimulatedState</text>
<text text-anchor="middle" x="648.5122" y="-236.5" font-family="Helvetica,sans-Serif" font-size="10.00" fill="#000000">Model.h</text>
</a>
</g>
</g>
<!-- Node1&#45;&gt;Node22 -->
<g id="edge27" class="edge">
<title>Node1&#45;&gt;Node22</title>
<path fill="none" stroke="#191970" d="M648.5122,-415.2905C648.5122,-383.8039 648.5122,-307.8613 648.5122,-268.7213"/>
<polygon fill="#191970" stroke="#191970" points="652.0123,-268.5046 648.5122,-258.5046 645.0123,-268.5047 652.0123,-268.5046"/>
</g>
<!-- Node3 -->
<g id="node4" class="node">
<title>Node3</title>
<g id="a_node4"><a xlink:href="LinearMeasurementModel_8h.html" target="_top" xlink:title="BayesFilters/LinearMeasurement\lModel.h">
<polygon fill="#ffffff" stroke="#000000" points="262.1479,-295.5 262.1479,-323.5 424.8765,-323.5 424.8765,-295.5 262.1479,-295.5"/>
<text text-anchor="start" x="270.1479" y="-311.5" font-family="Helvetica,sans-Serif" font-size="10.00" fill="#000000">BayesFilters/LinearMeasurement</text>
<text text-anchor="middle" x="343.5122" y="-301.5" font-family="Helvetica,sans-Serif" font-size="10.00" fill="#000000">Model.h</text>
</a>
</g>
</g>
<!-- Node2&#45;&gt;Node3 -->
<g id="edge3" class="edge">
<title>Node2&#45;&gt;Node3</title>
<path fill="none" stroke="#191970" d="M396.0957,-360.3873C388.027,-352.5788 376.0854,-341.0225 365.6206,-330.8952"/>
<polygon fill="#191970" stroke="#191970" points="367.9582,-328.2868 358.3381,-323.8477 363.0902,-333.317 367.9582,-328.2868"/>
</g>
<!-- Node14 -->
<g id="node15" class="node">
<title>Node14</title>
<polygon fill="#ffffff" stroke="#bfbfbf" points="704.8423,-55.5 704.8423,-73.5 754.1821,-73.5 754.1821,-55.5 704.8423,-55.5"/>
<text text-anchor="middle" x="729.5122" y="-61.5" font-family="Helvetica,sans-Serif" font-size="10.00" fill="#000000">fstream</text>
</g>
<!-- Node2&#45;&gt;Node14 -->
<g id="edge23" class="edge">
<title>Node2&#45;&gt;Node14</title>
<path fill="none" stroke="#191970" d="M451.9763,-360.4367C533.2207,-343.5448 695.61,-304.7811 728.5122,-259 766.8961,-205.5915 747.4513,-120.8632 735.9547,-83.3898"/>
<polygon fill="#191970" stroke="#191970" points="739.2462,-82.1926 732.8457,-73.7495 732.584,-84.3411 739.2462,-82.1926"/>
</g>
<!-- Node16 -->
<g id="node17" class="node">
<title>Node16</title>
<polygon fill="#ffffff" stroke="#bfbfbf" points="360.2856,-55.5 360.2856,-73.5 400.7388,-73.5 400.7388,-55.5 360.2856,-55.5"/>
<text text-anchor="middle" x="380.5122" y="-61.5" font-family="Helvetica,sans-Serif" font-size="10.00" fill="#000000">string</text>
</g>
<!-- Node2&#45;&gt;Node16 -->
<g id="edge26" class="edge">
<title>Node2&#45;&gt;Node16</title>
<path fill="none" stroke="#191970" d="M336.8554,-361.3835C279.3939,-353.5961 202.7143,-340.5826 176.5122,-324 139.332,-300.4696 117.5122,-288.5006 117.5122,-244.5 117.5122,-244.5 117.5122,-244.5 117.5122,-179.5 117.5122,-146.8212 116.7984,-131.3805 141.5122,-110 172.3468,-83.3243 292.5974,-71.0061 349.8651,-66.5613"/>
<polygon fill="#191970" stroke="#191970" points="350.3995,-70.0313 360.112,-65.7983 349.8797,-63.0506 350.3995,-70.0313"/>
</g>
<!-- Node20 -->
<g id="node21" class="node">
<title>Node20</title>
<polygon fill="#ffffff" stroke="#bfbfbf" points="185.1084,-300.5 185.1084,-318.5 243.916,-318.5 243.916,-300.5 185.1084,-300.5"/>
<text text-anchor="middle" x="214.5122" y="-306.5" font-family="Helvetica,sans-Serif" font-size="10.00" fill="#000000">functional</text>
</g>
<!-- Node2&#45;&gt;Node20 -->
<g id="edge24" class="edge">
<title>Node2&#45;&gt;Node20</title>
<path fill="none" stroke="#191970" d="M372.9997,-360.4314C342.0914,-351.654 294.3866,-337.7 253.5122,-324 251.6629,-323.3802 249.7699,-322.7298 247.8629,-322.0622"/>
<polygon fill="#191970" stroke="#191970" points="248.9444,-318.7317 238.3499,-318.6426 246.5764,-325.3191 248.9444,-318.7317"/>
</g>
<!-- Node21 -->
<g id="node22" class="node">
<title>Node21</title>
<polygon fill="#ffffff" stroke="#bfbfbf" points="442.5591,-300.5 442.5591,-318.5 492.4653,-318.5 492.4653,-300.5 442.5591,-300.5"/>
<text text-anchor="middle" x="467.5122" y="-306.5" font-family="Helvetica,sans-Serif" font-size="10.00" fill="#000000">random</text>
</g>
<!-- Node2&#45;&gt;Node21 -->
<g id="edge25" class="edge">
<title>Node2&#45;&gt;Node21</title>
<path fill="none" stroke="#191970" d="M414.9287,-360.3873C424.3969,-351.2245 439.1979,-336.9009 450.6878,-325.7817"/>
<polygon fill="#191970" stroke="#191970" points="453.2551,-328.1678 458.0071,-318.6985 448.3871,-323.1376 453.2551,-328.1678"/>
</g>
<!-- Node4 -->
<g id="node5" class="node">
<title>Node4</title>
<g id="a_node5"><a xlink:href="AdditiveMeasurementModel_8h.html" target="_top" xlink:title="BayesFilters/AdditiveMeasurement\lModel.h">
<polygon fill="#ffffff" stroke="#000000" points="145.2588,-230.5 145.2588,-258.5 315.7656,-258.5 315.7656,-230.5 145.2588,-230.5"/>
<text text-anchor="start" x="153.2588" y="-246.5" font-family="Helvetica,sans-Serif" font-size="10.00" fill="#000000">BayesFilters/AdditiveMeasurement</text>
<text text-anchor="middle" x="230.5122" y="-236.5" font-family="Helvetica,sans-Serif" font-size="10.00" fill="#000000">Model.h</text>
</a>
</g>
</g>
<!-- Node3&#45;&gt;Node4 -->
<g id="edge4" class="edge">
<title>Node3&#45;&gt;Node4</title>
<path fill="none" stroke="#191970" d="M318.9929,-295.396C302.8525,-286.1117 281.5202,-273.8409 263.8459,-263.6742"/>
<polygon fill="#191970" stroke="#191970" points="265.3971,-260.5288 254.9837,-258.5765 261.9067,-266.5966 265.3971,-260.5288"/>
</g>
<!-- Node19 -->
<g id="node20" class="node">
<title>Node19</title>
<polygon fill="#ffffff" stroke="#bfbfbf" points="282.8818,-110.5 282.8818,-128.5 356.1426,-128.5 356.1426,-110.5 282.8818,-110.5"/>
<text text-anchor="middle" x="319.5122" y="-116.5" font-family="Helvetica,sans-Serif" font-size="10.00" fill="#000000">Eigen/Dense</text>
</g>
<!-- Node3&#45;&gt;Node19 -->
<g id="edge22" class="edge">
<title>Node3&#45;&gt;Node19</title>
<path fill="none" stroke="#191970" d="M341.7083,-295.2191C337.4602,-261.5883 326.8207,-177.3592 321.9798,-139.0353"/>
<polygon fill="#191970" stroke="#191970" points="325.4028,-138.2048 320.6771,-128.7223 318.458,-139.0821 325.4028,-138.2048"/>
</g>
<!-- Node5 -->
<g id="node6" class="node">
<title>Node5</title>
<g id="a_node6"><a xlink:href="MeasurementModel_8h.html" target="_top" xlink:title="BayesFilters/Measurement\lModel.h">
<polygon fill="#ffffff" stroke="#000000" points="172.0469,-165.5 172.0469,-193.5 306.9775,-193.5 306.9775,-165.5 172.0469,-165.5"/>
<text text-anchor="start" x="180.0469" y="-181.5" font-family="Helvetica,sans-Serif" font-size="10.00" fill="#000000">BayesFilters/Measurement</text>
<text text-anchor="middle" x="239.5122" y="-171.5" font-family="Helvetica,sans-Serif" font-size="10.00" fill="#000000">Model.h</text>
</a>
</g>
</g>
<!-- Node4&#45;&gt;Node5 -->
<g id="edge5" class="edge">
<title>Node4&#45;&gt;Node5</title>
<path fill="none" stroke="#191970" d="M232.4651,-230.396C233.5501,-222.5597 234.9297,-212.5958 236.1801,-203.5653"/>
<polygon fill="#191970" stroke="#191970" points="239.6585,-203.9621 237.5632,-193.5765 232.7246,-203.0019 239.6585,-203.9621"/>
</g>
<!-- Node6 -->
<g id="node7" class="node">
<title>Node6</title>
<g id="a_node7"><a xlink:href="Data_8h.html" target="_top" xlink:title="BayesFilters/Data.h">
<polygon fill="#ffffff" stroke="#000000" points="373.8843,-110.5 373.8843,-128.5 477.1401,-128.5 477.1401,-110.5 373.8843,-110.5"/>
<text text-anchor="middle" x="425.5122" y="-116.5" font-family="Helvetica,sans-Serif" font-size="10.00" fill="#000000">BayesFilters/Data.h</text>
</a>
</g>
</g>
<!-- Node5&#45;&gt;Node6 -->
<g id="edge6" class="edge">
<title>Node5&#45;&gt;Node6</title>
<path fill="none" stroke="#191970" d="M283.1209,-165.4327C314.8595,-155.1944 357.4098,-141.4685 387.7101,-131.6942"/>
<polygon fill="#191970" stroke="#191970" points="389.0403,-134.9428 397.4829,-128.5417 386.8912,-128.2808 389.0403,-134.9428"/>
</g>
<!-- Node5&#45;&gt;Node9 -->
<g id="edge18" class="edge">
<title>Node5&#45;&gt;Node9</title>
<path fill="none" stroke="#191970" d="M239.5379,-165.3416C240.2486,-150.2432 243.4117,-126.3066 255.5122,-110 284.815,-70.5117 305.7831,-73.0782 351.5122,-55 403.8591,-34.3055 468.1084,-21.4317 507.4145,-14.8647"/>
<polygon fill="#191970" stroke="#191970" points="508.0187,-18.3126 517.328,-13.2543 506.8962,-11.4031 508.0187,-18.3126"/>
</g>
<!-- Node13 -->
<g id="node14" class="node">
<title>Node13</title>
<g id="a_node14"><a xlink:href="Logger_8h.html" target="_top" xlink:title="BayesFilters/Logger.h">
<polygon fill="#ffffff" stroke="#000000" points="571.1504,-110.5 571.1504,-128.5 683.874,-128.5 683.874,-110.5 571.1504,-110.5"/>
<text text-anchor="middle" x="627.5122" y="-116.5" font-family="Helvetica,sans-Serif" font-size="10.00" fill="#000000">BayesFilters/Logger.h</text>
</a>
</g>
</g>
<!-- Node5&#45;&gt;Node13 -->
<g id="edge13" class="edge">
<title>Node5&#45;&gt;Node13</title>
<path fill="none" stroke="#191970" d="M307.0966,-169.0488C378.3878,-158.0244 490.02,-140.7617 560.9302,-129.7962"/>
<polygon fill="#191970" stroke="#191970" points="561.7396,-133.2127 571.0872,-128.2255 560.6697,-126.2949 561.7396,-133.2127"/>
</g>
<!-- Node5&#45;&gt;Node16 -->
<g id="edge19" class="edge">
<title>Node5&#45;&gt;Node16</title>
<path fill="none" stroke="#191970" d="M243.1655,-165.4595C247.8407,-150.0118 257.3337,-125.3444 273.5122,-110 294.9462,-89.6711 326.841,-77.7155 350.2322,-71.2032"/>
<polygon fill="#191970" stroke="#191970" points="351.2015,-74.5676 359.9966,-68.6602 349.4372,-67.7936 351.2015,-74.5676"/>
</g>
<!-- Node18 -->
<g id="node19" class="node">
<title>Node18</title>
<polygon fill="#ffffff" stroke="#bfbfbf" points="150.1206,-110.5 150.1206,-128.5 188.9038,-128.5 188.9038,-110.5 150.1206,-110.5"/>
<text text-anchor="middle" x="169.5122" y="-116.5" font-family="Helvetica,sans-Serif" font-size="10.00" fill="#000000">utility</text>
</g>
<!-- Node5&#45;&gt;Node18 -->
<g id="edge20" class="edge">
<title>Node5&#45;&gt;Node18</title>
<path fill="none" stroke="#191970" d="M222.9232,-165.2808C212.3559,-156.2232 198.6584,-144.4825 187.7806,-135.1586"/>
<polygon fill="#191970" stroke="#191970" points="189.9808,-132.4347 180.1104,-128.5842 185.4252,-137.7495 189.9808,-132.4347"/>
</g>
<!-- Node5&#45;&gt;Node19 -->
<g id="edge21" class="edge">
<title>Node5&#45;&gt;Node19</title>
<path fill="none" stroke="#191970" d="M258.4711,-165.2808C270.7848,-156.0456 286.8175,-144.021 299.3616,-134.613"/>
<polygon fill="#191970" stroke="#191970" points="301.4999,-137.3842 307.4,-128.5842 297.2999,-131.7842 301.4999,-137.3842"/>
</g>
<!-- Node7 -->
<g id="node8" class="node">
<title>Node7</title>
<g id="a_node8"><a xlink:href="any_8h.html" target="_top" xlink:title="BayesFilters/any.h">
<polygon fill="#ffffff" stroke="#000000" points="90.7529,-55.5 90.7529,-73.5 188.2715,-73.5 188.2715,-55.5 90.7529,-55.5"/>
<text text-anchor="middle" x="139.5122" y="-61.5" font-family="Helvetica,sans-Serif" font-size="10.00" fill="#000000">BayesFilters/any.h</text>
</a>
</g>
</g>
<!-- Node6&#45;&gt;Node7 -->
<g id="edge7" class="edge">
<title>Node6&#45;&gt;Node7</title>
<path fill="none" stroke="#191970" d="M378.6054,-110.4795C328.7317,-100.8884 249.8336,-85.7156 196.4365,-75.447"/>
<polygon fill="#191970" stroke="#191970" points="196.9257,-71.977 186.4447,-73.5255 195.6037,-78.851 196.9257,-71.977"/>
</g>
<!-- Node8 -->
<g id="node9" class="node">
<title>Node8</title>
<polygon fill="#ffffff" stroke="#bfbfbf" points="149.9482,-.5 149.9482,-18.5 207.0762,-18.5 207.0762,-.5 149.9482,-.5"/>
<text text-anchor="middle" x="178.5122" y="-6.5" font-family="Helvetica,sans-Serif" font-size="10.00" fill="#000000">algorithm</text>
</g>
<!-- Node7&#45;&gt;Node8 -->
<g id="edge8" class="edge">
<title>Node7&#45;&gt;Node8</title>
<path fill="none" stroke="#191970" d="M145.9523,-55.4179C151.3955,-47.7415 159.3514,-36.5217 166.0361,-27.0945"/>
<polygon fill="#191970" stroke="#191970" points="169.003,-28.9613 171.9322,-18.7795 163.2928,-24.9123 169.003,-28.9613"/>
</g>
<!-- Node7&#45;&gt;Node9 -->
<g id="edge9" class="edge">
<title>Node7&#45;&gt;Node9</title>
<path fill="none" stroke="#191970" d="M188.3392,-57.0534C193.1267,-56.3484 197.9127,-55.6536 202.5122,-55 313.4702,-39.2327 444.9756,-22.1341 507.2921,-14.1271"/>
<polygon fill="#191970" stroke="#191970" points="507.9221,-17.5751 517.3953,-12.8308 507.0312,-10.632 507.9221,-17.5751"/>
</g>
<!-- Node10 -->
<g id="node11" class="node">
<title>Node10</title>
<polygon fill="#ffffff" stroke="#bfbfbf" points="225.1108,-.5 225.1108,-18.5 283.9136,-18.5 283.9136,-.5 225.1108,-.5"/>
<text text-anchor="middle" x="254.5122" y="-6.5" font-family="Helvetica,sans-Serif" font-size="10.00" fill="#000000">stdexcept</text>
</g>
<!-- Node7&#45;&gt;Node10 -->
<g id="edge10" class="edge">
<title>Node7&#45;&gt;Node10</title>
<path fill="none" stroke="#191970" d="M158.5021,-55.4179C176.9798,-46.5807 205.277,-33.0473 226.3705,-22.9591"/>
<polygon fill="#191970" stroke="#191970" points="227.9828,-26.0677 235.4941,-18.5956 224.9626,-19.7528 227.9828,-26.0677"/>
</g>
<!-- Node11 -->
<g id="node12" class="node">
<title>Node11</title>
<polygon fill="#ffffff" stroke="#bfbfbf" points="0,-.5 0,-18.5 51.0244,-18.5 51.0244,-.5 0,-.5"/>
<text text-anchor="middle" x="25.5122" y="-6.5" font-family="Helvetica,sans-Serif" font-size="10.00" fill="#000000">typeinfo</text>
</g>
<!-- Node7&#45;&gt;Node11 -->
<g id="edge11" class="edge">
<title>Node7&#45;&gt;Node11</title>
<path fill="none" stroke="#191970" d="M120.6874,-55.4179C102.3704,-46.5807 74.3193,-33.0473 53.4092,-22.9591"/>
<polygon fill="#191970" stroke="#191970" points="54.8924,-19.7887 44.365,-18.5956 51.8507,-26.0933 54.8924,-19.7887"/>
</g>
<!-- Node12 -->
<g id="node13" class="node">
<title>Node12</title>
<polygon fill="#ffffff" stroke="#bfbfbf" points="69.4458,-.5 69.4458,-18.5 131.5786,-18.5 131.5786,-.5 69.4458,-.5"/>
<text text-anchor="middle" x="100.5122" y="-6.5" font-family="Helvetica,sans-Serif" font-size="10.00" fill="#000000">type_traits</text>
</g>
<!-- Node7&#45;&gt;Node12 -->
<g id="edge12" class="edge">
<title>Node7&#45;&gt;Node12</title>
<path fill="none" stroke="#191970" d="M133.0722,-55.4179C127.6289,-47.7415 119.6731,-36.5217 112.9883,-27.0945"/>
<polygon fill="#191970" stroke="#191970" points="115.7316,-24.9123 107.0922,-18.7795 110.0214,-28.9613 115.7316,-24.9123"/>
</g>
<!-- Node13&#45;&gt;Node14 -->
<g id="edge14" class="edge">
<title>Node13&#45;&gt;Node14</title>
<path fill="none" stroke="#191970" d="M644.3554,-110.4179C660.5229,-101.7001 685.166,-88.4122 703.7898,-78.3699"/>
<polygon fill="#191970" stroke="#191970" points="705.5032,-81.4225 712.644,-73.5956 702.1808,-75.2611 705.5032,-81.4225"/>
</g>
<!-- Node15 -->
<g id="node16" class="node">
<title>Node15</title>
<polygon fill="#ffffff" stroke="#bfbfbf" points="571.3398,-55.5 571.3398,-73.5 625.6846,-73.5 625.6846,-55.5 571.3398,-55.5"/>
<text text-anchor="middle" x="598.5122" y="-61.5" font-family="Helvetica,sans-Serif" font-size="10.00" fill="#000000">iostream</text>
</g>
<!-- Node13&#45;&gt;Node15 -->
<g id="edge15" class="edge">
<title>Node13&#45;&gt;Node15</title>
<path fill="none" stroke="#191970" d="M622.7234,-110.4179C618.7594,-102.8998 613.0032,-91.9829 608.0979,-82.6799"/>
<polygon fill="#191970" stroke="#191970" points="611.1652,-80.9927 603.405,-73.7795 604.9732,-84.2576 611.1652,-80.9927"/>
</g>
<!-- Node13&#45;&gt;Node16 -->
<g id="edge16" class="edge">
<title>Node13&#45;&gt;Node16</title>
<path fill="none" stroke="#191970" d="M587.0018,-110.4795C537.5872,-99.4762 455.1811,-81.1267 410.8869,-71.2636"/>
<polygon fill="#191970" stroke="#191970" points="411.5271,-67.8205 401.0054,-69.0633 410.0056,-74.6532 411.5271,-67.8205"/>
</g>
<!-- Node17 -->
<g id="node18" class="node">
<title>Node17</title>
<polygon fill="#ffffff" stroke="#bfbfbf" points="643.8965,-55.5 643.8965,-73.5 687.1279,-73.5 687.1279,-55.5 643.8965,-55.5"/>
<text text-anchor="middle" x="665.5122" y="-61.5" font-family="Helvetica,sans-Serif" font-size="10.00" fill="#000000">vector</text>
</g>
<!-- Node13&#45;&gt;Node17 -->
<g id="edge17" class="edge">
<title>Node13&#45;&gt;Node17</title>
<path fill="none" stroke="#191970" d="M633.7871,-110.4179C639.0908,-102.7415 646.8427,-91.5217 653.356,-82.0945"/>
<polygon fill="#191970" stroke="#191970" points="656.2961,-83.9963 659.1009,-73.7795 650.537,-80.0173 656.2961,-83.9963"/>
</g>
<!-- Node22&#45;&gt;Node9 -->
<g id="edge36" class="edge">
<title>Node22&#45;&gt;Node9</title>
<path fill="none" stroke="#191970" d="M668.9194,-230.3233C713.6058,-197.5936 812.3563,-114.9796 763.5122,-55 740.7798,-27.0851 636.4344,-15.7697 579.9994,-11.6294"/>
<polygon fill="#191970" stroke="#191970" points="579.938,-8.1168 569.7195,-10.9157 579.4531,-15.1 579.938,-8.1168"/>
</g>
<!-- Node22&#45;&gt;Node13 -->
<g id="edge33" class="edge">
<title>Node22&#45;&gt;Node13</title>
<path fill="none" stroke="#191970" d="M646.1032,-230.1609C642.3288,-207.6941 635.0151,-164.1603 630.773,-138.9097"/>
<polygon fill="#191970" stroke="#191970" points="634.1723,-138.0179 629.0638,-128.736 627.2691,-139.1777 634.1723,-138.0179"/>
</g>
<!-- Node22&#45;&gt;Node14 -->
<g id="edge37" class="edge">
<title>Node22&#45;&gt;Node14</title>
<path fill="none" stroke="#191970" d="M654.8681,-230.3757C669.3963,-198.091 705.0265,-118.9127 721.2385,-82.8859"/>
<polygon fill="#191970" stroke="#191970" points="724.521,-84.1206 725.4329,-73.5651 718.1375,-81.248 724.521,-84.1206"/>
</g>
<!-- Node23 -->
<g id="node24" class="node">
<title>Node23</title>
<g id="a_node24"><a xlink:href="Agent_8h.html" target="_top" xlink:title="BayesFilters/Agent.h">
<polygon fill="#ffffff" stroke="#000000" points="512.3794,-170.5 512.3794,-188.5 620.645,-188.5 620.645,-170.5 512.3794,-170.5"/>
<text text-anchor="middle" x="566.5122" y="-176.5" font-family="Helvetica,sans-Serif" font-size="10.00" fill="#000000">BayesFilters/Agent.h</text>
</a>
</g>
</g>
<!-- Node22&#45;&gt;Node23 -->
<g id="edge28" class="edge">
<title>Node22&#45;&gt;Node23</title>
<path fill="none" stroke="#191970" d="M630.7194,-230.396C617.582,-219.9822 599.7047,-205.8111 586.1498,-195.0664"/>
<polygon fill="#191970" stroke="#191970" points="587.9706,-192.0435 577.9598,-188.5743 583.6222,-197.5291 587.9706,-192.0435"/>
</g>
<!-- Node24 -->
<g id="node25" class="node">
<title>Node24</title>
<g id="a_node25"><a xlink:href="StateModel_8h.html" target="_top" xlink:title="BayesFilters/StateModel.h">
<polygon fill="#ffffff" stroke="#000000" points="362.1528,-170.5 362.1528,-188.5 494.8716,-188.5 494.8716,-170.5 362.1528,-170.5"/>
<text text-anchor="middle" x="428.5122" y="-176.5" font-family="Helvetica,sans-Serif" font-size="10.00" fill="#000000">BayesFilters/StateModel.h</text>
</a>
</g>
</g>
<!-- Node22&#45;&gt;Node24 -->
<g id="edge34" class="edge">
<title>Node22&#45;&gt;Node24</title>
<path fill="none" stroke="#191970" d="M601.0463,-230.476C561.6741,-218.8433 506.2966,-202.4817 468.993,-191.4602"/>
<polygon fill="#191970" stroke="#191970" points="469.5609,-187.9785 458.979,-188.5016 467.5775,-194.6917 469.5609,-187.9785"/>
</g>
<!-- Node23&#45;&gt;Node6 -->
<g id="edge29" class="edge">
<title>Node23&#45;&gt;Node6</title>
<path fill="none" stroke="#191970" d="M545.0973,-170.3873C521.3571,-160.2851 482.8747,-143.9096 455.9957,-132.4717"/>
<polygon fill="#191970" stroke="#191970" points="457.2386,-129.1969 446.6666,-128.5019 454.4977,-135.638 457.2386,-129.1969"/>
</g>
<!-- Node23&#45;&gt;Node9 -->
<g id="edge30" class="edge">
<title>Node23&#45;&gt;Node9</title>
<path fill="none" stroke="#191970" d="M565.2756,-170.3601C561.6721,-143.7251 551.1221,-65.7468 546.1554,-29.0366"/>
<polygon fill="#191970" stroke="#191970" points="549.5641,-28.1256 544.7549,-18.6851 542.6273,-29.0641 549.5641,-28.1256"/>
</g>
<!-- Node23&#45;&gt;Node16 -->
<g id="edge31" class="edge">
<title>Node23&#45;&gt;Node16</title>
<path fill="none" stroke="#191970" d="M557.8921,-170.3694C543.97,-156.0246 515.1872,-127.9926 486.5122,-110 462.3867,-94.8621 432.3522,-82.5012 410.4199,-74.5037"/>
<polygon fill="#191970" stroke="#191970" points="411.5581,-71.1938 400.9634,-71.1419 409.2133,-77.7894 411.5581,-71.1938"/>
</g>
<!-- Node23&#45;&gt;Node19 -->
<g id="edge32" class="edge">
<title>Node23&#45;&gt;Node19</title>
<path fill="none" stroke="#191970" d="M529.2664,-170.4524C485.6984,-159.8691 413.5253,-142.3372 366.2393,-130.8507"/>
<polygon fill="#191970" stroke="#191970" points="366.7972,-127.3845 356.2535,-128.425 365.1448,-134.1867 366.7972,-127.3845"/>
</g>
<!-- Node24&#45;&gt;Node19 -->
<g id="edge35" class="edge">
<title>Node24&#45;&gt;Node19</title>
<path fill="none" stroke="#191970" d="M411.9575,-170.3873C394.088,-160.5509 365.4141,-144.7671 344.7361,-133.3847"/>
<polygon fill="#191970" stroke="#191970" points="346.3139,-130.258 335.8656,-128.5019 342.9383,-136.3904 346.3139,-130.258"/>
</g>
</g>
</svg>
