<?xml version="1.0" encoding="UTF-8" standalone="no"?>
<!DOCTYPE svg PUBLIC "-//W3C//DTD SVG 1.1//EN"
 "http://www.w3.org/Graphics/SVG/1.1/DTD/svg11.dtd">
<!-- Generated by graphviz version 2.40.1 (20161225.0304)
 -->
<!-- Title: /Users/Claudio/GitHub/bayes&#45;filters&#45;lib/src/BayesFilters/include/BayesFilters/SIS.h Pages: 1 -->
<svg width="201pt" height="122pt"
 viewBox="0.00 0.00 201.29 122.00" xmlns="http://www.w3.org/2000/svg" xmlns:xlink="http://www.w3.org/1999/xlink">
<g id="graph0" class="graph" transform="scale(1 1) rotate(0) translate(4 118)">
<title>/Users/Claudio/GitHub/bayes&#45;filters&#45;lib/src/BayesFilters/include/BayesFilters/SIS.h</title>
<polygon fill="#ffffff" stroke="transparent" points="-4,4 -4,-118 197.29,-118 197.29,4 -4,4"/>
<!-- Node33 -->
<g id="node1" class="node">
<title>Node33</title>
<polygon fill="#bfbfbf" stroke="#000000" points="0,-75.5 0,-113.5 193.29,-113.5 193.29,-75.5 0,-75.5"/>
<text text-anchor="start" x="8" y="-101.5" font-family="Helvetica,sans-Serif" font-size="10.00" fill="#000000">/Users/Claudio/GitHub</text>
<text text-anchor="start" x="8" y="-91.5" font-family="Helvetica,sans-Serif" font-size="10.00" fill="#000000">/bayes&#45;filters&#45;lib/src</text>
<text text-anchor="middle" x="96.645" y="-81.5" font-family="Helvetica,sans-Serif" font-size="10.00" fill="#000000">/BayesFilters/include/BayesFilters/SIS.h</text>
</g>
<!-- Node34 -->
<g id="node2" class="node">
<title>Node34</title>
<g id="a_node2"><a xlink:href="SIS_8cpp.html" target="_top" xlink:title="/Users/Claudio/GitHub\l/bayes&#45;filters&#45;lib/src\l/BayesFilters/src/SIS.cpp">
<polygon fill="#ffffff" stroke="#000000" points="32.7954,-.5 32.7954,-38.5 160.4946,-38.5 160.4946,-.5 32.7954,-.5"/>
<text text-anchor="start" x="40.7954" y="-26.5" font-family="Helvetica,sans-Serif" font-size="10.00" fill="#000000">/Users/Claudio/GitHub</text>
<text text-anchor="start" x="40.7954" y="-16.5" font-family="Helvetica,sans-Serif" font-size="10.00" fill="#000000">/bayes&#45;filters&#45;lib/src</text>
<text text-anchor="middle" x="96.645" y="-6.5" font-family="Helvetica,sans-Serif" font-size="10.00" fill="#000000">/BayesFilters/src/SIS.cpp</text>
</a>
</g>
</g>
<!-- Node33&#45;&gt;Node34 -->
<g id="edge1" class="edge">
<title>Node33&#45;&gt;Node34</title>
<path fill="none" stroke="#191970" d="M96.645,-64.8977C96.645,-56.1033 96.645,-46.7019 96.645,-38.7489"/>
<polygon fill="#191970" stroke="#191970" points="93.1451,-65.1856 96.645,-75.1856 100.1451,-65.1857 93.1451,-65.1856"/>
</g>
</g>
</svg>
