<?xml version="1.0" encoding="UTF-8" standalone="no"?>
<!DOCTYPE svg PUBLIC "-//W3C//DTD SVG 1.1//EN"
 "http://www.w3.org/Graphics/SVG/1.1/DTD/svg11.dtd">
<!-- Generated by graphviz version 2.40.1 (20161225.0304)
 -->
<!-- Title: /Users/Claudio/GitHub/bayes&#45;filters&#45;lib/src/BayesFilters/src/SIS.cpp Pages: 1 -->
<svg width="1633pt" height="507pt"
 viewBox="0.00 0.00 1632.52 507.00" xmlns="http://www.w3.org/2000/svg" xmlns:xlink="http://www.w3.org/1999/xlink">
<g id="graph0" class="graph" transform="scale(1 1) rotate(0) translate(4 503)">
<title>/Users/Claudio/GitHub/bayes&#45;filters&#45;lib/src/BayesFilters/src/SIS.cpp</title>
<polygon fill="#ffffff" stroke="transparent" points="-4,4 -4,-503 1628.522,-503 1628.522,4 -4,4"/>
<!-- Node0 -->
<g id="node1" class="node">
<title>Node0</title>
<polygon fill="#bfbfbf" stroke="#000000" points="1180.1084,-460.5 1180.1084,-498.5 1307.8076,-498.5 1307.8076,-460.5 1180.1084,-460.5"/>
<text text-anchor="start" x="1188.1084" y="-486.5" font-family="Helvetica,sans-Serif" font-size="10.00" fill="#000000">/Users/Claudio/GitHub</text>
<text text-anchor="start" x="1188.1084" y="-476.5" font-family="Helvetica,sans-Serif" font-size="10.00" fill="#000000">/bayes&#45;filters&#45;lib/src</text>
<text text-anchor="middle" x="1243.958" y="-466.5" font-family="Helvetica,sans-Serif" font-size="10.00" fill="#000000">/BayesFilters/src/SIS.cpp</text>
</g>
<!-- Node1 -->
<g id="node2" class="node">
<title>Node1</title>
<g id="a_node2"><a xlink:href="SIS_8h.html" target="_top" xlink:title="BayesFilters/SIS.h">
<polygon fill="#ffffff" stroke="#000000" points="837.8325,-405.5 837.8325,-423.5 936.0835,-423.5 936.0835,-405.5 837.8325,-405.5"/>
<text text-anchor="middle" x="886.958" y="-411.5" font-family="Helvetica,sans-Serif" font-size="10.00" fill="#000000">BayesFilters/SIS.h</text>
</a>
</g>
</g>
<!-- Node0&#45;&gt;Node1 -->
<g id="edge1" class="edge">
<title>Node0&#45;&gt;Node1</title>
<path fill="none" stroke="#191970" d="M1179.7213,-467.8042C1113.4088,-455.7305 1010.8004,-437.0483 946.3327,-425.3105"/>
<polygon fill="#191970" stroke="#191970" points="946.7901,-421.8363 936.3249,-423.4884 945.5362,-428.7231 946.7901,-421.8363"/>
</g>
<!-- Node5 -->
<g id="node6" class="node">
<title>Node5</title>
<polygon fill="#ffffff" stroke="#bfbfbf" points="1547.2881,-55.5 1547.2881,-73.5 1596.6279,-73.5 1596.6279,-55.5 1547.2881,-55.5"/>
<text text-anchor="middle" x="1571.958" y="-61.5" font-family="Helvetica,sans-Serif" font-size="10.00" fill="#000000">fstream</text>
</g>
<!-- Node0&#45;&gt;Node5 -->
<g id="edge66" class="edge">
<title>Node0&#45;&gt;Node5</title>
<path fill="none" stroke="#191970" d="M1308.0075,-470.7246C1408.2712,-455.1687 1590.958,-418.7019 1590.958,-359.5 1590.958,-359.5 1590.958,-359.5 1590.958,-179.5 1590.958,-145.2412 1582.6486,-106.0002 1577.02,-83.3494"/>
<polygon fill="#191970" stroke="#191970" points="1580.4069,-82.4662 1574.5204,-73.6571 1573.6286,-84.2143 1580.4069,-82.4662"/>
</g>
<!-- Node6 -->
<g id="node7" class="node">
<title>Node6</title>
<polygon fill="#ffffff" stroke="#bfbfbf" points="1163.7856,-55.5 1163.7856,-73.5 1218.1304,-73.5 1218.1304,-55.5 1163.7856,-55.5"/>
<text text-anchor="middle" x="1190.958" y="-61.5" font-family="Helvetica,sans-Serif" font-size="10.00" fill="#000000">iostream</text>
</g>
<!-- Node0&#45;&gt;Node6 -->
<g id="edge67" class="edge">
<title>Node0&#45;&gt;Node6</title>
<path fill="none" stroke="#191970" d="M1307.9112,-464.2392C1386.9007,-443.4888 1510.958,-403.841 1510.958,-359.5 1510.958,-359.5 1510.958,-359.5 1510.958,-239.5 1510.958,-177.3107 1506.4879,-148.889 1457.958,-110 1423.1988,-82.1459 1293.6573,-70.5995 1228.6578,-66.4787"/>
<polygon fill="#191970" stroke="#191970" points="1228.6235,-62.9703 1218.4298,-65.858 1228.1994,-69.9574 1228.6235,-62.9703"/>
</g>
<!-- Node16 -->
<g id="node17" class="node">
<title>Node16</title>
<polygon fill="#ffffff" stroke="#bfbfbf" points="572.3276,-110.5 572.3276,-128.5 645.5884,-128.5 645.5884,-110.5 572.3276,-110.5"/>
<text text-anchor="middle" x="608.958" y="-116.5" font-family="Helvetica,sans-Serif" font-size="10.00" fill="#000000">Eigen/Dense</text>
</g>
<!-- Node0&#45;&gt;Node16 -->
<g id="edge69" class="edge">
<title>Node0&#45;&gt;Node16</title>
<path fill="none" stroke="#191970" d="M1180.0684,-472.5382C1113.8601,-461.3636 1019.958,-432.6251 1019.958,-359.5 1019.958,-359.5 1019.958,-359.5 1019.958,-299.5 1019.958,-286.703 844.6844,-170.124 832.958,-165 801.8066,-151.3878 712.0153,-135.6152 656.0312,-126.6715"/>
<polygon fill="#191970" stroke="#191970" points="656.4171,-123.1891 645.9929,-125.083 655.323,-130.1031 656.4171,-123.1891"/>
</g>
<!-- Node27 -->
<g id="node28" class="node">
<title>Node27</title>
<polygon fill="#ffffff" stroke="#bfbfbf" points="1410.5664,-110.5 1410.5664,-128.5 1449.3496,-128.5 1449.3496,-110.5 1410.5664,-110.5"/>
<text text-anchor="middle" x="1429.958" y="-116.5" font-family="Helvetica,sans-Serif" font-size="10.00" fill="#000000">utility</text>
</g>
<!-- Node0&#45;&gt;Node27 -->
<g id="edge68" class="edge">
<title>Node0&#45;&gt;Node27</title>
<path fill="none" stroke="#191970" d="M1257.702,-460.4138C1289.1756,-415.8823 1367.131,-300.7752 1410.958,-194 1418.381,-175.9155 1423.5291,-154.1404 1426.5759,-138.8161"/>
<polygon fill="#191970" stroke="#191970" points="1430.0242,-139.4161 1428.4254,-128.9426 1423.1439,-138.1272 1430.0242,-139.4161"/>
</g>
<!-- Node34 -->
<g id="node35" class="node">
<title>Node34</title>
<g id="a_node35"><a xlink:href="utils_8h.html" target="_top" xlink:title="BayesFilters/utils.h">
<polygon fill="#ffffff" stroke="#000000" points="0,-170.5 0,-188.5 99.916,-188.5 99.916,-170.5 0,-170.5"/>
<text text-anchor="middle" x="49.958" y="-176.5" font-family="Helvetica,sans-Serif" font-size="10.00" fill="#000000">BayesFilters/utils.h</text>
</a>
</g>
</g>
<!-- Node0&#45;&gt;Node34 -->
<g id="edge63" class="edge">
<title>Node0&#45;&gt;Node34</title>
<path fill="none" stroke="#191970" d="M1180.0049,-476.3484C935.0174,-463.86 69.958,-415.7784 69.958,-359.5 69.958,-359.5 69.958,-359.5 69.958,-299.5 69.958,-263.3984 61.0417,-222.0086 55.1158,-198.4871"/>
<polygon fill="#191970" stroke="#191970" points="58.4858,-197.5393 52.5727,-188.7481 51.7129,-199.308 58.4858,-197.5393"/>
</g>
<!-- Node2 -->
<g id="node3" class="node">
<title>Node2</title>
<g id="a_node3"><a xlink:href="ParticleFilter_8h.html" target="_top" xlink:title="BayesFilters/ParticleFilter.h">
<polygon fill="#ffffff" stroke="#000000" points="638.3818,-350.5 638.3818,-368.5 775.5342,-368.5 775.5342,-350.5 638.3818,-350.5"/>
<text text-anchor="middle" x="706.958" y="-356.5" font-family="Helvetica,sans-Serif" font-size="10.00" fill="#000000">BayesFilters/ParticleFilter.h</text>
</a>
</g>
</g>
<!-- Node1&#45;&gt;Node2 -->
<g id="edge2" class="edge">
<title>Node1&#45;&gt;Node2</title>
<path fill="none" stroke="#191970" d="M857.2347,-405.4179C826.9197,-396.155 779.7188,-381.7325 746.3158,-371.526"/>
<polygon fill="#191970" stroke="#191970" points="747.0126,-368.0792 736.4263,-368.5042 744.9671,-374.7737 747.0126,-368.0792"/>
</g>
<!-- Node1&#45;&gt;Node5 -->
<g id="edge60" class="edge">
<title>Node1&#45;&gt;Node5</title>
<path fill="none" stroke="#191970" d="M936.3009,-412.6975C1059.0114,-407.8662 1370.9737,-393.3181 1410.958,-369 1518.5053,-303.5907 1558.0428,-139.8731 1568.7001,-83.7405"/>
<polygon fill="#191970" stroke="#191970" points="1572.1734,-84.2007 1570.5043,-73.7382 1565.2846,-82.9581 1572.1734,-84.2007"/>
</g>
<!-- Node14 -->
<g id="node15" class="node">
<title>Node14</title>
<g id="a_node15"><a xlink:href="ParticleSet_8h.html" target="_top" xlink:title="BayesFilters/ParticleSet.h">
<polygon fill="#ffffff" stroke="#000000" points="597.7144,-230.5 597.7144,-248.5 728.2017,-248.5 728.2017,-230.5 597.7144,-230.5"/>
<text text-anchor="middle" x="662.958" y="-236.5" font-family="Helvetica,sans-Serif" font-size="10.00" fill="#000000">BayesFilters/ParticleSet.h</text>
</a>
</g>
</g>
<!-- Node1&#45;&gt;Node14 -->
<g id="edge56" class="edge">
<title>Node1&#45;&gt;Node14</title>
<path fill="none" stroke="#191970" d="M837.7954,-413.0778C770.5132,-409.9768 655.0871,-400.1403 628.958,-369 601.5592,-336.3464 630.8593,-284.0249 649.6876,-256.9679"/>
<polygon fill="#191970" stroke="#191970" points="652.7711,-258.6772 655.8006,-248.5247 647.1011,-254.5721 652.7711,-258.6772"/>
</g>
<!-- Node1&#45;&gt;Node16 -->
<g id="edge62" class="edge">
<title>Node1&#45;&gt;Node16</title>
<path fill="none" stroke="#191970" d="M879.8532,-405.4927C866.1768,-388.0704 835.3842,-348.4356 810.958,-314 764.9585,-249.1508 772.7604,-216.2294 711.958,-165 694.2283,-150.0617 670.8209,-139.1994 650.8012,-131.8424"/>
<polygon fill="#191970" stroke="#191970" points="651.88,-128.5118 641.2852,-128.5099 649.5664,-135.1184 651.88,-128.5118"/>
</g>
<!-- Node17 -->
<g id="node18" class="node">
<title>Node17</title>
<g id="a_node18"><a xlink:href="PFCorrection_8h.html" target="_top" xlink:title="BayesFilters/PFCorrection.h">
<polygon fill="#ffffff" stroke="#000000" points="1050.4385,-290.5 1050.4385,-308.5 1191.4775,-308.5 1191.4775,-290.5 1050.4385,-290.5"/>
<text text-anchor="middle" x="1120.958" y="-296.5" font-family="Helvetica,sans-Serif" font-size="10.00" fill="#000000">BayesFilters/PFCorrection.h</text>
</a>
</g>
</g>
<!-- Node1&#45;&gt;Node17 -->
<g id="edge57" class="edge">
<title>Node1&#45;&gt;Node17</title>
<path fill="none" stroke="#191970" d="M905.3196,-405.4761C946.1422,-385.4137 1044.6386,-337.0074 1093.0915,-313.1951"/>
<polygon fill="#191970" stroke="#191970" points="1094.9269,-316.1929 1102.3579,-308.6411 1091.8394,-309.9106 1094.9269,-316.1929"/>
</g>
<!-- Node23 -->
<g id="node24" class="node">
<title>Node23</title>
<polygon fill="#ffffff" stroke="#bfbfbf" points="1028.9014,-.5 1028.9014,-18.5 1081.0146,-18.5 1081.0146,-.5 1028.9014,-.5"/>
<text text-anchor="middle" x="1054.958" y="-6.5" font-family="Helvetica,sans-Serif" font-size="10.00" fill="#000000">memory</text>
</g>
<!-- Node1&#45;&gt;Node23 -->
<g id="edge61" class="edge">
<title>Node1&#45;&gt;Node23</title>
<path fill="none" stroke="#191970" d="M936.2053,-410.8957C1061.5524,-398.5919 1387.7366,-345.9576 1457.958,-129 1460.5584,-120.9659 1463.1136,-116.6879 1457.958,-110 1399.3152,-33.9283 1342.1679,-78.1905 1248.958,-55 1193.9493,-41.3139 1129.88,-26.5071 1090.8851,-17.6213"/>
<polygon fill="#191970" stroke="#191970" points="1091.5835,-14.1908 1081.0563,-15.386 1090.0311,-21.0165 1091.5835,-14.1908"/>
</g>
<!-- Node29 -->
<g id="node30" class="node">
<title>Node29</title>
<g id="a_node30"><a xlink:href="PFPrediction_8h.html" target="_top" xlink:title="BayesFilters/PFPrediction.h">
<polygon fill="#ffffff" stroke="#000000" points="424.2686,-290.5 424.2686,-308.5 563.6475,-308.5 563.6475,-290.5 424.2686,-290.5"/>
<text text-anchor="middle" x="493.958" y="-296.5" font-family="Helvetica,sans-Serif" font-size="10.00" fill="#000000">BayesFilters/PFPrediction.h</text>
</a>
</g>
</g>
<!-- Node1&#45;&gt;Node29 -->
<g id="edge58" class="edge">
<title>Node1&#45;&gt;Node29</title>
<path fill="none" stroke="#191970" d="M837.7434,-409.4547C766.642,-401.7173 638.9917,-386.0192 595.958,-369 563.4987,-356.1628 531.0492,-331.5228 511.7393,-315.298"/>
<polygon fill="#191970" stroke="#191970" points="513.9391,-312.5737 504.0725,-308.7134 509.3783,-317.884 513.9391,-312.5737"/>
</g>
<!-- Node32 -->
<g id="node33" class="node">
<title>Node32</title>
<g id="a_node33"><a xlink:href="Resampling_8h.html" target="_top" xlink:title="BayesFilters/Resampling.h">
<polygon fill="#ffffff" stroke="#000000" points="819.4902,-290.5 819.4902,-308.5 954.4258,-308.5 954.4258,-290.5 819.4902,-290.5"/>
<text text-anchor="middle" x="886.958" y="-296.5" font-family="Helvetica,sans-Serif" font-size="10.00" fill="#000000">BayesFilters/Resampling.h</text>
</a>
</g>
</g>
<!-- Node1&#45;&gt;Node32 -->
<g id="edge59" class="edge">
<title>Node1&#45;&gt;Node32</title>
<path fill="none" stroke="#191970" d="M886.958,-405.4761C886.958,-386.9256 886.958,-344.142 886.958,-318.9748"/>
<polygon fill="#191970" stroke="#191970" points="890.4581,-318.8013 886.958,-308.8014 883.4581,-318.8014 890.4581,-318.8013"/>
</g>
<!-- Node3 -->
<g id="node4" class="node">
<title>Node3</title>
<g id="a_node4"><a xlink:href="FilteringAlgorithm_8h.html" target="_top" xlink:title="BayesFilters/FilteringAlgorithm.h">
<polygon fill="#ffffff" stroke="#000000" points="934.9902,-170.5 934.9902,-188.5 1094.9258,-188.5 1094.9258,-170.5 934.9902,-170.5"/>
<text text-anchor="middle" x="1014.958" y="-176.5" font-family="Helvetica,sans-Serif" font-size="10.00" fill="#000000">BayesFilters/FilteringAlgorithm.h</text>
</a>
</g>
</g>
<!-- Node2&#45;&gt;Node3 -->
<g id="edge3" class="edge">
<title>Node2&#45;&gt;Node3</title>
<path fill="none" stroke="#191970" d="M775.5807,-354.8423C841.4679,-349.0657 934.9935,-337.0279 962.958,-314 998.2746,-284.9179 1009.6679,-228.8193 1013.2965,-199.0942"/>
<polygon fill="#191970" stroke="#191970" points="1016.8164,-199.084 1014.3689,-188.7757 1009.8539,-198.3603 1016.8164,-199.084"/>
</g>
<!-- Node13 -->
<g id="node14" class="node">
<title>Node13</title>
<g id="a_node14"><a xlink:href="ParticleSetInitialization_8h.html" target="_top" xlink:title="BayesFilters/ParticleSet\lInitialization.h">
<polygon fill="#ffffff" stroke="#000000" points="641.8843,-285.5 641.8843,-313.5 764.0317,-313.5 764.0317,-285.5 641.8843,-285.5"/>
<text text-anchor="start" x="649.8843" y="-301.5" font-family="Helvetica,sans-Serif" font-size="10.00" fill="#000000">BayesFilters/ParticleSet</text>
<text text-anchor="middle" x="702.958" y="-291.5" font-family="Helvetica,sans-Serif" font-size="10.00" fill="#000000">Initialization.h</text>
</a>
</g>
</g>
<!-- Node2&#45;&gt;Node13 -->
<g id="edge14" class="edge">
<title>Node2&#45;&gt;Node13</title>
<path fill="none" stroke="#191970" d="M706.3505,-350.3873C705.8805,-343.3369 705.2067,-333.2311 704.5834,-323.8806"/>
<polygon fill="#191970" stroke="#191970" points="708.072,-323.5927 703.9145,-313.8477 701.0876,-324.0584 708.072,-323.5927"/>
</g>
<!-- Node2&#45;&gt;Node17 -->
<g id="edge21" class="edge">
<title>Node2&#45;&gt;Node17</title>
<path fill="none" stroke="#191970" d="M769.3862,-350.4524C844.1852,-339.612 969.2872,-321.4813 1048.3392,-310.0245"/>
<polygon fill="#191970" stroke="#191970" points="1049.3052,-313.4211 1058.6998,-308.5229 1048.3011,-306.4935 1049.3052,-313.4211"/>
</g>
<!-- Node2&#45;&gt;Node23 -->
<g id="edge55" class="edge">
<title>Node2&#45;&gt;Node23</title>
<path fill="none" stroke="#191970" d="M638.2654,-352.4064C484.8943,-335.6419 127.958,-291.0852 127.958,-239.5 127.958,-239.5 127.958,-239.5 127.958,-119.5 127.958,-78.4851 156.3974,-71.4749 193.958,-55 270.1792,-21.5678 863.8492,-11.8834 1018.3193,-9.9177"/>
<polygon fill="#191970" stroke="#191970" points="1018.7132,-13.4132 1028.669,-9.7893 1018.6263,-6.4137 1018.7132,-13.4132"/>
</g>
<!-- Node2&#45;&gt;Node29 -->
<g id="edge42" class="edge">
<title>Node2&#45;&gt;Node29</title>
<path fill="none" stroke="#191970" d="M674.6079,-350.3873C637.408,-339.9084 576.2466,-322.6799 535.5413,-311.2136"/>
<polygon fill="#191970" stroke="#191970" points="536.4891,-307.8444 525.9147,-308.5019 534.5911,-314.5822 536.4891,-307.8444"/>
</g>
<!-- Node2&#45;&gt;Node32 -->
<g id="edge51" class="edge">
<title>Node2&#45;&gt;Node32</title>
<path fill="none" stroke="#191970" d="M734.2961,-350.3873C765.2675,-340.0635 815.893,-323.1883 850.2787,-311.7264"/>
<polygon fill="#191970" stroke="#191970" points="851.5724,-314.9846 859.9524,-308.5019 849.3587,-308.3438 851.5724,-314.9846"/>
</g>
<!-- Node4 -->
<g id="node5" class="node">
<title>Node4</title>
<g id="a_node5"><a xlink:href="Logger_8h.html" target="_top" xlink:title="BayesFilters/Logger.h">
<polygon fill="#ffffff" stroke="#000000" points="1120.5962,-110.5 1120.5962,-128.5 1233.3198,-128.5 1233.3198,-110.5 1120.5962,-110.5"/>
<text text-anchor="middle" x="1176.958" y="-116.5" font-family="Helvetica,sans-Serif" font-size="10.00" fill="#000000">BayesFilters/Logger.h</text>
</a>
</g>
</g>
<!-- Node3&#45;&gt;Node4 -->
<g id="edge4" class="edge">
<title>Node3&#45;&gt;Node4</title>
<path fill="none" stroke="#191970" d="M1039.5623,-170.3873C1067.1973,-160.1521 1112.2186,-143.4776 1143.1465,-132.0228"/>
<polygon fill="#191970" stroke="#191970" points="1144.4911,-135.2572 1152.6529,-128.5019 1142.0598,-128.693 1144.4911,-135.2572"/>
</g>
<!-- Node7 -->
<g id="node8" class="node">
<title>Node7</title>
<polygon fill="#ffffff" stroke="#bfbfbf" points="819.7314,-55.5 819.7314,-73.5 860.1846,-73.5 860.1846,-55.5 819.7314,-55.5"/>
<text text-anchor="middle" x="839.958" y="-61.5" font-family="Helvetica,sans-Serif" font-size="10.00" fill="#000000">string</text>
</g>
<!-- Node3&#45;&gt;Node7 -->
<g id="edge11" class="edge">
<title>Node3&#45;&gt;Node7</title>
<path fill="none" stroke="#191970" d="M956.7647,-170.4934C864.1457,-156.1423 693.4939,-129.6265 692.958,-129 658.3837,-88.5807 757.0619,-72.5792 809.5255,-67.0525"/>
<polygon fill="#191970" stroke="#191970" points="810.0434,-70.5186 819.652,-66.0549 809.357,-63.5523 810.0434,-70.5186"/>
</g>
<!-- Node9 -->
<g id="node10" class="node">
<title>Node9</title>
<polygon fill="#ffffff" stroke="#bfbfbf" points="868.6528,-110.5 868.6528,-128.5 965.2632,-128.5 965.2632,-110.5 868.6528,-110.5"/>
<text text-anchor="middle" x="916.958" y="-116.5" font-family="Helvetica,sans-Serif" font-size="10.00" fill="#000000">condition_variable</text>
</g>
<!-- Node3&#45;&gt;Node9 -->
<g id="edge9" class="edge">
<title>Node3&#45;&gt;Node9</title>
<path fill="none" stroke="#191970" d="M1000.0739,-170.3873C984.2249,-160.6838 958.9226,-145.1926 940.394,-133.8486"/>
<polygon fill="#191970" stroke="#191970" points="942.0172,-130.7385 931.6611,-128.5019 938.362,-136.7084 942.0172,-130.7385"/>
</g>
<!-- Node10 -->
<g id="node11" class="node">
<title>Node10</title>
<polygon fill="#ffffff" stroke="#bfbfbf" points="983.3423,-110.5 983.3423,-128.5 1026.5737,-128.5 1026.5737,-110.5 983.3423,-110.5"/>
<text text-anchor="middle" x="1004.958" y="-116.5" font-family="Helvetica,sans-Serif" font-size="10.00" fill="#000000">mutex</text>
</g>
<!-- Node3&#45;&gt;Node10 -->
<g id="edge10" class="edge">
<title>Node3&#45;&gt;Node10</title>
<path fill="none" stroke="#191970" d="M1013.4392,-170.3873C1012.0442,-162.0174 1009.9316,-149.3414 1008.1638,-138.735"/>
<polygon fill="#191970" stroke="#191970" points="1011.5875,-137.987 1006.4911,-128.6985 1004.6828,-139.1378 1011.5875,-137.987"/>
</g>
<!-- Node11 -->
<g id="node12" class="node">
<title>Node11</title>
<polygon fill="#ffffff" stroke="#bfbfbf" points="701.7808,-110.5 701.7808,-128.5 746.1353,-128.5 746.1353,-110.5 701.7808,-110.5"/>
<text text-anchor="middle" x="723.958" y="-116.5" font-family="Helvetica,sans-Serif" font-size="10.00" fill="#000000">thread</text>
</g>
<!-- Node3&#45;&gt;Node11 -->
<g id="edge12" class="edge">
<title>Node3&#45;&gt;Node11</title>
<path fill="none" stroke="#191970" d="M959.5542,-170.4849C908.9338,-161.8553 831.8639,-147.7342 756.3847,-129.1614"/>
<polygon fill="#191970" stroke="#191970" points="756.7797,-125.653 746.2303,-126.6329 755.0883,-132.4456 756.7797,-125.653"/>
</g>
<!-- Node12 -->
<g id="node13" class="node">
<title>Node12</title>
<polygon fill="#ffffff" stroke="#bfbfbf" points="763.6553,-110.5 763.6553,-128.5 850.2607,-128.5 850.2607,-110.5 763.6553,-110.5"/>
<text text-anchor="middle" x="806.958" y="-116.5" font-family="Helvetica,sans-Serif" font-size="10.00" fill="#000000">unordered_map</text>
</g>
<!-- Node3&#45;&gt;Node12 -->
<g id="edge13" class="edge">
<title>Node3&#45;&gt;Node12</title>
<path fill="none" stroke="#191970" d="M983.3673,-170.3873C947.1174,-159.9306 887.5674,-142.7527 847.8176,-131.2864"/>
<polygon fill="#191970" stroke="#191970" points="848.7428,-127.9107 838.1645,-128.5019 846.8027,-134.6364 848.7428,-127.9107"/>
</g>
<!-- Node4&#45;&gt;Node5 -->
<g id="edge5" class="edge">
<title>Node4&#45;&gt;Node5</title>
<path fill="none" stroke="#191970" d="M1233.563,-113.4722C1316.0457,-104.5133 1466.3441,-87.4834 1536.968,-74.1055"/>
<polygon fill="#191970" stroke="#191970" points="1538.0673,-77.4556 1547.1945,-72.0757 1536.7045,-70.5896 1538.0673,-77.4556"/>
</g>
<!-- Node4&#45;&gt;Node6 -->
<g id="edge6" class="edge">
<title>Node4&#45;&gt;Node6</title>
<path fill="none" stroke="#191970" d="M1179.2698,-110.4179C1181.1231,-103.1372 1183.7877,-92.669 1186.1049,-83.5659"/>
<polygon fill="#191970" stroke="#191970" points="1189.5209,-84.3338 1188.596,-73.7795 1182.7373,-82.607 1189.5209,-84.3338"/>
</g>
<!-- Node4&#45;&gt;Node7 -->
<g id="edge7" class="edge">
<title>Node4&#45;&gt;Node7</title>
<path fill="none" stroke="#191970" d="M1121.6867,-110.4795C1049.9381,-98.7697 927.2111,-78.7401 870.4287,-69.473"/>
<polygon fill="#191970" stroke="#191970" points="870.7362,-65.9769 860.303,-67.8204 869.6086,-72.8855 870.7362,-65.9769"/>
</g>
<!-- Node8 -->
<g id="node9" class="node">
<title>Node8</title>
<polygon fill="#ffffff" stroke="#bfbfbf" points="284.3423,-55.5 284.3423,-73.5 327.5737,-73.5 327.5737,-55.5 284.3423,-55.5"/>
<text text-anchor="middle" x="305.958" y="-61.5" font-family="Helvetica,sans-Serif" font-size="10.00" fill="#000000">vector</text>
</g>
<!-- Node4&#45;&gt;Node8 -->
<g id="edge8" class="edge">
<title>Node4&#45;&gt;Node8</title>
<path fill="none" stroke="#191970" d="M1120.3604,-115.6215C1094.6104,-113.8737 1063.7465,-111.8021 1035.958,-110 766.0668,-92.497 439.9583,-72.6232 337.9972,-66.4393"/>
<polygon fill="#191970" stroke="#191970" points="337.9515,-62.9302 327.758,-65.8186 337.5279,-69.9174 337.9515,-62.9302"/>
</g>
<!-- Node13&#45;&gt;Node14 -->
<g id="edge15" class="edge">
<title>Node13&#45;&gt;Node14</title>
<path fill="none" stroke="#191970" d="M693.4786,-285.2808C687.8545,-276.8448 680.6789,-266.0813 674.6985,-257.1107"/>
<polygon fill="#191970" stroke="#191970" points="677.4734,-254.9632 669.0141,-248.5842 671.649,-258.8462 677.4734,-254.9632"/>
</g>
<!-- Node13&#45;&gt;Node16 -->
<g id="edge20" class="edge">
<title>Node13&#45;&gt;Node16</title>
<path fill="none" stroke="#191970" d="M717.7321,-285.4913C730.5793,-271.5264 745.8482,-249.4193 736.958,-230 716.3595,-185.0054 667.3923,-151.3564 636.3455,-133.6195"/>
<polygon fill="#191970" stroke="#191970" points="637.7807,-130.4135 627.3369,-128.6309 634.3896,-136.5372 637.7807,-130.4135"/>
</g>
<!-- Node14&#45;&gt;Node8 -->
<g id="edge19" class="edge">
<title>Node14&#45;&gt;Node8</title>
<path fill="none" stroke="#191970" d="M597.4922,-232.267C505.0927,-221.7851 346.5165,-202.6798 336.958,-194 305.9714,-165.862 303.309,-112.7496 304.4058,-84.0634"/>
<polygon fill="#191970" stroke="#191970" points="307.9204,-83.9135 305.009,-73.7266 300.9323,-83.5057 307.9204,-83.9135"/>
</g>
<!-- Node15 -->
<g id="node16" class="node">
<title>Node15</title>
<g id="a_node16"><a xlink:href="GaussianMixture_8h.html" target="_top" xlink:title="BayesFilters/GaussianMixture.h">
<polygon fill="#ffffff" stroke="#000000" points="346.377,-170.5 346.377,-188.5 503.5391,-188.5 503.5391,-170.5 346.377,-170.5"/>
<text text-anchor="middle" x="424.958" y="-176.5" font-family="Helvetica,sans-Serif" font-size="10.00" fill="#000000">BayesFilters/GaussianMixture.h</text>
</a>
</g>
</g>
<!-- Node14&#45;&gt;Node15 -->
<g id="edge16" class="edge">
<title>Node14&#45;&gt;Node15</title>
<path fill="none" stroke="#191970" d="M627.0693,-230.4524C585.2975,-219.9217 516.2364,-202.5114 470.6639,-191.0225"/>
<polygon fill="#191970" stroke="#191970" points="471.3012,-187.5737 460.749,-188.5229 469.59,-194.3613 471.3012,-187.5737"/>
</g>
<!-- Node15&#45;&gt;Node8 -->
<g id="edge17" class="edge">
<title>Node15&#45;&gt;Node8</title>
<path fill="none" stroke="#191970" d="M415.6203,-170.4761C395.6463,-151.1735 348.522,-105.6332 323.0356,-81.0035"/>
<polygon fill="#191970" stroke="#191970" points="325.206,-78.2338 315.5829,-73.8014 320.3416,-83.2674 325.206,-78.2338"/>
</g>
<!-- Node15&#45;&gt;Node16 -->
<g id="edge18" class="edge">
<title>Node15&#45;&gt;Node16</title>
<path fill="none" stroke="#191970" d="M452.9036,-170.3873C484.5632,-160.0635 536.3137,-143.1883 571.4636,-131.7264"/>
<polygon fill="#191970" stroke="#191970" points="572.9301,-134.9297 581.3523,-128.5019 570.7599,-128.2746 572.9301,-134.9297"/>
</g>
<!-- Node17&#45;&gt;Node14 -->
<g id="edge38" class="edge">
<title>Node17&#45;&gt;Node14</title>
<path fill="none" stroke="#191970" d="M1051.8949,-290.4524C967.6424,-279.415 825.6995,-260.8198 738.5777,-249.4065"/>
<polygon fill="#191970" stroke="#191970" points="738.864,-245.9142 728.4941,-248.0855 737.9547,-252.8549 738.864,-245.9142"/>
</g>
<!-- Node17&#45;&gt;Node16 -->
<g id="edge41" class="edge">
<title>Node17&#45;&gt;Node16</title>
<path fill="none" stroke="#191970" d="M1111.5998,-290.131C1096.4816,-275.4594 1065.2101,-246.9878 1033.958,-230 989.5045,-205.8363 971.35,-216.3511 925.958,-194 905.2779,-183.8171 904.3738,-173.5278 882.958,-165 862.2753,-156.7642 728.8535,-136.734 656.1058,-126.211"/>
<polygon fill="#191970" stroke="#191970" points="656.2306,-122.6928 645.8335,-124.7299 655.2316,-129.6212 656.2306,-122.6928"/>
</g>
<!-- Node18 -->
<g id="node19" class="node">
<title>Node18</title>
<g id="a_node19"><a xlink:href="LikelihoodModel_8h.html" target="_top" xlink:title="BayesFilters/LikelihoodModel.h">
<polygon fill="#ffffff" stroke="#000000" points="1149.7563,-230.5 1149.7563,-248.5 1304.1597,-248.5 1304.1597,-230.5 1149.7563,-230.5"/>
<text text-anchor="middle" x="1226.958" y="-236.5" font-family="Helvetica,sans-Serif" font-size="10.00" fill="#000000">BayesFilters/LikelihoodModel.h</text>
</a>
</g>
</g>
<!-- Node17&#45;&gt;Node18 -->
<g id="edge22" class="edge">
<title>Node17&#45;&gt;Node18</title>
<path fill="none" stroke="#191970" d="M1137.0571,-290.3873C1154.3565,-280.5952 1182.0684,-264.9092 1202.1561,-253.5388"/>
<polygon fill="#191970" stroke="#191970" points="1204.0762,-256.4738 1211.0547,-248.5019 1200.628,-250.382 1204.0762,-256.4738"/>
</g>
<!-- Node19 -->
<g id="node20" class="node">
<title>Node19</title>
<g id="a_node20"><a xlink:href="MeasurementModel_8h.html" target="_top" xlink:title="BayesFilters/Measurement\lModel.h">
<polygon fill="#ffffff" stroke="#000000" points="1234.4927,-165.5 1234.4927,-193.5 1369.4233,-193.5 1369.4233,-165.5 1234.4927,-165.5"/>
<text text-anchor="start" x="1242.4927" y="-181.5" font-family="Helvetica,sans-Serif" font-size="10.00" fill="#000000">BayesFilters/Measurement</text>
<text text-anchor="middle" x="1301.958" y="-171.5" font-family="Helvetica,sans-Serif" font-size="10.00" fill="#000000">Model.h</text>
</a>
</g>
</g>
<!-- Node17&#45;&gt;Node19 -->
<g id="edge37" class="edge">
<title>Node17&#45;&gt;Node19</title>
<path fill="none" stroke="#191970" d="M1188.8356,-290.4954C1237.7187,-282.4561 1297.6477,-268.858 1312.958,-249 1322.9578,-236.03 1319.4675,-217.5845 1313.8738,-202.9552"/>
<polygon fill="#191970" stroke="#191970" points="1316.9882,-201.3391 1309.8051,-193.5511 1310.5637,-204.1187 1316.9882,-201.3391"/>
</g>
<!-- Node17&#45;&gt;Node23 -->
<g id="edge39" class="edge">
<title>Node17&#45;&gt;Node23</title>
<path fill="none" stroke="#191970" d="M1120.3649,-290.2707C1118.8315,-268.3359 1114.1243,-211.444 1103.958,-165 1092.9559,-114.7377 1072.8727,-57.4522 1062.1519,-28.4594"/>
<polygon fill="#191970" stroke="#191970" points="1065.3226,-26.9458 1058.54,-18.8066 1058.7666,-29.399 1065.3226,-26.9458"/>
</g>
<!-- Node17&#45;&gt;Node27 -->
<g id="edge40" class="edge">
<title>Node17&#45;&gt;Node27</title>
<path fill="none" stroke="#191970" d="M1191.8784,-293.2751C1234.3979,-286.9876 1288.1458,-274.3582 1329.958,-249 1374.735,-221.8437 1406.8815,-166.6394 1421.367,-137.8686"/>
<polygon fill="#191970" stroke="#191970" points="1424.6656,-139.089 1425.8954,-128.5657 1418.3716,-136.0252 1424.6656,-139.089"/>
</g>
<!-- Node18&#45;&gt;Node19 -->
<g id="edge23" class="edge">
<title>Node18&#45;&gt;Node19</title>
<path fill="none" stroke="#191970" d="M1238.3489,-230.3873C1248.3662,-222.3734 1263.3181,-210.4119 1276.2091,-200.0991"/>
<polygon fill="#191970" stroke="#191970" points="1278.6879,-202.5983 1284.3102,-193.6183 1274.315,-197.1322 1278.6879,-202.5983"/>
</g>
<!-- Node28 -->
<g id="node29" class="node">
<title>Node28</title>
<polygon fill="#ffffff" stroke="#bfbfbf" points="1150.9434,-170.5 1150.9434,-188.5 1216.9727,-188.5 1216.9727,-170.5 1150.9434,-170.5"/>
<text text-anchor="middle" x="1183.958" y="-176.5" font-family="Helvetica,sans-Serif" font-size="10.00" fill="#000000">Eigen/Core</text>
</g>
<!-- Node18&#45;&gt;Node28 -->
<g id="edge36" class="edge">
<title>Node18&#45;&gt;Node28</title>
<path fill="none" stroke="#191970" d="M1220.4272,-230.3873C1214.1131,-221.5769 1204.3795,-207.9951 1196.5559,-197.0784"/>
<polygon fill="#191970" stroke="#191970" points="1199.2203,-194.7878 1190.5502,-188.6985 1193.5306,-198.8655 1199.2203,-194.7878"/>
</g>
<!-- Node19&#45;&gt;Node4 -->
<g id="edge31" class="edge">
<title>Node19&#45;&gt;Node4</title>
<path fill="none" stroke="#191970" d="M1272.6511,-165.4327C1252.3108,-155.6693 1225.3629,-142.7344 1205.2479,-133.0792"/>
<polygon fill="#191970" stroke="#191970" points="1206.5109,-129.8031 1195.9811,-128.6311 1203.4817,-136.1138 1206.5109,-129.8031"/>
</g>
<!-- Node19&#45;&gt;Node7 -->
<g id="edge33" class="edge">
<title>Node19&#45;&gt;Node7</title>
<path fill="none" stroke="#191970" d="M1250.076,-165.4938C1196.5421,-151.1477 1110.5684,-128.4035 1035.958,-110 977.5203,-95.5857 908.9583,-79.9631 870.3724,-71.2884"/>
<polygon fill="#191970" stroke="#191970" points="870.8411,-67.8066 860.3174,-69.0327 869.3088,-74.6369 870.8411,-67.8066"/>
</g>
<!-- Node19&#45;&gt;Node16 -->
<g id="edge35" class="edge">
<title>Node19&#45;&gt;Node16</title>
<path fill="none" stroke="#191970" d="M1234.481,-166.1869C1231.6059,-165.7586 1228.7558,-165.36 1225.958,-165 990.4712,-134.6963 929.4251,-150.3464 692.958,-129 680.9745,-127.9182 668.0513,-126.555 656.0194,-125.2015"/>
<polygon fill="#191970" stroke="#191970" points="656.0547,-121.6828 645.7213,-124.022 655.258,-128.6373 656.0547,-121.6828"/>
</g>
<!-- Node20 -->
<g id="node21" class="node">
<title>Node20</title>
<g id="a_node21"><a xlink:href="Data_8h.html" target="_top" xlink:title="BayesFilters/Data.h">
<polygon fill="#ffffff" stroke="#000000" points="1289.3301,-110.5 1289.3301,-128.5 1392.5859,-128.5 1392.5859,-110.5 1289.3301,-110.5"/>
<text text-anchor="middle" x="1340.958" y="-116.5" font-family="Helvetica,sans-Serif" font-size="10.00" fill="#000000">BayesFilters/Data.h</text>
</a>
</g>
</g>
<!-- Node19&#45;&gt;Node20 -->
<g id="edge24" class="edge">
<title>Node19&#45;&gt;Node20</title>
<path fill="none" stroke="#191970" d="M1311.2005,-165.2808C1316.6839,-156.8448 1323.6802,-146.0813 1329.511,-137.1107"/>
<polygon fill="#191970" stroke="#191970" points="1332.5379,-138.8761 1335.0533,-128.5842 1326.6688,-135.0612 1332.5379,-138.8761"/>
</g>
<!-- Node19&#45;&gt;Node23 -->
<g id="edge32" class="edge">
<title>Node19&#45;&gt;Node23</title>
<path fill="none" stroke="#191970" d="M1295.0114,-165.0861C1280.5359,-135.6012 1246.8404,-69.9152 1226.958,-55 1205.6845,-39.0413 1135.2097,-23.9653 1091.348,-15.805"/>
<polygon fill="#191970" stroke="#191970" points="1091.8174,-12.3329 1081.3512,-13.9788 1090.5594,-19.2189 1091.8174,-12.3329"/>
</g>
<!-- Node19&#45;&gt;Node27 -->
<g id="edge34" class="edge">
<title>Node19&#45;&gt;Node27</title>
<path fill="none" stroke="#191970" d="M1331.9683,-165.4327C1352.8914,-155.625 1380.6423,-142.6167 1401.2696,-132.9477"/>
<polygon fill="#191970" stroke="#191970" points="1402.9094,-136.0446 1410.4784,-128.6311 1399.9383,-129.7063 1402.9094,-136.0446"/>
</g>
<!-- Node21 -->
<g id="node22" class="node">
<title>Node21</title>
<g id="a_node22"><a xlink:href="any_8h.html" target="_top" xlink:title="BayesFilters/any.h">
<polygon fill="#ffffff" stroke="#000000" points="1432.1987,-55.5 1432.1987,-73.5 1529.7173,-73.5 1529.7173,-55.5 1432.1987,-55.5"/>
<text text-anchor="middle" x="1480.958" y="-61.5" font-family="Helvetica,sans-Serif" font-size="10.00" fill="#000000">BayesFilters/any.h</text>
</a>
</g>
</g>
<!-- Node20&#45;&gt;Node21 -->
<g id="edge25" class="edge">
<title>Node20&#45;&gt;Node21</title>
<path fill="none" stroke="#191970" d="M1364.0762,-110.4179C1387.0774,-101.3817 1422.5773,-87.4353 1448.4201,-77.2828"/>
<polygon fill="#191970" stroke="#191970" points="1449.7778,-80.5098 1457.8055,-73.5956 1447.2182,-73.9946 1449.7778,-80.5098"/>
</g>
<!-- Node22 -->
<g id="node23" class="node">
<title>Node22</title>
<polygon fill="#ffffff" stroke="#bfbfbf" points="1567.394,-.5 1567.394,-18.5 1624.522,-18.5 1624.522,-.5 1567.394,-.5"/>
<text text-anchor="middle" x="1595.958" y="-6.5" font-family="Helvetica,sans-Serif" font-size="10.00" fill="#000000">algorithm</text>
</g>
<!-- Node21&#45;&gt;Node22 -->
<g id="edge26" class="edge">
<title>Node21&#45;&gt;Node22</title>
<path fill="none" stroke="#191970" d="M1499.9479,-55.4179C1518.4256,-46.5807 1546.7228,-33.0473 1567.8163,-22.9591"/>
<polygon fill="#191970" stroke="#191970" points="1569.4286,-26.0677 1576.9399,-18.5956 1566.4084,-19.7528 1569.4286,-26.0677"/>
</g>
<!-- Node21&#45;&gt;Node23 -->
<g id="edge27" class="edge">
<title>Node21&#45;&gt;Node23</title>
<path fill="none" stroke="#191970" d="M1432.1364,-57.015C1427.3478,-56.3178 1422.56,-55.6353 1417.958,-55 1298.7592,-38.545 1157.1805,-21.5258 1091.6288,-13.7895"/>
<polygon fill="#191970" stroke="#191970" points="1091.7455,-10.2792 1081.4048,-12.5855 1090.9268,-17.2311 1091.7455,-10.2792"/>
</g>
<!-- Node24 -->
<g id="node25" class="node">
<title>Node24</title>
<polygon fill="#ffffff" stroke="#bfbfbf" points="1340.5566,-.5 1340.5566,-18.5 1399.3594,-18.5 1399.3594,-.5 1340.5566,-.5"/>
<text text-anchor="middle" x="1369.958" y="-6.5" font-family="Helvetica,sans-Serif" font-size="10.00" fill="#000000">stdexcept</text>
</g>
<!-- Node21&#45;&gt;Node24 -->
<g id="edge28" class="edge">
<title>Node21&#45;&gt;Node24</title>
<path fill="none" stroke="#191970" d="M1462.6286,-55.4179C1444.8739,-46.6205 1417.7266,-33.1691 1397.3964,-23.0956"/>
<polygon fill="#191970" stroke="#191970" points="1398.829,-19.8994 1388.3146,-18.5956 1395.721,-26.1716 1398.829,-19.8994"/>
</g>
<!-- Node25 -->
<g id="node26" class="node">
<title>Node25</title>
<polygon fill="#ffffff" stroke="#bfbfbf" points="1417.4458,-.5 1417.4458,-18.5 1468.4702,-18.5 1468.4702,-.5 1417.4458,-.5"/>
<text text-anchor="middle" x="1442.958" y="-6.5" font-family="Helvetica,sans-Serif" font-size="10.00" fill="#000000">typeinfo</text>
</g>
<!-- Node21&#45;&gt;Node25 -->
<g id="edge29" class="edge">
<title>Node21&#45;&gt;Node25</title>
<path fill="none" stroke="#191970" d="M1474.6831,-55.4179C1469.3794,-47.7415 1461.6276,-36.5217 1455.1142,-27.0945"/>
<polygon fill="#191970" stroke="#191970" points="1457.9332,-25.0173 1449.3693,-18.7795 1452.1741,-28.9963 1457.9332,-25.0173"/>
</g>
<!-- Node26 -->
<g id="node27" class="node">
<title>Node26</title>
<polygon fill="#ffffff" stroke="#bfbfbf" points="1486.8916,-.5 1486.8916,-18.5 1549.0244,-18.5 1549.0244,-.5 1486.8916,-.5"/>
<text text-anchor="middle" x="1517.958" y="-6.5" font-family="Helvetica,sans-Serif" font-size="10.00" fill="#000000">type_traits</text>
</g>
<!-- Node21&#45;&gt;Node26 -->
<g id="edge30" class="edge">
<title>Node21&#45;&gt;Node26</title>
<path fill="none" stroke="#191970" d="M1487.0678,-55.4179C1492.2319,-47.7415 1499.7798,-36.5217 1506.1217,-27.0945"/>
<polygon fill="#191970" stroke="#191970" points="1509.0377,-29.0303 1511.7155,-18.7795 1503.2296,-25.1231 1509.0377,-29.0303"/>
</g>
<!-- Node29&#45;&gt;Node7 -->
<g id="edge50" class="edge">
<title>Node29&#45;&gt;Node7</title>
<path fill="none" stroke="#191970" d="M424.1592,-296.3389C352.5201,-291.4577 248.0757,-279.2307 222.958,-249 217.5615,-242.5049 219.0556,-237.4886 222.958,-230 279.2442,-121.9888 693.1382,-77.491 809.5648,-67.0304"/>
<polygon fill="#191970" stroke="#191970" points="809.9244,-70.5124 819.5792,-66.1494 809.3109,-63.5393 809.9244,-70.5124"/>
</g>
<!-- Node29&#45;&gt;Node14 -->
<g id="edge45" class="edge">
<title>Node29&#45;&gt;Node14</title>
<path fill="none" stroke="#191970" d="M519.6255,-290.3873C548.5793,-280.1078 595.8282,-263.3331 628.1037,-251.8743"/>
<polygon fill="#191970" stroke="#191970" points="629.35,-255.1459 637.6027,-248.5019 627.008,-248.5493 629.35,-255.1459"/>
</g>
<!-- Node29&#45;&gt;Node16 -->
<g id="edge48" class="edge">
<title>Node29&#45;&gt;Node16</title>
<path fill="none" stroke="#191970" d="M507.186,-290.3664C519.7788,-281.127 538.5933,-265.8366 550.958,-249 576.8587,-213.7318 594.7398,-165.0607 603.2608,-138.5647"/>
<polygon fill="#191970" stroke="#191970" points="606.7101,-139.2589 606.3356,-128.6707 600.0255,-137.1814 606.7101,-139.2589"/>
</g>
<!-- Node29&#45;&gt;Node23 -->
<g id="edge49" class="edge">
<title>Node29&#45;&gt;Node23</title>
<path fill="none" stroke="#191970" d="M424.2558,-292.8379C353.5371,-285.0317 249.8092,-270.3848 215.958,-249 183.7877,-228.6771 165.958,-217.5519 165.958,-179.5 165.958,-179.5 165.958,-179.5 165.958,-119.5 165.958,-63.2093 221.1202,-71.4358 274.958,-55 346.5484,-33.1447 874.5462,-15.1521 1018.6904,-10.6087"/>
<polygon fill="#191970" stroke="#191970" points="1018.8921,-14.1042 1028.7777,-10.293 1018.6731,-7.1076 1018.8921,-14.1042"/>
</g>
<!-- Node30 -->
<g id="node31" class="node">
<title>Node30</title>
<g id="a_node31"><a xlink:href="ExogenousModel_8h.html" target="_top" xlink:title="BayesFilters/ExogenousModel.h">
<polygon fill="#ffffff" stroke="#000000" points="232.2539,-230.5 232.2539,-248.5 391.6621,-248.5 391.6621,-230.5 232.2539,-230.5"/>
<text text-anchor="middle" x="311.958" y="-236.5" font-family="Helvetica,sans-Serif" font-size="10.00" fill="#000000">BayesFilters/ExogenousModel.h</text>
</a>
</g>
</g>
<!-- Node29&#45;&gt;Node30 -->
<g id="edge43" class="edge">
<title>Node29&#45;&gt;Node30</title>
<path fill="none" stroke="#191970" d="M466.3161,-290.3873C435.0007,-280.0635 383.8127,-263.1883 349.0448,-251.7264"/>
<polygon fill="#191970" stroke="#191970" points="349.8568,-248.3089 339.2637,-248.5019 347.6651,-254.9569 349.8568,-248.3089"/>
</g>
<!-- Node31 -->
<g id="node32" class="node">
<title>Node31</title>
<g id="a_node32"><a xlink:href="StateModel_8h.html" target="_top" xlink:title="BayesFilters/StateModel.h">
<polygon fill="#ffffff" stroke="#000000" points="409.5986,-230.5 409.5986,-248.5 542.3174,-248.5 542.3174,-230.5 409.5986,-230.5"/>
<text text-anchor="middle" x="475.958" y="-236.5" font-family="Helvetica,sans-Serif" font-size="10.00" fill="#000000">BayesFilters/StateModel.h</text>
</a>
</g>
</g>
<!-- Node29&#45;&gt;Node31 -->
<g id="edge46" class="edge">
<title>Node29&#45;&gt;Node31</title>
<path fill="none" stroke="#191970" d="M491.2242,-290.3873C488.6868,-281.9293 484.8302,-269.074 481.6282,-258.4007"/>
<polygon fill="#191970" stroke="#191970" points="484.9435,-257.271 478.7175,-248.6985 478.2387,-259.2825 484.9435,-257.271"/>
</g>
<!-- Node30&#45;&gt;Node16 -->
<g id="edge44" class="edge">
<title>Node30&#45;&gt;Node16</title>
<path fill="none" stroke="#191970" d="M312.1682,-230.3013C313.0644,-214.3676 317.3431,-181.7368 336.958,-165 370.0855,-136.7333 493.4768,-125.664 562.1229,-121.6244"/>
<polygon fill="#191970" stroke="#191970" points="562.4541,-125.1114 572.2423,-121.0565 562.0618,-118.1224 562.4541,-125.1114"/>
</g>
<!-- Node31&#45;&gt;Node16 -->
<g id="edge47" class="edge">
<title>Node31&#45;&gt;Node16</title>
<path fill="none" stroke="#191970" d="M485.6929,-230.1954C500.6377,-215.9657 530.2098,-188.0244 555.958,-165 567.1166,-155.0218 579.8366,-144.0876 590.018,-135.4392"/>
<polygon fill="#191970" stroke="#191970" points="592.5106,-137.9149 597.8832,-128.7833 587.9887,-132.5714 592.5106,-137.9149"/>
</g>
<!-- Node32&#45;&gt;Node14 -->
<g id="edge53" class="edge">
<title>Node32&#45;&gt;Node14</title>
<path fill="none" stroke="#191970" d="M852.9372,-290.3873C813.7335,-279.8863 749.2242,-262.607 706.4176,-251.141"/>
<polygon fill="#191970" stroke="#191970" points="707.1301,-247.7085 696.565,-248.5019 705.3189,-254.4701 707.1301,-247.7085"/>
</g>
<!-- Node32&#45;&gt;Node16 -->
<g id="edge54" class="edge">
<title>Node32&#45;&gt;Node16</title>
<path fill="none" stroke="#191970" d="M880.4327,-290.3582C873.3894,-280.3673 861.9705,-263.8064 852.958,-249 830.8267,-212.6412 840.8989,-190.686 806.958,-165 783.5402,-147.2777 706.8057,-133.3589 656.0285,-125.7943"/>
<polygon fill="#191970" stroke="#191970" points="656.3297,-122.3013 645.9294,-124.3222 655.3199,-129.2281 656.3297,-122.3013"/>
</g>
<!-- Node33 -->
<g id="node34" class="node">
<title>Node33</title>
<polygon fill="#ffffff" stroke="#bfbfbf" points="862.0049,-230.5 862.0049,-248.5 911.9111,-248.5 911.9111,-230.5 862.0049,-230.5"/>
<text text-anchor="middle" x="886.958" y="-236.5" font-family="Helvetica,sans-Serif" font-size="10.00" fill="#000000">random</text>
</g>
<!-- Node32&#45;&gt;Node33 -->
<g id="edge52" class="edge">
<title>Node32&#45;&gt;Node33</title>
<path fill="none" stroke="#191970" d="M886.958,-290.3873C886.958,-282.0174 886.958,-269.3414 886.958,-258.735"/>
<polygon fill="#191970" stroke="#191970" points="890.4581,-258.6984 886.958,-248.6985 883.4581,-258.6985 890.4581,-258.6984"/>
</g>
<!-- Node34&#45;&gt;Node16 -->
<g id="edge64" class="edge">
<title>Node34&#45;&gt;Node16</title>
<path fill="none" stroke="#191970" d="M100.0575,-174.1226C207.1891,-162.6237 457.2755,-135.7808 561.7651,-124.5654"/>
<polygon fill="#191970" stroke="#191970" points="562.4345,-128.0138 572.0038,-123.4665 561.6874,-121.0538 562.4345,-128.0138"/>
</g>
<!-- Node34&#45;&gt;Node23 -->
<g id="edge65" class="edge">
<title>Node34&#45;&gt;Node23</title>
<path fill="none" stroke="#191970" d="M51.5116,-170.2094C56.0746,-146.205 71.8665,-82.1067 113.958,-55 152.6203,-30.1017 849.7668,-13.831 1018.4396,-10.2479"/>
<polygon fill="#191970" stroke="#191970" points="1018.6269,-13.7448 1028.551,-10.0349 1018.4794,-6.7464 1018.6269,-13.7448"/>
</g>
</g>
</svg>
