<?xml version="1.0" encoding="UTF-8" standalone="no"?>
<!DOCTYPE svg PUBLIC "-//W3C//DTD SVG 1.1//EN"
 "http://www.w3.org/Graphics/SVG/1.1/DTD/svg11.dtd">
<!-- Generated by graphviz version 2.40.1 (20161225.0304)
 -->
<!-- Title: /Users/Claudio/GitHub/bayes&#45;filters&#45;lib/src/BayesFilters/include/BayesFilters/SIS.h Pages: 1 -->
<svg width="1577pt" height="452pt"
 viewBox="0.00 0.00 1576.56 452.00" xmlns="http://www.w3.org/2000/svg" xmlns:xlink="http://www.w3.org/1999/xlink">
<g id="graph0" class="graph" transform="scale(1 1) rotate(0) translate(4 448)">
<title>/Users/Claudio/GitHub/bayes&#45;filters&#45;lib/src/BayesFilters/include/BayesFilters/SIS.h</title>
<polygon fill="#ffffff" stroke="transparent" points="-4,4 -4,-448 1572.564,-448 1572.564,4 -4,4"/>
<!-- Node0 -->
<g id="node1" class="node">
<title>Node0</title>
<polygon fill="#bfbfbf" stroke="#000000" points="962.9189,-405.5 962.9189,-443.5 1156.209,-443.5 1156.209,-405.5 962.9189,-405.5"/>
<text text-anchor="start" x="970.9189" y="-431.5" font-family="Helvetica,sans-Serif" font-size="10.00" fill="#000000">/Users/Claudio/GitHub</text>
<text text-anchor="start" x="970.9189" y="-421.5" font-family="Helvetica,sans-Serif" font-size="10.00" fill="#000000">/bayes&#45;filters&#45;lib/src</text>
<text text-anchor="middle" x="1059.564" y="-411.5" font-family="Helvetica,sans-Serif" font-size="10.00" fill="#000000">/BayesFilters/include/BayesFilters/SIS.h</text>
</g>
<!-- Node1 -->
<g id="node2" class="node">
<title>Node1</title>
<g id="a_node2"><a xlink:href="ParticleFilter_8h.html" target="_top" xlink:title="BayesFilters/ParticleFilter.h">
<polygon fill="#ffffff" stroke="#000000" points="942.9878,-350.5 942.9878,-368.5 1080.1401,-368.5 1080.1401,-350.5 942.9878,-350.5"/>
<text text-anchor="middle" x="1011.564" y="-356.5" font-family="Helvetica,sans-Serif" font-size="10.00" fill="#000000">BayesFilters/ParticleFilter.h</text>
</a>
</g>
</g>
<!-- Node0&#45;&gt;Node1 -->
<g id="edge1" class="edge">
<title>Node0&#45;&gt;Node1</title>
<path fill="none" stroke="#191970" d="M1045.422,-405.3494C1038.7721,-396.3443 1030.9,-385.6843 1024.4207,-376.9102"/>
<polygon fill="#191970" stroke="#191970" points="1027.0384,-374.563 1018.2824,-368.5978 1021.4073,-378.7214 1027.0384,-374.563"/>
</g>
<!-- Node4 -->
<g id="node5" class="node">
<title>Node4</title>
<polygon fill="#ffffff" stroke="#bfbfbf" points="461.894,-55.5 461.894,-73.5 511.2339,-73.5 511.2339,-55.5 461.894,-55.5"/>
<text text-anchor="middle" x="486.564" y="-61.5" font-family="Helvetica,sans-Serif" font-size="10.00" fill="#000000">fstream</text>
</g>
<!-- Node0&#45;&gt;Node4 -->
<g id="edge59" class="edge">
<title>Node0&#45;&gt;Node4</title>
<path fill="none" stroke="#191970" d="M962.6621,-421.3096C809.7235,-413.6034 529.564,-387.4798 529.564,-299.5 529.564,-299.5 529.564,-299.5 529.564,-239.5 529.564,-181.0349 506.6505,-114.6741 494.2763,-83.0993"/>
<polygon fill="#191970" stroke="#191970" points="497.5099,-81.7592 490.5322,-73.7866 491.0151,-84.3704 497.5099,-81.7592"/>
</g>
<!-- Node13 -->
<g id="node14" class="node">
<title>Node13</title>
<g id="a_node14"><a xlink:href="ParticleSet_8h.html" target="_top" xlink:title="BayesFilters/ParticleSet.h">
<polygon fill="#ffffff" stroke="#000000" points="1244.3203,-230.5 1244.3203,-248.5 1374.8076,-248.5 1374.8076,-230.5 1244.3203,-230.5"/>
<text text-anchor="middle" x="1309.564" y="-236.5" font-family="Helvetica,sans-Serif" font-size="10.00" fill="#000000">BayesFilters/ParticleSet.h</text>
</a>
</g>
</g>
<!-- Node0&#45;&gt;Node13 -->
<g id="edge55" class="edge">
<title>Node0&#45;&gt;Node13</title>
<path fill="none" stroke="#191970" d="M1135.7192,-405.4594C1185.9274,-389.1354 1249.4135,-360.6716 1288.564,-314 1301.6156,-298.4411 1306.576,-275.2894 1308.4497,-258.9316"/>
<polygon fill="#191970" stroke="#191970" points="1311.9453,-259.1324 1309.3154,-248.8691 1304.9711,-258.5323 1311.9453,-259.1324"/>
</g>
<!-- Node15 -->
<g id="node16" class="node">
<title>Node15</title>
<polygon fill="#ffffff" stroke="#bfbfbf" points="1139.9336,-110.5 1139.9336,-128.5 1213.1943,-128.5 1213.1943,-110.5 1139.9336,-110.5"/>
<text text-anchor="middle" x="1176.564" y="-116.5" font-family="Helvetica,sans-Serif" font-size="10.00" fill="#000000">Eigen/Dense</text>
</g>
<!-- Node0&#45;&gt;Node15 -->
<g id="edge61" class="edge">
<title>Node0&#45;&gt;Node15</title>
<path fill="none" stroke="#191970" d="M987.3786,-405.4489C967.5715,-397.1222 947.6872,-385.3857 933.564,-369 912.6573,-344.7442 914.564,-331.5224 914.564,-299.5 914.564,-299.5 914.564,-299.5 914.564,-239.5 914.564,-198.8649 933.6503,-187.3846 967.564,-165 981.0129,-156.1231 1072.3092,-138.3659 1129.7027,-127.8518"/>
<polygon fill="#191970" stroke="#191970" points="1130.439,-131.2754 1139.6498,-126.0398 1129.1844,-124.3887 1130.439,-131.2754"/>
</g>
<!-- Node16 -->
<g id="node17" class="node">
<title>Node16</title>
<g id="a_node17"><a xlink:href="PFCorrection_8h.html" target="_top" xlink:title="BayesFilters/PFCorrection.h">
<polygon fill="#ffffff" stroke="#000000" points="360.0444,-290.5 360.0444,-308.5 501.0835,-308.5 501.0835,-290.5 360.0444,-290.5"/>
<text text-anchor="middle" x="430.564" y="-296.5" font-family="Helvetica,sans-Serif" font-size="10.00" fill="#000000">BayesFilters/PFCorrection.h</text>
</a>
</g>
</g>
<!-- Node0&#45;&gt;Node16 -->
<g id="edge56" class="edge">
<title>Node0&#45;&gt;Node16</title>
<path fill="none" stroke="#191970" d="M962.8219,-421.3001C828.7348,-415.734 594.0355,-401.5813 515.564,-369 487.1213,-357.1906 460.7244,-332.6059 445.1195,-316.0745"/>
<polygon fill="#191970" stroke="#191970" points="447.6989,-313.7087 438.3642,-308.6973 442.5363,-318.4361 447.6989,-313.7087"/>
</g>
<!-- Node22 -->
<g id="node23" class="node">
<title>Node22</title>
<polygon fill="#ffffff" stroke="#bfbfbf" points="460.5073,-.5 460.5073,-18.5 512.6206,-18.5 512.6206,-.5 460.5073,-.5"/>
<text text-anchor="middle" x="486.564" y="-6.5" font-family="Helvetica,sans-Serif" font-size="10.00" fill="#000000">memory</text>
</g>
<!-- Node0&#45;&gt;Node22 -->
<g id="edge60" class="edge">
<title>Node0&#45;&gt;Node22</title>
<path fill="none" stroke="#191970" d="M1156.5011,-420.3383C1304.1828,-411.316 1568.564,-383.4417 1568.564,-299.5 1568.564,-299.5 1568.564,-299.5 1568.564,-119.5 1568.564,-32.004 1468.4477,-71.7192 1382.564,-55 1213.8342,-22.1529 669.9709,-12.123 523.2989,-9.9826"/>
<polygon fill="#191970" stroke="#191970" points="523.0947,-6.4794 513.0458,-9.8365 522.9949,-13.4787 523.0947,-6.4794"/>
</g>
<!-- Node28 -->
<g id="node29" class="node">
<title>Node28</title>
<g id="a_node29"><a xlink:href="PFPrediction_8h.html" target="_top" xlink:title="BayesFilters/PFPrediction.h">
<polygon fill="#ffffff" stroke="#000000" points="999.8745,-290.5 999.8745,-308.5 1139.2534,-308.5 1139.2534,-290.5 999.8745,-290.5"/>
<text text-anchor="middle" x="1069.564" y="-296.5" font-family="Helvetica,sans-Serif" font-size="10.00" fill="#000000">BayesFilters/PFPrediction.h</text>
</a>
</g>
</g>
<!-- Node0&#45;&gt;Node28 -->
<g id="edge57" class="edge">
<title>Node0&#45;&gt;Node28</title>
<path fill="none" stroke="#191970" d="M1072.9242,-405.4484C1079.3198,-395.1665 1086.2868,-381.9546 1089.564,-369 1093.9745,-351.5652 1087.1886,-331.8833 1080.3545,-317.9267"/>
<polygon fill="#191970" stroke="#191970" points="1083.3269,-316.0627 1075.5291,-308.8901 1077.1521,-319.3599 1083.3269,-316.0627"/>
</g>
<!-- Node31 -->
<g id="node32" class="node">
<title>Node31</title>
<g id="a_node32"><a xlink:href="Resampling_8h.html" target="_top" xlink:title="BayesFilters/Resampling.h">
<polygon fill="#ffffff" stroke="#000000" points="1335.0962,-290.5 1335.0962,-308.5 1470.0317,-308.5 1470.0317,-290.5 1335.0962,-290.5"/>
<text text-anchor="middle" x="1402.564" y="-296.5" font-family="Helvetica,sans-Serif" font-size="10.00" fill="#000000">BayesFilters/Resampling.h</text>
</a>
</g>
</g>
<!-- Node0&#45;&gt;Node31 -->
<g id="edge58" class="edge">
<title>Node0&#45;&gt;Node31</title>
<path fill="none" stroke="#191970" d="M1156.4079,-415.6851C1207.5528,-408.1927 1270.1882,-394.3863 1321.564,-369 1347.876,-355.9985 1372.6361,-332.4803 1387.6923,-316.4362"/>
<polygon fill="#191970" stroke="#191970" points="1390.484,-318.5693 1394.638,-308.8227 1385.3126,-313.8515 1390.484,-318.5693"/>
</g>
<!-- Node2 -->
<g id="node3" class="node">
<title>Node2</title>
<g id="a_node3"><a xlink:href="FilteringAlgorithm_8h.html" target="_top" xlink:title="BayesFilters/FilteringAlgorithm.h">
<polygon fill="#ffffff" stroke="#000000" points="650.5962,-170.5 650.5962,-188.5 810.5317,-188.5 810.5317,-170.5 650.5962,-170.5"/>
<text text-anchor="middle" x="730.564" y="-176.5" font-family="Helvetica,sans-Serif" font-size="10.00" fill="#000000">BayesFilters/FilteringAlgorithm.h</text>
</a>
</g>
</g>
<!-- Node1&#45;&gt;Node2 -->
<g id="edge2" class="edge">
<title>Node1&#45;&gt;Node2</title>
<path fill="none" stroke="#191970" d="M997.2428,-350.3263C951.5815,-321.0771 809.1722,-229.854 753.3436,-194.092"/>
<polygon fill="#191970" stroke="#191970" points="755.1647,-191.102 744.8563,-188.6552 751.3889,-196.9964 755.1647,-191.102"/>
</g>
<!-- Node12 -->
<g id="node13" class="node">
<title>Node12</title>
<g id="a_node13"><a xlink:href="ParticleSetInitialization_8h.html" target="_top" xlink:title="BayesFilters/ParticleSet\lInitialization.h">
<polygon fill="#ffffff" stroke="#000000" points="1157.4902,-285.5 1157.4902,-313.5 1279.6377,-313.5 1279.6377,-285.5 1157.4902,-285.5"/>
<text text-anchor="start" x="1165.4902" y="-301.5" font-family="Helvetica,sans-Serif" font-size="10.00" fill="#000000">BayesFilters/ParticleSet</text>
<text text-anchor="middle" x="1218.564" y="-291.5" font-family="Helvetica,sans-Serif" font-size="10.00" fill="#000000">Initialization.h</text>
</a>
</g>
</g>
<!-- Node1&#45;&gt;Node12 -->
<g id="edge13" class="edge">
<title>Node1&#45;&gt;Node12</title>
<path fill="none" stroke="#191970" d="M1043.0028,-350.3873C1074.0459,-341.3893 1122.2588,-327.4145 1160.3116,-316.3847"/>
<polygon fill="#191970" stroke="#191970" points="1161.6198,-319.6497 1170.2501,-313.504 1159.671,-312.9264 1161.6198,-319.6497"/>
</g>
<!-- Node1&#45;&gt;Node16 -->
<g id="edge20" class="edge">
<title>Node1&#45;&gt;Node16</title>
<path fill="none" stroke="#191970" d="M942.8534,-353.0698C853.2321,-344.5919 691.5878,-328.9903 553.564,-314 539.889,-312.5148 525.3676,-310.8664 511.2768,-309.2291"/>
<polygon fill="#191970" stroke="#191970" points="511.4496,-305.7256 501.1109,-308.0414 510.6372,-312.6783 511.4496,-305.7256"/>
</g>
<!-- Node1&#45;&gt;Node22 -->
<g id="edge54" class="edge">
<title>Node1&#45;&gt;Node22</title>
<path fill="none" stroke="#191970" d="M980.2534,-350.4597C913.4417,-330.1566 753.8529,-276.1913 641.564,-194 607.3553,-168.9605 530.1627,-67.9292 499.4867,-26.9234"/>
<polygon fill="#191970" stroke="#191970" points="502.146,-24.6346 493.3635,-18.7085 496.5335,-28.818 502.146,-24.6346"/>
</g>
<!-- Node1&#45;&gt;Node28 -->
<g id="edge41" class="edge">
<title>Node1&#45;&gt;Node28</title>
<path fill="none" stroke="#191970" d="M1020.3729,-350.3873C1029.1451,-341.3126 1042.8106,-327.1759 1053.5141,-316.1033"/>
<polygon fill="#191970" stroke="#191970" points="1056.2383,-318.321 1060.6721,-308.6985 1051.2054,-313.4558 1056.2383,-318.321"/>
</g>
<!-- Node1&#45;&gt;Node31 -->
<g id="edge50" class="edge">
<title>Node1&#45;&gt;Node31</title>
<path fill="none" stroke="#191970" d="M1070.524,-350.4524C1141.0232,-339.6341 1258.8372,-321.5553 1333.5218,-310.0947"/>
<polygon fill="#191970" stroke="#191970" points="1334.4111,-313.4993 1343.7645,-308.5229 1333.3493,-306.5803 1334.4111,-313.4993"/>
</g>
<!-- Node3 -->
<g id="node4" class="node">
<title>Node3</title>
<g id="a_node4"><a xlink:href="Logger_8h.html" target="_top" xlink:title="BayesFilters/Logger.h">
<polygon fill="#ffffff" stroke="#000000" points="590.2021,-110.5 590.2021,-128.5 702.9258,-128.5 702.9258,-110.5 590.2021,-110.5"/>
<text text-anchor="middle" x="646.564" y="-116.5" font-family="Helvetica,sans-Serif" font-size="10.00" fill="#000000">BayesFilters/Logger.h</text>
</a>
</g>
</g>
<!-- Node2&#45;&gt;Node3 -->
<g id="edge3" class="edge">
<title>Node2&#45;&gt;Node3</title>
<path fill="none" stroke="#191970" d="M717.8062,-170.3873C704.4074,-160.8168 683.1263,-145.6159 667.3079,-134.3171"/>
<polygon fill="#191970" stroke="#191970" points="669.3383,-131.4662 659.1666,-128.5019 665.2696,-137.1624 669.3383,-131.4662"/>
</g>
<!-- Node6 -->
<g id="node7" class="node">
<title>Node6</title>
<polygon fill="#ffffff" stroke="#bfbfbf" points="701.3374,-55.5 701.3374,-73.5 741.7905,-73.5 741.7905,-55.5 701.3374,-55.5"/>
<text text-anchor="middle" x="721.564" y="-61.5" font-family="Helvetica,sans-Serif" font-size="10.00" fill="#000000">string</text>
</g>
<!-- Node2&#45;&gt;Node6 -->
<g id="edge10" class="edge">
<title>Node2&#45;&gt;Node6</title>
<path fill="none" stroke="#191970" d="M729.8577,-170.4761C728.406,-151.9256 725.0577,-109.142 723.0881,-83.9748"/>
<polygon fill="#191970" stroke="#191970" points="726.5615,-83.4978 722.2919,-73.8014 719.5829,-84.044 726.5615,-83.4978"/>
</g>
<!-- Node8 -->
<g id="node9" class="node">
<title>Node8</title>
<polygon fill="#ffffff" stroke="#bfbfbf" points="863.2588,-110.5 863.2588,-128.5 959.8691,-128.5 959.8691,-110.5 863.2588,-110.5"/>
<text text-anchor="middle" x="911.564" y="-116.5" font-family="Helvetica,sans-Serif" font-size="10.00" fill="#000000">condition_variable</text>
</g>
<!-- Node2&#45;&gt;Node8 -->
<g id="edge8" class="edge">
<title>Node2&#45;&gt;Node8</title>
<path fill="none" stroke="#191970" d="M758.054,-170.3873C789.1974,-160.0635 840.1041,-143.1883 874.6809,-131.7264"/>
<polygon fill="#191970" stroke="#191970" points="876.0176,-134.9707 884.4083,-128.5019 873.8149,-128.3263 876.0176,-134.9707"/>
</g>
<!-- Node9 -->
<g id="node10" class="node">
<title>Node9</title>
<polygon fill="#ffffff" stroke="#bfbfbf" points="977.9482,-110.5 977.9482,-128.5 1021.1797,-128.5 1021.1797,-110.5 977.9482,-110.5"/>
<text text-anchor="middle" x="999.564" y="-116.5" font-family="Helvetica,sans-Serif" font-size="10.00" fill="#000000">mutex</text>
</g>
<!-- Node2&#45;&gt;Node9 -->
<g id="edge9" class="edge">
<title>Node2&#45;&gt;Node9</title>
<path fill="none" stroke="#191970" d="M779.1745,-170.4904C825.3116,-161.6473 896.7673,-147.1972 967.625,-129.0699"/>
<polygon fill="#191970" stroke="#191970" points="968.8104,-132.3786 977.6166,-126.4878 967.059,-125.6012 968.8104,-132.3786"/>
</g>
<!-- Node10 -->
<g id="node11" class="node">
<title>Node10</title>
<polygon fill="#ffffff" stroke="#bfbfbf" points="1039.3867,-110.5 1039.3867,-128.5 1083.7412,-128.5 1083.7412,-110.5 1039.3867,-110.5"/>
<text text-anchor="middle" x="1061.564" y="-116.5" font-family="Helvetica,sans-Serif" font-size="10.00" fill="#000000">thread</text>
</g>
<!-- Node2&#45;&gt;Node10 -->
<g id="edge11" class="edge">
<title>Node2&#45;&gt;Node10</title>
<path fill="none" stroke="#191970" d="M786.7352,-170.4517C860.3863,-158.5306 984.6857,-138.1977 1029.3385,-128.9118"/>
<polygon fill="#191970" stroke="#191970" points="1030.3031,-132.283 1039.3082,-126.7009 1028.7876,-125.449 1030.3031,-132.283"/>
</g>
<!-- Node11 -->
<g id="node12" class="node">
<title>Node11</title>
<polygon fill="#ffffff" stroke="#bfbfbf" points="758.2612,-110.5 758.2612,-128.5 844.8667,-128.5 844.8667,-110.5 758.2612,-110.5"/>
<text text-anchor="middle" x="801.564" y="-116.5" font-family="Helvetica,sans-Serif" font-size="10.00" fill="#000000">unordered_map</text>
</g>
<!-- Node2&#45;&gt;Node11 -->
<g id="edge12" class="edge">
<title>Node2&#45;&gt;Node11</title>
<path fill="none" stroke="#191970" d="M741.3473,-170.3873C752.2942,-161.1364 769.466,-146.625 782.6758,-135.4618"/>
<polygon fill="#191970" stroke="#191970" points="785.3003,-137.8264 790.6791,-128.6985 780.782,-132.4798 785.3003,-137.8264"/>
</g>
<!-- Node3&#45;&gt;Node4 -->
<g id="edge4" class="edge">
<title>Node3&#45;&gt;Node4</title>
<path fill="none" stroke="#191970" d="M620.1432,-110.4179C593.0302,-101.0978 550.7214,-86.5541 521,-76.3374"/>
<polygon fill="#191970" stroke="#191970" points="522.0379,-72.9932 511.4432,-73.0522 519.7623,-79.613 522.0379,-72.9932"/>
</g>
<!-- Node5 -->
<g id="node6" class="node">
<title>Node5</title>
<polygon fill="#ffffff" stroke="#bfbfbf" points="619.3916,-55.5 619.3916,-73.5 673.7363,-73.5 673.7363,-55.5 619.3916,-55.5"/>
<text text-anchor="middle" x="646.564" y="-61.5" font-family="Helvetica,sans-Serif" font-size="10.00" fill="#000000">iostream</text>
</g>
<!-- Node3&#45;&gt;Node5 -->
<g id="edge5" class="edge">
<title>Node3&#45;&gt;Node5</title>
<path fill="none" stroke="#191970" d="M646.564,-110.4179C646.564,-103.2164 646.564,-92.8962 646.564,-83.8632"/>
<polygon fill="#191970" stroke="#191970" points="650.0641,-83.7794 646.564,-73.7795 643.0641,-83.7795 650.0641,-83.7794"/>
</g>
<!-- Node3&#45;&gt;Node6 -->
<g id="edge6" class="edge">
<title>Node3&#45;&gt;Node6</title>
<path fill="none" stroke="#191970" d="M658.9487,-110.4179C670.348,-102.0584 687.4777,-89.4966 700.9405,-79.6239"/>
<polygon fill="#191970" stroke="#191970" points="703.1666,-82.3317 709.1608,-73.5956 699.027,-76.6869 703.1666,-82.3317"/>
</g>
<!-- Node7 -->
<g id="node8" class="node">
<title>Node7</title>
<polygon fill="#ffffff" stroke="#bfbfbf" points="1329.9482,-55.5 1329.9482,-73.5 1373.1797,-73.5 1373.1797,-55.5 1329.9482,-55.5"/>
<text text-anchor="middle" x="1351.564" y="-61.5" font-family="Helvetica,sans-Serif" font-size="10.00" fill="#000000">vector</text>
</g>
<!-- Node3&#45;&gt;Node7 -->
<g id="edge7" class="edge">
<title>Node3&#45;&gt;Node7</title>
<path fill="none" stroke="#191970" d="M702.9472,-114.13C718.0818,-112.7349 734.4427,-111.2687 749.564,-110 967.3563,-91.7269 1229.7622,-73.0338 1319.6007,-66.7289"/>
<polygon fill="#191970" stroke="#191970" points="1319.9557,-70.2127 1329.6866,-66.0222 1319.4664,-63.2298 1319.9557,-70.2127"/>
</g>
<!-- Node12&#45;&gt;Node13 -->
<g id="edge14" class="edge">
<title>Node12&#45;&gt;Node13</title>
<path fill="none" stroke="#191970" d="M1240.1297,-285.2808C1254.2712,-275.9568 1272.7248,-263.7895 1287.0531,-254.3423"/>
<polygon fill="#191970" stroke="#191970" points="1289.3643,-257.0108 1295.7863,-248.5842 1285.511,-251.1668 1289.3643,-257.0108"/>
</g>
<!-- Node12&#45;&gt;Node15 -->
<g id="edge19" class="edge">
<title>Node12&#45;&gt;Node15</title>
<path fill="none" stroke="#191970" d="M1215.3555,-285.3525C1209.7821,-260.8292 1197.9163,-208.8447 1187.564,-165 1185.5097,-156.2997 1183.1899,-146.6755 1181.212,-138.5277"/>
<polygon fill="#191970" stroke="#191970" points="1184.5508,-137.4454 1178.7839,-128.5576 1177.7496,-139.1019 1184.5508,-137.4454"/>
</g>
<!-- Node13&#45;&gt;Node7 -->
<g id="edge18" class="edge">
<title>Node13&#45;&gt;Node7</title>
<path fill="none" stroke="#191970" d="M1350.9563,-230.4939C1384.901,-222.1703 1429.0137,-208.8704 1439.564,-194 1468.5854,-153.0948 1410.0584,-103.8818 1375.1077,-79.5861"/>
<polygon fill="#191970" stroke="#191970" points="1376.6282,-76.3895 1366.3821,-73.6934 1372.7105,-82.1906 1376.6282,-76.3895"/>
</g>
<!-- Node14 -->
<g id="node15" class="node">
<title>Node14</title>
<g id="a_node15"><a xlink:href="GaussianMixture_8h.html" target="_top" xlink:title="BayesFilters/GaussianMixture.h">
<polygon fill="#ffffff" stroke="#000000" points="1272.9829,-170.5 1272.9829,-188.5 1430.145,-188.5 1430.145,-170.5 1272.9829,-170.5"/>
<text text-anchor="middle" x="1351.564" y="-176.5" font-family="Helvetica,sans-Serif" font-size="10.00" fill="#000000">BayesFilters/GaussianMixture.h</text>
</a>
</g>
</g>
<!-- Node13&#45;&gt;Node14 -->
<g id="edge15" class="edge">
<title>Node13&#45;&gt;Node14</title>
<path fill="none" stroke="#191970" d="M1315.9429,-230.3873C1322.1101,-221.5769 1331.6174,-207.9951 1339.2591,-197.0784"/>
<polygon fill="#191970" stroke="#191970" points="1342.2577,-198.8979 1345.125,-188.6985 1336.5231,-194.8837 1342.2577,-198.8979"/>
</g>
<!-- Node14&#45;&gt;Node7 -->
<g id="edge16" class="edge">
<title>Node14&#45;&gt;Node7</title>
<path fill="none" stroke="#191970" d="M1351.564,-170.4761C1351.564,-151.9256 1351.564,-109.142 1351.564,-83.9748"/>
<polygon fill="#191970" stroke="#191970" points="1355.0641,-83.8013 1351.564,-73.8014 1348.0641,-83.8014 1355.0641,-83.8013"/>
</g>
<!-- Node14&#45;&gt;Node15 -->
<g id="edge17" class="edge">
<title>Node14&#45;&gt;Node15</title>
<path fill="none" stroke="#191970" d="M1324.9852,-170.3873C1295.0034,-160.1078 1246.0771,-143.3331 1212.6557,-131.8743"/>
<polygon fill="#191970" stroke="#191970" points="1213.4141,-128.4344 1202.8194,-128.5019 1211.1437,-135.056 1213.4141,-128.4344"/>
</g>
<!-- Node16&#45;&gt;Node13 -->
<g id="edge37" class="edge">
<title>Node16&#45;&gt;Node13</title>
<path fill="none" stroke="#191970" d="M501.3806,-294.6661C664.651,-283.5214 1066.3115,-256.1043 1234.0501,-244.6545"/>
<polygon fill="#191970" stroke="#191970" points="1234.5356,-248.1296 1244.274,-243.9567 1234.0589,-241.1459 1234.5356,-248.1296"/>
</g>
<!-- Node16&#45;&gt;Node15 -->
<g id="edge40" class="edge">
<title>Node16&#45;&gt;Node15</title>
<path fill="none" stroke="#191970" d="M467.5833,-290.4971C537.0656,-273.3705 691.5534,-234.2053 819.564,-194 856.0447,-182.5422 863.5492,-174.5933 900.564,-165 979.6173,-144.5113 1073.9058,-131.3069 1129.3028,-124.6577"/>
<polygon fill="#191970" stroke="#191970" points="1129.9933,-128.1007 1139.5146,-123.4536 1129.1735,-121.1488 1129.9933,-128.1007"/>
</g>
<!-- Node17 -->
<g id="node18" class="node">
<title>Node17</title>
<g id="a_node18"><a xlink:href="LikelihoodModel_8h.html" target="_top" xlink:title="BayesFilters/LikelihoodModel.h">
<polygon fill="#ffffff" stroke="#000000" points="283.3623,-230.5 283.3623,-248.5 437.7656,-248.5 437.7656,-230.5 283.3623,-230.5"/>
<text text-anchor="middle" x="360.564" y="-236.5" font-family="Helvetica,sans-Serif" font-size="10.00" fill="#000000">BayesFilters/LikelihoodModel.h</text>
</a>
</g>
</g>
<!-- Node16&#45;&gt;Node17 -->
<g id="edge21" class="edge">
<title>Node16&#45;&gt;Node17</title>
<path fill="none" stroke="#191970" d="M419.9325,-290.3873C409.1397,-281.1364 392.2098,-266.625 379.1861,-255.4618"/>
<polygon fill="#191970" stroke="#191970" points="381.1659,-252.549 371.2955,-248.6985 376.6103,-257.8638 381.1659,-252.549"/>
</g>
<!-- Node18 -->
<g id="node19" class="node">
<title>Node18</title>
<g id="a_node19"><a xlink:href="MeasurementModel_8h.html" target="_top" xlink:title="BayesFilters/Measurement\lModel.h">
<polygon fill="#ffffff" stroke="#000000" points="367.0986,-165.5 367.0986,-193.5 502.0293,-193.5 502.0293,-165.5 367.0986,-165.5"/>
<text text-anchor="start" x="375.0986" y="-181.5" font-family="Helvetica,sans-Serif" font-size="10.00" fill="#000000">BayesFilters/Measurement</text>
<text text-anchor="middle" x="434.564" y="-171.5" font-family="Helvetica,sans-Serif" font-size="10.00" fill="#000000">Model.h</text>
</a>
</g>
</g>
<!-- Node16&#45;&gt;Node18 -->
<g id="edge36" class="edge">
<title>Node16&#45;&gt;Node18</title>
<path fill="none" stroke="#191970" d="M434.3849,-290.3967C438.3409,-280.4387 444.2591,-263.9057 446.564,-249 448.9115,-233.8183 446.0759,-216.8247 442.5736,-203.4414"/>
<polygon fill="#191970" stroke="#191970" points="445.861,-202.2111 439.7083,-193.5859 439.1393,-204.1654 445.861,-202.2111"/>
</g>
<!-- Node16&#45;&gt;Node22 -->
<g id="edge38" class="edge">
<title>Node16&#45;&gt;Node22</title>
<path fill="none" stroke="#191970" d="M364.6281,-290.4795C302.0722,-277.7725 217.564,-247.9408 217.564,-179.5 217.564,-179.5 217.564,-179.5 217.564,-119.5 217.564,-69.847 376.5695,-31.5225 450.0843,-16.457"/>
<polygon fill="#191970" stroke="#191970" points="451.1687,-19.809 460.2813,-14.4044 449.7873,-12.9466 451.1687,-19.809"/>
</g>
<!-- Node26 -->
<g id="node27" class="node">
<title>Node26</title>
<polygon fill="#ffffff" stroke="#bfbfbf" points="245.1724,-110.5 245.1724,-128.5 283.9556,-128.5 283.9556,-110.5 245.1724,-110.5"/>
<text text-anchor="middle" x="264.564" y="-116.5" font-family="Helvetica,sans-Serif" font-size="10.00" fill="#000000">utility</text>
</g>
<!-- Node16&#45;&gt;Node26 -->
<g id="edge39" class="edge">
<title>Node16&#45;&gt;Node26</title>
<path fill="none" stroke="#191970" d="M384.4326,-290.4729C343.582,-281.4733 288.3512,-266.496 274.564,-249 249.417,-217.0886 254.714,-165.9485 260.0579,-138.4538"/>
<polygon fill="#191970" stroke="#191970" points="263.5074,-139.0606 262.1899,-128.548 256.6641,-137.5877 263.5074,-139.0606"/>
</g>
<!-- Node17&#45;&gt;Node18 -->
<g id="edge22" class="edge">
<title>Node17&#45;&gt;Node18</title>
<path fill="none" stroke="#191970" d="M371.803,-230.3873C381.6867,-222.3734 396.4393,-210.4119 409.1584,-200.0991"/>
<polygon fill="#191970" stroke="#191970" points="411.5882,-202.635 417.1514,-193.6183 407.1795,-197.1977 411.5882,-202.635"/>
</g>
<!-- Node27 -->
<g id="node28" class="node">
<title>Node27</title>
<polygon fill="#ffffff" stroke="#bfbfbf" points="283.5493,-170.5 283.5493,-188.5 349.5786,-188.5 349.5786,-170.5 283.5493,-170.5"/>
<text text-anchor="middle" x="316.564" y="-176.5" font-family="Helvetica,sans-Serif" font-size="10.00" fill="#000000">Eigen/Core</text>
</g>
<!-- Node17&#45;&gt;Node27 -->
<g id="edge35" class="edge">
<title>Node17&#45;&gt;Node27</title>
<path fill="none" stroke="#191970" d="M353.8813,-230.3873C347.4204,-221.5769 337.4604,-207.9951 329.4548,-197.0784"/>
<polygon fill="#191970" stroke="#191970" points="332.0456,-194.6927 323.3095,-188.6985 326.4008,-198.8323 332.0456,-194.6927"/>
</g>
<!-- Node18&#45;&gt;Node3 -->
<g id="edge30" class="edge">
<title>Node18&#45;&gt;Node3</title>
<path fill="none" stroke="#191970" d="M484.2685,-165.4327C520.9155,-155.0609 570.2092,-141.1098 604.8219,-131.3138"/>
<polygon fill="#191970" stroke="#191970" points="605.9476,-134.6327 614.6165,-128.5417 604.0413,-127.8973 605.9476,-134.6327"/>
</g>
<!-- Node18&#45;&gt;Node6 -->
<g id="edge32" class="edge">
<title>Node18&#45;&gt;Node6</title>
<path fill="none" stroke="#191970" d="M461.7366,-165.3702C490.8959,-150.5126 538.7973,-126.9793 581.564,-110 618.5858,-95.3015 662.4216,-81.6352 691.0514,-73.1925"/>
<polygon fill="#191970" stroke="#191970" points="692.252,-76.4882 700.8705,-70.3262 690.2904,-69.7687 692.252,-76.4882"/>
</g>
<!-- Node18&#45;&gt;Node15 -->
<g id="edge34" class="edge">
<title>Node18&#45;&gt;Node15</title>
<path fill="none" stroke="#191970" d="M502.1056,-174.6272C646.1007,-164.1877 979.3597,-139.742 1092.564,-129 1104.5424,-127.8634 1117.4638,-126.4804 1129.4956,-125.1255"/>
<polygon fill="#191970" stroke="#191970" points="1130.2559,-128.5615 1139.7939,-123.9489 1129.4612,-121.6067 1130.2559,-128.5615"/>
</g>
<!-- Node19 -->
<g id="node20" class="node">
<title>Node19</title>
<g id="a_node20"><a xlink:href="Data_8h.html" target="_top" xlink:title="BayesFilters/Data.h">
<polygon fill="#ffffff" stroke="#000000" points="301.936,-110.5 301.936,-128.5 405.1919,-128.5 405.1919,-110.5 301.936,-110.5"/>
<text text-anchor="middle" x="353.564" y="-116.5" font-family="Helvetica,sans-Serif" font-size="10.00" fill="#000000">BayesFilters/Data.h</text>
</a>
</g>
</g>
<!-- Node18&#45;&gt;Node19 -->
<g id="edge23" class="edge">
<title>Node18&#45;&gt;Node19</title>
<path fill="none" stroke="#191970" d="M415.3681,-165.2808C402.9005,-156.0456 386.6674,-144.021 373.9665,-134.613"/>
<polygon fill="#191970" stroke="#191970" points="375.9465,-131.724 365.8276,-128.5842 371.7799,-137.349 375.9465,-131.724"/>
</g>
<!-- Node18&#45;&gt;Node22 -->
<g id="edge31" class="edge">
<title>Node18&#45;&gt;Node22</title>
<path fill="none" stroke="#191970" d="M434.3762,-165.4651C434.5354,-141.7709 436.9368,-92.7314 452.564,-55 456.8768,-44.5868 464.116,-34.4022 470.8087,-26.3178"/>
<polygon fill="#191970" stroke="#191970" points="473.4938,-28.5642 477.4399,-18.7316 468.2234,-23.9572 473.4938,-28.5642"/>
</g>
<!-- Node18&#45;&gt;Node26 -->
<g id="edge33" class="edge">
<title>Node18&#45;&gt;Node26</title>
<path fill="none" stroke="#191970" d="M394.7065,-165.4327C363.7653,-154.5122 321.5816,-139.6239 293.7338,-129.7953"/>
<polygon fill="#191970" stroke="#191970" points="294.765,-126.4476 284.1702,-126.4198 292.4352,-133.0486 294.765,-126.4476"/>
</g>
<!-- Node20 -->
<g id="node21" class="node">
<title>Node20</title>
<g id="a_node21"><a xlink:href="any_8h.html" target="_top" xlink:title="BayesFilters/any.h">
<polygon fill="#ffffff" stroke="#000000" points="91.8047,-55.5 91.8047,-73.5 189.3232,-73.5 189.3232,-55.5 91.8047,-55.5"/>
<text text-anchor="middle" x="140.564" y="-61.5" font-family="Helvetica,sans-Serif" font-size="10.00" fill="#000000">BayesFilters/any.h</text>
</a>
</g>
</g>
<!-- Node19&#45;&gt;Node20 -->
<g id="edge24" class="edge">
<title>Node19&#45;&gt;Node20</title>
<path fill="none" stroke="#191970" d="M318.3913,-110.4179C281.9775,-101.0152 224.9744,-86.2961 185.3597,-76.067"/>
<polygon fill="#191970" stroke="#191970" points="185.9923,-72.6156 175.4348,-73.5042 184.2422,-79.3933 185.9923,-72.6156"/>
</g>
<!-- Node21 -->
<g id="node22" class="node">
<title>Node21</title>
<polygon fill="#ffffff" stroke="#bfbfbf" points="0,-.5 0,-18.5 57.1279,-18.5 57.1279,-.5 0,-.5"/>
<text text-anchor="middle" x="28.564" y="-6.5" font-family="Helvetica,sans-Serif" font-size="10.00" fill="#000000">algorithm</text>
</g>
<!-- Node20&#45;&gt;Node21 -->
<g id="edge25" class="edge">
<title>Node20&#45;&gt;Node21</title>
<path fill="none" stroke="#191970" d="M122.0694,-55.4179C104.1548,-46.6205 76.7629,-33.1691 56.2496,-23.0956"/>
<polygon fill="#191970" stroke="#191970" points="57.6049,-19.8619 47.086,-18.5956 54.5193,-26.1452 57.6049,-19.8619"/>
</g>
<!-- Node20&#45;&gt;Node22 -->
<g id="edge26" class="edge">
<title>Node20&#45;&gt;Node22</title>
<path fill="none" stroke="#191970" d="M189.4035,-56.7365C259.6643,-45.5679 387.6736,-25.2196 450.2169,-15.2777"/>
<polygon fill="#191970" stroke="#191970" points="451.0639,-18.6871 460.3904,-13.6605 449.9649,-11.7739 451.0639,-18.6871"/>
</g>
<!-- Node23 -->
<g id="node24" class="node">
<title>Node23</title>
<polygon fill="#ffffff" stroke="#bfbfbf" points="75.1626,-.5 75.1626,-18.5 133.9653,-18.5 133.9653,-.5 75.1626,-.5"/>
<text text-anchor="middle" x="104.564" y="-6.5" font-family="Helvetica,sans-Serif" font-size="10.00" fill="#000000">stdexcept</text>
</g>
<!-- Node20&#45;&gt;Node23 -->
<g id="edge27" class="edge">
<title>Node20&#45;&gt;Node23</title>
<path fill="none" stroke="#191970" d="M134.6193,-55.4179C129.6466,-47.8207 122.4021,-36.7527 116.2716,-27.3866"/>
<polygon fill="#191970" stroke="#191970" points="119.0429,-25.2297 110.6378,-18.7795 113.186,-29.0633 119.0429,-25.2297"/>
</g>
<!-- Node24 -->
<g id="node25" class="node">
<title>Node24</title>
<polygon fill="#ffffff" stroke="#bfbfbf" points="152.0518,-.5 152.0518,-18.5 203.0762,-18.5 203.0762,-.5 152.0518,-.5"/>
<text text-anchor="middle" x="177.564" y="-6.5" font-family="Helvetica,sans-Serif" font-size="10.00" fill="#000000">typeinfo</text>
</g>
<!-- Node20&#45;&gt;Node24 -->
<g id="edge28" class="edge">
<title>Node20&#45;&gt;Node24</title>
<path fill="none" stroke="#191970" d="M146.6738,-55.4179C151.8378,-47.7415 159.3857,-36.5217 165.7277,-27.0945"/>
<polygon fill="#191970" stroke="#191970" points="168.6436,-29.0303 171.3214,-18.7795 162.8356,-25.1231 168.6436,-29.0303"/>
</g>
<!-- Node25 -->
<g id="node26" class="node">
<title>Node25</title>
<polygon fill="#ffffff" stroke="#bfbfbf" points="221.4976,-.5 221.4976,-18.5 283.6304,-18.5 283.6304,-.5 221.4976,-.5"/>
<text text-anchor="middle" x="252.564" y="-6.5" font-family="Helvetica,sans-Serif" font-size="10.00" fill="#000000">type_traits</text>
</g>
<!-- Node20&#45;&gt;Node25 -->
<g id="edge29" class="edge">
<title>Node20&#45;&gt;Node25</title>
<path fill="none" stroke="#191970" d="M159.0585,-55.4179C176.9731,-46.6205 204.3651,-33.1691 224.8784,-23.0956"/>
<polygon fill="#191970" stroke="#191970" points="226.6086,-26.1452 234.042,-18.5956 223.5231,-19.8619 226.6086,-26.1452"/>
</g>
<!-- Node28&#45;&gt;Node6 -->
<g id="edge49" class="edge">
<title>Node28&#45;&gt;Node6</title>
<path fill="none" stroke="#191970" d="M1031.0472,-290.4124C995.0029,-281.036 945.0315,-265.4908 933.564,-249 928.7429,-242.0671 931.5487,-238.2005 933.564,-230 941.3443,-198.3396 942.3085,-185.6174 967.564,-165 1014.5818,-126.6167 1132.7853,-155.4555 1092.564,-110 1070.0632,-84.5711 836.3693,-70.3088 751.8534,-65.9514"/>
<polygon fill="#191970" stroke="#191970" points="752.0198,-62.4555 741.856,-65.4466 751.6668,-69.4466 752.0198,-62.4555"/>
</g>
<!-- Node28&#45;&gt;Node13 -->
<g id="edge44" class="edge">
<title>Node28&#45;&gt;Node13</title>
<path fill="none" stroke="#191970" d="M1105.7542,-290.4524C1147.9655,-279.8996 1217.8112,-262.4382 1263.7633,-250.9502"/>
<polygon fill="#191970" stroke="#191970" points="1264.6197,-254.3439 1273.4722,-248.5229 1262.9219,-247.5529 1264.6197,-254.3439"/>
</g>
<!-- Node28&#45;&gt;Node15 -->
<g id="edge47" class="edge">
<title>Node28&#45;&gt;Node15</title>
<path fill="none" stroke="#191970" d="M1075.3751,-290.1962C1083.3563,-276.1069 1095.4443,-248.9913 1083.564,-230 1064.1669,-198.993 1028.961,-225.007 1009.564,-194 1002.7284,-183.073 1001.7392,-175.2419 1009.564,-165 1017.021,-155.2395 1083.0747,-139.3865 1129.8338,-129.2049"/>
<polygon fill="#191970" stroke="#191970" points="1130.7464,-132.5886 1139.7843,-127.0599 1129.2712,-125.7458 1130.7464,-132.5886"/>
</g>
<!-- Node28&#45;&gt;Node22 -->
<g id="edge48" class="edge">
<title>Node28&#45;&gt;Node22</title>
<path fill="none" stroke="#191970" d="M1087.1564,-290.4206C1138.5758,-262.7699 1281.3677,-177.379 1222.564,-110 1175.9212,-56.5553 665.8083,-20.7422 523.3325,-11.7307"/>
<polygon fill="#191970" stroke="#191970" points="523.1596,-8.2131 512.9604,-11.0811 522.722,-15.1994 523.1596,-8.2131"/>
</g>
<!-- Node29 -->
<g id="node30" class="node">
<title>Node29</title>
<g id="a_node30"><a xlink:href="ExogenousModel_8h.html" target="_top" xlink:title="BayesFilters/ExogenousModel.h">
<polygon fill="#ffffff" stroke="#000000" points="1018.8599,-170.5 1018.8599,-188.5 1178.2681,-188.5 1178.2681,-170.5 1018.8599,-170.5"/>
<text text-anchor="middle" x="1098.564" y="-176.5" font-family="Helvetica,sans-Serif" font-size="10.00" fill="#000000">BayesFilters/ExogenousModel.h</text>
</a>
</g>
</g>
<!-- Node28&#45;&gt;Node29 -->
<g id="edge42" class="edge">
<title>Node28&#45;&gt;Node29</title>
<path fill="none" stroke="#191970" d="M1082.3453,-290.3623C1093.7679,-281.3364 1109.7247,-266.3873 1116.564,-249 1123.2365,-232.0364 1116.4105,-211.7723 1109.3313,-197.5151"/>
<polygon fill="#191970" stroke="#191970" points="1112.4019,-195.8351 1104.5527,-188.7189 1106.2509,-199.1767 1112.4019,-195.8351"/>
</g>
<!-- Node30 -->
<g id="node31" class="node">
<title>Node30</title>
<g id="a_node31"><a xlink:href="StateModel_8h.html" target="_top" xlink:title="BayesFilters/StateModel.h">
<polygon fill="#ffffff" stroke="#000000" points="942.2046,-230.5 942.2046,-248.5 1074.9233,-248.5 1074.9233,-230.5 942.2046,-230.5"/>
<text text-anchor="middle" x="1008.564" y="-236.5" font-family="Helvetica,sans-Serif" font-size="10.00" fill="#000000">BayesFilters/StateModel.h</text>
</a>
</g>
</g>
<!-- Node28&#45;&gt;Node30 -->
<g id="edge45" class="edge">
<title>Node28&#45;&gt;Node30</title>
<path fill="none" stroke="#191970" d="M1060.2994,-290.3873C1050.9839,-281.2245 1036.4216,-266.9009 1025.117,-255.7817"/>
<polygon fill="#191970" stroke="#191970" points="1027.4994,-253.2156 1017.9157,-248.6985 1022.5907,-258.2061 1027.4994,-253.2156"/>
</g>
<!-- Node29&#45;&gt;Node15 -->
<g id="edge43" class="edge">
<title>Node29&#45;&gt;Node15</title>
<path fill="none" stroke="#191970" d="M1110.4105,-170.3873C1122.737,-160.9054 1142.2479,-145.897 1156.8925,-134.6319"/>
<polygon fill="#191970" stroke="#191970" points="1159.0693,-137.3732 1164.8615,-128.5019 1154.8013,-131.8248 1159.0693,-137.3732"/>
</g>
<!-- Node30&#45;&gt;Node15 -->
<g id="edge46" class="edge">
<title>Node30&#45;&gt;Node15</title>
<path fill="none" stroke="#191970" d="M999.0314,-230.4259C984.5251,-215.5196 960.2321,-185.4646 976.564,-165 981.3964,-158.9446 1072.1058,-140.0912 1129.686,-128.6411"/>
<polygon fill="#191970" stroke="#191970" points="1130.544,-132.0393 1139.6735,-126.6631 1129.1841,-125.1726 1130.544,-132.0393"/>
</g>
<!-- Node31&#45;&gt;Node13 -->
<g id="edge52" class="edge">
<title>Node31&#45;&gt;Node13</title>
<path fill="none" stroke="#191970" d="M1388.4393,-290.3873C1373.4676,-280.7281 1349.6066,-265.334 1332.0455,-254.0042"/>
<polygon fill="#191970" stroke="#191970" points="1333.8173,-250.9821 1323.5169,-248.5019 1330.0224,-256.8642 1333.8173,-250.9821"/>
</g>
<!-- Node31&#45;&gt;Node15 -->
<g id="edge53" class="edge">
<title>Node31&#45;&gt;Node15</title>
<path fill="none" stroke="#191970" d="M1409.9239,-290.4796C1428.1564,-267.0002 1471.6938,-203.1657 1439.564,-165 1412.4558,-132.7993 1291.3704,-123.3871 1223.3444,-120.6361"/>
<polygon fill="#191970" stroke="#191970" points="1223.4306,-117.137 1213.3075,-120.2629 1223.1705,-124.1321 1223.4306,-117.137"/>
</g>
<!-- Node32 -->
<g id="node33" class="node">
<title>Node32</title>
<polygon fill="#ffffff" stroke="#bfbfbf" points="1490.6108,-230.5 1490.6108,-248.5 1540.5171,-248.5 1540.5171,-230.5 1490.6108,-230.5"/>
<text text-anchor="middle" x="1515.564" y="-236.5" font-family="Helvetica,sans-Serif" font-size="10.00" fill="#000000">random</text>
</g>
<!-- Node31&#45;&gt;Node32 -->
<g id="edge51" class="edge">
<title>Node31&#45;&gt;Node32</title>
<path fill="none" stroke="#191970" d="M1419.7262,-290.3873C1438.3349,-280.5066 1468.2456,-264.6248 1489.7036,-253.2312"/>
<polygon fill="#191970" stroke="#191970" points="1491.4196,-256.2828 1498.6104,-248.5019 1488.1369,-250.1003 1491.4196,-256.2828"/>
</g>
</g>
</svg>
