<?xml version="1.0" encoding="UTF-8" standalone="no"?>
<!DOCTYPE svg PUBLIC "-//W3C//DTD SVG 1.1//EN"
 "http://www.w3.org/Graphics/SVG/1.1/DTD/svg11.dtd">
<!-- Generated by graphviz version 2.40.1 (20161225.0304)
 -->
<!-- Title: /Users/Claudio/GitHub/bayes&#45;filters&#45;lib/src/BayesFilters/src/StateModel.cpp Pages: 1 -->
<svg width="170pt" height="157pt"
 viewBox="0.00 0.00 170.17 157.00" xmlns="http://www.w3.org/2000/svg" xmlns:xlink="http://www.w3.org/1999/xlink">
<g id="graph0" class="graph" transform="scale(1 1) rotate(0) translate(4 153)">
<title>/Users/Claudio/GitHub/bayes&#45;filters&#45;lib/src/BayesFilters/src/StateModel.cpp</title>
<polygon fill="#ffffff" stroke="transparent" points="-4,4 -4,-153 166.167,-153 166.167,4 -4,4"/>
<!-- Node0 -->
<g id="node1" class="node">
<title>Node0</title>
<polygon fill="#bfbfbf" stroke="#000000" points="0,-110.5 0,-148.5 162.167,-148.5 162.167,-110.5 0,-110.5"/>
<text text-anchor="start" x="8" y="-136.5" font-family="Helvetica,sans-Serif" font-size="10.00" fill="#000000">/Users/Claudio/GitHub</text>
<text text-anchor="start" x="8" y="-126.5" font-family="Helvetica,sans-Serif" font-size="10.00" fill="#000000">/bayes&#45;filters&#45;lib/src</text>
<text text-anchor="middle" x="81.0835" y="-116.5" font-family="Helvetica,sans-Serif" font-size="10.00" fill="#000000">/BayesFilters/src/StateModel.cpp</text>
</g>
<!-- Node1 -->
<g id="node2" class="node">
<title>Node1</title>
<g id="a_node2"><a xlink:href="StateModel_8h.html" target="_top" xlink:title="BayesFilters/StateModel.h">
<polygon fill="#ffffff" stroke="#000000" points="14.7241,-55.5 14.7241,-73.5 147.4429,-73.5 147.4429,-55.5 14.7241,-55.5"/>
<text text-anchor="middle" x="81.0835" y="-61.5" font-family="Helvetica,sans-Serif" font-size="10.00" fill="#000000">BayesFilters/StateModel.h</text>
</a>
</g>
</g>
<!-- Node0&#45;&gt;Node1 -->
<g id="edge1" class="edge">
<title>Node0&#45;&gt;Node1</title>
<path fill="none" stroke="#191970" d="M81.0835,-110.3494C81.0835,-102.0079 81.0835,-92.2463 81.0835,-83.879"/>
<polygon fill="#191970" stroke="#191970" points="84.5836,-83.5978 81.0835,-73.5978 77.5836,-83.5979 84.5836,-83.5978"/>
</g>
<!-- Node2 -->
<g id="node3" class="node">
<title>Node2</title>
<polygon fill="#ffffff" stroke="#bfbfbf" points="44.4531,-.5 44.4531,-18.5 117.7139,-18.5 117.7139,-.5 44.4531,-.5"/>
<text text-anchor="middle" x="81.0835" y="-6.5" font-family="Helvetica,sans-Serif" font-size="10.00" fill="#000000">Eigen/Dense</text>
</g>
<!-- Node1&#45;&gt;Node2 -->
<g id="edge2" class="edge">
<title>Node1&#45;&gt;Node2</title>
<path fill="none" stroke="#191970" d="M81.0835,-55.4179C81.0835,-48.2164 81.0835,-37.8962 81.0835,-28.8632"/>
<polygon fill="#191970" stroke="#191970" points="84.5836,-28.7794 81.0835,-18.7795 77.5836,-28.7795 84.5836,-28.7794"/>
</g>
</g>
</svg>
