<?xml version="1.0" encoding="UTF-8" standalone="no"?>
<!DOCTYPE svg PUBLIC "-//W3C//DTD SVG 1.1//EN"
 "http://www.w3.org/Graphics/SVG/1.1/DTD/svg11.dtd">
<!-- Generated by graphviz version 2.40.1 (20161225.0304)
 -->
<!-- Title: /Users/Claudio/GitHub/bayes&#45;filters&#45;lib/src/BayesFilters/src/StateModelDecorator.cpp Pages: 1 -->
<svg width="232pt" height="212pt"
 viewBox="0.00 0.00 232.12 212.00" xmlns="http://www.w3.org/2000/svg" xmlns:xlink="http://www.w3.org/1999/xlink">
<g id="graph0" class="graph" transform="scale(1 1) rotate(0) translate(4 208)">
<title>/Users/Claudio/GitHub/bayes&#45;filters&#45;lib/src/BayesFilters/src/StateModelDecorator.cpp</title>
<polygon fill="#ffffff" stroke="transparent" points="-4,4 -4,-208 228.1226,-208 228.1226,4 -4,4"/>
<!-- Node0 -->
<g id="node1" class="node">
<title>Node0</title>
<polygon fill="#bfbfbf" stroke="#000000" points="18.5962,-165.5 18.5962,-203.5 224.1226,-203.5 224.1226,-165.5 18.5962,-165.5"/>
<text text-anchor="start" x="26.5962" y="-191.5" font-family="Helvetica,sans-Serif" font-size="10.00" fill="#000000">/Users/Claudio/GitHub</text>
<text text-anchor="start" x="26.5962" y="-181.5" font-family="Helvetica,sans-Serif" font-size="10.00" fill="#000000">/bayes&#45;filters&#45;lib/src</text>
<text text-anchor="middle" x="121.3594" y="-171.5" font-family="Helvetica,sans-Serif" font-size="10.00" fill="#000000">/BayesFilters/src/StateModelDecorator.cpp</text>
</g>
<!-- Node1 -->
<g id="node2" class="node">
<title>Node1</title>
<g id="a_node2"><a xlink:href="StateModelDecorator_8h.html" target="_top" xlink:title="BayesFilters/StateModelDecorator.h">
<polygon fill="#ffffff" stroke="#000000" points="33.3203,-110.5 33.3203,-128.5 209.3984,-128.5 209.3984,-110.5 33.3203,-110.5"/>
<text text-anchor="middle" x="121.3594" y="-116.5" font-family="Helvetica,sans-Serif" font-size="10.00" fill="#000000">BayesFilters/StateModelDecorator.h</text>
</a>
</g>
</g>
<!-- Node0&#45;&gt;Node1 -->
<g id="edge1" class="edge">
<title>Node0&#45;&gt;Node1</title>
<path fill="none" stroke="#191970" d="M121.3594,-165.3494C121.3594,-157.0079 121.3594,-147.2463 121.3594,-138.879"/>
<polygon fill="#191970" stroke="#191970" points="124.8595,-138.5978 121.3594,-128.5978 117.8595,-138.5979 124.8595,-138.5978"/>
</g>
<!-- Node2 -->
<g id="node3" class="node">
<title>Node2</title>
<g id="a_node3"><a xlink:href="StateModel_8h.html" target="_top" xlink:title="BayesFilters/StateModel.h">
<polygon fill="#ffffff" stroke="#000000" points="0,-55.5 0,-73.5 132.7188,-73.5 132.7188,-55.5 0,-55.5"/>
<text text-anchor="middle" x="66.3594" y="-61.5" font-family="Helvetica,sans-Serif" font-size="10.00" fill="#000000">BayesFilters/StateModel.h</text>
</a>
</g>
</g>
<!-- Node1&#45;&gt;Node2 -->
<g id="edge2" class="edge">
<title>Node1&#45;&gt;Node2</title>
<path fill="none" stroke="#191970" d="M112.2772,-110.4179C104.2844,-102.425 92.4497,-90.5903 82.7971,-80.9377"/>
<polygon fill="#191970" stroke="#191970" points="85.1848,-78.3757 75.6388,-73.7795 80.235,-83.3254 85.1848,-78.3757"/>
</g>
<!-- Node4 -->
<g id="node5" class="node">
<title>Node4</title>
<polygon fill="#ffffff" stroke="#bfbfbf" points="150.3027,-55.5 150.3027,-73.5 202.416,-73.5 202.416,-55.5 150.3027,-55.5"/>
<text text-anchor="middle" x="176.3594" y="-61.5" font-family="Helvetica,sans-Serif" font-size="10.00" fill="#000000">memory</text>
</g>
<!-- Node1&#45;&gt;Node4 -->
<g id="edge4" class="edge">
<title>Node1&#45;&gt;Node4</title>
<path fill="none" stroke="#191970" d="M130.4415,-110.4179C138.4344,-102.425 150.269,-90.5903 159.9216,-80.9377"/>
<polygon fill="#191970" stroke="#191970" points="162.4837,-83.3254 167.0799,-73.7795 157.5339,-78.3757 162.4837,-83.3254"/>
</g>
<!-- Node3 -->
<g id="node4" class="node">
<title>Node3</title>
<polygon fill="#ffffff" stroke="#bfbfbf" points="29.729,-.5 29.729,-18.5 102.9897,-18.5 102.9897,-.5 29.729,-.5"/>
<text text-anchor="middle" x="66.3594" y="-6.5" font-family="Helvetica,sans-Serif" font-size="10.00" fill="#000000">Eigen/Dense</text>
</g>
<!-- Node2&#45;&gt;Node3 -->
<g id="edge3" class="edge">
<title>Node2&#45;&gt;Node3</title>
<path fill="none" stroke="#191970" d="M66.3594,-55.4179C66.3594,-48.2164 66.3594,-37.8962 66.3594,-28.8632"/>
<polygon fill="#191970" stroke="#191970" points="69.8595,-28.7794 66.3594,-18.7795 62.8595,-28.7795 69.8595,-28.7794"/>
</g>
</g>
</svg>
