<?xml version="1.0" encoding="UTF-8" standalone="no"?>
<!DOCTYPE svg PUBLIC "-//W3C//DTD SVG 1.1//EN"
 "http://www.w3.org/Graphics/SVG/1.1/DTD/svg11.dtd">
<!-- Generated by graphviz version 2.40.1 (20161225.0304)
 -->
<!-- Title: /Users/Claudio/GitHub/bayes&#45;filters&#45;lib/src/BayesFilters/include/BayesFilters/StateModelDecorator.h Pages: 1 -->
<svg width="212pt" height="167pt"
 viewBox="0.00 0.00 212.39 167.00" xmlns="http://www.w3.org/2000/svg" xmlns:xlink="http://www.w3.org/1999/xlink">
<g id="graph0" class="graph" transform="scale(1 1) rotate(0) translate(4 163)">
<title>/Users/Claudio/GitHub/bayes&#45;filters&#45;lib/src/BayesFilters/include/BayesFilters/StateModelDecorator.h</title>
<polygon fill="#ffffff" stroke="transparent" points="-4,4 -4,-163 208.3862,-163 208.3862,4 -4,4"/>
<!-- Node0 -->
<g id="node1" class="node">
<title>Node0</title>
<polygon fill="#bfbfbf" stroke="#000000" points="38.3325,-110.5 38.3325,-158.5 204.3862,-158.5 204.3862,-110.5 38.3325,-110.5"/>
<text text-anchor="start" x="46.3325" y="-146.5" font-family="Helvetica,sans-Serif" font-size="10.00" fill="#000000">/Users/Claudio/GitHub</text>
<text text-anchor="start" x="46.3325" y="-136.5" font-family="Helvetica,sans-Serif" font-size="10.00" fill="#000000">/bayes&#45;filters&#45;lib/src</text>
<text text-anchor="start" x="46.3325" y="-126.5" font-family="Helvetica,sans-Serif" font-size="10.00" fill="#000000">/BayesFilters/include/BayesFilters</text>
<text text-anchor="middle" x="121.3594" y="-116.5" font-family="Helvetica,sans-Serif" font-size="10.00" fill="#000000">/StateModelDecorator.h</text>
</g>
<!-- Node1 -->
<g id="node2" class="node">
<title>Node1</title>
<g id="a_node2"><a xlink:href="StateModel_8h.html" target="_top" xlink:title="BayesFilters/StateModel.h">
<polygon fill="#ffffff" stroke="#000000" points="0,-55.5 0,-73.5 132.7188,-73.5 132.7188,-55.5 0,-55.5"/>
<text text-anchor="middle" x="66.3594" y="-61.5" font-family="Helvetica,sans-Serif" font-size="10.00" fill="#000000">BayesFilters/StateModel.h</text>
</a>
</g>
</g>
<!-- Node0&#45;&gt;Node1 -->
<g id="edge1" class="edge">
<title>Node0&#45;&gt;Node1</title>
<path fill="none" stroke="#191970" d="M102.4315,-110.41C94.9739,-100.9185 86.5818,-90.2376 79.7699,-81.568"/>
<polygon fill="#191970" stroke="#191970" points="82.5083,-79.3881 73.5779,-73.6872 77.0041,-83.7128 82.5083,-79.3881"/>
</g>
<!-- Node3 -->
<g id="node4" class="node">
<title>Node3</title>
<polygon fill="#ffffff" stroke="#bfbfbf" points="150.3027,-55.5 150.3027,-73.5 202.416,-73.5 202.416,-55.5 150.3027,-55.5"/>
<text text-anchor="middle" x="176.3594" y="-61.5" font-family="Helvetica,sans-Serif" font-size="10.00" fill="#000000">memory</text>
</g>
<!-- Node0&#45;&gt;Node3 -->
<g id="edge3" class="edge">
<title>Node0&#45;&gt;Node3</title>
<path fill="none" stroke="#191970" d="M140.2873,-110.41C147.7449,-100.9185 156.137,-90.2376 162.9488,-81.568"/>
<polygon fill="#191970" stroke="#191970" points="165.7147,-83.7128 169.1408,-73.6872 160.2105,-79.3881 165.7147,-83.7128"/>
</g>
<!-- Node2 -->
<g id="node3" class="node">
<title>Node2</title>
<polygon fill="#ffffff" stroke="#bfbfbf" points="29.729,-.5 29.729,-18.5 102.9897,-18.5 102.9897,-.5 29.729,-.5"/>
<text text-anchor="middle" x="66.3594" y="-6.5" font-family="Helvetica,sans-Serif" font-size="10.00" fill="#000000">Eigen/Dense</text>
</g>
<!-- Node1&#45;&gt;Node2 -->
<g id="edge2" class="edge">
<title>Node1&#45;&gt;Node2</title>
<path fill="none" stroke="#191970" d="M66.3594,-55.4179C66.3594,-48.2164 66.3594,-37.8962 66.3594,-28.8632"/>
<polygon fill="#191970" stroke="#191970" points="69.8595,-28.7794 66.3594,-18.7795 62.8595,-28.7795 69.8595,-28.7794"/>
</g>
</g>
</svg>
