<?xml version="1.0" encoding="UTF-8" standalone="no"?>
<!DOCTYPE svg PUBLIC "-//W3C//DTD SVG 1.1//EN"
 "http://www.w3.org/Graphics/SVG/1.1/DTD/svg11.dtd">
<!-- Generated by graphviz version 2.40.1 (20161225.0304)
 -->
<!-- Title: bfl::sigma_point::UTWeight::UTWeight Pages: 1 -->
<svg width="318pt" height="37pt"
 viewBox="0.00 0.00 317.62 37.00" xmlns="http://www.w3.org/2000/svg" xmlns:xlink="http://www.w3.org/1999/xlink">
<g id="graph0" class="graph" transform="scale(1 1) rotate(0) translate(4 33)">
<title>bfl::sigma_point::UTWeight::UTWeight</title>
<polygon fill="#ffffff" stroke="transparent" points="-4,4 -4,-33 313.6162,-33 313.6162,4 -4,4"/>
<!-- Node0 -->
<g id="node1" class="node">
<title>Node0</title>
<polygon fill="#bfbfbf" stroke="#000000" points="0,-.5 0,-28.5 135.873,-28.5 135.873,-.5 0,-.5"/>
<text text-anchor="start" x="8" y="-16.5" font-family="Helvetica,sans-Serif" font-size="10.00" fill="#000000">bfl::sigma_point::UTWeight</text>
<text text-anchor="middle" x="67.9365" y="-6.5" font-family="Helvetica,sans-Serif" font-size="10.00" fill="#000000">::UTWeight</text>
</g>
<!-- Node1 -->
<g id="node2" class="node">
<title>Node1</title>
<g id="a_node2"><a xlink:href="namespacebfl_1_1sigma__point.html#a2cdca209c158edd6440c2f077b345799" target="_top" xlink:title="bfl::sigma_point::unscented\l_weights">
<polygon fill="#ffffff" stroke="#000000" points="171.873,-.5 171.873,-28.5 309.6162,-28.5 309.6162,-.5 171.873,-.5"/>
<text text-anchor="start" x="179.873" y="-16.5" font-family="Helvetica,sans-Serif" font-size="10.00" fill="#000000">bfl::sigma_point::unscented</text>
<text text-anchor="middle" x="240.7446" y="-6.5" font-family="Helvetica,sans-Serif" font-size="10.00" fill="#000000">_weights</text>
</a>
</g>
</g>
<!-- Node0&#45;&gt;Node1 -->
<g id="edge1" class="edge">
<title>Node0&#45;&gt;Node1</title>
<path fill="none" stroke="#191970" d="M136.2349,-14.5C144.5517,-14.5 153.1028,-14.5 161.561,-14.5"/>
<polygon fill="#191970" stroke="#191970" points="161.81,-18.0001 171.81,-14.5 161.81,-11.0001 161.81,-18.0001"/>
</g>
</g>
</svg>
