<?xml version="1.0" encoding="UTF-8" standalone="no"?>
<!DOCTYPE svg PUBLIC "-//W3C//DTD SVG 1.1//EN"
 "http://www.w3.org/Graphics/SVG/1.1/DTD/svg11.dtd">
<!-- Generated by graphviz version 2.40.1 (20161225.0304)
 -->
<!-- Title: /Users/Claudio/GitHub/bayes&#45;filters&#45;lib/src/BayesFilters/src/SUKFCorrection.cpp Pages: 1 -->
<!--zoomable 462 -->
<svg id="main" version="1.1" xmlns="http://www.w3.org/2000/svg" xmlns:xlink="http://www.w3.org/1999/xlink" xml:space="preserve" onload="init(evt)">
<style type="text/css"><![CDATA[
.edge:hover path { stroke: red; }
.edge:hover polygon { stroke: red; fill: red; }
]]></style>
<script type="text/javascript"><![CDATA[
var edges = document.getElementsByTagName('g');
if (edges && edges.length) {
  for (var i=0;i<edges.length;i++) {
    if (edges[i].id.substr(0,4)=='edge') {
      edges[i].setAttribute('class','edge');
    }
  }
}
]]></script>
        <defs>
                <circle id="rim" cx="0" cy="0" r="7"/>
                <circle id="rim2" cx="0" cy="0" r="3.5"/>
                <g id="zoomPlus">
                        <use xlink:href="#rim" fill="#404040">
                                <set attributeName="fill" to="#808080" begin="zoomplus.mouseover" end="zoomplus.mouseout"/>
                        </use>
                        <path d="M-4,0h8M0,-4v8" fill="none" stroke="white" stroke-width="1.5" pointer-events="none"/>
                </g>
                <g id="zoomMin">
                        <use xlink:href="#rim" fill="#404040">
                                <set attributeName="fill" to="#808080" begin="zoomminus.mouseover" end="zoomminus.mouseout"/>
                        </use>
                        <path d="M-4,0h8" fill="none" stroke="white" stroke-width="1.5" pointer-events="none"/>
                </g>
                <g id="dirArrow">
                        <path fill="none" stroke="white" stroke-width="1.5" d="M0,-3.0v7 M-2.5,-0.5L0,-3.0L2.5,-0.5"/>
                </g>
               <g id="resetDef">
                       <use xlink:href="#rim2" fill="#404040">
                               <set attributeName="fill" to="#808080" begin="reset.mouseover" end="reset.mouseout"/>
                       </use>
               </g>
        </defs>

<script type="text/javascript">
var viewWidth = 1069;
var viewHeight = 462;
var sectionId = 'dynsection-0';
</script>
<script xlink:href="svgpan.js"/>
<svg id="graph" class="graph">
<g id="viewport">
<title>/Users/Claudio/GitHub/bayes&#45;filters&#45;lib/src/BayesFilters/src/SUKFCorrection.cpp</title>
<polygon fill="#ffffff" stroke="transparent" points="-4,4 -4,-458 1064.59,-458 1064.59,4 -4,4"/>
<!-- Node0 -->
<g id="node1" class="node">
<title>Node0</title>
<polygon fill="#bfbfbf" stroke="#000000" points="528.7135,-415.5 528.7135,-453.5 713.0924,-453.5 713.0924,-415.5 528.7135,-415.5"/>
<text text-anchor="start" x="536.7135" y="-441.5" font-family="Helvetica,sans-Serif" font-size="10.00" fill="#000000">/Users/Claudio/GitHub</text>
<text text-anchor="start" x="536.7135" y="-431.5" font-family="Helvetica,sans-Serif" font-size="10.00" fill="#000000">/bayes&#45;filters&#45;lib/src</text>
<text text-anchor="middle" x="620.903" y="-421.5" font-family="Helvetica,sans-Serif" font-size="10.00" fill="#000000">/BayesFilters/src/SUKFCorrection.cpp</text>
</g>
<!-- Node1 -->
<g id="node2" class="node">
<title>Node1</title>
<g id="a_node2"><a xlink:href="SUKFCorrection_8h.html" target="_top" xlink:title="BayesFilters/SUKFCorrection.h">
<polygon fill="#ffffff" stroke="#000000" points="491.4376,-360.5 491.4376,-378.5 646.3683,-378.5 646.3683,-360.5 491.4376,-360.5"/>
<text text-anchor="middle" x="568.903" y="-366.5" font-family="Helvetica,sans-Serif" font-size="10.00" fill="#000000">BayesFilters/SUKFCorrection.h</text>
</a>
</g>
</g>
<!-- Node0&#45;&gt;Node1 -->
<g id="edge1" class="edge">
<title>Node0&#45;&gt;Node1</title>
<path fill="none" stroke="#191970" d="M605.5825,-415.3494C598.3026,-406.2495 589.6707,-395.4597 582.61,-386.6338"/>
<polygon fill="#191970" stroke="#191970" points="585.1613,-384.2201 576.1812,-378.5978 579.6952,-388.593 585.1613,-384.2201"/>
</g>
<!-- Node25 -->
<g id="node26" class="node">
<title>Node25</title>
<g id="a_node26"><a xlink:href="directional__statistics_8h.html" target="_top" xlink:title="BayesFilters/directional\l_statistics.h">
<polygon fill="#ffffff" stroke="#000000" points="941.216,-295.5 941.216,-323.5 1060.59,-323.5 1060.59,-295.5 941.216,-295.5"/>
<text text-anchor="start" x="949.216" y="-311.5" font-family="Helvetica,sans-Serif" font-size="10.00" fill="#000000">BayesFilters/directional</text>
<text text-anchor="middle" x="1000.903" y="-301.5" font-family="Helvetica,sans-Serif" font-size="10.00" fill="#000000">_statistics.h</text>
</a>
</g>
</g>
<!-- Node0&#45;&gt;Node25 -->
<g id="edge42" class="edge">
<title>Node0&#45;&gt;Node25</title>
<path fill="none" stroke="#191970" d="M679.0304,-415.3791C752.501,-391.2112 877.8832,-349.967 948.5199,-326.7313"/>
<polygon fill="#191970" stroke="#191970" points="949.707,-330.0253 958.1126,-323.5758 947.5197,-323.3759 949.707,-330.0253"/>
</g>
<!-- Node2 -->
<g id="node3" class="node">
<title>Node2</title>
<g id="a_node3"><a xlink:href="AdditiveMeasurementModel_8h.html" target="_top" xlink:title="BayesFilters/AdditiveMeasurement\lModel.h">
<polygon fill="#ffffff" stroke="#000000" points="850.6495,-230.5 850.6495,-258.5 1021.1564,-258.5 1021.1564,-230.5 850.6495,-230.5"/>
<text text-anchor="start" x="858.6495" y="-246.5" font-family="Helvetica,sans-Serif" font-size="10.00" fill="#000000">BayesFilters/AdditiveMeasurement</text>
<text text-anchor="middle" x="935.903" y="-236.5" font-family="Helvetica,sans-Serif" font-size="10.00" fill="#000000">Model.h</text>
</a>
</g>
</g>
<!-- Node1&#45;&gt;Node2 -->
<g id="edge2" class="edge">
<title>Node1&#45;&gt;Node2</title>
<path fill="none" stroke="#191970" d="M595.5923,-360.4096C656.3342,-339.721 805.7442,-288.832 884.8534,-261.8875"/>
<polygon fill="#191970" stroke="#191970" points="886.2681,-265.1031 894.6056,-258.5658 884.0112,-258.4769 886.2681,-265.1031"/>
</g>
<!-- Node17 -->
<g id="node18" class="node">
<title>Node17</title>
<polygon fill="#ffffff" stroke="#bfbfbf" points="422.2726,-110.5 422.2726,-128.5 495.5333,-128.5 495.5333,-110.5 422.2726,-110.5"/>
<text text-anchor="middle" x="458.903" y="-116.5" font-family="Helvetica,sans-Serif" font-size="10.00" fill="#000000">Eigen/Dense</text>
</g>
<!-- Node1&#45;&gt;Node17 -->
<g id="edge41" class="edge">
<title>Node1&#45;&gt;Node17</title>
<path fill="none" stroke="#191970" d="M491.3846,-364.5128C429.4728,-358.947 341.1027,-347.4271 266.903,-324 143.3235,-284.9821 74.1184,-304.1859 5.903,-194 -.8815,-183.0413 -2.7435,-174.5584 5.903,-165 32.8067,-135.2587 301.7672,-124.0772 412.077,-120.7203"/>
<polygon fill="#191970" stroke="#191970" points="412.3514,-124.2138 422.2435,-120.4195 412.1443,-117.2168 412.3514,-124.2138"/>
</g>
<!-- Node18 -->
<g id="node19" class="node">
<title>Node18</title>
<g id="a_node19"><a xlink:href="GaussianCorrection_8h.html" target="_top" xlink:title="BayesFilters/GaussianCorrection.h">
<polygon fill="#ffffff" stroke="#000000" points="624.6495,-235.5 624.6495,-253.5 795.1564,-253.5 795.1564,-235.5 624.6495,-235.5"/>
<text text-anchor="middle" x="709.903" y="-241.5" font-family="Helvetica,sans-Serif" font-size="10.00" fill="#000000">BayesFilters/GaussianCorrection.h</text>
</a>
</g>
</g>
<!-- Node1&#45;&gt;Node18 -->
<g id="edge20" class="edge">
<title>Node1&#45;&gt;Node18</title>
<path fill="none" stroke="#191970" d="M579.5009,-360.1047C603.5028,-338.8264 662.2334,-286.7603 691.9928,-260.3778"/>
<polygon fill="#191970" stroke="#191970" points="694.4042,-262.9174 699.5653,-253.6646 689.7605,-257.6794 694.4042,-262.9174"/>
</g>
<!-- Node19 -->
<g id="node20" class="node">
<title>Node19</title>
<g id="a_node20"><a xlink:href="GaussianMixture_8h.html" target="_top" xlink:title="BayesFilters/GaussianMixture.h">
<polygon fill="#ffffff" stroke="#000000" points="15.3219,-170.5 15.3219,-188.5 172.484,-188.5 172.484,-170.5 15.3219,-170.5"/>
<text text-anchor="middle" x="93.903" y="-176.5" font-family="Helvetica,sans-Serif" font-size="10.00" fill="#000000">BayesFilters/GaussianMixture.h</text>
</a>
</g>
</g>
<!-- Node1&#45;&gt;Node19 -->
<g id="edge26" class="edge">
<title>Node1&#45;&gt;Node19</title>
<path fill="none" stroke="#191970" d="M508.2302,-360.4766C429.7955,-346.9746 290.7321,-316.694 184.903,-259 154.3949,-242.3682 125.2706,-213.9783 108.5106,-196.0076"/>
<polygon fill="#191970" stroke="#191970" points="111.045,-193.5925 101.7196,-188.5637 105.8736,-198.3103 111.045,-193.5925"/>
</g>
<!-- Node20 -->
<g id="node21" class="node">
<title>Node20</title>
<g id="a_node21"><a xlink:href="sigma__point_8h.html" target="_top" xlink:title="BayesFilters/sigma\l_point.h">
<polygon fill="#ffffff" stroke="#000000" points="479.6691,-295.5 479.6691,-323.5 580.1369,-323.5 580.1369,-295.5 479.6691,-295.5"/>
<text text-anchor="start" x="487.6691" y="-311.5" font-family="Helvetica,sans-Serif" font-size="10.00" fill="#000000">BayesFilters/sigma</text>
<text text-anchor="middle" x="529.903" y="-301.5" font-family="Helvetica,sans-Serif" font-size="10.00" fill="#000000">_point.h</text>
</a>
</g>
</g>
<!-- Node1&#45;&gt;Node20 -->
<g id="edge27" class="edge">
<title>Node1&#45;&gt;Node20</title>
<path fill="none" stroke="#191970" d="M562.9797,-360.3873C558.1506,-352.9579 551.1161,-342.1356 544.7747,-332.3796"/>
<polygon fill="#191970" stroke="#191970" points="547.6134,-330.3246 539.2289,-323.8477 541.7443,-334.1396 547.6134,-330.3246"/>
</g>
<!-- Node3 -->
<g id="node4" class="node">
<title>Node3</title>
<g id="a_node4"><a xlink:href="MeasurementModel_8h.html" target="_top" xlink:title="BayesFilters/Measurement\lModel.h">
<polygon fill="#ffffff" stroke="#000000" points="776.4376,-165.5 776.4376,-193.5 911.3683,-193.5 911.3683,-165.5 776.4376,-165.5"/>
<text text-anchor="start" x="784.4376" y="-181.5" font-family="Helvetica,sans-Serif" font-size="10.00" fill="#000000">BayesFilters/Measurement</text>
<text text-anchor="middle" x="843.903" y="-171.5" font-family="Helvetica,sans-Serif" font-size="10.00" fill="#000000">Model.h</text>
</a>
</g>
</g>
<!-- Node2&#45;&gt;Node3 -->
<g id="edge3" class="edge">
<title>Node2&#45;&gt;Node3</title>
<path fill="none" stroke="#191970" d="M915.9403,-230.396C903.1611,-221.3672 886.3844,-209.5141 872.2366,-199.5184"/>
<polygon fill="#191970" stroke="#191970" points="874.0135,-196.4883 863.8266,-193.5765 869.9742,-202.2054 874.0135,-196.4883"/>
</g>
<!-- Node4 -->
<g id="node5" class="node">
<title>Node4</title>
<g id="a_node5"><a xlink:href="Data_8h.html" target="_top" xlink:title="BayesFilters/Data.h">
<polygon fill="#ffffff" stroke="#000000" points="591.275,-110.5 591.275,-128.5 694.5309,-128.5 694.5309,-110.5 591.275,-110.5"/>
<text text-anchor="middle" x="642.903" y="-116.5" font-family="Helvetica,sans-Serif" font-size="10.00" fill="#000000">BayesFilters/Data.h</text>
</a>
</g>
</g>
<!-- Node3&#45;&gt;Node4 -->
<g id="edge4" class="edge">
<title>Node3&#45;&gt;Node4</title>
<path fill="none" stroke="#191970" d="M796.7774,-165.4327C762.181,-155.1054 715.6969,-141.2295 682.9025,-131.4402"/>
<polygon fill="#191970" stroke="#191970" points="683.7761,-128.0484 673.1927,-128.5417 681.7738,-134.7559 683.7761,-128.0484"/>
</g>
<!-- Node7 -->
<g id="node8" class="node">
<title>Node7</title>
<polygon fill="#ffffff" stroke="#bfbfbf" points="884.8463,-.5 884.8463,-18.5 936.9596,-18.5 936.9596,-.5 884.8463,-.5"/>
<text text-anchor="middle" x="910.903" y="-6.5" font-family="Helvetica,sans-Serif" font-size="10.00" fill="#000000">memory</text>
</g>
<!-- Node3&#45;&gt;Node7 -->
<g id="edge16" class="edge">
<title>Node3&#45;&gt;Node7</title>
<path fill="none" stroke="#191970" d="M885.3048,-165.4005C901.9367,-157.4634 919.3947,-145.7088 928.903,-129 947.1529,-96.9295 931.8313,-52.5224 920.4525,-27.8663"/>
<polygon fill="#191970" stroke="#191970" points="923.461,-26.0509 915.9266,-18.6022 917.1714,-29.1236 923.461,-26.0509"/>
</g>
<!-- Node11 -->
<g id="node12" class="node">
<title>Node11</title>
<g id="a_node12"><a xlink:href="Logger_8h.html" target="_top" xlink:title="BayesFilters/Logger.h">
<polygon fill="#ffffff" stroke="#000000" points="807.5411,-110.5 807.5411,-128.5 920.2648,-128.5 920.2648,-110.5 807.5411,-110.5"/>
<text text-anchor="middle" x="863.903" y="-116.5" font-family="Helvetica,sans-Serif" font-size="10.00" fill="#000000">BayesFilters/Logger.h</text>
</a>
</g>
</g>
<!-- Node3&#45;&gt;Node11 -->
<g id="edge11" class="edge">
<title>Node3&#45;&gt;Node11</title>
<path fill="none" stroke="#191970" d="M848.6427,-165.2808C851.3363,-157.2 854.7418,-146.9836 857.6519,-138.2531"/>
<polygon fill="#191970" stroke="#191970" points="861.033,-139.1778 860.8749,-128.5842 854.3922,-136.9642 861.033,-139.1778"/>
</g>
<!-- Node14 -->
<g id="node15" class="node">
<title>Node14</title>
<polygon fill="#ffffff" stroke="#bfbfbf" points="717.6764,-55.5 717.6764,-73.5 758.1295,-73.5 758.1295,-55.5 717.6764,-55.5"/>
<text text-anchor="middle" x="737.903" y="-61.5" font-family="Helvetica,sans-Serif" font-size="10.00" fill="#000000">string</text>
</g>
<!-- Node3&#45;&gt;Node14 -->
<g id="edge17" class="edge">
<title>Node3&#45;&gt;Node14</title>
<path fill="none" stroke="#191970" d="M791.0232,-165.4441C772.4257,-157.7704 753.3313,-146.1982 741.903,-129 733.1709,-115.8594 732.8252,-97.6927 734.2872,-83.9869"/>
<polygon fill="#191970" stroke="#191970" points="737.8031,-84.1345 735.796,-73.7315 730.8776,-83.1155 737.8031,-84.1345"/>
</g>
<!-- Node16 -->
<g id="node17" class="node">
<title>Node16</title>
<polygon fill="#ffffff" stroke="#bfbfbf" points="750.5114,-110.5 750.5114,-128.5 789.2946,-128.5 789.2946,-110.5 750.5114,-110.5"/>
<text text-anchor="middle" x="769.903" y="-116.5" font-family="Helvetica,sans-Serif" font-size="10.00" fill="#000000">utility</text>
</g>
<!-- Node3&#45;&gt;Node16 -->
<g id="edge18" class="edge">
<title>Node3&#45;&gt;Node16</title>
<path fill="none" stroke="#191970" d="M826.366,-165.2808C815.0853,-156.1344 800.4304,-144.252 788.8779,-134.8851"/>
<polygon fill="#191970" stroke="#191970" points="791.0787,-132.1636 781.1068,-128.5842 786.6701,-137.6009 791.0787,-132.1636"/>
</g>
<!-- Node3&#45;&gt;Node17 -->
<g id="edge19" class="edge">
<title>Node3&#45;&gt;Node17</title>
<path fill="none" stroke="#191970" d="M776.3059,-167.2504C771.7725,-166.4748 767.273,-165.718 762.903,-165 672.2426,-150.1038 566.0318,-134.665 506.1894,-126.1505"/>
<polygon fill="#191970" stroke="#191970" points="506.318,-122.6337 495.9253,-124.6933 505.334,-129.5642 506.318,-122.6337"/>
</g>
<!-- Node5 -->
<g id="node6" class="node">
<title>Node5</title>
<g id="a_node6"><a xlink:href="any_8h.html" target="_top" xlink:title="BayesFilters/any.h">
<polygon fill="#ffffff" stroke="#000000" points="598.1437,-55.5 598.1437,-73.5 695.6622,-73.5 695.6622,-55.5 598.1437,-55.5"/>
<text text-anchor="middle" x="646.903" y="-61.5" font-family="Helvetica,sans-Serif" font-size="10.00" fill="#000000">BayesFilters/any.h</text>
</a>
</g>
</g>
<!-- Node4&#45;&gt;Node5 -->
<g id="edge5" class="edge">
<title>Node4&#45;&gt;Node5</title>
<path fill="none" stroke="#191970" d="M643.5635,-110.4179C644.0872,-103.2164 644.8378,-92.8962 645.4947,-83.8632"/>
<polygon fill="#191970" stroke="#191970" points="648.9934,-84.007 646.2281,-73.7795 642.0119,-83.4992 648.9934,-84.007"/>
</g>
<!-- Node6 -->
<g id="node7" class="node">
<title>Node6</title>
<polygon fill="#ffffff" stroke="#bfbfbf" points="732.339,-.5 732.339,-18.5 789.4669,-18.5 789.4669,-.5 732.339,-.5"/>
<text text-anchor="middle" x="760.903" y="-6.5" font-family="Helvetica,sans-Serif" font-size="10.00" fill="#000000">algorithm</text>
</g>
<!-- Node5&#45;&gt;Node6 -->
<g id="edge6" class="edge">
<title>Node5&#45;&gt;Node6</title>
<path fill="none" stroke="#191970" d="M665.7277,-55.4179C684.0448,-46.5807 712.0959,-33.0473 733.006,-22.9591"/>
<polygon fill="#191970" stroke="#191970" points="734.5645,-26.0933 742.0502,-18.5956 731.5228,-19.7887 734.5645,-26.0933"/>
</g>
<!-- Node5&#45;&gt;Node7 -->
<g id="edge7" class="edge">
<title>Node5&#45;&gt;Node7</title>
<path fill="none" stroke="#191970" d="M690.2016,-55.4795C741.7161,-44.7473 826.7767,-27.0263 874.8658,-17.0077"/>
<polygon fill="#191970" stroke="#191970" points="875.7505,-20.3987 884.8264,-14.9326 874.3228,-13.5458 875.7505,-20.3987"/>
</g>
<!-- Node8 -->
<g id="node9" class="node">
<title>Node8</title>
<polygon fill="#ffffff" stroke="#bfbfbf" points="505.5016,-.5 505.5016,-18.5 564.3043,-18.5 564.3043,-.5 505.5016,-.5"/>
<text text-anchor="middle" x="534.903" y="-6.5" font-family="Helvetica,sans-Serif" font-size="10.00" fill="#000000">stdexcept</text>
</g>
<!-- Node5&#45;&gt;Node8 -->
<g id="edge8" class="edge">
<title>Node5&#45;&gt;Node8</title>
<path fill="none" stroke="#191970" d="M628.4084,-55.4179C610.4938,-46.6205 583.1019,-33.1691 562.5886,-23.0956"/>
<polygon fill="#191970" stroke="#191970" points="563.9439,-19.8619 553.425,-18.5956 560.8583,-26.1452 563.9439,-19.8619"/>
</g>
<!-- Node9 -->
<g id="node10" class="node">
<title>Node9</title>
<polygon fill="#ffffff" stroke="#bfbfbf" points="582.3908,-.5 582.3908,-18.5 633.4152,-18.5 633.4152,-.5 582.3908,-.5"/>
<text text-anchor="middle" x="607.903" y="-6.5" font-family="Helvetica,sans-Serif" font-size="10.00" fill="#000000">typeinfo</text>
</g>
<!-- Node5&#45;&gt;Node9 -->
<g id="edge9" class="edge">
<title>Node5&#45;&gt;Node9</title>
<path fill="none" stroke="#191970" d="M640.4629,-55.4179C635.0197,-47.7415 627.0638,-36.5217 620.3791,-27.0945"/>
<polygon fill="#191970" stroke="#191970" points="623.1223,-24.9123 614.4829,-18.7795 617.4122,-28.9613 623.1223,-24.9123"/>
</g>
<!-- Node10 -->
<g id="node11" class="node">
<title>Node10</title>
<polygon fill="#ffffff" stroke="#bfbfbf" points="651.8366,-.5 651.8366,-18.5 713.9694,-18.5 713.9694,-.5 651.8366,-.5"/>
<text text-anchor="middle" x="682.903" y="-6.5" font-family="Helvetica,sans-Serif" font-size="10.00" fill="#000000">type_traits</text>
</g>
<!-- Node5&#45;&gt;Node10 -->
<g id="edge10" class="edge">
<title>Node5&#45;&gt;Node10</title>
<path fill="none" stroke="#191970" d="M652.8476,-55.4179C657.8203,-47.8207 665.0649,-36.7527 671.1954,-27.3866"/>
<polygon fill="#191970" stroke="#191970" points="674.281,-29.0633 676.8291,-18.7795 668.424,-25.2297 674.281,-29.0633"/>
</g>
<!-- Node12 -->
<g id="node13" class="node">
<title>Node12</title>
<polygon fill="#ffffff" stroke="#bfbfbf" points="863.233,-55.5 863.233,-73.5 912.5729,-73.5 912.5729,-55.5 863.233,-55.5"/>
<text text-anchor="middle" x="887.903" y="-61.5" font-family="Helvetica,sans-Serif" font-size="10.00" fill="#000000">fstream</text>
</g>
<!-- Node11&#45;&gt;Node12 -->
<g id="edge12" class="edge">
<title>Node11&#45;&gt;Node12</title>
<path fill="none" stroke="#191970" d="M867.8661,-110.4179C871.1122,-102.9789 875.8103,-92.2123 879.8415,-82.9742"/>
<polygon fill="#191970" stroke="#191970" points="883.0621,-84.3447 883.8537,-73.7795 876.6464,-81.545 883.0621,-84.3447"/>
</g>
<!-- Node13 -->
<g id="node14" class="node">
<title>Node13</title>
<polygon fill="#ffffff" stroke="#bfbfbf" points="790.7306,-55.5 790.7306,-73.5 845.0753,-73.5 845.0753,-55.5 790.7306,-55.5"/>
<text text-anchor="middle" x="817.903" y="-61.5" font-family="Helvetica,sans-Serif" font-size="10.00" fill="#000000">iostream</text>
</g>
<!-- Node11&#45;&gt;Node13 -->
<g id="edge13" class="edge">
<title>Node11&#45;&gt;Node13</title>
<path fill="none" stroke="#191970" d="M856.307,-110.4179C849.7544,-102.5833 840.1147,-91.0575 832.1326,-81.5137"/>
<polygon fill="#191970" stroke="#191970" points="834.7643,-79.2048 825.664,-73.7795 829.3948,-83.6957 834.7643,-79.2048"/>
</g>
<!-- Node11&#45;&gt;Node14 -->
<g id="edge14" class="edge">
<title>Node11&#45;&gt;Node14</title>
<path fill="none" stroke="#191970" d="M843.0966,-110.4179C822.5468,-101.4477 790.9119,-87.6388 767.6984,-77.5059"/>
<polygon fill="#191970" stroke="#191970" points="768.8873,-74.206 758.3221,-73.4131 766.0868,-80.6215 768.8873,-74.206"/>
</g>
<!-- Node15 -->
<g id="node16" class="node">
<title>Node15</title>
<polygon fill="#ffffff" stroke="#bfbfbf" points="382.2872,-55.5 382.2872,-73.5 425.5187,-73.5 425.5187,-55.5 382.2872,-55.5"/>
<text text-anchor="middle" x="403.903" y="-61.5" font-family="Helvetica,sans-Serif" font-size="10.00" fill="#000000">vector</text>
</g>
<!-- Node11&#45;&gt;Node15 -->
<g id="edge15" class="edge">
<title>Node11&#45;&gt;Node15</title>
<path fill="none" stroke="#191970" d="M807.3915,-111.2597C804.1826,-110.8248 801.0026,-110.402 797.903,-110 663.6825,-92.5936 503.3003,-75.0933 436.0563,-67.9048"/>
<polygon fill="#191970" stroke="#191970" points="436.0272,-64.3819 425.7124,-66.8019 435.285,-71.3425 436.0272,-64.3819"/>
</g>
<!-- Node18&#45;&gt;Node3 -->
<g id="edge24" class="edge">
<title>Node18&#45;&gt;Node3</title>
<path fill="none" stroke="#191970" d="M728.5351,-235.462C748.3665,-225.8423 780.3037,-210.3504 805.5528,-198.1027"/>
<polygon fill="#191970" stroke="#191970" points="807.3933,-201.1 814.8631,-193.5865 804.3382,-194.8019 807.3933,-201.1"/>
</g>
<!-- Node18&#45;&gt;Node17 -->
<g id="edge25" class="edge">
<title>Node18&#45;&gt;Node17</title>
<path fill="none" stroke="#191970" d="M696.8382,-235.2493C674.0789,-219.4129 625.3367,-186.7187 580.903,-165 553.8602,-151.7818 521.9433,-140.0045 497.5389,-131.7453"/>
<polygon fill="#191970" stroke="#191970" points="498.5056,-128.3783 487.9119,-128.5372 496.2925,-135.0192 498.5056,-128.3783"/>
</g>
<!-- Node18&#45;&gt;Node19 -->
<g id="edge21" class="edge">
<title>Node18&#45;&gt;Node19</title>
<path fill="none" stroke="#191970" d="M624.4075,-237.0358C497.449,-225.8299 265.1146,-204.8221 181.903,-194 173.2013,-192.8683 164.0397,-191.5271 155.0482,-190.1245"/>
<polygon fill="#191970" stroke="#191970" points="155.4288,-186.6411 145.0025,-188.5229 154.3266,-193.5538 155.4288,-186.6411"/>
</g>
<!-- Node19&#45;&gt;Node15 -->
<g id="edge22" class="edge">
<title>Node19&#45;&gt;Node15</title>
<path fill="none" stroke="#191970" d="M118.2281,-170.4761C173.9333,-149.8113 310.7011,-99.0749 372.5847,-76.1181"/>
<polygon fill="#191970" stroke="#191970" points="374.0385,-79.3119 382.1968,-72.5523 371.6038,-72.7489 374.0385,-79.3119"/>
</g>
<!-- Node19&#45;&gt;Node17 -->
<g id="edge23" class="edge">
<title>Node19&#45;&gt;Node17</title>
<path fill="none" stroke="#191970" d="M148.8251,-170.446C159.7824,-168.6409 171.2081,-166.7595 181.903,-165 262.7693,-151.6962 356.9204,-136.2374 412.0098,-127.1954"/>
<polygon fill="#191970" stroke="#191970" points="412.8593,-130.6028 422.1604,-125.5293 411.7255,-123.6953 412.8593,-130.6028"/>
</g>
<!-- Node20&#45;&gt;Node2 -->
<g id="edge36" class="edge">
<title>Node20&#45;&gt;Node2</title>
<path fill="none" stroke="#191970" d="M580.5022,-301.3991C645.3267,-291.0208 759.0126,-272.8199 840.3569,-259.7968"/>
<polygon fill="#191970" stroke="#191970" points="841.2894,-263.1921 850.6104,-258.1552 840.1828,-256.2802 841.2894,-263.1921"/>
</g>
<!-- Node20&#45;&gt;Node3 -->
<g id="edge37" class="edge">
<title>Node20&#45;&gt;Node3</title>
<path fill="none" stroke="#191970" d="M580.2468,-305.5652C649.443,-299.2742 769.3166,-284.9369 803.903,-259 821.8824,-245.5169 832.3439,-221.6908 838.0262,-203.6277"/>
<polygon fill="#191970" stroke="#191970" points="841.4578,-204.3569 840.8403,-193.7801 834.7273,-202.4335 841.4578,-204.3569"/>
</g>
<!-- Node20&#45;&gt;Node4 -->
<g id="edge32" class="edge">
<title>Node20&#45;&gt;Node4</title>
<path fill="none" stroke="#191970" d="M541.8426,-295.3922C549.9336,-285.519 560.6194,-271.8481 568.903,-259 595.7754,-217.3201 621.6189,-164.8917 634.4704,-137.715"/>
<polygon fill="#191970" stroke="#191970" points="637.6626,-139.1512 638.7349,-128.6107 631.3235,-136.182 637.6626,-139.1512"/>
</g>
<!-- Node20&#45;&gt;Node17 -->
<g id="edge40" class="edge">
<title>Node20&#45;&gt;Node17</title>
<path fill="none" stroke="#191970" d="M537.2635,-295.1152C550.206,-267.6145 573.3683,-206.6191 547.903,-165 538.3632,-149.4089 521.6075,-138.945 505.1885,-132.0286"/>
<polygon fill="#191970" stroke="#191970" points="506.2074,-128.6707 495.6173,-128.3543 503.6986,-135.2057 506.2074,-128.6707"/>
</g>
<!-- Node20&#45;&gt;Node19 -->
<g id="edge35" class="edge">
<title>Node20&#45;&gt;Node19</title>
<path fill="none" stroke="#191970" d="M479.5729,-304.3295C424.0126,-297.6759 332.4367,-283.8927 256.903,-259 205.1427,-241.942 148.858,-211.606 117.8307,-193.7463"/>
<polygon fill="#191970" stroke="#191970" points="119.4487,-190.6383 109.0454,-188.6327 115.9273,-196.6881 119.4487,-190.6383"/>
</g>
<!-- Node21 -->
<g id="node22" class="node">
<title>Node21</title>
<g id="a_node22"><a xlink:href="AdditiveStateModel_8h.html" target="_top" xlink:title="BayesFilters/AdditiveState\lModel.h">
<polygon fill="#ffffff" stroke="#000000" points="284.5436,-230.5 284.5436,-258.5 417.2623,-258.5 417.2623,-230.5 284.5436,-230.5"/>
<text text-anchor="start" x="292.5436" y="-246.5" font-family="Helvetica,sans-Serif" font-size="10.00" fill="#000000">BayesFilters/AdditiveState</text>
<text text-anchor="middle" x="350.903" y="-236.5" font-family="Helvetica,sans-Serif" font-size="10.00" fill="#000000">Model.h</text>
</a>
</g>
</g>
<!-- Node20&#45;&gt;Node21 -->
<g id="edge28" class="edge">
<title>Node20&#45;&gt;Node21</title>
<path fill="none" stroke="#191970" d="M491.0626,-295.396C464.0877,-285.6006 427.9581,-272.4809 399.1375,-262.0153"/>
<polygon fill="#191970" stroke="#191970" points="400.2616,-258.7 389.6675,-258.5765 397.8723,-265.2796 400.2616,-258.7"/>
</g>
<!-- Node22 -->
<g id="node23" class="node">
<title>Node22</title>
<g id="a_node23"><a xlink:href="StateModel_8h.html" target="_top" xlink:title="BayesFilters/StateModel.h">
<polygon fill="#ffffff" stroke="#000000" points="190.5436,-170.5 190.5436,-188.5 323.2623,-188.5 323.2623,-170.5 190.5436,-170.5"/>
<text text-anchor="middle" x="256.903" y="-176.5" font-family="Helvetica,sans-Serif" font-size="10.00" fill="#000000">BayesFilters/StateModel.h</text>
</a>
</g>
</g>
<!-- Node20&#45;&gt;Node22 -->
<g id="edge38" class="edge">
<title>Node20&#45;&gt;Node22</title>
<path fill="none" stroke="#191970" d="M479.6229,-305.8498C414.0859,-300.0548 304.4513,-286.4744 275.903,-259 259.7301,-243.4355 256.2891,-216.7552 256.0209,-198.6369"/>
<polygon fill="#191970" stroke="#191970" points="259.5204,-198.692 256.1785,-188.638 252.5213,-198.5816 259.5204,-198.692"/>
</g>
<!-- Node23 -->
<g id="node24" class="node">
<title>Node23</title>
<g id="a_node24"><a xlink:href="ExogenousModel_8h.html" target="_top" xlink:title="BayesFilters/ExogenousModel.h">
<polygon fill="#ffffff" stroke="#000000" points="379.1989,-170.5 379.1989,-188.5 538.6071,-188.5 538.6071,-170.5 379.1989,-170.5"/>
<text text-anchor="middle" x="458.903" y="-176.5" font-family="Helvetica,sans-Serif" font-size="10.00" fill="#000000">BayesFilters/ExogenousModel.h</text>
</a>
</g>
</g>
<!-- Node20&#45;&gt;Node23 -->
<g id="edge33" class="edge">
<title>Node20&#45;&gt;Node23</title>
<path fill="none" stroke="#191970" d="M501.7362,-295.4485C487.821,-286.9255 472.2585,-274.656 463.903,-259 454.0627,-240.5619 454.098,-216.1879 455.7784,-199.3118"/>
<polygon fill="#191970" stroke="#191970" points="459.3014,-199.3557 457.1035,-188.9914 452.3584,-198.4642 459.3014,-199.3557"/>
</g>
<!-- Node24 -->
<g id="node25" class="node">
<title>Node24</title>
<polygon fill="#ffffff" stroke="#bfbfbf" points="472.4992,-235.5 472.4992,-253.5 531.3068,-253.5 531.3068,-235.5 472.4992,-235.5"/>
<text text-anchor="middle" x="501.903" y="-241.5" font-family="Helvetica,sans-Serif" font-size="10.00" fill="#000000">functional</text>
</g>
<!-- Node20&#45;&gt;Node24 -->
<g id="edge39" class="edge">
<title>Node20&#45;&gt;Node24</title>
<path fill="none" stroke="#191970" d="M523.8274,-295.396C519.726,-285.8748 514.2716,-273.2128 509.8293,-262.9003"/>
<polygon fill="#191970" stroke="#191970" points="512.9826,-261.3737 505.8119,-253.5743 506.5537,-264.1431 512.9826,-261.3737"/>
</g>
<!-- Node21&#45;&gt;Node17 -->
<g id="edge29" class="edge">
<title>Node21&#45;&gt;Node17</title>
<path fill="none" stroke="#191970" d="M350.8348,-230.3354C351.4643,-213.1382 354.9026,-184.0746 369.903,-165 381.7398,-149.9482 399.9076,-139.4187 416.7496,-132.3094"/>
<polygon fill="#191970" stroke="#191970" points="418.4186,-135.4147 426.4548,-128.5104 415.867,-128.8963 418.4186,-135.4147"/>
</g>
<!-- Node21&#45;&gt;Node22 -->
<g id="edge30" class="edge">
<title>Node21&#45;&gt;Node22</title>
<path fill="none" stroke="#191970" d="M330.5064,-230.396C315.1596,-219.7838 294.1702,-205.2699 278.5319,-194.4562"/>
<polygon fill="#191970" stroke="#191970" points="280.2416,-191.3831 270.0258,-188.5743 276.2602,-197.1407 280.2416,-191.3831"/>
</g>
<!-- Node22&#45;&gt;Node17 -->
<g id="edge31" class="edge">
<title>Node22&#45;&gt;Node17</title>
<path fill="none" stroke="#191970" d="M287.5824,-170.3873C322.6375,-159.9749 380.1292,-142.8982 418.7303,-131.4325"/>
<polygon fill="#191970" stroke="#191970" points="420.0072,-134.7044 428.5967,-128.5019 418.014,-127.9942 420.0072,-134.7044"/>
</g>
<!-- Node23&#45;&gt;Node17 -->
<g id="edge34" class="edge">
<title>Node23&#45;&gt;Node17</title>
<path fill="none" stroke="#191970" d="M458.903,-170.3873C458.903,-162.0174 458.903,-149.3414 458.903,-138.735"/>
<polygon fill="#191970" stroke="#191970" points="462.4031,-138.6984 458.903,-128.6985 455.4031,-138.6985 462.4031,-138.6984"/>
</g>
<!-- Node25&#45;&gt;Node17 -->
<g id="edge43" class="edge">
<title>Node25&#45;&gt;Node17</title>
<path fill="none" stroke="#191970" d="M1013.832,-295.2892C1027.9281,-278.0455 1046.4142,-248.935 1029.903,-230 991.2787,-185.7056 825.6524,-204.9009 767.903,-194 671.7906,-175.8576 560.6422,-147.1243 501.3523,-131.1627"/>
<polygon fill="#191970" stroke="#191970" points="502.1629,-127.7563 491.596,-128.5253 500.3361,-134.5137 502.1629,-127.7563"/>
</g>
</g>
</svg>
        <g id="navigator" transform="translate(0 0)" fill="#404254">
                <rect fill="#f2f5e9" fill-opacity="0.5" stroke="#606060" stroke-width=".5" x="0" y="0" width="60" height="60"/>
                <use id="zoomplus" xlink:href="#zoomPlus" x="17" y="9" onmousedown="handleZoom(evt,'in')"/>
                <use id="zoomminus" xlink:href="#zoomMin" x="42" y="9" onmousedown="handleZoom(evt,'out')"/>
                <use id="reset" xlink:href="#resetDef" x="30" y="36" onmousedown="handleReset()"/>
                <g id="arrowUp" xlink:href="#dirArrow" transform="translate(30 24)" onmousedown="handlePan(0,-1)">
                  <use xlink:href="#rim" fill="#404040">
                        <set attributeName="fill" to="#808080" begin="arrowUp.mouseover" end="arrowUp.mouseout"/>
                  </use>
                  <path fill="none" stroke="white" stroke-width="1.5" d="M0,-3.0v7 M-2.5,-0.5L0,-3.0L2.5,-0.5"/>
                </g>
                <g id="arrowRight" xlink:href="#dirArrow" transform="rotate(90) translate(36 -43)" onmousedown="handlePan(1,0)">
                  <use xlink:href="#rim" fill="#404040">
                        <set attributeName="fill" to="#808080" begin="arrowRight.mouseover" end="arrowRight.mouseout"/>
                  </use>
                  <path fill="none" stroke="white" stroke-width="1.5" d="M0,-3.0v7 M-2.5,-0.5L0,-3.0L2.5,-0.5"/>
                </g>
                <g id="arrowDown" xlink:href="#dirArrow" transform="rotate(180) translate(-30 -48)" onmousedown="handlePan(0,1)">
                  <use xlink:href="#rim" fill="#404040">
                        <set attributeName="fill" to="#808080" begin="arrowDown.mouseover" end="arrowDown.mouseout"/>
                  </use>
                  <path fill="none" stroke="white" stroke-width="1.5" d="M0,-3.0v7 M-2.5,-0.5L0,-3.0L2.5,-0.5"/>
                </g>
                <g id="arrowLeft" xlink:href="#dirArrow" transform="rotate(270) translate(-36 17)" onmousedown="handlePan(-1,0)">
                  <use xlink:href="#rim" fill="#404040">
                        <set attributeName="fill" to="#808080" begin="arrowLeft.mouseover" end="arrowLeft.mouseout"/>
                  </use>
                  <path fill="none" stroke="white" stroke-width="1.5" d="M0,-3.0v7 M-2.5,-0.5L0,-3.0L2.5,-0.5"/>
                </g>
        </g>
        <svg viewBox="0 0 15 15" width="100%" height="30px" preserveAspectRatio="xMaxYMin meet">
         <g id="arrow_out" transform="scale(0.3 0.3)">
          <a xlink:href="SUKFCorrection_8cpp__incl_org.svg" target="_base">
           <rect id="button" ry="5" rx="5" y="6" x="6" height="38" width="38"
                fill="#f2f5e9" fill-opacity="0.5" stroke="#606060" stroke-width="1.0"/>
           <path id="arrow"
             d="M 11.500037,31.436501 C 11.940474,20.09759 22.043105,11.32322 32.158766,21.979434 L 37.068811,17.246167 C 37.068811,17.246167 37.088388,32 37.088388,32 L 22.160133,31.978069 C 22.160133,31.978069 26.997745,27.140456 26.997745,27.140456 C 18.528582,18.264221 13.291696,25.230495 11.500037,31.436501 z"
             style="fill:#404040;"/>
          </a>
         </g>
        </svg>
</svg>
