<?xml version="1.0" encoding="UTF-8" standalone="no"?>
<!DOCTYPE svg PUBLIC "-//W3C//DTD SVG 1.1//EN"
 "http://www.w3.org/Graphics/SVG/1.1/DTD/svg11.dtd">
<!-- Generated by graphviz version 2.40.1 (20161225.0304)
 -->
<!-- Title: /Users/Claudio/GitHub/bayes&#45;filters&#45;lib/src/BayesFilters/include/BayesFilters/SUKFCorrection.h Pages: 1 -->
<!--zoomable 417 -->
<svg id="main" version="1.1" xmlns="http://www.w3.org/2000/svg" xmlns:xlink="http://www.w3.org/1999/xlink" xml:space="preserve" onload="init(evt)">
<style type="text/css"><![CDATA[
.edge:hover path { stroke: red; }
.edge:hover polygon { stroke: red; fill: red; }
]]></style>
<script type="text/javascript"><![CDATA[
var edges = document.getElementsByTagName('g');
if (edges && edges.length) {
  for (var i=0;i<edges.length;i++) {
    if (edges[i].id.substr(0,4)=='edge') {
      edges[i].setAttribute('class','edge');
    }
  }
}
]]></script>
        <defs>
                <circle id="rim" cx="0" cy="0" r="7"/>
                <circle id="rim2" cx="0" cy="0" r="3.5"/>
                <g id="zoomPlus">
                        <use xlink:href="#rim" fill="#404040">
                                <set attributeName="fill" to="#808080" begin="zoomplus.mouseover" end="zoomplus.mouseout"/>
                        </use>
                        <path d="M-4,0h8M0,-4v8" fill="none" stroke="white" stroke-width="1.5" pointer-events="none"/>
                </g>
                <g id="zoomMin">
                        <use xlink:href="#rim" fill="#404040">
                                <set attributeName="fill" to="#808080" begin="zoomminus.mouseover" end="zoomminus.mouseout"/>
                        </use>
                        <path d="M-4,0h8" fill="none" stroke="white" stroke-width="1.5" pointer-events="none"/>
                </g>
                <g id="dirArrow">
                        <path fill="none" stroke="white" stroke-width="1.5" d="M0,-3.0v7 M-2.5,-0.5L0,-3.0L2.5,-0.5"/>
                </g>
               <g id="resetDef">
                       <use xlink:href="#rim2" fill="#404040">
                               <set attributeName="fill" to="#808080" begin="reset.mouseover" end="reset.mouseout"/>
                       </use>
               </g>
        </defs>

<script type="text/javascript">
var viewWidth = 921;
var viewHeight = 417;
var sectionId = 'dynsection-0';
</script>
<script xlink:href="svgpan.js"/>
<svg id="graph" class="graph">
<g id="viewport">
<title>/Users/Claudio/GitHub/bayes&#45;filters&#45;lib/src/BayesFilters/include/BayesFilters/SUKFCorrection.h</title>
<polygon fill="#ffffff" stroke="transparent" points="-4,4 -4,-413 917.3475,-413 917.3475,4 -4,4"/>
<!-- Node0 -->
<g id="node1" class="node">
<title>Node0</title>
<polygon fill="#bfbfbf" stroke="#000000" points="266.2266,-360.5 266.2266,-408.5 432.2803,-408.5 432.2803,-360.5 266.2266,-360.5"/>
<text text-anchor="start" x="274.2266" y="-396.5" font-family="Helvetica,sans-Serif" font-size="10.00" fill="#000000">/Users/Claudio/GitHub</text>
<text text-anchor="start" x="274.2266" y="-386.5" font-family="Helvetica,sans-Serif" font-size="10.00" fill="#000000">/bayes&#45;filters&#45;lib/src</text>
<text text-anchor="start" x="274.2266" y="-376.5" font-family="Helvetica,sans-Serif" font-size="10.00" fill="#000000">/BayesFilters/include/BayesFilters</text>
<text text-anchor="middle" x="349.2534" y="-366.5" font-family="Helvetica,sans-Serif" font-size="10.00" fill="#000000">/SUKFCorrection.h</text>
</g>
<!-- Node1 -->
<g id="node2" class="node">
<title>Node1</title>
<g id="a_node2"><a xlink:href="AdditiveMeasurementModel_8h.html" target="_top" xlink:title="BayesFilters/AdditiveMeasurement\lModel.h">
<polygon fill="#ffffff" stroke="#000000" points="0,-230.5 0,-258.5 170.5068,-258.5 170.5068,-230.5 0,-230.5"/>
<text text-anchor="start" x="8" y="-246.5" font-family="Helvetica,sans-Serif" font-size="10.00" fill="#000000">BayesFilters/AdditiveMeasurement</text>
<text text-anchor="middle" x="85.2534" y="-236.5" font-family="Helvetica,sans-Serif" font-size="10.00" fill="#000000">Model.h</text>
</a>
</g>
</g>
<!-- Node0&#45;&gt;Node1 -->
<g id="edge1" class="edge">
<title>Node0&#45;&gt;Node1</title>
<path fill="none" stroke="#191970" d="M296.2573,-360.4273C273.2951,-349.6963 246.2338,-336.643 222.2534,-324 185.5371,-304.6423 144.4916,-280.4748 116.9856,-263.8985"/>
<polygon fill="#191970" stroke="#191970" points="118.5703,-260.7666 108.2023,-258.5859 114.9474,-266.7562 118.5703,-260.7666"/>
</g>
<!-- Node16 -->
<g id="node17" class="node">
<title>Node16</title>
<polygon fill="#ffffff" stroke="#bfbfbf" points="611.623,-110.5 611.623,-128.5 684.8838,-128.5 684.8838,-110.5 611.623,-110.5"/>
<text text-anchor="middle" x="648.2534" y="-116.5" font-family="Helvetica,sans-Serif" font-size="10.00" fill="#000000">Eigen/Dense</text>
</g>
<!-- Node0&#45;&gt;Node16 -->
<g id="edge40" class="edge">
<title>Node0&#45;&gt;Node16</title>
<path fill="none" stroke="#191970" d="M432.5014,-378.1711C536.3006,-367.1372 716.1448,-337.4526 848.2534,-259 882.0572,-238.9256 893.9372,-230.6159 908.2534,-194 912.9468,-181.996 916.5446,-174.8681 908.2534,-165 881.6012,-133.2786 762.878,-123.6687 695.4506,-120.7601"/>
<polygon fill="#191970" stroke="#191970" points="695.2224,-117.2484 685.0913,-120.3485 694.9444,-124.2429 695.2224,-117.2484"/>
</g>
<!-- Node17 -->
<g id="node18" class="node">
<title>Node17</title>
<g id="a_node18"><a xlink:href="GaussianCorrection_8h.html" target="_top" xlink:title="BayesFilters/GaussianCorrection.h">
<polygon fill="#ffffff" stroke="#000000" points="264,-235.5 264,-253.5 434.5068,-253.5 434.5068,-235.5 264,-235.5"/>
<text text-anchor="middle" x="349.2534" y="-241.5" font-family="Helvetica,sans-Serif" font-size="10.00" fill="#000000">BayesFilters/GaussianCorrection.h</text>
</a>
</g>
</g>
<!-- Node0&#45;&gt;Node17 -->
<g id="edge19" class="edge">
<title>Node0&#45;&gt;Node17</title>
<path fill="none" stroke="#191970" d="M349.2534,-360.4331C349.2534,-333.0433 349.2534,-288.8552 349.2534,-263.6822"/>
<polygon fill="#191970" stroke="#191970" points="352.7535,-263.5829 349.2534,-253.583 345.7535,-263.583 352.7535,-263.5829"/>
</g>
<!-- Node18 -->
<g id="node19" class="node">
<title>Node18</title>
<g id="a_node19"><a xlink:href="GaussianMixture_8h.html" target="_top" xlink:title="BayesFilters/GaussianMixture.h">
<polygon fill="#ffffff" stroke="#000000" points="283.6724,-170.5 283.6724,-188.5 440.8345,-188.5 440.8345,-170.5 283.6724,-170.5"/>
<text text-anchor="middle" x="362.2534" y="-176.5" font-family="Helvetica,sans-Serif" font-size="10.00" fill="#000000">BayesFilters/GaussianMixture.h</text>
</a>
</g>
</g>
<!-- Node0&#45;&gt;Node18 -->
<g id="edge25" class="edge">
<title>Node0&#45;&gt;Node18</title>
<path fill="none" stroke="#191970" d="M316.1952,-360.2461C278.7141,-329.6774 226.343,-275.6132 255.2534,-230 267.1674,-211.2027 288.1616,-199.271 308.4165,-191.7603"/>
<polygon fill="#191970" stroke="#191970" points="309.6076,-195.0521 317.9452,-188.5149 307.3507,-188.4259 309.6076,-195.0521"/>
</g>
<!-- Node19 -->
<g id="node20" class="node">
<title>Node19</title>
<g id="a_node20"><a xlink:href="sigma__point_8h.html" target="_top" xlink:title="BayesFilters/sigma\l_point.h">
<polygon fill="#ffffff" stroke="#000000" points="469.0195,-295.5 469.0195,-323.5 569.4873,-323.5 569.4873,-295.5 469.0195,-295.5"/>
<text text-anchor="start" x="477.0195" y="-311.5" font-family="Helvetica,sans-Serif" font-size="10.00" fill="#000000">BayesFilters/sigma</text>
<text text-anchor="middle" x="519.2534" y="-301.5" font-family="Helvetica,sans-Serif" font-size="10.00" fill="#000000">_point.h</text>
</a>
</g>
</g>
<!-- Node0&#45;&gt;Node19 -->
<g id="edge26" class="edge">
<title>Node0&#45;&gt;Node19</title>
<path fill="none" stroke="#191970" d="M403.9782,-360.3567C428.0985,-349.7154 455.96,-337.4235 478.2493,-327.59"/>
<polygon fill="#191970" stroke="#191970" points="479.6971,-330.7769 487.4336,-323.5382 476.8716,-324.3724 479.6971,-330.7769"/>
</g>
<!-- Node2 -->
<g id="node3" class="node">
<title>Node2</title>
<g id="a_node3"><a xlink:href="MeasurementModel_8h.html" target="_top" xlink:title="BayesFilters/Measurement\lModel.h">
<polygon fill="#ffffff" stroke="#000000" points="130.7881,-165.5 130.7881,-193.5 265.7188,-193.5 265.7188,-165.5 130.7881,-165.5"/>
<text text-anchor="start" x="138.7881" y="-181.5" font-family="Helvetica,sans-Serif" font-size="10.00" fill="#000000">BayesFilters/Measurement</text>
<text text-anchor="middle" x="198.2534" y="-171.5" font-family="Helvetica,sans-Serif" font-size="10.00" fill="#000000">Model.h</text>
</a>
</g>
</g>
<!-- Node1&#45;&gt;Node2 -->
<g id="edge2" class="edge">
<title>Node1&#45;&gt;Node2</title>
<path fill="none" stroke="#191970" d="M109.7727,-230.396C125.9132,-221.1117 147.2454,-208.8409 164.9197,-198.6742"/>
<polygon fill="#191970" stroke="#191970" points="166.8589,-201.5966 173.782,-193.5765 163.3685,-195.5288 166.8589,-201.5966"/>
</g>
<!-- Node3 -->
<g id="node4" class="node">
<title>Node3</title>
<g id="a_node4"><a xlink:href="Data_8h.html" target="_top" xlink:title="BayesFilters/Data.h">
<polygon fill="#ffffff" stroke="#000000" points="404.6255,-110.5 404.6255,-128.5 507.8813,-128.5 507.8813,-110.5 404.6255,-110.5"/>
<text text-anchor="middle" x="456.2534" y="-116.5" font-family="Helvetica,sans-Serif" font-size="10.00" fill="#000000">BayesFilters/Data.h</text>
</a>
</g>
</g>
<!-- Node2&#45;&gt;Node3 -->
<g id="edge3" class="edge">
<title>Node2&#45;&gt;Node3</title>
<path fill="none" stroke="#191970" d="M258.743,-165.4327C304.1073,-154.8828 365.3953,-140.6298 407.6075,-130.813"/>
<polygon fill="#191970" stroke="#191970" points="408.4267,-134.216 417.374,-128.5417 406.8411,-127.3979 408.4267,-134.216"/>
</g>
<!-- Node6 -->
<g id="node7" class="node">
<title>Node6</title>
<polygon fill="#ffffff" stroke="#bfbfbf" points="188.1968,-.5 188.1968,-18.5 240.3101,-18.5 240.3101,-.5 188.1968,-.5"/>
<text text-anchor="middle" x="214.2534" y="-6.5" font-family="Helvetica,sans-Serif" font-size="10.00" fill="#000000">memory</text>
</g>
<!-- Node2&#45;&gt;Node6 -->
<g id="edge15" class="edge">
<title>Node2&#45;&gt;Node6</title>
<path fill="none" stroke="#191970" d="M181.8642,-165.4004C156.7497,-142.021 113.8843,-93.9454 136.2534,-55 145.3707,-39.1264 162.3982,-28.2673 178.2231,-21.1507"/>
<polygon fill="#191970" stroke="#191970" points="179.9248,-24.2352 187.8395,-17.1919 177.26,-17.7623 179.9248,-24.2352"/>
</g>
<!-- Node10 -->
<g id="node11" class="node">
<title>Node10</title>
<g id="a_node11"><a xlink:href="Logger_8h.html" target="_top" xlink:title="BayesFilters/Logger.h">
<polygon fill="#ffffff" stroke="#000000" points="235.8916,-110.5 235.8916,-128.5 348.6152,-128.5 348.6152,-110.5 235.8916,-110.5"/>
<text text-anchor="middle" x="292.2534" y="-116.5" font-family="Helvetica,sans-Serif" font-size="10.00" fill="#000000">BayesFilters/Logger.h</text>
</a>
</g>
</g>
<!-- Node2&#45;&gt;Node10 -->
<g id="edge10" class="edge">
<title>Node2&#45;&gt;Node10</title>
<path fill="none" stroke="#191970" d="M220.5301,-165.2808C235.2769,-155.868 254.5633,-143.5575 269.4221,-134.0732"/>
<polygon fill="#191970" stroke="#191970" points="271.4754,-136.9148 278.0215,-128.5842 267.7091,-131.0144 271.4754,-136.9148"/>
</g>
<!-- Node13 -->
<g id="node14" class="node">
<title>Node13</title>
<polygon fill="#ffffff" stroke="#bfbfbf" points="145.0269,-55.5 145.0269,-73.5 185.48,-73.5 185.48,-55.5 145.0269,-55.5"/>
<text text-anchor="middle" x="165.2534" y="-61.5" font-family="Helvetica,sans-Serif" font-size="10.00" fill="#000000">string</text>
</g>
<!-- Node2&#45;&gt;Node13 -->
<g id="edge16" class="edge">
<title>Node2&#45;&gt;Node13</title>
<path fill="none" stroke="#191970" d="M188.1497,-165.2213C181.8329,-155.4937 174.1757,-142.0574 170.2534,-129 165.855,-114.3575 164.7205,-97.0498 164.6224,-84.0515"/>
<polygon fill="#191970" stroke="#191970" points="168.1237,-83.9556 164.747,-73.9133 161.1243,-83.8695 168.1237,-83.9556"/>
</g>
<!-- Node15 -->
<g id="node16" class="node">
<title>Node15</title>
<polygon fill="#ffffff" stroke="#bfbfbf" points="178.8618,-110.5 178.8618,-128.5 217.645,-128.5 217.645,-110.5 178.8618,-110.5"/>
<text text-anchor="middle" x="198.2534" y="-116.5" font-family="Helvetica,sans-Serif" font-size="10.00" fill="#000000">utility</text>
</g>
<!-- Node2&#45;&gt;Node15 -->
<g id="edge17" class="edge">
<title>Node2&#45;&gt;Node15</title>
<path fill="none" stroke="#191970" d="M198.2534,-165.2808C198.2534,-157.3776 198.2534,-147.4316 198.2534,-138.8308"/>
<polygon fill="#191970" stroke="#191970" points="201.7535,-138.5842 198.2534,-128.5842 194.7535,-138.5842 201.7535,-138.5842"/>
</g>
<!-- Node2&#45;&gt;Node16 -->
<g id="edge18" class="edge">
<title>Node2&#45;&gt;Node16</title>
<path fill="none" stroke="#191970" d="M265.7573,-166.3761C268.6251,-165.896 271.4663,-165.4349 274.2534,-165 391.5973,-146.6895 530.6268,-131.4641 601.5509,-124.1585"/>
<polygon fill="#191970" stroke="#191970" points="601.9188,-127.6393 611.5103,-123.1387 601.2057,-120.6757 601.9188,-127.6393"/>
</g>
<!-- Node4 -->
<g id="node5" class="node">
<title>Node4</title>
<g id="a_node5"><a xlink:href="any_8h.html" target="_top" xlink:title="BayesFilters/any.h">
<polygon fill="#ffffff" stroke="#000000" points="406.4941,-55.5 406.4941,-73.5 504.0127,-73.5 504.0127,-55.5 406.4941,-55.5"/>
<text text-anchor="middle" x="455.2534" y="-61.5" font-family="Helvetica,sans-Serif" font-size="10.00" fill="#000000">BayesFilters/any.h</text>
</a>
</g>
</g>
<!-- Node3&#45;&gt;Node4 -->
<g id="edge4" class="edge">
<title>Node3&#45;&gt;Node4</title>
<path fill="none" stroke="#191970" d="M456.0883,-110.4179C455.9574,-103.2164 455.7697,-92.8962 455.6055,-83.8632"/>
<polygon fill="#191970" stroke="#191970" points="459.1034,-83.7141 455.4221,-73.7795 452.1046,-83.8415 459.1034,-83.7141"/>
</g>
<!-- Node5 -->
<g id="node6" class="node">
<title>Node5</title>
<polygon fill="#ffffff" stroke="#bfbfbf" points="541.6895,-.5 541.6895,-18.5 598.8174,-18.5 598.8174,-.5 541.6895,-.5"/>
<text text-anchor="middle" x="570.2534" y="-6.5" font-family="Helvetica,sans-Serif" font-size="10.00" fill="#000000">algorithm</text>
</g>
<!-- Node4&#45;&gt;Node5 -->
<g id="edge5" class="edge">
<title>Node4&#45;&gt;Node5</title>
<path fill="none" stroke="#191970" d="M474.2433,-55.4179C492.7211,-46.5807 521.0182,-33.0473 542.1117,-22.9591"/>
<polygon fill="#191970" stroke="#191970" points="543.7241,-26.0677 551.2353,-18.5956 540.7038,-19.7528 543.7241,-26.0677"/>
</g>
<!-- Node4&#45;&gt;Node6 -->
<g id="edge6" class="edge">
<title>Node4&#45;&gt;Node6</title>
<path fill="none" stroke="#191970" d="M415.727,-55.4795C369.7649,-44.9902 294.5498,-27.8249 250.1829,-17.6997"/>
<polygon fill="#191970" stroke="#191970" points="250.9331,-14.281 240.405,-15.4682 249.3756,-21.1055 250.9331,-14.281"/>
</g>
<!-- Node7 -->
<g id="node8" class="node">
<title>Node7</title>
<polygon fill="#ffffff" stroke="#bfbfbf" points="314.8521,-.5 314.8521,-18.5 373.6548,-18.5 373.6548,-.5 314.8521,-.5"/>
<text text-anchor="middle" x="344.2534" y="-6.5" font-family="Helvetica,sans-Serif" font-size="10.00" fill="#000000">stdexcept</text>
</g>
<!-- Node4&#45;&gt;Node7 -->
<g id="edge7" class="edge">
<title>Node4&#45;&gt;Node7</title>
<path fill="none" stroke="#191970" d="M436.924,-55.4179C419.1693,-46.6205 392.022,-33.1691 371.6918,-23.0956"/>
<polygon fill="#191970" stroke="#191970" points="373.1244,-19.8994 362.61,-18.5956 370.0165,-26.1716 373.1244,-19.8994"/>
</g>
<!-- Node8 -->
<g id="node9" class="node">
<title>Node8</title>
<polygon fill="#ffffff" stroke="#bfbfbf" points="391.7412,-.5 391.7412,-18.5 442.7656,-18.5 442.7656,-.5 391.7412,-.5"/>
<text text-anchor="middle" x="417.2534" y="-6.5" font-family="Helvetica,sans-Serif" font-size="10.00" fill="#000000">typeinfo</text>
</g>
<!-- Node4&#45;&gt;Node8 -->
<g id="edge8" class="edge">
<title>Node4&#45;&gt;Node8</title>
<path fill="none" stroke="#191970" d="M448.9785,-55.4179C443.6748,-47.7415 435.923,-36.5217 429.4096,-27.0945"/>
<polygon fill="#191970" stroke="#191970" points="432.2286,-25.0173 423.6647,-18.7795 426.4695,-28.9963 432.2286,-25.0173"/>
</g>
<!-- Node9 -->
<g id="node10" class="node">
<title>Node9</title>
<polygon fill="#ffffff" stroke="#bfbfbf" points="461.187,-.5 461.187,-18.5 523.3198,-18.5 523.3198,-.5 461.187,-.5"/>
<text text-anchor="middle" x="492.2534" y="-6.5" font-family="Helvetica,sans-Serif" font-size="10.00" fill="#000000">type_traits</text>
</g>
<!-- Node4&#45;&gt;Node9 -->
<g id="edge9" class="edge">
<title>Node4&#45;&gt;Node9</title>
<path fill="none" stroke="#191970" d="M461.3632,-55.4179C466.5273,-47.7415 474.0752,-36.5217 480.4171,-27.0945"/>
<polygon fill="#191970" stroke="#191970" points="483.3331,-29.0303 486.0109,-18.7795 477.525,-25.1231 483.3331,-29.0303"/>
</g>
<!-- Node11 -->
<g id="node12" class="node">
<title>Node11</title>
<polygon fill="#ffffff" stroke="#bfbfbf" points="277.5835,-55.5 277.5835,-73.5 326.9233,-73.5 326.9233,-55.5 277.5835,-55.5"/>
<text text-anchor="middle" x="302.2534" y="-61.5" font-family="Helvetica,sans-Serif" font-size="10.00" fill="#000000">fstream</text>
</g>
<!-- Node10&#45;&gt;Node11 -->
<g id="edge11" class="edge">
<title>Node10&#45;&gt;Node11</title>
<path fill="none" stroke="#191970" d="M293.9047,-110.4179C295.2141,-103.2164 297.0905,-92.8962 298.7328,-83.8632"/>
<polygon fill="#191970" stroke="#191970" points="302.2209,-84.2443 300.5662,-73.7795 295.3338,-82.992 302.2209,-84.2443"/>
</g>
<!-- Node12 -->
<g id="node13" class="node">
<title>Node12</title>
<polygon fill="#ffffff" stroke="#bfbfbf" points="205.0811,-55.5 205.0811,-73.5 259.4258,-73.5 259.4258,-55.5 205.0811,-55.5"/>
<text text-anchor="middle" x="232.2534" y="-61.5" font-family="Helvetica,sans-Serif" font-size="10.00" fill="#000000">iostream</text>
</g>
<!-- Node10&#45;&gt;Node12 -->
<g id="edge12" class="edge">
<title>Node10&#45;&gt;Node12</title>
<path fill="none" stroke="#191970" d="M282.3456,-110.4179C273.5398,-102.3458 260.4595,-90.3556 249.8734,-80.6517"/>
<polygon fill="#191970" stroke="#191970" points="252.1131,-77.9567 242.3765,-73.7795 247.383,-83.1168 252.1131,-77.9567"/>
</g>
<!-- Node10&#45;&gt;Node13 -->
<g id="edge13" class="edge">
<title>Node10&#45;&gt;Node13</title>
<path fill="none" stroke="#191970" d="M271.282,-110.4179C250.569,-101.4477 218.6831,-87.6388 195.2853,-77.5059"/>
<polygon fill="#191970" stroke="#191970" points="196.402,-74.1755 185.8347,-73.4131 193.6202,-80.599 196.402,-74.1755"/>
</g>
<!-- Node14 -->
<g id="node15" class="node">
<title>Node14</title>
<polygon fill="#ffffff" stroke="#bfbfbf" points="345.6377,-55.5 345.6377,-73.5 388.8691,-73.5 388.8691,-55.5 345.6377,-55.5"/>
<text text-anchor="middle" x="367.2534" y="-61.5" font-family="Helvetica,sans-Serif" font-size="10.00" fill="#000000">vector</text>
</g>
<!-- Node10&#45;&gt;Node14 -->
<g id="edge14" class="edge">
<title>Node10&#45;&gt;Node14</title>
<path fill="none" stroke="#191970" d="M304.6381,-110.4179C316.0374,-102.0584 333.1671,-89.4966 346.6299,-79.6239"/>
<polygon fill="#191970" stroke="#191970" points="348.856,-82.3317 354.8503,-73.5956 344.7164,-76.6869 348.856,-82.3317"/>
</g>
<!-- Node17&#45;&gt;Node2 -->
<g id="edge23" class="edge">
<title>Node17&#45;&gt;Node2</title>
<path fill="none" stroke="#191970" d="M328.2575,-235.462C305.6148,-225.7152 268.9677,-209.9399 240.3449,-197.6188"/>
<polygon fill="#191970" stroke="#191970" points="241.5465,-194.3256 230.9775,-193.5865 238.7788,-200.7552 241.5465,-194.3256"/>
</g>
<!-- Node17&#45;&gt;Node16 -->
<g id="edge24" class="edge">
<title>Node17&#45;&gt;Node16</title>
<path fill="none" stroke="#191970" d="M368.4562,-235.3789C400.757,-220.1486 468.1353,-188.8599 526.2534,-165 555.1094,-153.1534 588.3035,-140.8583 612.7752,-132.0401"/>
<polygon fill="#191970" stroke="#191970" points="614.1275,-135.2735 622.3593,-128.6035 611.7647,-128.6843 614.1275,-135.2735"/>
</g>
<!-- Node17&#45;&gt;Node18 -->
<g id="edge20" class="edge">
<title>Node17&#45;&gt;Node18</title>
<path fill="none" stroke="#191970" d="M351.061,-235.462C352.9412,-226.061 355.9431,-211.0518 358.3648,-198.943"/>
<polygon fill="#191970" stroke="#191970" points="361.8478,-199.3744 360.377,-188.8821 354.9837,-198.0015 361.8478,-199.3744"/>
</g>
<!-- Node18&#45;&gt;Node14 -->
<g id="edge21" class="edge">
<title>Node18&#45;&gt;Node14</title>
<path fill="none" stroke="#191970" d="M362.6458,-170.4761C363.4523,-151.9256 365.3125,-109.142 366.4067,-83.9748"/>
<polygon fill="#191970" stroke="#191970" points="369.9112,-83.944 366.849,-73.8014 362.9178,-83.6399 369.9112,-83.944"/>
</g>
<!-- Node18&#45;&gt;Node16 -->
<g id="edge22" class="edge">
<title>Node18&#45;&gt;Node16</title>
<path fill="none" stroke="#191970" d="M405.3802,-170.4524C458.1562,-159.3805 547.1824,-140.7037 601.5407,-129.2999"/>
<polygon fill="#191970" stroke="#191970" points="602.5315,-132.6683 611.5998,-127.1896 601.0942,-125.8174 602.5315,-132.6683"/>
</g>
<!-- Node19&#45;&gt;Node1 -->
<g id="edge35" class="edge">
<title>Node19&#45;&gt;Node1</title>
<path fill="none" stroke="#191970" d="M468.6187,-301.9165C398.2141,-291.372 269.4184,-272.0823 180.6755,-258.7913"/>
<polygon fill="#191970" stroke="#191970" points="181.0074,-255.3021 170.5993,-257.2822 179.9705,-262.2249 181.0074,-255.3021"/>
</g>
<!-- Node19&#45;&gt;Node2 -->
<g id="edge36" class="edge">
<title>Node19&#45;&gt;Node2</title>
<path fill="none" stroke="#191970" d="M469.0065,-304.3646C402.6121,-296.8275 289.9979,-281.2155 255.2534,-259 234.0285,-245.4289 218.2627,-220.8921 208.7559,-202.6545"/>
<polygon fill="#191970" stroke="#191970" points="211.8137,-200.9421 204.2413,-193.5319 205.5399,-204.0469 211.8137,-200.9421"/>
</g>
<!-- Node19&#45;&gt;Node3 -->
<g id="edge31" class="edge">
<title>Node19&#45;&gt;Node3</title>
<path fill="none" stroke="#191970" d="M514.5182,-295.2191C503.3188,-261.4433 475.1972,-176.6322 462.5674,-138.5423"/>
<polygon fill="#191970" stroke="#191970" points="465.7808,-137.1125 459.3113,-128.7223 459.1365,-139.3157 465.7808,-137.1125"/>
</g>
<!-- Node19&#45;&gt;Node16 -->
<g id="edge39" class="edge">
<title>Node19&#45;&gt;Node16</title>
<path fill="none" stroke="#191970" d="M569.775,-303.4417C640.1655,-294.5152 763.7769,-276.9391 805.2534,-259 849.5541,-239.8394 870.6281,-237.1512 892.2534,-194 898.0281,-182.4771 900.4896,-174.914 892.2534,-165 867.7345,-135.4862 759.2506,-125.0162 695.4873,-121.3769"/>
<polygon fill="#191970" stroke="#191970" points="695.4489,-117.87 685.2761,-120.8305 695.0748,-124.86 695.4489,-117.87"/>
</g>
<!-- Node19&#45;&gt;Node18 -->
<g id="edge34" class="edge">
<title>Node19&#45;&gt;Node18</title>
<path fill="none" stroke="#191970" d="M507.5616,-295.2492C493.392,-278.4839 468.2904,-250.3583 443.2534,-230 426.1639,-216.104 404.9853,-203.0245 388.5704,-193.6595"/>
<polygon fill="#191970" stroke="#191970" points="389.9587,-190.4257 379.523,-188.5967 386.5404,-196.5344 389.9587,-190.4257"/>
</g>
<!-- Node20 -->
<g id="node21" class="node">
<title>Node20</title>
<g id="a_node21"><a xlink:href="AdditiveStateModel_8h.html" target="_top" xlink:title="BayesFilters/AdditiveState\lModel.h">
<polygon fill="#ffffff" stroke="#000000" points="642.894,-230.5 642.894,-258.5 775.6128,-258.5 775.6128,-230.5 642.894,-230.5"/>
<text text-anchor="start" x="650.894" y="-246.5" font-family="Helvetica,sans-Serif" font-size="10.00" fill="#000000">BayesFilters/AdditiveState</text>
<text text-anchor="middle" x="709.2534" y="-236.5" font-family="Helvetica,sans-Serif" font-size="10.00" fill="#000000">Model.h</text>
</a>
</g>
</g>
<!-- Node19&#45;&gt;Node20 -->
<g id="edge27" class="edge">
<title>Node19&#45;&gt;Node20</title>
<path fill="none" stroke="#191970" d="M560.4806,-295.396C589.2377,-285.558 627.7967,-272.3668 658.4534,-261.879"/>
<polygon fill="#191970" stroke="#191970" points="659.778,-265.125 668.1067,-258.5765 657.5121,-258.5019 659.778,-265.125"/>
</g>
<!-- Node21 -->
<g id="node22" class="node">
<title>Node21</title>
<g id="a_node22"><a xlink:href="StateModel_8h.html" target="_top" xlink:title="BayesFilters/StateModel.h">
<polygon fill="#ffffff" stroke="#000000" points="534.894,-170.5 534.894,-188.5 667.6128,-188.5 667.6128,-170.5 534.894,-170.5"/>
<text text-anchor="middle" x="601.2534" y="-176.5" font-family="Helvetica,sans-Serif" font-size="10.00" fill="#000000">BayesFilters/StateModel.h</text>
</a>
</g>
</g>
<!-- Node19&#45;&gt;Node21 -->
<g id="edge37" class="edge">
<title>Node19&#45;&gt;Node21</title>
<path fill="none" stroke="#191970" d="M524.6344,-295.3904C531.186,-279.0045 543.1411,-251.4789 557.2534,-230 565.254,-217.8232 575.9633,-205.4686 584.8132,-196.0273"/>
<polygon fill="#191970" stroke="#191970" points="587.5876,-198.1917 591.9969,-188.558 582.5423,-193.3393 587.5876,-198.1917"/>
</g>
<!-- Node22 -->
<g id="node23" class="node">
<title>Node22</title>
<g id="a_node23"><a xlink:href="ExogenousModel_8h.html" target="_top" xlink:title="BayesFilters/ExogenousModel.h">
<polygon fill="#ffffff" stroke="#000000" points="723.5493,-170.5 723.5493,-188.5 882.9575,-188.5 882.9575,-170.5 723.5493,-170.5"/>
<text text-anchor="middle" x="803.2534" y="-176.5" font-family="Helvetica,sans-Serif" font-size="10.00" fill="#000000">BayesFilters/ExogenousModel.h</text>
</a>
</g>
</g>
<!-- Node19&#45;&gt;Node22 -->
<g id="edge32" class="edge">
<title>Node19&#45;&gt;Node22</title>
<path fill="none" stroke="#191970" d="M569.669,-306.309C637.7649,-300.9552 754.1049,-287.7844 784.2534,-259 800.488,-243.4999 803.9145,-216.8045 804.1625,-198.6651"/>
<polygon fill="#191970" stroke="#191970" points="807.6619,-198.5921 803.9923,-188.6531 800.6629,-198.7112 807.6619,-198.5921"/>
</g>
<!-- Node23 -->
<g id="node24" class="node">
<title>Node23</title>
<polygon fill="#ffffff" stroke="#bfbfbf" points="565.8496,-235.5 565.8496,-253.5 624.6572,-253.5 624.6572,-235.5 565.8496,-235.5"/>
<text text-anchor="middle" x="595.2534" y="-241.5" font-family="Helvetica,sans-Serif" font-size="10.00" fill="#000000">functional</text>
</g>
<!-- Node19&#45;&gt;Node23 -->
<g id="edge38" class="edge">
<title>Node19&#45;&gt;Node23</title>
<path fill="none" stroke="#191970" d="M535.7443,-295.396C547.8044,-285.0814 564.1745,-271.0807 576.6927,-260.3743"/>
<polygon fill="#191970" stroke="#191970" points="579.3187,-262.7339 584.6435,-253.5743 574.7689,-257.4141 579.3187,-262.7339"/>
</g>
<!-- Node20&#45;&gt;Node16 -->
<g id="edge28" class="edge">
<title>Node20&#45;&gt;Node16</title>
<path fill="none" stroke="#191970" d="M704.1798,-230.4122C698.1948,-214.2822 687.6126,-187.2214 676.2534,-165 671.407,-155.5192 665.2767,-145.3919 659.9886,-137.1044"/>
<polygon fill="#191970" stroke="#191970" points="662.8799,-135.1305 654.4892,-128.6617 657.0145,-138.9512 662.8799,-135.1305"/>
</g>
<!-- Node20&#45;&gt;Node21 -->
<g id="edge29" class="edge">
<title>Node20&#45;&gt;Node21</title>
<path fill="none" stroke="#191970" d="M685.819,-230.396C667.857,-219.5855 643.1673,-204.7259 625.1027,-193.8537"/>
<polygon fill="#191970" stroke="#191970" points="626.7035,-190.7322 616.3307,-188.5743 623.0938,-196.7298 626.7035,-190.7322"/>
</g>
<!-- Node21&#45;&gt;Node16 -->
<g id="edge30" class="edge">
<title>Node21&#45;&gt;Node16</title>
<path fill="none" stroke="#191970" d="M608.3917,-170.3873C615.3622,-161.4888 626.1454,-147.723 634.7396,-136.7517"/>
<polygon fill="#191970" stroke="#191970" points="637.6366,-138.7291 641.048,-128.6985 632.126,-134.4124 637.6366,-138.7291"/>
</g>
<!-- Node22&#45;&gt;Node16 -->
<g id="edge33" class="edge">
<title>Node22&#45;&gt;Node16</title>
<path fill="none" stroke="#191970" d="M779.7123,-170.3873C753.3859,-160.1964 710.5681,-143.6218 680.989,-132.1718"/>
<polygon fill="#191970" stroke="#191970" points="682.0974,-128.8479 671.5083,-128.5019 679.5704,-135.3759 682.0974,-128.8479"/>
</g>
</g>
</svg>
        <g id="navigator" transform="translate(0 0)" fill="#404254">
                <rect fill="#f2f5e9" fill-opacity="0.5" stroke="#606060" stroke-width=".5" x="0" y="0" width="60" height="60"/>
                <use id="zoomplus" xlink:href="#zoomPlus" x="17" y="9" onmousedown="handleZoom(evt,'in')"/>
                <use id="zoomminus" xlink:href="#zoomMin" x="42" y="9" onmousedown="handleZoom(evt,'out')"/>
                <use id="reset" xlink:href="#resetDef" x="30" y="36" onmousedown="handleReset()"/>
                <g id="arrowUp" xlink:href="#dirArrow" transform="translate(30 24)" onmousedown="handlePan(0,-1)">
                  <use xlink:href="#rim" fill="#404040">
                        <set attributeName="fill" to="#808080" begin="arrowUp.mouseover" end="arrowUp.mouseout"/>
                  </use>
                  <path fill="none" stroke="white" stroke-width="1.5" d="M0,-3.0v7 M-2.5,-0.5L0,-3.0L2.5,-0.5"/>
                </g>
                <g id="arrowRight" xlink:href="#dirArrow" transform="rotate(90) translate(36 -43)" onmousedown="handlePan(1,0)">
                  <use xlink:href="#rim" fill="#404040">
                        <set attributeName="fill" to="#808080" begin="arrowRight.mouseover" end="arrowRight.mouseout"/>
                  </use>
                  <path fill="none" stroke="white" stroke-width="1.5" d="M0,-3.0v7 M-2.5,-0.5L0,-3.0L2.5,-0.5"/>
                </g>
                <g id="arrowDown" xlink:href="#dirArrow" transform="rotate(180) translate(-30 -48)" onmousedown="handlePan(0,1)">
                  <use xlink:href="#rim" fill="#404040">
                        <set attributeName="fill" to="#808080" begin="arrowDown.mouseover" end="arrowDown.mouseout"/>
                  </use>
                  <path fill="none" stroke="white" stroke-width="1.5" d="M0,-3.0v7 M-2.5,-0.5L0,-3.0L2.5,-0.5"/>
                </g>
                <g id="arrowLeft" xlink:href="#dirArrow" transform="rotate(270) translate(-36 17)" onmousedown="handlePan(-1,0)">
                  <use xlink:href="#rim" fill="#404040">
                        <set attributeName="fill" to="#808080" begin="arrowLeft.mouseover" end="arrowLeft.mouseout"/>
                  </use>
                  <path fill="none" stroke="white" stroke-width="1.5" d="M0,-3.0v7 M-2.5,-0.5L0,-3.0L2.5,-0.5"/>
                </g>
        </g>
        <svg viewBox="0 0 15 15" width="100%" height="30px" preserveAspectRatio="xMaxYMin meet">
         <g id="arrow_out" transform="scale(0.3 0.3)">
          <a xlink:href="SUKFCorrection_8h__incl_org.svg" target="_base">
           <rect id="button" ry="5" rx="5" y="6" x="6" height="38" width="38"
                fill="#f2f5e9" fill-opacity="0.5" stroke="#606060" stroke-width="1.0"/>
           <path id="arrow"
             d="M 11.500037,31.436501 C 11.940474,20.09759 22.043105,11.32322 32.158766,21.979434 L 37.068811,17.246167 C 37.068811,17.246167 37.088388,32 37.088388,32 L 22.160133,31.978069 C 22.160133,31.978069 26.997745,27.140456 26.997745,27.140456 C 18.528582,18.264221 13.291696,25.230495 11.500037,31.436501 z"
             style="fill:#404040;"/>
          </a>
         </g>
        </svg>
</svg>
