<?xml version="1.0" encoding="UTF-8" standalone="no"?>
<!DOCTYPE svg PUBLIC "-//W3C//DTD SVG 1.1//EN"
 "http://www.w3.org/Graphics/SVG/1.1/DTD/svg11.dtd">
<!-- Generated by graphviz version 2.40.1 (20161225.0304)
 -->
<!-- Title: /Users/Claudio/GitHub/bayes&#45;filters&#45;lib/src/BayesFilters/include/BayesFilters/UKFCorrection.h Pages: 1 -->
<!--zoomable 417 -->
<svg id="main" version="1.1" xmlns="http://www.w3.org/2000/svg" xmlns:xlink="http://www.w3.org/1999/xlink" xml:space="preserve" onload="init(evt)">
<style type="text/css"><![CDATA[
.edge:hover path { stroke: red; }
.edge:hover polygon { stroke: red; fill: red; }
]]></style>
<script type="text/javascript"><![CDATA[
var edges = document.getElementsByTagName('g');
if (edges && edges.length) {
  for (var i=0;i<edges.length;i++) {
    if (edges[i].id.substr(0,4)=='edge') {
      edges[i].setAttribute('class','edge');
    }
  }
}
]]></script>
        <defs>
                <circle id="rim" cx="0" cy="0" r="7"/>
                <circle id="rim2" cx="0" cy="0" r="3.5"/>
                <g id="zoomPlus">
                        <use xlink:href="#rim" fill="#404040">
                                <set attributeName="fill" to="#808080" begin="zoomplus.mouseover" end="zoomplus.mouseout"/>
                        </use>
                        <path d="M-4,0h8M0,-4v8" fill="none" stroke="white" stroke-width="1.5" pointer-events="none"/>
                </g>
                <g id="zoomMin">
                        <use xlink:href="#rim" fill="#404040">
                                <set attributeName="fill" to="#808080" begin="zoomminus.mouseover" end="zoomminus.mouseout"/>
                        </use>
                        <path d="M-4,0h8" fill="none" stroke="white" stroke-width="1.5" pointer-events="none"/>
                </g>
                <g id="dirArrow">
                        <path fill="none" stroke="white" stroke-width="1.5" d="M0,-3.0v7 M-2.5,-0.5L0,-3.0L2.5,-0.5"/>
                </g>
               <g id="resetDef">
                       <use xlink:href="#rim2" fill="#404040">
                               <set attributeName="fill" to="#808080" begin="reset.mouseover" end="reset.mouseout"/>
                       </use>
               </g>
        </defs>

<script type="text/javascript">
var viewWidth = 925;
var viewHeight = 417;
var sectionId = 'dynsection-0';
</script>
<script xlink:href="svgpan.js"/>
<svg id="graph" class="graph">
<g id="viewport">
<title>/Users/Claudio/GitHub/bayes&#45;filters&#45;lib/src/BayesFilters/include/BayesFilters/UKFCorrection.h</title>
<polygon fill="#ffffff" stroke="transparent" points="-4,4 -4,-413 920.8681,-413 920.8681,4 -4,4"/>
<!-- Node0 -->
<g id="node1" class="node">
<title>Node0</title>
<polygon fill="#bfbfbf" stroke="#000000" points="329.6749,-360.5 329.6749,-408.5 495.7286,-408.5 495.7286,-360.5 329.6749,-360.5"/>
<text text-anchor="start" x="337.6749" y="-396.5" font-family="Helvetica,sans-Serif" font-size="10.00" fill="#000000">/Users/Claudio/GitHub</text>
<text text-anchor="start" x="337.6749" y="-386.5" font-family="Helvetica,sans-Serif" font-size="10.00" fill="#000000">/bayes&#45;filters&#45;lib/src</text>
<text text-anchor="start" x="337.6749" y="-376.5" font-family="Helvetica,sans-Serif" font-size="10.00" fill="#000000">/BayesFilters/include/BayesFilters</text>
<text text-anchor="middle" x="412.7017" y="-366.5" font-family="Helvetica,sans-Serif" font-size="10.00" fill="#000000">/UKFCorrection.h</text>
</g>
<!-- Node1 -->
<g id="node2" class="node">
<title>Node1</title>
<g id="a_node2"><a xlink:href="AdditiveMeasurementModel_8h.html" target="_top" xlink:title="BayesFilters/AdditiveMeasurement\lModel.h">
<polygon fill="#ffffff" stroke="#000000" points="17.4483,-230.5 17.4483,-258.5 187.9551,-258.5 187.9551,-230.5 17.4483,-230.5"/>
<text text-anchor="start" x="25.4483" y="-246.5" font-family="Helvetica,sans-Serif" font-size="10.00" fill="#000000">BayesFilters/AdditiveMeasurement</text>
<text text-anchor="middle" x="102.7017" y="-236.5" font-family="Helvetica,sans-Serif" font-size="10.00" fill="#000000">Model.h</text>
</a>
</g>
</g>
<!-- Node0&#45;&gt;Node1 -->
<g id="edge1" class="edge">
<title>Node0&#45;&gt;Node1</title>
<path fill="none" stroke="#191970" d="M359.4108,-360.4331C298.0438,-332.719 198.5945,-287.8064 143.2144,-262.7961"/>
<polygon fill="#191970" stroke="#191970" points="144.6157,-259.5886 134.0614,-258.6624 141.7345,-265.9682 144.6157,-259.5886"/>
</g>
<!-- Node2 -->
<g id="node3" class="node">
<title>Node2</title>
<g id="a_node3"><a xlink:href="MeasurementModel_8h.html" target="_top" xlink:title="BayesFilters/Measurement\lModel.h">
<polygon fill="#ffffff" stroke="#000000" points="141.2364,-165.5 141.2364,-193.5 276.167,-193.5 276.167,-165.5 141.2364,-165.5"/>
<text text-anchor="start" x="149.2364" y="-181.5" font-family="Helvetica,sans-Serif" font-size="10.00" fill="#000000">BayesFilters/Measurement</text>
<text text-anchor="middle" x="208.7017" y="-171.5" font-family="Helvetica,sans-Serif" font-size="10.00" fill="#000000">Model.h</text>
</a>
</g>
</g>
<!-- Node0&#45;&gt;Node2 -->
<g id="edge26" class="edge">
<title>Node0&#45;&gt;Node2</title>
<path fill="none" stroke="#191970" d="M329.3165,-370.4713C222.6021,-350.6215 46.912,-310.8992 8.7017,-259 -26.8237,-210.7476 60.6387,-191.7518 130.9452,-184.2931"/>
<polygon fill="#191970" stroke="#191970" points="131.5732,-187.7479 141.1772,-183.2742 130.8795,-180.7824 131.5732,-187.7479"/>
</g>
<!-- Node16 -->
<g id="node17" class="node">
<title>Node16</title>
<polygon fill="#ffffff" stroke="#bfbfbf" points="671.0713,-110.5 671.0713,-128.5 744.3321,-128.5 744.3321,-110.5 671.0713,-110.5"/>
<text text-anchor="middle" x="707.7017" y="-116.5" font-family="Helvetica,sans-Serif" font-size="10.00" fill="#000000">Eigen/Dense</text>
</g>
<!-- Node0&#45;&gt;Node16 -->
<g id="edge41" class="edge">
<title>Node0&#45;&gt;Node16</title>
<path fill="none" stroke="#191970" d="M495.7987,-373.557C617.9138,-355.7357 837.0888,-316.5533 889.7017,-259 918.0823,-227.9545 926.8102,-197.9793 900.7017,-165 882.81,-142.3999 805.7386,-129.8975 754.5686,-123.9528"/>
<polygon fill="#191970" stroke="#191970" points="754.716,-120.4476 744.3893,-122.8164 753.9392,-127.4044 754.716,-120.4476"/>
</g>
<!-- Node17 -->
<g id="node18" class="node">
<title>Node17</title>
<g id="a_node18"><a xlink:href="GaussianCorrection_8h.html" target="_top" xlink:title="BayesFilters/GaussianCorrection.h">
<polygon fill="#ffffff" stroke="#000000" points="243.4483,-235.5 243.4483,-253.5 413.9551,-253.5 413.9551,-235.5 243.4483,-235.5"/>
<text text-anchor="middle" x="328.7017" y="-241.5" font-family="Helvetica,sans-Serif" font-size="10.00" fill="#000000">BayesFilters/GaussianCorrection.h</text>
</a>
</g>
</g>
<!-- Node0&#45;&gt;Node17 -->
<g id="edge19" class="edge">
<title>Node0&#45;&gt;Node17</title>
<path fill="none" stroke="#191970" d="M398.2616,-360.4331C381.5316,-332.5498 354.3562,-287.2574 339.4059,-262.3403"/>
<polygon fill="#191970" stroke="#191970" points="342.2977,-260.3572 334.1515,-253.583 336.2953,-263.9587 342.2977,-260.3572"/>
</g>
<!-- Node18 -->
<g id="node19" class="node">
<title>Node18</title>
<g id="a_node19"><a xlink:href="GaussianMixture_8h.html" target="_top" xlink:title="BayesFilters/GaussianMixture.h">
<polygon fill="#ffffff" stroke="#000000" points="332.1207,-170.5 332.1207,-188.5 489.2828,-188.5 489.2828,-170.5 332.1207,-170.5"/>
<text text-anchor="middle" x="410.7017" y="-176.5" font-family="Helvetica,sans-Serif" font-size="10.00" fill="#000000">BayesFilters/GaussianMixture.h</text>
</a>
</g>
</g>
<!-- Node0&#45;&gt;Node18 -->
<g id="edge25" class="edge">
<title>Node0&#45;&gt;Node18</title>
<path fill="none" stroke="#191970" d="M416.9631,-360.3445C421.7186,-329.8773 428.0824,-275.9178 422.7017,-230 421.4654,-219.4499 418.8235,-207.9087 416.3324,-198.5258"/>
<polygon fill="#191970" stroke="#191970" points="419.6441,-197.3727 413.5708,-188.6914 412.9048,-199.2652 419.6441,-197.3727"/>
</g>
<!-- Node19 -->
<g id="node20" class="node">
<title>Node19</title>
<g id="a_node20"><a xlink:href="sigma__point_8h.html" target="_top" xlink:title="BayesFilters/sigma\l_point.h">
<polygon fill="#ffffff" stroke="#000000" points="487.4678,-295.5 487.4678,-323.5 587.9356,-323.5 587.9356,-295.5 487.4678,-295.5"/>
<text text-anchor="start" x="495.4678" y="-311.5" font-family="Helvetica,sans-Serif" font-size="10.00" fill="#000000">BayesFilters/sigma</text>
<text text-anchor="middle" x="537.7017" y="-301.5" font-family="Helvetica,sans-Serif" font-size="10.00" fill="#000000">_point.h</text>
</a>
</g>
</g>
<!-- Node0&#45;&gt;Node19 -->
<g id="edge27" class="edge">
<title>Node0&#45;&gt;Node19</title>
<path fill="none" stroke="#191970" d="M452.9405,-360.3567C469.8842,-350.1905 489.3388,-338.5177 505.3328,-328.9214"/>
<polygon fill="#191970" stroke="#191970" points="507.5306,-331.6844 514.3047,-323.5382 503.9291,-325.6819 507.5306,-331.6844"/>
</g>
<!-- Node1&#45;&gt;Node2 -->
<g id="edge2" class="edge">
<title>Node1&#45;&gt;Node2</title>
<path fill="none" stroke="#191970" d="M125.7021,-230.396C140.7038,-221.1968 160.4867,-209.0658 176.9758,-198.9546"/>
<polygon fill="#191970" stroke="#191970" points="179.0509,-201.7878 185.7462,-193.5765 175.3917,-195.8204 179.0509,-201.7878"/>
</g>
<!-- Node3 -->
<g id="node4" class="node">
<title>Node3</title>
<g id="a_node4"><a xlink:href="Data_8h.html" target="_top" xlink:title="BayesFilters/Data.h">
<polygon fill="#ffffff" stroke="#000000" points="415.0738,-110.5 415.0738,-128.5 518.3296,-128.5 518.3296,-110.5 415.0738,-110.5"/>
<text text-anchor="middle" x="466.7017" y="-116.5" font-family="Helvetica,sans-Serif" font-size="10.00" fill="#000000">BayesFilters/Data.h</text>
</a>
</g>
</g>
<!-- Node2&#45;&gt;Node3 -->
<g id="edge3" class="edge">
<title>Node2&#45;&gt;Node3</title>
<path fill="none" stroke="#191970" d="M269.1912,-165.4327C314.5555,-154.8828 375.8436,-140.6298 418.0558,-130.813"/>
<polygon fill="#191970" stroke="#191970" points="418.875,-134.216 427.8223,-128.5417 417.2894,-127.3979 418.875,-134.216"/>
</g>
<!-- Node6 -->
<g id="node7" class="node">
<title>Node6</title>
<polygon fill="#ffffff" stroke="#bfbfbf" points="188.6451,-.5 188.6451,-18.5 240.7583,-18.5 240.7583,-.5 188.6451,-.5"/>
<text text-anchor="middle" x="214.7017" y="-6.5" font-family="Helvetica,sans-Serif" font-size="10.00" fill="#000000">memory</text>
</g>
<!-- Node2&#45;&gt;Node6 -->
<g id="edge15" class="edge">
<title>Node2&#45;&gt;Node6</title>
<path fill="none" stroke="#191970" d="M182.3349,-165.3615C168.6775,-156.6725 152.9632,-144.2743 143.7017,-129 126.4946,-100.6214 116.9386,-83.6431 133.7017,-55 143.5085,-38.2432 162.002,-27.1848 178.8446,-20.1709"/>
<polygon fill="#191970" stroke="#191970" points="180.3932,-23.3264 188.4923,-16.496 177.9014,-16.7849 180.3932,-23.3264"/>
</g>
<!-- Node10 -->
<g id="node11" class="node">
<title>Node10</title>
<g id="a_node11"><a xlink:href="Logger_8h.html" target="_top" xlink:title="BayesFilters/Logger.h">
<polygon fill="#ffffff" stroke="#000000" points="152.3399,-110.5 152.3399,-128.5 265.0635,-128.5 265.0635,-110.5 152.3399,-110.5"/>
<text text-anchor="middle" x="208.7017" y="-116.5" font-family="Helvetica,sans-Serif" font-size="10.00" fill="#000000">BayesFilters/Logger.h</text>
</a>
</g>
</g>
<!-- Node2&#45;&gt;Node10 -->
<g id="edge10" class="edge">
<title>Node2&#45;&gt;Node10</title>
<path fill="none" stroke="#191970" d="M208.7017,-165.2808C208.7017,-157.3776 208.7017,-147.4316 208.7017,-138.8308"/>
<polygon fill="#191970" stroke="#191970" points="212.2018,-138.5842 208.7017,-128.5842 205.2018,-138.5842 212.2018,-138.5842"/>
</g>
<!-- Node13 -->
<g id="node14" class="node">
<title>Node13</title>
<polygon fill="#ffffff" stroke="#bfbfbf" points="282.4751,-55.5 282.4751,-73.5 322.9283,-73.5 322.9283,-55.5 282.4751,-55.5"/>
<text text-anchor="middle" x="302.7017" y="-61.5" font-family="Helvetica,sans-Serif" font-size="10.00" fill="#000000">string</text>
</g>
<!-- Node2&#45;&gt;Node13 -->
<g id="edge16" class="edge">
<title>Node2&#45;&gt;Node13</title>
<path fill="none" stroke="#191970" d="M232.0942,-165.4542C245.6355,-156.3971 262.2178,-143.6027 273.7017,-129 284.4814,-115.2928 292.2263,-96.9414 296.9858,-83.3183"/>
<polygon fill="#191970" stroke="#191970" points="300.3868,-84.1782 300.1637,-73.5857 293.7326,-82.0054 300.3868,-84.1782"/>
</g>
<!-- Node15 -->
<g id="node16" class="node">
<title>Node15</title>
<polygon fill="#ffffff" stroke="#bfbfbf" points="320.3101,-110.5 320.3101,-128.5 359.0933,-128.5 359.0933,-110.5 320.3101,-110.5"/>
<text text-anchor="middle" x="339.7017" y="-116.5" font-family="Helvetica,sans-Serif" font-size="10.00" fill="#000000">utility</text>
</g>
<!-- Node2&#45;&gt;Node15 -->
<g id="edge17" class="edge">
<title>Node2&#45;&gt;Node15</title>
<path fill="none" stroke="#191970" d="M239.4154,-165.4327C261.0569,-155.5205 289.836,-142.3393 311.0129,-132.6399"/>
<polygon fill="#191970" stroke="#191970" points="312.5207,-135.799 320.1549,-128.4527 309.6057,-129.4348 312.5207,-135.799"/>
</g>
<!-- Node2&#45;&gt;Node16 -->
<g id="edge18" class="edge">
<title>Node2&#45;&gt;Node16</title>
<path fill="none" stroke="#191970" d="M276.2674,-167.0468C280.8084,-166.3204 285.3181,-165.6302 289.7017,-165 423.7526,-145.729 583.0405,-130.4932 660.5841,-123.5649"/>
<polygon fill="#191970" stroke="#191970" points="661.3207,-127.0134 670.9721,-122.6429 660.7018,-120.0408 661.3207,-127.0134"/>
</g>
<!-- Node4 -->
<g id="node5" class="node">
<title>Node4</title>
<g id="a_node5"><a xlink:href="any_8h.html" target="_top" xlink:title="BayesFilters/any.h">
<polygon fill="#ffffff" stroke="#000000" points="405.9424,-55.5 405.9424,-73.5 503.461,-73.5 503.461,-55.5 405.9424,-55.5"/>
<text text-anchor="middle" x="454.7017" y="-61.5" font-family="Helvetica,sans-Serif" font-size="10.00" fill="#000000">BayesFilters/any.h</text>
</a>
</g>
</g>
<!-- Node3&#45;&gt;Node4 -->
<g id="edge4" class="edge">
<title>Node3&#45;&gt;Node4</title>
<path fill="none" stroke="#191970" d="M464.7201,-110.4179C463.1316,-103.1372 460.8477,-92.669 458.8615,-83.5659"/>
<polygon fill="#191970" stroke="#191970" points="462.2776,-82.8035 456.7263,-73.7795 455.4385,-84.2957 462.2776,-82.8035"/>
</g>
<!-- Node5 -->
<g id="node6" class="node">
<title>Node5</title>
<polygon fill="#ffffff" stroke="#bfbfbf" points="465.1377,-.5 465.1377,-18.5 522.2657,-18.5 522.2657,-.5 465.1377,-.5"/>
<text text-anchor="middle" x="493.7017" y="-6.5" font-family="Helvetica,sans-Serif" font-size="10.00" fill="#000000">algorithm</text>
</g>
<!-- Node4&#45;&gt;Node5 -->
<g id="edge5" class="edge">
<title>Node4&#45;&gt;Node5</title>
<path fill="none" stroke="#191970" d="M461.1418,-55.4179C466.585,-47.7415 474.5409,-36.5217 481.2256,-27.0945"/>
<polygon fill="#191970" stroke="#191970" points="484.1925,-28.9613 487.1217,-18.7795 478.4823,-24.9123 484.1925,-28.9613"/>
</g>
<!-- Node4&#45;&gt;Node6 -->
<g id="edge6" class="edge">
<title>Node4&#45;&gt;Node6</title>
<path fill="none" stroke="#191970" d="M415.3393,-55.4795C369.6913,-45.0185 295.0685,-27.9174 250.8401,-17.7817"/>
<polygon fill="#191970" stroke="#191970" points="251.6151,-14.3687 241.0859,-15.5464 250.0514,-21.1918 251.6151,-14.3687"/>
</g>
<!-- Node7 -->
<g id="node8" class="node">
<title>Node7</title>
<polygon fill="#ffffff" stroke="#bfbfbf" points="540.3003,-.5 540.3003,-18.5 599.1031,-18.5 599.1031,-.5 540.3003,-.5"/>
<text text-anchor="middle" x="569.7017" y="-6.5" font-family="Helvetica,sans-Serif" font-size="10.00" fill="#000000">stdexcept</text>
</g>
<!-- Node4&#45;&gt;Node7 -->
<g id="edge7" class="edge">
<title>Node4&#45;&gt;Node7</title>
<path fill="none" stroke="#191970" d="M473.6916,-55.4179C492.1693,-46.5807 520.4665,-33.0473 541.56,-22.9591"/>
<polygon fill="#191970" stroke="#191970" points="543.1723,-26.0677 550.6836,-18.5956 540.1521,-19.7528 543.1723,-26.0677"/>
</g>
<!-- Node8 -->
<g id="node9" class="node">
<title>Node8</title>
<polygon fill="#ffffff" stroke="#bfbfbf" points="315.1895,-.5 315.1895,-18.5 366.2139,-18.5 366.2139,-.5 315.1895,-.5"/>
<text text-anchor="middle" x="340.7017" y="-6.5" font-family="Helvetica,sans-Serif" font-size="10.00" fill="#000000">typeinfo</text>
</g>
<!-- Node4&#45;&gt;Node8 -->
<g id="edge8" class="edge">
<title>Node4&#45;&gt;Node8</title>
<path fill="none" stroke="#191970" d="M435.8769,-55.4179C417.5599,-46.5807 389.5088,-33.0473 368.5987,-22.9591"/>
<polygon fill="#191970" stroke="#191970" points="370.0819,-19.7887 359.5545,-18.5956 367.0402,-26.0933 370.0819,-19.7887"/>
</g>
<!-- Node9 -->
<g id="node10" class="node">
<title>Node9</title>
<polygon fill="#ffffff" stroke="#bfbfbf" points="384.6353,-.5 384.6353,-18.5 446.7681,-18.5 446.7681,-.5 384.6353,-.5"/>
<text text-anchor="middle" x="415.7017" y="-6.5" font-family="Helvetica,sans-Serif" font-size="10.00" fill="#000000">type_traits</text>
</g>
<!-- Node4&#45;&gt;Node9 -->
<g id="edge9" class="edge">
<title>Node4&#45;&gt;Node9</title>
<path fill="none" stroke="#191970" d="M448.2616,-55.4179C442.8184,-47.7415 434.8626,-36.5217 428.1778,-27.0945"/>
<polygon fill="#191970" stroke="#191970" points="430.9211,-24.9123 422.2817,-18.7795 425.2109,-28.9613 430.9211,-24.9123"/>
</g>
<!-- Node11 -->
<g id="node12" class="node">
<title>Node11</title>
<polygon fill="#ffffff" stroke="#bfbfbf" points="215.0318,-55.5 215.0318,-73.5 264.3716,-73.5 264.3716,-55.5 215.0318,-55.5"/>
<text text-anchor="middle" x="239.7017" y="-61.5" font-family="Helvetica,sans-Serif" font-size="10.00" fill="#000000">fstream</text>
</g>
<!-- Node10&#45;&gt;Node11 -->
<g id="edge11" class="edge">
<title>Node10&#45;&gt;Node11</title>
<path fill="none" stroke="#191970" d="M213.8207,-110.4179C218.0582,-102.8998 224.2114,-91.9829 229.4549,-82.6799"/>
<polygon fill="#191970" stroke="#191970" points="232.6103,-84.2096 234.4715,-73.7795 226.5122,-80.7724 232.6103,-84.2096"/>
</g>
<!-- Node12 -->
<g id="node13" class="node">
<title>Node12</title>
<polygon fill="#ffffff" stroke="#bfbfbf" points="142.5293,-55.5 142.5293,-73.5 196.8741,-73.5 196.8741,-55.5 142.5293,-55.5"/>
<text text-anchor="middle" x="169.7017" y="-61.5" font-family="Helvetica,sans-Serif" font-size="10.00" fill="#000000">iostream</text>
</g>
<!-- Node10&#45;&gt;Node12 -->
<g id="edge12" class="edge">
<title>Node10&#45;&gt;Node12</title>
<path fill="none" stroke="#191970" d="M202.2616,-110.4179C196.8184,-102.7415 188.8626,-91.5217 182.1778,-82.0945"/>
<polygon fill="#191970" stroke="#191970" points="184.9211,-79.9123 176.2817,-73.7795 179.2109,-83.9613 184.9211,-79.9123"/>
</g>
<!-- Node10&#45;&gt;Node13 -->
<g id="edge13" class="edge">
<title>Node10&#45;&gt;Node13</title>
<path fill="none" stroke="#191970" d="M224.2239,-110.4179C238.9192,-101.8195 261.2129,-88.7754 278.2883,-78.7844"/>
<polygon fill="#191970" stroke="#191970" points="280.2929,-81.6667 287.1565,-73.5956 276.7578,-75.6249 280.2929,-81.6667"/>
</g>
<!-- Node14 -->
<g id="node15" class="node">
<title>Node14</title>
<polygon fill="#ffffff" stroke="#bfbfbf" points="344.086,-55.5 344.086,-73.5 387.3174,-73.5 387.3174,-55.5 344.086,-55.5"/>
<text text-anchor="middle" x="365.7017" y="-61.5" font-family="Helvetica,sans-Serif" font-size="10.00" fill="#000000">vector</text>
</g>
<!-- Node10&#45;&gt;Node14 -->
<g id="edge14" class="edge">
<title>Node10&#45;&gt;Node14</title>
<path fill="none" stroke="#191970" d="M234.6271,-110.4179C261.8951,-100.8654 304.827,-85.8255 334.0696,-75.5813"/>
<polygon fill="#191970" stroke="#191970" points="335.5136,-78.7841 343.7941,-72.1746 333.1993,-72.1777 335.5136,-78.7841"/>
</g>
<!-- Node17&#45;&gt;Node2 -->
<g id="edge23" class="edge">
<title>Node17&#45;&gt;Node2</title>
<path fill="none" stroke="#191970" d="M312.0162,-235.462C294.4698,-225.9577 266.341,-210.7213 243.8616,-198.5449"/>
<polygon fill="#191970" stroke="#191970" points="245.3942,-195.3946 234.9342,-193.7093 242.0602,-201.5497 245.3942,-195.3946"/>
</g>
<!-- Node17&#45;&gt;Node16 -->
<g id="edge24" class="edge">
<title>Node17&#45;&gt;Node16</title>
<path fill="none" stroke="#191970" d="M324.2273,-235.2918C316.9985,-218.9275 305.2311,-184.6569 322.7017,-165 344.838,-140.0935 563.115,-126.4931 660.8285,-121.6111"/>
<polygon fill="#191970" stroke="#191970" points="661.1975,-125.0973 671.0142,-121.112 660.8549,-118.1057 661.1975,-125.0973"/>
</g>
<!-- Node17&#45;&gt;Node18 -->
<g id="edge20" class="edge">
<title>Node17&#45;&gt;Node18</title>
<path fill="none" stroke="#191970" d="M340.1035,-235.462C353.2477,-225.0428 375.0823,-207.7349 390.9944,-195.1216"/>
<polygon fill="#191970" stroke="#191970" points="393.47,-197.6255 399.1324,-188.6708 389.1217,-192.1399 393.47,-197.6255"/>
</g>
<!-- Node18&#45;&gt;Node14 -->
<g id="edge21" class="edge">
<title>Node18&#45;&gt;Node14</title>
<path fill="none" stroke="#191970" d="M407.1706,-170.4761C399.8463,-151.7585 382.8679,-108.3692 373.0578,-83.2989"/>
<polygon fill="#191970" stroke="#191970" points="376.2448,-81.8384 369.3414,-73.8014 369.7261,-84.3892 376.2448,-81.8384"/>
</g>
<!-- Node18&#45;&gt;Node16 -->
<g id="edge22" class="edge">
<title>Node18&#45;&gt;Node16</title>
<path fill="none" stroke="#191970" d="M455.4872,-170.4524C510.8646,-159.2651 604.6759,-140.3133 660.9468,-128.9454"/>
<polygon fill="#191970" stroke="#191970" points="661.8903,-132.3256 670.9992,-126.9146 660.5041,-125.4642 661.8903,-132.3256"/>
</g>
<!-- Node19&#45;&gt;Node1 -->
<g id="edge36" class="edge">
<title>Node19&#45;&gt;Node1</title>
<path fill="none" stroke="#191970" d="M487.3767,-301.9802C416.8515,-291.4419 287.2756,-272.08 198.1425,-258.7613"/>
<polygon fill="#191970" stroke="#191970" points="198.4304,-255.2655 188.0229,-257.2491 197.3959,-262.1886 198.4304,-255.2655"/>
</g>
<!-- Node19&#45;&gt;Node2 -->
<g id="edge37" class="edge">
<title>Node19&#45;&gt;Node2</title>
<path fill="none" stroke="#191970" d="M487.1785,-307.2991C411.0209,-302.9774 271.76,-290.8483 234.7017,-259 218.7576,-245.2974 212.5318,-221.6678 210.1316,-203.7213"/>
<polygon fill="#191970" stroke="#191970" points="213.6032,-203.2645 209.0972,-193.6756 206.64,-203.9816 213.6032,-203.2645"/>
</g>
<!-- Node19&#45;&gt;Node3 -->
<g id="edge32" class="edge">
<title>Node19&#45;&gt;Node3</title>
<path fill="none" stroke="#191970" d="M535.5778,-295.3921C531.2254,-268.8686 519.874,-210.1748 498.7017,-165 494.0065,-154.982 487.1052,-144.8183 480.9124,-136.6455"/>
<polygon fill="#191970" stroke="#191970" points="483.5519,-134.3404 474.6088,-128.6597 478.0574,-138.6775 483.5519,-134.3404"/>
</g>
<!-- Node19&#45;&gt;Node16 -->
<g id="edge40" class="edge">
<title>Node19&#45;&gt;Node16</title>
<path fill="none" stroke="#191970" d="M588.1831,-308.3528C669.6992,-305.4423 825.1928,-295.1718 864.7017,-259 895.9589,-230.3829 906.5778,-198.5616 880.7017,-165 865.3642,-145.1071 800.3323,-132.1868 754.5337,-125.3704"/>
<polygon fill="#191970" stroke="#191970" points="754.8986,-121.8869 744.5023,-123.9281 753.9024,-128.8157 754.8986,-121.8869"/>
</g>
<!-- Node19&#45;&gt;Node18 -->
<g id="edge35" class="edge">
<title>Node19&#45;&gt;Node18</title>
<path fill="none" stroke="#191970" d="M523.8687,-295.3402C500.2006,-271.113 452.0579,-221.8331 426.8752,-196.0555"/>
<polygon fill="#191970" stroke="#191970" points="429.0576,-193.2809 419.5659,-188.5736 424.0503,-198.1725 429.0576,-193.2809"/>
</g>
<!-- Node20 -->
<g id="node21" class="node">
<title>Node20</title>
<g id="a_node21"><a xlink:href="AdditiveStateModel_8h.html" target="_top" xlink:title="BayesFilters/AdditiveState\lModel.h">
<polygon fill="#ffffff" stroke="#000000" points="723.3423,-230.5 723.3423,-258.5 856.0611,-258.5 856.0611,-230.5 723.3423,-230.5"/>
<text text-anchor="start" x="731.3423" y="-246.5" font-family="Helvetica,sans-Serif" font-size="10.00" fill="#000000">BayesFilters/AdditiveState</text>
<text text-anchor="middle" x="789.7017" y="-236.5" font-family="Helvetica,sans-Serif" font-size="10.00" fill="#000000">Model.h</text>
</a>
</g>
</g>
<!-- Node19&#45;&gt;Node20 -->
<g id="edge28" class="edge">
<title>Node19&#45;&gt;Node20</title>
<path fill="none" stroke="#191970" d="M588.092,-296.5025C627.5349,-286.3287 682.6643,-272.1089 725.3069,-261.1098"/>
<polygon fill="#191970" stroke="#191970" points="726.2223,-264.4883 735.0312,-258.6015 724.4739,-257.7101 726.2223,-264.4883"/>
</g>
<!-- Node21 -->
<g id="node22" class="node">
<title>Node21</title>
<g id="a_node22"><a xlink:href="StateModel_8h.html" target="_top" xlink:title="BayesFilters/StateModel.h">
<polygon fill="#ffffff" stroke="#000000" points="723.3423,-170.5 723.3423,-188.5 856.0611,-188.5 856.0611,-170.5 723.3423,-170.5"/>
<text text-anchor="middle" x="789.7017" y="-176.5" font-family="Helvetica,sans-Serif" font-size="10.00" fill="#000000">BayesFilters/StateModel.h</text>
</a>
</g>
</g>
<!-- Node19&#45;&gt;Node21 -->
<g id="edge38" class="edge">
<title>Node19&#45;&gt;Node21</title>
<path fill="none" stroke="#191970" d="M549.4635,-295.3244C566.612,-274.9682 598.0282,-238.9203 612.7017,-230 633.8988,-217.1139 694.4877,-201.2835 738.8915,-190.8197"/>
<polygon fill="#191970" stroke="#191970" points="739.7204,-194.2204 748.6646,-188.5413 738.1311,-187.4032 739.7204,-194.2204"/>
</g>
<!-- Node22 -->
<g id="node23" class="node">
<title>Node22</title>
<g id="a_node23"><a xlink:href="ExogenousModel_8h.html" target="_top" xlink:title="BayesFilters/ExogenousModel.h">
<polygon fill="#ffffff" stroke="#000000" points="545.9976,-170.5 545.9976,-188.5 705.4058,-188.5 705.4058,-170.5 545.9976,-170.5"/>
<text text-anchor="middle" x="625.7017" y="-176.5" font-family="Helvetica,sans-Serif" font-size="10.00" fill="#000000">BayesFilters/ExogenousModel.h</text>
</a>
</g>
</g>
<!-- Node19&#45;&gt;Node22 -->
<g id="edge33" class="edge">
<title>Node19&#45;&gt;Node22</title>
<path fill="none" stroke="#191970" d="M543.8344,-295.3831C551.2497,-278.9905 564.6267,-251.4585 579.7017,-230 588.3299,-217.7183 599.6699,-205.2373 608.9316,-195.756"/>
<polygon fill="#191970" stroke="#191970" points="611.523,-198.1143 616.1173,-188.5674 606.5723,-193.1655 611.523,-198.1143"/>
</g>
<!-- Node23 -->
<g id="node24" class="node">
<title>Node23</title>
<polygon fill="#ffffff" stroke="#bfbfbf" points="621.2979,-235.5 621.2979,-253.5 680.1055,-253.5 680.1055,-235.5 621.2979,-235.5"/>
<text text-anchor="middle" x="650.7017" y="-241.5" font-family="Helvetica,sans-Serif" font-size="10.00" fill="#000000">functional</text>
</g>
<!-- Node19&#45;&gt;Node23 -->
<g id="edge39" class="edge">
<title>Node19&#45;&gt;Node23</title>
<path fill="none" stroke="#191970" d="M562.221,-295.396C581.1009,-284.5359 607.0845,-269.5895 626.0079,-258.7044"/>
<polygon fill="#191970" stroke="#191970" points="628.0033,-261.5944 634.9264,-253.5743 624.513,-255.5266 628.0033,-261.5944"/>
</g>
<!-- Node20&#45;&gt;Node16 -->
<g id="edge29" class="edge">
<title>Node20&#45;&gt;Node16</title>
<path fill="none" stroke="#191970" d="M819.5598,-230.4373C847.7943,-215.196 883.2802,-189.7271 864.7017,-165 851.3552,-147.2364 795.5951,-134.1802 754.3017,-126.7189"/>
<polygon fill="#191970" stroke="#191970" points="754.8682,-123.2649 744.4144,-124.9878 753.661,-130.16 754.8682,-123.2649"/>
</g>
<!-- Node20&#45;&gt;Node21 -->
<g id="edge30" class="edge">
<title>Node20&#45;&gt;Node21</title>
<path fill="none" stroke="#191970" d="M789.7017,-230.396C789.7017,-221.1723 789.7017,-209.0011 789.7017,-198.8738"/>
<polygon fill="#191970" stroke="#191970" points="793.2018,-198.5743 789.7017,-188.5743 786.2018,-198.5743 793.2018,-198.5743"/>
</g>
<!-- Node21&#45;&gt;Node16 -->
<g id="edge31" class="edge">
<title>Node21&#45;&gt;Node16</title>
<path fill="none" stroke="#191970" d="M777.2477,-170.3873C764.289,-160.9054 743.7775,-145.897 728.382,-134.6319"/>
<polygon fill="#191970" stroke="#191970" points="730.1414,-131.5824 720.0043,-128.5019 726.0078,-137.2316 730.1414,-131.5824"/>
</g>
<!-- Node22&#45;&gt;Node16 -->
<g id="edge34" class="edge">
<title>Node22&#45;&gt;Node16</title>
<path fill="none" stroke="#191970" d="M638.1557,-170.3873C651.1144,-160.9054 671.6259,-145.897 687.0214,-134.6319"/>
<polygon fill="#191970" stroke="#191970" points="689.3956,-137.2316 695.3991,-128.5019 685.262,-131.5824 689.3956,-137.2316"/>
</g>
</g>
</svg>
        <g id="navigator" transform="translate(0 0)" fill="#404254">
                <rect fill="#f2f5e9" fill-opacity="0.5" stroke="#606060" stroke-width=".5" x="0" y="0" width="60" height="60"/>
                <use id="zoomplus" xlink:href="#zoomPlus" x="17" y="9" onmousedown="handleZoom(evt,'in')"/>
                <use id="zoomminus" xlink:href="#zoomMin" x="42" y="9" onmousedown="handleZoom(evt,'out')"/>
                <use id="reset" xlink:href="#resetDef" x="30" y="36" onmousedown="handleReset()"/>
                <g id="arrowUp" xlink:href="#dirArrow" transform="translate(30 24)" onmousedown="handlePan(0,-1)">
                  <use xlink:href="#rim" fill="#404040">
                        <set attributeName="fill" to="#808080" begin="arrowUp.mouseover" end="arrowUp.mouseout"/>
                  </use>
                  <path fill="none" stroke="white" stroke-width="1.5" d="M0,-3.0v7 M-2.5,-0.5L0,-3.0L2.5,-0.5"/>
                </g>
                <g id="arrowRight" xlink:href="#dirArrow" transform="rotate(90) translate(36 -43)" onmousedown="handlePan(1,0)">
                  <use xlink:href="#rim" fill="#404040">
                        <set attributeName="fill" to="#808080" begin="arrowRight.mouseover" end="arrowRight.mouseout"/>
                  </use>
                  <path fill="none" stroke="white" stroke-width="1.5" d="M0,-3.0v7 M-2.5,-0.5L0,-3.0L2.5,-0.5"/>
                </g>
                <g id="arrowDown" xlink:href="#dirArrow" transform="rotate(180) translate(-30 -48)" onmousedown="handlePan(0,1)">
                  <use xlink:href="#rim" fill="#404040">
                        <set attributeName="fill" to="#808080" begin="arrowDown.mouseover" end="arrowDown.mouseout"/>
                  </use>
                  <path fill="none" stroke="white" stroke-width="1.5" d="M0,-3.0v7 M-2.5,-0.5L0,-3.0L2.5,-0.5"/>
                </g>
                <g id="arrowLeft" xlink:href="#dirArrow" transform="rotate(270) translate(-36 17)" onmousedown="handlePan(-1,0)">
                  <use xlink:href="#rim" fill="#404040">
                        <set attributeName="fill" to="#808080" begin="arrowLeft.mouseover" end="arrowLeft.mouseout"/>
                  </use>
                  <path fill="none" stroke="white" stroke-width="1.5" d="M0,-3.0v7 M-2.5,-0.5L0,-3.0L2.5,-0.5"/>
                </g>
        </g>
        <svg viewBox="0 0 15 15" width="100%" height="30px" preserveAspectRatio="xMaxYMin meet">
         <g id="arrow_out" transform="scale(0.3 0.3)">
          <a xlink:href="UKFCorrection_8h__incl_org.svg" target="_base">
           <rect id="button" ry="5" rx="5" y="6" x="6" height="38" width="38"
                fill="#f2f5e9" fill-opacity="0.5" stroke="#606060" stroke-width="1.0"/>
           <path id="arrow"
             d="M 11.500037,31.436501 C 11.940474,20.09759 22.043105,11.32322 32.158766,21.979434 L 37.068811,17.246167 C 37.068811,17.246167 37.088388,32 37.088388,32 L 22.160133,31.978069 C 22.160133,31.978069 26.997745,27.140456 26.997745,27.140456 C 18.528582,18.264221 13.291696,25.230495 11.500037,31.436501 z"
             style="fill:#404040;"/>
          </a>
         </g>
        </svg>
</svg>
