<?xml version="1.0" encoding="UTF-8" standalone="no"?>
<!DOCTYPE svg PUBLIC "-//W3C//DTD SVG 1.1//EN"
 "http://www.w3.org/Graphics/SVG/1.1/DTD/svg11.dtd">
<!-- Generated by graphviz version 2.40.1 (20161225.0304)
 -->
<!-- Title: /Users/Claudio/GitHub/bayes&#45;filters&#45;lib/src/BayesFilters/src/UKFCorrection.cpp Pages: 1 -->
<svg width="925pt" height="462pt"
 viewBox="0.00 0.00 925.13 462.00" xmlns="http://www.w3.org/2000/svg" xmlns:xlink="http://www.w3.org/1999/xlink">
<g id="graph0" class="graph" transform="scale(1 1) rotate(0) translate(4 458)">
<title>/Users/Claudio/GitHub/bayes&#45;filters&#45;lib/src/BayesFilters/src/UKFCorrection.cpp</title>
<polygon fill="#ffffff" stroke="transparent" points="-4,4 -4,-458 921.1259,-458 921.1259,4 -4,4"/>
<!-- Node0 -->
<g id="node1" class="node">
<title>Node0</title>
<polygon fill="#bfbfbf" stroke="#000000" points="323.9623,-415.5 323.9623,-453.5 501.6712,-453.5 501.6712,-415.5 323.9623,-415.5"/>
<text text-anchor="start" x="331.9623" y="-441.5" font-family="Helvetica,sans-Serif" font-size="10.00" fill="#000000">/Users/Claudio/GitHub</text>
<text text-anchor="start" x="331.9623" y="-431.5" font-family="Helvetica,sans-Serif" font-size="10.00" fill="#000000">/bayes&#45;filters&#45;lib/src</text>
<text text-anchor="middle" x="412.8167" y="-421.5" font-family="Helvetica,sans-Serif" font-size="10.00" fill="#000000">/BayesFilters/src/UKFCorrection.cpp</text>
</g>
<!-- Node1 -->
<g id="node2" class="node">
<title>Node1</title>
<g id="a_node2"><a xlink:href="UKFCorrection_8h.html" target="_top" xlink:title="BayesFilters/UKFCorrection.h">
<polygon fill="#ffffff" stroke="#000000" points="338.6864,-360.5 338.6864,-378.5 486.9471,-378.5 486.9471,-360.5 338.6864,-360.5"/>
<text text-anchor="middle" x="412.8167" y="-366.5" font-family="Helvetica,sans-Serif" font-size="10.00" fill="#000000">BayesFilters/UKFCorrection.h</text>
</a>
</g>
</g>
<!-- Node0&#45;&gt;Node1 -->
<g id="edge1" class="edge">
<title>Node0&#45;&gt;Node1</title>
<path fill="none" stroke="#191970" d="M412.8167,-415.3494C412.8167,-407.0079 412.8167,-397.2463 412.8167,-388.879"/>
<polygon fill="#191970" stroke="#191970" points="416.3168,-388.5978 412.8167,-378.5978 409.3168,-388.5979 416.3168,-388.5978"/>
</g>
<!-- Node2 -->
<g id="node3" class="node">
<title>Node2</title>
<g id="a_node3"><a xlink:href="AdditiveMeasurementModel_8h.html" target="_top" xlink:title="BayesFilters/AdditiveMeasurement\lModel.h">
<polygon fill="#ffffff" stroke="#000000" points="17.5633,-230.5 17.5633,-258.5 188.0702,-258.5 188.0702,-230.5 17.5633,-230.5"/>
<text text-anchor="start" x="25.5633" y="-246.5" font-family="Helvetica,sans-Serif" font-size="10.00" fill="#000000">BayesFilters/AdditiveMeasurement</text>
<text text-anchor="middle" x="102.8167" y="-236.5" font-family="Helvetica,sans-Serif" font-size="10.00" fill="#000000">Model.h</text>
</a>
</g>
</g>
<!-- Node1&#45;&gt;Node2 -->
<g id="edge2" class="edge">
<title>Node1&#45;&gt;Node2</title>
<path fill="none" stroke="#191970" d="M390.2726,-360.4096C339.2783,-339.8474 214.2995,-289.4527 147.1691,-262.384"/>
<polygon fill="#191970" stroke="#191970" points="148.2834,-259.0595 137.7001,-258.5658 145.6656,-265.5516 148.2834,-259.0595"/>
</g>
<!-- Node3 -->
<g id="node4" class="node">
<title>Node3</title>
<g id="a_node4"><a xlink:href="MeasurementModel_8h.html" target="_top" xlink:title="BayesFilters/Measurement\lModel.h">
<polygon fill="#ffffff" stroke="#000000" points="141.3514,-165.5 141.3514,-193.5 276.2821,-193.5 276.2821,-165.5 141.3514,-165.5"/>
<text text-anchor="start" x="149.3514" y="-181.5" font-family="Helvetica,sans-Serif" font-size="10.00" fill="#000000">BayesFilters/Measurement</text>
<text text-anchor="middle" x="208.8167" y="-171.5" font-family="Helvetica,sans-Serif" font-size="10.00" fill="#000000">Model.h</text>
</a>
</g>
</g>
<!-- Node1&#45;&gt;Node3 -->
<g id="edge27" class="edge">
<title>Node1&#45;&gt;Node3</title>
<path fill="none" stroke="#191970" d="M341.4065,-360.4994C236.3882,-345.6146 48.4151,-312.1279 8.8167,-259 -26.9915,-210.9572 60.5424,-191.9084 130.9418,-184.3808"/>
<polygon fill="#191970" stroke="#191970" points="131.5875,-187.8337 141.1876,-183.3517 130.8878,-180.8687 131.5875,-187.8337"/>
</g>
<!-- Node17 -->
<g id="node18" class="node">
<title>Node17</title>
<polygon fill="#ffffff" stroke="#bfbfbf" points="671.1864,-110.5 671.1864,-128.5 744.4471,-128.5 744.4471,-110.5 671.1864,-110.5"/>
<text text-anchor="middle" x="707.8167" y="-116.5" font-family="Helvetica,sans-Serif" font-size="10.00" fill="#000000">Eigen/Dense</text>
</g>
<!-- Node1&#45;&gt;Node17 -->
<g id="edge42" class="edge">
<title>Node1&#45;&gt;Node17</title>
<path fill="none" stroke="#191970" d="M487.1817,-362.2489C607.1489,-348.9791 835.4725,-316.7067 889.8167,-259 918.6542,-228.3783 926.9252,-197.9793 900.8167,-165 882.9251,-142.3999 805.8536,-129.8975 754.6836,-123.9528"/>
<polygon fill="#191970" stroke="#191970" points="754.831,-120.4476 744.5044,-122.8164 754.0543,-127.4044 754.831,-120.4476"/>
</g>
<!-- Node18 -->
<g id="node19" class="node">
<title>Node18</title>
<g id="a_node19"><a xlink:href="GaussianCorrection_8h.html" target="_top" xlink:title="BayesFilters/GaussianCorrection.h">
<polygon fill="#ffffff" stroke="#000000" points="243.5633,-235.5 243.5633,-253.5 414.0702,-253.5 414.0702,-235.5 243.5633,-235.5"/>
<text text-anchor="middle" x="328.8167" y="-241.5" font-family="Helvetica,sans-Serif" font-size="10.00" fill="#000000">BayesFilters/GaussianCorrection.h</text>
</a>
</g>
</g>
<!-- Node1&#45;&gt;Node18 -->
<g id="edge20" class="edge">
<title>Node1&#45;&gt;Node18</title>
<path fill="none" stroke="#191970" d="M406.5031,-360.1047C392.5096,-339.281 358.7014,-288.9713 340.6464,-262.1036"/>
<polygon fill="#191970" stroke="#191970" points="343.458,-260.0125 334.9754,-253.6646 337.648,-263.9168 343.458,-260.0125"/>
</g>
<!-- Node19 -->
<g id="node20" class="node">
<title>Node19</title>
<g id="a_node20"><a xlink:href="GaussianMixture_8h.html" target="_top" xlink:title="BayesFilters/GaussianMixture.h">
<polygon fill="#ffffff" stroke="#000000" points="332.2357,-170.5 332.2357,-188.5 489.3978,-188.5 489.3978,-170.5 332.2357,-170.5"/>
<text text-anchor="middle" x="410.8167" y="-176.5" font-family="Helvetica,sans-Serif" font-size="10.00" fill="#000000">BayesFilters/GaussianMixture.h</text>
</a>
</g>
</g>
<!-- Node1&#45;&gt;Node19 -->
<g id="edge26" class="edge">
<title>Node1&#45;&gt;Node19</title>
<path fill="none" stroke="#191970" d="M414.6628,-360.333C418.9041,-337.9881 428.5533,-278.9553 422.8167,-230 421.5805,-219.4499 418.9385,-207.9087 416.4475,-198.5258"/>
<polygon fill="#191970" stroke="#191970" points="419.7591,-197.3727 413.6858,-188.6914 413.0198,-199.2652 419.7591,-197.3727"/>
</g>
<!-- Node20 -->
<g id="node21" class="node">
<title>Node20</title>
<g id="a_node21"><a xlink:href="sigma__point_8h.html" target="_top" xlink:title="BayesFilters/sigma\l_point.h">
<polygon fill="#ffffff" stroke="#000000" points="487.5829,-295.5 487.5829,-323.5 588.0506,-323.5 588.0506,-295.5 487.5829,-295.5"/>
<text text-anchor="start" x="495.5829" y="-311.5" font-family="Helvetica,sans-Serif" font-size="10.00" fill="#000000">BayesFilters/sigma</text>
<text text-anchor="middle" x="537.8167" y="-301.5" font-family="Helvetica,sans-Serif" font-size="10.00" fill="#000000">_point.h</text>
</a>
</g>
</g>
<!-- Node1&#45;&gt;Node20 -->
<g id="edge28" class="edge">
<title>Node1&#45;&gt;Node20</title>
<path fill="none" stroke="#191970" d="M431.8016,-360.3873C449.6102,-351.8392 476.7762,-338.7995 499.1497,-328.0602"/>
<polygon fill="#191970" stroke="#191970" points="500.903,-331.101 508.4037,-323.6183 497.8738,-324.7903 500.903,-331.101"/>
</g>
<!-- Node2&#45;&gt;Node3 -->
<g id="edge3" class="edge">
<title>Node2&#45;&gt;Node3</title>
<path fill="none" stroke="#191970" d="M125.8172,-230.396C140.8188,-221.1968 160.6018,-209.0658 177.0908,-198.9546"/>
<polygon fill="#191970" stroke="#191970" points="179.166,-201.7878 185.8612,-193.5765 175.5067,-195.8204 179.166,-201.7878"/>
</g>
<!-- Node4 -->
<g id="node5" class="node">
<title>Node4</title>
<g id="a_node5"><a xlink:href="Data_8h.html" target="_top" xlink:title="BayesFilters/Data.h">
<polygon fill="#ffffff" stroke="#000000" points="415.1888,-110.5 415.1888,-128.5 518.4447,-128.5 518.4447,-110.5 415.1888,-110.5"/>
<text text-anchor="middle" x="466.8167" y="-116.5" font-family="Helvetica,sans-Serif" font-size="10.00" fill="#000000">BayesFilters/Data.h</text>
</a>
</g>
</g>
<!-- Node3&#45;&gt;Node4 -->
<g id="edge4" class="edge">
<title>Node3&#45;&gt;Node4</title>
<path fill="none" stroke="#191970" d="M269.3063,-165.4327C314.6706,-154.8828 375.9587,-140.6298 418.1709,-130.813"/>
<polygon fill="#191970" stroke="#191970" points="418.9901,-134.216 427.9373,-128.5417 417.4044,-127.3979 418.9901,-134.216"/>
</g>
<!-- Node7 -->
<g id="node8" class="node">
<title>Node7</title>
<polygon fill="#ffffff" stroke="#bfbfbf" points="188.7601,-.5 188.7601,-18.5 240.8734,-18.5 240.8734,-.5 188.7601,-.5"/>
<text text-anchor="middle" x="214.8167" y="-6.5" font-family="Helvetica,sans-Serif" font-size="10.00" fill="#000000">memory</text>
</g>
<!-- Node3&#45;&gt;Node7 -->
<g id="edge16" class="edge">
<title>Node3&#45;&gt;Node7</title>
<path fill="none" stroke="#191970" d="M182.4499,-165.3615C168.7925,-156.6725 153.0782,-144.2743 143.8167,-129 126.6096,-100.6214 117.0536,-83.6431 133.8167,-55 143.6235,-38.2432 162.117,-27.1848 178.9596,-20.1709"/>
<polygon fill="#191970" stroke="#191970" points="180.5082,-23.3264 188.6074,-16.496 178.0165,-16.7849 180.5082,-23.3264"/>
</g>
<!-- Node11 -->
<g id="node12" class="node">
<title>Node11</title>
<g id="a_node12"><a xlink:href="Logger_8h.html" target="_top" xlink:title="BayesFilters/Logger.h">
<polygon fill="#ffffff" stroke="#000000" points="152.4549,-110.5 152.4549,-128.5 265.1786,-128.5 265.1786,-110.5 152.4549,-110.5"/>
<text text-anchor="middle" x="208.8167" y="-116.5" font-family="Helvetica,sans-Serif" font-size="10.00" fill="#000000">BayesFilters/Logger.h</text>
</a>
</g>
</g>
<!-- Node3&#45;&gt;Node11 -->
<g id="edge11" class="edge">
<title>Node3&#45;&gt;Node11</title>
<path fill="none" stroke="#191970" d="M208.8167,-165.2808C208.8167,-157.3776 208.8167,-147.4316 208.8167,-138.8308"/>
<polygon fill="#191970" stroke="#191970" points="212.3168,-138.5842 208.8167,-128.5842 205.3168,-138.5842 212.3168,-138.5842"/>
</g>
<!-- Node14 -->
<g id="node15" class="node">
<title>Node14</title>
<polygon fill="#ffffff" stroke="#bfbfbf" points="282.5902,-55.5 282.5902,-73.5 323.0433,-73.5 323.0433,-55.5 282.5902,-55.5"/>
<text text-anchor="middle" x="302.8167" y="-61.5" font-family="Helvetica,sans-Serif" font-size="10.00" fill="#000000">string</text>
</g>
<!-- Node3&#45;&gt;Node14 -->
<g id="edge17" class="edge">
<title>Node3&#45;&gt;Node14</title>
<path fill="none" stroke="#191970" d="M232.2092,-165.4542C245.7505,-156.3971 262.3328,-143.6027 273.8167,-129 284.5964,-115.2928 292.3414,-96.9414 297.1008,-83.3183"/>
<polygon fill="#191970" stroke="#191970" points="300.5019,-84.1782 300.2787,-73.5857 293.8476,-82.0054 300.5019,-84.1782"/>
</g>
<!-- Node16 -->
<g id="node17" class="node">
<title>Node16</title>
<polygon fill="#ffffff" stroke="#bfbfbf" points="320.4251,-110.5 320.4251,-128.5 359.2084,-128.5 359.2084,-110.5 320.4251,-110.5"/>
<text text-anchor="middle" x="339.8167" y="-116.5" font-family="Helvetica,sans-Serif" font-size="10.00" fill="#000000">utility</text>
</g>
<!-- Node3&#45;&gt;Node16 -->
<g id="edge18" class="edge">
<title>Node3&#45;&gt;Node16</title>
<path fill="none" stroke="#191970" d="M239.5304,-165.4327C261.172,-155.5205 289.951,-142.3393 311.1279,-132.6399"/>
<polygon fill="#191970" stroke="#191970" points="312.6357,-135.799 320.27,-128.4527 309.7207,-129.4348 312.6357,-135.799"/>
</g>
<!-- Node3&#45;&gt;Node17 -->
<g id="edge19" class="edge">
<title>Node3&#45;&gt;Node17</title>
<path fill="none" stroke="#191970" d="M276.3824,-167.0468C280.9234,-166.3204 285.4331,-165.6302 289.8167,-165 423.8676,-145.729 583.1556,-130.4932 660.6991,-123.5649"/>
<polygon fill="#191970" stroke="#191970" points="661.4358,-127.0134 671.0872,-122.6429 660.8169,-120.0408 661.4358,-127.0134"/>
</g>
<!-- Node5 -->
<g id="node6" class="node">
<title>Node5</title>
<g id="a_node6"><a xlink:href="any_8h.html" target="_top" xlink:title="BayesFilters/any.h">
<polygon fill="#ffffff" stroke="#000000" points="406.0575,-55.5 406.0575,-73.5 503.576,-73.5 503.576,-55.5 406.0575,-55.5"/>
<text text-anchor="middle" x="454.8167" y="-61.5" font-family="Helvetica,sans-Serif" font-size="10.00" fill="#000000">BayesFilters/any.h</text>
</a>
</g>
</g>
<!-- Node4&#45;&gt;Node5 -->
<g id="edge5" class="edge">
<title>Node4&#45;&gt;Node5</title>
<path fill="none" stroke="#191970" d="M464.8352,-110.4179C463.2467,-103.1372 460.9627,-92.669 458.9766,-83.5659"/>
<polygon fill="#191970" stroke="#191970" points="462.3927,-82.8035 456.8414,-73.7795 455.5536,-84.2957 462.3927,-82.8035"/>
</g>
<!-- Node6 -->
<g id="node7" class="node">
<title>Node6</title>
<polygon fill="#ffffff" stroke="#bfbfbf" points="465.2528,-.5 465.2528,-18.5 522.3807,-18.5 522.3807,-.5 465.2528,-.5"/>
<text text-anchor="middle" x="493.8167" y="-6.5" font-family="Helvetica,sans-Serif" font-size="10.00" fill="#000000">algorithm</text>
</g>
<!-- Node5&#45;&gt;Node6 -->
<g id="edge6" class="edge">
<title>Node5&#45;&gt;Node6</title>
<path fill="none" stroke="#191970" d="M461.2568,-55.4179C466.7,-47.7415 474.6559,-36.5217 481.3407,-27.0945"/>
<polygon fill="#191970" stroke="#191970" points="484.3075,-28.9613 487.2368,-18.7795 478.5974,-24.9123 484.3075,-28.9613"/>
</g>
<!-- Node5&#45;&gt;Node7 -->
<g id="edge7" class="edge">
<title>Node5&#45;&gt;Node7</title>
<path fill="none" stroke="#191970" d="M415.4544,-55.4795C369.8064,-45.0185 295.1835,-27.9174 250.9551,-17.7817"/>
<polygon fill="#191970" stroke="#191970" points="251.7301,-14.3687 241.201,-15.5464 250.1664,-21.1918 251.7301,-14.3687"/>
</g>
<!-- Node8 -->
<g id="node9" class="node">
<title>Node8</title>
<polygon fill="#ffffff" stroke="#bfbfbf" points="540.4154,-.5 540.4154,-18.5 599.2181,-18.5 599.2181,-.5 540.4154,-.5"/>
<text text-anchor="middle" x="569.8167" y="-6.5" font-family="Helvetica,sans-Serif" font-size="10.00" fill="#000000">stdexcept</text>
</g>
<!-- Node5&#45;&gt;Node8 -->
<g id="edge8" class="edge">
<title>Node5&#45;&gt;Node8</title>
<path fill="none" stroke="#191970" d="M473.8067,-55.4179C492.2844,-46.5807 520.5815,-33.0473 541.6751,-22.9591"/>
<polygon fill="#191970" stroke="#191970" points="543.2874,-26.0677 550.7986,-18.5956 540.2672,-19.7528 543.2874,-26.0677"/>
</g>
<!-- Node9 -->
<g id="node10" class="node">
<title>Node9</title>
<polygon fill="#ffffff" stroke="#bfbfbf" points="315.3045,-.5 315.3045,-18.5 366.329,-18.5 366.329,-.5 315.3045,-.5"/>
<text text-anchor="middle" x="340.8167" y="-6.5" font-family="Helvetica,sans-Serif" font-size="10.00" fill="#000000">typeinfo</text>
</g>
<!-- Node5&#45;&gt;Node9 -->
<g id="edge9" class="edge">
<title>Node5&#45;&gt;Node9</title>
<path fill="none" stroke="#191970" d="M435.992,-55.4179C417.6749,-46.5807 389.6238,-33.0473 368.7137,-22.9591"/>
<polygon fill="#191970" stroke="#191970" points="370.197,-19.7887 359.6695,-18.5956 367.1552,-26.0933 370.197,-19.7887"/>
</g>
<!-- Node10 -->
<g id="node11" class="node">
<title>Node10</title>
<polygon fill="#ffffff" stroke="#bfbfbf" points="384.7503,-.5 384.7503,-18.5 446.8832,-18.5 446.8832,-.5 384.7503,-.5"/>
<text text-anchor="middle" x="415.8167" y="-6.5" font-family="Helvetica,sans-Serif" font-size="10.00" fill="#000000">type_traits</text>
</g>
<!-- Node5&#45;&gt;Node10 -->
<g id="edge10" class="edge">
<title>Node5&#45;&gt;Node10</title>
<path fill="none" stroke="#191970" d="M448.3767,-55.4179C442.9335,-47.7415 434.9776,-36.5217 428.2928,-27.0945"/>
<polygon fill="#191970" stroke="#191970" points="431.0361,-24.9123 422.3967,-18.7795 425.326,-28.9613 431.0361,-24.9123"/>
</g>
<!-- Node12 -->
<g id="node13" class="node">
<title>Node12</title>
<polygon fill="#ffffff" stroke="#bfbfbf" points="215.1468,-55.5 215.1468,-73.5 264.4867,-73.5 264.4867,-55.5 215.1468,-55.5"/>
<text text-anchor="middle" x="239.8167" y="-61.5" font-family="Helvetica,sans-Serif" font-size="10.00" fill="#000000">fstream</text>
</g>
<!-- Node11&#45;&gt;Node12 -->
<g id="edge12" class="edge">
<title>Node11&#45;&gt;Node12</title>
<path fill="none" stroke="#191970" d="M213.9358,-110.4179C218.1732,-102.8998 224.3264,-91.9829 229.5699,-82.6799"/>
<polygon fill="#191970" stroke="#191970" points="232.7254,-84.2096 234.5865,-73.7795 226.6273,-80.7724 232.7254,-84.2096"/>
</g>
<!-- Node13 -->
<g id="node14" class="node">
<title>Node13</title>
<polygon fill="#ffffff" stroke="#bfbfbf" points="142.6444,-55.5 142.6444,-73.5 196.9891,-73.5 196.9891,-55.5 142.6444,-55.5"/>
<text text-anchor="middle" x="169.8167" y="-61.5" font-family="Helvetica,sans-Serif" font-size="10.00" fill="#000000">iostream</text>
</g>
<!-- Node11&#45;&gt;Node13 -->
<g id="edge13" class="edge">
<title>Node11&#45;&gt;Node13</title>
<path fill="none" stroke="#191970" d="M202.3767,-110.4179C196.9335,-102.7415 188.9776,-91.5217 182.2928,-82.0945"/>
<polygon fill="#191970" stroke="#191970" points="185.0361,-79.9123 176.3967,-73.7795 179.326,-83.9613 185.0361,-79.9123"/>
</g>
<!-- Node11&#45;&gt;Node14 -->
<g id="edge14" class="edge">
<title>Node11&#45;&gt;Node14</title>
<path fill="none" stroke="#191970" d="M224.3389,-110.4179C239.0343,-101.8195 261.3279,-88.7754 278.4034,-78.7844"/>
<polygon fill="#191970" stroke="#191970" points="280.4079,-81.6667 287.2715,-73.5956 276.8728,-75.6249 280.4079,-81.6667"/>
</g>
<!-- Node15 -->
<g id="node16" class="node">
<title>Node15</title>
<polygon fill="#ffffff" stroke="#bfbfbf" points="344.201,-55.5 344.201,-73.5 387.4325,-73.5 387.4325,-55.5 344.201,-55.5"/>
<text text-anchor="middle" x="365.8167" y="-61.5" font-family="Helvetica,sans-Serif" font-size="10.00" fill="#000000">vector</text>
</g>
<!-- Node11&#45;&gt;Node15 -->
<g id="edge15" class="edge">
<title>Node11&#45;&gt;Node15</title>
<path fill="none" stroke="#191970" d="M234.7421,-110.4179C262.0102,-100.8654 304.942,-85.8255 334.1847,-75.5813"/>
<polygon fill="#191970" stroke="#191970" points="335.6287,-78.7841 343.9091,-72.1746 333.3143,-72.1777 335.6287,-78.7841"/>
</g>
<!-- Node18&#45;&gt;Node3 -->
<g id="edge24" class="edge">
<title>Node18&#45;&gt;Node3</title>
<path fill="none" stroke="#191970" d="M312.1313,-235.462C294.5848,-225.9577 266.4561,-210.7213 243.9766,-198.5449"/>
<polygon fill="#191970" stroke="#191970" points="245.5092,-195.3946 235.0493,-193.7093 242.1752,-201.5497 245.5092,-195.3946"/>
</g>
<!-- Node18&#45;&gt;Node17 -->
<g id="edge25" class="edge">
<title>Node18&#45;&gt;Node17</title>
<path fill="none" stroke="#191970" d="M324.3423,-235.2918C317.1135,-218.9275 305.3462,-184.6569 322.8167,-165 344.9531,-140.0935 563.23,-126.4931 660.9436,-121.6111"/>
<polygon fill="#191970" stroke="#191970" points="661.3126,-125.0973 671.1293,-121.112 660.9699,-118.1057 661.3126,-125.0973"/>
</g>
<!-- Node18&#45;&gt;Node19 -->
<g id="edge21" class="edge">
<title>Node18&#45;&gt;Node19</title>
<path fill="none" stroke="#191970" d="M340.2185,-235.462C353.3627,-225.0428 375.1973,-207.7349 391.1095,-195.1216"/>
<polygon fill="#191970" stroke="#191970" points="393.5851,-197.6255 399.2475,-188.6708 389.2367,-192.1399 393.5851,-197.6255"/>
</g>
<!-- Node19&#45;&gt;Node15 -->
<g id="edge22" class="edge">
<title>Node19&#45;&gt;Node15</title>
<path fill="none" stroke="#191970" d="M407.2857,-170.4761C399.9614,-151.7585 382.9829,-108.3692 373.1728,-83.2989"/>
<polygon fill="#191970" stroke="#191970" points="376.3598,-81.8384 369.4564,-73.8014 369.8411,-84.3892 376.3598,-81.8384"/>
</g>
<!-- Node19&#45;&gt;Node17 -->
<g id="edge23" class="edge">
<title>Node19&#45;&gt;Node17</title>
<path fill="none" stroke="#191970" d="M455.6022,-170.4524C510.9797,-159.2651 604.791,-140.3133 661.0618,-128.9454"/>
<polygon fill="#191970" stroke="#191970" points="662.0054,-132.3256 671.1142,-126.9146 660.6192,-125.4642 662.0054,-132.3256"/>
</g>
<!-- Node20&#45;&gt;Node2 -->
<g id="edge37" class="edge">
<title>Node20&#45;&gt;Node2</title>
<path fill="none" stroke="#191970" d="M487.4918,-301.9802C416.9665,-291.4419 287.3906,-272.08 198.2575,-258.7613"/>
<polygon fill="#191970" stroke="#191970" points="198.5454,-255.2655 188.138,-257.2491 197.5109,-262.1886 198.5454,-255.2655"/>
</g>
<!-- Node20&#45;&gt;Node3 -->
<g id="edge38" class="edge">
<title>Node20&#45;&gt;Node3</title>
<path fill="none" stroke="#191970" d="M487.2935,-307.2991C411.136,-302.9774 271.875,-290.8483 234.8167,-259 218.8726,-245.2974 212.6468,-221.6678 210.2466,-203.7213"/>
<polygon fill="#191970" stroke="#191970" points="213.7182,-203.2645 209.2123,-193.6756 206.755,-203.9816 213.7182,-203.2645"/>
</g>
<!-- Node20&#45;&gt;Node4 -->
<g id="edge33" class="edge">
<title>Node20&#45;&gt;Node4</title>
<path fill="none" stroke="#191970" d="M535.6928,-295.3921C531.3404,-268.8686 519.989,-210.1748 498.8167,-165 494.1216,-154.982 487.2202,-144.8183 481.0275,-136.6455"/>
<polygon fill="#191970" stroke="#191970" points="483.667,-134.3404 474.7238,-128.6597 478.1725,-138.6775 483.667,-134.3404"/>
</g>
<!-- Node20&#45;&gt;Node17 -->
<g id="edge41" class="edge">
<title>Node20&#45;&gt;Node17</title>
<path fill="none" stroke="#191970" d="M588.2981,-308.3528C669.8143,-305.4423 825.3078,-295.1718 864.8167,-259 896.074,-230.3829 906.6928,-198.5616 880.8167,-165 865.4793,-145.1071 800.4474,-132.1868 754.6487,-125.3704"/>
<polygon fill="#191970" stroke="#191970" points="755.0136,-121.8869 744.6173,-123.9281 754.0174,-128.8157 755.0136,-121.8869"/>
</g>
<!-- Node20&#45;&gt;Node19 -->
<g id="edge36" class="edge">
<title>Node20&#45;&gt;Node19</title>
<path fill="none" stroke="#191970" d="M523.9838,-295.3402C500.3156,-271.113 452.173,-221.8331 426.9902,-196.0555"/>
<polygon fill="#191970" stroke="#191970" points="429.1726,-193.2809 419.6809,-188.5736 424.1654,-198.1725 429.1726,-193.2809"/>
</g>
<!-- Node21 -->
<g id="node22" class="node">
<title>Node21</title>
<g id="a_node22"><a xlink:href="AdditiveStateModel_8h.html" target="_top" xlink:title="BayesFilters/AdditiveState\lModel.h">
<polygon fill="#ffffff" stroke="#000000" points="723.4574,-230.5 723.4574,-258.5 856.1761,-258.5 856.1761,-230.5 723.4574,-230.5"/>
<text text-anchor="start" x="731.4574" y="-246.5" font-family="Helvetica,sans-Serif" font-size="10.00" fill="#000000">BayesFilters/AdditiveState</text>
<text text-anchor="middle" x="789.8167" y="-236.5" font-family="Helvetica,sans-Serif" font-size="10.00" fill="#000000">Model.h</text>
</a>
</g>
</g>
<!-- Node20&#45;&gt;Node21 -->
<g id="edge29" class="edge">
<title>Node20&#45;&gt;Node21</title>
<path fill="none" stroke="#191970" d="M588.207,-296.5025C627.65,-286.3287 682.7793,-272.1089 725.4219,-261.1098"/>
<polygon fill="#191970" stroke="#191970" points="726.3373,-264.4883 735.1462,-258.6015 724.5889,-257.7101 726.3373,-264.4883"/>
</g>
<!-- Node22 -->
<g id="node23" class="node">
<title>Node22</title>
<g id="a_node23"><a xlink:href="StateModel_8h.html" target="_top" xlink:title="BayesFilters/StateModel.h">
<polygon fill="#ffffff" stroke="#000000" points="723.4574,-170.5 723.4574,-188.5 856.1761,-188.5 856.1761,-170.5 723.4574,-170.5"/>
<text text-anchor="middle" x="789.8167" y="-176.5" font-family="Helvetica,sans-Serif" font-size="10.00" fill="#000000">BayesFilters/StateModel.h</text>
</a>
</g>
</g>
<!-- Node20&#45;&gt;Node22 -->
<g id="edge39" class="edge">
<title>Node20&#45;&gt;Node22</title>
<path fill="none" stroke="#191970" d="M549.5785,-295.3244C566.727,-274.9682 598.1433,-238.9203 612.8167,-230 634.0139,-217.1139 694.6028,-201.2835 739.0066,-190.8197"/>
<polygon fill="#191970" stroke="#191970" points="739.8355,-194.2204 748.7796,-188.5413 738.2461,-187.4032 739.8355,-194.2204"/>
</g>
<!-- Node23 -->
<g id="node24" class="node">
<title>Node23</title>
<g id="a_node24"><a xlink:href="ExogenousModel_8h.html" target="_top" xlink:title="BayesFilters/ExogenousModel.h">
<polygon fill="#ffffff" stroke="#000000" points="546.1126,-170.5 546.1126,-188.5 705.5209,-188.5 705.5209,-170.5 546.1126,-170.5"/>
<text text-anchor="middle" x="625.8167" y="-176.5" font-family="Helvetica,sans-Serif" font-size="10.00" fill="#000000">BayesFilters/ExogenousModel.h</text>
</a>
</g>
</g>
<!-- Node20&#45;&gt;Node23 -->
<g id="edge34" class="edge">
<title>Node20&#45;&gt;Node23</title>
<path fill="none" stroke="#191970" d="M543.9495,-295.3831C551.3648,-278.9905 564.7417,-251.4585 579.8167,-230 588.4449,-217.7183 599.785,-205.2373 609.0466,-195.756"/>
<polygon fill="#191970" stroke="#191970" points="611.638,-198.1143 616.2324,-188.5674 606.6873,-193.1655 611.638,-198.1143"/>
</g>
<!-- Node24 -->
<g id="node25" class="node">
<title>Node24</title>
<polygon fill="#ffffff" stroke="#bfbfbf" points="621.4129,-235.5 621.4129,-253.5 680.2206,-253.5 680.2206,-235.5 621.4129,-235.5"/>
<text text-anchor="middle" x="650.8167" y="-241.5" font-family="Helvetica,sans-Serif" font-size="10.00" fill="#000000">functional</text>
</g>
<!-- Node20&#45;&gt;Node24 -->
<g id="edge40" class="edge">
<title>Node20&#45;&gt;Node24</title>
<path fill="none" stroke="#191970" d="M562.3361,-295.396C581.2159,-284.5359 607.1996,-269.5895 626.123,-258.7044"/>
<polygon fill="#191970" stroke="#191970" points="628.1183,-261.5944 635.0414,-253.5743 624.628,-255.5266 628.1183,-261.5944"/>
</g>
<!-- Node21&#45;&gt;Node17 -->
<g id="edge30" class="edge">
<title>Node21&#45;&gt;Node17</title>
<path fill="none" stroke="#191970" d="M819.6748,-230.4373C847.9093,-215.196 883.3952,-189.7271 864.8167,-165 851.4703,-147.2364 795.7102,-134.1802 754.4167,-126.7189"/>
<polygon fill="#191970" stroke="#191970" points="754.9832,-123.2649 744.5294,-124.9878 753.776,-130.16 754.9832,-123.2649"/>
</g>
<!-- Node21&#45;&gt;Node22 -->
<g id="edge31" class="edge">
<title>Node21&#45;&gt;Node22</title>
<path fill="none" stroke="#191970" d="M789.8167,-230.396C789.8167,-221.1723 789.8167,-209.0011 789.8167,-198.8738"/>
<polygon fill="#191970" stroke="#191970" points="793.3168,-198.5743 789.8167,-188.5743 786.3168,-198.5743 793.3168,-198.5743"/>
</g>
<!-- Node22&#45;&gt;Node17 -->
<g id="edge32" class="edge">
<title>Node22&#45;&gt;Node17</title>
<path fill="none" stroke="#191970" d="M777.3627,-170.3873C764.4041,-160.9054 743.8926,-145.897 728.497,-134.6319"/>
<polygon fill="#191970" stroke="#191970" points="730.2564,-131.5824 720.1193,-128.5019 726.1228,-137.2316 730.2564,-131.5824"/>
</g>
<!-- Node23&#45;&gt;Node17 -->
<g id="edge35" class="edge">
<title>Node23&#45;&gt;Node17</title>
<path fill="none" stroke="#191970" d="M638.2708,-170.3873C651.2294,-160.9054 671.7409,-145.897 687.1365,-134.6319"/>
<polygon fill="#191970" stroke="#191970" points="689.5107,-137.2316 695.5142,-128.5019 685.3771,-131.5824 689.5107,-137.2316"/>
</g>
</g>
</svg>
