<?xml version="1.0" encoding="UTF-8" standalone="no"?>
<!DOCTYPE svg PUBLIC "-//W3C//DTD SVG 1.1//EN"
 "http://www.w3.org/Graphics/SVG/1.1/DTD/svg11.dtd">
<!-- Generated by graphviz version 2.40.1 (20161225.0304)
 -->
<!-- Title: /Users/Claudio/GitHub/bayes&#45;filters&#45;lib/src/BayesFilters/include/BayesFilters/UKFPrediction.h Pages: 1 -->
<svg width="1270pt" height="417pt"
 viewBox="0.00 0.00 1269.65 417.00" xmlns="http://www.w3.org/2000/svg" xmlns:xlink="http://www.w3.org/1999/xlink">
<g id="graph0" class="graph" transform="scale(1 1) rotate(0) translate(4 413)">
<title>/Users/Claudio/GitHub/bayes&#45;filters&#45;lib/src/BayesFilters/include/BayesFilters/UKFPrediction.h</title>
<polygon fill="#ffffff" stroke="transparent" points="-4,4 -4,-413 1265.6475,-413 1265.6475,4 -4,4"/>
<!-- Node0 -->
<g id="node1" class="node">
<title>Node0</title>
<polygon fill="#bfbfbf" stroke="#000000" points="234.5542,-360.5 234.5542,-408.5 400.6079,-408.5 400.6079,-360.5 234.5542,-360.5"/>
<text text-anchor="start" x="242.5542" y="-396.5" font-family="Helvetica,sans-Serif" font-size="10.00" fill="#000000">/Users/Claudio/GitHub</text>
<text text-anchor="start" x="242.5542" y="-386.5" font-family="Helvetica,sans-Serif" font-size="10.00" fill="#000000">/bayes&#45;filters&#45;lib/src</text>
<text text-anchor="start" x="242.5542" y="-376.5" font-family="Helvetica,sans-Serif" font-size="10.00" fill="#000000">/BayesFilters/include/BayesFilters</text>
<text text-anchor="middle" x="317.5811" y="-366.5" font-family="Helvetica,sans-Serif" font-size="10.00" fill="#000000">/UKFPrediction.h</text>
</g>
<!-- Node1 -->
<g id="node2" class="node">
<title>Node1</title>
<g id="a_node2"><a xlink:href="AdditiveStateModel_8h.html" target="_top" xlink:title="BayesFilters/AdditiveState\lModel.h">
<polygon fill="#ffffff" stroke="#000000" points="251.2217,-230.5 251.2217,-258.5 383.9404,-258.5 383.9404,-230.5 251.2217,-230.5"/>
<text text-anchor="start" x="259.2217" y="-246.5" font-family="Helvetica,sans-Serif" font-size="10.00" fill="#000000">BayesFilters/AdditiveState</text>
<text text-anchor="middle" x="317.5811" y="-236.5" font-family="Helvetica,sans-Serif" font-size="10.00" fill="#000000">Model.h</text>
</a>
</g>
</g>
<!-- Node0&#45;&gt;Node1 -->
<g id="edge1" class="edge">
<title>Node0&#45;&gt;Node1</title>
<path fill="none" stroke="#191970" d="M317.5811,-360.4331C317.5811,-334.8488 317.5811,-294.6078 317.5811,-268.8979"/>
<polygon fill="#191970" stroke="#191970" points="321.0812,-268.854 317.5811,-258.8541 314.0812,-268.8541 321.0812,-268.854"/>
</g>
<!-- Node3 -->
<g id="node4" class="node">
<title>Node3</title>
<g id="a_node4"><a xlink:href="StateModel_8h.html" target="_top" xlink:title="BayesFilters/StateModel.h">
<polygon fill="#ffffff" stroke="#000000" points="251.2217,-170.5 251.2217,-188.5 383.9404,-188.5 383.9404,-170.5 251.2217,-170.5"/>
<text text-anchor="middle" x="317.5811" y="-176.5" font-family="Helvetica,sans-Serif" font-size="10.00" fill="#000000">BayesFilters/StateModel.h</text>
</a>
</g>
</g>
<!-- Node0&#45;&gt;Node3 -->
<g id="edge40" class="edge">
<title>Node0&#45;&gt;Node3</title>
<path fill="none" stroke="#191970" d="M297.7147,-360.4023C279.3202,-336.4034 253.2522,-297.6585 242.5811,-259 239.1515,-246.5758 236.5255,-241.3778 242.5811,-230 251.3758,-213.4755 268.2512,-201.388 283.7706,-193.1894"/>
<polygon fill="#191970" stroke="#191970" points="285.7338,-196.1251 293.174,-188.5823 282.6539,-189.839 285.7338,-196.1251"/>
</g>
<!-- Node4 -->
<g id="node5" class="node">
<title>Node4</title>
<g id="a_node5"><a xlink:href="ExogenousModel_8h.html" target="_top" xlink:title="BayesFilters/ExogenousModel.h">
<polygon fill="#ffffff" stroke="#000000" points="401.877,-235.5 401.877,-253.5 561.2852,-253.5 561.2852,-235.5 401.877,-235.5"/>
<text text-anchor="middle" x="481.5811" y="-241.5" font-family="Helvetica,sans-Serif" font-size="10.00" fill="#000000">BayesFilters/ExogenousModel.h</text>
</a>
</g>
</g>
<!-- Node0&#45;&gt;Node4 -->
<g id="edge5" class="edge">
<title>Node0&#45;&gt;Node4</title>
<path fill="none" stroke="#191970" d="M345.7737,-360.4331C379.4487,-331.6862 434.8001,-284.435 463.3247,-260.0847"/>
<polygon fill="#191970" stroke="#191970" points="465.6078,-262.7376 470.941,-253.583 461.0629,-257.4136 465.6078,-262.7376"/>
</g>
<!-- Node5 -->
<g id="node6" class="node">
<title>Node5</title>
<g id="a_node6"><a xlink:href="GaussianMixture_8h.html" target="_top" xlink:title="BayesFilters/GaussianMixture.h">
<polygon fill="#ffffff" stroke="#000000" points="0,-235.5 0,-253.5 157.1621,-253.5 157.1621,-235.5 0,-235.5"/>
<text text-anchor="middle" x="78.5811" y="-241.5" font-family="Helvetica,sans-Serif" font-size="10.00" fill="#000000">BayesFilters/GaussianMixture.h</text>
</a>
</g>
</g>
<!-- Node0&#45;&gt;Node5 -->
<g id="edge7" class="edge">
<title>Node0&#45;&gt;Node5</title>
<path fill="none" stroke="#191970" d="M234.5414,-377.2145C163.7541,-369.0796 69.8688,-353.0599 46.5811,-324 31.5492,-305.2423 48.236,-278.4965 62.593,-261.3163"/>
<polygon fill="#191970" stroke="#191970" points="65.3013,-263.5371 69.3046,-253.7277 60.0579,-258.8996 65.3013,-263.5371"/>
</g>
<!-- Node7 -->
<g id="node8" class="node">
<title>Node7</title>
<g id="a_node8"><a xlink:href="GaussianPrediction_8h.html" target="_top" xlink:title="BayesFilters/GaussianPrediction.h">
<polygon fill="#ffffff" stroke="#000000" points="55.1577,-300.5 55.1577,-318.5 224.0044,-318.5 224.0044,-300.5 55.1577,-300.5"/>
<text text-anchor="middle" x="139.5811" y="-306.5" font-family="Helvetica,sans-Serif" font-size="10.00" fill="#000000">BayesFilters/GaussianPrediction.h</text>
</a>
</g>
</g>
<!-- Node0&#45;&gt;Node7 -->
<g id="edge10" class="edge">
<title>Node0&#45;&gt;Node7</title>
<path fill="none" stroke="#191970" d="M260.2809,-360.3567C230.4935,-347.8058 195.2566,-332.9588 170.5705,-322.5574"/>
<polygon fill="#191970" stroke="#191970" points="171.9094,-319.3235 161.335,-318.666 169.1913,-325.7743 171.9094,-319.3235"/>
</g>
<!-- Node8 -->
<g id="node9" class="node">
<title>Node8</title>
<g id="a_node9"><a xlink:href="sigma__point_8h.html" target="_top" xlink:title="BayesFilters/sigma\l_point.h">
<polygon fill="#ffffff" stroke="#000000" points="558.3472,-295.5 558.3472,-323.5 658.8149,-323.5 658.8149,-295.5 558.3472,-295.5"/>
<text text-anchor="start" x="566.3472" y="-311.5" font-family="Helvetica,sans-Serif" font-size="10.00" fill="#000000">BayesFilters/sigma</text>
<text text-anchor="middle" x="608.5811" y="-301.5" font-family="Helvetica,sans-Serif" font-size="10.00" fill="#000000">_point.h</text>
</a>
</g>
</g>
<!-- Node0&#45;&gt;Node8 -->
<g id="edge13" class="edge">
<title>Node0&#45;&gt;Node8</title>
<path fill="none" stroke="#191970" d="M400.97,-363.008C447.9262,-350.9059 505.5072,-336.0654 548.1075,-325.086"/>
<polygon fill="#191970" stroke="#191970" points="549.2411,-328.4083 558.0511,-322.5232 547.494,-321.6298 549.2411,-328.4083"/>
</g>
<!-- Node12 -->
<g id="node13" class="node">
<title>Node12</title>
<polygon fill="#ffffff" stroke="#bfbfbf" points="907.5244,-.5 907.5244,-18.5 959.6377,-18.5 959.6377,-.5 907.5244,-.5"/>
<text text-anchor="middle" x="933.5811" y="-6.5" font-family="Helvetica,sans-Serif" font-size="10.00" fill="#000000">memory</text>
</g>
<!-- Node0&#45;&gt;Node12 -->
<g id="edge41" class="edge">
<title>Node0&#45;&gt;Node12</title>
<path fill="none" stroke="#191970" d="M400.9125,-376.1915C584.083,-356.805 1005.5811,-305.5604 1005.5811,-244.5 1005.5811,-244.5 1005.5811,-244.5 1005.5811,-119.5 1005.5811,-80.8438 974.068,-45.1906 952.7383,-25.486"/>
<polygon fill="#191970" stroke="#191970" points="954.9491,-22.7683 945.1491,-18.742 950.2992,-28.0009 954.9491,-22.7683"/>
</g>
<!-- Node2 -->
<g id="node3" class="node">
<title>Node2</title>
<polygon fill="#ffffff" stroke="#bfbfbf" points="374.9507,-110.5 374.9507,-128.5 448.2114,-128.5 448.2114,-110.5 374.9507,-110.5"/>
<text text-anchor="middle" x="411.5811" y="-116.5" font-family="Helvetica,sans-Serif" font-size="10.00" fill="#000000">Eigen/Dense</text>
</g>
<!-- Node1&#45;&gt;Node2 -->
<g id="edge2" class="edge">
<title>Node1&#45;&gt;Node2</title>
<path fill="none" stroke="#191970" d="M348.6473,-230.3424C363.9977,-221.8564 381.5482,-209.6535 392.5811,-194 404.0906,-177.6702 408.6365,-154.9693 410.4272,-138.9289"/>
<polygon fill="#191970" stroke="#191970" points="413.9445,-138.8732 411.3044,-128.6126 406.9697,-138.2801 413.9445,-138.8732"/>
</g>
<!-- Node1&#45;&gt;Node3 -->
<g id="edge3" class="edge">
<title>Node1&#45;&gt;Node3</title>
<path fill="none" stroke="#191970" d="M317.5811,-230.396C317.5811,-221.1723 317.5811,-209.0011 317.5811,-198.8738"/>
<polygon fill="#191970" stroke="#191970" points="321.0812,-198.5743 317.5811,-188.5743 314.0812,-198.5743 321.0812,-198.5743"/>
</g>
<!-- Node3&#45;&gt;Node2 -->
<g id="edge4" class="edge">
<title>Node3&#45;&gt;Node2</title>
<path fill="none" stroke="#191970" d="M331.8576,-170.3873C346.9903,-160.7281 371.1078,-145.334 388.8578,-134.0042"/>
<polygon fill="#191970" stroke="#191970" points="390.932,-136.8325 397.4781,-128.5019 387.1657,-130.932 390.932,-136.8325"/>
</g>
<!-- Node4&#45;&gt;Node2 -->
<g id="edge6" class="edge">
<title>Node4&#45;&gt;Node2</title>
<path fill="none" stroke="#191970" d="M476.3197,-235.1047C464.7093,-214.372 436.7307,-164.4101 421.637,-137.457"/>
<polygon fill="#191970" stroke="#191970" points="424.6531,-135.6796 416.7132,-128.6646 418.5456,-139.0998 424.6531,-135.6796"/>
</g>
<!-- Node5&#45;&gt;Node2 -->
<g id="edge9" class="edge">
<title>Node5&#45;&gt;Node2</title>
<path fill="none" stroke="#191970" d="M86.2179,-235.3858C100.8835,-218.5393 134.8109,-182.641 171.5811,-165 205.0152,-148.9595 304.7712,-133.601 364.6324,-125.4784"/>
<polygon fill="#191970" stroke="#191970" points="365.1539,-128.9399 374.6004,-124.1426 364.2241,-122.0019 365.1539,-128.9399"/>
</g>
<!-- Node6 -->
<g id="node7" class="node">
<title>Node6</title>
<polygon fill="#ffffff" stroke="#bfbfbf" points="326.9653,-55.5 326.9653,-73.5 370.1968,-73.5 370.1968,-55.5 326.9653,-55.5"/>
<text text-anchor="middle" x="348.5811" y="-61.5" font-family="Helvetica,sans-Serif" font-size="10.00" fill="#000000">vector</text>
</g>
<!-- Node5&#45;&gt;Node6 -->
<g id="edge8" class="edge">
<title>Node5&#45;&gt;Node6</title>
<path fill="none" stroke="#191970" d="M81.9407,-235.429C88.3321,-219.2823 103.6797,-185.3449 126.5811,-165 183.7737,-114.1917 270.9317,-85.018 317.1887,-72.2654"/>
<polygon fill="#191970" stroke="#191970" points="318.1969,-75.6188 326.9514,-69.6514 316.3864,-68.8569 318.1969,-75.6188"/>
</g>
<!-- Node7&#45;&gt;Node2 -->
<g id="edge12" class="edge">
<title>Node7&#45;&gt;Node2</title>
<path fill="none" stroke="#191970" d="M145.0422,-300.2237C162.2251,-271.3234 215.6369,-183.7222 242.5811,-165 278.8047,-139.8299 328.2907,-128.5749 364.3494,-123.5472"/>
<polygon fill="#191970" stroke="#191970" points="365.1352,-126.9752 374.6095,-122.2329 364.2458,-120.0319 365.1352,-126.9752"/>
</g>
<!-- Node7&#45;&gt;Node5 -->
<g id="edge11" class="edge">
<title>Node7&#45;&gt;Node5</title>
<path fill="none" stroke="#191970" d="M131.0993,-300.462C121.6466,-290.3895 106.1521,-273.879 94.437,-261.3957"/>
<polygon fill="#191970" stroke="#191970" points="96.7812,-258.7789 87.3858,-253.8821 91.6768,-263.5691 96.7812,-258.7789"/>
</g>
<!-- Node8&#45;&gt;Node1 -->
<g id="edge14" class="edge">
<title>Node8&#45;&gt;Node1</title>
<path fill="none" stroke="#191970" d="M558.2249,-298.2521C511.9197,-287.909 442.7202,-272.4521 390.3962,-260.7646"/>
<polygon fill="#191970" stroke="#191970" points="391.0229,-257.3184 380.5004,-258.5542 389.4969,-264.15 391.0229,-257.3184"/>
</g>
<!-- Node8&#45;&gt;Node2 -->
<g id="edge39" class="edge">
<title>Node8&#45;&gt;Node2</title>
<path fill="none" stroke="#191970" d="M609.4634,-295.2653C609.8055,-278.2606 608.0519,-249.6506 594.5811,-230 559.733,-179.1654 493.09,-147.7844 450.5662,-132.0093"/>
<polygon fill="#191970" stroke="#191970" points="451.689,-128.6937 441.0945,-128.6052 449.3214,-135.2812 451.689,-128.6937"/>
</g>
<!-- Node8&#45;&gt;Node3 -->
<g id="edge37" class="edge">
<title>Node8&#45;&gt;Node3</title>
<path fill="none" stroke="#191970" d="M605.8499,-295.2848C601.5971,-277.195 591.5934,-246.3403 570.5811,-230 543.5218,-208.9574 458.3773,-195.0246 394.2787,-187.2221"/>
<polygon fill="#191970" stroke="#191970" points="394.5273,-183.7271 384.184,-186.0224 393.701,-190.6782 394.5273,-183.7271"/>
</g>
<!-- Node8&#45;&gt;Node4 -->
<g id="edge22" class="edge">
<title>Node8&#45;&gt;Node4</title>
<path fill="none" stroke="#191970" d="M581.0239,-295.396C559.5143,-284.3871 529.8006,-269.1793 508.4647,-258.2594"/>
<polygon fill="#191970" stroke="#191970" points="509.8073,-255.0148 499.3109,-253.5743 506.618,-261.2461 509.8073,-255.0148"/>
</g>
<!-- Node8&#45;&gt;Node5 -->
<g id="edge23" class="edge">
<title>Node8&#45;&gt;Node5</title>
<path fill="none" stroke="#191970" d="M558.2421,-303.3264C467.0347,-292.1405 273.6072,-268.4183 162.254,-254.7618"/>
<polygon fill="#191970" stroke="#191970" points="162.4225,-251.2563 152.0708,-253.5129 161.5703,-258.2042 162.4225,-251.2563"/>
</g>
<!-- Node9 -->
<g id="node10" class="node">
<title>Node9</title>
<g id="a_node10"><a xlink:href="Data_8h.html" target="_top" xlink:title="BayesFilters/Data.h">
<polygon fill="#ffffff" stroke="#000000" points="873.9531,-110.5 873.9531,-128.5 977.209,-128.5 977.209,-110.5 873.9531,-110.5"/>
<text text-anchor="middle" x="925.5811" y="-116.5" font-family="Helvetica,sans-Serif" font-size="10.00" fill="#000000">BayesFilters/Data.h</text>
</a>
</g>
</g>
<!-- Node8&#45;&gt;Node9 -->
<g id="edge15" class="edge">
<title>Node8&#45;&gt;Node9</title>
<path fill="none" stroke="#191970" d="M658.9017,-305.6183C748.9236,-298.1605 929.9222,-280.6349 948.5811,-259 978.3947,-224.4311 952.7523,-166.4663 936.4939,-137.3425"/>
<polygon fill="#191970" stroke="#191970" points="939.4884,-135.5295 931.4336,-128.6469 933.4383,-139.0504 939.4884,-135.5295"/>
</g>
<!-- Node16 -->
<g id="node17" class="node">
<title>Node16</title>
<g id="a_node17"><a xlink:href="AdditiveMeasurementModel_8h.html" target="_top" xlink:title="BayesFilters/AdditiveMeasurement\lModel.h">
<polygon fill="#ffffff" stroke="#000000" points="769.3276,-230.5 769.3276,-258.5 939.8345,-258.5 939.8345,-230.5 769.3276,-230.5"/>
<text text-anchor="start" x="777.3276" y="-246.5" font-family="Helvetica,sans-Serif" font-size="10.00" fill="#000000">BayesFilters/AdditiveMeasurement</text>
<text text-anchor="middle" x="854.5811" y="-236.5" font-family="Helvetica,sans-Serif" font-size="10.00" fill="#000000">Model.h</text>
</a>
</g>
</g>
<!-- Node8&#45;&gt;Node16 -->
<g id="edge24" class="edge">
<title>Node8&#45;&gt;Node16</title>
<path fill="none" stroke="#191970" d="M658.9564,-296.1894C697.2652,-286.0672 750.2172,-272.0758 791.3699,-261.2021"/>
<polygon fill="#191970" stroke="#191970" points="792.5198,-264.5185 801.2939,-258.5799 790.7315,-257.7508 792.5198,-264.5185"/>
</g>
<!-- Node17 -->
<g id="node18" class="node">
<title>Node17</title>
<g id="a_node18"><a xlink:href="MeasurementModel_8h.html" target="_top" xlink:title="BayesFilters/Measurement\lModel.h">
<polygon fill="#ffffff" stroke="#000000" points="683.1157,-165.5 683.1157,-193.5 818.0464,-193.5 818.0464,-165.5 683.1157,-165.5"/>
<text text-anchor="start" x="691.1157" y="-181.5" font-family="Helvetica,sans-Serif" font-size="10.00" fill="#000000">BayesFilters/Measurement</text>
<text text-anchor="middle" x="750.5811" y="-171.5" font-family="Helvetica,sans-Serif" font-size="10.00" fill="#000000">Model.h</text>
</a>
</g>
</g>
<!-- Node8&#45;&gt;Node17 -->
<g id="edge36" class="edge">
<title>Node8&#45;&gt;Node17</title>
<path fill="none" stroke="#191970" d="M658.855,-297.0514C680.9604,-289.3257 705.6817,-277.2785 722.5811,-259 736.7306,-243.6957 743.8028,-220.8105 747.2929,-203.5183"/>
<polygon fill="#191970" stroke="#191970" points="750.7536,-204.0464 749.0343,-193.592 743.8589,-202.8368 750.7536,-204.0464"/>
</g>
<!-- Node23 -->
<g id="node24" class="node">
<title>Node23</title>
<polygon fill="#ffffff" stroke="#bfbfbf" points="655.1772,-235.5 655.1772,-253.5 713.9849,-253.5 713.9849,-235.5 655.1772,-235.5"/>
<text text-anchor="middle" x="684.5811" y="-241.5" font-family="Helvetica,sans-Serif" font-size="10.00" fill="#000000">functional</text>
</g>
<!-- Node8&#45;&gt;Node23 -->
<g id="edge38" class="edge">
<title>Node8&#45;&gt;Node23</title>
<path fill="none" stroke="#191970" d="M625.0719,-295.396C637.1321,-285.0814 653.5021,-271.0807 666.0203,-260.3743"/>
<polygon fill="#191970" stroke="#191970" points="668.6464,-262.7339 673.9711,-253.5743 664.0966,-257.4141 668.6464,-262.7339"/>
</g>
<!-- Node10 -->
<g id="node11" class="node">
<title>Node10</title>
<g id="a_node11"><a xlink:href="any_8h.html" target="_top" xlink:title="BayesFilters/any.h">
<polygon fill="#ffffff" stroke="#000000" points="1033.8218,-55.5 1033.8218,-73.5 1131.3403,-73.5 1131.3403,-55.5 1033.8218,-55.5"/>
<text text-anchor="middle" x="1082.5811" y="-61.5" font-family="Helvetica,sans-Serif" font-size="10.00" fill="#000000">BayesFilters/any.h</text>
</a>
</g>
</g>
<!-- Node9&#45;&gt;Node10 -->
<g id="edge16" class="edge">
<title>Node9&#45;&gt;Node10</title>
<path fill="none" stroke="#191970" d="M951.5064,-110.4179C977.6059,-101.2748 1018.0552,-87.1046 1047.1161,-76.924"/>
<polygon fill="#191970" stroke="#191970" points="1048.5977,-80.1136 1056.8781,-73.5042 1046.2833,-73.5073 1048.5977,-80.1136"/>
</g>
<!-- Node11 -->
<g id="node12" class="node">
<title>Node11</title>
<polygon fill="#ffffff" stroke="#bfbfbf" points="978.0171,-.5 978.0171,-18.5 1035.145,-18.5 1035.145,-.5 978.0171,-.5"/>
<text text-anchor="middle" x="1006.5811" y="-6.5" font-family="Helvetica,sans-Serif" font-size="10.00" fill="#000000">algorithm</text>
</g>
<!-- Node10&#45;&gt;Node11 -->
<g id="edge17" class="edge">
<title>Node10&#45;&gt;Node11</title>
<path fill="none" stroke="#191970" d="M1070.0312,-55.4179C1058.4799,-47.0584 1041.1218,-34.4966 1027.4795,-24.6239"/>
<polygon fill="#191970" stroke="#191970" points="1029.3027,-21.6229 1019.1496,-18.5956 1025.1988,-27.2938 1029.3027,-21.6229"/>
</g>
<!-- Node10&#45;&gt;Node12 -->
<g id="edge18" class="edge">
<title>Node10&#45;&gt;Node12</title>
<path fill="none" stroke="#191970" d="M1057.9767,-55.4179C1033.389,-46.3419 995.3817,-32.3123 967.8478,-22.1488"/>
<polygon fill="#191970" stroke="#191970" points="968.8152,-18.7751 958.2219,-18.5956 966.3912,-25.342 968.8152,-18.7751"/>
</g>
<!-- Node13 -->
<g id="node14" class="node">
<title>Node13</title>
<polygon fill="#ffffff" stroke="#bfbfbf" points="1053.1797,-.5 1053.1797,-18.5 1111.9824,-18.5 1111.9824,-.5 1053.1797,-.5"/>
<text text-anchor="middle" x="1082.5811" y="-6.5" font-family="Helvetica,sans-Serif" font-size="10.00" fill="#000000">stdexcept</text>
</g>
<!-- Node10&#45;&gt;Node13 -->
<g id="edge19" class="edge">
<title>Node10&#45;&gt;Node13</title>
<path fill="none" stroke="#191970" d="M1082.5811,-55.4179C1082.5811,-48.2164 1082.5811,-37.8962 1082.5811,-28.8632"/>
<polygon fill="#191970" stroke="#191970" points="1086.0812,-28.7794 1082.5811,-18.7795 1079.0812,-28.7795 1086.0812,-28.7794"/>
</g>
<!-- Node14 -->
<g id="node15" class="node">
<title>Node14</title>
<polygon fill="#ffffff" stroke="#bfbfbf" points="1130.0688,-.5 1130.0688,-18.5 1181.0933,-18.5 1181.0933,-.5 1130.0688,-.5"/>
<text text-anchor="middle" x="1155.5811" y="-6.5" font-family="Helvetica,sans-Serif" font-size="10.00" fill="#000000">typeinfo</text>
</g>
<!-- Node10&#45;&gt;Node14 -->
<g id="edge20" class="edge">
<title>Node10&#45;&gt;Node14</title>
<path fill="none" stroke="#191970" d="M1094.6355,-55.4179C1105.6644,-47.1084 1122.2042,-34.6469 1135.2717,-24.8015"/>
<polygon fill="#191970" stroke="#191970" points="1137.3839,-27.5924 1143.2647,-18.7795 1133.1717,-22.0016 1137.3839,-27.5924"/>
</g>
<!-- Node15 -->
<g id="node16" class="node">
<title>Node15</title>
<polygon fill="#ffffff" stroke="#bfbfbf" points="1199.5146,-.5 1199.5146,-18.5 1261.6475,-18.5 1261.6475,-.5 1199.5146,-.5"/>
<text text-anchor="middle" x="1230.5811" y="-6.5" font-family="Helvetica,sans-Serif" font-size="10.00" fill="#000000">type_traits</text>
</g>
<!-- Node10&#45;&gt;Node15 -->
<g id="edge21" class="edge">
<title>Node10&#45;&gt;Node15</title>
<path fill="none" stroke="#191970" d="M1107.0202,-55.4179C1131.443,-46.3419 1169.1952,-32.3123 1196.5442,-22.1488"/>
<polygon fill="#191970" stroke="#191970" points="1197.9511,-25.3599 1206.1056,-18.5956 1195.5127,-18.7984 1197.9511,-25.3599"/>
</g>
<!-- Node16&#45;&gt;Node17 -->
<g id="edge25" class="edge">
<title>Node16&#45;&gt;Node17</title>
<path fill="none" stroke="#191970" d="M832.0146,-230.396C817.296,-221.1968 797.8863,-209.0658 781.7084,-198.9546"/>
<polygon fill="#191970" stroke="#191970" points="783.4385,-195.9085 773.1035,-193.5765 779.7285,-201.8445 783.4385,-195.9085"/>
</g>
<!-- Node17&#45;&gt;Node2 -->
<g id="edge35" class="edge">
<title>Node17&#45;&gt;Node2</title>
<path fill="none" stroke="#191970" d="M682.7941,-167.5023C616.2633,-155.7269 516.5558,-138.0796 458.3852,-127.7839"/>
<polygon fill="#191970" stroke="#191970" points="458.8296,-124.3082 448.3726,-126.0118 457.6096,-131.2011 458.8296,-124.3082"/>
</g>
<!-- Node17&#45;&gt;Node9 -->
<g id="edge26" class="edge">
<title>Node17&#45;&gt;Node9</title>
<path fill="none" stroke="#191970" d="M791.6108,-165.4327C821.3425,-155.2389 861.1583,-141.5878 889.642,-131.822"/>
<polygon fill="#191970" stroke="#191970" points="890.885,-135.0958 899.2094,-128.5417 888.6147,-128.4742 890.885,-135.0958"/>
</g>
<!-- Node17&#45;&gt;Node12 -->
<g id="edge32" class="edge">
<title>Node17&#45;&gt;Node12</title>
<path fill="none" stroke="#191970" d="M765.8688,-165.2983C799.5883,-133.9742 880.1813,-59.1063 915.9562,-25.8729"/>
<polygon fill="#191970" stroke="#191970" points="918.7044,-28.097 923.6488,-18.7266 913.9402,-22.9684 918.7044,-28.097"/>
</g>
<!-- Node18 -->
<g id="node19" class="node">
<title>Node18</title>
<g id="a_node19"><a xlink:href="Logger_8h.html" target="_top" xlink:title="BayesFilters/Logger.h">
<polygon fill="#ffffff" stroke="#000000" points="628.2192,-110.5 628.2192,-128.5 740.9429,-128.5 740.9429,-110.5 628.2192,-110.5"/>
<text text-anchor="middle" x="684.5811" y="-116.5" font-family="Helvetica,sans-Serif" font-size="10.00" fill="#000000">BayesFilters/Logger.h</text>
</a>
</g>
</g>
<!-- Node17&#45;&gt;Node18 -->
<g id="edge27" class="edge">
<title>Node17&#45;&gt;Node18</title>
<path fill="none" stroke="#191970" d="M734.94,-165.2808C725.0742,-156.312 712.3147,-144.7124 702.108,-135.4335"/>
<polygon fill="#191970" stroke="#191970" points="704.3275,-132.7211 694.5737,-128.5842 699.6187,-137.9007 704.3275,-132.7211"/>
</g>
<!-- Node21 -->
<g id="node22" class="node">
<title>Node21</title>
<polygon fill="#ffffff" stroke="#bfbfbf" points="739.3545,-55.5 739.3545,-73.5 779.8076,-73.5 779.8076,-55.5 739.3545,-55.5"/>
<text text-anchor="middle" x="759.5811" y="-61.5" font-family="Helvetica,sans-Serif" font-size="10.00" fill="#000000">string</text>
</g>
<!-- Node17&#45;&gt;Node21 -->
<g id="edge33" class="edge">
<title>Node17&#45;&gt;Node21</title>
<path fill="none" stroke="#191970" d="M751.6846,-165.3987C753.2828,-144.9779 756.2473,-107.0975 758.0543,-84.0089"/>
<polygon fill="#191970" stroke="#191970" points="761.5678,-83.9713 758.8588,-73.7286 754.5892,-83.425 761.5678,-83.9713"/>
</g>
<!-- Node22 -->
<g id="node23" class="node">
<title>Node22</title>
<polygon fill="#ffffff" stroke="#bfbfbf" points="571.1895,-110.5 571.1895,-128.5 609.9727,-128.5 609.9727,-110.5 571.1895,-110.5"/>
<text text-anchor="middle" x="590.5811" y="-116.5" font-family="Helvetica,sans-Serif" font-size="10.00" fill="#000000">utility</text>
</g>
<!-- Node17&#45;&gt;Node22 -->
<g id="edge34" class="edge">
<title>Node17&#45;&gt;Node22</title>
<path fill="none" stroke="#191970" d="M713.0682,-165.4327C684.5662,-154.7444 645.9281,-140.2551 619.7248,-130.4289"/>
<polygon fill="#191970" stroke="#191970" points="620.9303,-127.143 610.3381,-126.9089 618.4724,-133.6973 620.9303,-127.143"/>
</g>
<!-- Node18&#45;&gt;Node6 -->
<g id="edge31" class="edge">
<title>Node18&#45;&gt;Node6</title>
<path fill="none" stroke="#191970" d="M629.4737,-110.4795C558.4904,-98.8602 437.4618,-79.0489 380.2844,-69.6895"/>
<polygon fill="#191970" stroke="#191970" points="380.8117,-66.2294 370.3776,-68.0679 379.6809,-73.1374 380.8117,-66.2294"/>
</g>
<!-- Node19 -->
<g id="node20" class="node">
<title>Node19</title>
<polygon fill="#ffffff" stroke="#bfbfbf" points="594.9111,-55.5 594.9111,-73.5 644.251,-73.5 644.251,-55.5 594.9111,-55.5"/>
<text text-anchor="middle" x="619.5811" y="-61.5" font-family="Helvetica,sans-Serif" font-size="10.00" fill="#000000">fstream</text>
</g>
<!-- Node18&#45;&gt;Node19 -->
<g id="edge28" class="edge">
<title>Node18&#45;&gt;Node19</title>
<path fill="none" stroke="#191970" d="M673.8476,-110.4179C664.2144,-102.2667 649.8594,-90.1201 638.3329,-80.3669"/>
<polygon fill="#191970" stroke="#191970" points="640.4424,-77.5671 630.5477,-73.7795 635.9208,-82.9108 640.4424,-77.5671"/>
</g>
<!-- Node20 -->
<g id="node21" class="node">
<title>Node20</title>
<polygon fill="#ffffff" stroke="#bfbfbf" points="662.4087,-55.5 662.4087,-73.5 716.7534,-73.5 716.7534,-55.5 662.4087,-55.5"/>
<text text-anchor="middle" x="689.5811" y="-61.5" font-family="Helvetica,sans-Serif" font-size="10.00" fill="#000000">iostream</text>
</g>
<!-- Node18&#45;&gt;Node20 -->
<g id="edge29" class="edge">
<title>Node18&#45;&gt;Node20</title>
<path fill="none" stroke="#191970" d="M685.4067,-110.4179C686.0614,-103.2164 686.9996,-92.8962 687.8208,-83.8632"/>
<polygon fill="#191970" stroke="#191970" points="691.3176,-84.0553 688.7375,-73.7795 684.3464,-83.4215 691.3176,-84.0553"/>
</g>
<!-- Node18&#45;&gt;Node21 -->
<g id="edge30" class="edge">
<title>Node18&#45;&gt;Node21</title>
<path fill="none" stroke="#191970" d="M696.9658,-110.4179C708.3651,-102.0584 725.4947,-89.4966 738.9575,-79.6239"/>
<polygon fill="#191970" stroke="#191970" points="741.1836,-82.3317 747.1779,-73.5956 737.0441,-76.6869 741.1836,-82.3317"/>
</g>
</g>
</svg>
