<?xml version="1.0" encoding="UTF-8" standalone="no"?>
<!DOCTYPE svg PUBLIC "-//W3C//DTD SVG 1.1//EN"
 "http://www.w3.org/Graphics/SVG/1.1/DTD/svg11.dtd">
<!-- Generated by graphviz version 2.40.1 (20161225.0304)
 -->
<!-- Title: /Users/Claudio/GitHub/bayes&#45;filters&#45;lib/src/BayesFilters/include/BayesFilters/utils.h Pages: 1 -->
<svg width="467pt" height="142pt"
 viewBox="0.00 0.00 467.42 142.00" xmlns="http://www.w3.org/2000/svg" xmlns:xlink="http://www.w3.org/1999/xlink">
<g id="graph0" class="graph" transform="scale(1 1) rotate(0) translate(4 138)">
<title>/Users/Claudio/GitHub/bayes&#45;filters&#45;lib/src/BayesFilters/include/BayesFilters/utils.h</title>
<polygon fill="#ffffff" stroke="transparent" points="-4,4 -4,-138 463.4233,-138 463.4233,4 -4,4"/>
<!-- Node3 -->
<g id="node1" class="node">
<title>Node3</title>
<polygon fill="#bfbfbf" stroke="#000000" points="164.7144,-85.5 164.7144,-133.5 330.7681,-133.5 330.7681,-85.5 164.7144,-85.5"/>
<text text-anchor="start" x="172.7144" y="-121.5" font-family="Helvetica,sans-Serif" font-size="10.00" fill="#000000">/Users/Claudio/GitHub</text>
<text text-anchor="start" x="172.7144" y="-111.5" font-family="Helvetica,sans-Serif" font-size="10.00" fill="#000000">/bayes&#45;filters&#45;lib/src</text>
<text text-anchor="start" x="172.7144" y="-101.5" font-family="Helvetica,sans-Serif" font-size="10.00" fill="#000000">/BayesFilters/include/BayesFilters</text>
<text text-anchor="middle" x="247.7412" y="-91.5" font-family="Helvetica,sans-Serif" font-size="10.00" fill="#000000">/utils.h</text>
</g>
<!-- Node4 -->
<g id="node2" class="node">
<title>Node4</title>
<g id="a_node2"><a xlink:href="ResamplingWithPrior_8cpp.html" target="_top" xlink:title="/Users/Claudio/GitHub\l/bayes&#45;filters&#45;lib/src\l/BayesFilters/src/ResamplingWith\lPrior.cpp">
<polygon fill="#ffffff" stroke="#000000" points="0,-.5 0,-48.5 165.4824,-48.5 165.4824,-.5 0,-.5"/>
<text text-anchor="start" x="8" y="-36.5" font-family="Helvetica,sans-Serif" font-size="10.00" fill="#000000">/Users/Claudio/GitHub</text>
<text text-anchor="start" x="8" y="-26.5" font-family="Helvetica,sans-Serif" font-size="10.00" fill="#000000">/bayes&#45;filters&#45;lib/src</text>
<text text-anchor="start" x="8" y="-16.5" font-family="Helvetica,sans-Serif" font-size="10.00" fill="#000000">/BayesFilters/src/ResamplingWith</text>
<text text-anchor="middle" x="82.7412" y="-6.5" font-family="Helvetica,sans-Serif" font-size="10.00" fill="#000000">Prior.cpp</text>
</a>
</g>
</g>
<!-- Node3&#45;&gt;Node4 -->
<g id="edge1" class="edge">
<title>Node3&#45;&gt;Node4</title>
<path fill="none" stroke="#191970" d="M191.77,-80.6664C171.4874,-70.2178 148.8108,-58.5358 129.4136,-48.5433"/>
<polygon fill="#191970" stroke="#191970" points="190.4076,-83.9016 200.9002,-85.3698 193.6133,-77.6787 190.4076,-83.9016"/>
</g>
<!-- Node5 -->
<g id="node3" class="node">
<title>Node5</title>
<g id="a_node3"><a xlink:href="SIS_8cpp.html" target="_top" xlink:title="/Users/Claudio/GitHub\l/bayes&#45;filters&#45;lib/src\l/BayesFilters/src/SIS.cpp">
<polygon fill="#ffffff" stroke="#000000" points="183.8916,-5.5 183.8916,-43.5 311.5908,-43.5 311.5908,-5.5 183.8916,-5.5"/>
<text text-anchor="start" x="191.8916" y="-31.5" font-family="Helvetica,sans-Serif" font-size="10.00" fill="#000000">/Users/Claudio/GitHub</text>
<text text-anchor="start" x="191.8916" y="-21.5" font-family="Helvetica,sans-Serif" font-size="10.00" fill="#000000">/bayes&#45;filters&#45;lib/src</text>
<text text-anchor="middle" x="247.7412" y="-11.5" font-family="Helvetica,sans-Serif" font-size="10.00" fill="#000000">/BayesFilters/src/SIS.cpp</text>
</a>
</g>
</g>
<!-- Node3&#45;&gt;Node5 -->
<g id="edge2" class="edge">
<title>Node3&#45;&gt;Node5</title>
<path fill="none" stroke="#191970" d="M247.7412,-75.3187C247.7412,-64.4952 247.7412,-52.9227 247.7412,-43.5591"/>
<polygon fill="#191970" stroke="#191970" points="244.2413,-75.3697 247.7412,-85.3698 251.2413,-75.3698 244.2413,-75.3697"/>
</g>
<!-- Node6 -->
<g id="node4" class="node">
<title>Node6</title>
<g id="a_node4"><a xlink:href="utils_8cpp.html" target="_top" xlink:title="/Users/Claudio/GitHub\l/bayes&#45;filters&#45;lib/src\l/BayesFilters/src/utils.cpp">
<polygon fill="#ffffff" stroke="#000000" points="330.0591,-5.5 330.0591,-43.5 459.4233,-43.5 459.4233,-5.5 330.0591,-5.5"/>
<text text-anchor="start" x="338.0591" y="-31.5" font-family="Helvetica,sans-Serif" font-size="10.00" fill="#000000">/Users/Claudio/GitHub</text>
<text text-anchor="start" x="338.0591" y="-21.5" font-family="Helvetica,sans-Serif" font-size="10.00" fill="#000000">/bayes&#45;filters&#45;lib/src</text>
<text text-anchor="middle" x="394.7412" y="-11.5" font-family="Helvetica,sans-Serif" font-size="10.00" fill="#000000">/BayesFilters/src/utils.cpp</text>
</a>
</g>
</g>
<!-- Node3&#45;&gt;Node6 -->
<g id="edge3" class="edge">
<title>Node3&#45;&gt;Node6</title>
<path fill="none" stroke="#191970" d="M298.2829,-80.2752C319.2918,-68.1272 343.0826,-54.3706 361.7802,-43.5591"/>
<polygon fill="#191970" stroke="#191970" points="296.3773,-77.3341 289.4723,-85.3698 299.8813,-83.3939 296.3773,-77.3341"/>
</g>
</g>
</svg>
