<?xml version="1.0" encoding="UTF-8" standalone="no"?>
<!DOCTYPE svg PUBLIC "-//W3C//DTD SVG 1.1//EN"
 "http://www.w3.org/Graphics/SVG/1.1/DTD/svg11.dtd">
<!-- Generated by graphviz version 2.40.1 (20161225.0304)
 -->
<!-- Title: /Users/Claudio/GitHub/bayes&#45;filters&#45;lib/src/BayesFilters/src/utils.cpp Pages: 1 -->
<svg width="152pt" height="157pt"
 viewBox="0.00 0.00 151.69 157.00" xmlns="http://www.w3.org/2000/svg" xmlns:xlink="http://www.w3.org/1999/xlink">
<g id="graph0" class="graph" transform="scale(1 1) rotate(0) translate(4 153)">
<title>/Users/Claudio/GitHub/bayes&#45;filters&#45;lib/src/BayesFilters/src/utils.cpp</title>
<polygon fill="#ffffff" stroke="transparent" points="-4,4 -4,-153 147.687,-153 147.687,4 -4,4"/>
<!-- Node0 -->
<g id="node1" class="node">
<title>Node0</title>
<polygon fill="#bfbfbf" stroke="#000000" points="11.9482,-110.5 11.9482,-148.5 141.3125,-148.5 141.3125,-110.5 11.9482,-110.5"/>
<text text-anchor="start" x="19.9482" y="-136.5" font-family="Helvetica,sans-Serif" font-size="10.00" fill="#000000">/Users/Claudio/GitHub</text>
<text text-anchor="start" x="19.9482" y="-126.5" font-family="Helvetica,sans-Serif" font-size="10.00" fill="#000000">/bayes&#45;filters&#45;lib/src</text>
<text text-anchor="middle" x="76.6304" y="-116.5" font-family="Helvetica,sans-Serif" font-size="10.00" fill="#000000">/BayesFilters/src/utils.cpp</text>
</g>
<!-- Node1 -->
<g id="node2" class="node">
<title>Node1</title>
<g id="a_node2"><a xlink:href="utils_8h.html" target="_top" xlink:title="BayesFilters/utils.h">
<polygon fill="#ffffff" stroke="#000000" points="26.6724,-55.5 26.6724,-73.5 126.5884,-73.5 126.5884,-55.5 26.6724,-55.5"/>
<text text-anchor="middle" x="76.6304" y="-61.5" font-family="Helvetica,sans-Serif" font-size="10.00" fill="#000000">BayesFilters/utils.h</text>
</a>
</g>
</g>
<!-- Node0&#45;&gt;Node1 -->
<g id="edge1" class="edge">
<title>Node0&#45;&gt;Node1</title>
<path fill="none" stroke="#191970" d="M76.6304,-110.3494C76.6304,-102.0079 76.6304,-92.2463 76.6304,-83.879"/>
<polygon fill="#191970" stroke="#191970" points="80.1305,-83.5978 76.6304,-73.5978 73.1305,-83.5979 80.1305,-83.5978"/>
</g>
<!-- Node2 -->
<g id="node3" class="node">
<title>Node2</title>
<polygon fill="#ffffff" stroke="#bfbfbf" points="0,-.5 0,-18.5 73.2607,-18.5 73.2607,-.5 0,-.5"/>
<text text-anchor="middle" x="36.6304" y="-6.5" font-family="Helvetica,sans-Serif" font-size="10.00" fill="#000000">Eigen/Dense</text>
</g>
<!-- Node1&#45;&gt;Node2 -->
<g id="edge2" class="edge">
<title>Node1&#45;&gt;Node2</title>
<path fill="none" stroke="#191970" d="M70.0252,-55.4179C64.4424,-47.7415 56.2825,-36.5217 49.4264,-27.0945"/>
<polygon fill="#191970" stroke="#191970" points="52.0914,-24.8082 43.3791,-18.7795 46.4302,-28.9255 52.0914,-24.8082"/>
</g>
<!-- Node3 -->
<g id="node4" class="node">
<title>Node3</title>
<polygon fill="#ffffff" stroke="#bfbfbf" points="91.5737,-.5 91.5737,-18.5 143.687,-18.5 143.687,-.5 91.5737,-.5"/>
<text text-anchor="middle" x="117.6304" y="-6.5" font-family="Helvetica,sans-Serif" font-size="10.00" fill="#000000">memory</text>
</g>
<!-- Node1&#45;&gt;Node3 -->
<g id="edge3" class="edge">
<title>Node1&#45;&gt;Node3</title>
<path fill="none" stroke="#191970" d="M83.4007,-55.4179C89.182,-47.6624 97.6596,-36.29 104.7314,-26.8035"/>
<polygon fill="#191970" stroke="#191970" points="107.5424,-28.8888 110.713,-18.7795 101.9301,-24.7051 107.5424,-28.8888"/>
</g>
</g>
</svg>
