<?xml version="1.0" encoding="UTF-8" standalone="no"?>
<!DOCTYPE svg PUBLIC "-//W3C//DTD SVG 1.1//EN"
 "http://www.w3.org/Graphics/SVG/1.1/DTD/svg11.dtd">
<!-- Generated by graphviz version 2.40.1 (20161225.0304)
 -->
<!-- Title: /Users/Claudio/GitHub/bayes&#45;filters&#45;lib/src/BayesFilters/src/WhiteNoiseAcceleration.cpp Pages: 1 -->
<svg width="496pt" height="342pt"
 viewBox="0.00 0.00 496.21 342.00" xmlns="http://www.w3.org/2000/svg" xmlns:xlink="http://www.w3.org/1999/xlink">
<g id="graph0" class="graph" transform="scale(1 1) rotate(0) translate(4 338)">
<title>/Users/Claudio/GitHub/bayes&#45;filters&#45;lib/src/BayesFilters/src/WhiteNoiseAcceleration.cpp</title>
<polygon fill="#ffffff" stroke="transparent" points="-4,4 -4,-338 492.2114,-338 492.2114,4 -4,4"/>
<!-- Node0 -->
<g id="node1" class="node">
<title>Node0</title>
<polygon fill="#bfbfbf" stroke="#000000" points="226.6011,-295.5 226.6011,-333.5 444.3394,-333.5 444.3394,-295.5 226.6011,-295.5"/>
<text text-anchor="start" x="234.6011" y="-321.5" font-family="Helvetica,sans-Serif" font-size="10.00" fill="#000000">/Users/Claudio/GitHub</text>
<text text-anchor="start" x="234.6011" y="-311.5" font-family="Helvetica,sans-Serif" font-size="10.00" fill="#000000">/bayes&#45;filters&#45;lib/src</text>
<text text-anchor="middle" x="335.4702" y="-301.5" font-family="Helvetica,sans-Serif" font-size="10.00" fill="#000000">/BayesFilters/src/WhiteNoiseAcceleration.cpp</text>
</g>
<!-- Node1 -->
<g id="node2" class="node">
<title>Node1</title>
<g id="a_node2"><a xlink:href="WhiteNoiseAcceleration_8h.html" target="_top" xlink:title="BayesFilters/WhiteNoiseAcceleration.h">
<polygon fill="#ffffff" stroke="#000000" points="78.3252,-240.5 78.3252,-258.5 266.6152,-258.5 266.6152,-240.5 78.3252,-240.5"/>
<text text-anchor="middle" x="172.4702" y="-246.5" font-family="Helvetica,sans-Serif" font-size="10.00" fill="#000000">BayesFilters/WhiteNoiseAcceleration.h</text>
</a>
</g>
</g>
<!-- Node0&#45;&gt;Node1 -->
<g id="edge1" class="edge">
<title>Node0&#45;&gt;Node1</title>
<path fill="none" stroke="#191970" d="M287.4464,-295.3494C260.8235,-284.7329 228.4321,-271.8161 204.8229,-262.4014"/>
<polygon fill="#191970" stroke="#191970" points="205.87,-259.0509 195.2848,-258.5978 203.2771,-265.553 205.87,-259.0509"/>
</g>
<!-- Node8 -->
<g id="node9" class="node">
<title>Node8</title>
<polygon fill="#ffffff" stroke="#bfbfbf" points="284.8545,-240.5 284.8545,-258.5 328.0859,-258.5 328.0859,-240.5 284.8545,-240.5"/>
<text text-anchor="middle" x="306.4702" y="-246.5" font-family="Helvetica,sans-Serif" font-size="10.00" fill="#000000">cmath</text>
</g>
<!-- Node0&#45;&gt;Node8 -->
<g id="edge10" class="edge">
<title>Node0&#45;&gt;Node8</title>
<path fill="none" stroke="#191970" d="M326.9261,-295.3494C323.0353,-286.6287 318.4521,-276.3559 314.6112,-267.747"/>
<polygon fill="#191970" stroke="#191970" points="317.8,-266.3041 310.5293,-258.5978 311.4074,-269.1562 317.8,-266.3041"/>
</g>
<!-- Node9 -->
<g id="node10" class="node">
<title>Node9</title>
<polygon fill="#ffffff" stroke="#bfbfbf" points="346.0786,-240.5 346.0786,-258.5 384.8618,-258.5 384.8618,-240.5 346.0786,-240.5"/>
<text text-anchor="middle" x="365.4702" y="-246.5" font-family="Helvetica,sans-Serif" font-size="10.00" fill="#000000">utility</text>
</g>
<!-- Node0&#45;&gt;Node9 -->
<g id="edge11" class="edge">
<title>Node0&#45;&gt;Node9</title>
<path fill="none" stroke="#191970" d="M344.3089,-295.3494C348.3339,-286.6287 353.0752,-276.3559 357.0485,-267.747"/>
<polygon fill="#191970" stroke="#191970" points="360.2584,-269.1442 361.2712,-258.5978 353.9027,-266.2107 360.2584,-269.1442"/>
</g>
<!-- Node10 -->
<g id="node11" class="node">
<title>Node10</title>
<polygon fill="#ffffff" stroke="#bfbfbf" points="402.729,-240.5 402.729,-258.5 488.2114,-258.5 488.2114,-240.5 402.729,-240.5"/>
<text text-anchor="middle" x="445.4702" y="-246.5" font-family="Helvetica,sans-Serif" font-size="10.00" fill="#000000">Eigen/Cholesky</text>
</g>
<!-- Node0&#45;&gt;Node10 -->
<g id="edge12" class="edge">
<title>Node0&#45;&gt;Node10</title>
<path fill="none" stroke="#191970" d="M367.8789,-295.3494C384.8828,-285.3016 405.3736,-273.1934 421.027,-263.9437"/>
<polygon fill="#191970" stroke="#191970" points="423.2451,-266.6984 430.0739,-258.5978 419.684,-260.6719 423.2451,-266.6984"/>
</g>
<!-- Node2 -->
<g id="node3" class="node">
<title>Node2</title>
<g id="a_node3"><a xlink:href="LinearStateModel_8h.html" target="_top" xlink:title="BayesFilters/LinearState\lModel.h">
<polygon fill="#ffffff" stroke="#000000" points="0,-175.5 0,-203.5 124.9404,-203.5 124.9404,-175.5 0,-175.5"/>
<text text-anchor="start" x="8" y="-191.5" font-family="Helvetica,sans-Serif" font-size="10.00" fill="#000000">BayesFilters/LinearState</text>
<text text-anchor="middle" x="62.4702" y="-181.5" font-family="Helvetica,sans-Serif" font-size="10.00" fill="#000000">Model.h</text>
</a>
</g>
</g>
<!-- Node1&#45;&gt;Node2 -->
<g id="edge2" class="edge">
<title>Node1&#45;&gt;Node2</title>
<path fill="none" stroke="#191970" d="M155.7636,-240.3873C140.3019,-231.9537 116.8248,-219.1479 97.2905,-208.4929"/>
<polygon fill="#191970" stroke="#191970" points="98.8087,-205.3342 88.3537,-203.6183 95.4567,-211.4795 98.8087,-205.3342"/>
</g>
<!-- Node6 -->
<g id="node7" class="node">
<title>Node6</title>
<polygon fill="#ffffff" stroke="#bfbfbf" points="143.0664,-180.5 143.0664,-198.5 201.874,-198.5 201.874,-180.5 143.0664,-180.5"/>
<text text-anchor="middle" x="172.4702" y="-186.5" font-family="Helvetica,sans-Serif" font-size="10.00" fill="#000000">functional</text>
</g>
<!-- Node1&#45;&gt;Node6 -->
<g id="edge8" class="edge">
<title>Node1&#45;&gt;Node6</title>
<path fill="none" stroke="#191970" d="M172.4702,-240.3873C172.4702,-232.0174 172.4702,-219.3414 172.4702,-208.735"/>
<polygon fill="#191970" stroke="#191970" points="175.9703,-208.6984 172.4702,-198.6985 168.9703,-208.6985 175.9703,-208.6984"/>
</g>
<!-- Node7 -->
<g id="node8" class="node">
<title>Node7</title>
<polygon fill="#ffffff" stroke="#bfbfbf" points="219.5171,-180.5 219.5171,-198.5 269.4233,-198.5 269.4233,-180.5 219.5171,-180.5"/>
<text text-anchor="middle" x="244.4702" y="-186.5" font-family="Helvetica,sans-Serif" font-size="10.00" fill="#000000">random</text>
</g>
<!-- Node1&#45;&gt;Node7 -->
<g id="edge9" class="edge">
<title>Node1&#45;&gt;Node7</title>
<path fill="none" stroke="#191970" d="M183.4055,-240.3873C194.6123,-231.0483 212.2525,-216.3481 225.6977,-205.1438"/>
<polygon fill="#191970" stroke="#191970" points="227.9905,-207.7891 233.4321,-198.6985 223.5092,-202.4116 227.9905,-207.7891"/>
</g>
<!-- Node3 -->
<g id="node4" class="node">
<title>Node3</title>
<polygon fill="#ffffff" stroke="#bfbfbf" points="16.8398,-.5 16.8398,-18.5 90.1006,-18.5 90.1006,-.5 16.8398,-.5"/>
<text text-anchor="middle" x="53.4702" y="-6.5" font-family="Helvetica,sans-Serif" font-size="10.00" fill="#000000">Eigen/Dense</text>
</g>
<!-- Node2&#45;&gt;Node3 -->
<g id="edge3" class="edge">
<title>Node2&#45;&gt;Node3</title>
<path fill="none" stroke="#191970" d="M52.0317,-175.3148C45.5735,-165.6268 37.8846,-152.1993 34.4702,-139 24.4617,-100.3089 37.1728,-53.6582 46.1102,-28.2462"/>
<polygon fill="#191970" stroke="#191970" points="49.4396,-29.3339 49.6322,-18.7408 42.8757,-26.9018 49.4396,-29.3339"/>
</g>
<!-- Node4 -->
<g id="node5" class="node">
<title>Node4</title>
<g id="a_node5"><a xlink:href="AdditiveStateModel_8h.html" target="_top" xlink:title="BayesFilters/AdditiveState\lModel.h">
<polygon fill="#ffffff" stroke="#000000" points="43.1108,-110.5 43.1108,-138.5 175.8296,-138.5 175.8296,-110.5 43.1108,-110.5"/>
<text text-anchor="start" x="51.1108" y="-126.5" font-family="Helvetica,sans-Serif" font-size="10.00" fill="#000000">BayesFilters/AdditiveState</text>
<text text-anchor="middle" x="109.4702" y="-116.5" font-family="Helvetica,sans-Serif" font-size="10.00" fill="#000000">Model.h</text>
</a>
</g>
</g>
<!-- Node2&#45;&gt;Node4 -->
<g id="edge4" class="edge">
<title>Node2&#45;&gt;Node4</title>
<path fill="none" stroke="#191970" d="M72.6685,-175.396C78.7043,-167.0486 86.4857,-156.2871 93.3375,-146.8113"/>
<polygon fill="#191970" stroke="#191970" points="96.2686,-148.7309 99.2918,-138.5765 90.5961,-144.6292 96.2686,-148.7309"/>
</g>
<!-- Node4&#45;&gt;Node3 -->
<g id="edge5" class="edge">
<title>Node4&#45;&gt;Node3</title>
<path fill="none" stroke="#191970" d="M97.0227,-110.3475C89.0572,-100.6733 79.0244,-87.2489 72.4702,-74 65.2721,-59.4494 60.2877,-41.6743 57.236,-28.4714"/>
<polygon fill="#191970" stroke="#191970" points="60.6436,-27.6692 55.1209,-18.6276 53.7997,-29.1397 60.6436,-27.6692"/>
</g>
<!-- Node5 -->
<g id="node6" class="node">
<title>Node5</title>
<g id="a_node6"><a xlink:href="StateModel_8h.html" target="_top" xlink:title="BayesFilters/StateModel.h">
<polygon fill="#ffffff" stroke="#000000" points="81.1108,-55.5 81.1108,-73.5 213.8296,-73.5 213.8296,-55.5 81.1108,-55.5"/>
<text text-anchor="middle" x="147.4702" y="-61.5" font-family="Helvetica,sans-Serif" font-size="10.00" fill="#000000">BayesFilters/StateModel.h</text>
</a>
</g>
</g>
<!-- Node4&#45;&gt;Node5 -->
<g id="edge6" class="edge">
<title>Node4&#45;&gt;Node5</title>
<path fill="none" stroke="#191970" d="M118.4757,-110.2808C123.8185,-101.8448 130.6354,-91.0813 136.3167,-82.1107"/>
<polygon fill="#191970" stroke="#191970" points="139.3232,-83.9051 141.7169,-73.5842 133.4095,-80.1597 139.3232,-83.9051"/>
</g>
<!-- Node5&#45;&gt;Node3 -->
<g id="edge7" class="edge">
<title>Node5&#45;&gt;Node3</title>
<path fill="none" stroke="#191970" d="M131.948,-55.4179C117.2527,-46.8195 94.959,-33.7754 77.8836,-23.7844"/>
<polygon fill="#191970" stroke="#191970" points="79.4142,-20.6249 69.0155,-18.5956 75.879,-26.6667 79.4142,-20.6249"/>
</g>
</g>
</svg>
