<?xml version="1.0" encoding="UTF-8" standalone="no"?>
<!DOCTYPE svg PUBLIC "-//W3C//DTD SVG 1.1//EN"
 "http://www.w3.org/Graphics/SVG/1.1/DTD/svg11.dtd">
<!-- Generated by graphviz version 2.40.1 (20161225.0304)
 -->
<!-- Title: /Users/Claudio/GitHub/bayes&#45;filters&#45;lib/src/BayesFilters/include/BayesFilters/WhiteNoiseAcceleration.h Pages: 1 -->
<svg width="277pt" height="297pt"
 viewBox="0.00 0.00 277.42 297.00" xmlns="http://www.w3.org/2000/svg" xmlns:xlink="http://www.w3.org/1999/xlink">
<g id="graph0" class="graph" transform="scale(1 1) rotate(0) translate(4 293)">
<title>/Users/Claudio/GitHub/bayes&#45;filters&#45;lib/src/BayesFilters/include/BayesFilters/WhiteNoiseAcceleration.h</title>
<polygon fill="#ffffff" stroke="transparent" points="-4,4 -4,-293 273.4233,-293 273.4233,4 -4,4"/>
<!-- Node0 -->
<g id="node1" class="node">
<title>Node0</title>
<polygon fill="#bfbfbf" stroke="#000000" points="89.4434,-240.5 89.4434,-288.5 255.4971,-288.5 255.4971,-240.5 89.4434,-240.5"/>
<text text-anchor="start" x="97.4434" y="-276.5" font-family="Helvetica,sans-Serif" font-size="10.00" fill="#000000">/Users/Claudio/GitHub</text>
<text text-anchor="start" x="97.4434" y="-266.5" font-family="Helvetica,sans-Serif" font-size="10.00" fill="#000000">/bayes&#45;filters&#45;lib/src</text>
<text text-anchor="start" x="97.4434" y="-256.5" font-family="Helvetica,sans-Serif" font-size="10.00" fill="#000000">/BayesFilters/include/BayesFilters</text>
<text text-anchor="middle" x="172.4702" y="-246.5" font-family="Helvetica,sans-Serif" font-size="10.00" fill="#000000">/WhiteNoiseAcceleration.h</text>
</g>
<!-- Node1 -->
<g id="node2" class="node">
<title>Node1</title>
<g id="a_node2"><a xlink:href="LinearStateModel_8h.html" target="_top" xlink:title="BayesFilters/LinearState\lModel.h">
<polygon fill="#ffffff" stroke="#000000" points="0,-175.5 0,-203.5 124.9404,-203.5 124.9404,-175.5 0,-175.5"/>
<text text-anchor="start" x="8" y="-191.5" font-family="Helvetica,sans-Serif" font-size="10.00" fill="#000000">BayesFilters/LinearState</text>
<text text-anchor="middle" x="62.4702" y="-181.5" font-family="Helvetica,sans-Serif" font-size="10.00" fill="#000000">Model.h</text>
</a>
</g>
</g>
<!-- Node0&#45;&gt;Node1 -->
<g id="edge1" class="edge">
<title>Node0&#45;&gt;Node1</title>
<path fill="none" stroke="#191970" d="M137.06,-240.3567C122.2889,-230.2855 105.3494,-218.7358 91.3503,-209.191"/>
<polygon fill="#191970" stroke="#191970" points="93.2935,-206.2798 83.0595,-203.5382 89.3501,-212.0634 93.2935,-206.2798"/>
</g>
<!-- Node5 -->
<g id="node6" class="node">
<title>Node5</title>
<polygon fill="#ffffff" stroke="#bfbfbf" points="143.0664,-180.5 143.0664,-198.5 201.874,-198.5 201.874,-180.5 143.0664,-180.5"/>
<text text-anchor="middle" x="172.4702" y="-186.5" font-family="Helvetica,sans-Serif" font-size="10.00" fill="#000000">functional</text>
</g>
<!-- Node0&#45;&gt;Node5 -->
<g id="edge7" class="edge">
<title>Node0&#45;&gt;Node5</title>
<path fill="none" stroke="#191970" d="M172.4702,-240.3567C172.4702,-230.1383 172.4702,-218.3979 172.4702,-208.7737"/>
<polygon fill="#191970" stroke="#191970" points="175.9703,-208.6659 172.4702,-198.666 168.9703,-208.666 175.9703,-208.6659"/>
</g>
<!-- Node6 -->
<g id="node7" class="node">
<title>Node6</title>
<polygon fill="#ffffff" stroke="#bfbfbf" points="219.5171,-180.5 219.5171,-198.5 269.4233,-198.5 269.4233,-180.5 219.5171,-180.5"/>
<text text-anchor="middle" x="244.4702" y="-186.5" font-family="Helvetica,sans-Serif" font-size="10.00" fill="#000000">random</text>
</g>
<!-- Node0&#45;&gt;Node6 -->
<g id="edge8" class="edge">
<title>Node0&#45;&gt;Node6</title>
<path fill="none" stroke="#191970" d="M195.6478,-240.3567C206.4171,-229.1387 218.9474,-216.0863 228.6173,-206.0134"/>
<polygon fill="#191970" stroke="#191970" points="231.2704,-208.3038 235.6709,-198.666 226.2207,-203.456 231.2704,-208.3038"/>
</g>
<!-- Node2 -->
<g id="node3" class="node">
<title>Node2</title>
<polygon fill="#ffffff" stroke="#bfbfbf" points="16.8398,-.5 16.8398,-18.5 90.1006,-18.5 90.1006,-.5 16.8398,-.5"/>
<text text-anchor="middle" x="53.4702" y="-6.5" font-family="Helvetica,sans-Serif" font-size="10.00" fill="#000000">Eigen/Dense</text>
</g>
<!-- Node1&#45;&gt;Node2 -->
<g id="edge2" class="edge">
<title>Node1&#45;&gt;Node2</title>
<path fill="none" stroke="#191970" d="M52.0317,-175.3148C45.5735,-165.6268 37.8846,-152.1993 34.4702,-139 24.4617,-100.3089 37.1728,-53.6582 46.1102,-28.2462"/>
<polygon fill="#191970" stroke="#191970" points="49.4396,-29.3339 49.6322,-18.7408 42.8757,-26.9018 49.4396,-29.3339"/>
</g>
<!-- Node3 -->
<g id="node4" class="node">
<title>Node3</title>
<g id="a_node4"><a xlink:href="AdditiveStateModel_8h.html" target="_top" xlink:title="BayesFilters/AdditiveState\lModel.h">
<polygon fill="#ffffff" stroke="#000000" points="43.1108,-110.5 43.1108,-138.5 175.8296,-138.5 175.8296,-110.5 43.1108,-110.5"/>
<text text-anchor="start" x="51.1108" y="-126.5" font-family="Helvetica,sans-Serif" font-size="10.00" fill="#000000">BayesFilters/AdditiveState</text>
<text text-anchor="middle" x="109.4702" y="-116.5" font-family="Helvetica,sans-Serif" font-size="10.00" fill="#000000">Model.h</text>
</a>
</g>
</g>
<!-- Node1&#45;&gt;Node3 -->
<g id="edge3" class="edge">
<title>Node1&#45;&gt;Node3</title>
<path fill="none" stroke="#191970" d="M72.6685,-175.396C78.7043,-167.0486 86.4857,-156.2871 93.3375,-146.8113"/>
<polygon fill="#191970" stroke="#191970" points="96.2686,-148.7309 99.2918,-138.5765 90.5961,-144.6292 96.2686,-148.7309"/>
</g>
<!-- Node3&#45;&gt;Node2 -->
<g id="edge4" class="edge">
<title>Node3&#45;&gt;Node2</title>
<path fill="none" stroke="#191970" d="M97.0227,-110.3475C89.0572,-100.6733 79.0244,-87.2489 72.4702,-74 65.2721,-59.4494 60.2877,-41.6743 57.236,-28.4714"/>
<polygon fill="#191970" stroke="#191970" points="60.6436,-27.6692 55.1209,-18.6276 53.7997,-29.1397 60.6436,-27.6692"/>
</g>
<!-- Node4 -->
<g id="node5" class="node">
<title>Node4</title>
<g id="a_node5"><a xlink:href="StateModel_8h.html" target="_top" xlink:title="BayesFilters/StateModel.h">
<polygon fill="#ffffff" stroke="#000000" points="81.1108,-55.5 81.1108,-73.5 213.8296,-73.5 213.8296,-55.5 81.1108,-55.5"/>
<text text-anchor="middle" x="147.4702" y="-61.5" font-family="Helvetica,sans-Serif" font-size="10.00" fill="#000000">BayesFilters/StateModel.h</text>
</a>
</g>
</g>
<!-- Node3&#45;&gt;Node4 -->
<g id="edge5" class="edge">
<title>Node3&#45;&gt;Node4</title>
<path fill="none" stroke="#191970" d="M118.4757,-110.2808C123.8185,-101.8448 130.6354,-91.0813 136.3167,-82.1107"/>
<polygon fill="#191970" stroke="#191970" points="139.3232,-83.9051 141.7169,-73.5842 133.4095,-80.1597 139.3232,-83.9051"/>
</g>
<!-- Node4&#45;&gt;Node2 -->
<g id="edge6" class="edge">
<title>Node4&#45;&gt;Node2</title>
<path fill="none" stroke="#191970" d="M131.948,-55.4179C117.2527,-46.8195 94.959,-33.7754 77.8836,-23.7844"/>
<polygon fill="#191970" stroke="#191970" points="79.4142,-20.6249 69.0155,-18.5956 75.879,-26.6667 79.4142,-20.6249"/>
</g>
</g>
</svg>
